{
 "cells": [
  {
   "cell_type": "code",
   "execution_count": 12,
   "id": "57ccc183",
   "metadata": {},
   "outputs": [
    {
     "name": "stdout",
     "output_type": "stream",
     "text": [
      "The autoreload extension is already loaded. To reload it, use:\n",
      "  %reload_ext autoreload\n"
     ]
    }
   ],
   "source": [
    "%load_ext autoreload\n",
    "%autoreload 2\n",
    "\n",
    "import numpy as np\n",
    "import matplotlib.pyplot as plt\n",
    "import pandas as pd\n",
    "import pickle\n",
    "import pretty_midi\n",
    "import librosa\n",
    "import librosa.display\n",
    "import gc\n",
    "from sklearn.preprocessing import StandardScaler\n",
    "import warnings\n",
    "from collections import Counter\n",
    "from torch.utils.data import Dataset\n",
    "import torch\n",
    "\n",
    "\n",
    "\n",
    "import torch\n",
    "import torch.nn as nn\n",
    "from torch.utils.data import DataLoader, Dataset\n",
    "\n",
    "\n",
    "from sklearn.preprocessing import StandardScaler\n",
    "\n",
    "from Preprocessing import *\n",
    "from ExtractGenre import *\n",
    "from CNN_ExtractGenre import *\n",
    "\n",
    "import DatasetLoader as DL"
   ]
  },
  {
   "cell_type": "code",
   "execution_count": 5,
   "id": "fe5b0635",
   "metadata": {},
   "outputs": [],
   "source": [
    "InputPath = os.path.realpath('YAMF/genres_original')\n",
    "\n",
    "GenreMapping = {'metal': 0, 'disco': 1, 'classical': 2, 'hiphop': 3, 'jazz': 4,\n",
    "          'country': 5, 'pop': 6, 'blues': 7, 'reggae': 8, 'rock': 9}"
   ]
  },
  {
   "cell_type": "code",
   "execution_count": 6,
   "id": "8f238c6c",
   "metadata": {},
   "outputs": [],
   "source": [
    "with open('GenreDataset.pkl', 'rb') as f:\n",
    "   GenreDataset = pickle.load(f)"
   ]
  },
  {
   "cell_type": "code",
   "execution_count": 7,
   "id": "d58d1846",
   "metadata": {},
   "outputs": [
    {
     "name": "stderr",
     "output_type": "stream",
     "text": [
      "100%|██████████| 13164/13164 [00:00<00:00, 28717.90it/s]\n",
      "100%|██████████| 13164/13164 [00:30<00:00, 425.59it/s]\n",
      "100%|██████████| 13164/13164 [00:16<00:00, 785.38it/s] \n",
      "100%|██████████| 13164/13164 [00:00<00:00, 28594.27it/s]\n",
      "100%|██████████| 13164/13164 [00:17<00:00, 771.74it/s]\n",
      "100%|██████████| 13164/13164 [00:19<00:00, 683.34it/s]\n",
      "100%|██████████| 13164/13164 [00:18<00:00, 702.80it/s] \n",
      "100%|██████████| 13164/13164 [00:03<00:00, 4380.56it/s]\n",
      "100%|██████████| 13164/13164 [00:06<00:00, 1975.59it/s]\n",
      "100%|██████████| 13164/13164 [02:01<00:00, 108.26it/s]\n"
     ]
    },
    {
     "name": "stdout",
     "output_type": "stream",
     "text": [
      "2317\n"
     ]
    }
   ],
   "source": [
    "CNN_GenreDataset = DiscriminateSongGenre(GenreDataset)"
   ]
  },
  {
   "cell_type": "code",
   "execution_count": null,
   "id": "5141157f",
   "metadata": {},
   "outputs": [],
   "source": [
    "with open('CNN_GenreDataset.pkl', 'rb') as f:\n",
    "   CNN_GenreDataset = pickle.load(f)"
   ]
  },
  {
   "cell_type": "code",
   "execution_count": null,
   "id": "6085bb72",
   "metadata": {},
   "outputs": [],
   "source": [
    "# with open('CNN_GenreDataset.pkl', 'wb') as f:\n",
    "#    pickle.dump(CNN_GenreDataset, f)"
   ]
  },
  {
   "cell_type": "code",
   "execution_count": null,
   "id": "73bf39a9",
   "metadata": {},
   "outputs": [],
   "source": []
  },
  {
   "cell_type": "code",
   "execution_count": null,
   "id": "4f9484c9",
   "metadata": {},
   "outputs": [],
   "source": []
  },
  {
   "cell_type": "code",
   "execution_count": null,
   "id": "00523c50",
   "metadata": {},
   "outputs": [],
   "source": []
  },
  {
   "cell_type": "code",
   "execution_count": 10,
   "id": "7832f0d3",
   "metadata": {},
   "outputs": [
    {
     "name": "stdout",
     "output_type": "stream",
     "text": [
      "MidiFile(type=1, ticks_per_beat=480, tracks=[\n",
      "  MidiTrack([\n",
      "    MetaMessage('set_tempo', tempo=722892, time=0),\n",
      "    MetaMessage('time_signature', numerator=4, denominator=4, clocks_per_click=24, notated_32nd_notes_per_beat=8, time=0),\n",
      "    MetaMessage('key_signature', key='C', time=0),\n",
      "    MetaMessage('end_of_track', time=0)]),\n",
      "  MidiTrack([\n",
      "    MetaMessage('track_name', name='untitled', time=0),\n",
      "    MetaMessage('midi_port', port=0, time=0),\n",
      "    MetaMessage('end_of_track', time=0)]),\n",
      "  MidiTrack([\n",
      "    MetaMessage('track_name', name='TabIt MIDI - Track 1', time=0),\n",
      "    MetaMessage('midi_port', port=0, time=0),\n",
      "    MetaMessage('channel_prefix', channel=0, time=0),\n",
      "    Message('control_change', channel=0, control=7, value=87, time=0),\n",
      "    Message('control_change', channel=0, control=10, value=64, time=0),\n",
      "    Message('program_change', channel=0, program=35, time=0),\n",
      "    Message('note_on', channel=0, note=32, velocity=124, time=17280),\n",
      "    Message('note_off', channel=0, note=32, velocity=64, time=960),\n",
      "    Message('note_on', channel=0, note=40, velocity=124, time=0),\n",
      "    Message('note_off', channel=0, note=40, velocity=64, time=960),\n",
      "    Message('note_on', channel=0, note=42, velocity=124, time=0),\n",
      "    Message('note_off', channel=0, note=42, velocity=64, time=960),\n",
      "    Message('note_on', channel=0, note=35, velocity=124, time=0),\n",
      "    Message('note_off', channel=0, note=35, velocity=64, time=480),\n",
      "    Message('note_on', channel=0, note=34, velocity=124, time=0),\n",
      "    Message('note_off', channel=0, note=34, velocity=64, time=480),\n",
      "    Message('note_on', channel=0, note=32, velocity=124, time=0),\n",
      "    Message('note_off', channel=0, note=32, velocity=64, time=960),\n",
      "    Message('note_on', channel=0, note=40, velocity=124, time=0),\n",
      "    Message('note_off', channel=0, note=40, velocity=64, time=960),\n",
      "    Message('note_on', channel=0, note=42, velocity=124, time=0),\n",
      "    Message('note_off', channel=0, note=42, velocity=64, time=960),\n",
      "    Message('note_on', channel=0, note=35, velocity=124, time=0),\n",
      "    Message('note_off', channel=0, note=35, velocity=64, time=480),\n",
      "    Message('note_on', channel=0, note=34, velocity=124, time=0),\n",
      "    Message('note_off', channel=0, note=34, velocity=64, time=480),\n",
      "    Message('note_on', channel=0, note=32, velocity=124, time=0),\n",
      "    Message('note_off', channel=0, note=32, velocity=64, time=960),\n",
      "    Message('note_on', channel=0, note=40, velocity=124, time=0),\n",
      "    Message('note_off', channel=0, note=40, velocity=64, time=960),\n",
      "    Message('note_on', channel=0, note=42, velocity=124, time=0),\n",
      "    Message('note_off', channel=0, note=42, velocity=64, time=960),\n",
      "    Message('note_on', channel=0, note=35, velocity=124, time=0),\n",
      "    Message('note_off', channel=0, note=35, velocity=64, time=480),\n",
      "    Message('note_on', channel=0, note=34, velocity=124, time=0),\n",
      "    Message('note_off', channel=0, note=34, velocity=64, time=480),\n",
      "    Message('note_on', channel=0, note=32, velocity=124, time=0),\n",
      "    Message('note_off', channel=0, note=32, velocity=64, time=720),\n",
      "    Message('note_on', channel=0, note=32, velocity=124, time=0),\n",
      "    Message('note_off', channel=0, note=32, velocity=64, time=240),\n",
      "    Message('note_on', channel=0, note=40, velocity=124, time=0),\n",
      "    Message('note_off', channel=0, note=40, velocity=64, time=720),\n",
      "    Message('note_on', channel=0, note=40, velocity=124, time=0),\n",
      "    Message('note_off', channel=0, note=40, velocity=64, time=240),\n",
      "    Message('note_on', channel=0, note=41, velocity=124, time=0),\n",
      "    Message('note_off', channel=0, note=41, velocity=64, time=720),\n",
      "    Message('note_on', channel=0, note=41, velocity=124, time=0),\n",
      "    Message('note_off', channel=0, note=41, velocity=64, time=240),\n",
      "    Message('note_on', channel=0, note=40, velocity=124, time=0),\n",
      "    Message('note_off', channel=0, note=40, velocity=64, time=480),\n",
      "    Message('note_on', channel=0, note=35, velocity=124, time=0),\n",
      "    Message('note_off', channel=0, note=35, velocity=64, time=240),\n",
      "    Message('note_on', channel=0, note=34, velocity=124, time=0),\n",
      "    Message('note_off', channel=0, note=34, velocity=64, time=240),\n",
      "    Message('note_on', channel=0, note=32, velocity=124, time=0),\n",
      "    Message('note_off', channel=0, note=32, velocity=64, time=960),\n",
      "    Message('note_on', channel=0, note=40, velocity=124, time=0),\n",
      "    Message('note_off', channel=0, note=40, velocity=64, time=960),\n",
      "    Message('note_on', channel=0, note=42, velocity=124, time=0),\n",
      "    Message('note_off', channel=0, note=42, velocity=64, time=960),\n",
      "    Message('note_on', channel=0, note=35, velocity=124, time=0),\n",
      "    Message('note_off', channel=0, note=35, velocity=64, time=480),\n",
      "    Message('note_on', channel=0, note=34, velocity=124, time=0),\n",
      "    Message('note_off', channel=0, note=34, velocity=64, time=480),\n",
      "    Message('note_on', channel=0, note=32, velocity=124, time=0),\n",
      "    Message('note_off', channel=0, note=32, velocity=64, time=960),\n",
      "    Message('note_on', channel=0, note=40, velocity=124, time=0),\n",
      "    Message('note_off', channel=0, note=40, velocity=64, time=960),\n",
      "    Message('note_on', channel=0, note=42, velocity=124, time=0),\n",
      "    Message('note_off', channel=0, note=42, velocity=64, time=960),\n",
      "    Message('note_on', channel=0, note=35, velocity=124, time=0),\n",
      "    Message('note_off', channel=0, note=35, velocity=64, time=480),\n",
      "    Message('note_on', channel=0, note=34, velocity=124, time=0),\n",
      "    Message('note_off', channel=0, note=34, velocity=64, time=480),\n",
      "    Message('note_on', channel=0, note=32, velocity=124, time=0),\n",
      "    Message('note_off', channel=0, note=32, velocity=64, time=960),\n",
      "    Message('note_on', channel=0, note=40, velocity=124, time=0),\n",
      "    Message('note_off', channel=0, note=40, velocity=64, time=960),\n",
      "    Message('note_on', channel=0, note=42, velocity=124, time=0),\n",
      "    Message('note_off', channel=0, note=42, velocity=64, time=960),\n",
      "    Message('note_on', channel=0, note=35, velocity=124, time=0),\n",
      "    Message('note_off', channel=0, note=35, velocity=64, time=480),\n",
      "    Message('note_on', channel=0, note=34, velocity=124, time=0),\n",
      "    Message('note_off', channel=0, note=34, velocity=64, time=480),\n",
      "    Message('note_on', channel=0, note=32, velocity=124, time=0),\n",
      "    Message('note_off', channel=0, note=32, velocity=64, time=720),\n",
      "    Message('note_on', channel=0, note=32, velocity=124, time=0),\n",
      "    Message('note_off', channel=0, note=32, velocity=64, time=240),\n",
      "    Message('note_on', channel=0, note=40, velocity=124, time=0),\n",
      "    Message('note_off', channel=0, note=40, velocity=64, time=720),\n",
      "    Message('note_on', channel=0, note=40, velocity=124, time=0),\n",
      "    Message('note_off', channel=0, note=40, velocity=64, time=240),\n",
      "    Message('note_on', channel=0, note=41, velocity=124, time=0),\n",
      "    Message('note_off', channel=0, note=41, velocity=64, time=720),\n",
      "    Message('note_on', channel=0, note=41, velocity=124, time=0),\n",
      "    Message('note_off', channel=0, note=41, velocity=64, time=240),\n",
      "    Message('note_on', channel=0, note=40, velocity=124, time=0),\n",
      "    Message('note_off', channel=0, note=40, velocity=64, time=480),\n",
      "    Message('note_on', channel=0, note=35, velocity=124, time=0),\n",
      "    Message('note_off', channel=0, note=35, velocity=64, time=240),\n",
      "    Message('note_on', channel=0, note=34, velocity=124, time=0),\n",
      "    Message('note_off', channel=0, note=34, velocity=64, time=240),\n",
      "    Message('note_on', channel=0, note=32, velocity=124, time=0),\n",
      "    Message('note_off', channel=0, note=32, velocity=64, time=960),\n",
      "    Message('note_on', channel=0, note=40, velocity=124, time=0),\n",
      "    Message('note_off', channel=0, note=40, velocity=64, time=960),\n",
      "    Message('note_on', channel=0, note=42, velocity=124, time=0),\n",
      "    Message('note_off', channel=0, note=42, velocity=64, time=960),\n",
      "    Message('note_on', channel=0, note=35, velocity=124, time=0),\n",
      "    Message('note_off', channel=0, note=35, velocity=64, time=480),\n",
      "    Message('note_on', channel=0, note=34, velocity=124, time=0),\n",
      "    Message('note_off', channel=0, note=34, velocity=64, time=480),\n",
      "    Message('note_on', channel=0, note=32, velocity=124, time=0),\n",
      "    Message('note_off', channel=0, note=32, velocity=64, time=960),\n",
      "    Message('note_on', channel=0, note=40, velocity=124, time=0),\n",
      "    Message('note_off', channel=0, note=40, velocity=64, time=960),\n",
      "    Message('note_on', channel=0, note=42, velocity=124, time=0),\n",
      "    Message('note_off', channel=0, note=42, velocity=64, time=960),\n",
      "    Message('note_on', channel=0, note=35, velocity=124, time=0),\n",
      "    Message('note_off', channel=0, note=35, velocity=64, time=480),\n",
      "    Message('note_on', channel=0, note=34, velocity=124, time=0),\n",
      "    Message('note_off', channel=0, note=34, velocity=64, time=480),\n",
      "    Message('note_on', channel=0, note=32, velocity=124, time=0),\n",
      "    Message('note_off', channel=0, note=32, velocity=64, time=960),\n",
      "    Message('note_on', channel=0, note=40, velocity=124, time=0),\n",
      "    Message('note_off', channel=0, note=40, velocity=64, time=960),\n",
      "    Message('note_on', channel=0, note=42, velocity=124, time=0),\n",
      "    Message('note_off', channel=0, note=42, velocity=64, time=960),\n",
      "    Message('note_on', channel=0, note=35, velocity=124, time=0),\n",
      "    Message('note_off', channel=0, note=35, velocity=64, time=480),\n",
      "    Message('note_on', channel=0, note=34, velocity=124, time=0),\n",
      "    Message('note_off', channel=0, note=34, velocity=64, time=480),\n",
      "    Message('note_on', channel=0, note=32, velocity=124, time=0),\n",
      "    Message('note_off', channel=0, note=32, velocity=64, time=720),\n",
      "    Message('note_on', channel=0, note=32, velocity=124, time=0),\n",
      "    Message('note_off', channel=0, note=32, velocity=64, time=240),\n",
      "    Message('note_on', channel=0, note=40, velocity=124, time=0),\n",
      "    Message('note_off', channel=0, note=40, velocity=64, time=720),\n",
      "    Message('note_on', channel=0, note=40, velocity=124, time=0),\n",
      "    Message('note_off', channel=0, note=40, velocity=64, time=240),\n",
      "    Message('note_on', channel=0, note=41, velocity=124, time=0),\n",
      "    Message('note_off', channel=0, note=41, velocity=64, time=720),\n",
      "    Message('note_on', channel=0, note=41, velocity=124, time=0),\n",
      "    Message('note_off', channel=0, note=41, velocity=64, time=240),\n",
      "    Message('note_on', channel=0, note=40, velocity=124, time=0),\n",
      "    Message('note_off', channel=0, note=40, velocity=64, time=480),\n",
      "    Message('note_on', channel=0, note=35, velocity=124, time=0),\n",
      "    Message('note_off', channel=0, note=35, velocity=64, time=240),\n",
      "    Message('note_on', channel=0, note=34, velocity=124, time=0),\n",
      "    Message('note_off', channel=0, note=34, velocity=64, time=240),\n",
      "    Message('note_on', channel=0, note=32, velocity=124, time=0),\n",
      "    Message('note_off', channel=0, note=32, velocity=64, time=960),\n",
      "    Message('note_on', channel=0, note=40, velocity=124, time=0),\n",
      "    Message('note_off', channel=0, note=40, velocity=64, time=960),\n",
      "    Message('note_on', channel=0, note=42, velocity=124, time=0),\n",
      "    Message('note_off', channel=0, note=42, velocity=64, time=960),\n",
      "    Message('note_on', channel=0, note=35, velocity=124, time=0),\n",
      "    Message('note_off', channel=0, note=35, velocity=64, time=480),\n",
      "    Message('note_on', channel=0, note=34, velocity=124, time=0),\n",
      "    Message('note_off', channel=0, note=34, velocity=64, time=480),\n",
      "    Message('note_on', channel=0, note=32, velocity=124, time=0),\n",
      "    Message('note_off', channel=0, note=32, velocity=64, time=960),\n",
      "    Message('note_on', channel=0, note=40, velocity=124, time=0),\n",
      "    Message('note_off', channel=0, note=40, velocity=64, time=960),\n",
      "    Message('note_on', channel=0, note=42, velocity=124, time=0),\n",
      "    Message('note_off', channel=0, note=42, velocity=64, time=960),\n",
      "    Message('note_on', channel=0, note=35, velocity=124, time=0),\n",
      "    Message('note_off', channel=0, note=35, velocity=64, time=480),\n",
      "    Message('note_on', channel=0, note=34, velocity=124, time=0),\n",
      "    Message('note_off', channel=0, note=34, velocity=64, time=480),\n",
      "    Message('note_on', channel=0, note=32, velocity=124, time=0),\n",
      "    Message('note_off', channel=0, note=32, velocity=64, time=960),\n",
      "    Message('note_on', channel=0, note=40, velocity=124, time=0),\n",
      "    Message('note_off', channel=0, note=40, velocity=64, time=960),\n",
      "    Message('note_on', channel=0, note=42, velocity=124, time=0),\n",
      "    Message('note_off', channel=0, note=42, velocity=64, time=960),\n",
      "    Message('note_on', channel=0, note=35, velocity=124, time=0),\n",
      "    Message('note_off', channel=0, note=35, velocity=64, time=480),\n",
      "    Message('note_on', channel=0, note=34, velocity=124, time=0),\n",
      "    Message('note_off', channel=0, note=34, velocity=64, time=480),\n",
      "    Message('note_on', channel=0, note=32, velocity=124, time=0),\n",
      "    Message('note_off', channel=0, note=32, velocity=64, time=720),\n",
      "    Message('note_on', channel=0, note=32, velocity=124, time=0),\n",
      "    Message('note_off', channel=0, note=32, velocity=64, time=240),\n",
      "    Message('note_on', channel=0, note=40, velocity=124, time=0),\n",
      "    Message('note_off', channel=0, note=40, velocity=64, time=720),\n",
      "    Message('note_on', channel=0, note=40, velocity=124, time=0),\n",
      "    Message('note_off', channel=0, note=40, velocity=64, time=240),\n",
      "    Message('note_on', channel=0, note=41, velocity=124, time=0),\n",
      "    Message('note_off', channel=0, note=41, velocity=64, time=720),\n",
      "    Message('note_on', channel=0, note=41, velocity=124, time=0),\n",
      "    Message('note_off', channel=0, note=41, velocity=64, time=240),\n",
      "    Message('note_on', channel=0, note=40, velocity=124, time=0),\n",
      "    Message('note_off', channel=0, note=40, velocity=64, time=480),\n",
      "    Message('note_on', channel=0, note=35, velocity=124, time=0),\n",
      "    Message('note_off', channel=0, note=35, velocity=64, time=240),\n",
      "    Message('note_on', channel=0, note=34, velocity=124, time=0),\n",
      "    Message('note_off', channel=0, note=34, velocity=64, time=240),\n",
      "    Message('note_on', channel=0, note=32, velocity=124, time=0),\n",
      "    Message('note_off', channel=0, note=32, velocity=64, time=960),\n",
      "    Message('note_on', channel=0, note=40, velocity=124, time=0),\n",
      "    Message('note_off', channel=0, note=40, velocity=64, time=960),\n",
      "    Message('note_on', channel=0, note=42, velocity=124, time=0),\n",
      "    Message('note_off', channel=0, note=42, velocity=64, time=960),\n",
      "    Message('note_on', channel=0, note=35, velocity=124, time=0),\n",
      "    Message('note_off', channel=0, note=35, velocity=64, time=480),\n",
      "    Message('note_on', channel=0, note=34, velocity=124, time=0),\n",
      "    Message('note_off', channel=0, note=34, velocity=64, time=480),\n",
      "    Message('note_on', channel=0, note=32, velocity=124, time=0),\n",
      "    Message('note_off', channel=0, note=32, velocity=64, time=960),\n",
      "    Message('note_on', channel=0, note=40, velocity=124, time=0),\n",
      "    Message('note_off', channel=0, note=40, velocity=64, time=960),\n",
      "    Message('note_on', channel=0, note=42, velocity=124, time=0),\n",
      "    Message('note_off', channel=0, note=42, velocity=64, time=960),\n",
      "    Message('note_on', channel=0, note=35, velocity=124, time=0),\n",
      "    Message('note_off', channel=0, note=35, velocity=64, time=480),\n",
      "    Message('note_on', channel=0, note=34, velocity=124, time=0),\n",
      "    Message('note_off', channel=0, note=34, velocity=64, time=480),\n",
      "    Message('note_on', channel=0, note=32, velocity=124, time=0),\n",
      "    Message('note_off', channel=0, note=32, velocity=64, time=960),\n",
      "    Message('note_on', channel=0, note=40, velocity=124, time=0),\n",
      "    Message('note_off', channel=0, note=40, velocity=64, time=960),\n",
      "    Message('note_on', channel=0, note=42, velocity=124, time=0),\n",
      "    Message('note_off', channel=0, note=42, velocity=64, time=960),\n",
      "    Message('note_on', channel=0, note=35, velocity=124, time=0),\n",
      "    Message('note_off', channel=0, note=35, velocity=64, time=480),\n",
      "    Message('note_on', channel=0, note=34, velocity=124, time=0),\n",
      "    Message('note_off', channel=0, note=34, velocity=64, time=480),\n",
      "    Message('note_on', channel=0, note=32, velocity=124, time=0),\n",
      "    Message('note_off', channel=0, note=32, velocity=64, time=720),\n",
      "    Message('note_on', channel=0, note=32, velocity=124, time=0),\n",
      "    Message('note_off', channel=0, note=32, velocity=64, time=240),\n",
      "    Message('note_on', channel=0, note=40, velocity=124, time=0),\n",
      "    Message('note_off', channel=0, note=40, velocity=64, time=720),\n",
      "    Message('note_on', channel=0, note=40, velocity=124, time=0),\n",
      "    Message('note_off', channel=0, note=40, velocity=64, time=240),\n",
      "    Message('note_on', channel=0, note=41, velocity=124, time=0),\n",
      "    Message('note_off', channel=0, note=41, velocity=64, time=720),\n",
      "    Message('note_on', channel=0, note=41, velocity=124, time=0),\n",
      "    Message('note_off', channel=0, note=41, velocity=64, time=240),\n",
      "    Message('note_on', channel=0, note=40, velocity=124, time=0),\n",
      "    Message('note_off', channel=0, note=40, velocity=64, time=480),\n",
      "    Message('note_on', channel=0, note=35, velocity=124, time=0),\n",
      "    Message('note_off', channel=0, note=35, velocity=64, time=240),\n",
      "    Message('note_on', channel=0, note=34, velocity=124, time=0),\n",
      "    Message('note_off', channel=0, note=34, velocity=64, time=240),\n",
      "    Message('note_on', channel=0, note=32, velocity=124, time=0),\n",
      "    Message('note_off', channel=0, note=32, velocity=64, time=960),\n",
      "    Message('note_on', channel=0, note=40, velocity=124, time=0),\n",
      "    Message('note_off', channel=0, note=40, velocity=64, time=960),\n",
      "    Message('note_on', channel=0, note=42, velocity=124, time=0),\n",
      "    Message('note_off', channel=0, note=42, velocity=64, time=960),\n",
      "    Message('note_on', channel=0, note=35, velocity=124, time=0),\n",
      "    Message('note_off', channel=0, note=35, velocity=64, time=480),\n",
      "    Message('note_on', channel=0, note=34, velocity=124, time=0),\n",
      "    Message('note_off', channel=0, note=34, velocity=64, time=480),\n",
      "    Message('note_on', channel=0, note=32, velocity=124, time=0),\n",
      "    Message('note_off', channel=0, note=32, velocity=64, time=960),\n",
      "    Message('note_on', channel=0, note=40, velocity=124, time=0),\n",
      "    Message('note_off', channel=0, note=40, velocity=64, time=960),\n",
      "    Message('note_on', channel=0, note=42, velocity=124, time=0),\n",
      "    Message('note_off', channel=0, note=42, velocity=64, time=960),\n",
      "    Message('note_on', channel=0, note=35, velocity=124, time=0),\n",
      "    Message('note_off', channel=0, note=35, velocity=64, time=480),\n",
      "    Message('note_on', channel=0, note=34, velocity=124, time=0),\n",
      "    Message('note_off', channel=0, note=34, velocity=64, time=480),\n",
      "    Message('note_on', channel=0, note=32, velocity=124, time=0),\n",
      "    Message('note_off', channel=0, note=32, velocity=64, time=960),\n",
      "    Message('note_on', channel=0, note=40, velocity=124, time=0),\n",
      "    Message('note_off', channel=0, note=40, velocity=64, time=960),\n",
      "    Message('note_on', channel=0, note=42, velocity=124, time=0),\n",
      "    Message('note_off', channel=0, note=42, velocity=64, time=960),\n",
      "    Message('note_on', channel=0, note=35, velocity=124, time=0),\n",
      "    Message('note_off', channel=0, note=35, velocity=64, time=480),\n",
      "    Message('note_on', channel=0, note=34, velocity=124, time=0),\n",
      "    Message('note_off', channel=0, note=34, velocity=64, time=480),\n",
      "    Message('note_on', channel=0, note=32, velocity=124, time=0),\n",
      "    Message('note_off', channel=0, note=32, velocity=64, time=720),\n",
      "    Message('note_on', channel=0, note=32, velocity=124, time=0),\n",
      "    Message('note_off', channel=0, note=32, velocity=64, time=240),\n",
      "    Message('note_on', channel=0, note=40, velocity=124, time=0),\n",
      "    Message('note_off', channel=0, note=40, velocity=64, time=720),\n",
      "    Message('note_on', channel=0, note=40, velocity=124, time=0),\n",
      "    Message('note_off', channel=0, note=40, velocity=64, time=240),\n",
      "    Message('note_on', channel=0, note=41, velocity=124, time=0),\n",
      "    Message('note_off', channel=0, note=41, velocity=64, time=720),\n",
      "    Message('note_on', channel=0, note=41, velocity=124, time=0),\n",
      "    Message('note_off', channel=0, note=41, velocity=64, time=240),\n",
      "    Message('note_on', channel=0, note=40, velocity=124, time=0),\n",
      "    Message('note_off', channel=0, note=40, velocity=64, time=480),\n",
      "    Message('note_on', channel=0, note=35, velocity=124, time=0),\n",
      "    Message('note_off', channel=0, note=35, velocity=64, time=240),\n",
      "    Message('note_on', channel=0, note=34, velocity=124, time=0),\n",
      "    Message('note_off', channel=0, note=34, velocity=64, time=240),\n",
      "    Message('note_on', channel=0, note=32, velocity=124, time=0),\n",
      "    Message('note_off', channel=0, note=32, velocity=64, time=960),\n",
      "    Message('note_on', channel=0, note=40, velocity=124, time=0),\n",
      "    Message('note_off', channel=0, note=40, velocity=64, time=960),\n",
      "    Message('note_on', channel=0, note=42, velocity=124, time=0),\n",
      "    Message('note_off', channel=0, note=42, velocity=64, time=960),\n",
      "    Message('note_on', channel=0, note=35, velocity=124, time=0),\n",
      "    Message('note_off', channel=0, note=35, velocity=64, time=480),\n",
      "    Message('note_on', channel=0, note=34, velocity=124, time=0),\n",
      "    Message('note_off', channel=0, note=34, velocity=64, time=480),\n",
      "    Message('note_on', channel=0, note=32, velocity=124, time=0),\n",
      "    Message('note_off', channel=0, note=32, velocity=64, time=960),\n",
      "    Message('note_on', channel=0, note=40, velocity=124, time=0),\n",
      "    Message('note_off', channel=0, note=40, velocity=64, time=960),\n",
      "    Message('note_on', channel=0, note=42, velocity=124, time=0),\n",
      "    Message('note_off', channel=0, note=42, velocity=64, time=960),\n",
      "    Message('note_on', channel=0, note=35, velocity=124, time=0),\n",
      "    Message('note_off', channel=0, note=35, velocity=64, time=480),\n",
      "    Message('note_on', channel=0, note=34, velocity=124, time=0),\n",
      "    Message('note_off', channel=0, note=34, velocity=64, time=480),\n",
      "    Message('note_on', channel=0, note=32, velocity=124, time=0),\n",
      "    Message('note_off', channel=0, note=32, velocity=64, time=960),\n",
      "    Message('note_on', channel=0, note=40, velocity=124, time=0),\n",
      "    Message('note_off', channel=0, note=40, velocity=64, time=960),\n",
      "    Message('note_on', channel=0, note=42, velocity=124, time=0),\n",
      "    Message('note_off', channel=0, note=42, velocity=64, time=960),\n",
      "    Message('note_on', channel=0, note=35, velocity=124, time=0),\n",
      "    Message('note_off', channel=0, note=35, velocity=64, time=480),\n",
      "    Message('note_on', channel=0, note=34, velocity=124, time=0),\n",
      "    Message('note_off', channel=0, note=34, velocity=64, time=480),\n",
      "    Message('note_on', channel=0, note=32, velocity=124, time=0),\n",
      "    Message('note_off', channel=0, note=32, velocity=64, time=720),\n",
      "    Message('note_on', channel=0, note=32, velocity=124, time=0),\n",
      "    Message('note_off', channel=0, note=32, velocity=64, time=240),\n",
      "    Message('note_on', channel=0, note=40, velocity=124, time=0),\n",
      "    Message('note_off', channel=0, note=40, velocity=64, time=720),\n",
      "    Message('note_on', channel=0, note=40, velocity=124, time=0),\n",
      "    Message('note_off', channel=0, note=40, velocity=64, time=240),\n",
      "    Message('note_on', channel=0, note=41, velocity=124, time=0),\n",
      "    Message('note_off', channel=0, note=41, velocity=64, time=720),\n",
      "    Message('note_on', channel=0, note=41, velocity=124, time=0),\n",
      "    Message('note_off', channel=0, note=41, velocity=64, time=240),\n",
      "    Message('note_on', channel=0, note=40, velocity=124, time=0),\n",
      "    Message('note_off', channel=0, note=40, velocity=64, time=480),\n",
      "    Message('note_on', channel=0, note=35, velocity=124, time=0),\n",
      "    Message('note_off', channel=0, note=35, velocity=64, time=240),\n",
      "    Message('note_on', channel=0, note=34, velocity=124, time=0),\n",
      "    Message('note_off', channel=0, note=34, velocity=64, time=240),\n",
      "    Message('note_on', channel=0, note=32, velocity=124, time=0),\n",
      "    Message('note_off', channel=0, note=32, velocity=64, time=960),\n",
      "    Message('note_on', channel=0, note=40, velocity=124, time=0),\n",
      "    Message('note_off', channel=0, note=40, velocity=64, time=960),\n",
      "    Message('note_on', channel=0, note=42, velocity=124, time=0),\n",
      "    Message('note_off', channel=0, note=42, velocity=64, time=960),\n",
      "    Message('note_on', channel=0, note=35, velocity=124, time=0),\n",
      "    Message('note_off', channel=0, note=35, velocity=64, time=480),\n",
      "    Message('note_on', channel=0, note=34, velocity=124, time=0),\n",
      "    Message('note_off', channel=0, note=34, velocity=64, time=480),\n",
      "    Message('note_on', channel=0, note=32, velocity=124, time=0),\n",
      "    Message('note_off', channel=0, note=32, velocity=64, time=960),\n",
      "    Message('note_on', channel=0, note=40, velocity=124, time=0),\n",
      "    Message('note_off', channel=0, note=40, velocity=64, time=960),\n",
      "    Message('note_on', channel=0, note=42, velocity=124, time=0),\n",
      "    Message('note_off', channel=0, note=42, velocity=64, time=960),\n",
      "    Message('note_on', channel=0, note=35, velocity=124, time=0),\n",
      "    Message('note_off', channel=0, note=35, velocity=64, time=480),\n",
      "    Message('note_on', channel=0, note=34, velocity=124, time=0),\n",
      "    Message('note_off', channel=0, note=34, velocity=64, time=480),\n",
      "    Message('note_on', channel=0, note=32, velocity=124, time=0),\n",
      "    Message('note_off', channel=0, note=32, velocity=64, time=960),\n",
      "    Message('note_on', channel=0, note=40, velocity=124, time=0),\n",
      "    Message('note_off', channel=0, note=40, velocity=64, time=960),\n",
      "    Message('note_on', channel=0, note=42, velocity=124, time=0),\n",
      "    Message('note_off', channel=0, note=42, velocity=64, time=960),\n",
      "    Message('note_on', channel=0, note=35, velocity=124, time=0),\n",
      "    Message('note_off', channel=0, note=35, velocity=64, time=480),\n",
      "    Message('note_on', channel=0, note=34, velocity=124, time=0),\n",
      "    Message('note_off', channel=0, note=34, velocity=64, time=480),\n",
      "    Message('note_on', channel=0, note=32, velocity=124, time=0),\n",
      "    Message('note_off', channel=0, note=32, velocity=64, time=720),\n",
      "    Message('note_on', channel=0, note=32, velocity=124, time=0),\n",
      "    Message('note_off', channel=0, note=32, velocity=64, time=240),\n",
      "    Message('note_on', channel=0, note=40, velocity=124, time=0),\n",
      "    Message('note_off', channel=0, note=40, velocity=64, time=720),\n",
      "    Message('note_on', channel=0, note=40, velocity=124, time=0),\n",
      "    Message('note_off', channel=0, note=40, velocity=64, time=240),\n",
      "    Message('note_on', channel=0, note=41, velocity=124, time=0),\n",
      "    Message('note_off', channel=0, note=41, velocity=64, time=720),\n",
      "    Message('note_on', channel=0, note=41, velocity=124, time=0),\n",
      "    Message('note_off', channel=0, note=41, velocity=64, time=240),\n",
      "    Message('note_on', channel=0, note=40, velocity=124, time=0),\n",
      "    Message('note_off', channel=0, note=40, velocity=64, time=480),\n",
      "    Message('note_on', channel=0, note=35, velocity=124, time=0),\n",
      "    Message('note_off', channel=0, note=35, velocity=64, time=240),\n",
      "    Message('note_on', channel=0, note=34, velocity=124, time=0),\n",
      "    Message('note_off', channel=0, note=34, velocity=64, time=240),\n",
      "    Message('note_on', channel=0, note=32, velocity=124, time=0),\n",
      "    Message('note_off', channel=0, note=32, velocity=64, time=960),\n",
      "    Message('note_on', channel=0, note=40, velocity=124, time=0),\n",
      "    Message('note_off', channel=0, note=40, velocity=64, time=960),\n",
      "    Message('note_on', channel=0, note=42, velocity=124, time=0),\n",
      "    Message('note_off', channel=0, note=42, velocity=64, time=960),\n",
      "    Message('note_on', channel=0, note=35, velocity=124, time=0),\n",
      "    Message('note_off', channel=0, note=35, velocity=64, time=480),\n",
      "    Message('note_on', channel=0, note=34, velocity=124, time=0),\n",
      "    Message('note_off', channel=0, note=34, velocity=64, time=480),\n",
      "    Message('note_on', channel=0, note=32, velocity=124, time=0),\n",
      "    Message('note_off', channel=0, note=32, velocity=64, time=960),\n",
      "    Message('note_on', channel=0, note=40, velocity=124, time=0),\n",
      "    Message('note_off', channel=0, note=40, velocity=64, time=960),\n",
      "    Message('note_on', channel=0, note=42, velocity=124, time=0),\n",
      "    Message('note_off', channel=0, note=42, velocity=64, time=960),\n",
      "    Message('note_on', channel=0, note=35, velocity=124, time=0),\n",
      "    Message('note_off', channel=0, note=35, velocity=64, time=480),\n",
      "    Message('note_on', channel=0, note=34, velocity=124, time=0),\n",
      "    Message('note_off', channel=0, note=34, velocity=64, time=480),\n",
      "    Message('note_on', channel=0, note=32, velocity=124, time=0),\n",
      "    Message('note_off', channel=0, note=32, velocity=64, time=960),\n",
      "    Message('note_on', channel=0, note=40, velocity=124, time=0),\n",
      "    Message('note_off', channel=0, note=40, velocity=64, time=960),\n",
      "    Message('note_on', channel=0, note=42, velocity=124, time=0),\n",
      "    Message('note_off', channel=0, note=42, velocity=64, time=960),\n",
      "    Message('note_on', channel=0, note=35, velocity=124, time=0),\n",
      "    Message('note_off', channel=0, note=35, velocity=64, time=480),\n",
      "    Message('note_on', channel=0, note=34, velocity=124, time=0),\n",
      "    Message('note_off', channel=0, note=34, velocity=64, time=480),\n",
      "    Message('note_on', channel=0, note=32, velocity=124, time=0),\n",
      "    Message('note_off', channel=0, note=32, velocity=64, time=720),\n",
      "    Message('note_on', channel=0, note=32, velocity=124, time=0),\n",
      "    Message('note_off', channel=0, note=32, velocity=64, time=240),\n",
      "    Message('note_on', channel=0, note=40, velocity=124, time=0),\n",
      "    Message('note_off', channel=0, note=40, velocity=64, time=720),\n",
      "    Message('note_on', channel=0, note=40, velocity=124, time=0),\n",
      "    Message('note_off', channel=0, note=40, velocity=64, time=240),\n",
      "    Message('note_on', channel=0, note=41, velocity=124, time=0),\n",
      "    Message('note_off', channel=0, note=41, velocity=64, time=720),\n",
      "    Message('note_on', channel=0, note=41, velocity=124, time=0),\n",
      "    Message('note_off', channel=0, note=41, velocity=64, time=240),\n",
      "    Message('note_on', channel=0, note=40, velocity=124, time=0),\n",
      "    Message('note_off', channel=0, note=40, velocity=64, time=480),\n",
      "    Message('note_on', channel=0, note=35, velocity=124, time=0),\n",
      "    Message('note_off', channel=0, note=35, velocity=64, time=240),\n",
      "    Message('note_on', channel=0, note=34, velocity=124, time=0),\n",
      "    Message('note_off', channel=0, note=34, velocity=64, time=240),\n",
      "    Message('note_on', channel=0, note=32, velocity=124, time=0),\n",
      "    Message('note_off', channel=0, note=32, velocity=64, time=960),\n",
      "    Message('note_on', channel=0, note=40, velocity=124, time=0),\n",
      "    Message('note_off', channel=0, note=40, velocity=64, time=960),\n",
      "    Message('note_on', channel=0, note=42, velocity=124, time=0),\n",
      "    Message('note_off', channel=0, note=42, velocity=64, time=960),\n",
      "    Message('note_on', channel=0, note=35, velocity=124, time=0),\n",
      "    Message('note_off', channel=0, note=35, velocity=64, time=480),\n",
      "    Message('note_on', channel=0, note=34, velocity=124, time=0),\n",
      "    Message('note_off', channel=0, note=34, velocity=64, time=480),\n",
      "    Message('note_on', channel=0, note=32, velocity=124, time=0),\n",
      "    Message('note_off', channel=0, note=32, velocity=64, time=960),\n",
      "    Message('note_on', channel=0, note=40, velocity=124, time=0),\n",
      "    Message('note_off', channel=0, note=40, velocity=64, time=960),\n",
      "    Message('note_on', channel=0, note=42, velocity=124, time=0),\n",
      "    Message('note_off', channel=0, note=42, velocity=64, time=960),\n",
      "    Message('note_on', channel=0, note=35, velocity=124, time=0),\n",
      "    Message('note_off', channel=0, note=35, velocity=64, time=480),\n",
      "    Message('note_on', channel=0, note=34, velocity=124, time=0),\n",
      "    Message('note_off', channel=0, note=34, velocity=64, time=480),\n",
      "    Message('note_on', channel=0, note=32, velocity=124, time=0),\n",
      "    Message('note_off', channel=0, note=32, velocity=64, time=960),\n",
      "    Message('note_on', channel=0, note=40, velocity=124, time=0),\n",
      "    Message('note_off', channel=0, note=40, velocity=64, time=960),\n",
      "    Message('note_on', channel=0, note=42, velocity=124, time=0),\n",
      "    Message('note_off', channel=0, note=42, velocity=64, time=960),\n",
      "    Message('note_on', channel=0, note=35, velocity=124, time=0),\n",
      "    Message('note_off', channel=0, note=35, velocity=64, time=480),\n",
      "    Message('note_on', channel=0, note=34, velocity=124, time=0),\n",
      "    Message('note_off', channel=0, note=34, velocity=64, time=480),\n",
      "    Message('note_on', channel=0, note=32, velocity=124, time=0),\n",
      "    Message('note_off', channel=0, note=32, velocity=64, time=720),\n",
      "    Message('note_on', channel=0, note=32, velocity=124, time=0),\n",
      "    Message('note_off', channel=0, note=32, velocity=64, time=240),\n",
      "    Message('note_on', channel=0, note=40, velocity=124, time=0),\n",
      "    Message('note_off', channel=0, note=40, velocity=64, time=720),\n",
      "    Message('note_on', channel=0, note=40, velocity=124, time=0),\n",
      "    Message('note_off', channel=0, note=40, velocity=64, time=240),\n",
      "    Message('note_on', channel=0, note=41, velocity=124, time=0),\n",
      "    Message('note_off', channel=0, note=41, velocity=64, time=720),\n",
      "    Message('note_on', channel=0, note=41, velocity=124, time=0),\n",
      "    Message('note_off', channel=0, note=41, velocity=64, time=240),\n",
      "    Message('note_on', channel=0, note=40, velocity=124, time=0),\n",
      "    Message('note_off', channel=0, note=40, velocity=64, time=480),\n",
      "    Message('note_on', channel=0, note=35, velocity=124, time=0),\n",
      "    Message('note_off', channel=0, note=35, velocity=64, time=240),\n",
      "    Message('note_on', channel=0, note=34, velocity=124, time=0),\n",
      "    Message('note_off', channel=0, note=34, velocity=64, time=240),\n",
      "    Message('note_on', channel=0, note=32, velocity=124, time=0),\n",
      "    Message('note_off', channel=0, note=32, velocity=64, time=960),\n",
      "    Message('note_on', channel=0, note=40, velocity=124, time=0),\n",
      "    Message('note_off', channel=0, note=40, velocity=64, time=960),\n",
      "    Message('note_on', channel=0, note=42, velocity=124, time=0),\n",
      "    Message('note_off', channel=0, note=42, velocity=64, time=960),\n",
      "    Message('note_on', channel=0, note=35, velocity=124, time=0),\n",
      "    Message('note_off', channel=0, note=35, velocity=64, time=480),\n",
      "    Message('note_on', channel=0, note=34, velocity=124, time=0),\n",
      "    Message('note_off', channel=0, note=34, velocity=64, time=480),\n",
      "    Message('note_on', channel=0, note=32, velocity=124, time=0),\n",
      "    Message('note_off', channel=0, note=32, velocity=64, time=960),\n",
      "    Message('note_on', channel=0, note=40, velocity=124, time=0),\n",
      "    Message('note_off', channel=0, note=40, velocity=64, time=960),\n",
      "    Message('note_on', channel=0, note=42, velocity=124, time=0),\n",
      "    Message('note_off', channel=0, note=42, velocity=64, time=960),\n",
      "    Message('note_on', channel=0, note=35, velocity=124, time=0),\n",
      "    Message('note_off', channel=0, note=35, velocity=64, time=480),\n",
      "    Message('note_on', channel=0, note=34, velocity=124, time=0),\n",
      "    Message('note_off', channel=0, note=34, velocity=64, time=480),\n",
      "    Message('note_on', channel=0, note=32, velocity=124, time=0),\n",
      "    Message('note_off', channel=0, note=32, velocity=64, time=960),\n",
      "    Message('note_on', channel=0, note=40, velocity=124, time=0),\n",
      "    Message('note_off', channel=0, note=40, velocity=64, time=960),\n",
      "    Message('note_on', channel=0, note=42, velocity=124, time=0),\n",
      "    Message('note_off', channel=0, note=42, velocity=64, time=960),\n",
      "    Message('note_on', channel=0, note=35, velocity=124, time=0),\n",
      "    Message('note_off', channel=0, note=35, velocity=64, time=480),\n",
      "    Message('note_on', channel=0, note=34, velocity=124, time=0),\n",
      "    Message('note_off', channel=0, note=34, velocity=64, time=480),\n",
      "    Message('note_on', channel=0, note=32, velocity=124, time=0),\n",
      "    Message('note_off', channel=0, note=32, velocity=64, time=720),\n",
      "    Message('note_on', channel=0, note=32, velocity=124, time=0),\n",
      "    Message('note_off', channel=0, note=32, velocity=64, time=240),\n",
      "    Message('note_on', channel=0, note=40, velocity=124, time=0),\n",
      "    Message('note_off', channel=0, note=40, velocity=64, time=720),\n",
      "    Message('note_on', channel=0, note=40, velocity=124, time=0),\n",
      "    Message('note_off', channel=0, note=40, velocity=64, time=240),\n",
      "    Message('note_on', channel=0, note=41, velocity=124, time=0),\n",
      "    Message('note_off', channel=0, note=41, velocity=64, time=720),\n",
      "    Message('note_on', channel=0, note=41, velocity=124, time=0),\n",
      "    Message('note_off', channel=0, note=41, velocity=64, time=240),\n",
      "    Message('note_on', channel=0, note=40, velocity=124, time=0),\n",
      "    Message('note_off', channel=0, note=40, velocity=64, time=480),\n",
      "    Message('note_on', channel=0, note=35, velocity=124, time=0),\n",
      "    Message('note_off', channel=0, note=35, velocity=64, time=240),\n",
      "    Message('note_on', channel=0, note=34, velocity=124, time=0),\n",
      "    Message('note_off', channel=0, note=34, velocity=64, time=240),\n",
      "    Message('note_on', channel=0, note=32, velocity=124, time=0),\n",
      "    Message('note_off', channel=0, note=32, velocity=64, time=720),\n",
      "    Message('note_on', channel=0, note=32, velocity=124, time=0),\n",
      "    Message('note_off', channel=0, note=32, velocity=64, time=240),\n",
      "    Message('note_on', channel=0, note=40, velocity=124, time=0),\n",
      "    Message('note_off', channel=0, note=40, velocity=64, time=720),\n",
      "    Message('note_on', channel=0, note=40, velocity=124, time=0),\n",
      "    Message('note_off', channel=0, note=40, velocity=64, time=240),\n",
      "    Message('note_on', channel=0, note=41, velocity=124, time=0),\n",
      "    Message('note_off', channel=0, note=41, velocity=64, time=720),\n",
      "    Message('note_on', channel=0, note=41, velocity=124, time=0),\n",
      "    Message('note_off', channel=0, note=41, velocity=64, time=240),\n",
      "    Message('note_on', channel=0, note=40, velocity=124, time=0),\n",
      "    Message('note_off', channel=0, note=40, velocity=64, time=480),\n",
      "    Message('note_on', channel=0, note=35, velocity=124, time=0),\n",
      "    Message('note_off', channel=0, note=35, velocity=64, time=240),\n",
      "    Message('note_on', channel=0, note=34, velocity=124, time=0),\n",
      "    Message('note_off', channel=0, note=34, velocity=64, time=240),\n",
      "    Message('note_on', channel=0, note=32, velocity=124, time=0),\n",
      "    Message('note_off', channel=0, note=32, velocity=64, time=720),\n",
      "    Message('note_on', channel=0, note=32, velocity=124, time=0),\n",
      "    Message('note_off', channel=0, note=32, velocity=64, time=240),\n",
      "    Message('note_on', channel=0, note=40, velocity=124, time=0),\n",
      "    Message('note_off', channel=0, note=40, velocity=64, time=720),\n",
      "    Message('note_on', channel=0, note=40, velocity=124, time=0),\n",
      "    Message('note_off', channel=0, note=40, velocity=64, time=240),\n",
      "    Message('note_on', channel=0, note=41, velocity=124, time=0),\n",
      "    Message('note_off', channel=0, note=41, velocity=64, time=720),\n",
      "    Message('note_on', channel=0, note=41, velocity=124, time=0),\n",
      "    Message('note_off', channel=0, note=41, velocity=64, time=240),\n",
      "    Message('note_on', channel=0, note=40, velocity=124, time=0),\n",
      "    Message('note_off', channel=0, note=40, velocity=64, time=480),\n",
      "    Message('note_on', channel=0, note=35, velocity=124, time=0),\n",
      "    Message('note_off', channel=0, note=35, velocity=64, time=240),\n",
      "    Message('note_on', channel=0, note=34, velocity=124, time=0),\n",
      "    Message('note_off', channel=0, note=34, velocity=64, time=240),\n",
      "    Message('note_on', channel=0, note=32, velocity=124, time=0),\n",
      "    Message('note_off', channel=0, note=32, velocity=64, time=720),\n",
      "    Message('note_on', channel=0, note=32, velocity=124, time=0),\n",
      "    Message('note_off', channel=0, note=32, velocity=64, time=240),\n",
      "    Message('note_on', channel=0, note=40, velocity=124, time=0),\n",
      "    Message('note_off', channel=0, note=40, velocity=64, time=720),\n",
      "    Message('note_on', channel=0, note=40, velocity=124, time=0),\n",
      "    Message('note_off', channel=0, note=40, velocity=64, time=240),\n",
      "    Message('note_on', channel=0, note=41, velocity=124, time=0),\n",
      "    Message('note_off', channel=0, note=41, velocity=64, time=720),\n",
      "    Message('note_on', channel=0, note=41, velocity=124, time=0),\n",
      "    Message('note_off', channel=0, note=41, velocity=64, time=240),\n",
      "    Message('note_on', channel=0, note=40, velocity=124, time=0),\n",
      "    Message('note_off', channel=0, note=40, velocity=64, time=480),\n",
      "    Message('note_on', channel=0, note=35, velocity=124, time=0),\n",
      "    Message('note_off', channel=0, note=35, velocity=64, time=240),\n",
      "    Message('note_on', channel=0, note=34, velocity=124, time=0),\n",
      "    Message('note_off', channel=0, note=34, velocity=64, time=240),\n",
      "    Message('note_on', channel=0, note=32, velocity=124, time=0),\n",
      "    Message('note_off', channel=0, note=32, velocity=64, time=960),\n",
      "    Message('note_on', channel=0, note=40, velocity=124, time=0),\n",
      "    Message('note_off', channel=0, note=40, velocity=64, time=960),\n",
      "    Message('note_on', channel=0, note=42, velocity=124, time=0),\n",
      "    Message('note_off', channel=0, note=42, velocity=64, time=960),\n",
      "    Message('note_on', channel=0, note=35, velocity=124, time=0),\n",
      "    Message('note_off', channel=0, note=35, velocity=64, time=480),\n",
      "    Message('note_on', channel=0, note=34, velocity=124, time=0),\n",
      "    Message('note_off', channel=0, note=34, velocity=64, time=480),\n",
      "    Message('note_on', channel=0, note=32, velocity=124, time=0),\n",
      "    Message('note_off', channel=0, note=32, velocity=64, time=960),\n",
      "    Message('note_on', channel=0, note=40, velocity=124, time=0),\n",
      "    Message('note_off', channel=0, note=40, velocity=64, time=960),\n",
      "    Message('note_on', channel=0, note=42, velocity=124, time=0),\n",
      "    Message('note_off', channel=0, note=42, velocity=64, time=960),\n",
      "    Message('note_on', channel=0, note=35, velocity=124, time=0),\n",
      "    Message('note_off', channel=0, note=35, velocity=64, time=480),\n",
      "    Message('note_on', channel=0, note=34, velocity=124, time=0),\n",
      "    Message('note_off', channel=0, note=34, velocity=64, time=480),\n",
      "    Message('note_on', channel=0, note=32, velocity=124, time=0),\n",
      "    Message('note_off', channel=0, note=32, velocity=64, time=960),\n",
      "    Message('note_on', channel=0, note=40, velocity=124, time=0),\n",
      "    Message('note_off', channel=0, note=40, velocity=64, time=960),\n",
      "    Message('note_on', channel=0, note=42, velocity=124, time=0),\n",
      "    Message('note_off', channel=0, note=42, velocity=64, time=960),\n",
      "    Message('note_on', channel=0, note=35, velocity=124, time=0),\n",
      "    Message('note_off', channel=0, note=35, velocity=64, time=480),\n",
      "    Message('note_on', channel=0, note=34, velocity=124, time=0),\n",
      "    Message('note_off', channel=0, note=34, velocity=64, time=480),\n",
      "    Message('note_on', channel=0, note=32, velocity=124, time=0),\n",
      "    Message('note_off', channel=0, note=32, velocity=64, time=720),\n",
      "    Message('note_on', channel=0, note=32, velocity=124, time=0),\n",
      "    Message('note_off', channel=0, note=32, velocity=64, time=240),\n",
      "    Message('note_on', channel=0, note=40, velocity=124, time=0),\n",
      "    Message('note_off', channel=0, note=40, velocity=64, time=720),\n",
      "    Message('note_on', channel=0, note=40, velocity=124, time=0),\n",
      "    Message('note_off', channel=0, note=40, velocity=64, time=240),\n",
      "    Message('note_on', channel=0, note=41, velocity=124, time=0),\n",
      "    Message('note_off', channel=0, note=41, velocity=64, time=720),\n",
      "    Message('note_on', channel=0, note=41, velocity=124, time=0),\n",
      "    Message('note_off', channel=0, note=41, velocity=64, time=240),\n",
      "    Message('note_on', channel=0, note=40, velocity=124, time=0),\n",
      "    Message('note_off', channel=0, note=40, velocity=64, time=480),\n",
      "    Message('note_on', channel=0, note=35, velocity=124, time=0),\n",
      "    Message('note_off', channel=0, note=35, velocity=64, time=240),\n",
      "    Message('note_on', channel=0, note=34, velocity=124, time=0),\n",
      "    Message('note_off', channel=0, note=34, velocity=64, time=240),\n",
      "    Message('note_on', channel=0, note=32, velocity=124, time=0),\n",
      "    Message('note_off', channel=0, note=32, velocity=64, time=960),\n",
      "    Message('note_on', channel=0, note=40, velocity=124, time=0),\n",
      "    Message('note_off', channel=0, note=40, velocity=64, time=960),\n",
      "    Message('note_on', channel=0, note=42, velocity=124, time=0),\n",
      "    Message('note_off', channel=0, note=42, velocity=64, time=960),\n",
      "    Message('note_on', channel=0, note=35, velocity=124, time=0),\n",
      "    Message('note_off', channel=0, note=35, velocity=64, time=480),\n",
      "    Message('note_on', channel=0, note=34, velocity=124, time=0),\n",
      "    Message('note_off', channel=0, note=34, velocity=64, time=480),\n",
      "    Message('note_on', channel=0, note=32, velocity=124, time=0),\n",
      "    Message('note_off', channel=0, note=32, velocity=64, time=960),\n",
      "    Message('note_on', channel=0, note=40, velocity=124, time=0),\n",
      "    Message('note_off', channel=0, note=40, velocity=64, time=960),\n",
      "    Message('note_on', channel=0, note=42, velocity=124, time=0),\n",
      "    Message('note_off', channel=0, note=42, velocity=64, time=960),\n",
      "    Message('note_on', channel=0, note=35, velocity=124, time=0),\n",
      "    Message('note_off', channel=0, note=35, velocity=64, time=480),\n",
      "    Message('note_on', channel=0, note=34, velocity=124, time=0),\n",
      "    Message('note_off', channel=0, note=34, velocity=64, time=480),\n",
      "    Message('note_on', channel=0, note=32, velocity=124, time=0),\n",
      "    Message('note_off', channel=0, note=32, velocity=64, time=960),\n",
      "    Message('note_on', channel=0, note=40, velocity=124, time=0),\n",
      "    Message('note_off', channel=0, note=40, velocity=64, time=960),\n",
      "    Message('note_on', channel=0, note=42, velocity=124, time=0),\n",
      "    Message('note_off', channel=0, note=42, velocity=64, time=960),\n",
      "    Message('note_on', channel=0, note=35, velocity=124, time=0),\n",
      "    Message('note_off', channel=0, note=35, velocity=64, time=480),\n",
      "    Message('note_on', channel=0, note=34, velocity=124, time=0),\n",
      "    Message('note_off', channel=0, note=34, velocity=64, time=480),\n",
      "    Message('note_on', channel=0, note=32, velocity=124, time=0),\n",
      "    Message('note_off', channel=0, note=32, velocity=64, time=720),\n",
      "    Message('note_on', channel=0, note=32, velocity=124, time=0),\n",
      "    Message('note_off', channel=0, note=32, velocity=64, time=240),\n",
      "    Message('note_on', channel=0, note=40, velocity=124, time=0),\n",
      "    Message('note_off', channel=0, note=40, velocity=64, time=720),\n",
      "    Message('note_on', channel=0, note=40, velocity=124, time=0),\n",
      "    Message('note_off', channel=0, note=40, velocity=64, time=240),\n",
      "    Message('note_on', channel=0, note=41, velocity=124, time=0),\n",
      "    Message('note_off', channel=0, note=41, velocity=64, time=720),\n",
      "    Message('note_on', channel=0, note=41, velocity=124, time=0),\n",
      "    Message('note_off', channel=0, note=41, velocity=64, time=240),\n",
      "    Message('note_on', channel=0, note=40, velocity=124, time=0),\n",
      "    Message('note_off', channel=0, note=40, velocity=64, time=480),\n",
      "    Message('note_on', channel=0, note=35, velocity=124, time=0),\n",
      "    Message('note_off', channel=0, note=35, velocity=64, time=240),\n",
      "    Message('note_on', channel=0, note=34, velocity=124, time=0),\n",
      "    Message('note_off', channel=0, note=34, velocity=64, time=240),\n",
      "    Message('note_on', channel=0, note=32, velocity=124, time=0),\n",
      "    Message('note_off', channel=0, note=32, velocity=64, time=960),\n",
      "    Message('note_on', channel=0, note=40, velocity=124, time=0),\n",
      "    Message('note_off', channel=0, note=40, velocity=64, time=960),\n",
      "    Message('note_on', channel=0, note=42, velocity=124, time=0),\n",
      "    Message('note_off', channel=0, note=42, velocity=64, time=960),\n",
      "    Message('note_on', channel=0, note=35, velocity=124, time=0),\n",
      "    Message('note_off', channel=0, note=35, velocity=64, time=480),\n",
      "    Message('note_on', channel=0, note=34, velocity=124, time=0),\n",
      "    Message('note_off', channel=0, note=34, velocity=64, time=480),\n",
      "    Message('note_on', channel=0, note=32, velocity=124, time=0),\n",
      "    Message('note_off', channel=0, note=32, velocity=64, time=960),\n",
      "    Message('note_on', channel=0, note=40, velocity=124, time=0),\n",
      "    Message('note_off', channel=0, note=40, velocity=64, time=960),\n",
      "    Message('note_on', channel=0, note=42, velocity=124, time=0),\n",
      "    Message('note_off', channel=0, note=42, velocity=64, time=960),\n",
      "    Message('note_on', channel=0, note=35, velocity=124, time=0),\n",
      "    Message('note_off', channel=0, note=35, velocity=64, time=480),\n",
      "    Message('note_on', channel=0, note=34, velocity=124, time=0),\n",
      "    Message('note_off', channel=0, note=34, velocity=64, time=480),\n",
      "    Message('note_on', channel=0, note=32, velocity=124, time=0),\n",
      "    Message('note_off', channel=0, note=32, velocity=64, time=960),\n",
      "    Message('note_on', channel=0, note=40, velocity=124, time=0),\n",
      "    Message('note_off', channel=0, note=40, velocity=64, time=960),\n",
      "    Message('note_on', channel=0, note=42, velocity=124, time=0),\n",
      "    Message('note_off', channel=0, note=42, velocity=64, time=960),\n",
      "    Message('note_on', channel=0, note=35, velocity=124, time=0),\n",
      "    Message('note_off', channel=0, note=35, velocity=64, time=480),\n",
      "    Message('note_on', channel=0, note=34, velocity=124, time=0),\n",
      "    Message('note_off', channel=0, note=34, velocity=64, time=480),\n",
      "    Message('note_on', channel=0, note=32, velocity=124, time=0),\n",
      "    Message('note_off', channel=0, note=32, velocity=64, time=720),\n",
      "    Message('note_on', channel=0, note=32, velocity=124, time=0),\n",
      "    Message('note_off', channel=0, note=32, velocity=64, time=240),\n",
      "    Message('note_on', channel=0, note=40, velocity=124, time=0),\n",
      "    Message('note_off', channel=0, note=40, velocity=64, time=720),\n",
      "    Message('note_on', channel=0, note=40, velocity=124, time=0),\n",
      "    Message('note_off', channel=0, note=40, velocity=64, time=240),\n",
      "    Message('note_on', channel=0, note=41, velocity=124, time=0),\n",
      "    Message('note_off', channel=0, note=41, velocity=64, time=720),\n",
      "    Message('note_on', channel=0, note=41, velocity=124, time=0),\n",
      "    Message('note_off', channel=0, note=41, velocity=64, time=240),\n",
      "    Message('note_on', channel=0, note=40, velocity=124, time=0),\n",
      "    Message('note_off', channel=0, note=40, velocity=64, time=480),\n",
      "    Message('note_on', channel=0, note=35, velocity=124, time=0),\n",
      "    Message('note_off', channel=0, note=35, velocity=64, time=240),\n",
      "    Message('note_on', channel=0, note=34, velocity=124, time=0),\n",
      "    Message('note_off', channel=0, note=34, velocity=64, time=240),\n",
      "    Message('note_on', channel=0, note=32, velocity=124, time=0),\n",
      "    Message('note_off', channel=0, note=32, velocity=64, time=480),\n",
      "    MetaMessage('end_of_track', time=0)]),\n",
      "  MidiTrack([\n",
      "    MetaMessage('track_name', name='TabIt MIDI - Track 2', time=0),\n",
      "    MetaMessage('midi_port', port=0, time=0),\n",
      "    MetaMessage('channel_prefix', channel=1, time=0),\n",
      "    Message('control_change', channel=1, control=7, value=82, time=0),\n",
      "    Message('control_change', channel=1, control=10, value=64, time=0),\n",
      "    Message('program_change', channel=1, program=40, time=0),\n",
      "    Message('note_on', channel=1, note=56, velocity=96, time=2280),\n",
      "    Message('note_off', channel=1, note=56, velocity=64, time=120),\n",
      "    Message('note_on', channel=1, note=63, velocity=96, time=0),\n",
      "    Message('note_off', channel=1, note=63, velocity=64, time=240),\n",
      "    Message('note_on', channel=1, note=63, velocity=96, time=0),\n",
      "    Message('note_off', channel=1, note=63, velocity=64, time=240),\n",
      "    Message('note_on', channel=1, note=63, velocity=96, time=0),\n",
      "    Message('note_off', channel=1, note=63, velocity=64, time=240),\n",
      "    Message('note_on', channel=1, note=64, velocity=96, time=0),\n",
      "    Message('note_off', channel=1, note=64, velocity=64, time=120),\n",
      "    Message('note_on', channel=1, note=61, velocity=96, time=0),\n",
      "    Message('note_off', channel=1, note=61, velocity=64, time=240),\n",
      "    Message('note_on', channel=1, note=59, velocity=96, time=0),\n",
      "    Message('note_off', channel=1, note=59, velocity=64, time=240),\n",
      "    Message('note_on', channel=1, note=63, velocity=96, time=0),\n",
      "    Message('note_off', channel=1, note=63, velocity=64, time=120),\n",
      "    Message('note_on', channel=1, note=59, velocity=96, time=0),\n",
      "    Message('note_off', channel=1, note=59, velocity=64, time=120),\n",
      "    Message('note_on', channel=1, note=61, velocity=96, time=0),\n",
      "    Message('note_off', channel=1, note=61, velocity=64, time=720),\n",
      "    Message('note_on', channel=1, note=58, velocity=96, time=0),\n",
      "    Message('note_off', channel=1, note=58, velocity=64, time=120),\n",
      "    Message('note_on', channel=1, note=59, velocity=96, time=0),\n",
      "    Message('note_off', channel=1, note=59, velocity=64, time=240),\n",
      "    Message('note_on', channel=1, note=63, velocity=96, time=0),\n",
      "    Message('note_off', channel=1, note=63, velocity=64, time=120),\n",
      "    Message('note_on', channel=1, note=58, velocity=96, time=0),\n",
      "    Message('note_off', channel=1, note=58, velocity=64, time=360),\n",
      "    Message('note_on', channel=1, note=63, velocity=96, time=0),\n",
      "    Message('note_off', channel=1, note=63, velocity=64, time=120),\n",
      "    Message('note_on', channel=1, note=56, velocity=96, time=0),\n",
      "    Message('note_off', channel=1, note=56, velocity=64, time=360),\n",
      "    Message('note_on', channel=1, note=56, velocity=96, time=120),\n",
      "    Message('note_off', channel=1, note=56, velocity=64, time=120),\n",
      "    Message('note_on', channel=1, note=63, velocity=96, time=0),\n",
      "    Message('note_off', channel=1, note=63, velocity=64, time=120),\n",
      "    Message('note_on', channel=1, note=63, velocity=96, time=0),\n",
      "    Message('note_off', channel=1, note=63, velocity=64, time=240),\n",
      "    Message('note_on', channel=1, note=63, velocity=96, time=0),\n",
      "    Message('note_off', channel=1, note=63, velocity=64, time=240),\n",
      "    Message('note_on', channel=1, note=64, velocity=96, time=0),\n",
      "    Message('note_off', channel=1, note=64, velocity=64, time=240),\n",
      "    Message('note_on', channel=1, note=61, velocity=96, time=0),\n",
      "    Message('note_off', channel=1, note=61, velocity=64, time=240),\n",
      "    Message('note_on', channel=1, note=59, velocity=96, time=0),\n",
      "    Message('note_off', channel=1, note=59, velocity=64, time=240),\n",
      "    Message('note_on', channel=1, note=63, velocity=96, time=0),\n",
      "    Message('note_off', channel=1, note=63, velocity=64, time=360),\n",
      "    Message('note_on', channel=1, note=61, velocity=96, time=0),\n",
      "    Message('note_off', channel=1, note=61, velocity=64, time=480),\n",
      "    Message('note_on', channel=1, note=59, velocity=96, time=120),\n",
      "    Message('note_off', channel=1, note=59, velocity=64, time=120),\n",
      "    Message('note_on', channel=1, note=66, velocity=96, time=0),\n",
      "    Message('note_off', channel=1, note=66, velocity=64, time=240),\n",
      "    Message('note_on', channel=1, note=68, velocity=96, time=0),\n",
      "    Message('note_off', channel=1, note=68, velocity=64, time=240),\n",
      "    Message('note_on', channel=1, note=63, velocity=96, time=0),\n",
      "    Message('note_off', channel=1, note=63, velocity=64, time=240),\n",
      "    Message('note_on', channel=1, note=61, velocity=96, time=0),\n",
      "    Message('note_off', channel=1, note=61, velocity=64, time=120),\n",
      "    Message('note_on', channel=1, note=63, velocity=96, time=0),\n",
      "    Message('note_off', channel=1, note=63, velocity=64, time=360),\n",
      "    Message('note_on', channel=1, note=66, velocity=96, time=240),\n",
      "    Message('note_off', channel=1, note=66, velocity=64, time=120),\n",
      "    Message('note_on', channel=1, note=66, velocity=96, time=0),\n",
      "    Message('note_off', channel=1, note=66, velocity=64, time=240),\n",
      "    Message('note_on', channel=1, note=66, velocity=96, time=0),\n",
      "    Message('note_off', channel=1, note=66, velocity=64, time=240),\n",
      "    Message('note_on', channel=1, note=66, velocity=96, time=0),\n",
      "    Message('note_off', channel=1, note=66, velocity=64, time=120),\n",
      "    Message('note_on', channel=1, note=68, velocity=96, time=0),\n",
      "    Message('note_off', channel=1, note=68, velocity=64, time=120),\n",
      "    Message('note_on', channel=1, note=61, velocity=96, time=0),\n",
      "    Message('note_off', channel=1, note=61, velocity=64, time=240),\n",
      "    Message('note_on', channel=1, note=61, velocity=96, time=0),\n",
      "    Message('note_off', channel=1, note=61, velocity=64, time=120),\n",
      "    Message('note_on', channel=1, note=59, velocity=96, time=0),\n",
      "    Message('note_off', channel=1, note=59, velocity=64, time=120),\n",
      "    Message('note_on', channel=1, note=63, velocity=96, time=0),\n",
      "    Message('note_off', channel=1, note=63, velocity=64, time=240),\n",
      "    Message('note_on', channel=1, note=61, velocity=96, time=0),\n",
      "    Message('note_off', channel=1, note=61, velocity=64, time=240),\n",
      "    Message('note_on', channel=1, note=61, velocity=96, time=0),\n",
      "    Message('note_off', channel=1, note=61, velocity=64, time=240),\n",
      "    Message('note_on', channel=1, note=59, velocity=96, time=120),\n",
      "    Message('note_off', channel=1, note=59, velocity=64, time=120),\n",
      "    Message('note_on', channel=1, note=61, velocity=96, time=0),\n",
      "    Message('note_off', channel=1, note=61, velocity=64, time=120),\n",
      "    Message('note_on', channel=1, note=63, velocity=96, time=0),\n",
      "    Message('note_off', channel=1, note=63, velocity=64, time=240),\n",
      "    Message('note_on', channel=1, note=64, velocity=96, time=0),\n",
      "    Message('note_off', channel=1, note=64, velocity=64, time=120),\n",
      "    Message('note_on', channel=1, note=63, velocity=96, time=0),\n",
      "    Message('note_off', channel=1, note=63, velocity=64, time=240),\n",
      "    Message('note_on', channel=1, note=63, velocity=96, time=0),\n",
      "    Message('note_off', channel=1, note=63, velocity=64, time=120),\n",
      "    Message('note_on', channel=1, note=61, velocity=96, time=0),\n",
      "    Message('note_off', channel=1, note=61, velocity=64, time=120),\n",
      "    Message('note_on', channel=1, note=63, velocity=96, time=0),\n",
      "    Message('note_off', channel=1, note=63, velocity=64, time=360),\n",
      "    Message('note_on', channel=1, note=56, velocity=96, time=240),\n",
      "    Message('note_off', channel=1, note=56, velocity=64, time=240),\n",
      "    Message('note_on', channel=1, note=63, velocity=96, time=0),\n",
      "    Message('note_off', channel=1, note=63, velocity=64, time=120),\n",
      "    Message('note_on', channel=1, note=61, velocity=96, time=0),\n",
      "    Message('note_off', channel=1, note=61, velocity=64, time=480),\n",
      "    Message('note_on', channel=1, note=63, velocity=96, time=0),\n",
      "    Message('note_off', channel=1, note=63, velocity=64, time=120),\n",
      "    Message('note_on', channel=1, note=59, velocity=96, time=0),\n",
      "    Message('note_off', channel=1, note=59, velocity=64, time=240),\n",
      "    Message('note_on', channel=1, note=56, velocity=96, time=0),\n",
      "    Message('note_off', channel=1, note=56, velocity=64, time=120),\n",
      "    Message('note_on', channel=1, note=59, velocity=96, time=0),\n",
      "    Message('note_off', channel=1, note=59, velocity=64, time=120),\n",
      "    Message('note_on', channel=1, note=63, velocity=96, time=0),\n",
      "    Message('note_off', channel=1, note=63, velocity=64, time=240),\n",
      "    Message('note_on', channel=1, note=59, velocity=96, time=0),\n",
      "    Message('note_off', channel=1, note=59, velocity=64, time=120),\n",
      "    Message('note_on', channel=1, note=61, velocity=96, time=0),\n",
      "    Message('note_off', channel=1, note=61, velocity=64, time=480),\n",
      "    Message('note_on', channel=1, note=56, velocity=96, time=0),\n",
      "    Message('note_off', channel=1, note=56, velocity=64, time=120),\n",
      "    Message('note_on', channel=1, note=63, velocity=96, time=0),\n",
      "    Message('note_off', channel=1, note=63, velocity=64, time=240),\n",
      "    Message('note_on', channel=1, note=59, velocity=96, time=0),\n",
      "    Message('note_off', channel=1, note=59, velocity=64, time=240),\n",
      "    Message('note_on', channel=1, note=61, velocity=96, time=0),\n",
      "    Message('note_off', channel=1, note=61, velocity=64, time=240),\n",
      "    Message('note_on', channel=1, note=59, velocity=96, time=0),\n",
      "    Message('note_off', channel=1, note=59, velocity=64, time=240),\n",
      "    Message('note_on', channel=1, note=56, velocity=96, time=360),\n",
      "    Message('note_off', channel=1, note=56, velocity=64, time=120),\n",
      "    Message('note_on', channel=1, note=63, velocity=96, time=0),\n",
      "    Message('note_off', channel=1, note=63, velocity=64, time=240),\n",
      "    Message('note_on', channel=1, note=63, velocity=96, time=0),\n",
      "    Message('note_off', channel=1, note=63, velocity=64, time=240),\n",
      "    Message('note_on', channel=1, note=63, velocity=96, time=0),\n",
      "    Message('note_off', channel=1, note=63, velocity=64, time=240),\n",
      "    Message('note_on', channel=1, note=64, velocity=96, time=0),\n",
      "    Message('note_off', channel=1, note=64, velocity=64, time=120),\n",
      "    Message('note_on', channel=1, note=61, velocity=96, time=0),\n",
      "    Message('note_off', channel=1, note=61, velocity=64, time=240),\n",
      "    Message('note_on', channel=1, note=59, velocity=96, time=0),\n",
      "    Message('note_off', channel=1, note=59, velocity=64, time=240),\n",
      "    Message('note_on', channel=1, note=63, velocity=96, time=0),\n",
      "    Message('note_off', channel=1, note=63, velocity=64, time=120),\n",
      "    Message('note_on', channel=1, note=59, velocity=96, time=0),\n",
      "    Message('note_off', channel=1, note=59, velocity=64, time=120),\n",
      "    Message('note_on', channel=1, note=61, velocity=96, time=0),\n",
      "    Message('note_off', channel=1, note=61, velocity=64, time=720),\n",
      "    Message('note_on', channel=1, note=58, velocity=96, time=0),\n",
      "    Message('note_off', channel=1, note=58, velocity=64, time=120),\n",
      "    Message('note_on', channel=1, note=59, velocity=96, time=0),\n",
      "    Message('note_off', channel=1, note=59, velocity=64, time=240),\n",
      "    Message('note_on', channel=1, note=63, velocity=96, time=0),\n",
      "    Message('note_off', channel=1, note=63, velocity=64, time=120),\n",
      "    Message('note_on', channel=1, note=58, velocity=96, time=0),\n",
      "    Message('note_off', channel=1, note=58, velocity=64, time=360),\n",
      "    Message('note_on', channel=1, note=63, velocity=96, time=0),\n",
      "    Message('note_off', channel=1, note=63, velocity=64, time=120),\n",
      "    Message('note_on', channel=1, note=56, velocity=96, time=0),\n",
      "    Message('note_off', channel=1, note=56, velocity=64, time=360),\n",
      "    Message('note_on', channel=1, note=56, velocity=96, time=120),\n",
      "    Message('note_off', channel=1, note=56, velocity=64, time=120),\n",
      "    Message('note_on', channel=1, note=63, velocity=96, time=0),\n",
      "    Message('note_off', channel=1, note=63, velocity=64, time=120),\n",
      "    Message('note_on', channel=1, note=63, velocity=96, time=0),\n",
      "    Message('note_off', channel=1, note=63, velocity=64, time=240),\n",
      "    Message('note_on', channel=1, note=63, velocity=96, time=0),\n",
      "    Message('note_off', channel=1, note=63, velocity=64, time=240),\n",
      "    Message('note_on', channel=1, note=64, velocity=96, time=0),\n",
      "    Message('note_off', channel=1, note=64, velocity=64, time=240),\n",
      "    Message('note_on', channel=1, note=61, velocity=96, time=0),\n",
      "    Message('note_off', channel=1, note=61, velocity=64, time=240),\n",
      "    Message('note_on', channel=1, note=59, velocity=96, time=0),\n",
      "    Message('note_off', channel=1, note=59, velocity=64, time=240),\n",
      "    Message('note_on', channel=1, note=63, velocity=96, time=0),\n",
      "    Message('note_off', channel=1, note=63, velocity=64, time=360),\n",
      "    Message('note_on', channel=1, note=61, velocity=96, time=0),\n",
      "    Message('note_off', channel=1, note=61, velocity=64, time=480),\n",
      "    Message('note_on', channel=1, note=59, velocity=96, time=120),\n",
      "    Message('note_off', channel=1, note=59, velocity=64, time=120),\n",
      "    Message('note_on', channel=1, note=66, velocity=96, time=0),\n",
      "    Message('note_off', channel=1, note=66, velocity=64, time=240),\n",
      "    Message('note_on', channel=1, note=68, velocity=96, time=0),\n",
      "    Message('note_off', channel=1, note=68, velocity=64, time=240),\n",
      "    Message('note_on', channel=1, note=63, velocity=96, time=0),\n",
      "    Message('note_off', channel=1, note=63, velocity=64, time=240),\n",
      "    Message('note_on', channel=1, note=61, velocity=96, time=0),\n",
      "    Message('note_off', channel=1, note=61, velocity=64, time=120),\n",
      "    Message('note_on', channel=1, note=63, velocity=96, time=0),\n",
      "    Message('note_off', channel=1, note=63, velocity=64, time=360),\n",
      "    Message('note_on', channel=1, note=66, velocity=96, time=240),\n",
      "    Message('note_off', channel=1, note=66, velocity=64, time=120),\n",
      "    Message('note_on', channel=1, note=66, velocity=96, time=0),\n",
      "    Message('note_off', channel=1, note=66, velocity=64, time=240),\n",
      "    Message('note_on', channel=1, note=66, velocity=96, time=0),\n",
      "    Message('note_off', channel=1, note=66, velocity=64, time=240),\n",
      "    Message('note_on', channel=1, note=66, velocity=96, time=0),\n",
      "    Message('note_off', channel=1, note=66, velocity=64, time=120),\n",
      "    Message('note_on', channel=1, note=68, velocity=96, time=0),\n",
      "    Message('note_off', channel=1, note=68, velocity=64, time=120),\n",
      "    Message('note_on', channel=1, note=61, velocity=96, time=0),\n",
      "    Message('note_off', channel=1, note=61, velocity=64, time=240),\n",
      "    Message('note_on', channel=1, note=61, velocity=96, time=0),\n",
      "    Message('note_off', channel=1, note=61, velocity=64, time=120),\n",
      "    Message('note_on', channel=1, note=59, velocity=96, time=0),\n",
      "    Message('note_off', channel=1, note=59, velocity=64, time=120),\n",
      "    Message('note_on', channel=1, note=63, velocity=96, time=0),\n",
      "    Message('note_off', channel=1, note=63, velocity=64, time=240),\n",
      "    Message('note_on', channel=1, note=61, velocity=96, time=0),\n",
      "    Message('note_off', channel=1, note=61, velocity=64, time=240),\n",
      "    Message('note_on', channel=1, note=61, velocity=96, time=0),\n",
      "    Message('note_off', channel=1, note=61, velocity=64, time=240),\n",
      "    Message('note_on', channel=1, note=59, velocity=96, time=120),\n",
      "    Message('note_off', channel=1, note=59, velocity=64, time=120),\n",
      "    Message('note_on', channel=1, note=61, velocity=96, time=0),\n",
      "    Message('note_off', channel=1, note=61, velocity=64, time=120),\n",
      "    Message('note_on', channel=1, note=63, velocity=96, time=0),\n",
      "    Message('note_off', channel=1, note=63, velocity=64, time=240),\n",
      "    Message('note_on', channel=1, note=64, velocity=96, time=0),\n",
      "    Message('note_off', channel=1, note=64, velocity=64, time=120),\n",
      "    Message('note_on', channel=1, note=63, velocity=96, time=0),\n",
      "    Message('note_off', channel=1, note=63, velocity=64, time=240),\n",
      "    Message('note_on', channel=1, note=63, velocity=96, time=0),\n",
      "    Message('note_off', channel=1, note=63, velocity=64, time=120),\n",
      "    Message('note_on', channel=1, note=61, velocity=96, time=0),\n",
      "    Message('note_off', channel=1, note=61, velocity=64, time=120),\n",
      "    Message('note_on', channel=1, note=63, velocity=96, time=0),\n",
      "    Message('note_off', channel=1, note=63, velocity=64, time=360),\n",
      "    Message('note_on', channel=1, note=56, velocity=96, time=240),\n",
      "    Message('note_off', channel=1, note=56, velocity=64, time=240),\n",
      "    Message('note_on', channel=1, note=63, velocity=96, time=0),\n",
      "    Message('note_off', channel=1, note=63, velocity=64, time=120),\n",
      "    Message('note_on', channel=1, note=61, velocity=96, time=0),\n",
      "    Message('note_off', channel=1, note=61, velocity=64, time=480),\n",
      "    Message('note_on', channel=1, note=63, velocity=96, time=0),\n",
      "    Message('note_off', channel=1, note=63, velocity=64, time=120),\n",
      "    Message('note_on', channel=1, note=59, velocity=96, time=0),\n",
      "    Message('note_off', channel=1, note=59, velocity=64, time=240),\n",
      "    Message('note_on', channel=1, note=56, velocity=96, time=0),\n",
      "    Message('note_off', channel=1, note=56, velocity=64, time=120),\n",
      "    Message('note_on', channel=1, note=59, velocity=96, time=0),\n",
      "    Message('note_off', channel=1, note=59, velocity=64, time=120),\n",
      "    Message('note_on', channel=1, note=63, velocity=96, time=0),\n",
      "    Message('note_off', channel=1, note=63, velocity=64, time=240),\n",
      "    Message('note_on', channel=1, note=59, velocity=96, time=0),\n",
      "    Message('note_off', channel=1, note=59, velocity=64, time=120),\n",
      "    Message('note_on', channel=1, note=61, velocity=96, time=0),\n",
      "    Message('note_off', channel=1, note=61, velocity=64, time=480),\n",
      "    Message('note_on', channel=1, note=56, velocity=96, time=0),\n",
      "    Message('note_off', channel=1, note=56, velocity=64, time=120),\n",
      "    Message('note_on', channel=1, note=63, velocity=96, time=0),\n",
      "    Message('note_off', channel=1, note=63, velocity=64, time=240),\n",
      "    Message('note_on', channel=1, note=59, velocity=96, time=0),\n",
      "    Message('note_off', channel=1, note=59, velocity=64, time=240),\n",
      "    Message('note_on', channel=1, note=61, velocity=96, time=0),\n",
      "    Message('note_off', channel=1, note=61, velocity=64, time=240),\n",
      "    Message('note_on', channel=1, note=59, velocity=96, time=0),\n",
      "    Message('note_off', channel=1, note=59, velocity=64, time=240),\n",
      "    Message('note_on', channel=1, note=56, velocity=96, time=31080),\n",
      "    Message('note_off', channel=1, note=56, velocity=64, time=120),\n",
      "    Message('note_on', channel=1, note=63, velocity=96, time=0),\n",
      "    Message('note_off', channel=1, note=63, velocity=64, time=240),\n",
      "    Message('note_on', channel=1, note=63, velocity=96, time=0),\n",
      "    Message('note_off', channel=1, note=63, velocity=64, time=240),\n",
      "    Message('note_on', channel=1, note=63, velocity=96, time=0),\n",
      "    Message('note_off', channel=1, note=63, velocity=64, time=240),\n",
      "    Message('note_on', channel=1, note=64, velocity=96, time=0),\n",
      "    Message('note_off', channel=1, note=64, velocity=64, time=120),\n",
      "    Message('note_on', channel=1, note=61, velocity=96, time=0),\n",
      "    Message('note_off', channel=1, note=61, velocity=64, time=240),\n",
      "    Message('note_on', channel=1, note=59, velocity=96, time=0),\n",
      "    Message('note_off', channel=1, note=59, velocity=64, time=240),\n",
      "    Message('note_on', channel=1, note=63, velocity=96, time=0),\n",
      "    Message('note_off', channel=1, note=63, velocity=64, time=120),\n",
      "    Message('note_on', channel=1, note=59, velocity=96, time=0),\n",
      "    Message('note_off', channel=1, note=59, velocity=64, time=120),\n",
      "    Message('note_on', channel=1, note=61, velocity=96, time=0),\n",
      "    Message('note_off', channel=1, note=61, velocity=64, time=720),\n",
      "    Message('note_on', channel=1, note=58, velocity=96, time=0),\n",
      "    Message('note_off', channel=1, note=58, velocity=64, time=120),\n",
      "    Message('note_on', channel=1, note=59, velocity=96, time=0),\n",
      "    Message('note_off', channel=1, note=59, velocity=64, time=240),\n",
      "    Message('note_on', channel=1, note=63, velocity=96, time=0),\n",
      "    Message('note_off', channel=1, note=63, velocity=64, time=120),\n",
      "    Message('note_on', channel=1, note=58, velocity=96, time=0),\n",
      "    Message('note_off', channel=1, note=58, velocity=64, time=360),\n",
      "    Message('note_on', channel=1, note=63, velocity=96, time=0),\n",
      "    Message('note_off', channel=1, note=63, velocity=64, time=120),\n",
      "    Message('note_on', channel=1, note=56, velocity=96, time=0),\n",
      "    Message('note_off', channel=1, note=56, velocity=64, time=360),\n",
      "    Message('note_on', channel=1, note=56, velocity=96, time=120),\n",
      "    Message('note_off', channel=1, note=56, velocity=64, time=120),\n",
      "    Message('note_on', channel=1, note=63, velocity=96, time=0),\n",
      "    Message('note_off', channel=1, note=63, velocity=64, time=120),\n",
      "    Message('note_on', channel=1, note=63, velocity=96, time=0),\n",
      "    Message('note_off', channel=1, note=63, velocity=64, time=240),\n",
      "    Message('note_on', channel=1, note=63, velocity=96, time=0),\n",
      "    Message('note_off', channel=1, note=63, velocity=64, time=240),\n",
      "    Message('note_on', channel=1, note=64, velocity=96, time=0),\n",
      "    Message('note_off', channel=1, note=64, velocity=64, time=240),\n",
      "    Message('note_on', channel=1, note=61, velocity=96, time=0),\n",
      "    Message('note_off', channel=1, note=61, velocity=64, time=240),\n",
      "    Message('note_on', channel=1, note=59, velocity=96, time=0),\n",
      "    Message('note_off', channel=1, note=59, velocity=64, time=240),\n",
      "    Message('note_on', channel=1, note=63, velocity=96, time=0),\n",
      "    Message('note_off', channel=1, note=63, velocity=64, time=360),\n",
      "    Message('note_on', channel=1, note=61, velocity=96, time=0),\n",
      "    Message('note_off', channel=1, note=61, velocity=64, time=480),\n",
      "    Message('note_on', channel=1, note=59, velocity=96, time=120),\n",
      "    Message('note_off', channel=1, note=59, velocity=64, time=120),\n",
      "    Message('note_on', channel=1, note=66, velocity=96, time=0),\n",
      "    Message('note_off', channel=1, note=66, velocity=64, time=240),\n",
      "    Message('note_on', channel=1, note=68, velocity=96, time=0),\n",
      "    Message('note_off', channel=1, note=68, velocity=64, time=240),\n",
      "    Message('note_on', channel=1, note=63, velocity=96, time=0),\n",
      "    Message('note_off', channel=1, note=63, velocity=64, time=240),\n",
      "    Message('note_on', channel=1, note=61, velocity=96, time=0),\n",
      "    Message('note_off', channel=1, note=61, velocity=64, time=120),\n",
      "    Message('note_on', channel=1, note=63, velocity=96, time=0),\n",
      "    Message('note_off', channel=1, note=63, velocity=64, time=360),\n",
      "    Message('note_on', channel=1, note=66, velocity=96, time=240),\n",
      "    Message('note_off', channel=1, note=66, velocity=64, time=120),\n",
      "    Message('note_on', channel=1, note=66, velocity=96, time=0),\n",
      "    Message('note_off', channel=1, note=66, velocity=64, time=240),\n",
      "    Message('note_on', channel=1, note=66, velocity=96, time=0),\n",
      "    Message('note_off', channel=1, note=66, velocity=64, time=240),\n",
      "    Message('note_on', channel=1, note=66, velocity=96, time=0),\n",
      "    Message('note_off', channel=1, note=66, velocity=64, time=120),\n",
      "    Message('note_on', channel=1, note=68, velocity=96, time=0),\n",
      "    Message('note_off', channel=1, note=68, velocity=64, time=120),\n",
      "    Message('note_on', channel=1, note=61, velocity=96, time=0),\n",
      "    Message('note_off', channel=1, note=61, velocity=64, time=240),\n",
      "    Message('note_on', channel=1, note=61, velocity=96, time=0),\n",
      "    Message('note_off', channel=1, note=61, velocity=64, time=120),\n",
      "    Message('note_on', channel=1, note=59, velocity=96, time=0),\n",
      "    Message('note_off', channel=1, note=59, velocity=64, time=120),\n",
      "    Message('note_on', channel=1, note=63, velocity=96, time=0),\n",
      "    Message('note_off', channel=1, note=63, velocity=64, time=240),\n",
      "    Message('note_on', channel=1, note=61, velocity=96, time=0),\n",
      "    Message('note_off', channel=1, note=61, velocity=64, time=240),\n",
      "    Message('note_on', channel=1, note=61, velocity=96, time=0),\n",
      "    Message('note_off', channel=1, note=61, velocity=64, time=240),\n",
      "    Message('note_on', channel=1, note=59, velocity=96, time=120),\n",
      "    Message('note_off', channel=1, note=59, velocity=64, time=120),\n",
      "    Message('note_on', channel=1, note=61, velocity=96, time=0),\n",
      "    Message('note_off', channel=1, note=61, velocity=64, time=120),\n",
      "    Message('note_on', channel=1, note=63, velocity=96, time=0),\n",
      "    Message('note_off', channel=1, note=63, velocity=64, time=240),\n",
      "    Message('note_on', channel=1, note=64, velocity=96, time=0),\n",
      "    Message('note_off', channel=1, note=64, velocity=64, time=120),\n",
      "    Message('note_on', channel=1, note=63, velocity=96, time=0),\n",
      "    Message('note_off', channel=1, note=63, velocity=64, time=240),\n",
      "    Message('note_on', channel=1, note=63, velocity=96, time=0),\n",
      "    Message('note_off', channel=1, note=63, velocity=64, time=120),\n",
      "    Message('note_on', channel=1, note=61, velocity=96, time=0),\n",
      "    Message('note_off', channel=1, note=61, velocity=64, time=120),\n",
      "    Message('note_on', channel=1, note=63, velocity=96, time=0),\n",
      "    Message('note_off', channel=1, note=63, velocity=64, time=360),\n",
      "    Message('note_on', channel=1, note=56, velocity=96, time=240),\n",
      "    Message('note_off', channel=1, note=56, velocity=64, time=240),\n",
      "    Message('note_on', channel=1, note=63, velocity=96, time=0),\n",
      "    Message('note_off', channel=1, note=63, velocity=64, time=120),\n",
      "    Message('note_on', channel=1, note=61, velocity=96, time=0),\n",
      "    Message('note_off', channel=1, note=61, velocity=64, time=480),\n",
      "    Message('note_on', channel=1, note=63, velocity=96, time=0),\n",
      "    Message('note_off', channel=1, note=63, velocity=64, time=120),\n",
      "    Message('note_on', channel=1, note=59, velocity=96, time=0),\n",
      "    Message('note_off', channel=1, note=59, velocity=64, time=240),\n",
      "    Message('note_on', channel=1, note=56, velocity=96, time=0),\n",
      "    Message('note_off', channel=1, note=56, velocity=64, time=120),\n",
      "    Message('note_on', channel=1, note=59, velocity=96, time=0),\n",
      "    Message('note_off', channel=1, note=59, velocity=64, time=120),\n",
      "    Message('note_on', channel=1, note=63, velocity=96, time=0),\n",
      "    Message('note_off', channel=1, note=63, velocity=64, time=240),\n",
      "    Message('note_on', channel=1, note=59, velocity=96, time=0),\n",
      "    Message('note_off', channel=1, note=59, velocity=64, time=120),\n",
      "    Message('note_on', channel=1, note=61, velocity=96, time=0),\n",
      "    Message('note_off', channel=1, note=61, velocity=64, time=480),\n",
      "    Message('note_on', channel=1, note=56, velocity=96, time=0),\n",
      "    Message('note_off', channel=1, note=56, velocity=64, time=120),\n",
      "    Message('note_on', channel=1, note=63, velocity=96, time=0),\n",
      "    Message('note_off', channel=1, note=63, velocity=64, time=240),\n",
      "    Message('note_on', channel=1, note=59, velocity=96, time=0),\n",
      "    Message('note_off', channel=1, note=59, velocity=64, time=240),\n",
      "    Message('note_on', channel=1, note=61, velocity=96, time=0),\n",
      "    Message('note_off', channel=1, note=61, velocity=64, time=240),\n",
      "    Message('note_on', channel=1, note=59, velocity=96, time=0),\n",
      "    Message('note_off', channel=1, note=59, velocity=64, time=240),\n",
      "    Message('note_on', channel=1, note=56, velocity=96, time=31080),\n",
      "    Message('note_off', channel=1, note=56, velocity=64, time=120),\n",
      "    Message('note_on', channel=1, note=63, velocity=96, time=0),\n",
      "    Message('note_off', channel=1, note=63, velocity=64, time=240),\n",
      "    Message('note_on', channel=1, note=63, velocity=96, time=0),\n",
      "    Message('note_off', channel=1, note=63, velocity=64, time=240),\n",
      "    Message('note_on', channel=1, note=63, velocity=96, time=0),\n",
      "    Message('note_off', channel=1, note=63, velocity=64, time=240),\n",
      "    Message('note_on', channel=1, note=64, velocity=96, time=0),\n",
      "    Message('note_off', channel=1, note=64, velocity=64, time=120),\n",
      "    Message('note_on', channel=1, note=61, velocity=96, time=0),\n",
      "    Message('note_off', channel=1, note=61, velocity=64, time=240),\n",
      "    Message('note_on', channel=1, note=59, velocity=96, time=0),\n",
      "    Message('note_off', channel=1, note=59, velocity=64, time=240),\n",
      "    Message('note_on', channel=1, note=63, velocity=96, time=0),\n",
      "    Message('note_off', channel=1, note=63, velocity=64, time=120),\n",
      "    Message('note_on', channel=1, note=59, velocity=96, time=0),\n",
      "    Message('note_off', channel=1, note=59, velocity=64, time=120),\n",
      "    Message('note_on', channel=1, note=61, velocity=96, time=0),\n",
      "    Message('note_off', channel=1, note=61, velocity=64, time=720),\n",
      "    Message('note_on', channel=1, note=58, velocity=96, time=0),\n",
      "    Message('note_off', channel=1, note=58, velocity=64, time=120),\n",
      "    Message('note_on', channel=1, note=59, velocity=96, time=0),\n",
      "    Message('note_off', channel=1, note=59, velocity=64, time=240),\n",
      "    Message('note_on', channel=1, note=63, velocity=96, time=0),\n",
      "    Message('note_off', channel=1, note=63, velocity=64, time=120),\n",
      "    Message('note_on', channel=1, note=58, velocity=96, time=0),\n",
      "    Message('note_off', channel=1, note=58, velocity=64, time=360),\n",
      "    Message('note_on', channel=1, note=63, velocity=96, time=0),\n",
      "    Message('note_off', channel=1, note=63, velocity=64, time=120),\n",
      "    Message('note_on', channel=1, note=56, velocity=96, time=0),\n",
      "    Message('note_off', channel=1, note=56, velocity=64, time=360),\n",
      "    Message('note_on', channel=1, note=56, velocity=96, time=120),\n",
      "    Message('note_off', channel=1, note=56, velocity=64, time=120),\n",
      "    Message('note_on', channel=1, note=63, velocity=96, time=0),\n",
      "    Message('note_off', channel=1, note=63, velocity=64, time=120),\n",
      "    Message('note_on', channel=1, note=63, velocity=96, time=0),\n",
      "    Message('note_off', channel=1, note=63, velocity=64, time=240),\n",
      "    Message('note_on', channel=1, note=63, velocity=96, time=0),\n",
      "    Message('note_off', channel=1, note=63, velocity=64, time=240),\n",
      "    Message('note_on', channel=1, note=64, velocity=96, time=0),\n",
      "    Message('note_off', channel=1, note=64, velocity=64, time=240),\n",
      "    Message('note_on', channel=1, note=61, velocity=96, time=0),\n",
      "    Message('note_off', channel=1, note=61, velocity=64, time=240),\n",
      "    Message('note_on', channel=1, note=59, velocity=96, time=0),\n",
      "    Message('note_off', channel=1, note=59, velocity=64, time=240),\n",
      "    Message('note_on', channel=1, note=63, velocity=96, time=0),\n",
      "    Message('note_off', channel=1, note=63, velocity=64, time=360),\n",
      "    Message('note_on', channel=1, note=61, velocity=96, time=0),\n",
      "    Message('note_off', channel=1, note=61, velocity=64, time=480),\n",
      "    Message('note_on', channel=1, note=59, velocity=96, time=120),\n",
      "    Message('note_off', channel=1, note=59, velocity=64, time=120),\n",
      "    Message('note_on', channel=1, note=66, velocity=96, time=0),\n",
      "    Message('note_off', channel=1, note=66, velocity=64, time=240),\n",
      "    Message('note_on', channel=1, note=68, velocity=96, time=0),\n",
      "    Message('note_off', channel=1, note=68, velocity=64, time=240),\n",
      "    Message('note_on', channel=1, note=63, velocity=96, time=0),\n",
      "    Message('note_off', channel=1, note=63, velocity=64, time=240),\n",
      "    Message('note_on', channel=1, note=61, velocity=96, time=0),\n",
      "    Message('note_off', channel=1, note=61, velocity=64, time=120),\n",
      "    Message('note_on', channel=1, note=63, velocity=96, time=0),\n",
      "    Message('note_off', channel=1, note=63, velocity=64, time=360),\n",
      "    Message('note_on', channel=1, note=66, velocity=96, time=240),\n",
      "    Message('note_off', channel=1, note=66, velocity=64, time=120),\n",
      "    Message('note_on', channel=1, note=66, velocity=96, time=0),\n",
      "    Message('note_off', channel=1, note=66, velocity=64, time=240),\n",
      "    Message('note_on', channel=1, note=66, velocity=96, time=0),\n",
      "    Message('note_off', channel=1, note=66, velocity=64, time=240),\n",
      "    Message('note_on', channel=1, note=66, velocity=96, time=0),\n",
      "    Message('note_off', channel=1, note=66, velocity=64, time=120),\n",
      "    Message('note_on', channel=1, note=68, velocity=96, time=0),\n",
      "    Message('note_off', channel=1, note=68, velocity=64, time=120),\n",
      "    Message('note_on', channel=1, note=61, velocity=96, time=0),\n",
      "    Message('note_off', channel=1, note=61, velocity=64, time=240),\n",
      "    Message('note_on', channel=1, note=61, velocity=96, time=0),\n",
      "    Message('note_off', channel=1, note=61, velocity=64, time=120),\n",
      "    Message('note_on', channel=1, note=59, velocity=96, time=0),\n",
      "    Message('note_off', channel=1, note=59, velocity=64, time=120),\n",
      "    Message('note_on', channel=1, note=63, velocity=96, time=0),\n",
      "    Message('note_off', channel=1, note=63, velocity=64, time=240),\n",
      "    Message('note_on', channel=1, note=61, velocity=96, time=0),\n",
      "    Message('note_off', channel=1, note=61, velocity=64, time=240),\n",
      "    Message('note_on', channel=1, note=61, velocity=96, time=0),\n",
      "    Message('note_off', channel=1, note=61, velocity=64, time=240),\n",
      "    Message('note_on', channel=1, note=59, velocity=96, time=120),\n",
      "    Message('note_off', channel=1, note=59, velocity=64, time=120),\n",
      "    Message('note_on', channel=1, note=61, velocity=96, time=0),\n",
      "    Message('note_off', channel=1, note=61, velocity=64, time=120),\n",
      "    Message('note_on', channel=1, note=63, velocity=96, time=0),\n",
      "    Message('note_off', channel=1, note=63, velocity=64, time=240),\n",
      "    Message('note_on', channel=1, note=64, velocity=96, time=0),\n",
      "    Message('note_off', channel=1, note=64, velocity=64, time=120),\n",
      "    Message('note_on', channel=1, note=63, velocity=96, time=0),\n",
      "    Message('note_off', channel=1, note=63, velocity=64, time=240),\n",
      "    Message('note_on', channel=1, note=63, velocity=96, time=0),\n",
      "    Message('note_off', channel=1, note=63, velocity=64, time=120),\n",
      "    Message('note_on', channel=1, note=61, velocity=96, time=0),\n",
      "    Message('note_off', channel=1, note=61, velocity=64, time=120),\n",
      "    Message('note_on', channel=1, note=63, velocity=96, time=0),\n",
      "    Message('note_off', channel=1, note=63, velocity=64, time=360),\n",
      "    Message('note_on', channel=1, note=56, velocity=96, time=240),\n",
      "    Message('note_off', channel=1, note=56, velocity=64, time=240),\n",
      "    Message('note_on', channel=1, note=63, velocity=96, time=0),\n",
      "    Message('note_off', channel=1, note=63, velocity=64, time=120),\n",
      "    Message('note_on', channel=1, note=61, velocity=96, time=0),\n",
      "    Message('note_off', channel=1, note=61, velocity=64, time=480),\n",
      "    Message('note_on', channel=1, note=63, velocity=96, time=0),\n",
      "    Message('note_off', channel=1, note=63, velocity=64, time=120),\n",
      "    Message('note_on', channel=1, note=59, velocity=96, time=0),\n",
      "    Message('note_off', channel=1, note=59, velocity=64, time=240),\n",
      "    Message('note_on', channel=1, note=56, velocity=96, time=0),\n",
      "    Message('note_off', channel=1, note=56, velocity=64, time=120),\n",
      "    Message('note_on', channel=1, note=59, velocity=96, time=0),\n",
      "    Message('note_off', channel=1, note=59, velocity=64, time=120),\n",
      "    Message('note_on', channel=1, note=63, velocity=96, time=0),\n",
      "    Message('note_off', channel=1, note=63, velocity=64, time=240),\n",
      "    Message('note_on', channel=1, note=59, velocity=96, time=0),\n",
      "    Message('note_off', channel=1, note=59, velocity=64, time=120),\n",
      "    Message('note_on', channel=1, note=61, velocity=96, time=0),\n",
      "    Message('note_off', channel=1, note=61, velocity=64, time=480),\n",
      "    Message('note_on', channel=1, note=56, velocity=96, time=0),\n",
      "    Message('note_off', channel=1, note=56, velocity=64, time=120),\n",
      "    Message('note_on', channel=1, note=63, velocity=96, time=0),\n",
      "    Message('note_off', channel=1, note=63, velocity=64, time=240),\n",
      "    Message('note_on', channel=1, note=59, velocity=96, time=0),\n",
      "    Message('note_off', channel=1, note=59, velocity=64, time=240),\n",
      "    Message('note_on', channel=1, note=61, velocity=96, time=0),\n",
      "    Message('note_off', channel=1, note=61, velocity=64, time=240),\n",
      "    Message('note_on', channel=1, note=59, velocity=96, time=0),\n",
      "    Message('note_off', channel=1, note=59, velocity=64, time=240),\n",
      "    Message('note_on', channel=1, note=56, velocity=96, time=73320),\n",
      "    Message('note_off', channel=1, note=56, velocity=64, time=120),\n",
      "    Message('note_on', channel=1, note=63, velocity=96, time=0),\n",
      "    Message('note_off', channel=1, note=63, velocity=64, time=240),\n",
      "    Message('note_on', channel=1, note=63, velocity=96, time=0),\n",
      "    Message('note_off', channel=1, note=63, velocity=64, time=240),\n",
      "    Message('note_on', channel=1, note=63, velocity=96, time=0),\n",
      "    Message('note_off', channel=1, note=63, velocity=64, time=240),\n",
      "    Message('note_on', channel=1, note=64, velocity=96, time=0),\n",
      "    Message('note_off', channel=1, note=64, velocity=64, time=120),\n",
      "    Message('note_on', channel=1, note=61, velocity=96, time=0),\n",
      "    Message('note_off', channel=1, note=61, velocity=64, time=240),\n",
      "    Message('note_on', channel=1, note=59, velocity=96, time=0),\n",
      "    Message('note_off', channel=1, note=59, velocity=64, time=240),\n",
      "    Message('note_on', channel=1, note=63, velocity=96, time=0),\n",
      "    Message('note_off', channel=1, note=63, velocity=64, time=120),\n",
      "    Message('note_on', channel=1, note=59, velocity=96, time=0),\n",
      "    Message('note_off', channel=1, note=59, velocity=64, time=120),\n",
      "    Message('note_on', channel=1, note=61, velocity=96, time=0),\n",
      "    Message('note_off', channel=1, note=61, velocity=64, time=720),\n",
      "    Message('note_on', channel=1, note=58, velocity=96, time=0),\n",
      "    Message('note_off', channel=1, note=58, velocity=64, time=120),\n",
      "    Message('note_on', channel=1, note=59, velocity=96, time=0),\n",
      "    Message('note_off', channel=1, note=59, velocity=64, time=240),\n",
      "    Message('note_on', channel=1, note=63, velocity=96, time=0),\n",
      "    Message('note_off', channel=1, note=63, velocity=64, time=120),\n",
      "    Message('note_on', channel=1, note=58, velocity=96, time=0),\n",
      "    Message('note_off', channel=1, note=58, velocity=64, time=360),\n",
      "    Message('note_on', channel=1, note=63, velocity=96, time=0),\n",
      "    Message('note_off', channel=1, note=63, velocity=64, time=120),\n",
      "    Message('note_on', channel=1, note=56, velocity=96, time=0),\n",
      "    Message('note_off', channel=1, note=56, velocity=64, time=360),\n",
      "    Message('note_on', channel=1, note=56, velocity=96, time=120),\n",
      "    Message('note_off', channel=1, note=56, velocity=64, time=120),\n",
      "    Message('note_on', channel=1, note=63, velocity=96, time=0),\n",
      "    Message('note_off', channel=1, note=63, velocity=64, time=120),\n",
      "    Message('note_on', channel=1, note=63, velocity=96, time=0),\n",
      "    Message('note_off', channel=1, note=63, velocity=64, time=240),\n",
      "    Message('note_on', channel=1, note=63, velocity=96, time=0),\n",
      "    Message('note_off', channel=1, note=63, velocity=64, time=240),\n",
      "    Message('note_on', channel=1, note=64, velocity=96, time=0),\n",
      "    Message('note_off', channel=1, note=64, velocity=64, time=240),\n",
      "    Message('note_on', channel=1, note=61, velocity=96, time=0),\n",
      "    Message('note_off', channel=1, note=61, velocity=64, time=240),\n",
      "    Message('note_on', channel=1, note=59, velocity=96, time=0),\n",
      "    Message('note_off', channel=1, note=59, velocity=64, time=240),\n",
      "    Message('note_on', channel=1, note=63, velocity=96, time=0),\n",
      "    Message('note_off', channel=1, note=63, velocity=64, time=360),\n",
      "    Message('note_on', channel=1, note=61, velocity=96, time=0),\n",
      "    Message('note_off', channel=1, note=61, velocity=64, time=480),\n",
      "    Message('note_on', channel=1, note=59, velocity=96, time=120),\n",
      "    Message('note_off', channel=1, note=59, velocity=64, time=120),\n",
      "    Message('note_on', channel=1, note=66, velocity=96, time=0),\n",
      "    Message('note_off', channel=1, note=66, velocity=64, time=240),\n",
      "    Message('note_on', channel=1, note=68, velocity=96, time=0),\n",
      "    Message('note_off', channel=1, note=68, velocity=64, time=240),\n",
      "    Message('note_on', channel=1, note=63, velocity=96, time=0),\n",
      "    Message('note_off', channel=1, note=63, velocity=64, time=240),\n",
      "    Message('note_on', channel=1, note=61, velocity=96, time=0),\n",
      "    Message('note_off', channel=1, note=61, velocity=64, time=120),\n",
      "    Message('note_on', channel=1, note=63, velocity=96, time=0),\n",
      "    Message('note_off', channel=1, note=63, velocity=64, time=360),\n",
      "    Message('note_on', channel=1, note=66, velocity=96, time=240),\n",
      "    Message('note_off', channel=1, note=66, velocity=64, time=120),\n",
      "    Message('note_on', channel=1, note=66, velocity=96, time=0),\n",
      "    Message('note_off', channel=1, note=66, velocity=64, time=240),\n",
      "    Message('note_on', channel=1, note=66, velocity=96, time=0),\n",
      "    Message('note_off', channel=1, note=66, velocity=64, time=240),\n",
      "    Message('note_on', channel=1, note=66, velocity=96, time=0),\n",
      "    Message('note_off', channel=1, note=66, velocity=64, time=120),\n",
      "    Message('note_on', channel=1, note=68, velocity=96, time=0),\n",
      "    Message('note_off', channel=1, note=68, velocity=64, time=120),\n",
      "    Message('note_on', channel=1, note=61, velocity=96, time=0),\n",
      "    Message('note_off', channel=1, note=61, velocity=64, time=240),\n",
      "    Message('note_on', channel=1, note=61, velocity=96, time=0),\n",
      "    Message('note_off', channel=1, note=61, velocity=64, time=120),\n",
      "    Message('note_on', channel=1, note=59, velocity=96, time=0),\n",
      "    Message('note_off', channel=1, note=59, velocity=64, time=120),\n",
      "    Message('note_on', channel=1, note=63, velocity=96, time=0),\n",
      "    Message('note_off', channel=1, note=63, velocity=64, time=240),\n",
      "    Message('note_on', channel=1, note=61, velocity=96, time=0),\n",
      "    Message('note_off', channel=1, note=61, velocity=64, time=240),\n",
      "    Message('note_on', channel=1, note=61, velocity=96, time=0),\n",
      "    Message('note_off', channel=1, note=61, velocity=64, time=240),\n",
      "    Message('note_on', channel=1, note=59, velocity=96, time=120),\n",
      "    Message('note_off', channel=1, note=59, velocity=64, time=120),\n",
      "    Message('note_on', channel=1, note=61, velocity=96, time=0),\n",
      "    Message('note_off', channel=1, note=61, velocity=64, time=120),\n",
      "    Message('note_on', channel=1, note=63, velocity=96, time=0),\n",
      "    Message('note_off', channel=1, note=63, velocity=64, time=240),\n",
      "    Message('note_on', channel=1, note=64, velocity=96, time=0),\n",
      "    Message('note_off', channel=1, note=64, velocity=64, time=120),\n",
      "    Message('note_on', channel=1, note=63, velocity=96, time=0),\n",
      "    Message('note_off', channel=1, note=63, velocity=64, time=240),\n",
      "    Message('note_on', channel=1, note=63, velocity=96, time=0),\n",
      "    Message('note_off', channel=1, note=63, velocity=64, time=120),\n",
      "    Message('note_on', channel=1, note=61, velocity=96, time=0),\n",
      "    Message('note_off', channel=1, note=61, velocity=64, time=120),\n",
      "    Message('note_on', channel=1, note=63, velocity=96, time=0),\n",
      "    Message('note_off', channel=1, note=63, velocity=64, time=360),\n",
      "    Message('note_on', channel=1, note=56, velocity=96, time=240),\n",
      "    Message('note_off', channel=1, note=56, velocity=64, time=240),\n",
      "    Message('note_on', channel=1, note=63, velocity=96, time=0),\n",
      "    Message('note_off', channel=1, note=63, velocity=64, time=120),\n",
      "    Message('note_on', channel=1, note=61, velocity=96, time=0),\n",
      "    Message('note_off', channel=1, note=61, velocity=64, time=480),\n",
      "    Message('note_on', channel=1, note=63, velocity=96, time=0),\n",
      "    Message('note_off', channel=1, note=63, velocity=64, time=120),\n",
      "    Message('note_on', channel=1, note=59, velocity=96, time=0),\n",
      "    Message('note_off', channel=1, note=59, velocity=64, time=240),\n",
      "    Message('note_on', channel=1, note=56, velocity=96, time=0),\n",
      "    Message('note_off', channel=1, note=56, velocity=64, time=120),\n",
      "    Message('note_on', channel=1, note=59, velocity=96, time=0),\n",
      "    Message('note_off', channel=1, note=59, velocity=64, time=120),\n",
      "    Message('note_on', channel=1, note=63, velocity=96, time=0),\n",
      "    Message('note_off', channel=1, note=63, velocity=64, time=240),\n",
      "    Message('note_on', channel=1, note=59, velocity=96, time=0),\n",
      "    Message('note_off', channel=1, note=59, velocity=64, time=120),\n",
      "    Message('note_on', channel=1, note=61, velocity=96, time=0),\n",
      "    Message('note_off', channel=1, note=61, velocity=64, time=480),\n",
      "    Message('note_on', channel=1, note=56, velocity=96, time=0),\n",
      "    Message('note_off', channel=1, note=56, velocity=64, time=120),\n",
      "    Message('note_on', channel=1, note=63, velocity=96, time=0),\n",
      "    Message('note_off', channel=1, note=63, velocity=64, time=240),\n",
      "    Message('note_on', channel=1, note=59, velocity=96, time=0),\n",
      "    Message('note_off', channel=1, note=59, velocity=64, time=240),\n",
      "    Message('note_on', channel=1, note=61, velocity=96, time=0),\n",
      "    Message('note_off', channel=1, note=61, velocity=64, time=240),\n",
      "    Message('note_on', channel=1, note=59, velocity=96, time=0),\n",
      "    Message('note_off', channel=1, note=59, velocity=64, time=240),\n",
      "    MetaMessage('end_of_track', time=0)]),\n",
      "  MidiTrack([\n",
      "    MetaMessage('track_name', name='TabIt MIDI - Track 3', time=0),\n",
      "    MetaMessage('midi_port', port=0, time=0),\n",
      "    MetaMessage('channel_prefix', channel=2, time=0),\n",
      "    Message('control_change', channel=2, control=7, value=66, time=0),\n",
      "    Message('control_change', channel=2, control=10, value=64, time=0),\n",
      "    Message('program_change', channel=2, program=25, time=0),\n",
      "    Message('note_on', channel=2, note=44, velocity=96, time=1920),\n",
      "    Message('note_on', channel=2, note=51, velocity=96, time=0),\n",
      "    Message('note_on', channel=2, note=56, velocity=96, time=0),\n",
      "    Message('note_on', channel=2, note=59, velocity=96, time=0),\n",
      "    Message('note_on', channel=2, note=63, velocity=96, time=0),\n",
      "    Message('note_off', channel=2, note=63, velocity=64, time=360),\n",
      "    Message('note_off', channel=2, note=59, velocity=64, time=0),\n",
      "    Message('note_off', channel=2, note=56, velocity=64, time=0),\n",
      "    Message('note_off', channel=2, note=51, velocity=64, time=0),\n",
      "    Message('note_off', channel=2, note=44, velocity=64, time=0),\n",
      "    Message('note_on', channel=2, note=56, velocity=96, time=0),\n",
      "    Message('note_on', channel=2, note=59, velocity=96, time=0),\n",
      "    Message('note_off', channel=2, note=59, velocity=64, time=120),\n",
      "    Message('note_off', channel=2, note=56, velocity=64, time=0),\n",
      "    Message('note_on', channel=2, note=51, velocity=96, time=0),\n",
      "    Message('note_on', channel=2, note=59, velocity=96, time=0),\n",
      "    Message('note_on', channel=2, note=63, velocity=96, time=0),\n",
      "    Message('note_off', channel=2, note=63, velocity=64, time=480),\n",
      "    Message('note_off', channel=2, note=59, velocity=64, time=0),\n",
      "    Message('note_off', channel=2, note=51, velocity=64, time=0),\n",
      "    Message('note_on', channel=2, note=40, velocity=96, time=0),\n",
      "    Message('note_on', channel=2, note=47, velocity=96, time=0),\n",
      "    Message('note_on', channel=2, note=52, velocity=96, time=0),\n",
      "    Message('note_on', channel=2, note=56, velocity=96, time=0),\n",
      "    Message('note_off', channel=2, note=56, velocity=64, time=360),\n",
      "    Message('note_off', channel=2, note=52, velocity=64, time=0),\n",
      "    Message('note_off', channel=2, note=47, velocity=64, time=0),\n",
      "    Message('note_off', channel=2, note=40, velocity=64, time=0),\n",
      "    Message('note_on', channel=2, note=52, velocity=96, time=0),\n",
      "    Message('note_on', channel=2, note=56, velocity=96, time=0),\n",
      "    Message('note_off', channel=2, note=56, velocity=64, time=120),\n",
      "    Message('note_off', channel=2, note=52, velocity=64, time=0),\n",
      "    Message('note_on', channel=2, note=40, velocity=96, time=0),\n",
      "    Message('note_on', channel=2, note=52, velocity=96, time=0),\n",
      "    Message('note_on', channel=2, note=56, velocity=96, time=0),\n",
      "    Message('note_on', channel=2, note=59, velocity=96, time=0),\n",
      "    Message('note_off', channel=2, note=59, velocity=64, time=480),\n",
      "    Message('note_off', channel=2, note=56, velocity=64, time=0),\n",
      "    Message('note_off', channel=2, note=52, velocity=64, time=0),\n",
      "    Message('note_off', channel=2, note=40, velocity=64, time=0),\n",
      "    Message('note_on', channel=2, note=42, velocity=96, time=0),\n",
      "    Message('note_on', channel=2, note=49, velocity=96, time=0),\n",
      "    Message('note_on', channel=2, note=54, velocity=96, time=0),\n",
      "    Message('note_on', channel=2, note=58, velocity=96, time=0),\n",
      "    Message('note_off', channel=2, note=58, velocity=64, time=360),\n",
      "    Message('note_off', channel=2, note=54, velocity=64, time=0),\n",
      "    Message('note_off', channel=2, note=49, velocity=64, time=0),\n",
      "    Message('note_off', channel=2, note=42, velocity=64, time=0),\n",
      "    Message('note_on', channel=2, note=54, velocity=96, time=0),\n",
      "    Message('note_on', channel=2, note=58, velocity=96, time=0),\n",
      "    Message('note_off', channel=2, note=58, velocity=64, time=120),\n",
      "    Message('note_off', channel=2, note=54, velocity=64, time=0),\n",
      "    Message('note_on', channel=2, note=42, velocity=96, time=0),\n",
      "    Message('note_on', channel=2, note=49, velocity=96, time=0),\n",
      "    Message('note_on', channel=2, note=58, velocity=96, time=0),\n",
      "    Message('note_on', channel=2, note=61, velocity=96, time=0),\n",
      "    Message('note_off', channel=2, note=61, velocity=64, time=480),\n",
      "    Message('note_off', channel=2, note=58, velocity=64, time=0),\n",
      "    Message('note_off', channel=2, note=49, velocity=64, time=0),\n",
      "    Message('note_off', channel=2, note=42, velocity=64, time=0),\n",
      "    Message('note_on', channel=2, note=47, velocity=96, time=0),\n",
      "    Message('note_on', channel=2, note=54, velocity=96, time=0),\n",
      "    Message('note_on', channel=2, note=59, velocity=96, time=0),\n",
      "    Message('note_on', channel=2, note=66, velocity=96, time=0),\n",
      "    Message('note_off', channel=2, note=66, velocity=64, time=240),\n",
      "    Message('note_off', channel=2, note=59, velocity=64, time=0),\n",
      "    Message('note_off', channel=2, note=54, velocity=64, time=0),\n",
      "    Message('note_off', channel=2, note=47, velocity=64, time=0),\n",
      "    Message('note_on', channel=2, note=54, velocity=96, time=0),\n",
      "    Message('note_on', channel=2, note=59, velocity=96, time=0),\n",
      "    Message('note_on', channel=2, note=63, velocity=96, time=0),\n",
      "    Message('note_off', channel=2, note=63, velocity=64, time=240),\n",
      "    Message('note_off', channel=2, note=59, velocity=64, time=0),\n",
      "    Message('note_off', channel=2, note=54, velocity=64, time=0),\n",
      "    Message('note_on', channel=2, note=46, velocity=96, time=0),\n",
      "    Message('note_on', channel=2, note=54, velocity=96, time=0),\n",
      "    Message('note_off', channel=2, note=54, velocity=64, time=240),\n",
      "    Message('note_off', channel=2, note=46, velocity=64, time=0),\n",
      "    Message('note_on', channel=2, note=54, velocity=96, time=0),\n",
      "    Message('note_on', channel=2, note=59, velocity=96, time=0),\n",
      "    Message('note_on', channel=2, note=63, velocity=96, time=0),\n",
      "    Message('note_off', channel=2, note=63, velocity=64, time=240),\n",
      "    Message('note_off', channel=2, note=59, velocity=64, time=0),\n",
      "    Message('note_off', channel=2, note=54, velocity=64, time=0),\n",
      "    Message('note_on', channel=2, note=44, velocity=96, time=0),\n",
      "    Message('note_on', channel=2, note=51, velocity=96, time=0),\n",
      "    Message('note_on', channel=2, note=56, velocity=96, time=0),\n",
      "    Message('note_on', channel=2, note=59, velocity=96, time=0),\n",
      "    Message('note_on', channel=2, note=63, velocity=96, time=0),\n",
      "    Message('note_off', channel=2, note=63, velocity=64, time=360),\n",
      "    Message('note_off', channel=2, note=59, velocity=64, time=0),\n",
      "    Message('note_off', channel=2, note=56, velocity=64, time=0),\n",
      "    Message('note_off', channel=2, note=51, velocity=64, time=0),\n",
      "    Message('note_off', channel=2, note=44, velocity=64, time=0),\n",
      "    Message('note_on', channel=2, note=56, velocity=96, time=0),\n",
      "    Message('note_on', channel=2, note=59, velocity=96, time=0),\n",
      "    Message('note_off', channel=2, note=59, velocity=64, time=120),\n",
      "    Message('note_off', channel=2, note=56, velocity=64, time=0),\n",
      "    Message('note_on', channel=2, note=51, velocity=96, time=0),\n",
      "    Message('note_on', channel=2, note=59, velocity=96, time=0),\n",
      "    Message('note_on', channel=2, note=63, velocity=96, time=0),\n",
      "    Message('note_off', channel=2, note=63, velocity=64, time=480),\n",
      "    Message('note_off', channel=2, note=59, velocity=64, time=0),\n",
      "    Message('note_off', channel=2, note=51, velocity=64, time=0),\n",
      "    Message('note_on', channel=2, note=40, velocity=96, time=0),\n",
      "    Message('note_on', channel=2, note=47, velocity=96, time=0),\n",
      "    Message('note_on', channel=2, note=52, velocity=96, time=0),\n",
      "    Message('note_on', channel=2, note=56, velocity=96, time=0),\n",
      "    Message('note_off', channel=2, note=56, velocity=64, time=360),\n",
      "    Message('note_off', channel=2, note=52, velocity=64, time=0),\n",
      "    Message('note_off', channel=2, note=47, velocity=64, time=0),\n",
      "    Message('note_off', channel=2, note=40, velocity=64, time=0),\n",
      "    Message('note_on', channel=2, note=52, velocity=96, time=0),\n",
      "    Message('note_on', channel=2, note=56, velocity=96, time=0),\n",
      "    Message('note_off', channel=2, note=56, velocity=64, time=120),\n",
      "    Message('note_off', channel=2, note=52, velocity=64, time=0),\n",
      "    Message('note_on', channel=2, note=40, velocity=96, time=0),\n",
      "    Message('note_on', channel=2, note=52, velocity=96, time=0),\n",
      "    Message('note_on', channel=2, note=56, velocity=96, time=0),\n",
      "    Message('note_on', channel=2, note=59, velocity=96, time=0),\n",
      "    Message('note_off', channel=2, note=59, velocity=64, time=480),\n",
      "    Message('note_off', channel=2, note=56, velocity=64, time=0),\n",
      "    Message('note_off', channel=2, note=52, velocity=64, time=0),\n",
      "    Message('note_off', channel=2, note=40, velocity=64, time=0),\n",
      "    Message('note_on', channel=2, note=42, velocity=96, time=0),\n",
      "    Message('note_on', channel=2, note=49, velocity=96, time=0),\n",
      "    Message('note_on', channel=2, note=54, velocity=96, time=0),\n",
      "    Message('note_on', channel=2, note=58, velocity=96, time=0),\n",
      "    Message('note_off', channel=2, note=58, velocity=64, time=360),\n",
      "    Message('note_off', channel=2, note=54, velocity=64, time=0),\n",
      "    Message('note_off', channel=2, note=49, velocity=64, time=0),\n",
      "    Message('note_off', channel=2, note=42, velocity=64, time=0),\n",
      "    Message('note_on', channel=2, note=54, velocity=96, time=0),\n",
      "    Message('note_on', channel=2, note=58, velocity=96, time=0),\n",
      "    Message('note_off', channel=2, note=58, velocity=64, time=120),\n",
      "    Message('note_off', channel=2, note=54, velocity=64, time=0),\n",
      "    Message('note_on', channel=2, note=42, velocity=96, time=0),\n",
      "    Message('note_on', channel=2, note=49, velocity=96, time=0),\n",
      "    Message('note_on', channel=2, note=58, velocity=96, time=0),\n",
      "    Message('note_on', channel=2, note=61, velocity=96, time=0),\n",
      "    Message('note_off', channel=2, note=61, velocity=64, time=480),\n",
      "    Message('note_off', channel=2, note=58, velocity=64, time=0),\n",
      "    Message('note_off', channel=2, note=49, velocity=64, time=0),\n",
      "    Message('note_off', channel=2, note=42, velocity=64, time=0),\n",
      "    Message('note_on', channel=2, note=47, velocity=96, time=0),\n",
      "    Message('note_on', channel=2, note=54, velocity=96, time=0),\n",
      "    Message('note_on', channel=2, note=59, velocity=96, time=0),\n",
      "    Message('note_on', channel=2, note=66, velocity=96, time=0),\n",
      "    Message('note_off', channel=2, note=66, velocity=64, time=240),\n",
      "    Message('note_off', channel=2, note=59, velocity=64, time=0),\n",
      "    Message('note_off', channel=2, note=54, velocity=64, time=0),\n",
      "    Message('note_off', channel=2, note=47, velocity=64, time=0),\n",
      "    Message('note_on', channel=2, note=54, velocity=96, time=0),\n",
      "    Message('note_on', channel=2, note=59, velocity=96, time=0),\n",
      "    Message('note_on', channel=2, note=63, velocity=96, time=0),\n",
      "    Message('note_off', channel=2, note=63, velocity=64, time=240),\n",
      "    Message('note_off', channel=2, note=59, velocity=64, time=0),\n",
      "    Message('note_off', channel=2, note=54, velocity=64, time=0),\n",
      "    Message('note_on', channel=2, note=46, velocity=96, time=0),\n",
      "    Message('note_on', channel=2, note=54, velocity=96, time=0),\n",
      "    Message('note_off', channel=2, note=54, velocity=64, time=240),\n",
      "    Message('note_off', channel=2, note=46, velocity=64, time=0),\n",
      "    Message('note_on', channel=2, note=54, velocity=96, time=0),\n",
      "    Message('note_on', channel=2, note=59, velocity=96, time=0),\n",
      "    Message('note_on', channel=2, note=63, velocity=96, time=0),\n",
      "    Message('note_off', channel=2, note=63, velocity=64, time=240),\n",
      "    Message('note_off', channel=2, note=59, velocity=64, time=0),\n",
      "    Message('note_off', channel=2, note=54, velocity=64, time=0),\n",
      "    Message('note_on', channel=2, note=44, velocity=96, time=0),\n",
      "    Message('note_on', channel=2, note=51, velocity=96, time=0),\n",
      "    Message('note_on', channel=2, note=56, velocity=96, time=0),\n",
      "    Message('note_on', channel=2, note=59, velocity=96, time=0),\n",
      "    Message('note_on', channel=2, note=63, velocity=96, time=0),\n",
      "    Message('note_off', channel=2, note=63, velocity=64, time=360),\n",
      "    Message('note_off', channel=2, note=59, velocity=64, time=0),\n",
      "    Message('note_off', channel=2, note=56, velocity=64, time=0),\n",
      "    Message('note_off', channel=2, note=51, velocity=64, time=0),\n",
      "    Message('note_off', channel=2, note=44, velocity=64, time=0),\n",
      "    Message('note_on', channel=2, note=56, velocity=96, time=0),\n",
      "    Message('note_on', channel=2, note=59, velocity=96, time=0),\n",
      "    Message('note_off', channel=2, note=59, velocity=64, time=120),\n",
      "    Message('note_off', channel=2, note=56, velocity=64, time=0),\n",
      "    Message('note_on', channel=2, note=51, velocity=96, time=0),\n",
      "    Message('note_on', channel=2, note=59, velocity=96, time=0),\n",
      "    Message('note_on', channel=2, note=63, velocity=96, time=0),\n",
      "    Message('note_off', channel=2, note=63, velocity=64, time=480),\n",
      "    Message('note_off', channel=2, note=59, velocity=64, time=0),\n",
      "    Message('note_off', channel=2, note=51, velocity=64, time=0),\n",
      "    Message('note_on', channel=2, note=40, velocity=96, time=0),\n",
      "    Message('note_on', channel=2, note=47, velocity=96, time=0),\n",
      "    Message('note_on', channel=2, note=52, velocity=96, time=0),\n",
      "    Message('note_on', channel=2, note=56, velocity=96, time=0),\n",
      "    Message('note_off', channel=2, note=56, velocity=64, time=360),\n",
      "    Message('note_off', channel=2, note=52, velocity=64, time=0),\n",
      "    Message('note_off', channel=2, note=47, velocity=64, time=0),\n",
      "    Message('note_off', channel=2, note=40, velocity=64, time=0),\n",
      "    Message('note_on', channel=2, note=52, velocity=96, time=0),\n",
      "    Message('note_on', channel=2, note=56, velocity=96, time=0),\n",
      "    Message('note_off', channel=2, note=56, velocity=64, time=120),\n",
      "    Message('note_off', channel=2, note=52, velocity=64, time=0),\n",
      "    Message('note_on', channel=2, note=40, velocity=96, time=0),\n",
      "    Message('note_on', channel=2, note=52, velocity=96, time=0),\n",
      "    Message('note_on', channel=2, note=56, velocity=96, time=0),\n",
      "    Message('note_on', channel=2, note=59, velocity=96, time=0),\n",
      "    Message('note_off', channel=2, note=59, velocity=64, time=480),\n",
      "    Message('note_off', channel=2, note=56, velocity=64, time=0),\n",
      "    Message('note_off', channel=2, note=52, velocity=64, time=0),\n",
      "    Message('note_off', channel=2, note=40, velocity=64, time=0),\n",
      "    Message('note_on', channel=2, note=42, velocity=96, time=0),\n",
      "    Message('note_on', channel=2, note=49, velocity=96, time=0),\n",
      "    Message('note_on', channel=2, note=54, velocity=96, time=0),\n",
      "    Message('note_on', channel=2, note=58, velocity=96, time=0),\n",
      "    Message('note_off', channel=2, note=58, velocity=64, time=360),\n",
      "    Message('note_off', channel=2, note=54, velocity=64, time=0),\n",
      "    Message('note_off', channel=2, note=49, velocity=64, time=0),\n",
      "    Message('note_off', channel=2, note=42, velocity=64, time=0),\n",
      "    Message('note_on', channel=2, note=54, velocity=96, time=0),\n",
      "    Message('note_on', channel=2, note=58, velocity=96, time=0),\n",
      "    Message('note_off', channel=2, note=58, velocity=64, time=120),\n",
      "    Message('note_off', channel=2, note=54, velocity=64, time=0),\n",
      "    Message('note_on', channel=2, note=42, velocity=96, time=0),\n",
      "    Message('note_on', channel=2, note=49, velocity=96, time=0),\n",
      "    Message('note_on', channel=2, note=58, velocity=96, time=0),\n",
      "    Message('note_on', channel=2, note=61, velocity=96, time=0),\n",
      "    Message('note_off', channel=2, note=61, velocity=64, time=480),\n",
      "    Message('note_off', channel=2, note=58, velocity=64, time=0),\n",
      "    Message('note_off', channel=2, note=49, velocity=64, time=0),\n",
      "    Message('note_off', channel=2, note=42, velocity=64, time=0),\n",
      "    Message('note_on', channel=2, note=47, velocity=96, time=0),\n",
      "    Message('note_on', channel=2, note=54, velocity=96, time=0),\n",
      "    Message('note_on', channel=2, note=59, velocity=96, time=0),\n",
      "    Message('note_on', channel=2, note=66, velocity=96, time=0),\n",
      "    Message('note_off', channel=2, note=66, velocity=64, time=240),\n",
      "    Message('note_off', channel=2, note=59, velocity=64, time=0),\n",
      "    Message('note_off', channel=2, note=54, velocity=64, time=0),\n",
      "    Message('note_off', channel=2, note=47, velocity=64, time=0),\n",
      "    Message('note_on', channel=2, note=54, velocity=96, time=0),\n",
      "    Message('note_on', channel=2, note=59, velocity=96, time=0),\n",
      "    Message('note_on', channel=2, note=63, velocity=96, time=0),\n",
      "    Message('note_off', channel=2, note=63, velocity=64, time=240),\n",
      "    Message('note_off', channel=2, note=59, velocity=64, time=0),\n",
      "    Message('note_off', channel=2, note=54, velocity=64, time=0),\n",
      "    Message('note_on', channel=2, note=46, velocity=96, time=0),\n",
      "    Message('note_on', channel=2, note=54, velocity=96, time=0),\n",
      "    Message('note_off', channel=2, note=54, velocity=64, time=240),\n",
      "    Message('note_off', channel=2, note=46, velocity=64, time=0),\n",
      "    Message('note_on', channel=2, note=54, velocity=96, time=0),\n",
      "    Message('note_on', channel=2, note=59, velocity=96, time=0),\n",
      "    Message('note_on', channel=2, note=63, velocity=96, time=0),\n",
      "    Message('note_off', channel=2, note=63, velocity=64, time=240),\n",
      "    Message('note_off', channel=2, note=59, velocity=64, time=0),\n",
      "    Message('note_off', channel=2, note=54, velocity=64, time=0),\n",
      "    Message('note_on', channel=2, note=44, velocity=96, time=0),\n",
      "    Message('note_on', channel=2, note=51, velocity=96, time=0),\n",
      "    Message('note_on', channel=2, note=56, velocity=96, time=0),\n",
      "    Message('note_on', channel=2, note=59, velocity=96, time=0),\n",
      "    Message('note_on', channel=2, note=63, velocity=96, time=0),\n",
      "    Message('note_off', channel=2, note=63, velocity=64, time=360),\n",
      "    Message('note_off', channel=2, note=59, velocity=64, time=0),\n",
      "    Message('note_off', channel=2, note=56, velocity=64, time=0),\n",
      "    Message('note_off', channel=2, note=51, velocity=64, time=0),\n",
      "    Message('note_off', channel=2, note=44, velocity=64, time=0),\n",
      "    Message('note_on', channel=2, note=56, velocity=96, time=0),\n",
      "    Message('note_on', channel=2, note=59, velocity=96, time=0),\n",
      "    Message('note_off', channel=2, note=59, velocity=64, time=120),\n",
      "    Message('note_off', channel=2, note=56, velocity=64, time=0),\n",
      "    Message('note_on', channel=2, note=51, velocity=96, time=0),\n",
      "    Message('note_on', channel=2, note=59, velocity=96, time=0),\n",
      "    Message('note_on', channel=2, note=63, velocity=96, time=0),\n",
      "    Message('note_off', channel=2, note=63, velocity=64, time=480),\n",
      "    Message('note_off', channel=2, note=59, velocity=64, time=0),\n",
      "    Message('note_off', channel=2, note=51, velocity=64, time=0),\n",
      "    Message('note_on', channel=2, note=40, velocity=96, time=0),\n",
      "    Message('note_on', channel=2, note=47, velocity=96, time=0),\n",
      "    Message('note_on', channel=2, note=52, velocity=96, time=0),\n",
      "    Message('note_on', channel=2, note=56, velocity=96, time=0),\n",
      "    Message('note_off', channel=2, note=56, velocity=64, time=360),\n",
      "    Message('note_off', channel=2, note=52, velocity=64, time=0),\n",
      "    Message('note_off', channel=2, note=47, velocity=64, time=0),\n",
      "    Message('note_off', channel=2, note=40, velocity=64, time=0),\n",
      "    Message('note_on', channel=2, note=52, velocity=96, time=0),\n",
      "    Message('note_on', channel=2, note=56, velocity=96, time=0),\n",
      "    Message('note_off', channel=2, note=56, velocity=64, time=120),\n",
      "    Message('note_off', channel=2, note=52, velocity=64, time=0),\n",
      "    Message('note_on', channel=2, note=40, velocity=96, time=0),\n",
      "    Message('note_on', channel=2, note=52, velocity=96, time=0),\n",
      "    Message('note_on', channel=2, note=56, velocity=96, time=0),\n",
      "    Message('note_on', channel=2, note=59, velocity=96, time=0),\n",
      "    Message('note_off', channel=2, note=59, velocity=64, time=480),\n",
      "    Message('note_off', channel=2, note=56, velocity=64, time=0),\n",
      "    Message('note_off', channel=2, note=52, velocity=64, time=0),\n",
      "    Message('note_off', channel=2, note=40, velocity=64, time=0),\n",
      "    Message('note_on', channel=2, note=41, velocity=96, time=0),\n",
      "    Message('note_on', channel=2, note=48, velocity=96, time=0),\n",
      "    Message('note_on', channel=2, note=53, velocity=96, time=0),\n",
      "    Message('note_on', channel=2, note=65, velocity=96, time=0),\n",
      "    Message('note_off', channel=2, note=65, velocity=64, time=480),\n",
      "    Message('note_off', channel=2, note=53, velocity=64, time=0),\n",
      "    Message('note_off', channel=2, note=48, velocity=64, time=0),\n",
      "    Message('note_off', channel=2, note=41, velocity=64, time=0),\n",
      "    Message('note_on', channel=2, note=41, velocity=96, time=0),\n",
      "    Message('note_on', channel=2, note=48, velocity=96, time=0),\n",
      "    Message('note_on', channel=2, note=53, velocity=96, time=0),\n",
      "    Message('note_on', channel=2, note=65, velocity=96, time=0),\n",
      "    Message('note_off', channel=2, note=65, velocity=64, time=480),\n",
      "    Message('note_off', channel=2, note=53, velocity=64, time=0),\n",
      "    Message('note_off', channel=2, note=48, velocity=64, time=0),\n",
      "    Message('note_off', channel=2, note=41, velocity=64, time=0),\n",
      "    Message('note_on', channel=2, note=40, velocity=96, time=0),\n",
      "    Message('note_on', channel=2, note=47, velocity=96, time=0),\n",
      "    Message('note_on', channel=2, note=52, velocity=96, time=0),\n",
      "    Message('note_on', channel=2, note=56, velocity=96, time=0),\n",
      "    Message('note_off', channel=2, note=56, velocity=64, time=360),\n",
      "    Message('note_off', channel=2, note=52, velocity=64, time=0),\n",
      "    Message('note_off', channel=2, note=47, velocity=64, time=0),\n",
      "    Message('note_off', channel=2, note=40, velocity=64, time=0),\n",
      "    Message('note_on', channel=2, note=52, velocity=96, time=0),\n",
      "    Message('note_on', channel=2, note=56, velocity=96, time=0),\n",
      "    Message('note_off', channel=2, note=56, velocity=64, time=120),\n",
      "    Message('note_off', channel=2, note=52, velocity=64, time=0),\n",
      "    Message('note_on', channel=2, note=40, velocity=96, time=0),\n",
      "    Message('note_on', channel=2, note=52, velocity=96, time=0),\n",
      "    Message('note_on', channel=2, note=56, velocity=96, time=0),\n",
      "    Message('note_on', channel=2, note=59, velocity=96, time=0),\n",
      "    Message('note_off', channel=2, note=59, velocity=64, time=240),\n",
      "    Message('note_off', channel=2, note=56, velocity=64, time=0),\n",
      "    Message('note_off', channel=2, note=52, velocity=64, time=0),\n",
      "    Message('note_off', channel=2, note=40, velocity=64, time=0),\n",
      "    Message('note_on', channel=2, note=47, velocity=96, time=0),\n",
      "    Message('note_on', channel=2, note=52, velocity=96, time=0),\n",
      "    Message('note_on', channel=2, note=56, velocity=96, time=0),\n",
      "    Message('note_off', channel=2, note=56, velocity=64, time=240),\n",
      "    Message('note_off', channel=2, note=52, velocity=64, time=0),\n",
      "    Message('note_off', channel=2, note=47, velocity=64, time=0),\n",
      "    Message('note_on', channel=2, note=44, velocity=96, time=0),\n",
      "    Message('note_on', channel=2, note=51, velocity=96, time=0),\n",
      "    Message('note_on', channel=2, note=56, velocity=96, time=0),\n",
      "    Message('note_on', channel=2, note=59, velocity=96, time=0),\n",
      "    Message('note_on', channel=2, note=63, velocity=96, time=0),\n",
      "    Message('note_off', channel=2, note=63, velocity=64, time=360),\n",
      "    Message('note_off', channel=2, note=59, velocity=64, time=0),\n",
      "    Message('note_off', channel=2, note=56, velocity=64, time=0),\n",
      "    Message('note_off', channel=2, note=51, velocity=64, time=0),\n",
      "    Message('note_off', channel=2, note=44, velocity=64, time=0),\n",
      "    Message('note_on', channel=2, note=56, velocity=96, time=0),\n",
      "    Message('note_on', channel=2, note=59, velocity=96, time=0),\n",
      "    Message('note_off', channel=2, note=59, velocity=64, time=120),\n",
      "    Message('note_off', channel=2, note=56, velocity=64, time=0),\n",
      "    Message('note_on', channel=2, note=51, velocity=96, time=0),\n",
      "    Message('note_on', channel=2, note=59, velocity=96, time=0),\n",
      "    Message('note_on', channel=2, note=63, velocity=96, time=0),\n",
      "    Message('note_off', channel=2, note=63, velocity=64, time=480),\n",
      "    Message('note_off', channel=2, note=59, velocity=64, time=0),\n",
      "    Message('note_off', channel=2, note=51, velocity=64, time=0),\n",
      "    Message('note_on', channel=2, note=40, velocity=96, time=0),\n",
      "    Message('note_on', channel=2, note=47, velocity=96, time=0),\n",
      "    Message('note_on', channel=2, note=52, velocity=96, time=0),\n",
      "    Message('note_on', channel=2, note=56, velocity=96, time=0),\n",
      "    Message('note_off', channel=2, note=56, velocity=64, time=360),\n",
      "    Message('note_off', channel=2, note=52, velocity=64, time=0),\n",
      "    Message('note_off', channel=2, note=47, velocity=64, time=0),\n",
      "    Message('note_off', channel=2, note=40, velocity=64, time=0),\n",
      "    Message('note_on', channel=2, note=52, velocity=96, time=0),\n",
      "    Message('note_on', channel=2, note=56, velocity=96, time=0),\n",
      "    Message('note_off', channel=2, note=56, velocity=64, time=120),\n",
      "    Message('note_off', channel=2, note=52, velocity=64, time=0),\n",
      "    Message('note_on', channel=2, note=40, velocity=96, time=0),\n",
      "    Message('note_on', channel=2, note=52, velocity=96, time=0),\n",
      "    Message('note_on', channel=2, note=56, velocity=96, time=0),\n",
      "    Message('note_on', channel=2, note=59, velocity=96, time=0),\n",
      "    Message('note_off', channel=2, note=59, velocity=64, time=480),\n",
      "    Message('note_off', channel=2, note=56, velocity=64, time=0),\n",
      "    Message('note_off', channel=2, note=52, velocity=64, time=0),\n",
      "    Message('note_off', channel=2, note=40, velocity=64, time=0),\n",
      "    Message('note_on', channel=2, note=42, velocity=96, time=0),\n",
      "    Message('note_on', channel=2, note=49, velocity=96, time=0),\n",
      "    Message('note_on', channel=2, note=54, velocity=96, time=0),\n",
      "    Message('note_on', channel=2, note=58, velocity=96, time=0),\n",
      "    Message('note_off', channel=2, note=58, velocity=64, time=360),\n",
      "    Message('note_off', channel=2, note=54, velocity=64, time=0),\n",
      "    Message('note_off', channel=2, note=49, velocity=64, time=0),\n",
      "    Message('note_off', channel=2, note=42, velocity=64, time=0),\n",
      "    Message('note_on', channel=2, note=54, velocity=96, time=0),\n",
      "    Message('note_on', channel=2, note=58, velocity=96, time=0),\n",
      "    Message('note_off', channel=2, note=58, velocity=64, time=120),\n",
      "    Message('note_off', channel=2, note=54, velocity=64, time=0),\n",
      "    Message('note_on', channel=2, note=42, velocity=96, time=0),\n",
      "    Message('note_on', channel=2, note=49, velocity=96, time=0),\n",
      "    Message('note_on', channel=2, note=58, velocity=96, time=0),\n",
      "    Message('note_on', channel=2, note=61, velocity=96, time=0),\n",
      "    Message('note_off', channel=2, note=61, velocity=64, time=480),\n",
      "    Message('note_off', channel=2, note=58, velocity=64, time=0),\n",
      "    Message('note_off', channel=2, note=49, velocity=64, time=0),\n",
      "    Message('note_off', channel=2, note=42, velocity=64, time=0),\n",
      "    Message('note_on', channel=2, note=47, velocity=96, time=0),\n",
      "    Message('note_on', channel=2, note=54, velocity=96, time=0),\n",
      "    Message('note_on', channel=2, note=59, velocity=96, time=0),\n",
      "    Message('note_on', channel=2, note=66, velocity=96, time=0),\n",
      "    Message('note_off', channel=2, note=66, velocity=64, time=240),\n",
      "    Message('note_off', channel=2, note=59, velocity=64, time=0),\n",
      "    Message('note_off', channel=2, note=54, velocity=64, time=0),\n",
      "    Message('note_off', channel=2, note=47, velocity=64, time=0),\n",
      "    Message('note_on', channel=2, note=54, velocity=96, time=0),\n",
      "    Message('note_on', channel=2, note=59, velocity=96, time=0),\n",
      "    Message('note_on', channel=2, note=63, velocity=96, time=0),\n",
      "    Message('note_off', channel=2, note=63, velocity=64, time=240),\n",
      "    Message('note_off', channel=2, note=59, velocity=64, time=0),\n",
      "    Message('note_off', channel=2, note=54, velocity=64, time=0),\n",
      "    Message('note_on', channel=2, note=46, velocity=96, time=0),\n",
      "    Message('note_on', channel=2, note=54, velocity=96, time=0),\n",
      "    Message('note_off', channel=2, note=54, velocity=64, time=240),\n",
      "    Message('note_off', channel=2, note=46, velocity=64, time=0),\n",
      "    Message('note_on', channel=2, note=54, velocity=96, time=0),\n",
      "    Message('note_on', channel=2, note=59, velocity=96, time=0),\n",
      "    Message('note_on', channel=2, note=63, velocity=96, time=0),\n",
      "    Message('note_off', channel=2, note=63, velocity=64, time=240),\n",
      "    Message('note_off', channel=2, note=59, velocity=64, time=0),\n",
      "    Message('note_off', channel=2, note=54, velocity=64, time=0),\n",
      "    Message('note_on', channel=2, note=44, velocity=96, time=0),\n",
      "    Message('note_on', channel=2, note=51, velocity=96, time=0),\n",
      "    Message('note_on', channel=2, note=56, velocity=96, time=0),\n",
      "    Message('note_on', channel=2, note=59, velocity=96, time=0),\n",
      "    Message('note_on', channel=2, note=63, velocity=96, time=0),\n",
      "    Message('note_off', channel=2, note=63, velocity=64, time=360),\n",
      "    Message('note_off', channel=2, note=59, velocity=64, time=0),\n",
      "    Message('note_off', channel=2, note=56, velocity=64, time=0),\n",
      "    Message('note_off', channel=2, note=51, velocity=64, time=0),\n",
      "    Message('note_off', channel=2, note=44, velocity=64, time=0),\n",
      "    Message('note_on', channel=2, note=56, velocity=96, time=0),\n",
      "    Message('note_on', channel=2, note=59, velocity=96, time=0),\n",
      "    Message('note_off', channel=2, note=59, velocity=64, time=120),\n",
      "    Message('note_off', channel=2, note=56, velocity=64, time=0),\n",
      "    Message('note_on', channel=2, note=51, velocity=96, time=0),\n",
      "    Message('note_on', channel=2, note=59, velocity=96, time=0),\n",
      "    Message('note_on', channel=2, note=63, velocity=96, time=0),\n",
      "    Message('note_off', channel=2, note=63, velocity=64, time=480),\n",
      "    Message('note_off', channel=2, note=59, velocity=64, time=0),\n",
      "    Message('note_off', channel=2, note=51, velocity=64, time=0),\n",
      "    Message('note_on', channel=2, note=40, velocity=96, time=0),\n",
      "    Message('note_on', channel=2, note=47, velocity=96, time=0),\n",
      "    Message('note_on', channel=2, note=52, velocity=96, time=0),\n",
      "    Message('note_on', channel=2, note=56, velocity=96, time=0),\n",
      "    Message('note_off', channel=2, note=56, velocity=64, time=360),\n",
      "    Message('note_off', channel=2, note=52, velocity=64, time=0),\n",
      "    Message('note_off', channel=2, note=47, velocity=64, time=0),\n",
      "    Message('note_off', channel=2, note=40, velocity=64, time=0),\n",
      "    Message('note_on', channel=2, note=52, velocity=96, time=0),\n",
      "    Message('note_on', channel=2, note=56, velocity=96, time=0),\n",
      "    Message('note_off', channel=2, note=56, velocity=64, time=120),\n",
      "    Message('note_off', channel=2, note=52, velocity=64, time=0),\n",
      "    Message('note_on', channel=2, note=40, velocity=96, time=0),\n",
      "    Message('note_on', channel=2, note=52, velocity=96, time=0),\n",
      "    Message('note_on', channel=2, note=56, velocity=96, time=0),\n",
      "    Message('note_on', channel=2, note=59, velocity=96, time=0),\n",
      "    Message('note_off', channel=2, note=59, velocity=64, time=480),\n",
      "    Message('note_off', channel=2, note=56, velocity=64, time=0),\n",
      "    Message('note_off', channel=2, note=52, velocity=64, time=0),\n",
      "    Message('note_off', channel=2, note=40, velocity=64, time=0),\n",
      "    Message('note_on', channel=2, note=42, velocity=96, time=0),\n",
      "    Message('note_on', channel=2, note=49, velocity=96, time=0),\n",
      "    Message('note_on', channel=2, note=54, velocity=96, time=0),\n",
      "    Message('note_on', channel=2, note=58, velocity=96, time=0),\n",
      "    Message('note_off', channel=2, note=58, velocity=64, time=360),\n",
      "    Message('note_off', channel=2, note=54, velocity=64, time=0),\n",
      "    Message('note_off', channel=2, note=49, velocity=64, time=0),\n",
      "    Message('note_off', channel=2, note=42, velocity=64, time=0),\n",
      "    Message('note_on', channel=2, note=54, velocity=96, time=0),\n",
      "    Message('note_on', channel=2, note=58, velocity=96, time=0),\n",
      "    Message('note_off', channel=2, note=58, velocity=64, time=120),\n",
      "    Message('note_off', channel=2, note=54, velocity=64, time=0),\n",
      "    Message('note_on', channel=2, note=42, velocity=96, time=0),\n",
      "    Message('note_on', channel=2, note=49, velocity=96, time=0),\n",
      "    Message('note_on', channel=2, note=58, velocity=96, time=0),\n",
      "    Message('note_on', channel=2, note=61, velocity=96, time=0),\n",
      "    Message('note_off', channel=2, note=61, velocity=64, time=480),\n",
      "    Message('note_off', channel=2, note=58, velocity=64, time=0),\n",
      "    Message('note_off', channel=2, note=49, velocity=64, time=0),\n",
      "    Message('note_off', channel=2, note=42, velocity=64, time=0),\n",
      "    Message('note_on', channel=2, note=47, velocity=96, time=0),\n",
      "    Message('note_on', channel=2, note=54, velocity=96, time=0),\n",
      "    Message('note_on', channel=2, note=59, velocity=96, time=0),\n",
      "    Message('note_on', channel=2, note=66, velocity=96, time=0),\n",
      "    Message('note_off', channel=2, note=66, velocity=64, time=240),\n",
      "    Message('note_off', channel=2, note=59, velocity=64, time=0),\n",
      "    Message('note_off', channel=2, note=54, velocity=64, time=0),\n",
      "    Message('note_off', channel=2, note=47, velocity=64, time=0),\n",
      "    Message('note_on', channel=2, note=54, velocity=96, time=0),\n",
      "    Message('note_on', channel=2, note=59, velocity=96, time=0),\n",
      "    Message('note_on', channel=2, note=63, velocity=96, time=0),\n",
      "    Message('note_off', channel=2, note=63, velocity=64, time=240),\n",
      "    Message('note_off', channel=2, note=59, velocity=64, time=0),\n",
      "    Message('note_off', channel=2, note=54, velocity=64, time=0),\n",
      "    Message('note_on', channel=2, note=46, velocity=96, time=0),\n",
      "    Message('note_on', channel=2, note=54, velocity=96, time=0),\n",
      "    Message('note_off', channel=2, note=54, velocity=64, time=240),\n",
      "    Message('note_off', channel=2, note=46, velocity=64, time=0),\n",
      "    Message('note_on', channel=2, note=54, velocity=96, time=0),\n",
      "    Message('note_on', channel=2, note=59, velocity=96, time=0),\n",
      "    Message('note_on', channel=2, note=63, velocity=96, time=0),\n",
      "    Message('note_off', channel=2, note=63, velocity=64, time=240),\n",
      "    Message('note_off', channel=2, note=59, velocity=64, time=0),\n",
      "    Message('note_off', channel=2, note=54, velocity=64, time=0),\n",
      "    Message('note_on', channel=2, note=44, velocity=96, time=0),\n",
      "    Message('note_on', channel=2, note=51, velocity=96, time=0),\n",
      "    Message('note_on', channel=2, note=56, velocity=96, time=0),\n",
      "    Message('note_on', channel=2, note=59, velocity=96, time=0),\n",
      "    Message('note_on', channel=2, note=63, velocity=96, time=0),\n",
      "    Message('note_off', channel=2, note=63, velocity=64, time=360),\n",
      "    Message('note_off', channel=2, note=59, velocity=64, time=0),\n",
      "    Message('note_off', channel=2, note=56, velocity=64, time=0),\n",
      "    Message('note_off', channel=2, note=51, velocity=64, time=0),\n",
      "    Message('note_off', channel=2, note=44, velocity=64, time=0),\n",
      "    Message('note_on', channel=2, note=56, velocity=96, time=0),\n",
      "    Message('note_on', channel=2, note=59, velocity=96, time=0),\n",
      "    Message('note_off', channel=2, note=59, velocity=64, time=120),\n",
      "    Message('note_off', channel=2, note=56, velocity=64, time=0),\n",
      "    Message('note_on', channel=2, note=51, velocity=96, time=0),\n",
      "    Message('note_on', channel=2, note=59, velocity=96, time=0),\n",
      "    Message('note_on', channel=2, note=63, velocity=96, time=0),\n",
      "    Message('note_off', channel=2, note=63, velocity=64, time=480),\n",
      "    Message('note_off', channel=2, note=59, velocity=64, time=0),\n",
      "    Message('note_off', channel=2, note=51, velocity=64, time=0),\n",
      "    Message('note_on', channel=2, note=40, velocity=96, time=0),\n",
      "    Message('note_on', channel=2, note=47, velocity=96, time=0),\n",
      "    Message('note_on', channel=2, note=52, velocity=96, time=0),\n",
      "    Message('note_on', channel=2, note=56, velocity=96, time=0),\n",
      "    Message('note_off', channel=2, note=56, velocity=64, time=360),\n",
      "    Message('note_off', channel=2, note=52, velocity=64, time=0),\n",
      "    Message('note_off', channel=2, note=47, velocity=64, time=0),\n",
      "    Message('note_off', channel=2, note=40, velocity=64, time=0),\n",
      "    Message('note_on', channel=2, note=52, velocity=96, time=0),\n",
      "    Message('note_on', channel=2, note=56, velocity=96, time=0),\n",
      "    Message('note_off', channel=2, note=56, velocity=64, time=120),\n",
      "    Message('note_off', channel=2, note=52, velocity=64, time=0),\n",
      "    Message('note_on', channel=2, note=40, velocity=96, time=0),\n",
      "    Message('note_on', channel=2, note=52, velocity=96, time=0),\n",
      "    Message('note_on', channel=2, note=56, velocity=96, time=0),\n",
      "    Message('note_on', channel=2, note=59, velocity=96, time=0),\n",
      "    Message('note_off', channel=2, note=59, velocity=64, time=480),\n",
      "    Message('note_off', channel=2, note=56, velocity=64, time=0),\n",
      "    Message('note_off', channel=2, note=52, velocity=64, time=0),\n",
      "    Message('note_off', channel=2, note=40, velocity=64, time=0),\n",
      "    Message('note_on', channel=2, note=42, velocity=96, time=0),\n",
      "    Message('note_on', channel=2, note=49, velocity=96, time=0),\n",
      "    Message('note_on', channel=2, note=54, velocity=96, time=0),\n",
      "    Message('note_on', channel=2, note=58, velocity=96, time=0),\n",
      "    Message('note_off', channel=2, note=58, velocity=64, time=360),\n",
      "    Message('note_off', channel=2, note=54, velocity=64, time=0),\n",
      "    Message('note_off', channel=2, note=49, velocity=64, time=0),\n",
      "    Message('note_off', channel=2, note=42, velocity=64, time=0),\n",
      "    Message('note_on', channel=2, note=54, velocity=96, time=0),\n",
      "    Message('note_on', channel=2, note=58, velocity=96, time=0),\n",
      "    Message('note_off', channel=2, note=58, velocity=64, time=120),\n",
      "    Message('note_off', channel=2, note=54, velocity=64, time=0),\n",
      "    Message('note_on', channel=2, note=42, velocity=96, time=0),\n",
      "    Message('note_on', channel=2, note=49, velocity=96, time=0),\n",
      "    Message('note_on', channel=2, note=58, velocity=96, time=0),\n",
      "    Message('note_on', channel=2, note=61, velocity=96, time=0),\n",
      "    Message('note_off', channel=2, note=61, velocity=64, time=480),\n",
      "    Message('note_off', channel=2, note=58, velocity=64, time=0),\n",
      "    Message('note_off', channel=2, note=49, velocity=64, time=0),\n",
      "    Message('note_off', channel=2, note=42, velocity=64, time=0),\n",
      "    Message('note_on', channel=2, note=47, velocity=96, time=0),\n",
      "    Message('note_on', channel=2, note=54, velocity=96, time=0),\n",
      "    Message('note_on', channel=2, note=59, velocity=96, time=0),\n",
      "    Message('note_on', channel=2, note=66, velocity=96, time=0),\n",
      "    Message('note_off', channel=2, note=66, velocity=64, time=240),\n",
      "    Message('note_off', channel=2, note=59, velocity=64, time=0),\n",
      "    Message('note_off', channel=2, note=54, velocity=64, time=0),\n",
      "    Message('note_off', channel=2, note=47, velocity=64, time=0),\n",
      "    Message('note_on', channel=2, note=54, velocity=96, time=0),\n",
      "    Message('note_on', channel=2, note=59, velocity=96, time=0),\n",
      "    Message('note_on', channel=2, note=63, velocity=96, time=0),\n",
      "    Message('note_off', channel=2, note=63, velocity=64, time=240),\n",
      "    Message('note_off', channel=2, note=59, velocity=64, time=0),\n",
      "    Message('note_off', channel=2, note=54, velocity=64, time=0),\n",
      "    Message('note_on', channel=2, note=46, velocity=96, time=0),\n",
      "    Message('note_on', channel=2, note=54, velocity=96, time=0),\n",
      "    Message('note_off', channel=2, note=54, velocity=64, time=240),\n",
      "    Message('note_off', channel=2, note=46, velocity=64, time=0),\n",
      "    Message('note_on', channel=2, note=54, velocity=96, time=0),\n",
      "    Message('note_on', channel=2, note=59, velocity=96, time=0),\n",
      "    Message('note_on', channel=2, note=63, velocity=96, time=0),\n",
      "    Message('note_off', channel=2, note=63, velocity=64, time=240),\n",
      "    Message('note_off', channel=2, note=59, velocity=64, time=0),\n",
      "    Message('note_off', channel=2, note=54, velocity=64, time=0),\n",
      "    Message('note_on', channel=2, note=44, velocity=96, time=0),\n",
      "    Message('note_on', channel=2, note=51, velocity=96, time=0),\n",
      "    Message('note_on', channel=2, note=56, velocity=96, time=0),\n",
      "    Message('note_on', channel=2, note=59, velocity=96, time=0),\n",
      "    Message('note_on', channel=2, note=63, velocity=96, time=0),\n",
      "    Message('note_off', channel=2, note=63, velocity=64, time=360),\n",
      "    Message('note_off', channel=2, note=59, velocity=64, time=0),\n",
      "    Message('note_off', channel=2, note=56, velocity=64, time=0),\n",
      "    Message('note_off', channel=2, note=51, velocity=64, time=0),\n",
      "    Message('note_off', channel=2, note=44, velocity=64, time=0),\n",
      "    Message('note_on', channel=2, note=56, velocity=96, time=0),\n",
      "    Message('note_on', channel=2, note=59, velocity=96, time=0),\n",
      "    Message('note_off', channel=2, note=59, velocity=64, time=120),\n",
      "    Message('note_off', channel=2, note=56, velocity=64, time=0),\n",
      "    Message('note_on', channel=2, note=51, velocity=96, time=0),\n",
      "    Message('note_on', channel=2, note=59, velocity=96, time=0),\n",
      "    Message('note_on', channel=2, note=63, velocity=96, time=0),\n",
      "    Message('note_off', channel=2, note=63, velocity=64, time=480),\n",
      "    Message('note_off', channel=2, note=59, velocity=64, time=0),\n",
      "    Message('note_off', channel=2, note=51, velocity=64, time=0),\n",
      "    Message('note_on', channel=2, note=40, velocity=96, time=0),\n",
      "    Message('note_on', channel=2, note=47, velocity=96, time=0),\n",
      "    Message('note_on', channel=2, note=52, velocity=96, time=0),\n",
      "    Message('note_on', channel=2, note=56, velocity=96, time=0),\n",
      "    Message('note_off', channel=2, note=56, velocity=64, time=360),\n",
      "    Message('note_off', channel=2, note=52, velocity=64, time=0),\n",
      "    Message('note_off', channel=2, note=47, velocity=64, time=0),\n",
      "    Message('note_off', channel=2, note=40, velocity=64, time=0),\n",
      "    Message('note_on', channel=2, note=52, velocity=96, time=0),\n",
      "    Message('note_on', channel=2, note=56, velocity=96, time=0),\n",
      "    Message('note_off', channel=2, note=56, velocity=64, time=120),\n",
      "    Message('note_off', channel=2, note=52, velocity=64, time=0),\n",
      "    Message('note_on', channel=2, note=40, velocity=96, time=0),\n",
      "    Message('note_on', channel=2, note=52, velocity=96, time=0),\n",
      "    Message('note_on', channel=2, note=56, velocity=96, time=0),\n",
      "    Message('note_on', channel=2, note=59, velocity=96, time=0),\n",
      "    Message('note_off', channel=2, note=59, velocity=64, time=480),\n",
      "    Message('note_off', channel=2, note=56, velocity=64, time=0),\n",
      "    Message('note_off', channel=2, note=52, velocity=64, time=0),\n",
      "    Message('note_off', channel=2, note=40, velocity=64, time=0),\n",
      "    Message('note_on', channel=2, note=41, velocity=96, time=0),\n",
      "    Message('note_on', channel=2, note=48, velocity=96, time=0),\n",
      "    Message('note_on', channel=2, note=53, velocity=96, time=0),\n",
      "    Message('note_on', channel=2, note=65, velocity=96, time=0),\n",
      "    Message('note_off', channel=2, note=65, velocity=64, time=480),\n",
      "    Message('note_off', channel=2, note=53, velocity=64, time=0),\n",
      "    Message('note_off', channel=2, note=48, velocity=64, time=0),\n",
      "    Message('note_off', channel=2, note=41, velocity=64, time=0),\n",
      "    Message('note_on', channel=2, note=41, velocity=96, time=0),\n",
      "    Message('note_on', channel=2, note=48, velocity=96, time=0),\n",
      "    Message('note_on', channel=2, note=53, velocity=96, time=0),\n",
      "    Message('note_on', channel=2, note=65, velocity=96, time=0),\n",
      "    Message('note_off', channel=2, note=65, velocity=64, time=480),\n",
      "    Message('note_off', channel=2, note=53, velocity=64, time=0),\n",
      "    Message('note_off', channel=2, note=48, velocity=64, time=0),\n",
      "    Message('note_off', channel=2, note=41, velocity=64, time=0),\n",
      "    Message('note_on', channel=2, note=40, velocity=96, time=0),\n",
      "    Message('note_on', channel=2, note=47, velocity=96, time=0),\n",
      "    Message('note_on', channel=2, note=52, velocity=96, time=0),\n",
      "    Message('note_on', channel=2, note=56, velocity=96, time=0),\n",
      "    Message('note_off', channel=2, note=56, velocity=64, time=360),\n",
      "    Message('note_off', channel=2, note=52, velocity=64, time=0),\n",
      "    Message('note_off', channel=2, note=47, velocity=64, time=0),\n",
      "    Message('note_off', channel=2, note=40, velocity=64, time=0),\n",
      "    Message('note_on', channel=2, note=52, velocity=96, time=0),\n",
      "    Message('note_on', channel=2, note=56, velocity=96, time=0),\n",
      "    Message('note_off', channel=2, note=56, velocity=64, time=120),\n",
      "    Message('note_off', channel=2, note=52, velocity=64, time=0),\n",
      "    Message('note_on', channel=2, note=40, velocity=96, time=0),\n",
      "    Message('note_on', channel=2, note=52, velocity=96, time=0),\n",
      "    Message('note_on', channel=2, note=56, velocity=96, time=0),\n",
      "    Message('note_on', channel=2, note=59, velocity=96, time=0),\n",
      "    Message('note_off', channel=2, note=59, velocity=64, time=240),\n",
      "    Message('note_off', channel=2, note=56, velocity=64, time=0),\n",
      "    Message('note_off', channel=2, note=52, velocity=64, time=0),\n",
      "    Message('note_off', channel=2, note=40, velocity=64, time=0),\n",
      "    Message('note_on', channel=2, note=47, velocity=96, time=0),\n",
      "    Message('note_on', channel=2, note=52, velocity=96, time=0),\n",
      "    Message('note_on', channel=2, note=56, velocity=96, time=0),\n",
      "    Message('note_off', channel=2, note=56, velocity=64, time=240),\n",
      "    Message('note_off', channel=2, note=52, velocity=64, time=0),\n",
      "    Message('note_off', channel=2, note=47, velocity=64, time=0),\n",
      "    Message('note_on', channel=2, note=44, velocity=96, time=0),\n",
      "    Message('note_off', channel=2, note=44, velocity=64, time=360),\n",
      "    Message('note_on', channel=2, note=59, velocity=96, time=0),\n",
      "    Message('note_on', channel=2, note=63, velocity=96, time=0),\n",
      "    Message('note_on', channel=2, note=68, velocity=96, time=0),\n",
      "    Message('note_off', channel=2, note=68, velocity=64, time=240),\n",
      "    Message('note_off', channel=2, note=63, velocity=64, time=0),\n",
      "    Message('note_off', channel=2, note=59, velocity=64, time=0),\n",
      "    Message('note_on', channel=2, note=59, velocity=96, time=0),\n",
      "    Message('note_on', channel=2, note=63, velocity=96, time=0),\n",
      "    Message('note_on', channel=2, note=68, velocity=96, time=0),\n",
      "    Message('note_off', channel=2, note=68, velocity=64, time=360),\n",
      "    Message('note_off', channel=2, note=63, velocity=64, time=0),\n",
      "    Message('note_off', channel=2, note=59, velocity=64, time=0),\n",
      "    Message('note_on', channel=2, note=40, velocity=96, time=0),\n",
      "    Message('note_off', channel=2, note=40, velocity=64, time=360),\n",
      "    Message('note_on', channel=2, note=59, velocity=96, time=0),\n",
      "    Message('note_on', channel=2, note=63, velocity=96, time=0),\n",
      "    Message('note_on', channel=2, note=68, velocity=96, time=0),\n",
      "    Message('note_off', channel=2, note=68, velocity=64, time=240),\n",
      "    Message('note_off', channel=2, note=63, velocity=64, time=0),\n",
      "    Message('note_off', channel=2, note=59, velocity=64, time=0),\n",
      "    Message('note_on', channel=2, note=59, velocity=96, time=0),\n",
      "    Message('note_on', channel=2, note=63, velocity=96, time=0),\n",
      "    Message('note_on', channel=2, note=68, velocity=96, time=0),\n",
      "    Message('note_off', channel=2, note=68, velocity=64, time=360),\n",
      "    Message('note_off', channel=2, note=63, velocity=64, time=0),\n",
      "    Message('note_off', channel=2, note=59, velocity=64, time=0),\n",
      "    Message('note_on', channel=2, note=42, velocity=96, time=0),\n",
      "    Message('note_off', channel=2, note=42, velocity=64, time=360),\n",
      "    Message('note_on', channel=2, note=61, velocity=96, time=0),\n",
      "    Message('note_on', channel=2, note=66, velocity=96, time=0),\n",
      "    Message('note_on', channel=2, note=70, velocity=96, time=0),\n",
      "    Message('note_off', channel=2, note=70, velocity=64, time=240),\n",
      "    Message('note_off', channel=2, note=66, velocity=64, time=0),\n",
      "    Message('note_off', channel=2, note=61, velocity=64, time=0),\n",
      "    Message('note_on', channel=2, note=61, velocity=96, time=0),\n",
      "    Message('note_on', channel=2, note=66, velocity=96, time=0),\n",
      "    Message('note_on', channel=2, note=70, velocity=96, time=0),\n",
      "    Message('note_off', channel=2, note=70, velocity=64, time=360),\n",
      "    Message('note_off', channel=2, note=66, velocity=64, time=0),\n",
      "    Message('note_off', channel=2, note=61, velocity=64, time=0),\n",
      "    Message('note_on', channel=2, note=47, velocity=96, time=0),\n",
      "    Message('note_off', channel=2, note=47, velocity=64, time=360),\n",
      "    Message('note_on', channel=2, note=61, velocity=96, time=0),\n",
      "    Message('note_on', channel=2, note=66, velocity=96, time=0),\n",
      "    Message('note_on', channel=2, note=70, velocity=96, time=0),\n",
      "    Message('note_off', channel=2, note=70, velocity=64, time=240),\n",
      "    Message('note_off', channel=2, note=66, velocity=64, time=0),\n",
      "    Message('note_off', channel=2, note=61, velocity=64, time=0),\n",
      "    Message('note_on', channel=2, note=61, velocity=96, time=0),\n",
      "    Message('note_on', channel=2, note=66, velocity=96, time=0),\n",
      "    Message('note_on', channel=2, note=71, velocity=96, time=0),\n",
      "    Message('note_off', channel=2, note=71, velocity=64, time=360),\n",
      "    Message('note_off', channel=2, note=66, velocity=64, time=0),\n",
      "    Message('note_off', channel=2, note=61, velocity=64, time=0),\n",
      "    Message('note_on', channel=2, note=44, velocity=96, time=0),\n",
      "    Message('note_off', channel=2, note=44, velocity=64, time=360),\n",
      "    Message('note_on', channel=2, note=59, velocity=96, time=0),\n",
      "    Message('note_on', channel=2, note=63, velocity=96, time=0),\n",
      "    Message('note_on', channel=2, note=68, velocity=96, time=0),\n",
      "    Message('note_off', channel=2, note=68, velocity=64, time=240),\n",
      "    Message('note_off', channel=2, note=63, velocity=64, time=0),\n",
      "    Message('note_off', channel=2, note=59, velocity=64, time=0),\n",
      "    Message('note_on', channel=2, note=59, velocity=96, time=0),\n",
      "    Message('note_on', channel=2, note=63, velocity=96, time=0),\n",
      "    Message('note_on', channel=2, note=68, velocity=96, time=0),\n",
      "    Message('note_off', channel=2, note=68, velocity=64, time=360),\n",
      "    Message('note_off', channel=2, note=63, velocity=64, time=0),\n",
      "    Message('note_off', channel=2, note=59, velocity=64, time=0),\n",
      "    Message('note_on', channel=2, note=40, velocity=96, time=0),\n",
      "    Message('note_off', channel=2, note=40, velocity=64, time=360),\n",
      "    Message('note_on', channel=2, note=59, velocity=96, time=0),\n",
      "    Message('note_on', channel=2, note=63, velocity=96, time=0),\n",
      "    Message('note_on', channel=2, note=68, velocity=96, time=0),\n",
      "    Message('note_off', channel=2, note=68, velocity=64, time=240),\n",
      "    Message('note_off', channel=2, note=63, velocity=64, time=0),\n",
      "    Message('note_off', channel=2, note=59, velocity=64, time=0),\n",
      "    Message('note_on', channel=2, note=59, velocity=96, time=0),\n",
      "    Message('note_on', channel=2, note=63, velocity=96, time=0),\n",
      "    Message('note_on', channel=2, note=68, velocity=96, time=0),\n",
      "    Message('note_off', channel=2, note=68, velocity=64, time=360),\n",
      "    Message('note_off', channel=2, note=63, velocity=64, time=0),\n",
      "    Message('note_off', channel=2, note=59, velocity=64, time=0),\n",
      "    Message('note_on', channel=2, note=42, velocity=96, time=0),\n",
      "    Message('note_off', channel=2, note=42, velocity=64, time=360),\n",
      "    Message('note_on', channel=2, note=61, velocity=96, time=0),\n",
      "    Message('note_on', channel=2, note=66, velocity=96, time=0),\n",
      "    Message('note_on', channel=2, note=70, velocity=96, time=0),\n",
      "    Message('note_off', channel=2, note=70, velocity=64, time=240),\n",
      "    Message('note_off', channel=2, note=66, velocity=64, time=0),\n",
      "    Message('note_off', channel=2, note=61, velocity=64, time=0),\n",
      "    Message('note_on', channel=2, note=61, velocity=96, time=0),\n",
      "    Message('note_on', channel=2, note=66, velocity=96, time=0),\n",
      "    Message('note_on', channel=2, note=70, velocity=96, time=0),\n",
      "    Message('note_off', channel=2, note=70, velocity=64, time=360),\n",
      "    Message('note_off', channel=2, note=66, velocity=64, time=0),\n",
      "    Message('note_off', channel=2, note=61, velocity=64, time=0),\n",
      "    Message('note_on', channel=2, note=47, velocity=96, time=0),\n",
      "    Message('note_off', channel=2, note=47, velocity=64, time=360),\n",
      "    Message('note_on', channel=2, note=61, velocity=96, time=0),\n",
      "    Message('note_on', channel=2, note=66, velocity=96, time=0),\n",
      "    Message('note_on', channel=2, note=70, velocity=96, time=0),\n",
      "    Message('note_off', channel=2, note=70, velocity=64, time=240),\n",
      "    Message('note_off', channel=2, note=66, velocity=64, time=0),\n",
      "    Message('note_off', channel=2, note=61, velocity=64, time=0),\n",
      "    Message('note_on', channel=2, note=61, velocity=96, time=0),\n",
      "    Message('note_on', channel=2, note=66, velocity=96, time=0),\n",
      "    Message('note_on', channel=2, note=71, velocity=96, time=0),\n",
      "    Message('note_off', channel=2, note=71, velocity=64, time=360),\n",
      "    Message('note_off', channel=2, note=66, velocity=64, time=0),\n",
      "    Message('note_off', channel=2, note=61, velocity=64, time=0),\n",
      "    Message('note_on', channel=2, note=44, velocity=96, time=0),\n",
      "    Message('note_off', channel=2, note=44, velocity=64, time=360),\n",
      "    Message('note_on', channel=2, note=59, velocity=96, time=0),\n",
      "    Message('note_on', channel=2, note=63, velocity=96, time=0),\n",
      "    Message('note_on', channel=2, note=68, velocity=96, time=0),\n",
      "    Message('note_off', channel=2, note=68, velocity=64, time=240),\n",
      "    Message('note_off', channel=2, note=63, velocity=64, time=0),\n",
      "    Message('note_off', channel=2, note=59, velocity=64, time=0),\n",
      "    Message('note_on', channel=2, note=59, velocity=96, time=0),\n",
      "    Message('note_on', channel=2, note=63, velocity=96, time=0),\n",
      "    Message('note_on', channel=2, note=68, velocity=96, time=0),\n",
      "    Message('note_off', channel=2, note=68, velocity=64, time=360),\n",
      "    Message('note_off', channel=2, note=63, velocity=64, time=0),\n",
      "    Message('note_off', channel=2, note=59, velocity=64, time=0),\n",
      "    Message('note_on', channel=2, note=40, velocity=96, time=0),\n",
      "    Message('note_off', channel=2, note=40, velocity=64, time=360),\n",
      "    Message('note_on', channel=2, note=59, velocity=96, time=0),\n",
      "    Message('note_on', channel=2, note=63, velocity=96, time=0),\n",
      "    Message('note_on', channel=2, note=68, velocity=96, time=0),\n",
      "    Message('note_off', channel=2, note=68, velocity=64, time=240),\n",
      "    Message('note_off', channel=2, note=63, velocity=64, time=0),\n",
      "    Message('note_off', channel=2, note=59, velocity=64, time=0),\n",
      "    Message('note_on', channel=2, note=59, velocity=96, time=0),\n",
      "    Message('note_on', channel=2, note=63, velocity=96, time=0),\n",
      "    Message('note_on', channel=2, note=68, velocity=96, time=0),\n",
      "    Message('note_off', channel=2, note=68, velocity=64, time=360),\n",
      "    Message('note_off', channel=2, note=63, velocity=64, time=0),\n",
      "    Message('note_off', channel=2, note=59, velocity=64, time=0),\n",
      "    Message('note_on', channel=2, note=42, velocity=96, time=0),\n",
      "    Message('note_off', channel=2, note=42, velocity=64, time=360),\n",
      "    Message('note_on', channel=2, note=61, velocity=96, time=0),\n",
      "    Message('note_on', channel=2, note=66, velocity=96, time=0),\n",
      "    Message('note_on', channel=2, note=70, velocity=96, time=0),\n",
      "    Message('note_off', channel=2, note=70, velocity=64, time=240),\n",
      "    Message('note_off', channel=2, note=66, velocity=64, time=0),\n",
      "    Message('note_off', channel=2, note=61, velocity=64, time=0),\n",
      "    Message('note_on', channel=2, note=61, velocity=96, time=0),\n",
      "    Message('note_on', channel=2, note=66, velocity=96, time=0),\n",
      "    Message('note_on', channel=2, note=70, velocity=96, time=0),\n",
      "    Message('note_off', channel=2, note=70, velocity=64, time=360),\n",
      "    Message('note_off', channel=2, note=66, velocity=64, time=0),\n",
      "    Message('note_off', channel=2, note=61, velocity=64, time=0),\n",
      "    Message('note_on', channel=2, note=47, velocity=96, time=0),\n",
      "    Message('note_off', channel=2, note=47, velocity=64, time=360),\n",
      "    Message('note_on', channel=2, note=61, velocity=96, time=0),\n",
      "    Message('note_on', channel=2, note=66, velocity=96, time=0),\n",
      "    Message('note_on', channel=2, note=70, velocity=96, time=0),\n",
      "    Message('note_off', channel=2, note=70, velocity=64, time=240),\n",
      "    Message('note_off', channel=2, note=66, velocity=64, time=0),\n",
      "    Message('note_off', channel=2, note=61, velocity=64, time=0),\n",
      "    Message('note_on', channel=2, note=61, velocity=96, time=0),\n",
      "    Message('note_on', channel=2, note=66, velocity=96, time=0),\n",
      "    Message('note_on', channel=2, note=71, velocity=96, time=0),\n",
      "    Message('note_off', channel=2, note=71, velocity=64, time=360),\n",
      "    Message('note_off', channel=2, note=66, velocity=64, time=0),\n",
      "    Message('note_off', channel=2, note=61, velocity=64, time=0),\n",
      "    Message('note_on', channel=2, note=44, velocity=96, time=0),\n",
      "    Message('note_off', channel=2, note=44, velocity=64, time=360),\n",
      "    Message('note_on', channel=2, note=59, velocity=96, time=0),\n",
      "    Message('note_on', channel=2, note=63, velocity=96, time=0),\n",
      "    Message('note_on', channel=2, note=68, velocity=96, time=0),\n",
      "    Message('note_off', channel=2, note=68, velocity=64, time=240),\n",
      "    Message('note_off', channel=2, note=63, velocity=64, time=0),\n",
      "    Message('note_off', channel=2, note=59, velocity=64, time=0),\n",
      "    Message('note_on', channel=2, note=59, velocity=96, time=0),\n",
      "    Message('note_on', channel=2, note=63, velocity=96, time=0),\n",
      "    Message('note_on', channel=2, note=68, velocity=96, time=0),\n",
      "    Message('note_off', channel=2, note=68, velocity=64, time=360),\n",
      "    Message('note_off', channel=2, note=63, velocity=64, time=0),\n",
      "    Message('note_off', channel=2, note=59, velocity=64, time=0),\n",
      "    Message('note_on', channel=2, note=40, velocity=96, time=0),\n",
      "    Message('note_off', channel=2, note=40, velocity=64, time=360),\n",
      "    Message('note_on', channel=2, note=59, velocity=96, time=0),\n",
      "    Message('note_on', channel=2, note=63, velocity=96, time=0),\n",
      "    Message('note_on', channel=2, note=68, velocity=96, time=0),\n",
      "    Message('note_off', channel=2, note=68, velocity=64, time=240),\n",
      "    Message('note_off', channel=2, note=63, velocity=64, time=0),\n",
      "    Message('note_off', channel=2, note=59, velocity=64, time=0),\n",
      "    Message('note_on', channel=2, note=59, velocity=96, time=0),\n",
      "    Message('note_on', channel=2, note=63, velocity=96, time=0),\n",
      "    Message('note_on', channel=2, note=68, velocity=96, time=0),\n",
      "    Message('note_off', channel=2, note=68, velocity=64, time=360),\n",
      "    Message('note_off', channel=2, note=63, velocity=64, time=0),\n",
      "    Message('note_off', channel=2, note=59, velocity=64, time=0),\n",
      "    Message('note_on', channel=2, note=41, velocity=96, time=0),\n",
      "    Message('note_off', channel=2, note=41, velocity=64, time=360),\n",
      "    Message('note_on', channel=2, note=59, velocity=96, time=0),\n",
      "    Message('note_on', channel=2, note=63, velocity=96, time=0),\n",
      "    Message('note_on', channel=2, note=68, velocity=96, time=0),\n",
      "    Message('note_off', channel=2, note=68, velocity=64, time=240),\n",
      "    Message('note_off', channel=2, note=63, velocity=64, time=0),\n",
      "    Message('note_off', channel=2, note=59, velocity=64, time=0),\n",
      "    Message('note_on', channel=2, note=59, velocity=96, time=0),\n",
      "    Message('note_on', channel=2, note=63, velocity=96, time=0),\n",
      "    Message('note_on', channel=2, note=68, velocity=96, time=0),\n",
      "    Message('note_off', channel=2, note=68, velocity=64, time=360),\n",
      "    Message('note_off', channel=2, note=63, velocity=64, time=0),\n",
      "    Message('note_off', channel=2, note=59, velocity=64, time=0),\n",
      "    Message('note_on', channel=2, note=40, velocity=96, time=0),\n",
      "    Message('note_off', channel=2, note=40, velocity=64, time=360),\n",
      "    Message('note_on', channel=2, note=59, velocity=96, time=0),\n",
      "    Message('note_on', channel=2, note=63, velocity=96, time=0),\n",
      "    Message('note_on', channel=2, note=68, velocity=96, time=0),\n",
      "    Message('note_off', channel=2, note=68, velocity=64, time=240),\n",
      "    Message('note_off', channel=2, note=63, velocity=64, time=0),\n",
      "    Message('note_off', channel=2, note=59, velocity=64, time=0),\n",
      "    Message('note_on', channel=2, note=59, velocity=96, time=0),\n",
      "    Message('note_on', channel=2, note=63, velocity=96, time=0),\n",
      "    Message('note_on', channel=2, note=68, velocity=96, time=0),\n",
      "    Message('note_off', channel=2, note=68, velocity=64, time=360),\n",
      "    Message('note_off', channel=2, note=63, velocity=64, time=0),\n",
      "    Message('note_off', channel=2, note=59, velocity=64, time=0),\n",
      "    Message('note_on', channel=2, note=44, velocity=96, time=0),\n",
      "    Message('note_off', channel=2, note=44, velocity=64, time=360),\n",
      "    Message('note_on', channel=2, note=59, velocity=96, time=0),\n",
      "    Message('note_on', channel=2, note=63, velocity=96, time=0),\n",
      "    Message('note_on', channel=2, note=68, velocity=96, time=0),\n",
      "    Message('note_off', channel=2, note=68, velocity=64, time=240),\n",
      "    Message('note_off', channel=2, note=63, velocity=64, time=0),\n",
      "    Message('note_off', channel=2, note=59, velocity=64, time=0),\n",
      "    Message('note_on', channel=2, note=59, velocity=96, time=0),\n",
      "    Message('note_on', channel=2, note=63, velocity=96, time=0),\n",
      "    Message('note_on', channel=2, note=68, velocity=96, time=0),\n",
      "    Message('note_off', channel=2, note=68, velocity=64, time=360),\n",
      "    Message('note_off', channel=2, note=63, velocity=64, time=0),\n",
      "    Message('note_off', channel=2, note=59, velocity=64, time=0),\n",
      "    Message('note_on', channel=2, note=40, velocity=96, time=0),\n",
      "    Message('note_off', channel=2, note=40, velocity=64, time=360),\n",
      "    Message('note_on', channel=2, note=59, velocity=96, time=0),\n",
      "    Message('note_on', channel=2, note=63, velocity=96, time=0),\n",
      "    Message('note_on', channel=2, note=68, velocity=96, time=0),\n",
      "    Message('note_off', channel=2, note=68, velocity=64, time=240),\n",
      "    Message('note_off', channel=2, note=63, velocity=64, time=0),\n",
      "    Message('note_off', channel=2, note=59, velocity=64, time=0),\n",
      "    Message('note_on', channel=2, note=59, velocity=96, time=0),\n",
      "    Message('note_on', channel=2, note=63, velocity=96, time=0),\n",
      "    Message('note_on', channel=2, note=68, velocity=96, time=0),\n",
      "    Message('note_off', channel=2, note=68, velocity=64, time=360),\n",
      "    Message('note_off', channel=2, note=63, velocity=64, time=0),\n",
      "    Message('note_off', channel=2, note=59, velocity=64, time=0),\n",
      "    Message('note_on', channel=2, note=42, velocity=96, time=0),\n",
      "    Message('note_off', channel=2, note=42, velocity=64, time=360),\n",
      "    Message('note_on', channel=2, note=61, velocity=96, time=0),\n",
      "    Message('note_on', channel=2, note=66, velocity=96, time=0),\n",
      "    Message('note_on', channel=2, note=70, velocity=96, time=0),\n",
      "    Message('note_off', channel=2, note=70, velocity=64, time=240),\n",
      "    Message('note_off', channel=2, note=66, velocity=64, time=0),\n",
      "    Message('note_off', channel=2, note=61, velocity=64, time=0),\n",
      "    Message('note_on', channel=2, note=61, velocity=96, time=0),\n",
      "    Message('note_on', channel=2, note=66, velocity=96, time=0),\n",
      "    Message('note_on', channel=2, note=70, velocity=96, time=0),\n",
      "    Message('note_off', channel=2, note=70, velocity=64, time=360),\n",
      "    Message('note_off', channel=2, note=66, velocity=64, time=0),\n",
      "    Message('note_off', channel=2, note=61, velocity=64, time=0),\n",
      "    Message('note_on', channel=2, note=47, velocity=96, time=0),\n",
      "    Message('note_off', channel=2, note=47, velocity=64, time=360),\n",
      "    Message('note_on', channel=2, note=61, velocity=96, time=0),\n",
      "    Message('note_on', channel=2, note=66, velocity=96, time=0),\n",
      "    Message('note_on', channel=2, note=70, velocity=96, time=0),\n",
      "    Message('note_off', channel=2, note=70, velocity=64, time=240),\n",
      "    Message('note_off', channel=2, note=66, velocity=64, time=0),\n",
      "    Message('note_off', channel=2, note=61, velocity=64, time=0),\n",
      "    Message('note_on', channel=2, note=61, velocity=96, time=0),\n",
      "    Message('note_on', channel=2, note=66, velocity=96, time=0),\n",
      "    Message('note_on', channel=2, note=71, velocity=96, time=0),\n",
      "    Message('note_off', channel=2, note=71, velocity=64, time=360),\n",
      "    Message('note_off', channel=2, note=66, velocity=64, time=0),\n",
      "    Message('note_off', channel=2, note=61, velocity=64, time=0),\n",
      "    Message('note_on', channel=2, note=44, velocity=96, time=0),\n",
      "    Message('note_off', channel=2, note=44, velocity=64, time=360),\n",
      "    Message('note_on', channel=2, note=59, velocity=96, time=0),\n",
      "    Message('note_on', channel=2, note=63, velocity=96, time=0),\n",
      "    Message('note_on', channel=2, note=68, velocity=96, time=0),\n",
      "    Message('note_off', channel=2, note=68, velocity=64, time=240),\n",
      "    Message('note_off', channel=2, note=63, velocity=64, time=0),\n",
      "    Message('note_off', channel=2, note=59, velocity=64, time=0),\n",
      "    Message('note_on', channel=2, note=59, velocity=96, time=0),\n",
      "    Message('note_on', channel=2, note=63, velocity=96, time=0),\n",
      "    Message('note_on', channel=2, note=68, velocity=96, time=0),\n",
      "    Message('note_off', channel=2, note=68, velocity=64, time=360),\n",
      "    Message('note_off', channel=2, note=63, velocity=64, time=0),\n",
      "    Message('note_off', channel=2, note=59, velocity=64, time=0),\n",
      "    Message('note_on', channel=2, note=40, velocity=96, time=0),\n",
      "    Message('note_off', channel=2, note=40, velocity=64, time=360),\n",
      "    Message('note_on', channel=2, note=59, velocity=96, time=0),\n",
      "    Message('note_on', channel=2, note=63, velocity=96, time=0),\n",
      "    Message('note_on', channel=2, note=68, velocity=96, time=0),\n",
      "    Message('note_off', channel=2, note=68, velocity=64, time=240),\n",
      "    Message('note_off', channel=2, note=63, velocity=64, time=0),\n",
      "    Message('note_off', channel=2, note=59, velocity=64, time=0),\n",
      "    Message('note_on', channel=2, note=59, velocity=96, time=0),\n",
      "    Message('note_on', channel=2, note=63, velocity=96, time=0),\n",
      "    Message('note_on', channel=2, note=68, velocity=96, time=0),\n",
      "    Message('note_off', channel=2, note=68, velocity=64, time=360),\n",
      "    Message('note_off', channel=2, note=63, velocity=64, time=0),\n",
      "    Message('note_off', channel=2, note=59, velocity=64, time=0),\n",
      "    Message('note_on', channel=2, note=42, velocity=96, time=0),\n",
      "    Message('note_off', channel=2, note=42, velocity=64, time=360),\n",
      "    Message('note_on', channel=2, note=61, velocity=96, time=0),\n",
      "    Message('note_on', channel=2, note=66, velocity=96, time=0),\n",
      "    Message('note_on', channel=2, note=70, velocity=96, time=0),\n",
      "    Message('note_off', channel=2, note=70, velocity=64, time=240),\n",
      "    Message('note_off', channel=2, note=66, velocity=64, time=0),\n",
      "    Message('note_off', channel=2, note=61, velocity=64, time=0),\n",
      "    Message('note_on', channel=2, note=61, velocity=96, time=0),\n",
      "    Message('note_on', channel=2, note=66, velocity=96, time=0),\n",
      "    Message('note_on', channel=2, note=70, velocity=96, time=0),\n",
      "    Message('note_off', channel=2, note=70, velocity=64, time=360),\n",
      "    Message('note_off', channel=2, note=66, velocity=64, time=0),\n",
      "    Message('note_off', channel=2, note=61, velocity=64, time=0),\n",
      "    Message('note_on', channel=2, note=47, velocity=96, time=0),\n",
      "    Message('note_off', channel=2, note=47, velocity=64, time=360),\n",
      "    Message('note_on', channel=2, note=61, velocity=96, time=0),\n",
      "    Message('note_on', channel=2, note=66, velocity=96, time=0),\n",
      "    Message('note_on', channel=2, note=70, velocity=96, time=0),\n",
      "    Message('note_off', channel=2, note=70, velocity=64, time=240),\n",
      "    Message('note_off', channel=2, note=66, velocity=64, time=0),\n",
      "    Message('note_off', channel=2, note=61, velocity=64, time=0),\n",
      "    Message('note_on', channel=2, note=61, velocity=96, time=0),\n",
      "    Message('note_on', channel=2, note=66, velocity=96, time=0),\n",
      "    Message('note_on', channel=2, note=71, velocity=96, time=0),\n",
      "    Message('note_off', channel=2, note=71, velocity=64, time=360),\n",
      "    Message('note_off', channel=2, note=66, velocity=64, time=0),\n",
      "    Message('note_off', channel=2, note=61, velocity=64, time=0),\n",
      "    Message('note_on', channel=2, note=44, velocity=96, time=0),\n",
      "    Message('note_off', channel=2, note=44, velocity=64, time=360),\n",
      "    Message('note_on', channel=2, note=59, velocity=96, time=0),\n",
      "    Message('note_on', channel=2, note=63, velocity=96, time=0),\n",
      "    Message('note_on', channel=2, note=68, velocity=96, time=0),\n",
      "    Message('note_off', channel=2, note=68, velocity=64, time=240),\n",
      "    Message('note_off', channel=2, note=63, velocity=64, time=0),\n",
      "    Message('note_off', channel=2, note=59, velocity=64, time=0),\n",
      "    Message('note_on', channel=2, note=59, velocity=96, time=0),\n",
      "    Message('note_on', channel=2, note=63, velocity=96, time=0),\n",
      "    Message('note_on', channel=2, note=68, velocity=96, time=0),\n",
      "    Message('note_off', channel=2, note=68, velocity=64, time=360),\n",
      "    Message('note_off', channel=2, note=63, velocity=64, time=0),\n",
      "    Message('note_off', channel=2, note=59, velocity=64, time=0),\n",
      "    Message('note_on', channel=2, note=40, velocity=96, time=0),\n",
      "    Message('note_off', channel=2, note=40, velocity=64, time=360),\n",
      "    Message('note_on', channel=2, note=59, velocity=96, time=0),\n",
      "    Message('note_on', channel=2, note=63, velocity=96, time=0),\n",
      "    Message('note_on', channel=2, note=68, velocity=96, time=0),\n",
      "    Message('note_off', channel=2, note=68, velocity=64, time=240),\n",
      "    Message('note_off', channel=2, note=63, velocity=64, time=0),\n",
      "    Message('note_off', channel=2, note=59, velocity=64, time=0),\n",
      "    Message('note_on', channel=2, note=59, velocity=96, time=0),\n",
      "    Message('note_on', channel=2, note=63, velocity=96, time=0),\n",
      "    Message('note_on', channel=2, note=68, velocity=96, time=0),\n",
      "    Message('note_off', channel=2, note=68, velocity=64, time=360),\n",
      "    Message('note_off', channel=2, note=63, velocity=64, time=0),\n",
      "    Message('note_off', channel=2, note=59, velocity=64, time=0),\n",
      "    Message('note_on', channel=2, note=42, velocity=96, time=0),\n",
      "    Message('note_off', channel=2, note=42, velocity=64, time=360),\n",
      "    Message('note_on', channel=2, note=61, velocity=96, time=0),\n",
      "    Message('note_on', channel=2, note=66, velocity=96, time=0),\n",
      "    Message('note_on', channel=2, note=70, velocity=96, time=0),\n",
      "    Message('note_off', channel=2, note=70, velocity=64, time=240),\n",
      "    Message('note_off', channel=2, note=66, velocity=64, time=0),\n",
      "    Message('note_off', channel=2, note=61, velocity=64, time=0),\n",
      "    Message('note_on', channel=2, note=61, velocity=96, time=0),\n",
      "    Message('note_on', channel=2, note=66, velocity=96, time=0),\n",
      "    Message('note_on', channel=2, note=70, velocity=96, time=0),\n",
      "    Message('note_off', channel=2, note=70, velocity=64, time=360),\n",
      "    Message('note_off', channel=2, note=66, velocity=64, time=0),\n",
      "    Message('note_off', channel=2, note=61, velocity=64, time=0),\n",
      "    Message('note_on', channel=2, note=47, velocity=96, time=0),\n",
      "    Message('note_off', channel=2, note=47, velocity=64, time=360),\n",
      "    Message('note_on', channel=2, note=61, velocity=96, time=0),\n",
      "    Message('note_on', channel=2, note=66, velocity=96, time=0),\n",
      "    Message('note_on', channel=2, note=70, velocity=96, time=0),\n",
      "    Message('note_off', channel=2, note=70, velocity=64, time=240),\n",
      "    Message('note_off', channel=2, note=66, velocity=64, time=0),\n",
      "    Message('note_off', channel=2, note=61, velocity=64, time=0),\n",
      "    Message('note_on', channel=2, note=61, velocity=96, time=0),\n",
      "    Message('note_on', channel=2, note=66, velocity=96, time=0),\n",
      "    Message('note_on', channel=2, note=71, velocity=96, time=0),\n",
      "    Message('note_off', channel=2, note=71, velocity=64, time=360),\n",
      "    Message('note_off', channel=2, note=66, velocity=64, time=0),\n",
      "    Message('note_off', channel=2, note=61, velocity=64, time=0),\n",
      "    Message('note_on', channel=2, note=44, velocity=96, time=0),\n",
      "    Message('note_off', channel=2, note=44, velocity=64, time=360),\n",
      "    Message('note_on', channel=2, note=59, velocity=96, time=0),\n",
      "    Message('note_on', channel=2, note=63, velocity=96, time=0),\n",
      "    Message('note_on', channel=2, note=68, velocity=96, time=0),\n",
      "    Message('note_off', channel=2, note=68, velocity=64, time=240),\n",
      "    Message('note_off', channel=2, note=63, velocity=64, time=0),\n",
      "    Message('note_off', channel=2, note=59, velocity=64, time=0),\n",
      "    Message('note_on', channel=2, note=59, velocity=96, time=0),\n",
      "    Message('note_on', channel=2, note=63, velocity=96, time=0),\n",
      "    Message('note_on', channel=2, note=68, velocity=96, time=0),\n",
      "    Message('note_off', channel=2, note=68, velocity=64, time=360),\n",
      "    Message('note_off', channel=2, note=63, velocity=64, time=0),\n",
      "    Message('note_off', channel=2, note=59, velocity=64, time=0),\n",
      "    Message('note_on', channel=2, note=40, velocity=96, time=0),\n",
      "    Message('note_off', channel=2, note=40, velocity=64, time=360),\n",
      "    Message('note_on', channel=2, note=59, velocity=96, time=0),\n",
      "    Message('note_on', channel=2, note=63, velocity=96, time=0),\n",
      "    Message('note_on', channel=2, note=68, velocity=96, time=0),\n",
      "    Message('note_off', channel=2, note=68, velocity=64, time=240),\n",
      "    Message('note_off', channel=2, note=63, velocity=64, time=0),\n",
      "    Message('note_off', channel=2, note=59, velocity=64, time=0),\n",
      "    Message('note_on', channel=2, note=59, velocity=96, time=0),\n",
      "    Message('note_on', channel=2, note=63, velocity=96, time=0),\n",
      "    Message('note_on', channel=2, note=68, velocity=96, time=0),\n",
      "    Message('note_off', channel=2, note=68, velocity=64, time=360),\n",
      "    Message('note_off', channel=2, note=63, velocity=64, time=0),\n",
      "    Message('note_off', channel=2, note=59, velocity=64, time=0),\n",
      "    Message('note_on', channel=2, note=44, velocity=96, time=1920),\n",
      "    Message('note_on', channel=2, note=51, velocity=96, time=0),\n",
      "    Message('note_on', channel=2, note=56, velocity=96, time=0),\n",
      "    Message('note_on', channel=2, note=59, velocity=96, time=0),\n",
      "    Message('note_on', channel=2, note=63, velocity=96, time=0),\n",
      "    Message('note_off', channel=2, note=63, velocity=64, time=360),\n",
      "    Message('note_off', channel=2, note=59, velocity=64, time=0),\n",
      "    Message('note_off', channel=2, note=56, velocity=64, time=0),\n",
      "    Message('note_off', channel=2, note=51, velocity=64, time=0),\n",
      "    Message('note_off', channel=2, note=44, velocity=64, time=0),\n",
      "    Message('note_on', channel=2, note=56, velocity=96, time=0),\n",
      "    Message('note_on', channel=2, note=59, velocity=96, time=0),\n",
      "    Message('note_off', channel=2, note=59, velocity=64, time=120),\n",
      "    Message('note_off', channel=2, note=56, velocity=64, time=0),\n",
      "    Message('note_on', channel=2, note=51, velocity=96, time=0),\n",
      "    Message('note_on', channel=2, note=59, velocity=96, time=0),\n",
      "    Message('note_on', channel=2, note=63, velocity=96, time=0),\n",
      "    Message('note_off', channel=2, note=63, velocity=64, time=480),\n",
      "    Message('note_off', channel=2, note=59, velocity=64, time=0),\n",
      "    Message('note_off', channel=2, note=51, velocity=64, time=0),\n",
      "    Message('note_on', channel=2, note=40, velocity=96, time=0),\n",
      "    Message('note_on', channel=2, note=47, velocity=96, time=0),\n",
      "    Message('note_on', channel=2, note=52, velocity=96, time=0),\n",
      "    Message('note_on', channel=2, note=56, velocity=96, time=0),\n",
      "    Message('note_off', channel=2, note=56, velocity=64, time=360),\n",
      "    Message('note_off', channel=2, note=52, velocity=64, time=0),\n",
      "    Message('note_off', channel=2, note=47, velocity=64, time=0),\n",
      "    Message('note_off', channel=2, note=40, velocity=64, time=0),\n",
      "    Message('note_on', channel=2, note=52, velocity=96, time=0),\n",
      "    Message('note_on', channel=2, note=56, velocity=96, time=0),\n",
      "    Message('note_off', channel=2, note=56, velocity=64, time=120),\n",
      "    Message('note_off', channel=2, note=52, velocity=64, time=0),\n",
      "    Message('note_on', channel=2, note=40, velocity=96, time=0),\n",
      "    Message('note_on', channel=2, note=52, velocity=96, time=0),\n",
      "    Message('note_on', channel=2, note=56, velocity=96, time=0),\n",
      "    Message('note_on', channel=2, note=59, velocity=96, time=0),\n",
      "    Message('note_off', channel=2, note=59, velocity=64, time=480),\n",
      "    Message('note_off', channel=2, note=56, velocity=64, time=0),\n",
      "    Message('note_off', channel=2, note=52, velocity=64, time=0),\n",
      "    Message('note_off', channel=2, note=40, velocity=64, time=0),\n",
      "    Message('note_on', channel=2, note=42, velocity=96, time=0),\n",
      "    Message('note_on', channel=2, note=49, velocity=96, time=0),\n",
      "    Message('note_on', channel=2, note=54, velocity=96, time=0),\n",
      "    Message('note_on', channel=2, note=58, velocity=96, time=0),\n",
      "    Message('note_off', channel=2, note=58, velocity=64, time=360),\n",
      "    Message('note_off', channel=2, note=54, velocity=64, time=0),\n",
      "    Message('note_off', channel=2, note=49, velocity=64, time=0),\n",
      "    Message('note_off', channel=2, note=42, velocity=64, time=0),\n",
      "    Message('note_on', channel=2, note=54, velocity=96, time=0),\n",
      "    Message('note_on', channel=2, note=58, velocity=96, time=0),\n",
      "    Message('note_off', channel=2, note=58, velocity=64, time=120),\n",
      "    Message('note_off', channel=2, note=54, velocity=64, time=0),\n",
      "    Message('note_on', channel=2, note=42, velocity=96, time=0),\n",
      "    Message('note_on', channel=2, note=49, velocity=96, time=0),\n",
      "    Message('note_on', channel=2, note=58, velocity=96, time=0),\n",
      "    Message('note_on', channel=2, note=61, velocity=96, time=0),\n",
      "    Message('note_off', channel=2, note=61, velocity=64, time=480),\n",
      "    Message('note_off', channel=2, note=58, velocity=64, time=0),\n",
      "    Message('note_off', channel=2, note=49, velocity=64, time=0),\n",
      "    Message('note_off', channel=2, note=42, velocity=64, time=0),\n",
      "    Message('note_on', channel=2, note=47, velocity=96, time=0),\n",
      "    Message('note_on', channel=2, note=54, velocity=96, time=0),\n",
      "    Message('note_on', channel=2, note=59, velocity=96, time=0),\n",
      "    Message('note_on', channel=2, note=66, velocity=96, time=0),\n",
      "    Message('note_off', channel=2, note=66, velocity=64, time=240),\n",
      "    Message('note_off', channel=2, note=59, velocity=64, time=0),\n",
      "    Message('note_off', channel=2, note=54, velocity=64, time=0),\n",
      "    Message('note_off', channel=2, note=47, velocity=64, time=0),\n",
      "    Message('note_on', channel=2, note=54, velocity=96, time=0),\n",
      "    Message('note_on', channel=2, note=59, velocity=96, time=0),\n",
      "    Message('note_on', channel=2, note=63, velocity=96, time=0),\n",
      "    Message('note_off', channel=2, note=63, velocity=64, time=240),\n",
      "    Message('note_off', channel=2, note=59, velocity=64, time=0),\n",
      "    Message('note_off', channel=2, note=54, velocity=64, time=0),\n",
      "    Message('note_on', channel=2, note=46, velocity=96, time=0),\n",
      "    Message('note_on', channel=2, note=54, velocity=96, time=0),\n",
      "    Message('note_off', channel=2, note=54, velocity=64, time=240),\n",
      "    Message('note_off', channel=2, note=46, velocity=64, time=0),\n",
      "    Message('note_on', channel=2, note=54, velocity=96, time=0),\n",
      "    Message('note_on', channel=2, note=59, velocity=96, time=0),\n",
      "    Message('note_on', channel=2, note=63, velocity=96, time=0),\n",
      "    Message('note_off', channel=2, note=63, velocity=64, time=240),\n",
      "    Message('note_off', channel=2, note=59, velocity=64, time=0),\n",
      "    Message('note_off', channel=2, note=54, velocity=64, time=0),\n",
      "    Message('note_on', channel=2, note=44, velocity=96, time=0),\n",
      "    Message('note_on', channel=2, note=51, velocity=96, time=0),\n",
      "    Message('note_on', channel=2, note=56, velocity=96, time=0),\n",
      "    Message('note_on', channel=2, note=59, velocity=96, time=0),\n",
      "    Message('note_on', channel=2, note=63, velocity=96, time=0),\n",
      "    Message('note_off', channel=2, note=63, velocity=64, time=360),\n",
      "    Message('note_off', channel=2, note=59, velocity=64, time=0),\n",
      "    Message('note_off', channel=2, note=56, velocity=64, time=0),\n",
      "    Message('note_off', channel=2, note=51, velocity=64, time=0),\n",
      "    Message('note_off', channel=2, note=44, velocity=64, time=0),\n",
      "    Message('note_on', channel=2, note=56, velocity=96, time=0),\n",
      "    Message('note_on', channel=2, note=59, velocity=96, time=0),\n",
      "    Message('note_off', channel=2, note=59, velocity=64, time=120),\n",
      "    Message('note_off', channel=2, note=56, velocity=64, time=0),\n",
      "    Message('note_on', channel=2, note=51, velocity=96, time=0),\n",
      "    Message('note_on', channel=2, note=59, velocity=96, time=0),\n",
      "    Message('note_on', channel=2, note=63, velocity=96, time=0),\n",
      "    Message('note_off', channel=2, note=63, velocity=64, time=480),\n",
      "    Message('note_off', channel=2, note=59, velocity=64, time=0),\n",
      "    Message('note_off', channel=2, note=51, velocity=64, time=0),\n",
      "    Message('note_on', channel=2, note=40, velocity=96, time=0),\n",
      "    Message('note_on', channel=2, note=47, velocity=96, time=0),\n",
      "    Message('note_on', channel=2, note=52, velocity=96, time=0),\n",
      "    Message('note_on', channel=2, note=56, velocity=96, time=0),\n",
      "    Message('note_off', channel=2, note=56, velocity=64, time=360),\n",
      "    Message('note_off', channel=2, note=52, velocity=64, time=0),\n",
      "    Message('note_off', channel=2, note=47, velocity=64, time=0),\n",
      "    Message('note_off', channel=2, note=40, velocity=64, time=0),\n",
      "    Message('note_on', channel=2, note=52, velocity=96, time=0),\n",
      "    Message('note_on', channel=2, note=56, velocity=96, time=0),\n",
      "    Message('note_off', channel=2, note=56, velocity=64, time=120),\n",
      "    Message('note_off', channel=2, note=52, velocity=64, time=0),\n",
      "    Message('note_on', channel=2, note=40, velocity=96, time=0),\n",
      "    Message('note_on', channel=2, note=52, velocity=96, time=0),\n",
      "    Message('note_on', channel=2, note=56, velocity=96, time=0),\n",
      "    Message('note_on', channel=2, note=59, velocity=96, time=0),\n",
      "    Message('note_off', channel=2, note=59, velocity=64, time=480),\n",
      "    Message('note_off', channel=2, note=56, velocity=64, time=0),\n",
      "    Message('note_off', channel=2, note=52, velocity=64, time=0),\n",
      "    Message('note_off', channel=2, note=40, velocity=64, time=0),\n",
      "    Message('note_on', channel=2, note=42, velocity=96, time=0),\n",
      "    Message('note_on', channel=2, note=49, velocity=96, time=0),\n",
      "    Message('note_on', channel=2, note=54, velocity=96, time=0),\n",
      "    Message('note_on', channel=2, note=58, velocity=96, time=0),\n",
      "    Message('note_off', channel=2, note=58, velocity=64, time=360),\n",
      "    Message('note_off', channel=2, note=54, velocity=64, time=0),\n",
      "    Message('note_off', channel=2, note=49, velocity=64, time=0),\n",
      "    Message('note_off', channel=2, note=42, velocity=64, time=0),\n",
      "    Message('note_on', channel=2, note=54, velocity=96, time=0),\n",
      "    Message('note_on', channel=2, note=58, velocity=96, time=0),\n",
      "    Message('note_off', channel=2, note=58, velocity=64, time=120),\n",
      "    Message('note_off', channel=2, note=54, velocity=64, time=0),\n",
      "    Message('note_on', channel=2, note=42, velocity=96, time=0),\n",
      "    Message('note_on', channel=2, note=49, velocity=96, time=0),\n",
      "    Message('note_on', channel=2, note=58, velocity=96, time=0),\n",
      "    Message('note_on', channel=2, note=61, velocity=96, time=0),\n",
      "    Message('note_off', channel=2, note=61, velocity=64, time=480),\n",
      "    Message('note_off', channel=2, note=58, velocity=64, time=0),\n",
      "    Message('note_off', channel=2, note=49, velocity=64, time=0),\n",
      "    Message('note_off', channel=2, note=42, velocity=64, time=0),\n",
      "    Message('note_on', channel=2, note=47, velocity=96, time=0),\n",
      "    Message('note_on', channel=2, note=54, velocity=96, time=0),\n",
      "    Message('note_on', channel=2, note=59, velocity=96, time=0),\n",
      "    Message('note_on', channel=2, note=66, velocity=96, time=0),\n",
      "    Message('note_off', channel=2, note=66, velocity=64, time=240),\n",
      "    Message('note_off', channel=2, note=59, velocity=64, time=0),\n",
      "    Message('note_off', channel=2, note=54, velocity=64, time=0),\n",
      "    Message('note_off', channel=2, note=47, velocity=64, time=0),\n",
      "    Message('note_on', channel=2, note=54, velocity=96, time=0),\n",
      "    Message('note_on', channel=2, note=59, velocity=96, time=0),\n",
      "    Message('note_on', channel=2, note=63, velocity=96, time=0),\n",
      "    Message('note_off', channel=2, note=63, velocity=64, time=240),\n",
      "    Message('note_off', channel=2, note=59, velocity=64, time=0),\n",
      "    Message('note_off', channel=2, note=54, velocity=64, time=0),\n",
      "    Message('note_on', channel=2, note=46, velocity=96, time=0),\n",
      "    Message('note_on', channel=2, note=54, velocity=96, time=0),\n",
      "    Message('note_off', channel=2, note=54, velocity=64, time=240),\n",
      "    Message('note_off', channel=2, note=46, velocity=64, time=0),\n",
      "    Message('note_on', channel=2, note=54, velocity=96, time=0),\n",
      "    Message('note_on', channel=2, note=59, velocity=96, time=0),\n",
      "    Message('note_on', channel=2, note=63, velocity=96, time=0),\n",
      "    Message('note_off', channel=2, note=63, velocity=64, time=240),\n",
      "    Message('note_off', channel=2, note=59, velocity=64, time=0),\n",
      "    Message('note_off', channel=2, note=54, velocity=64, time=0),\n",
      "    Message('note_on', channel=2, note=44, velocity=96, time=0),\n",
      "    Message('note_on', channel=2, note=51, velocity=96, time=0),\n",
      "    Message('note_on', channel=2, note=56, velocity=96, time=0),\n",
      "    Message('note_on', channel=2, note=59, velocity=96, time=0),\n",
      "    Message('note_on', channel=2, note=63, velocity=96, time=0),\n",
      "    Message('note_off', channel=2, note=63, velocity=64, time=360),\n",
      "    Message('note_off', channel=2, note=59, velocity=64, time=0),\n",
      "    Message('note_off', channel=2, note=56, velocity=64, time=0),\n",
      "    Message('note_off', channel=2, note=51, velocity=64, time=0),\n",
      "    Message('note_off', channel=2, note=44, velocity=64, time=0),\n",
      "    Message('note_on', channel=2, note=56, velocity=96, time=0),\n",
      "    Message('note_on', channel=2, note=59, velocity=96, time=0),\n",
      "    Message('note_off', channel=2, note=59, velocity=64, time=120),\n",
      "    Message('note_off', channel=2, note=56, velocity=64, time=0),\n",
      "    Message('note_on', channel=2, note=51, velocity=96, time=0),\n",
      "    Message('note_on', channel=2, note=59, velocity=96, time=0),\n",
      "    Message('note_on', channel=2, note=63, velocity=96, time=0),\n",
      "    Message('note_off', channel=2, note=63, velocity=64, time=480),\n",
      "    Message('note_off', channel=2, note=59, velocity=64, time=0),\n",
      "    Message('note_off', channel=2, note=51, velocity=64, time=0),\n",
      "    Message('note_on', channel=2, note=40, velocity=96, time=0),\n",
      "    Message('note_on', channel=2, note=47, velocity=96, time=0),\n",
      "    Message('note_on', channel=2, note=52, velocity=96, time=0),\n",
      "    Message('note_on', channel=2, note=56, velocity=96, time=0),\n",
      "    Message('note_off', channel=2, note=56, velocity=64, time=360),\n",
      "    Message('note_off', channel=2, note=52, velocity=64, time=0),\n",
      "    Message('note_off', channel=2, note=47, velocity=64, time=0),\n",
      "    Message('note_off', channel=2, note=40, velocity=64, time=0),\n",
      "    Message('note_on', channel=2, note=52, velocity=96, time=0),\n",
      "    Message('note_on', channel=2, note=56, velocity=96, time=0),\n",
      "    Message('note_off', channel=2, note=56, velocity=64, time=120),\n",
      "    Message('note_off', channel=2, note=52, velocity=64, time=0),\n",
      "    Message('note_on', channel=2, note=40, velocity=96, time=0),\n",
      "    Message('note_on', channel=2, note=52, velocity=96, time=0),\n",
      "    Message('note_on', channel=2, note=56, velocity=96, time=0),\n",
      "    Message('note_on', channel=2, note=59, velocity=96, time=0),\n",
      "    Message('note_off', channel=2, note=59, velocity=64, time=480),\n",
      "    Message('note_off', channel=2, note=56, velocity=64, time=0),\n",
      "    Message('note_off', channel=2, note=52, velocity=64, time=0),\n",
      "    Message('note_off', channel=2, note=40, velocity=64, time=0),\n",
      "    Message('note_on', channel=2, note=42, velocity=96, time=0),\n",
      "    Message('note_on', channel=2, note=49, velocity=96, time=0),\n",
      "    Message('note_on', channel=2, note=54, velocity=96, time=0),\n",
      "    Message('note_on', channel=2, note=58, velocity=96, time=0),\n",
      "    Message('note_off', channel=2, note=58, velocity=64, time=360),\n",
      "    Message('note_off', channel=2, note=54, velocity=64, time=0),\n",
      "    Message('note_off', channel=2, note=49, velocity=64, time=0),\n",
      "    Message('note_off', channel=2, note=42, velocity=64, time=0),\n",
      "    Message('note_on', channel=2, note=54, velocity=96, time=0),\n",
      "    Message('note_on', channel=2, note=58, velocity=96, time=0),\n",
      "    Message('note_off', channel=2, note=58, velocity=64, time=120),\n",
      "    Message('note_off', channel=2, note=54, velocity=64, time=0),\n",
      "    Message('note_on', channel=2, note=42, velocity=96, time=0),\n",
      "    Message('note_on', channel=2, note=49, velocity=96, time=0),\n",
      "    Message('note_on', channel=2, note=58, velocity=96, time=0),\n",
      "    Message('note_on', channel=2, note=61, velocity=96, time=0),\n",
      "    Message('note_off', channel=2, note=61, velocity=64, time=480),\n",
      "    Message('note_off', channel=2, note=58, velocity=64, time=0),\n",
      "    Message('note_off', channel=2, note=49, velocity=64, time=0),\n",
      "    Message('note_off', channel=2, note=42, velocity=64, time=0),\n",
      "    Message('note_on', channel=2, note=47, velocity=96, time=0),\n",
      "    Message('note_on', channel=2, note=54, velocity=96, time=0),\n",
      "    Message('note_on', channel=2, note=59, velocity=96, time=0),\n",
      "    Message('note_on', channel=2, note=66, velocity=96, time=0),\n",
      "    Message('note_off', channel=2, note=66, velocity=64, time=240),\n",
      "    Message('note_off', channel=2, note=59, velocity=64, time=0),\n",
      "    Message('note_off', channel=2, note=54, velocity=64, time=0),\n",
      "    Message('note_off', channel=2, note=47, velocity=64, time=0),\n",
      "    Message('note_on', channel=2, note=54, velocity=96, time=0),\n",
      "    Message('note_on', channel=2, note=59, velocity=96, time=0),\n",
      "    Message('note_on', channel=2, note=63, velocity=96, time=0),\n",
      "    Message('note_off', channel=2, note=63, velocity=64, time=240),\n",
      "    Message('note_off', channel=2, note=59, velocity=64, time=0),\n",
      "    Message('note_off', channel=2, note=54, velocity=64, time=0),\n",
      "    Message('note_on', channel=2, note=46, velocity=96, time=0),\n",
      "    Message('note_on', channel=2, note=54, velocity=96, time=0),\n",
      "    Message('note_off', channel=2, note=54, velocity=64, time=240),\n",
      "    Message('note_off', channel=2, note=46, velocity=64, time=0),\n",
      "    Message('note_on', channel=2, note=54, velocity=96, time=0),\n",
      "    Message('note_on', channel=2, note=59, velocity=96, time=0),\n",
      "    Message('note_on', channel=2, note=63, velocity=96, time=0),\n",
      "    Message('note_off', channel=2, note=63, velocity=64, time=240),\n",
      "    Message('note_off', channel=2, note=59, velocity=64, time=0),\n",
      "    Message('note_off', channel=2, note=54, velocity=64, time=0),\n",
      "    Message('note_on', channel=2, note=44, velocity=96, time=0),\n",
      "    Message('note_on', channel=2, note=51, velocity=96, time=0),\n",
      "    Message('note_on', channel=2, note=56, velocity=96, time=0),\n",
      "    Message('note_on', channel=2, note=59, velocity=96, time=0),\n",
      "    Message('note_on', channel=2, note=63, velocity=96, time=0),\n",
      "    Message('note_off', channel=2, note=63, velocity=64, time=360),\n",
      "    Message('note_off', channel=2, note=59, velocity=64, time=0),\n",
      "    Message('note_off', channel=2, note=56, velocity=64, time=0),\n",
      "    Message('note_off', channel=2, note=51, velocity=64, time=0),\n",
      "    Message('note_off', channel=2, note=44, velocity=64, time=0),\n",
      "    Message('note_on', channel=2, note=56, velocity=96, time=0),\n",
      "    Message('note_on', channel=2, note=59, velocity=96, time=0),\n",
      "    Message('note_off', channel=2, note=59, velocity=64, time=120),\n",
      "    Message('note_off', channel=2, note=56, velocity=64, time=0),\n",
      "    Message('note_on', channel=2, note=51, velocity=96, time=0),\n",
      "    Message('note_on', channel=2, note=59, velocity=96, time=0),\n",
      "    Message('note_on', channel=2, note=63, velocity=96, time=0),\n",
      "    Message('note_off', channel=2, note=63, velocity=64, time=480),\n",
      "    Message('note_off', channel=2, note=59, velocity=64, time=0),\n",
      "    Message('note_off', channel=2, note=51, velocity=64, time=0),\n",
      "    Message('note_on', channel=2, note=40, velocity=96, time=0),\n",
      "    Message('note_on', channel=2, note=47, velocity=96, time=0),\n",
      "    Message('note_on', channel=2, note=52, velocity=96, time=0),\n",
      "    Message('note_on', channel=2, note=56, velocity=96, time=0),\n",
      "    Message('note_off', channel=2, note=56, velocity=64, time=360),\n",
      "    Message('note_off', channel=2, note=52, velocity=64, time=0),\n",
      "    Message('note_off', channel=2, note=47, velocity=64, time=0),\n",
      "    Message('note_off', channel=2, note=40, velocity=64, time=0),\n",
      "    Message('note_on', channel=2, note=52, velocity=96, time=0),\n",
      "    Message('note_on', channel=2, note=56, velocity=96, time=0),\n",
      "    Message('note_off', channel=2, note=56, velocity=64, time=120),\n",
      "    Message('note_off', channel=2, note=52, velocity=64, time=0),\n",
      "    Message('note_on', channel=2, note=40, velocity=96, time=0),\n",
      "    Message('note_on', channel=2, note=52, velocity=96, time=0),\n",
      "    Message('note_on', channel=2, note=56, velocity=96, time=0),\n",
      "    Message('note_on', channel=2, note=59, velocity=96, time=0),\n",
      "    Message('note_off', channel=2, note=59, velocity=64, time=480),\n",
      "    Message('note_off', channel=2, note=56, velocity=64, time=0),\n",
      "    Message('note_off', channel=2, note=52, velocity=64, time=0),\n",
      "    Message('note_off', channel=2, note=40, velocity=64, time=0),\n",
      "    Message('note_on', channel=2, note=44, velocity=96, time=1920),\n",
      "    Message('note_off', channel=2, note=44, velocity=64, time=360),\n",
      "    Message('note_on', channel=2, note=59, velocity=96, time=0),\n",
      "    Message('note_on', channel=2, note=63, velocity=96, time=0),\n",
      "    Message('note_on', channel=2, note=68, velocity=96, time=0),\n",
      "    Message('note_off', channel=2, note=68, velocity=64, time=240),\n",
      "    Message('note_off', channel=2, note=63, velocity=64, time=0),\n",
      "    Message('note_off', channel=2, note=59, velocity=64, time=0),\n",
      "    Message('note_on', channel=2, note=59, velocity=96, time=0),\n",
      "    Message('note_on', channel=2, note=63, velocity=96, time=0),\n",
      "    Message('note_on', channel=2, note=68, velocity=96, time=0),\n",
      "    Message('note_off', channel=2, note=68, velocity=64, time=360),\n",
      "    Message('note_off', channel=2, note=63, velocity=64, time=0),\n",
      "    Message('note_off', channel=2, note=59, velocity=64, time=0),\n",
      "    Message('note_on', channel=2, note=40, velocity=96, time=0),\n",
      "    Message('note_off', channel=2, note=40, velocity=64, time=360),\n",
      "    Message('note_on', channel=2, note=59, velocity=96, time=0),\n",
      "    Message('note_on', channel=2, note=63, velocity=96, time=0),\n",
      "    Message('note_on', channel=2, note=68, velocity=96, time=0),\n",
      "    Message('note_off', channel=2, note=68, velocity=64, time=240),\n",
      "    Message('note_off', channel=2, note=63, velocity=64, time=0),\n",
      "    Message('note_off', channel=2, note=59, velocity=64, time=0),\n",
      "    Message('note_on', channel=2, note=59, velocity=96, time=0),\n",
      "    Message('note_on', channel=2, note=63, velocity=96, time=0),\n",
      "    Message('note_on', channel=2, note=68, velocity=96, time=0),\n",
      "    Message('note_off', channel=2, note=68, velocity=64, time=360),\n",
      "    Message('note_off', channel=2, note=63, velocity=64, time=0),\n",
      "    Message('note_off', channel=2, note=59, velocity=64, time=0),\n",
      "    Message('note_on', channel=2, note=42, velocity=96, time=0),\n",
      "    Message('note_off', channel=2, note=42, velocity=64, time=360),\n",
      "    Message('note_on', channel=2, note=61, velocity=96, time=0),\n",
      "    Message('note_on', channel=2, note=66, velocity=96, time=0),\n",
      "    Message('note_on', channel=2, note=70, velocity=96, time=0),\n",
      "    Message('note_off', channel=2, note=70, velocity=64, time=240),\n",
      "    Message('note_off', channel=2, note=66, velocity=64, time=0),\n",
      "    Message('note_off', channel=2, note=61, velocity=64, time=0),\n",
      "    Message('note_on', channel=2, note=61, velocity=96, time=0),\n",
      "    Message('note_on', channel=2, note=66, velocity=96, time=0),\n",
      "    Message('note_on', channel=2, note=70, velocity=96, time=0),\n",
      "    Message('note_off', channel=2, note=70, velocity=64, time=360),\n",
      "    Message('note_off', channel=2, note=66, velocity=64, time=0),\n",
      "    Message('note_off', channel=2, note=61, velocity=64, time=0),\n",
      "    Message('note_on', channel=2, note=47, velocity=96, time=0),\n",
      "    Message('note_off', channel=2, note=47, velocity=64, time=360),\n",
      "    Message('note_on', channel=2, note=61, velocity=96, time=0),\n",
      "    Message('note_on', channel=2, note=66, velocity=96, time=0),\n",
      "    Message('note_on', channel=2, note=70, velocity=96, time=0),\n",
      "    Message('note_off', channel=2, note=70, velocity=64, time=240),\n",
      "    Message('note_off', channel=2, note=66, velocity=64, time=0),\n",
      "    Message('note_off', channel=2, note=61, velocity=64, time=0),\n",
      "    Message('note_on', channel=2, note=61, velocity=96, time=0),\n",
      "    Message('note_on', channel=2, note=66, velocity=96, time=0),\n",
      "    Message('note_on', channel=2, note=71, velocity=96, time=0),\n",
      "    Message('note_off', channel=2, note=71, velocity=64, time=360),\n",
      "    Message('note_off', channel=2, note=66, velocity=64, time=0),\n",
      "    Message('note_off', channel=2, note=61, velocity=64, time=0),\n",
      "    Message('note_on', channel=2, note=44, velocity=96, time=0),\n",
      "    Message('note_off', channel=2, note=44, velocity=64, time=360),\n",
      "    Message('note_on', channel=2, note=59, velocity=96, time=0),\n",
      "    Message('note_on', channel=2, note=63, velocity=96, time=0),\n",
      "    Message('note_on', channel=2, note=68, velocity=96, time=0),\n",
      "    Message('note_off', channel=2, note=68, velocity=64, time=240),\n",
      "    Message('note_off', channel=2, note=63, velocity=64, time=0),\n",
      "    Message('note_off', channel=2, note=59, velocity=64, time=0),\n",
      "    Message('note_on', channel=2, note=59, velocity=96, time=0),\n",
      "    Message('note_on', channel=2, note=63, velocity=96, time=0),\n",
      "    Message('note_on', channel=2, note=68, velocity=96, time=0),\n",
      "    Message('note_off', channel=2, note=68, velocity=64, time=360),\n",
      "    Message('note_off', channel=2, note=63, velocity=64, time=0),\n",
      "    Message('note_off', channel=2, note=59, velocity=64, time=0),\n",
      "    Message('note_on', channel=2, note=40, velocity=96, time=0),\n",
      "    Message('note_off', channel=2, note=40, velocity=64, time=360),\n",
      "    Message('note_on', channel=2, note=59, velocity=96, time=0),\n",
      "    Message('note_on', channel=2, note=63, velocity=96, time=0),\n",
      "    Message('note_on', channel=2, note=68, velocity=96, time=0),\n",
      "    Message('note_off', channel=2, note=68, velocity=64, time=240),\n",
      "    Message('note_off', channel=2, note=63, velocity=64, time=0),\n",
      "    Message('note_off', channel=2, note=59, velocity=64, time=0),\n",
      "    Message('note_on', channel=2, note=59, velocity=96, time=0),\n",
      "    Message('note_on', channel=2, note=63, velocity=96, time=0),\n",
      "    Message('note_on', channel=2, note=68, velocity=96, time=0),\n",
      "    Message('note_off', channel=2, note=68, velocity=64, time=360),\n",
      "    Message('note_off', channel=2, note=63, velocity=64, time=0),\n",
      "    Message('note_off', channel=2, note=59, velocity=64, time=0),\n",
      "    Message('note_on', channel=2, note=42, velocity=96, time=0),\n",
      "    Message('note_off', channel=2, note=42, velocity=64, time=360),\n",
      "    Message('note_on', channel=2, note=61, velocity=96, time=0),\n",
      "    Message('note_on', channel=2, note=66, velocity=96, time=0),\n",
      "    Message('note_on', channel=2, note=70, velocity=96, time=0),\n",
      "    Message('note_off', channel=2, note=70, velocity=64, time=240),\n",
      "    Message('note_off', channel=2, note=66, velocity=64, time=0),\n",
      "    Message('note_off', channel=2, note=61, velocity=64, time=0),\n",
      "    Message('note_on', channel=2, note=61, velocity=96, time=0),\n",
      "    Message('note_on', channel=2, note=66, velocity=96, time=0),\n",
      "    Message('note_on', channel=2, note=70, velocity=96, time=0),\n",
      "    Message('note_off', channel=2, note=70, velocity=64, time=360),\n",
      "    Message('note_off', channel=2, note=66, velocity=64, time=0),\n",
      "    Message('note_off', channel=2, note=61, velocity=64, time=0),\n",
      "    Message('note_on', channel=2, note=47, velocity=96, time=0),\n",
      "    Message('note_off', channel=2, note=47, velocity=64, time=360),\n",
      "    Message('note_on', channel=2, note=61, velocity=96, time=0),\n",
      "    Message('note_on', channel=2, note=66, velocity=96, time=0),\n",
      "    Message('note_on', channel=2, note=70, velocity=96, time=0),\n",
      "    Message('note_off', channel=2, note=70, velocity=64, time=240),\n",
      "    Message('note_off', channel=2, note=66, velocity=64, time=0),\n",
      "    Message('note_off', channel=2, note=61, velocity=64, time=0),\n",
      "    Message('note_on', channel=2, note=61, velocity=96, time=0),\n",
      "    Message('note_on', channel=2, note=66, velocity=96, time=0),\n",
      "    Message('note_on', channel=2, note=71, velocity=96, time=0),\n",
      "    Message('note_off', channel=2, note=71, velocity=64, time=360),\n",
      "    Message('note_off', channel=2, note=66, velocity=64, time=0),\n",
      "    Message('note_off', channel=2, note=61, velocity=64, time=0),\n",
      "    Message('note_on', channel=2, note=44, velocity=96, time=0),\n",
      "    Message('note_off', channel=2, note=44, velocity=64, time=360),\n",
      "    Message('note_on', channel=2, note=59, velocity=96, time=0),\n",
      "    Message('note_on', channel=2, note=63, velocity=96, time=0),\n",
      "    Message('note_on', channel=2, note=68, velocity=96, time=0),\n",
      "    Message('note_off', channel=2, note=68, velocity=64, time=240),\n",
      "    Message('note_off', channel=2, note=63, velocity=64, time=0),\n",
      "    Message('note_off', channel=2, note=59, velocity=64, time=0),\n",
      "    Message('note_on', channel=2, note=59, velocity=96, time=0),\n",
      "    Message('note_on', channel=2, note=63, velocity=96, time=0),\n",
      "    Message('note_on', channel=2, note=68, velocity=96, time=0),\n",
      "    Message('note_off', channel=2, note=68, velocity=64, time=360),\n",
      "    Message('note_off', channel=2, note=63, velocity=64, time=0),\n",
      "    Message('note_off', channel=2, note=59, velocity=64, time=0),\n",
      "    Message('note_on', channel=2, note=40, velocity=96, time=0),\n",
      "    Message('note_off', channel=2, note=40, velocity=64, time=360),\n",
      "    Message('note_on', channel=2, note=59, velocity=96, time=0),\n",
      "    Message('note_on', channel=2, note=63, velocity=96, time=0),\n",
      "    Message('note_on', channel=2, note=68, velocity=96, time=0),\n",
      "    Message('note_off', channel=2, note=68, velocity=64, time=240),\n",
      "    Message('note_off', channel=2, note=63, velocity=64, time=0),\n",
      "    Message('note_off', channel=2, note=59, velocity=64, time=0),\n",
      "    Message('note_on', channel=2, note=59, velocity=96, time=0),\n",
      "    Message('note_on', channel=2, note=63, velocity=96, time=0),\n",
      "    Message('note_on', channel=2, note=68, velocity=96, time=0),\n",
      "    Message('note_off', channel=2, note=68, velocity=64, time=360),\n",
      "    Message('note_off', channel=2, note=63, velocity=64, time=0),\n",
      "    Message('note_off', channel=2, note=59, velocity=64, time=0),\n",
      "    Message('note_on', channel=2, note=42, velocity=96, time=0),\n",
      "    Message('note_off', channel=2, note=42, velocity=64, time=360),\n",
      "    Message('note_on', channel=2, note=61, velocity=96, time=0),\n",
      "    Message('note_on', channel=2, note=66, velocity=96, time=0),\n",
      "    Message('note_on', channel=2, note=70, velocity=96, time=0),\n",
      "    Message('note_off', channel=2, note=70, velocity=64, time=240),\n",
      "    Message('note_off', channel=2, note=66, velocity=64, time=0),\n",
      "    Message('note_off', channel=2, note=61, velocity=64, time=0),\n",
      "    Message('note_on', channel=2, note=61, velocity=96, time=0),\n",
      "    Message('note_on', channel=2, note=66, velocity=96, time=0),\n",
      "    Message('note_on', channel=2, note=70, velocity=96, time=0),\n",
      "    Message('note_off', channel=2, note=70, velocity=64, time=360),\n",
      "    Message('note_off', channel=2, note=66, velocity=64, time=0),\n",
      "    Message('note_off', channel=2, note=61, velocity=64, time=0),\n",
      "    Message('note_on', channel=2, note=47, velocity=96, time=0),\n",
      "    Message('note_off', channel=2, note=47, velocity=64, time=360),\n",
      "    Message('note_on', channel=2, note=61, velocity=96, time=0),\n",
      "    Message('note_on', channel=2, note=66, velocity=96, time=0),\n",
      "    Message('note_on', channel=2, note=70, velocity=96, time=0),\n",
      "    Message('note_off', channel=2, note=70, velocity=64, time=240),\n",
      "    Message('note_off', channel=2, note=66, velocity=64, time=0),\n",
      "    Message('note_off', channel=2, note=61, velocity=64, time=0),\n",
      "    Message('note_on', channel=2, note=61, velocity=96, time=0),\n",
      "    Message('note_on', channel=2, note=66, velocity=96, time=0),\n",
      "    Message('note_on', channel=2, note=71, velocity=96, time=0),\n",
      "    Message('note_off', channel=2, note=71, velocity=64, time=360),\n",
      "    Message('note_off', channel=2, note=66, velocity=64, time=0),\n",
      "    Message('note_off', channel=2, note=61, velocity=64, time=0),\n",
      "    Message('note_on', channel=2, note=44, velocity=96, time=0),\n",
      "    Message('note_off', channel=2, note=44, velocity=64, time=360),\n",
      "    Message('note_on', channel=2, note=59, velocity=96, time=0),\n",
      "    Message('note_on', channel=2, note=63, velocity=96, time=0),\n",
      "    Message('note_on', channel=2, note=68, velocity=96, time=0),\n",
      "    Message('note_off', channel=2, note=68, velocity=64, time=240),\n",
      "    Message('note_off', channel=2, note=63, velocity=64, time=0),\n",
      "    Message('note_off', channel=2, note=59, velocity=64, time=0),\n",
      "    Message('note_on', channel=2, note=59, velocity=96, time=0),\n",
      "    Message('note_on', channel=2, note=63, velocity=96, time=0),\n",
      "    Message('note_on', channel=2, note=68, velocity=96, time=0),\n",
      "    Message('note_off', channel=2, note=68, velocity=64, time=360),\n",
      "    Message('note_off', channel=2, note=63, velocity=64, time=0),\n",
      "    Message('note_off', channel=2, note=59, velocity=64, time=0),\n",
      "    Message('note_on', channel=2, note=40, velocity=96, time=0),\n",
      "    Message('note_off', channel=2, note=40, velocity=64, time=360),\n",
      "    Message('note_on', channel=2, note=59, velocity=96, time=0),\n",
      "    Message('note_on', channel=2, note=63, velocity=96, time=0),\n",
      "    Message('note_on', channel=2, note=68, velocity=96, time=0),\n",
      "    Message('note_off', channel=2, note=68, velocity=64, time=240),\n",
      "    Message('note_off', channel=2, note=63, velocity=64, time=0),\n",
      "    Message('note_off', channel=2, note=59, velocity=64, time=0),\n",
      "    Message('note_on', channel=2, note=59, velocity=96, time=0),\n",
      "    Message('note_on', channel=2, note=63, velocity=96, time=0),\n",
      "    Message('note_on', channel=2, note=68, velocity=96, time=0),\n",
      "    Message('note_off', channel=2, note=68, velocity=64, time=360),\n",
      "    Message('note_off', channel=2, note=63, velocity=64, time=0),\n",
      "    Message('note_off', channel=2, note=59, velocity=64, time=0),\n",
      "    Message('note_on', channel=2, note=41, velocity=96, time=0),\n",
      "    Message('note_off', channel=2, note=41, velocity=64, time=360),\n",
      "    Message('note_on', channel=2, note=59, velocity=96, time=0),\n",
      "    Message('note_on', channel=2, note=63, velocity=96, time=0),\n",
      "    Message('note_on', channel=2, note=68, velocity=96, time=0),\n",
      "    Message('note_off', channel=2, note=68, velocity=64, time=240),\n",
      "    Message('note_off', channel=2, note=63, velocity=64, time=0),\n",
      "    Message('note_off', channel=2, note=59, velocity=64, time=0),\n",
      "    Message('note_on', channel=2, note=59, velocity=96, time=0),\n",
      "    Message('note_on', channel=2, note=63, velocity=96, time=0),\n",
      "    Message('note_on', channel=2, note=68, velocity=96, time=0),\n",
      "    Message('note_off', channel=2, note=68, velocity=64, time=360),\n",
      "    Message('note_off', channel=2, note=63, velocity=64, time=0),\n",
      "    Message('note_off', channel=2, note=59, velocity=64, time=0),\n",
      "    Message('note_on', channel=2, note=40, velocity=96, time=0),\n",
      "    Message('note_off', channel=2, note=40, velocity=64, time=360),\n",
      "    Message('note_on', channel=2, note=59, velocity=96, time=0),\n",
      "    Message('note_on', channel=2, note=63, velocity=96, time=0),\n",
      "    Message('note_on', channel=2, note=68, velocity=96, time=0),\n",
      "    Message('note_off', channel=2, note=68, velocity=64, time=240),\n",
      "    Message('note_off', channel=2, note=63, velocity=64, time=0),\n",
      "    Message('note_off', channel=2, note=59, velocity=64, time=0),\n",
      "    Message('note_on', channel=2, note=59, velocity=96, time=0),\n",
      "    Message('note_on', channel=2, note=63, velocity=96, time=0),\n",
      "    Message('note_on', channel=2, note=68, velocity=96, time=0),\n",
      "    Message('note_off', channel=2, note=68, velocity=64, time=360),\n",
      "    Message('note_off', channel=2, note=63, velocity=64, time=0),\n",
      "    Message('note_off', channel=2, note=59, velocity=64, time=0),\n",
      "    Message('note_on', channel=2, note=44, velocity=96, time=0),\n",
      "    Message('note_off', channel=2, note=44, velocity=64, time=360),\n",
      "    Message('note_on', channel=2, note=59, velocity=96, time=0),\n",
      "    Message('note_on', channel=2, note=63, velocity=96, time=0),\n",
      "    Message('note_on', channel=2, note=68, velocity=96, time=0),\n",
      "    Message('note_off', channel=2, note=68, velocity=64, time=240),\n",
      "    Message('note_off', channel=2, note=63, velocity=64, time=0),\n",
      "    Message('note_off', channel=2, note=59, velocity=64, time=0),\n",
      "    Message('note_on', channel=2, note=59, velocity=96, time=0),\n",
      "    Message('note_on', channel=2, note=63, velocity=96, time=0),\n",
      "    Message('note_on', channel=2, note=68, velocity=96, time=0),\n",
      "    Message('note_off', channel=2, note=68, velocity=64, time=360),\n",
      "    Message('note_off', channel=2, note=63, velocity=64, time=0),\n",
      "    Message('note_off', channel=2, note=59, velocity=64, time=0),\n",
      "    Message('note_on', channel=2, note=40, velocity=96, time=0),\n",
      "    Message('note_off', channel=2, note=40, velocity=64, time=360),\n",
      "    Message('note_on', channel=2, note=59, velocity=96, time=0),\n",
      "    Message('note_on', channel=2, note=63, velocity=96, time=0),\n",
      "    Message('note_on', channel=2, note=68, velocity=96, time=0),\n",
      "    Message('note_off', channel=2, note=68, velocity=64, time=240),\n",
      "    Message('note_off', channel=2, note=63, velocity=64, time=0),\n",
      "    Message('note_off', channel=2, note=59, velocity=64, time=0),\n",
      "    Message('note_on', channel=2, note=59, velocity=96, time=0),\n",
      "    Message('note_on', channel=2, note=63, velocity=96, time=0),\n",
      "    Message('note_on', channel=2, note=68, velocity=96, time=0),\n",
      "    Message('note_off', channel=2, note=68, velocity=64, time=360),\n",
      "    Message('note_off', channel=2, note=63, velocity=64, time=0),\n",
      "    Message('note_off', channel=2, note=59, velocity=64, time=0),\n",
      "    Message('note_on', channel=2, note=42, velocity=96, time=0),\n",
      "    Message('note_off', channel=2, note=42, velocity=64, time=360),\n",
      "    Message('note_on', channel=2, note=61, velocity=96, time=0),\n",
      "    Message('note_on', channel=2, note=66, velocity=96, time=0),\n",
      "    Message('note_on', channel=2, note=70, velocity=96, time=0),\n",
      "    Message('note_off', channel=2, note=70, velocity=64, time=240),\n",
      "    Message('note_off', channel=2, note=66, velocity=64, time=0),\n",
      "    Message('note_off', channel=2, note=61, velocity=64, time=0),\n",
      "    Message('note_on', channel=2, note=61, velocity=96, time=0),\n",
      "    Message('note_on', channel=2, note=66, velocity=96, time=0),\n",
      "    Message('note_on', channel=2, note=70, velocity=96, time=0),\n",
      "    Message('note_off', channel=2, note=70, velocity=64, time=360),\n",
      "    Message('note_off', channel=2, note=66, velocity=64, time=0),\n",
      "    Message('note_off', channel=2, note=61, velocity=64, time=0),\n",
      "    Message('note_on', channel=2, note=47, velocity=96, time=0),\n",
      "    Message('note_off', channel=2, note=47, velocity=64, time=360),\n",
      "    Message('note_on', channel=2, note=61, velocity=96, time=0),\n",
      "    Message('note_on', channel=2, note=66, velocity=96, time=0),\n",
      "    Message('note_on', channel=2, note=70, velocity=96, time=0),\n",
      "    Message('note_off', channel=2, note=70, velocity=64, time=240),\n",
      "    Message('note_off', channel=2, note=66, velocity=64, time=0),\n",
      "    Message('note_off', channel=2, note=61, velocity=64, time=0),\n",
      "    Message('note_on', channel=2, note=61, velocity=96, time=0),\n",
      "    Message('note_on', channel=2, note=66, velocity=96, time=0),\n",
      "    Message('note_on', channel=2, note=71, velocity=96, time=0),\n",
      "    Message('note_off', channel=2, note=71, velocity=64, time=360),\n",
      "    Message('note_off', channel=2, note=66, velocity=64, time=0),\n",
      "    Message('note_off', channel=2, note=61, velocity=64, time=0),\n",
      "    Message('note_on', channel=2, note=44, velocity=96, time=0),\n",
      "    Message('note_off', channel=2, note=44, velocity=64, time=360),\n",
      "    Message('note_on', channel=2, note=59, velocity=96, time=0),\n",
      "    Message('note_on', channel=2, note=63, velocity=96, time=0),\n",
      "    Message('note_on', channel=2, note=68, velocity=96, time=0),\n",
      "    Message('note_off', channel=2, note=68, velocity=64, time=240),\n",
      "    Message('note_off', channel=2, note=63, velocity=64, time=0),\n",
      "    Message('note_off', channel=2, note=59, velocity=64, time=0),\n",
      "    Message('note_on', channel=2, note=59, velocity=96, time=0),\n",
      "    Message('note_on', channel=2, note=63, velocity=96, time=0),\n",
      "    Message('note_on', channel=2, note=68, velocity=96, time=0),\n",
      "    Message('note_off', channel=2, note=68, velocity=64, time=360),\n",
      "    Message('note_off', channel=2, note=63, velocity=64, time=0),\n",
      "    Message('note_off', channel=2, note=59, velocity=64, time=0),\n",
      "    Message('note_on', channel=2, note=40, velocity=96, time=0),\n",
      "    Message('note_off', channel=2, note=40, velocity=64, time=360),\n",
      "    Message('note_on', channel=2, note=59, velocity=96, time=0),\n",
      "    Message('note_on', channel=2, note=63, velocity=96, time=0),\n",
      "    Message('note_on', channel=2, note=68, velocity=96, time=0),\n",
      "    Message('note_off', channel=2, note=68, velocity=64, time=240),\n",
      "    Message('note_off', channel=2, note=63, velocity=64, time=0),\n",
      "    Message('note_off', channel=2, note=59, velocity=64, time=0),\n",
      "    Message('note_on', channel=2, note=59, velocity=96, time=0),\n",
      "    Message('note_on', channel=2, note=63, velocity=96, time=0),\n",
      "    Message('note_on', channel=2, note=68, velocity=96, time=0),\n",
      "    Message('note_off', channel=2, note=68, velocity=64, time=360),\n",
      "    Message('note_off', channel=2, note=63, velocity=64, time=0),\n",
      "    Message('note_off', channel=2, note=59, velocity=64, time=0),\n",
      "    Message('note_on', channel=2, note=42, velocity=96, time=0),\n",
      "    Message('note_off', channel=2, note=42, velocity=64, time=360),\n",
      "    Message('note_on', channel=2, note=61, velocity=96, time=0),\n",
      "    Message('note_on', channel=2, note=66, velocity=96, time=0),\n",
      "    Message('note_on', channel=2, note=70, velocity=96, time=0),\n",
      "    Message('note_off', channel=2, note=70, velocity=64, time=240),\n",
      "    Message('note_off', channel=2, note=66, velocity=64, time=0),\n",
      "    Message('note_off', channel=2, note=61, velocity=64, time=0),\n",
      "    Message('note_on', channel=2, note=61, velocity=96, time=0),\n",
      "    Message('note_on', channel=2, note=66, velocity=96, time=0),\n",
      "    Message('note_on', channel=2, note=70, velocity=96, time=0),\n",
      "    Message('note_off', channel=2, note=70, velocity=64, time=360),\n",
      "    Message('note_off', channel=2, note=66, velocity=64, time=0),\n",
      "    Message('note_off', channel=2, note=61, velocity=64, time=0),\n",
      "    Message('note_on', channel=2, note=47, velocity=96, time=0),\n",
      "    Message('note_off', channel=2, note=47, velocity=64, time=360),\n",
      "    Message('note_on', channel=2, note=61, velocity=96, time=0),\n",
      "    Message('note_on', channel=2, note=66, velocity=96, time=0),\n",
      "    Message('note_on', channel=2, note=70, velocity=96, time=0),\n",
      "    Message('note_off', channel=2, note=70, velocity=64, time=240),\n",
      "    Message('note_off', channel=2, note=66, velocity=64, time=0),\n",
      "    Message('note_off', channel=2, note=61, velocity=64, time=0),\n",
      "    Message('note_on', channel=2, note=61, velocity=96, time=0),\n",
      "    Message('note_on', channel=2, note=66, velocity=96, time=0),\n",
      "    Message('note_on', channel=2, note=71, velocity=96, time=0),\n",
      "    Message('note_off', channel=2, note=71, velocity=64, time=360),\n",
      "    Message('note_off', channel=2, note=66, velocity=64, time=0),\n",
      "    Message('note_off', channel=2, note=61, velocity=64, time=0),\n",
      "    Message('note_on', channel=2, note=44, velocity=96, time=0),\n",
      "    Message('note_off', channel=2, note=44, velocity=64, time=360),\n",
      "    Message('note_on', channel=2, note=59, velocity=96, time=0),\n",
      "    Message('note_on', channel=2, note=63, velocity=96, time=0),\n",
      "    Message('note_on', channel=2, note=68, velocity=96, time=0),\n",
      "    Message('note_off', channel=2, note=68, velocity=64, time=240),\n",
      "    Message('note_off', channel=2, note=63, velocity=64, time=0),\n",
      "    Message('note_off', channel=2, note=59, velocity=64, time=0),\n",
      "    Message('note_on', channel=2, note=59, velocity=96, time=0),\n",
      "    Message('note_on', channel=2, note=63, velocity=96, time=0),\n",
      "    Message('note_on', channel=2, note=68, velocity=96, time=0),\n",
      "    Message('note_off', channel=2, note=68, velocity=64, time=360),\n",
      "    Message('note_off', channel=2, note=63, velocity=64, time=0),\n",
      "    Message('note_off', channel=2, note=59, velocity=64, time=0),\n",
      "    Message('note_on', channel=2, note=40, velocity=96, time=0),\n",
      "    Message('note_off', channel=2, note=40, velocity=64, time=360),\n",
      "    Message('note_on', channel=2, note=59, velocity=96, time=0),\n",
      "    Message('note_on', channel=2, note=63, velocity=96, time=0),\n",
      "    Message('note_on', channel=2, note=68, velocity=96, time=0),\n",
      "    Message('note_off', channel=2, note=68, velocity=64, time=240),\n",
      "    Message('note_off', channel=2, note=63, velocity=64, time=0),\n",
      "    Message('note_off', channel=2, note=59, velocity=64, time=0),\n",
      "    Message('note_on', channel=2, note=59, velocity=96, time=0),\n",
      "    Message('note_on', channel=2, note=63, velocity=96, time=0),\n",
      "    Message('note_on', channel=2, note=68, velocity=96, time=0),\n",
      "    Message('note_off', channel=2, note=68, velocity=64, time=360),\n",
      "    Message('note_off', channel=2, note=63, velocity=64, time=0),\n",
      "    Message('note_off', channel=2, note=59, velocity=64, time=0),\n",
      "    Message('note_on', channel=2, note=42, velocity=96, time=0),\n",
      "    Message('note_off', channel=2, note=42, velocity=64, time=360),\n",
      "    Message('note_on', channel=2, note=61, velocity=96, time=0),\n",
      "    Message('note_on', channel=2, note=66, velocity=96, time=0),\n",
      "    Message('note_on', channel=2, note=70, velocity=96, time=0),\n",
      "    Message('note_off', channel=2, note=70, velocity=64, time=240),\n",
      "    Message('note_off', channel=2, note=66, velocity=64, time=0),\n",
      "    Message('note_off', channel=2, note=61, velocity=64, time=0),\n",
      "    Message('note_on', channel=2, note=61, velocity=96, time=0),\n",
      "    Message('note_on', channel=2, note=66, velocity=96, time=0),\n",
      "    Message('note_on', channel=2, note=70, velocity=96, time=0),\n",
      "    Message('note_off', channel=2, note=70, velocity=64, time=360),\n",
      "    Message('note_off', channel=2, note=66, velocity=64, time=0),\n",
      "    Message('note_off', channel=2, note=61, velocity=64, time=0),\n",
      "    Message('note_on', channel=2, note=47, velocity=96, time=0),\n",
      "    Message('note_off', channel=2, note=47, velocity=64, time=360),\n",
      "    Message('note_on', channel=2, note=61, velocity=96, time=0),\n",
      "    Message('note_on', channel=2, note=66, velocity=96, time=0),\n",
      "    Message('note_on', channel=2, note=70, velocity=96, time=0),\n",
      "    Message('note_off', channel=2, note=70, velocity=64, time=240),\n",
      "    Message('note_off', channel=2, note=66, velocity=64, time=0),\n",
      "    Message('note_off', channel=2, note=61, velocity=64, time=0),\n",
      "    Message('note_on', channel=2, note=61, velocity=96, time=0),\n",
      "    Message('note_on', channel=2, note=66, velocity=96, time=0),\n",
      "    Message('note_on', channel=2, note=71, velocity=96, time=0),\n",
      "    Message('note_off', channel=2, note=71, velocity=64, time=360),\n",
      "    Message('note_off', channel=2, note=66, velocity=64, time=0),\n",
      "    Message('note_off', channel=2, note=61, velocity=64, time=0),\n",
      "    Message('note_on', channel=2, note=44, velocity=96, time=0),\n",
      "    Message('note_off', channel=2, note=44, velocity=64, time=360),\n",
      "    Message('note_on', channel=2, note=59, velocity=96, time=0),\n",
      "    Message('note_on', channel=2, note=63, velocity=96, time=0),\n",
      "    Message('note_on', channel=2, note=68, velocity=96, time=0),\n",
      "    Message('note_off', channel=2, note=68, velocity=64, time=240),\n",
      "    Message('note_off', channel=2, note=63, velocity=64, time=0),\n",
      "    Message('note_off', channel=2, note=59, velocity=64, time=0),\n",
      "    Message('note_on', channel=2, note=59, velocity=96, time=0),\n",
      "    Message('note_on', channel=2, note=63, velocity=96, time=0),\n",
      "    Message('note_on', channel=2, note=68, velocity=96, time=0),\n",
      "    Message('note_off', channel=2, note=68, velocity=64, time=360),\n",
      "    Message('note_off', channel=2, note=63, velocity=64, time=0),\n",
      "    Message('note_off', channel=2, note=59, velocity=64, time=0),\n",
      "    Message('note_on', channel=2, note=40, velocity=96, time=0),\n",
      "    Message('note_off', channel=2, note=40, velocity=64, time=360),\n",
      "    Message('note_on', channel=2, note=59, velocity=96, time=0),\n",
      "    Message('note_on', channel=2, note=63, velocity=96, time=0),\n",
      "    Message('note_on', channel=2, note=68, velocity=96, time=0),\n",
      "    Message('note_off', channel=2, note=68, velocity=64, time=240),\n",
      "    Message('note_off', channel=2, note=63, velocity=64, time=0),\n",
      "    Message('note_off', channel=2, note=59, velocity=64, time=0),\n",
      "    Message('note_on', channel=2, note=59, velocity=96, time=0),\n",
      "    Message('note_on', channel=2, note=63, velocity=96, time=0),\n",
      "    Message('note_on', channel=2, note=68, velocity=96, time=0),\n",
      "    Message('note_off', channel=2, note=68, velocity=64, time=360),\n",
      "    Message('note_off', channel=2, note=63, velocity=64, time=0),\n",
      "    Message('note_off', channel=2, note=59, velocity=64, time=0),\n",
      "    Message('note_on', channel=2, note=44, velocity=96, time=1920),\n",
      "    Message('note_on', channel=2, note=51, velocity=96, time=0),\n",
      "    Message('note_on', channel=2, note=56, velocity=96, time=0),\n",
      "    Message('note_on', channel=2, note=59, velocity=96, time=0),\n",
      "    Message('note_on', channel=2, note=63, velocity=96, time=0),\n",
      "    Message('note_off', channel=2, note=63, velocity=64, time=360),\n",
      "    Message('note_off', channel=2, note=59, velocity=64, time=0),\n",
      "    Message('note_off', channel=2, note=56, velocity=64, time=0),\n",
      "    Message('note_off', channel=2, note=51, velocity=64, time=0),\n",
      "    Message('note_off', channel=2, note=44, velocity=64, time=0),\n",
      "    Message('note_on', channel=2, note=56, velocity=96, time=0),\n",
      "    Message('note_on', channel=2, note=59, velocity=96, time=0),\n",
      "    Message('note_off', channel=2, note=59, velocity=64, time=120),\n",
      "    Message('note_off', channel=2, note=56, velocity=64, time=0),\n",
      "    Message('note_on', channel=2, note=51, velocity=96, time=0),\n",
      "    Message('note_on', channel=2, note=59, velocity=96, time=0),\n",
      "    Message('note_on', channel=2, note=63, velocity=96, time=0),\n",
      "    Message('note_off', channel=2, note=63, velocity=64, time=480),\n",
      "    Message('note_off', channel=2, note=59, velocity=64, time=0),\n",
      "    Message('note_off', channel=2, note=51, velocity=64, time=0),\n",
      "    Message('note_on', channel=2, note=40, velocity=96, time=0),\n",
      "    Message('note_on', channel=2, note=47, velocity=96, time=0),\n",
      "    Message('note_on', channel=2, note=52, velocity=96, time=0),\n",
      "    Message('note_on', channel=2, note=56, velocity=96, time=0),\n",
      "    Message('note_off', channel=2, note=56, velocity=64, time=360),\n",
      "    Message('note_off', channel=2, note=52, velocity=64, time=0),\n",
      "    Message('note_off', channel=2, note=47, velocity=64, time=0),\n",
      "    Message('note_off', channel=2, note=40, velocity=64, time=0),\n",
      "    Message('note_on', channel=2, note=52, velocity=96, time=0),\n",
      "    Message('note_on', channel=2, note=56, velocity=96, time=0),\n",
      "    Message('note_off', channel=2, note=56, velocity=64, time=120),\n",
      "    Message('note_off', channel=2, note=52, velocity=64, time=0),\n",
      "    Message('note_on', channel=2, note=40, velocity=96, time=0),\n",
      "    Message('note_on', channel=2, note=52, velocity=96, time=0),\n",
      "    Message('note_on', channel=2, note=56, velocity=96, time=0),\n",
      "    Message('note_on', channel=2, note=59, velocity=96, time=0),\n",
      "    Message('note_off', channel=2, note=59, velocity=64, time=480),\n",
      "    Message('note_off', channel=2, note=56, velocity=64, time=0),\n",
      "    Message('note_off', channel=2, note=52, velocity=64, time=0),\n",
      "    Message('note_off', channel=2, note=40, velocity=64, time=0),\n",
      "    Message('note_on', channel=2, note=42, velocity=96, time=0),\n",
      "    Message('note_on', channel=2, note=49, velocity=96, time=0),\n",
      "    Message('note_on', channel=2, note=54, velocity=96, time=0),\n",
      "    Message('note_on', channel=2, note=58, velocity=96, time=0),\n",
      "    Message('note_off', channel=2, note=58, velocity=64, time=360),\n",
      "    Message('note_off', channel=2, note=54, velocity=64, time=0),\n",
      "    Message('note_off', channel=2, note=49, velocity=64, time=0),\n",
      "    Message('note_off', channel=2, note=42, velocity=64, time=0),\n",
      "    Message('note_on', channel=2, note=54, velocity=96, time=0),\n",
      "    Message('note_on', channel=2, note=58, velocity=96, time=0),\n",
      "    Message('note_off', channel=2, note=58, velocity=64, time=120),\n",
      "    Message('note_off', channel=2, note=54, velocity=64, time=0),\n",
      "    Message('note_on', channel=2, note=42, velocity=96, time=0),\n",
      "    Message('note_on', channel=2, note=49, velocity=96, time=0),\n",
      "    Message('note_on', channel=2, note=58, velocity=96, time=0),\n",
      "    Message('note_on', channel=2, note=61, velocity=96, time=0),\n",
      "    Message('note_off', channel=2, note=61, velocity=64, time=480),\n",
      "    Message('note_off', channel=2, note=58, velocity=64, time=0),\n",
      "    Message('note_off', channel=2, note=49, velocity=64, time=0),\n",
      "    Message('note_off', channel=2, note=42, velocity=64, time=0),\n",
      "    Message('note_on', channel=2, note=47, velocity=96, time=0),\n",
      "    Message('note_on', channel=2, note=54, velocity=96, time=0),\n",
      "    Message('note_on', channel=2, note=59, velocity=96, time=0),\n",
      "    Message('note_on', channel=2, note=66, velocity=96, time=0),\n",
      "    Message('note_off', channel=2, note=66, velocity=64, time=240),\n",
      "    Message('note_off', channel=2, note=59, velocity=64, time=0),\n",
      "    Message('note_off', channel=2, note=54, velocity=64, time=0),\n",
      "    Message('note_off', channel=2, note=47, velocity=64, time=0),\n",
      "    Message('note_on', channel=2, note=54, velocity=96, time=0),\n",
      "    Message('note_on', channel=2, note=59, velocity=96, time=0),\n",
      "    Message('note_on', channel=2, note=63, velocity=96, time=0),\n",
      "    Message('note_off', channel=2, note=63, velocity=64, time=240),\n",
      "    Message('note_off', channel=2, note=59, velocity=64, time=0),\n",
      "    Message('note_off', channel=2, note=54, velocity=64, time=0),\n",
      "    Message('note_on', channel=2, note=46, velocity=96, time=0),\n",
      "    Message('note_on', channel=2, note=54, velocity=96, time=0),\n",
      "    Message('note_off', channel=2, note=54, velocity=64, time=240),\n",
      "    Message('note_off', channel=2, note=46, velocity=64, time=0),\n",
      "    Message('note_on', channel=2, note=54, velocity=96, time=0),\n",
      "    Message('note_on', channel=2, note=59, velocity=96, time=0),\n",
      "    Message('note_on', channel=2, note=63, velocity=96, time=0),\n",
      "    Message('note_off', channel=2, note=63, velocity=64, time=240),\n",
      "    Message('note_off', channel=2, note=59, velocity=64, time=0),\n",
      "    Message('note_off', channel=2, note=54, velocity=64, time=0),\n",
      "    Message('note_on', channel=2, note=44, velocity=96, time=0),\n",
      "    Message('note_on', channel=2, note=51, velocity=96, time=0),\n",
      "    Message('note_on', channel=2, note=56, velocity=96, time=0),\n",
      "    Message('note_on', channel=2, note=59, velocity=96, time=0),\n",
      "    Message('note_on', channel=2, note=63, velocity=96, time=0),\n",
      "    Message('note_off', channel=2, note=63, velocity=64, time=360),\n",
      "    Message('note_off', channel=2, note=59, velocity=64, time=0),\n",
      "    Message('note_off', channel=2, note=56, velocity=64, time=0),\n",
      "    Message('note_off', channel=2, note=51, velocity=64, time=0),\n",
      "    Message('note_off', channel=2, note=44, velocity=64, time=0),\n",
      "    Message('note_on', channel=2, note=56, velocity=96, time=0),\n",
      "    Message('note_on', channel=2, note=59, velocity=96, time=0),\n",
      "    Message('note_off', channel=2, note=59, velocity=64, time=120),\n",
      "    Message('note_off', channel=2, note=56, velocity=64, time=0),\n",
      "    Message('note_on', channel=2, note=51, velocity=96, time=0),\n",
      "    Message('note_on', channel=2, note=59, velocity=96, time=0),\n",
      "    Message('note_on', channel=2, note=63, velocity=96, time=0),\n",
      "    Message('note_off', channel=2, note=63, velocity=64, time=480),\n",
      "    Message('note_off', channel=2, note=59, velocity=64, time=0),\n",
      "    Message('note_off', channel=2, note=51, velocity=64, time=0),\n",
      "    Message('note_on', channel=2, note=40, velocity=96, time=0),\n",
      "    Message('note_on', channel=2, note=47, velocity=96, time=0),\n",
      "    Message('note_on', channel=2, note=52, velocity=96, time=0),\n",
      "    Message('note_on', channel=2, note=56, velocity=96, time=0),\n",
      "    Message('note_off', channel=2, note=56, velocity=64, time=360),\n",
      "    Message('note_off', channel=2, note=52, velocity=64, time=0),\n",
      "    Message('note_off', channel=2, note=47, velocity=64, time=0),\n",
      "    Message('note_off', channel=2, note=40, velocity=64, time=0),\n",
      "    Message('note_on', channel=2, note=52, velocity=96, time=0),\n",
      "    Message('note_on', channel=2, note=56, velocity=96, time=0),\n",
      "    Message('note_off', channel=2, note=56, velocity=64, time=120),\n",
      "    Message('note_off', channel=2, note=52, velocity=64, time=0),\n",
      "    Message('note_on', channel=2, note=40, velocity=96, time=0),\n",
      "    Message('note_on', channel=2, note=52, velocity=96, time=0),\n",
      "    Message('note_on', channel=2, note=56, velocity=96, time=0),\n",
      "    Message('note_on', channel=2, note=59, velocity=96, time=0),\n",
      "    Message('note_off', channel=2, note=59, velocity=64, time=480),\n",
      "    Message('note_off', channel=2, note=56, velocity=64, time=0),\n",
      "    Message('note_off', channel=2, note=52, velocity=64, time=0),\n",
      "    Message('note_off', channel=2, note=40, velocity=64, time=0),\n",
      "    Message('note_on', channel=2, note=42, velocity=96, time=0),\n",
      "    Message('note_on', channel=2, note=49, velocity=96, time=0),\n",
      "    Message('note_on', channel=2, note=54, velocity=96, time=0),\n",
      "    Message('note_on', channel=2, note=58, velocity=96, time=0),\n",
      "    Message('note_off', channel=2, note=58, velocity=64, time=360),\n",
      "    Message('note_off', channel=2, note=54, velocity=64, time=0),\n",
      "    Message('note_off', channel=2, note=49, velocity=64, time=0),\n",
      "    Message('note_off', channel=2, note=42, velocity=64, time=0),\n",
      "    Message('note_on', channel=2, note=54, velocity=96, time=0),\n",
      "    Message('note_on', channel=2, note=58, velocity=96, time=0),\n",
      "    Message('note_off', channel=2, note=58, velocity=64, time=120),\n",
      "    Message('note_off', channel=2, note=54, velocity=64, time=0),\n",
      "    Message('note_on', channel=2, note=42, velocity=96, time=0),\n",
      "    Message('note_on', channel=2, note=49, velocity=96, time=0),\n",
      "    Message('note_on', channel=2, note=58, velocity=96, time=0),\n",
      "    Message('note_on', channel=2, note=61, velocity=96, time=0),\n",
      "    Message('note_off', channel=2, note=61, velocity=64, time=480),\n",
      "    Message('note_off', channel=2, note=58, velocity=64, time=0),\n",
      "    Message('note_off', channel=2, note=49, velocity=64, time=0),\n",
      "    Message('note_off', channel=2, note=42, velocity=64, time=0),\n",
      "    Message('note_on', channel=2, note=47, velocity=96, time=0),\n",
      "    Message('note_on', channel=2, note=54, velocity=96, time=0),\n",
      "    Message('note_on', channel=2, note=59, velocity=96, time=0),\n",
      "    Message('note_on', channel=2, note=66, velocity=96, time=0),\n",
      "    Message('note_off', channel=2, note=66, velocity=64, time=240),\n",
      "    Message('note_off', channel=2, note=59, velocity=64, time=0),\n",
      "    Message('note_off', channel=2, note=54, velocity=64, time=0),\n",
      "    Message('note_off', channel=2, note=47, velocity=64, time=0),\n",
      "    Message('note_on', channel=2, note=54, velocity=96, time=0),\n",
      "    Message('note_on', channel=2, note=59, velocity=96, time=0),\n",
      "    Message('note_on', channel=2, note=63, velocity=96, time=0),\n",
      "    Message('note_off', channel=2, note=63, velocity=64, time=240),\n",
      "    Message('note_off', channel=2, note=59, velocity=64, time=0),\n",
      "    Message('note_off', channel=2, note=54, velocity=64, time=0),\n",
      "    Message('note_on', channel=2, note=46, velocity=96, time=0),\n",
      "    Message('note_on', channel=2, note=54, velocity=96, time=0),\n",
      "    Message('note_off', channel=2, note=54, velocity=64, time=240),\n",
      "    Message('note_off', channel=2, note=46, velocity=64, time=0),\n",
      "    Message('note_on', channel=2, note=54, velocity=96, time=0),\n",
      "    Message('note_on', channel=2, note=59, velocity=96, time=0),\n",
      "    Message('note_on', channel=2, note=63, velocity=96, time=0),\n",
      "    Message('note_off', channel=2, note=63, velocity=64, time=240),\n",
      "    Message('note_off', channel=2, note=59, velocity=64, time=0),\n",
      "    Message('note_off', channel=2, note=54, velocity=64, time=0),\n",
      "    Message('note_on', channel=2, note=44, velocity=96, time=0),\n",
      "    Message('note_on', channel=2, note=51, velocity=96, time=0),\n",
      "    Message('note_on', channel=2, note=56, velocity=96, time=0),\n",
      "    Message('note_on', channel=2, note=59, velocity=96, time=0),\n",
      "    Message('note_on', channel=2, note=63, velocity=96, time=0),\n",
      "    Message('note_off', channel=2, note=63, velocity=64, time=360),\n",
      "    Message('note_off', channel=2, note=59, velocity=64, time=0),\n",
      "    Message('note_off', channel=2, note=56, velocity=64, time=0),\n",
      "    Message('note_off', channel=2, note=51, velocity=64, time=0),\n",
      "    Message('note_off', channel=2, note=44, velocity=64, time=0),\n",
      "    Message('note_on', channel=2, note=56, velocity=96, time=0),\n",
      "    Message('note_on', channel=2, note=59, velocity=96, time=0),\n",
      "    Message('note_off', channel=2, note=59, velocity=64, time=120),\n",
      "    Message('note_off', channel=2, note=56, velocity=64, time=0),\n",
      "    Message('note_on', channel=2, note=51, velocity=96, time=0),\n",
      "    Message('note_on', channel=2, note=59, velocity=96, time=0),\n",
      "    Message('note_on', channel=2, note=63, velocity=96, time=0),\n",
      "    Message('note_off', channel=2, note=63, velocity=64, time=480),\n",
      "    Message('note_off', channel=2, note=59, velocity=64, time=0),\n",
      "    Message('note_off', channel=2, note=51, velocity=64, time=0),\n",
      "    Message('note_on', channel=2, note=40, velocity=96, time=0),\n",
      "    Message('note_on', channel=2, note=47, velocity=96, time=0),\n",
      "    Message('note_on', channel=2, note=52, velocity=96, time=0),\n",
      "    Message('note_on', channel=2, note=56, velocity=96, time=0),\n",
      "    Message('note_off', channel=2, note=56, velocity=64, time=360),\n",
      "    Message('note_off', channel=2, note=52, velocity=64, time=0),\n",
      "    Message('note_off', channel=2, note=47, velocity=64, time=0),\n",
      "    Message('note_off', channel=2, note=40, velocity=64, time=0),\n",
      "    Message('note_on', channel=2, note=52, velocity=96, time=0),\n",
      "    Message('note_on', channel=2, note=56, velocity=96, time=0),\n",
      "    Message('note_off', channel=2, note=56, velocity=64, time=120),\n",
      "    Message('note_off', channel=2, note=52, velocity=64, time=0),\n",
      "    Message('note_on', channel=2, note=40, velocity=96, time=0),\n",
      "    Message('note_on', channel=2, note=52, velocity=96, time=0),\n",
      "    Message('note_on', channel=2, note=56, velocity=96, time=0),\n",
      "    Message('note_on', channel=2, note=59, velocity=96, time=0),\n",
      "    Message('note_off', channel=2, note=59, velocity=64, time=480),\n",
      "    Message('note_off', channel=2, note=56, velocity=64, time=0),\n",
      "    Message('note_off', channel=2, note=52, velocity=64, time=0),\n",
      "    Message('note_off', channel=2, note=40, velocity=64, time=0),\n",
      "    Message('note_on', channel=2, note=42, velocity=96, time=0),\n",
      "    Message('note_on', channel=2, note=49, velocity=96, time=0),\n",
      "    Message('note_on', channel=2, note=54, velocity=96, time=0),\n",
      "    Message('note_on', channel=2, note=58, velocity=96, time=0),\n",
      "    Message('note_off', channel=2, note=58, velocity=64, time=360),\n",
      "    Message('note_off', channel=2, note=54, velocity=64, time=0),\n",
      "    Message('note_off', channel=2, note=49, velocity=64, time=0),\n",
      "    Message('note_off', channel=2, note=42, velocity=64, time=0),\n",
      "    Message('note_on', channel=2, note=54, velocity=96, time=0),\n",
      "    Message('note_on', channel=2, note=58, velocity=96, time=0),\n",
      "    Message('note_off', channel=2, note=58, velocity=64, time=120),\n",
      "    Message('note_off', channel=2, note=54, velocity=64, time=0),\n",
      "    Message('note_on', channel=2, note=42, velocity=96, time=0),\n",
      "    Message('note_on', channel=2, note=49, velocity=96, time=0),\n",
      "    Message('note_on', channel=2, note=58, velocity=96, time=0),\n",
      "    Message('note_on', channel=2, note=61, velocity=96, time=0),\n",
      "    Message('note_off', channel=2, note=61, velocity=64, time=480),\n",
      "    Message('note_off', channel=2, note=58, velocity=64, time=0),\n",
      "    Message('note_off', channel=2, note=49, velocity=64, time=0),\n",
      "    Message('note_off', channel=2, note=42, velocity=64, time=0),\n",
      "    Message('note_on', channel=2, note=47, velocity=96, time=0),\n",
      "    Message('note_on', channel=2, note=54, velocity=96, time=0),\n",
      "    Message('note_on', channel=2, note=59, velocity=96, time=0),\n",
      "    Message('note_on', channel=2, note=66, velocity=96, time=0),\n",
      "    Message('note_off', channel=2, note=66, velocity=64, time=240),\n",
      "    Message('note_off', channel=2, note=59, velocity=64, time=0),\n",
      "    Message('note_off', channel=2, note=54, velocity=64, time=0),\n",
      "    Message('note_off', channel=2, note=47, velocity=64, time=0),\n",
      "    Message('note_on', channel=2, note=54, velocity=96, time=0),\n",
      "    Message('note_on', channel=2, note=59, velocity=96, time=0),\n",
      "    Message('note_on', channel=2, note=63, velocity=96, time=0),\n",
      "    Message('note_off', channel=2, note=63, velocity=64, time=240),\n",
      "    Message('note_off', channel=2, note=59, velocity=64, time=0),\n",
      "    Message('note_off', channel=2, note=54, velocity=64, time=0),\n",
      "    Message('note_on', channel=2, note=46, velocity=96, time=0),\n",
      "    Message('note_on', channel=2, note=54, velocity=96, time=0),\n",
      "    Message('note_off', channel=2, note=54, velocity=64, time=240),\n",
      "    Message('note_off', channel=2, note=46, velocity=64, time=0),\n",
      "    Message('note_on', channel=2, note=54, velocity=96, time=0),\n",
      "    Message('note_on', channel=2, note=59, velocity=96, time=0),\n",
      "    Message('note_on', channel=2, note=63, velocity=96, time=0),\n",
      "    Message('note_off', channel=2, note=63, velocity=64, time=240),\n",
      "    Message('note_off', channel=2, note=59, velocity=64, time=0),\n",
      "    Message('note_off', channel=2, note=54, velocity=64, time=0),\n",
      "    Message('note_on', channel=2, note=44, velocity=96, time=0),\n",
      "    Message('note_on', channel=2, note=51, velocity=96, time=0),\n",
      "    Message('note_on', channel=2, note=56, velocity=96, time=0),\n",
      "    Message('note_on', channel=2, note=59, velocity=96, time=0),\n",
      "    Message('note_on', channel=2, note=63, velocity=96, time=0),\n",
      "    Message('note_off', channel=2, note=63, velocity=64, time=360),\n",
      "    Message('note_off', channel=2, note=59, velocity=64, time=0),\n",
      "    Message('note_off', channel=2, note=56, velocity=64, time=0),\n",
      "    Message('note_off', channel=2, note=51, velocity=64, time=0),\n",
      "    Message('note_off', channel=2, note=44, velocity=64, time=0),\n",
      "    Message('note_on', channel=2, note=56, velocity=96, time=0),\n",
      "    Message('note_on', channel=2, note=59, velocity=96, time=0),\n",
      "    Message('note_off', channel=2, note=59, velocity=64, time=120),\n",
      "    Message('note_off', channel=2, note=56, velocity=64, time=0),\n",
      "    Message('note_on', channel=2, note=51, velocity=96, time=0),\n",
      "    Message('note_on', channel=2, note=59, velocity=96, time=0),\n",
      "    Message('note_on', channel=2, note=63, velocity=96, time=0),\n",
      "    Message('note_off', channel=2, note=63, velocity=64, time=480),\n",
      "    Message('note_off', channel=2, note=59, velocity=64, time=0),\n",
      "    Message('note_off', channel=2, note=51, velocity=64, time=0),\n",
      "    Message('note_on', channel=2, note=40, velocity=96, time=0),\n",
      "    Message('note_on', channel=2, note=47, velocity=96, time=0),\n",
      "    Message('note_on', channel=2, note=52, velocity=96, time=0),\n",
      "    Message('note_on', channel=2, note=56, velocity=96, time=0),\n",
      "    Message('note_off', channel=2, note=56, velocity=64, time=360),\n",
      "    Message('note_off', channel=2, note=52, velocity=64, time=0),\n",
      "    Message('note_off', channel=2, note=47, velocity=64, time=0),\n",
      "    Message('note_off', channel=2, note=40, velocity=64, time=0),\n",
      "    Message('note_on', channel=2, note=52, velocity=96, time=0),\n",
      "    Message('note_on', channel=2, note=56, velocity=96, time=0),\n",
      "    Message('note_off', channel=2, note=56, velocity=64, time=120),\n",
      "    Message('note_off', channel=2, note=52, velocity=64, time=0),\n",
      "    Message('note_on', channel=2, note=40, velocity=96, time=0),\n",
      "    Message('note_on', channel=2, note=52, velocity=96, time=0),\n",
      "    Message('note_on', channel=2, note=56, velocity=96, time=0),\n",
      "    Message('note_on', channel=2, note=59, velocity=96, time=0),\n",
      "    Message('note_off', channel=2, note=59, velocity=64, time=480),\n",
      "    Message('note_off', channel=2, note=56, velocity=64, time=0),\n",
      "    Message('note_off', channel=2, note=52, velocity=64, time=0),\n",
      "    Message('note_off', channel=2, note=40, velocity=64, time=0),\n",
      "    Message('note_on', channel=2, note=44, velocity=96, time=1920),\n",
      "    Message('note_off', channel=2, note=44, velocity=64, time=360),\n",
      "    Message('note_on', channel=2, note=59, velocity=96, time=0),\n",
      "    Message('note_on', channel=2, note=63, velocity=96, time=0),\n",
      "    Message('note_on', channel=2, note=68, velocity=96, time=0),\n",
      "    Message('note_off', channel=2, note=68, velocity=64, time=240),\n",
      "    Message('note_off', channel=2, note=63, velocity=64, time=0),\n",
      "    Message('note_off', channel=2, note=59, velocity=64, time=0),\n",
      "    Message('note_on', channel=2, note=59, velocity=96, time=0),\n",
      "    Message('note_on', channel=2, note=63, velocity=96, time=0),\n",
      "    Message('note_on', channel=2, note=68, velocity=96, time=0),\n",
      "    Message('note_off', channel=2, note=68, velocity=64, time=360),\n",
      "    Message('note_off', channel=2, note=63, velocity=64, time=0),\n",
      "    Message('note_off', channel=2, note=59, velocity=64, time=0),\n",
      "    Message('note_on', channel=2, note=40, velocity=96, time=0),\n",
      "    Message('note_off', channel=2, note=40, velocity=64, time=360),\n",
      "    Message('note_on', channel=2, note=59, velocity=96, time=0),\n",
      "    Message('note_on', channel=2, note=63, velocity=96, time=0),\n",
      "    Message('note_on', channel=2, note=68, velocity=96, time=0),\n",
      "    Message('note_off', channel=2, note=68, velocity=64, time=240),\n",
      "    Message('note_off', channel=2, note=63, velocity=64, time=0),\n",
      "    Message('note_off', channel=2, note=59, velocity=64, time=0),\n",
      "    Message('note_on', channel=2, note=59, velocity=96, time=0),\n",
      "    Message('note_on', channel=2, note=63, velocity=96, time=0),\n",
      "    Message('note_on', channel=2, note=68, velocity=96, time=0),\n",
      "    Message('note_off', channel=2, note=68, velocity=64, time=360),\n",
      "    Message('note_off', channel=2, note=63, velocity=64, time=0),\n",
      "    Message('note_off', channel=2, note=59, velocity=64, time=0),\n",
      "    Message('note_on', channel=2, note=42, velocity=96, time=0),\n",
      "    Message('note_off', channel=2, note=42, velocity=64, time=360),\n",
      "    Message('note_on', channel=2, note=61, velocity=96, time=0),\n",
      "    Message('note_on', channel=2, note=66, velocity=96, time=0),\n",
      "    Message('note_on', channel=2, note=70, velocity=96, time=0),\n",
      "    Message('note_off', channel=2, note=70, velocity=64, time=240),\n",
      "    Message('note_off', channel=2, note=66, velocity=64, time=0),\n",
      "    Message('note_off', channel=2, note=61, velocity=64, time=0),\n",
      "    Message('note_on', channel=2, note=61, velocity=96, time=0),\n",
      "    Message('note_on', channel=2, note=66, velocity=96, time=0),\n",
      "    Message('note_on', channel=2, note=70, velocity=96, time=0),\n",
      "    Message('note_off', channel=2, note=70, velocity=64, time=360),\n",
      "    Message('note_off', channel=2, note=66, velocity=64, time=0),\n",
      "    Message('note_off', channel=2, note=61, velocity=64, time=0),\n",
      "    Message('note_on', channel=2, note=47, velocity=96, time=0),\n",
      "    Message('note_off', channel=2, note=47, velocity=64, time=360),\n",
      "    Message('note_on', channel=2, note=61, velocity=96, time=0),\n",
      "    Message('note_on', channel=2, note=66, velocity=96, time=0),\n",
      "    Message('note_on', channel=2, note=70, velocity=96, time=0),\n",
      "    Message('note_off', channel=2, note=70, velocity=64, time=240),\n",
      "    Message('note_off', channel=2, note=66, velocity=64, time=0),\n",
      "    Message('note_off', channel=2, note=61, velocity=64, time=0),\n",
      "    Message('note_on', channel=2, note=61, velocity=96, time=0),\n",
      "    Message('note_on', channel=2, note=66, velocity=96, time=0),\n",
      "    Message('note_on', channel=2, note=71, velocity=96, time=0),\n",
      "    Message('note_off', channel=2, note=71, velocity=64, time=360),\n",
      "    Message('note_off', channel=2, note=66, velocity=64, time=0),\n",
      "    Message('note_off', channel=2, note=61, velocity=64, time=0),\n",
      "    Message('note_on', channel=2, note=44, velocity=96, time=0),\n",
      "    Message('note_off', channel=2, note=44, velocity=64, time=360),\n",
      "    Message('note_on', channel=2, note=59, velocity=96, time=0),\n",
      "    Message('note_on', channel=2, note=63, velocity=96, time=0),\n",
      "    Message('note_on', channel=2, note=68, velocity=96, time=0),\n",
      "    Message('note_off', channel=2, note=68, velocity=64, time=240),\n",
      "    Message('note_off', channel=2, note=63, velocity=64, time=0),\n",
      "    Message('note_off', channel=2, note=59, velocity=64, time=0),\n",
      "    Message('note_on', channel=2, note=59, velocity=96, time=0),\n",
      "    Message('note_on', channel=2, note=63, velocity=96, time=0),\n",
      "    Message('note_on', channel=2, note=68, velocity=96, time=0),\n",
      "    Message('note_off', channel=2, note=68, velocity=64, time=360),\n",
      "    Message('note_off', channel=2, note=63, velocity=64, time=0),\n",
      "    Message('note_off', channel=2, note=59, velocity=64, time=0),\n",
      "    Message('note_on', channel=2, note=40, velocity=96, time=0),\n",
      "    Message('note_off', channel=2, note=40, velocity=64, time=360),\n",
      "    Message('note_on', channel=2, note=59, velocity=96, time=0),\n",
      "    Message('note_on', channel=2, note=63, velocity=96, time=0),\n",
      "    Message('note_on', channel=2, note=68, velocity=96, time=0),\n",
      "    Message('note_off', channel=2, note=68, velocity=64, time=240),\n",
      "    Message('note_off', channel=2, note=63, velocity=64, time=0),\n",
      "    Message('note_off', channel=2, note=59, velocity=64, time=0),\n",
      "    Message('note_on', channel=2, note=59, velocity=96, time=0),\n",
      "    Message('note_on', channel=2, note=63, velocity=96, time=0),\n",
      "    Message('note_on', channel=2, note=68, velocity=96, time=0),\n",
      "    Message('note_off', channel=2, note=68, velocity=64, time=360),\n",
      "    Message('note_off', channel=2, note=63, velocity=64, time=0),\n",
      "    Message('note_off', channel=2, note=59, velocity=64, time=0),\n",
      "    Message('note_on', channel=2, note=42, velocity=96, time=0),\n",
      "    Message('note_off', channel=2, note=42, velocity=64, time=360),\n",
      "    Message('note_on', channel=2, note=61, velocity=96, time=0),\n",
      "    Message('note_on', channel=2, note=66, velocity=96, time=0),\n",
      "    Message('note_on', channel=2, note=70, velocity=96, time=0),\n",
      "    Message('note_off', channel=2, note=70, velocity=64, time=240),\n",
      "    Message('note_off', channel=2, note=66, velocity=64, time=0),\n",
      "    Message('note_off', channel=2, note=61, velocity=64, time=0),\n",
      "    Message('note_on', channel=2, note=61, velocity=96, time=0),\n",
      "    Message('note_on', channel=2, note=66, velocity=96, time=0),\n",
      "    Message('note_on', channel=2, note=70, velocity=96, time=0),\n",
      "    Message('note_off', channel=2, note=70, velocity=64, time=360),\n",
      "    Message('note_off', channel=2, note=66, velocity=64, time=0),\n",
      "    Message('note_off', channel=2, note=61, velocity=64, time=0),\n",
      "    Message('note_on', channel=2, note=47, velocity=96, time=0),\n",
      "    Message('note_off', channel=2, note=47, velocity=64, time=360),\n",
      "    Message('note_on', channel=2, note=61, velocity=96, time=0),\n",
      "    Message('note_on', channel=2, note=66, velocity=96, time=0),\n",
      "    Message('note_on', channel=2, note=70, velocity=96, time=0),\n",
      "    Message('note_off', channel=2, note=70, velocity=64, time=240),\n",
      "    Message('note_off', channel=2, note=66, velocity=64, time=0),\n",
      "    Message('note_off', channel=2, note=61, velocity=64, time=0),\n",
      "    Message('note_on', channel=2, note=61, velocity=96, time=0),\n",
      "    Message('note_on', channel=2, note=66, velocity=96, time=0),\n",
      "    Message('note_on', channel=2, note=71, velocity=96, time=0),\n",
      "    Message('note_off', channel=2, note=71, velocity=64, time=360),\n",
      "    Message('note_off', channel=2, note=66, velocity=64, time=0),\n",
      "    Message('note_off', channel=2, note=61, velocity=64, time=0),\n",
      "    Message('note_on', channel=2, note=44, velocity=96, time=0),\n",
      "    Message('note_off', channel=2, note=44, velocity=64, time=360),\n",
      "    Message('note_on', channel=2, note=59, velocity=96, time=0),\n",
      "    Message('note_on', channel=2, note=63, velocity=96, time=0),\n",
      "    Message('note_on', channel=2, note=68, velocity=96, time=0),\n",
      "    Message('note_off', channel=2, note=68, velocity=64, time=240),\n",
      "    Message('note_off', channel=2, note=63, velocity=64, time=0),\n",
      "    Message('note_off', channel=2, note=59, velocity=64, time=0),\n",
      "    Message('note_on', channel=2, note=59, velocity=96, time=0),\n",
      "    Message('note_on', channel=2, note=63, velocity=96, time=0),\n",
      "    Message('note_on', channel=2, note=68, velocity=96, time=0),\n",
      "    Message('note_off', channel=2, note=68, velocity=64, time=360),\n",
      "    Message('note_off', channel=2, note=63, velocity=64, time=0),\n",
      "    Message('note_off', channel=2, note=59, velocity=64, time=0),\n",
      "    Message('note_on', channel=2, note=40, velocity=96, time=0),\n",
      "    Message('note_off', channel=2, note=40, velocity=64, time=360),\n",
      "    Message('note_on', channel=2, note=59, velocity=96, time=0),\n",
      "    Message('note_on', channel=2, note=63, velocity=96, time=0),\n",
      "    Message('note_on', channel=2, note=68, velocity=96, time=0),\n",
      "    Message('note_off', channel=2, note=68, velocity=64, time=240),\n",
      "    Message('note_off', channel=2, note=63, velocity=64, time=0),\n",
      "    Message('note_off', channel=2, note=59, velocity=64, time=0),\n",
      "    Message('note_on', channel=2, note=59, velocity=96, time=0),\n",
      "    Message('note_on', channel=2, note=63, velocity=96, time=0),\n",
      "    Message('note_on', channel=2, note=68, velocity=96, time=0),\n",
      "    Message('note_off', channel=2, note=68, velocity=64, time=360),\n",
      "    Message('note_off', channel=2, note=63, velocity=64, time=0),\n",
      "    Message('note_off', channel=2, note=59, velocity=64, time=0),\n",
      "    Message('note_on', channel=2, note=42, velocity=96, time=0),\n",
      "    Message('note_off', channel=2, note=42, velocity=64, time=360),\n",
      "    Message('note_on', channel=2, note=61, velocity=96, time=0),\n",
      "    Message('note_on', channel=2, note=66, velocity=96, time=0),\n",
      "    Message('note_on', channel=2, note=70, velocity=96, time=0),\n",
      "    Message('note_off', channel=2, note=70, velocity=64, time=240),\n",
      "    Message('note_off', channel=2, note=66, velocity=64, time=0),\n",
      "    Message('note_off', channel=2, note=61, velocity=64, time=0),\n",
      "    Message('note_on', channel=2, note=61, velocity=96, time=0),\n",
      "    Message('note_on', channel=2, note=66, velocity=96, time=0),\n",
      "    Message('note_on', channel=2, note=70, velocity=96, time=0),\n",
      "    Message('note_off', channel=2, note=70, velocity=64, time=360),\n",
      "    Message('note_off', channel=2, note=66, velocity=64, time=0),\n",
      "    Message('note_off', channel=2, note=61, velocity=64, time=0),\n",
      "    Message('note_on', channel=2, note=47, velocity=96, time=0),\n",
      "    Message('note_off', channel=2, note=47, velocity=64, time=360),\n",
      "    Message('note_on', channel=2, note=61, velocity=96, time=0),\n",
      "    Message('note_on', channel=2, note=66, velocity=96, time=0),\n",
      "    Message('note_on', channel=2, note=70, velocity=96, time=0),\n",
      "    Message('note_off', channel=2, note=70, velocity=64, time=240),\n",
      "    Message('note_off', channel=2, note=66, velocity=64, time=0),\n",
      "    Message('note_off', channel=2, note=61, velocity=64, time=0),\n",
      "    Message('note_on', channel=2, note=61, velocity=96, time=0),\n",
      "    Message('note_on', channel=2, note=66, velocity=96, time=0),\n",
      "    Message('note_on', channel=2, note=71, velocity=96, time=0),\n",
      "    Message('note_off', channel=2, note=71, velocity=64, time=360),\n",
      "    Message('note_off', channel=2, note=66, velocity=64, time=0),\n",
      "    Message('note_off', channel=2, note=61, velocity=64, time=0),\n",
      "    Message('note_on', channel=2, note=44, velocity=96, time=0),\n",
      "    Message('note_off', channel=2, note=44, velocity=64, time=360),\n",
      "    Message('note_on', channel=2, note=59, velocity=96, time=0),\n",
      "    Message('note_on', channel=2, note=63, velocity=96, time=0),\n",
      "    Message('note_on', channel=2, note=68, velocity=96, time=0),\n",
      "    Message('note_off', channel=2, note=68, velocity=64, time=240),\n",
      "    Message('note_off', channel=2, note=63, velocity=64, time=0),\n",
      "    Message('note_off', channel=2, note=59, velocity=64, time=0),\n",
      "    Message('note_on', channel=2, note=59, velocity=96, time=0),\n",
      "    Message('note_on', channel=2, note=63, velocity=96, time=0),\n",
      "    Message('note_on', channel=2, note=68, velocity=96, time=0),\n",
      "    Message('note_off', channel=2, note=68, velocity=64, time=360),\n",
      "    Message('note_off', channel=2, note=63, velocity=64, time=0),\n",
      "    Message('note_off', channel=2, note=59, velocity=64, time=0),\n",
      "    Message('note_on', channel=2, note=40, velocity=96, time=0),\n",
      "    Message('note_off', channel=2, note=40, velocity=64, time=360),\n",
      "    Message('note_on', channel=2, note=59, velocity=96, time=0),\n",
      "    Message('note_on', channel=2, note=63, velocity=96, time=0),\n",
      "    Message('note_on', channel=2, note=68, velocity=96, time=0),\n",
      "    Message('note_off', channel=2, note=68, velocity=64, time=240),\n",
      "    Message('note_off', channel=2, note=63, velocity=64, time=0),\n",
      "    Message('note_off', channel=2, note=59, velocity=64, time=0),\n",
      "    Message('note_on', channel=2, note=59, velocity=96, time=0),\n",
      "    Message('note_on', channel=2, note=63, velocity=96, time=0),\n",
      "    Message('note_on', channel=2, note=68, velocity=96, time=0),\n",
      "    Message('note_off', channel=2, note=68, velocity=64, time=360),\n",
      "    Message('note_off', channel=2, note=63, velocity=64, time=0),\n",
      "    Message('note_off', channel=2, note=59, velocity=64, time=0),\n",
      "    Message('note_on', channel=2, note=41, velocity=96, time=0),\n",
      "    Message('note_off', channel=2, note=41, velocity=64, time=360),\n",
      "    Message('note_on', channel=2, note=59, velocity=96, time=0),\n",
      "    Message('note_on', channel=2, note=63, velocity=96, time=0),\n",
      "    Message('note_on', channel=2, note=68, velocity=96, time=0),\n",
      "    Message('note_off', channel=2, note=68, velocity=64, time=240),\n",
      "    Message('note_off', channel=2, note=63, velocity=64, time=0),\n",
      "    Message('note_off', channel=2, note=59, velocity=64, time=0),\n",
      "    Message('note_on', channel=2, note=59, velocity=96, time=0),\n",
      "    Message('note_on', channel=2, note=63, velocity=96, time=0),\n",
      "    Message('note_on', channel=2, note=68, velocity=96, time=0),\n",
      "    Message('note_off', channel=2, note=68, velocity=64, time=360),\n",
      "    Message('note_off', channel=2, note=63, velocity=64, time=0),\n",
      "    Message('note_off', channel=2, note=59, velocity=64, time=0),\n",
      "    Message('note_on', channel=2, note=40, velocity=96, time=0),\n",
      "    Message('note_off', channel=2, note=40, velocity=64, time=360),\n",
      "    Message('note_on', channel=2, note=59, velocity=96, time=0),\n",
      "    Message('note_on', channel=2, note=63, velocity=96, time=0),\n",
      "    Message('note_on', channel=2, note=68, velocity=96, time=0),\n",
      "    Message('note_off', channel=2, note=68, velocity=64, time=240),\n",
      "    Message('note_off', channel=2, note=63, velocity=64, time=0),\n",
      "    Message('note_off', channel=2, note=59, velocity=64, time=0),\n",
      "    Message('note_on', channel=2, note=59, velocity=96, time=0),\n",
      "    Message('note_on', channel=2, note=63, velocity=96, time=0),\n",
      "    Message('note_on', channel=2, note=68, velocity=96, time=0),\n",
      "    Message('note_off', channel=2, note=68, velocity=64, time=360),\n",
      "    Message('note_off', channel=2, note=63, velocity=64, time=0),\n",
      "    Message('note_off', channel=2, note=59, velocity=64, time=0),\n",
      "    Message('note_on', channel=2, note=44, velocity=96, time=0),\n",
      "    Message('note_off', channel=2, note=44, velocity=64, time=360),\n",
      "    Message('note_on', channel=2, note=59, velocity=96, time=0),\n",
      "    Message('note_on', channel=2, note=63, velocity=96, time=0),\n",
      "    Message('note_on', channel=2, note=68, velocity=96, time=0),\n",
      "    Message('note_off', channel=2, note=68, velocity=64, time=240),\n",
      "    Message('note_off', channel=2, note=63, velocity=64, time=0),\n",
      "    Message('note_off', channel=2, note=59, velocity=64, time=0),\n",
      "    Message('note_on', channel=2, note=59, velocity=96, time=0),\n",
      "    Message('note_on', channel=2, note=63, velocity=96, time=0),\n",
      "    Message('note_on', channel=2, note=68, velocity=96, time=0),\n",
      "    Message('note_off', channel=2, note=68, velocity=64, time=360),\n",
      "    Message('note_off', channel=2, note=63, velocity=64, time=0),\n",
      "    Message('note_off', channel=2, note=59, velocity=64, time=0),\n",
      "    Message('note_on', channel=2, note=40, velocity=96, time=0),\n",
      "    Message('note_off', channel=2, note=40, velocity=64, time=360),\n",
      "    Message('note_on', channel=2, note=59, velocity=96, time=0),\n",
      "    Message('note_on', channel=2, note=63, velocity=96, time=0),\n",
      "    Message('note_on', channel=2, note=68, velocity=96, time=0),\n",
      "    Message('note_off', channel=2, note=68, velocity=64, time=240),\n",
      "    Message('note_off', channel=2, note=63, velocity=64, time=0),\n",
      "    Message('note_off', channel=2, note=59, velocity=64, time=0),\n",
      "    Message('note_on', channel=2, note=59, velocity=96, time=0),\n",
      "    Message('note_on', channel=2, note=63, velocity=96, time=0),\n",
      "    Message('note_on', channel=2, note=68, velocity=96, time=0),\n",
      "    Message('note_off', channel=2, note=68, velocity=64, time=360),\n",
      "    Message('note_off', channel=2, note=63, velocity=64, time=0),\n",
      "    Message('note_off', channel=2, note=59, velocity=64, time=0),\n",
      "    Message('note_on', channel=2, note=42, velocity=96, time=0),\n",
      "    Message('note_off', channel=2, note=42, velocity=64, time=360),\n",
      "    Message('note_on', channel=2, note=61, velocity=96, time=0),\n",
      "    Message('note_on', channel=2, note=66, velocity=96, time=0),\n",
      "    Message('note_on', channel=2, note=70, velocity=96, time=0),\n",
      "    Message('note_off', channel=2, note=70, velocity=64, time=240),\n",
      "    Message('note_off', channel=2, note=66, velocity=64, time=0),\n",
      "    Message('note_off', channel=2, note=61, velocity=64, time=0),\n",
      "    Message('note_on', channel=2, note=61, velocity=96, time=0),\n",
      "    Message('note_on', channel=2, note=66, velocity=96, time=0),\n",
      "    Message('note_on', channel=2, note=70, velocity=96, time=0),\n",
      "    Message('note_off', channel=2, note=70, velocity=64, time=360),\n",
      "    Message('note_off', channel=2, note=66, velocity=64, time=0),\n",
      "    Message('note_off', channel=2, note=61, velocity=64, time=0),\n",
      "    Message('note_on', channel=2, note=47, velocity=96, time=0),\n",
      "    Message('note_off', channel=2, note=47, velocity=64, time=360),\n",
      "    Message('note_on', channel=2, note=61, velocity=96, time=0),\n",
      "    Message('note_on', channel=2, note=66, velocity=96, time=0),\n",
      "    Message('note_on', channel=2, note=70, velocity=96, time=0),\n",
      "    Message('note_off', channel=2, note=70, velocity=64, time=240),\n",
      "    Message('note_off', channel=2, note=66, velocity=64, time=0),\n",
      "    Message('note_off', channel=2, note=61, velocity=64, time=0),\n",
      "    Message('note_on', channel=2, note=61, velocity=96, time=0),\n",
      "    Message('note_on', channel=2, note=66, velocity=96, time=0),\n",
      "    Message('note_on', channel=2, note=71, velocity=96, time=0),\n",
      "    Message('note_off', channel=2, note=71, velocity=64, time=360),\n",
      "    Message('note_off', channel=2, note=66, velocity=64, time=0),\n",
      "    Message('note_off', channel=2, note=61, velocity=64, time=0),\n",
      "    Message('note_on', channel=2, note=44, velocity=96, time=0),\n",
      "    Message('note_off', channel=2, note=44, velocity=64, time=360),\n",
      "    Message('note_on', channel=2, note=59, velocity=96, time=0),\n",
      "    Message('note_on', channel=2, note=63, velocity=96, time=0),\n",
      "    Message('note_on', channel=2, note=68, velocity=96, time=0),\n",
      "    Message('note_off', channel=2, note=68, velocity=64, time=240),\n",
      "    Message('note_off', channel=2, note=63, velocity=64, time=0),\n",
      "    Message('note_off', channel=2, note=59, velocity=64, time=0),\n",
      "    Message('note_on', channel=2, note=59, velocity=96, time=0),\n",
      "    Message('note_on', channel=2, note=63, velocity=96, time=0),\n",
      "    Message('note_on', channel=2, note=68, velocity=96, time=0),\n",
      "    Message('note_off', channel=2, note=68, velocity=64, time=360),\n",
      "    Message('note_off', channel=2, note=63, velocity=64, time=0),\n",
      "    Message('note_off', channel=2, note=59, velocity=64, time=0),\n",
      "    Message('note_on', channel=2, note=40, velocity=96, time=0),\n",
      "    Message('note_off', channel=2, note=40, velocity=64, time=360),\n",
      "    Message('note_on', channel=2, note=59, velocity=96, time=0),\n",
      "    Message('note_on', channel=2, note=63, velocity=96, time=0),\n",
      "    Message('note_on', channel=2, note=68, velocity=96, time=0),\n",
      "    Message('note_off', channel=2, note=68, velocity=64, time=240),\n",
      "    Message('note_off', channel=2, note=63, velocity=64, time=0),\n",
      "    Message('note_off', channel=2, note=59, velocity=64, time=0),\n",
      "    Message('note_on', channel=2, note=59, velocity=96, time=0),\n",
      "    Message('note_on', channel=2, note=63, velocity=96, time=0),\n",
      "    Message('note_on', channel=2, note=68, velocity=96, time=0),\n",
      "    Message('note_off', channel=2, note=68, velocity=64, time=360),\n",
      "    Message('note_off', channel=2, note=63, velocity=64, time=0),\n",
      "    Message('note_off', channel=2, note=59, velocity=64, time=0),\n",
      "    Message('note_on', channel=2, note=42, velocity=96, time=0),\n",
      "    Message('note_off', channel=2, note=42, velocity=64, time=360),\n",
      "    Message('note_on', channel=2, note=61, velocity=96, time=0),\n",
      "    Message('note_on', channel=2, note=66, velocity=96, time=0),\n",
      "    Message('note_on', channel=2, note=70, velocity=96, time=0),\n",
      "    Message('note_off', channel=2, note=70, velocity=64, time=240),\n",
      "    Message('note_off', channel=2, note=66, velocity=64, time=0),\n",
      "    Message('note_off', channel=2, note=61, velocity=64, time=0),\n",
      "    Message('note_on', channel=2, note=61, velocity=96, time=0),\n",
      "    Message('note_on', channel=2, note=66, velocity=96, time=0),\n",
      "    Message('note_on', channel=2, note=70, velocity=96, time=0),\n",
      "    Message('note_off', channel=2, note=70, velocity=64, time=360),\n",
      "    Message('note_off', channel=2, note=66, velocity=64, time=0),\n",
      "    Message('note_off', channel=2, note=61, velocity=64, time=0),\n",
      "    Message('note_on', channel=2, note=47, velocity=96, time=0),\n",
      "    Message('note_off', channel=2, note=47, velocity=64, time=360),\n",
      "    Message('note_on', channel=2, note=61, velocity=96, time=0),\n",
      "    Message('note_on', channel=2, note=66, velocity=96, time=0),\n",
      "    Message('note_on', channel=2, note=70, velocity=96, time=0),\n",
      "    Message('note_off', channel=2, note=70, velocity=64, time=240),\n",
      "    Message('note_off', channel=2, note=66, velocity=64, time=0),\n",
      "    Message('note_off', channel=2, note=61, velocity=64, time=0),\n",
      "    Message('note_on', channel=2, note=61, velocity=96, time=0),\n",
      "    Message('note_on', channel=2, note=66, velocity=96, time=0),\n",
      "    Message('note_on', channel=2, note=71, velocity=96, time=0),\n",
      "    Message('note_off', channel=2, note=71, velocity=64, time=360),\n",
      "    Message('note_off', channel=2, note=66, velocity=64, time=0),\n",
      "    Message('note_off', channel=2, note=61, velocity=64, time=0),\n",
      "    Message('note_on', channel=2, note=44, velocity=96, time=0),\n",
      "    Message('note_off', channel=2, note=44, velocity=64, time=360),\n",
      "    Message('note_on', channel=2, note=59, velocity=96, time=0),\n",
      "    Message('note_on', channel=2, note=63, velocity=96, time=0),\n",
      "    Message('note_on', channel=2, note=68, velocity=96, time=0),\n",
      "    Message('note_off', channel=2, note=68, velocity=64, time=240),\n",
      "    Message('note_off', channel=2, note=63, velocity=64, time=0),\n",
      "    Message('note_off', channel=2, note=59, velocity=64, time=0),\n",
      "    Message('note_on', channel=2, note=59, velocity=96, time=0),\n",
      "    Message('note_on', channel=2, note=63, velocity=96, time=0),\n",
      "    Message('note_on', channel=2, note=68, velocity=96, time=0),\n",
      "    Message('note_off', channel=2, note=68, velocity=64, time=360),\n",
      "    Message('note_off', channel=2, note=63, velocity=64, time=0),\n",
      "    Message('note_off', channel=2, note=59, velocity=64, time=0),\n",
      "    Message('note_on', channel=2, note=40, velocity=96, time=0),\n",
      "    Message('note_off', channel=2, note=40, velocity=64, time=360),\n",
      "    Message('note_on', channel=2, note=59, velocity=96, time=0),\n",
      "    Message('note_on', channel=2, note=63, velocity=96, time=0),\n",
      "    Message('note_on', channel=2, note=68, velocity=96, time=0),\n",
      "    Message('note_off', channel=2, note=68, velocity=64, time=240),\n",
      "    Message('note_off', channel=2, note=63, velocity=64, time=0),\n",
      "    Message('note_off', channel=2, note=59, velocity=64, time=0),\n",
      "    Message('note_on', channel=2, note=59, velocity=96, time=0),\n",
      "    Message('note_on', channel=2, note=63, velocity=96, time=0),\n",
      "    Message('note_on', channel=2, note=68, velocity=96, time=0),\n",
      "    Message('note_off', channel=2, note=68, velocity=64, time=360),\n",
      "    Message('note_off', channel=2, note=63, velocity=64, time=0),\n",
      "    Message('note_off', channel=2, note=59, velocity=64, time=0),\n",
      "    Message('note_on', channel=2, note=42, velocity=96, time=0),\n",
      "    Message('note_off', channel=2, note=42, velocity=64, time=360),\n",
      "    Message('note_on', channel=2, note=61, velocity=96, time=0),\n",
      "    Message('note_on', channel=2, note=66, velocity=96, time=0),\n",
      "    Message('note_on', channel=2, note=70, velocity=96, time=0),\n",
      "    Message('note_off', channel=2, note=70, velocity=64, time=240),\n",
      "    Message('note_off', channel=2, note=66, velocity=64, time=0),\n",
      "    Message('note_off', channel=2, note=61, velocity=64, time=0),\n",
      "    Message('note_on', channel=2, note=61, velocity=96, time=0),\n",
      "    Message('note_on', channel=2, note=66, velocity=96, time=0),\n",
      "    Message('note_on', channel=2, note=70, velocity=96, time=0),\n",
      "    Message('note_off', channel=2, note=70, velocity=64, time=360),\n",
      "    Message('note_off', channel=2, note=66, velocity=64, time=0),\n",
      "    Message('note_off', channel=2, note=61, velocity=64, time=0),\n",
      "    Message('note_on', channel=2, note=47, velocity=96, time=0),\n",
      "    Message('note_off', channel=2, note=47, velocity=64, time=360),\n",
      "    Message('note_on', channel=2, note=61, velocity=96, time=0),\n",
      "    Message('note_on', channel=2, note=66, velocity=96, time=0),\n",
      "    Message('note_on', channel=2, note=70, velocity=96, time=0),\n",
      "    Message('note_off', channel=2, note=70, velocity=64, time=240),\n",
      "    Message('note_off', channel=2, note=66, velocity=64, time=0),\n",
      "    Message('note_off', channel=2, note=61, velocity=64, time=0),\n",
      "    Message('note_on', channel=2, note=61, velocity=96, time=0),\n",
      "    Message('note_on', channel=2, note=66, velocity=96, time=0),\n",
      "    Message('note_on', channel=2, note=71, velocity=96, time=0),\n",
      "    Message('note_off', channel=2, note=71, velocity=64, time=360),\n",
      "    Message('note_off', channel=2, note=66, velocity=64, time=0),\n",
      "    Message('note_off', channel=2, note=61, velocity=64, time=0),\n",
      "    Message('note_on', channel=2, note=44, velocity=96, time=0),\n",
      "    Message('note_off', channel=2, note=44, velocity=64, time=360),\n",
      "    Message('note_on', channel=2, note=59, velocity=96, time=0),\n",
      "    Message('note_on', channel=2, note=63, velocity=96, time=0),\n",
      "    Message('note_on', channel=2, note=68, velocity=96, time=0),\n",
      "    Message('note_off', channel=2, note=68, velocity=64, time=240),\n",
      "    Message('note_off', channel=2, note=63, velocity=64, time=0),\n",
      "    Message('note_off', channel=2, note=59, velocity=64, time=0),\n",
      "    Message('note_on', channel=2, note=59, velocity=96, time=0),\n",
      "    Message('note_on', channel=2, note=63, velocity=96, time=0),\n",
      "    Message('note_on', channel=2, note=68, velocity=96, time=0),\n",
      "    Message('note_off', channel=2, note=68, velocity=64, time=360),\n",
      "    Message('note_off', channel=2, note=63, velocity=64, time=0),\n",
      "    Message('note_off', channel=2, note=59, velocity=64, time=0),\n",
      "    Message('note_on', channel=2, note=40, velocity=96, time=0),\n",
      "    Message('note_off', channel=2, note=40, velocity=64, time=360),\n",
      "    Message('note_on', channel=2, note=59, velocity=96, time=0),\n",
      "    Message('note_on', channel=2, note=63, velocity=96, time=0),\n",
      "    Message('note_on', channel=2, note=68, velocity=96, time=0),\n",
      "    Message('note_off', channel=2, note=68, velocity=64, time=240),\n",
      "    Message('note_off', channel=2, note=63, velocity=64, time=0),\n",
      "    Message('note_off', channel=2, note=59, velocity=64, time=0),\n",
      "    Message('note_on', channel=2, note=59, velocity=96, time=0),\n",
      "    Message('note_on', channel=2, note=63, velocity=96, time=0),\n",
      "    Message('note_on', channel=2, note=68, velocity=96, time=0),\n",
      "    Message('note_off', channel=2, note=68, velocity=64, time=360),\n",
      "    Message('note_off', channel=2, note=63, velocity=64, time=0),\n",
      "    Message('note_off', channel=2, note=59, velocity=64, time=0),\n",
      "    Message('note_on', channel=2, note=44, velocity=96, time=1920),\n",
      "    Message('note_off', channel=2, note=44, velocity=64, time=360),\n",
      "    Message('note_on', channel=2, note=59, velocity=96, time=0),\n",
      "    Message('note_on', channel=2, note=63, velocity=96, time=0),\n",
      "    Message('note_on', channel=2, note=68, velocity=96, time=0),\n",
      "    Message('note_off', channel=2, note=68, velocity=64, time=240),\n",
      "    Message('note_off', channel=2, note=63, velocity=64, time=0),\n",
      "    Message('note_off', channel=2, note=59, velocity=64, time=0),\n",
      "    Message('note_on', channel=2, note=59, velocity=96, time=0),\n",
      "    Message('note_on', channel=2, note=63, velocity=96, time=0),\n",
      "    Message('note_on', channel=2, note=68, velocity=96, time=0),\n",
      "    Message('note_off', channel=2, note=68, velocity=64, time=360),\n",
      "    Message('note_off', channel=2, note=63, velocity=64, time=0),\n",
      "    Message('note_off', channel=2, note=59, velocity=64, time=0),\n",
      "    Message('note_on', channel=2, note=40, velocity=96, time=0),\n",
      "    Message('note_off', channel=2, note=40, velocity=64, time=360),\n",
      "    Message('note_on', channel=2, note=59, velocity=96, time=0),\n",
      "    Message('note_on', channel=2, note=63, velocity=96, time=0),\n",
      "    Message('note_on', channel=2, note=68, velocity=96, time=0),\n",
      "    Message('note_off', channel=2, note=68, velocity=64, time=240),\n",
      "    Message('note_off', channel=2, note=63, velocity=64, time=0),\n",
      "    Message('note_off', channel=2, note=59, velocity=64, time=0),\n",
      "    Message('note_on', channel=2, note=59, velocity=96, time=0),\n",
      "    Message('note_on', channel=2, note=63, velocity=96, time=0),\n",
      "    Message('note_on', channel=2, note=68, velocity=96, time=0),\n",
      "    Message('note_off', channel=2, note=68, velocity=64, time=360),\n",
      "    Message('note_off', channel=2, note=63, velocity=64, time=0),\n",
      "    Message('note_off', channel=2, note=59, velocity=64, time=0),\n",
      "    Message('note_on', channel=2, note=42, velocity=96, time=0),\n",
      "    Message('note_off', channel=2, note=42, velocity=64, time=360),\n",
      "    Message('note_on', channel=2, note=61, velocity=96, time=0),\n",
      "    Message('note_on', channel=2, note=66, velocity=96, time=0),\n",
      "    Message('note_on', channel=2, note=70, velocity=96, time=0),\n",
      "    Message('note_off', channel=2, note=70, velocity=64, time=240),\n",
      "    Message('note_off', channel=2, note=66, velocity=64, time=0),\n",
      "    Message('note_off', channel=2, note=61, velocity=64, time=0),\n",
      "    Message('note_on', channel=2, note=61, velocity=96, time=0),\n",
      "    Message('note_on', channel=2, note=66, velocity=96, time=0),\n",
      "    Message('note_on', channel=2, note=70, velocity=96, time=0),\n",
      "    Message('note_off', channel=2, note=70, velocity=64, time=360),\n",
      "    Message('note_off', channel=2, note=66, velocity=64, time=0),\n",
      "    Message('note_off', channel=2, note=61, velocity=64, time=0),\n",
      "    Message('note_on', channel=2, note=47, velocity=96, time=0),\n",
      "    Message('note_off', channel=2, note=47, velocity=64, time=360),\n",
      "    Message('note_on', channel=2, note=61, velocity=96, time=0),\n",
      "    Message('note_on', channel=2, note=66, velocity=96, time=0),\n",
      "    Message('note_on', channel=2, note=70, velocity=96, time=0),\n",
      "    Message('note_off', channel=2, note=70, velocity=64, time=240),\n",
      "    Message('note_off', channel=2, note=66, velocity=64, time=0),\n",
      "    Message('note_off', channel=2, note=61, velocity=64, time=0),\n",
      "    Message('note_on', channel=2, note=61, velocity=96, time=0),\n",
      "    Message('note_on', channel=2, note=66, velocity=96, time=0),\n",
      "    Message('note_on', channel=2, note=71, velocity=96, time=0),\n",
      "    Message('note_off', channel=2, note=71, velocity=64, time=360),\n",
      "    Message('note_off', channel=2, note=66, velocity=64, time=0),\n",
      "    Message('note_off', channel=2, note=61, velocity=64, time=0),\n",
      "    Message('note_on', channel=2, note=44, velocity=96, time=0),\n",
      "    Message('note_off', channel=2, note=44, velocity=64, time=360),\n",
      "    Message('note_on', channel=2, note=59, velocity=96, time=0),\n",
      "    Message('note_on', channel=2, note=63, velocity=96, time=0),\n",
      "    Message('note_on', channel=2, note=68, velocity=96, time=0),\n",
      "    Message('note_off', channel=2, note=68, velocity=64, time=240),\n",
      "    Message('note_off', channel=2, note=63, velocity=64, time=0),\n",
      "    Message('note_off', channel=2, note=59, velocity=64, time=0),\n",
      "    Message('note_on', channel=2, note=59, velocity=96, time=0),\n",
      "    Message('note_on', channel=2, note=63, velocity=96, time=0),\n",
      "    Message('note_on', channel=2, note=68, velocity=96, time=0),\n",
      "    Message('note_off', channel=2, note=68, velocity=64, time=360),\n",
      "    Message('note_off', channel=2, note=63, velocity=64, time=0),\n",
      "    Message('note_off', channel=2, note=59, velocity=64, time=0),\n",
      "    Message('note_on', channel=2, note=40, velocity=96, time=0),\n",
      "    Message('note_off', channel=2, note=40, velocity=64, time=360),\n",
      "    Message('note_on', channel=2, note=59, velocity=96, time=0),\n",
      "    Message('note_on', channel=2, note=63, velocity=96, time=0),\n",
      "    Message('note_on', channel=2, note=68, velocity=96, time=0),\n",
      "    Message('note_off', channel=2, note=68, velocity=64, time=240),\n",
      "    Message('note_off', channel=2, note=63, velocity=64, time=0),\n",
      "    Message('note_off', channel=2, note=59, velocity=64, time=0),\n",
      "    Message('note_on', channel=2, note=59, velocity=96, time=0),\n",
      "    Message('note_on', channel=2, note=63, velocity=96, time=0),\n",
      "    Message('note_on', channel=2, note=68, velocity=96, time=0),\n",
      "    Message('note_off', channel=2, note=68, velocity=64, time=360),\n",
      "    Message('note_off', channel=2, note=63, velocity=64, time=0),\n",
      "    Message('note_off', channel=2, note=59, velocity=64, time=0),\n",
      "    Message('note_on', channel=2, note=42, velocity=96, time=0),\n",
      "    Message('note_off', channel=2, note=42, velocity=64, time=360),\n",
      "    Message('note_on', channel=2, note=61, velocity=96, time=0),\n",
      "    Message('note_on', channel=2, note=66, velocity=96, time=0),\n",
      "    Message('note_on', channel=2, note=70, velocity=96, time=0),\n",
      "    Message('note_off', channel=2, note=70, velocity=64, time=240),\n",
      "    Message('note_off', channel=2, note=66, velocity=64, time=0),\n",
      "    Message('note_off', channel=2, note=61, velocity=64, time=0),\n",
      "    Message('note_on', channel=2, note=61, velocity=96, time=0),\n",
      "    Message('note_on', channel=2, note=66, velocity=96, time=0),\n",
      "    Message('note_on', channel=2, note=70, velocity=96, time=0),\n",
      "    Message('note_off', channel=2, note=70, velocity=64, time=360),\n",
      "    Message('note_off', channel=2, note=66, velocity=64, time=0),\n",
      "    Message('note_off', channel=2, note=61, velocity=64, time=0),\n",
      "    Message('note_on', channel=2, note=47, velocity=96, time=0),\n",
      "    Message('note_off', channel=2, note=47, velocity=64, time=360),\n",
      "    Message('note_on', channel=2, note=61, velocity=96, time=0),\n",
      "    Message('note_on', channel=2, note=66, velocity=96, time=0),\n",
      "    Message('note_on', channel=2, note=70, velocity=96, time=0),\n",
      "    Message('note_off', channel=2, note=70, velocity=64, time=240),\n",
      "    Message('note_off', channel=2, note=66, velocity=64, time=0),\n",
      "    Message('note_off', channel=2, note=61, velocity=64, time=0),\n",
      "    Message('note_on', channel=2, note=61, velocity=96, time=0),\n",
      "    Message('note_on', channel=2, note=66, velocity=96, time=0),\n",
      "    Message('note_on', channel=2, note=71, velocity=96, time=0),\n",
      "    Message('note_off', channel=2, note=71, velocity=64, time=360),\n",
      "    Message('note_off', channel=2, note=66, velocity=64, time=0),\n",
      "    Message('note_off', channel=2, note=61, velocity=64, time=0),\n",
      "    Message('note_on', channel=2, note=44, velocity=96, time=0),\n",
      "    Message('note_off', channel=2, note=44, velocity=64, time=360),\n",
      "    Message('note_on', channel=2, note=59, velocity=96, time=0),\n",
      "    Message('note_on', channel=2, note=63, velocity=96, time=0),\n",
      "    Message('note_on', channel=2, note=68, velocity=96, time=0),\n",
      "    Message('note_off', channel=2, note=68, velocity=64, time=240),\n",
      "    Message('note_off', channel=2, note=63, velocity=64, time=0),\n",
      "    Message('note_off', channel=2, note=59, velocity=64, time=0),\n",
      "    Message('note_on', channel=2, note=59, velocity=96, time=0),\n",
      "    Message('note_on', channel=2, note=63, velocity=96, time=0),\n",
      "    Message('note_on', channel=2, note=68, velocity=96, time=0),\n",
      "    Message('note_off', channel=2, note=68, velocity=64, time=360),\n",
      "    Message('note_off', channel=2, note=63, velocity=64, time=0),\n",
      "    Message('note_off', channel=2, note=59, velocity=64, time=0),\n",
      "    Message('note_on', channel=2, note=40, velocity=96, time=0),\n",
      "    Message('note_off', channel=2, note=40, velocity=64, time=360),\n",
      "    Message('note_on', channel=2, note=59, velocity=96, time=0),\n",
      "    Message('note_on', channel=2, note=63, velocity=96, time=0),\n",
      "    Message('note_on', channel=2, note=68, velocity=96, time=0),\n",
      "    Message('note_off', channel=2, note=68, velocity=64, time=240),\n",
      "    Message('note_off', channel=2, note=63, velocity=64, time=0),\n",
      "    Message('note_off', channel=2, note=59, velocity=64, time=0),\n",
      "    Message('note_on', channel=2, note=59, velocity=96, time=0),\n",
      "    Message('note_on', channel=2, note=63, velocity=96, time=0),\n",
      "    Message('note_on', channel=2, note=68, velocity=96, time=0),\n",
      "    Message('note_off', channel=2, note=68, velocity=64, time=360),\n",
      "    Message('note_off', channel=2, note=63, velocity=64, time=0),\n",
      "    Message('note_off', channel=2, note=59, velocity=64, time=0),\n",
      "    Message('note_on', channel=2, note=42, velocity=96, time=0),\n",
      "    Message('note_off', channel=2, note=42, velocity=64, time=360),\n",
      "    Message('note_on', channel=2, note=61, velocity=96, time=0),\n",
      "    Message('note_on', channel=2, note=66, velocity=96, time=0),\n",
      "    Message('note_on', channel=2, note=70, velocity=96, time=0),\n",
      "    Message('note_off', channel=2, note=70, velocity=64, time=240),\n",
      "    Message('note_off', channel=2, note=66, velocity=64, time=0),\n",
      "    Message('note_off', channel=2, note=61, velocity=64, time=0),\n",
      "    Message('note_on', channel=2, note=61, velocity=96, time=0),\n",
      "    Message('note_on', channel=2, note=66, velocity=96, time=0),\n",
      "    Message('note_on', channel=2, note=70, velocity=96, time=0),\n",
      "    Message('note_off', channel=2, note=70, velocity=64, time=360),\n",
      "    Message('note_off', channel=2, note=66, velocity=64, time=0),\n",
      "    Message('note_off', channel=2, note=61, velocity=64, time=0),\n",
      "    Message('note_on', channel=2, note=47, velocity=96, time=0),\n",
      "    Message('note_off', channel=2, note=47, velocity=64, time=360),\n",
      "    Message('note_on', channel=2, note=61, velocity=96, time=0),\n",
      "    Message('note_on', channel=2, note=66, velocity=96, time=0),\n",
      "    Message('note_on', channel=2, note=70, velocity=96, time=0),\n",
      "    Message('note_off', channel=2, note=70, velocity=64, time=240),\n",
      "    Message('note_off', channel=2, note=66, velocity=64, time=0),\n",
      "    Message('note_off', channel=2, note=61, velocity=64, time=0),\n",
      "    Message('note_on', channel=2, note=61, velocity=96, time=0),\n",
      "    Message('note_on', channel=2, note=66, velocity=96, time=0),\n",
      "    Message('note_on', channel=2, note=71, velocity=96, time=0),\n",
      "    Message('note_off', channel=2, note=71, velocity=64, time=360),\n",
      "    Message('note_off', channel=2, note=66, velocity=64, time=0),\n",
      "    Message('note_off', channel=2, note=61, velocity=64, time=0),\n",
      "    Message('note_on', channel=2, note=44, velocity=96, time=0),\n",
      "    Message('note_off', channel=2, note=44, velocity=64, time=360),\n",
      "    Message('note_on', channel=2, note=59, velocity=96, time=0),\n",
      "    Message('note_on', channel=2, note=63, velocity=96, time=0),\n",
      "    Message('note_on', channel=2, note=68, velocity=96, time=0),\n",
      "    Message('note_off', channel=2, note=68, velocity=64, time=240),\n",
      "    Message('note_off', channel=2, note=63, velocity=64, time=0),\n",
      "    Message('note_off', channel=2, note=59, velocity=64, time=0),\n",
      "    Message('note_on', channel=2, note=59, velocity=96, time=0),\n",
      "    Message('note_on', channel=2, note=63, velocity=96, time=0),\n",
      "    Message('note_on', channel=2, note=68, velocity=96, time=0),\n",
      "    Message('note_off', channel=2, note=68, velocity=64, time=360),\n",
      "    Message('note_off', channel=2, note=63, velocity=64, time=0),\n",
      "    Message('note_off', channel=2, note=59, velocity=64, time=0),\n",
      "    Message('note_on', channel=2, note=40, velocity=96, time=0),\n",
      "    Message('note_off', channel=2, note=40, velocity=64, time=360),\n",
      "    Message('note_on', channel=2, note=59, velocity=96, time=0),\n",
      "    Message('note_on', channel=2, note=63, velocity=96, time=0),\n",
      "    Message('note_on', channel=2, note=68, velocity=96, time=0),\n",
      "    Message('note_off', channel=2, note=68, velocity=64, time=240),\n",
      "    Message('note_off', channel=2, note=63, velocity=64, time=0),\n",
      "    Message('note_off', channel=2, note=59, velocity=64, time=0),\n",
      "    Message('note_on', channel=2, note=59, velocity=96, time=0),\n",
      "    Message('note_on', channel=2, note=63, velocity=96, time=0),\n",
      "    Message('note_on', channel=2, note=68, velocity=96, time=0),\n",
      "    Message('note_off', channel=2, note=68, velocity=64, time=360),\n",
      "    Message('note_off', channel=2, note=63, velocity=64, time=0),\n",
      "    Message('note_off', channel=2, note=59, velocity=64, time=0),\n",
      "    Message('note_on', channel=2, note=41, velocity=96, time=0),\n",
      "    Message('note_off', channel=2, note=41, velocity=64, time=360),\n",
      "    Message('note_on', channel=2, note=59, velocity=96, time=0),\n",
      "    Message('note_on', channel=2, note=63, velocity=96, time=0),\n",
      "    Message('note_on', channel=2, note=68, velocity=96, time=0),\n",
      "    Message('note_off', channel=2, note=68, velocity=64, time=240),\n",
      "    Message('note_off', channel=2, note=63, velocity=64, time=0),\n",
      "    Message('note_off', channel=2, note=59, velocity=64, time=0),\n",
      "    Message('note_on', channel=2, note=59, velocity=96, time=0),\n",
      "    Message('note_on', channel=2, note=63, velocity=96, time=0),\n",
      "    Message('note_on', channel=2, note=68, velocity=96, time=0),\n",
      "    Message('note_off', channel=2, note=68, velocity=64, time=360),\n",
      "    Message('note_off', channel=2, note=63, velocity=64, time=0),\n",
      "    Message('note_off', channel=2, note=59, velocity=64, time=0),\n",
      "    Message('note_on', channel=2, note=40, velocity=96, time=0),\n",
      "    Message('note_off', channel=2, note=40, velocity=64, time=360),\n",
      "    Message('note_on', channel=2, note=59, velocity=96, time=0),\n",
      "    Message('note_on', channel=2, note=63, velocity=96, time=0),\n",
      "    Message('note_on', channel=2, note=68, velocity=96, time=0),\n",
      "    Message('note_off', channel=2, note=68, velocity=64, time=240),\n",
      "    Message('note_off', channel=2, note=63, velocity=64, time=0),\n",
      "    Message('note_off', channel=2, note=59, velocity=64, time=0),\n",
      "    Message('note_on', channel=2, note=59, velocity=96, time=0),\n",
      "    Message('note_on', channel=2, note=63, velocity=96, time=0),\n",
      "    Message('note_on', channel=2, note=68, velocity=96, time=0),\n",
      "    Message('note_off', channel=2, note=68, velocity=64, time=360),\n",
      "    Message('note_off', channel=2, note=63, velocity=64, time=0),\n",
      "    Message('note_off', channel=2, note=59, velocity=64, time=0),\n",
      "    Message('note_on', channel=2, note=44, velocity=96, time=0),\n",
      "    Message('note_off', channel=2, note=44, velocity=64, time=360),\n",
      "    Message('note_on', channel=2, note=59, velocity=96, time=0),\n",
      "    Message('note_on', channel=2, note=63, velocity=96, time=0),\n",
      "    Message('note_on', channel=2, note=68, velocity=96, time=0),\n",
      "    Message('note_off', channel=2, note=68, velocity=64, time=240),\n",
      "    Message('note_off', channel=2, note=63, velocity=64, time=0),\n",
      "    Message('note_off', channel=2, note=59, velocity=64, time=0),\n",
      "    Message('note_on', channel=2, note=59, velocity=96, time=0),\n",
      "    Message('note_on', channel=2, note=63, velocity=96, time=0),\n",
      "    Message('note_on', channel=2, note=68, velocity=96, time=0),\n",
      "    Message('note_off', channel=2, note=68, velocity=64, time=360),\n",
      "    Message('note_off', channel=2, note=63, velocity=64, time=0),\n",
      "    Message('note_off', channel=2, note=59, velocity=64, time=0),\n",
      "    Message('note_on', channel=2, note=40, velocity=96, time=0),\n",
      "    Message('note_off', channel=2, note=40, velocity=64, time=360),\n",
      "    Message('note_on', channel=2, note=59, velocity=96, time=0),\n",
      "    Message('note_on', channel=2, note=63, velocity=96, time=0),\n",
      "    Message('note_on', channel=2, note=68, velocity=96, time=0),\n",
      "    Message('note_off', channel=2, note=68, velocity=64, time=240),\n",
      "    Message('note_off', channel=2, note=63, velocity=64, time=0),\n",
      "    Message('note_off', channel=2, note=59, velocity=64, time=0),\n",
      "    Message('note_on', channel=2, note=59, velocity=96, time=0),\n",
      "    Message('note_on', channel=2, note=63, velocity=96, time=0),\n",
      "    Message('note_on', channel=2, note=68, velocity=96, time=0),\n",
      "    Message('note_off', channel=2, note=68, velocity=64, time=360),\n",
      "    Message('note_off', channel=2, note=63, velocity=64, time=0),\n",
      "    Message('note_off', channel=2, note=59, velocity=64, time=0),\n",
      "    Message('note_on', channel=2, note=42, velocity=96, time=0),\n",
      "    Message('note_off', channel=2, note=42, velocity=64, time=360),\n",
      "    Message('note_on', channel=2, note=61, velocity=96, time=0),\n",
      "    Message('note_on', channel=2, note=66, velocity=96, time=0),\n",
      "    Message('note_on', channel=2, note=70, velocity=96, time=0),\n",
      "    Message('note_off', channel=2, note=70, velocity=64, time=240),\n",
      "    Message('note_off', channel=2, note=66, velocity=64, time=0),\n",
      "    Message('note_off', channel=2, note=61, velocity=64, time=0),\n",
      "    Message('note_on', channel=2, note=61, velocity=96, time=0),\n",
      "    Message('note_on', channel=2, note=66, velocity=96, time=0),\n",
      "    Message('note_on', channel=2, note=70, velocity=96, time=0),\n",
      "    Message('note_off', channel=2, note=70, velocity=64, time=360),\n",
      "    Message('note_off', channel=2, note=66, velocity=64, time=0),\n",
      "    Message('note_off', channel=2, note=61, velocity=64, time=0),\n",
      "    Message('note_on', channel=2, note=47, velocity=96, time=0),\n",
      "    Message('note_off', channel=2, note=47, velocity=64, time=360),\n",
      "    Message('note_on', channel=2, note=61, velocity=96, time=0),\n",
      "    Message('note_on', channel=2, note=66, velocity=96, time=0),\n",
      "    Message('note_on', channel=2, note=70, velocity=96, time=0),\n",
      "    Message('note_off', channel=2, note=70, velocity=64, time=240),\n",
      "    Message('note_off', channel=2, note=66, velocity=64, time=0),\n",
      "    Message('note_off', channel=2, note=61, velocity=64, time=0),\n",
      "    Message('note_on', channel=2, note=61, velocity=96, time=0),\n",
      "    Message('note_on', channel=2, note=66, velocity=96, time=0),\n",
      "    Message('note_on', channel=2, note=71, velocity=96, time=0),\n",
      "    Message('note_off', channel=2, note=71, velocity=64, time=360),\n",
      "    Message('note_off', channel=2, note=66, velocity=64, time=0),\n",
      "    Message('note_off', channel=2, note=61, velocity=64, time=0),\n",
      "    Message('note_on', channel=2, note=44, velocity=96, time=0),\n",
      "    Message('note_off', channel=2, note=44, velocity=64, time=360),\n",
      "    Message('note_on', channel=2, note=59, velocity=96, time=0),\n",
      "    Message('note_on', channel=2, note=63, velocity=96, time=0),\n",
      "    Message('note_on', channel=2, note=68, velocity=96, time=0),\n",
      "    Message('note_off', channel=2, note=68, velocity=64, time=240),\n",
      "    Message('note_off', channel=2, note=63, velocity=64, time=0),\n",
      "    Message('note_off', channel=2, note=59, velocity=64, time=0),\n",
      "    Message('note_on', channel=2, note=59, velocity=96, time=0),\n",
      "    Message('note_on', channel=2, note=63, velocity=96, time=0),\n",
      "    Message('note_on', channel=2, note=68, velocity=96, time=0),\n",
      "    Message('note_off', channel=2, note=68, velocity=64, time=360),\n",
      "    Message('note_off', channel=2, note=63, velocity=64, time=0),\n",
      "    Message('note_off', channel=2, note=59, velocity=64, time=0),\n",
      "    Message('note_on', channel=2, note=40, velocity=96, time=0),\n",
      "    Message('note_off', channel=2, note=40, velocity=64, time=360),\n",
      "    Message('note_on', channel=2, note=59, velocity=96, time=0),\n",
      "    Message('note_on', channel=2, note=63, velocity=96, time=0),\n",
      "    Message('note_on', channel=2, note=68, velocity=96, time=0),\n",
      "    Message('note_off', channel=2, note=68, velocity=64, time=240),\n",
      "    Message('note_off', channel=2, note=63, velocity=64, time=0),\n",
      "    Message('note_off', channel=2, note=59, velocity=64, time=0),\n",
      "    Message('note_on', channel=2, note=59, velocity=96, time=0),\n",
      "    Message('note_on', channel=2, note=63, velocity=96, time=0),\n",
      "    Message('note_on', channel=2, note=68, velocity=96, time=0),\n",
      "    Message('note_off', channel=2, note=68, velocity=64, time=360),\n",
      "    Message('note_off', channel=2, note=63, velocity=64, time=0),\n",
      "    Message('note_off', channel=2, note=59, velocity=64, time=0),\n",
      "    Message('note_on', channel=2, note=42, velocity=96, time=0),\n",
      "    Message('note_off', channel=2, note=42, velocity=64, time=360),\n",
      "    Message('note_on', channel=2, note=61, velocity=96, time=0),\n",
      "    Message('note_on', channel=2, note=66, velocity=96, time=0),\n",
      "    Message('note_on', channel=2, note=70, velocity=96, time=0),\n",
      "    Message('note_off', channel=2, note=70, velocity=64, time=240),\n",
      "    Message('note_off', channel=2, note=66, velocity=64, time=0),\n",
      "    Message('note_off', channel=2, note=61, velocity=64, time=0),\n",
      "    Message('note_on', channel=2, note=61, velocity=96, time=0),\n",
      "    Message('note_on', channel=2, note=66, velocity=96, time=0),\n",
      "    Message('note_on', channel=2, note=70, velocity=96, time=0),\n",
      "    Message('note_off', channel=2, note=70, velocity=64, time=360),\n",
      "    Message('note_off', channel=2, note=66, velocity=64, time=0),\n",
      "    Message('note_off', channel=2, note=61, velocity=64, time=0),\n",
      "    Message('note_on', channel=2, note=47, velocity=96, time=0),\n",
      "    Message('note_off', channel=2, note=47, velocity=64, time=360),\n",
      "    Message('note_on', channel=2, note=61, velocity=96, time=0),\n",
      "    Message('note_on', channel=2, note=66, velocity=96, time=0),\n",
      "    Message('note_on', channel=2, note=70, velocity=96, time=0),\n",
      "    Message('note_off', channel=2, note=70, velocity=64, time=240),\n",
      "    Message('note_off', channel=2, note=66, velocity=64, time=0),\n",
      "    Message('note_off', channel=2, note=61, velocity=64, time=0),\n",
      "    Message('note_on', channel=2, note=61, velocity=96, time=0),\n",
      "    Message('note_on', channel=2, note=66, velocity=96, time=0),\n",
      "    Message('note_on', channel=2, note=71, velocity=96, time=0),\n",
      "    Message('note_off', channel=2, note=71, velocity=64, time=360),\n",
      "    Message('note_off', channel=2, note=66, velocity=64, time=0),\n",
      "    Message('note_off', channel=2, note=61, velocity=64, time=0),\n",
      "    Message('note_on', channel=2, note=44, velocity=96, time=0),\n",
      "    Message('note_off', channel=2, note=44, velocity=64, time=360),\n",
      "    Message('note_on', channel=2, note=59, velocity=96, time=0),\n",
      "    Message('note_on', channel=2, note=63, velocity=96, time=0),\n",
      "    Message('note_on', channel=2, note=68, velocity=96, time=0),\n",
      "    Message('note_off', channel=2, note=68, velocity=64, time=240),\n",
      "    Message('note_off', channel=2, note=63, velocity=64, time=0),\n",
      "    Message('note_off', channel=2, note=59, velocity=64, time=0),\n",
      "    Message('note_on', channel=2, note=59, velocity=96, time=0),\n",
      "    Message('note_on', channel=2, note=63, velocity=96, time=0),\n",
      "    Message('note_on', channel=2, note=68, velocity=96, time=0),\n",
      "    Message('note_off', channel=2, note=68, velocity=64, time=360),\n",
      "    Message('note_off', channel=2, note=63, velocity=64, time=0),\n",
      "    Message('note_off', channel=2, note=59, velocity=64, time=0),\n",
      "    Message('note_on', channel=2, note=40, velocity=96, time=0),\n",
      "    Message('note_off', channel=2, note=40, velocity=64, time=360),\n",
      "    Message('note_on', channel=2, note=59, velocity=96, time=0),\n",
      "    Message('note_on', channel=2, note=63, velocity=96, time=0),\n",
      "    Message('note_on', channel=2, note=68, velocity=96, time=0),\n",
      "    Message('note_off', channel=2, note=68, velocity=64, time=240),\n",
      "    Message('note_off', channel=2, note=63, velocity=64, time=0),\n",
      "    Message('note_off', channel=2, note=59, velocity=64, time=0),\n",
      "    Message('note_on', channel=2, note=59, velocity=96, time=0),\n",
      "    Message('note_on', channel=2, note=63, velocity=96, time=0),\n",
      "    Message('note_on', channel=2, note=68, velocity=96, time=0),\n",
      "    Message('note_off', channel=2, note=68, velocity=64, time=360),\n",
      "    Message('note_off', channel=2, note=63, velocity=64, time=0),\n",
      "    Message('note_off', channel=2, note=59, velocity=64, time=0),\n",
      "    Message('note_on', channel=2, note=42, velocity=96, time=0),\n",
      "    Message('note_off', channel=2, note=42, velocity=64, time=360),\n",
      "    Message('note_on', channel=2, note=61, velocity=96, time=0),\n",
      "    Message('note_on', channel=2, note=66, velocity=96, time=0),\n",
      "    Message('note_on', channel=2, note=70, velocity=96, time=0),\n",
      "    Message('note_off', channel=2, note=70, velocity=64, time=240),\n",
      "    Message('note_off', channel=2, note=66, velocity=64, time=0),\n",
      "    Message('note_off', channel=2, note=61, velocity=64, time=0),\n",
      "    Message('note_on', channel=2, note=61, velocity=96, time=0),\n",
      "    Message('note_on', channel=2, note=66, velocity=96, time=0),\n",
      "    Message('note_on', channel=2, note=70, velocity=96, time=0),\n",
      "    Message('note_off', channel=2, note=70, velocity=64, time=360),\n",
      "    Message('note_off', channel=2, note=66, velocity=64, time=0),\n",
      "    Message('note_off', channel=2, note=61, velocity=64, time=0),\n",
      "    Message('note_on', channel=2, note=47, velocity=96, time=0),\n",
      "    Message('note_off', channel=2, note=47, velocity=64, time=360),\n",
      "    Message('note_on', channel=2, note=61, velocity=96, time=0),\n",
      "    Message('note_on', channel=2, note=66, velocity=96, time=0),\n",
      "    Message('note_on', channel=2, note=70, velocity=96, time=0),\n",
      "    Message('note_off', channel=2, note=70, velocity=64, time=240),\n",
      "    Message('note_off', channel=2, note=66, velocity=64, time=0),\n",
      "    Message('note_off', channel=2, note=61, velocity=64, time=0),\n",
      "    Message('note_on', channel=2, note=61, velocity=96, time=0),\n",
      "    Message('note_on', channel=2, note=66, velocity=96, time=0),\n",
      "    Message('note_on', channel=2, note=71, velocity=96, time=0),\n",
      "    Message('note_off', channel=2, note=71, velocity=64, time=360),\n",
      "    Message('note_off', channel=2, note=66, velocity=64, time=0),\n",
      "    Message('note_off', channel=2, note=61, velocity=64, time=0),\n",
      "    Message('note_on', channel=2, note=44, velocity=96, time=0),\n",
      "    Message('note_off', channel=2, note=44, velocity=64, time=360),\n",
      "    Message('note_on', channel=2, note=59, velocity=96, time=0),\n",
      "    Message('note_on', channel=2, note=63, velocity=96, time=0),\n",
      "    Message('note_on', channel=2, note=68, velocity=96, time=0),\n",
      "    Message('note_off', channel=2, note=68, velocity=64, time=240),\n",
      "    Message('note_off', channel=2, note=63, velocity=64, time=0),\n",
      "    Message('note_off', channel=2, note=59, velocity=64, time=0),\n",
      "    Message('note_on', channel=2, note=59, velocity=96, time=0),\n",
      "    Message('note_on', channel=2, note=63, velocity=96, time=0),\n",
      "    Message('note_on', channel=2, note=68, velocity=96, time=0),\n",
      "    Message('note_off', channel=2, note=68, velocity=64, time=360),\n",
      "    Message('note_off', channel=2, note=63, velocity=64, time=0),\n",
      "    Message('note_off', channel=2, note=59, velocity=64, time=0),\n",
      "    Message('note_on', channel=2, note=40, velocity=96, time=0),\n",
      "    Message('note_off', channel=2, note=40, velocity=64, time=360),\n",
      "    Message('note_on', channel=2, note=59, velocity=96, time=0),\n",
      "    Message('note_on', channel=2, note=63, velocity=96, time=0),\n",
      "    Message('note_on', channel=2, note=68, velocity=96, time=0),\n",
      "    Message('note_off', channel=2, note=68, velocity=64, time=240),\n",
      "    Message('note_off', channel=2, note=63, velocity=64, time=0),\n",
      "    Message('note_off', channel=2, note=59, velocity=64, time=0),\n",
      "    Message('note_on', channel=2, note=59, velocity=96, time=0),\n",
      "    Message('note_on', channel=2, note=63, velocity=96, time=0),\n",
      "    Message('note_on', channel=2, note=68, velocity=96, time=0),\n",
      "    Message('note_off', channel=2, note=68, velocity=64, time=360),\n",
      "    Message('note_off', channel=2, note=63, velocity=64, time=0),\n",
      "    Message('note_off', channel=2, note=59, velocity=64, time=0),\n",
      "    Message('note_on', channel=2, note=44, velocity=96, time=13440),\n",
      "    Message('note_on', channel=2, note=51, velocity=96, time=0),\n",
      "    Message('note_on', channel=2, note=56, velocity=96, time=0),\n",
      "    Message('note_on', channel=2, note=59, velocity=96, time=0),\n",
      "    Message('note_on', channel=2, note=63, velocity=96, time=0),\n",
      "    Message('note_off', channel=2, note=63, velocity=64, time=360),\n",
      "    Message('note_off', channel=2, note=59, velocity=64, time=0),\n",
      "    Message('note_off', channel=2, note=56, velocity=64, time=0),\n",
      "    Message('note_off', channel=2, note=51, velocity=64, time=0),\n",
      "    Message('note_off', channel=2, note=44, velocity=64, time=0),\n",
      "    Message('note_on', channel=2, note=56, velocity=96, time=0),\n",
      "    Message('note_on', channel=2, note=59, velocity=96, time=0),\n",
      "    Message('note_off', channel=2, note=59, velocity=64, time=120),\n",
      "    Message('note_off', channel=2, note=56, velocity=64, time=0),\n",
      "    Message('note_on', channel=2, note=51, velocity=96, time=0),\n",
      "    Message('note_on', channel=2, note=59, velocity=96, time=0),\n",
      "    Message('note_on', channel=2, note=63, velocity=96, time=0),\n",
      "    Message('note_off', channel=2, note=63, velocity=64, time=480),\n",
      "    Message('note_off', channel=2, note=59, velocity=64, time=0),\n",
      "    Message('note_off', channel=2, note=51, velocity=64, time=0),\n",
      "    Message('note_on', channel=2, note=40, velocity=96, time=0),\n",
      "    Message('note_on', channel=2, note=47, velocity=96, time=0),\n",
      "    Message('note_on', channel=2, note=52, velocity=96, time=0),\n",
      "    Message('note_on', channel=2, note=56, velocity=96, time=0),\n",
      "    Message('note_off', channel=2, note=56, velocity=64, time=360),\n",
      "    Message('note_off', channel=2, note=52, velocity=64, time=0),\n",
      "    Message('note_off', channel=2, note=47, velocity=64, time=0),\n",
      "    Message('note_off', channel=2, note=40, velocity=64, time=0),\n",
      "    Message('note_on', channel=2, note=52, velocity=96, time=0),\n",
      "    Message('note_on', channel=2, note=56, velocity=96, time=0),\n",
      "    Message('note_off', channel=2, note=56, velocity=64, time=120),\n",
      "    Message('note_off', channel=2, note=52, velocity=64, time=0),\n",
      "    Message('note_on', channel=2, note=40, velocity=96, time=0),\n",
      "    Message('note_on', channel=2, note=52, velocity=96, time=0),\n",
      "    Message('note_on', channel=2, note=56, velocity=96, time=0),\n",
      "    Message('note_on', channel=2, note=59, velocity=96, time=0),\n",
      "    Message('note_off', channel=2, note=59, velocity=64, time=480),\n",
      "    Message('note_off', channel=2, note=56, velocity=64, time=0),\n",
      "    Message('note_off', channel=2, note=52, velocity=64, time=0),\n",
      "    Message('note_off', channel=2, note=40, velocity=64, time=0),\n",
      "    Message('note_on', channel=2, note=42, velocity=96, time=0),\n",
      "    Message('note_on', channel=2, note=49, velocity=96, time=0),\n",
      "    Message('note_on', channel=2, note=54, velocity=96, time=0),\n",
      "    Message('note_on', channel=2, note=58, velocity=96, time=0),\n",
      "    Message('note_off', channel=2, note=58, velocity=64, time=360),\n",
      "    Message('note_off', channel=2, note=54, velocity=64, time=0),\n",
      "    Message('note_off', channel=2, note=49, velocity=64, time=0),\n",
      "    Message('note_off', channel=2, note=42, velocity=64, time=0),\n",
      "    Message('note_on', channel=2, note=54, velocity=96, time=0),\n",
      "    Message('note_on', channel=2, note=58, velocity=96, time=0),\n",
      "    Message('note_off', channel=2, note=58, velocity=64, time=120),\n",
      "    Message('note_off', channel=2, note=54, velocity=64, time=0),\n",
      "    Message('note_on', channel=2, note=42, velocity=96, time=0),\n",
      "    Message('note_on', channel=2, note=49, velocity=96, time=0),\n",
      "    Message('note_on', channel=2, note=58, velocity=96, time=0),\n",
      "    Message('note_on', channel=2, note=61, velocity=96, time=0),\n",
      "    Message('note_off', channel=2, note=61, velocity=64, time=480),\n",
      "    Message('note_off', channel=2, note=58, velocity=64, time=0),\n",
      "    Message('note_off', channel=2, note=49, velocity=64, time=0),\n",
      "    Message('note_off', channel=2, note=42, velocity=64, time=0),\n",
      "    Message('note_on', channel=2, note=47, velocity=96, time=0),\n",
      "    Message('note_on', channel=2, note=54, velocity=96, time=0),\n",
      "    Message('note_on', channel=2, note=59, velocity=96, time=0),\n",
      "    Message('note_on', channel=2, note=66, velocity=96, time=0),\n",
      "    Message('note_off', channel=2, note=66, velocity=64, time=240),\n",
      "    Message('note_off', channel=2, note=59, velocity=64, time=0),\n",
      "    Message('note_off', channel=2, note=54, velocity=64, time=0),\n",
      "    Message('note_off', channel=2, note=47, velocity=64, time=0),\n",
      "    Message('note_on', channel=2, note=54, velocity=96, time=0),\n",
      "    Message('note_on', channel=2, note=59, velocity=96, time=0),\n",
      "    Message('note_on', channel=2, note=63, velocity=96, time=0),\n",
      "    Message('note_off', channel=2, note=63, velocity=64, time=240),\n",
      "    Message('note_off', channel=2, note=59, velocity=64, time=0),\n",
      "    Message('note_off', channel=2, note=54, velocity=64, time=0),\n",
      "    Message('note_on', channel=2, note=46, velocity=96, time=0),\n",
      "    Message('note_on', channel=2, note=54, velocity=96, time=0),\n",
      "    Message('note_off', channel=2, note=54, velocity=64, time=240),\n",
      "    Message('note_off', channel=2, note=46, velocity=64, time=0),\n",
      "    Message('note_on', channel=2, note=54, velocity=96, time=0),\n",
      "    Message('note_on', channel=2, note=59, velocity=96, time=0),\n",
      "    Message('note_on', channel=2, note=63, velocity=96, time=0),\n",
      "    Message('note_off', channel=2, note=63, velocity=64, time=240),\n",
      "    Message('note_off', channel=2, note=59, velocity=64, time=0),\n",
      "    Message('note_off', channel=2, note=54, velocity=64, time=0),\n",
      "    Message('note_on', channel=2, note=44, velocity=96, time=0),\n",
      "    Message('note_on', channel=2, note=51, velocity=96, time=0),\n",
      "    Message('note_on', channel=2, note=56, velocity=96, time=0),\n",
      "    Message('note_on', channel=2, note=59, velocity=96, time=0),\n",
      "    Message('note_on', channel=2, note=63, velocity=96, time=0),\n",
      "    Message('note_off', channel=2, note=63, velocity=64, time=360),\n",
      "    Message('note_off', channel=2, note=59, velocity=64, time=0),\n",
      "    Message('note_off', channel=2, note=56, velocity=64, time=0),\n",
      "    Message('note_off', channel=2, note=51, velocity=64, time=0),\n",
      "    Message('note_off', channel=2, note=44, velocity=64, time=0),\n",
      "    Message('note_on', channel=2, note=56, velocity=96, time=0),\n",
      "    Message('note_on', channel=2, note=59, velocity=96, time=0),\n",
      "    Message('note_off', channel=2, note=59, velocity=64, time=120),\n",
      "    Message('note_off', channel=2, note=56, velocity=64, time=0),\n",
      "    Message('note_on', channel=2, note=51, velocity=96, time=0),\n",
      "    Message('note_on', channel=2, note=59, velocity=96, time=0),\n",
      "    Message('note_on', channel=2, note=63, velocity=96, time=0),\n",
      "    Message('note_off', channel=2, note=63, velocity=64, time=480),\n",
      "    Message('note_off', channel=2, note=59, velocity=64, time=0),\n",
      "    Message('note_off', channel=2, note=51, velocity=64, time=0),\n",
      "    Message('note_on', channel=2, note=40, velocity=96, time=0),\n",
      "    Message('note_on', channel=2, note=47, velocity=96, time=0),\n",
      "    Message('note_on', channel=2, note=52, velocity=96, time=0),\n",
      "    Message('note_on', channel=2, note=56, velocity=96, time=0),\n",
      "    Message('note_off', channel=2, note=56, velocity=64, time=360),\n",
      "    Message('note_off', channel=2, note=52, velocity=64, time=0),\n",
      "    Message('note_off', channel=2, note=47, velocity=64, time=0),\n",
      "    Message('note_off', channel=2, note=40, velocity=64, time=0),\n",
      "    Message('note_on', channel=2, note=52, velocity=96, time=0),\n",
      "    Message('note_on', channel=2, note=56, velocity=96, time=0),\n",
      "    Message('note_off', channel=2, note=56, velocity=64, time=120),\n",
      "    Message('note_off', channel=2, note=52, velocity=64, time=0),\n",
      "    Message('note_on', channel=2, note=40, velocity=96, time=0),\n",
      "    Message('note_on', channel=2, note=52, velocity=96, time=0),\n",
      "    Message('note_on', channel=2, note=56, velocity=96, time=0),\n",
      "    Message('note_on', channel=2, note=59, velocity=96, time=0),\n",
      "    Message('note_off', channel=2, note=59, velocity=64, time=480),\n",
      "    Message('note_off', channel=2, note=56, velocity=64, time=0),\n",
      "    Message('note_off', channel=2, note=52, velocity=64, time=0),\n",
      "    Message('note_off', channel=2, note=40, velocity=64, time=0),\n",
      "    Message('note_on', channel=2, note=42, velocity=96, time=0),\n",
      "    Message('note_on', channel=2, note=49, velocity=96, time=0),\n",
      "    Message('note_on', channel=2, note=54, velocity=96, time=0),\n",
      "    Message('note_on', channel=2, note=58, velocity=96, time=0),\n",
      "    Message('note_off', channel=2, note=58, velocity=64, time=360),\n",
      "    Message('note_off', channel=2, note=54, velocity=64, time=0),\n",
      "    Message('note_off', channel=2, note=49, velocity=64, time=0),\n",
      "    Message('note_off', channel=2, note=42, velocity=64, time=0),\n",
      "    Message('note_on', channel=2, note=54, velocity=96, time=0),\n",
      "    Message('note_on', channel=2, note=58, velocity=96, time=0),\n",
      "    Message('note_off', channel=2, note=58, velocity=64, time=120),\n",
      "    Message('note_off', channel=2, note=54, velocity=64, time=0),\n",
      "    Message('note_on', channel=2, note=42, velocity=96, time=0),\n",
      "    Message('note_on', channel=2, note=49, velocity=96, time=0),\n",
      "    Message('note_on', channel=2, note=58, velocity=96, time=0),\n",
      "    Message('note_on', channel=2, note=61, velocity=96, time=0),\n",
      "    Message('note_off', channel=2, note=61, velocity=64, time=480),\n",
      "    Message('note_off', channel=2, note=58, velocity=64, time=0),\n",
      "    Message('note_off', channel=2, note=49, velocity=64, time=0),\n",
      "    Message('note_off', channel=2, note=42, velocity=64, time=0),\n",
      "    Message('note_on', channel=2, note=47, velocity=96, time=0),\n",
      "    Message('note_on', channel=2, note=54, velocity=96, time=0),\n",
      "    Message('note_on', channel=2, note=59, velocity=96, time=0),\n",
      "    Message('note_on', channel=2, note=66, velocity=96, time=0),\n",
      "    Message('note_off', channel=2, note=66, velocity=64, time=240),\n",
      "    Message('note_off', channel=2, note=59, velocity=64, time=0),\n",
      "    Message('note_off', channel=2, note=54, velocity=64, time=0),\n",
      "    Message('note_off', channel=2, note=47, velocity=64, time=0),\n",
      "    Message('note_on', channel=2, note=54, velocity=96, time=0),\n",
      "    Message('note_on', channel=2, note=59, velocity=96, time=0),\n",
      "    Message('note_on', channel=2, note=63, velocity=96, time=0),\n",
      "    Message('note_off', channel=2, note=63, velocity=64, time=240),\n",
      "    Message('note_off', channel=2, note=59, velocity=64, time=0),\n",
      "    Message('note_off', channel=2, note=54, velocity=64, time=0),\n",
      "    Message('note_on', channel=2, note=46, velocity=96, time=0),\n",
      "    Message('note_on', channel=2, note=54, velocity=96, time=0),\n",
      "    Message('note_off', channel=2, note=54, velocity=64, time=240),\n",
      "    Message('note_off', channel=2, note=46, velocity=64, time=0),\n",
      "    Message('note_on', channel=2, note=54, velocity=96, time=0),\n",
      "    Message('note_on', channel=2, note=59, velocity=96, time=0),\n",
      "    Message('note_on', channel=2, note=63, velocity=96, time=0),\n",
      "    Message('note_off', channel=2, note=63, velocity=64, time=240),\n",
      "    Message('note_off', channel=2, note=59, velocity=64, time=0),\n",
      "    Message('note_off', channel=2, note=54, velocity=64, time=0),\n",
      "    Message('note_on', channel=2, note=44, velocity=96, time=0),\n",
      "    Message('note_on', channel=2, note=51, velocity=96, time=0),\n",
      "    Message('note_on', channel=2, note=56, velocity=96, time=0),\n",
      "    Message('note_on', channel=2, note=59, velocity=96, time=0),\n",
      "    Message('note_on', channel=2, note=63, velocity=96, time=0),\n",
      "    Message('note_off', channel=2, note=63, velocity=64, time=360),\n",
      "    Message('note_off', channel=2, note=59, velocity=64, time=0),\n",
      "    Message('note_off', channel=2, note=56, velocity=64, time=0),\n",
      "    Message('note_off', channel=2, note=51, velocity=64, time=0),\n",
      "    Message('note_off', channel=2, note=44, velocity=64, time=0),\n",
      "    Message('note_on', channel=2, note=56, velocity=96, time=0),\n",
      "    Message('note_on', channel=2, note=59, velocity=96, time=0),\n",
      "    Message('note_off', channel=2, note=59, velocity=64, time=120),\n",
      "    Message('note_off', channel=2, note=56, velocity=64, time=0),\n",
      "    Message('note_on', channel=2, note=51, velocity=96, time=0),\n",
      "    Message('note_on', channel=2, note=59, velocity=96, time=0),\n",
      "    Message('note_on', channel=2, note=63, velocity=96, time=0),\n",
      "    Message('note_off', channel=2, note=63, velocity=64, time=480),\n",
      "    Message('note_off', channel=2, note=59, velocity=64, time=0),\n",
      "    Message('note_off', channel=2, note=51, velocity=64, time=0),\n",
      "    Message('note_on', channel=2, note=40, velocity=96, time=0),\n",
      "    Message('note_on', channel=2, note=47, velocity=96, time=0),\n",
      "    Message('note_on', channel=2, note=52, velocity=96, time=0),\n",
      "    Message('note_on', channel=2, note=56, velocity=96, time=0),\n",
      "    Message('note_off', channel=2, note=56, velocity=64, time=360),\n",
      "    Message('note_off', channel=2, note=52, velocity=64, time=0),\n",
      "    Message('note_off', channel=2, note=47, velocity=64, time=0),\n",
      "    Message('note_off', channel=2, note=40, velocity=64, time=0),\n",
      "    Message('note_on', channel=2, note=52, velocity=96, time=0),\n",
      "    Message('note_on', channel=2, note=56, velocity=96, time=0),\n",
      "    Message('note_off', channel=2, note=56, velocity=64, time=120),\n",
      "    Message('note_off', channel=2, note=52, velocity=64, time=0),\n",
      "    Message('note_on', channel=2, note=40, velocity=96, time=0),\n",
      "    Message('note_on', channel=2, note=52, velocity=96, time=0),\n",
      "    Message('note_on', channel=2, note=56, velocity=96, time=0),\n",
      "    Message('note_on', channel=2, note=59, velocity=96, time=0),\n",
      "    Message('note_off', channel=2, note=59, velocity=64, time=480),\n",
      "    Message('note_off', channel=2, note=56, velocity=64, time=0),\n",
      "    Message('note_off', channel=2, note=52, velocity=64, time=0),\n",
      "    Message('note_off', channel=2, note=40, velocity=64, time=0),\n",
      "    Message('note_on', channel=2, note=42, velocity=96, time=0),\n",
      "    Message('note_on', channel=2, note=49, velocity=96, time=0),\n",
      "    Message('note_on', channel=2, note=54, velocity=96, time=0),\n",
      "    Message('note_on', channel=2, note=58, velocity=96, time=0),\n",
      "    Message('note_off', channel=2, note=58, velocity=64, time=360),\n",
      "    Message('note_off', channel=2, note=54, velocity=64, time=0),\n",
      "    Message('note_off', channel=2, note=49, velocity=64, time=0),\n",
      "    Message('note_off', channel=2, note=42, velocity=64, time=0),\n",
      "    Message('note_on', channel=2, note=54, velocity=96, time=0),\n",
      "    Message('note_on', channel=2, note=58, velocity=96, time=0),\n",
      "    Message('note_off', channel=2, note=58, velocity=64, time=120),\n",
      "    Message('note_off', channel=2, note=54, velocity=64, time=0),\n",
      "    Message('note_on', channel=2, note=42, velocity=96, time=0),\n",
      "    Message('note_on', channel=2, note=49, velocity=96, time=0),\n",
      "    Message('note_on', channel=2, note=58, velocity=96, time=0),\n",
      "    Message('note_on', channel=2, note=61, velocity=96, time=0),\n",
      "    Message('note_off', channel=2, note=61, velocity=64, time=480),\n",
      "    Message('note_off', channel=2, note=58, velocity=64, time=0),\n",
      "    Message('note_off', channel=2, note=49, velocity=64, time=0),\n",
      "    Message('note_off', channel=2, note=42, velocity=64, time=0),\n",
      "    Message('note_on', channel=2, note=47, velocity=96, time=0),\n",
      "    Message('note_on', channel=2, note=54, velocity=96, time=0),\n",
      "    Message('note_on', channel=2, note=59, velocity=96, time=0),\n",
      "    Message('note_on', channel=2, note=66, velocity=96, time=0),\n",
      "    Message('note_off', channel=2, note=66, velocity=64, time=240),\n",
      "    Message('note_off', channel=2, note=59, velocity=64, time=0),\n",
      "    Message('note_off', channel=2, note=54, velocity=64, time=0),\n",
      "    Message('note_off', channel=2, note=47, velocity=64, time=0),\n",
      "    Message('note_on', channel=2, note=54, velocity=96, time=0),\n",
      "    Message('note_on', channel=2, note=59, velocity=96, time=0),\n",
      "    Message('note_on', channel=2, note=63, velocity=96, time=0),\n",
      "    Message('note_off', channel=2, note=63, velocity=64, time=240),\n",
      "    Message('note_off', channel=2, note=59, velocity=64, time=0),\n",
      "    Message('note_off', channel=2, note=54, velocity=64, time=0),\n",
      "    Message('note_on', channel=2, note=46, velocity=96, time=0),\n",
      "    Message('note_on', channel=2, note=54, velocity=96, time=0),\n",
      "    Message('note_off', channel=2, note=54, velocity=64, time=240),\n",
      "    Message('note_off', channel=2, note=46, velocity=64, time=0),\n",
      "    Message('note_on', channel=2, note=54, velocity=96, time=0),\n",
      "    Message('note_on', channel=2, note=59, velocity=96, time=0),\n",
      "    Message('note_on', channel=2, note=63, velocity=96, time=0),\n",
      "    Message('note_off', channel=2, note=63, velocity=64, time=240),\n",
      "    Message('note_off', channel=2, note=59, velocity=64, time=0),\n",
      "    Message('note_off', channel=2, note=54, velocity=64, time=0),\n",
      "    Message('note_on', channel=2, note=44, velocity=96, time=0),\n",
      "    Message('note_on', channel=2, note=51, velocity=96, time=0),\n",
      "    Message('note_on', channel=2, note=56, velocity=96, time=0),\n",
      "    Message('note_on', channel=2, note=59, velocity=96, time=0),\n",
      "    Message('note_on', channel=2, note=63, velocity=96, time=0),\n",
      "    Message('note_off', channel=2, note=63, velocity=64, time=360),\n",
      "    Message('note_off', channel=2, note=59, velocity=64, time=0),\n",
      "    Message('note_off', channel=2, note=56, velocity=64, time=0),\n",
      "    Message('note_off', channel=2, note=51, velocity=64, time=0),\n",
      "    Message('note_off', channel=2, note=44, velocity=64, time=0),\n",
      "    Message('note_on', channel=2, note=56, velocity=96, time=0),\n",
      "    Message('note_on', channel=2, note=59, velocity=96, time=0),\n",
      "    Message('note_off', channel=2, note=59, velocity=64, time=120),\n",
      "    Message('note_off', channel=2, note=56, velocity=64, time=0),\n",
      "    Message('note_on', channel=2, note=51, velocity=96, time=0),\n",
      "    Message('note_on', channel=2, note=59, velocity=96, time=0),\n",
      "    Message('note_on', channel=2, note=63, velocity=96, time=0),\n",
      "    Message('note_off', channel=2, note=63, velocity=64, time=480),\n",
      "    Message('note_off', channel=2, note=59, velocity=64, time=0),\n",
      "    Message('note_off', channel=2, note=51, velocity=64, time=0),\n",
      "    Message('note_on', channel=2, note=40, velocity=96, time=0),\n",
      "    Message('note_on', channel=2, note=47, velocity=96, time=0),\n",
      "    Message('note_on', channel=2, note=52, velocity=96, time=0),\n",
      "    Message('note_on', channel=2, note=56, velocity=96, time=0),\n",
      "    Message('note_off', channel=2, note=56, velocity=64, time=360),\n",
      "    Message('note_off', channel=2, note=52, velocity=64, time=0),\n",
      "    Message('note_off', channel=2, note=47, velocity=64, time=0),\n",
      "    Message('note_off', channel=2, note=40, velocity=64, time=0),\n",
      "    Message('note_on', channel=2, note=52, velocity=96, time=0),\n",
      "    Message('note_on', channel=2, note=56, velocity=96, time=0),\n",
      "    Message('note_off', channel=2, note=56, velocity=64, time=120),\n",
      "    Message('note_off', channel=2, note=52, velocity=64, time=0),\n",
      "    Message('note_on', channel=2, note=40, velocity=96, time=0),\n",
      "    Message('note_on', channel=2, note=52, velocity=96, time=0),\n",
      "    Message('note_on', channel=2, note=56, velocity=96, time=0),\n",
      "    Message('note_on', channel=2, note=59, velocity=96, time=0),\n",
      "    Message('note_off', channel=2, note=59, velocity=64, time=480),\n",
      "    Message('note_off', channel=2, note=56, velocity=64, time=0),\n",
      "    Message('note_off', channel=2, note=52, velocity=64, time=0),\n",
      "    Message('note_off', channel=2, note=40, velocity=64, time=0),\n",
      "    Message('note_on', channel=2, note=44, velocity=96, time=1920),\n",
      "    Message('note_off', channel=2, note=44, velocity=64, time=360),\n",
      "    Message('note_on', channel=2, note=59, velocity=96, time=0),\n",
      "    Message('note_on', channel=2, note=63, velocity=96, time=0),\n",
      "    Message('note_on', channel=2, note=68, velocity=96, time=0),\n",
      "    Message('note_off', channel=2, note=68, velocity=64, time=240),\n",
      "    Message('note_off', channel=2, note=63, velocity=64, time=0),\n",
      "    Message('note_off', channel=2, note=59, velocity=64, time=0),\n",
      "    Message('note_on', channel=2, note=59, velocity=96, time=0),\n",
      "    Message('note_on', channel=2, note=63, velocity=96, time=0),\n",
      "    Message('note_on', channel=2, note=68, velocity=96, time=0),\n",
      "    Message('note_off', channel=2, note=68, velocity=64, time=360),\n",
      "    Message('note_off', channel=2, note=63, velocity=64, time=0),\n",
      "    Message('note_off', channel=2, note=59, velocity=64, time=0),\n",
      "    Message('note_on', channel=2, note=40, velocity=96, time=0),\n",
      "    Message('note_off', channel=2, note=40, velocity=64, time=360),\n",
      "    Message('note_on', channel=2, note=59, velocity=96, time=0),\n",
      "    Message('note_on', channel=2, note=63, velocity=96, time=0),\n",
      "    Message('note_on', channel=2, note=68, velocity=96, time=0),\n",
      "    Message('note_off', channel=2, note=68, velocity=64, time=240),\n",
      "    Message('note_off', channel=2, note=63, velocity=64, time=0),\n",
      "    Message('note_off', channel=2, note=59, velocity=64, time=0),\n",
      "    Message('note_on', channel=2, note=59, velocity=96, time=0),\n",
      "    Message('note_on', channel=2, note=63, velocity=96, time=0),\n",
      "    Message('note_on', channel=2, note=68, velocity=96, time=0),\n",
      "    Message('note_off', channel=2, note=68, velocity=64, time=360),\n",
      "    Message('note_off', channel=2, note=63, velocity=64, time=0),\n",
      "    Message('note_off', channel=2, note=59, velocity=64, time=0),\n",
      "    Message('note_on', channel=2, note=42, velocity=96, time=0),\n",
      "    Message('note_off', channel=2, note=42, velocity=64, time=360),\n",
      "    Message('note_on', channel=2, note=61, velocity=96, time=0),\n",
      "    Message('note_on', channel=2, note=66, velocity=96, time=0),\n",
      "    Message('note_on', channel=2, note=70, velocity=96, time=0),\n",
      "    Message('note_off', channel=2, note=70, velocity=64, time=240),\n",
      "    Message('note_off', channel=2, note=66, velocity=64, time=0),\n",
      "    Message('note_off', channel=2, note=61, velocity=64, time=0),\n",
      "    Message('note_on', channel=2, note=61, velocity=96, time=0),\n",
      "    Message('note_on', channel=2, note=66, velocity=96, time=0),\n",
      "    Message('note_on', channel=2, note=70, velocity=96, time=0),\n",
      "    Message('note_off', channel=2, note=70, velocity=64, time=360),\n",
      "    Message('note_off', channel=2, note=66, velocity=64, time=0),\n",
      "    Message('note_off', channel=2, note=61, velocity=64, time=0),\n",
      "    Message('note_on', channel=2, note=47, velocity=96, time=0),\n",
      "    Message('note_off', channel=2, note=47, velocity=64, time=360),\n",
      "    Message('note_on', channel=2, note=61, velocity=96, time=0),\n",
      "    Message('note_on', channel=2, note=66, velocity=96, time=0),\n",
      "    Message('note_on', channel=2, note=70, velocity=96, time=0),\n",
      "    Message('note_off', channel=2, note=70, velocity=64, time=240),\n",
      "    Message('note_off', channel=2, note=66, velocity=64, time=0),\n",
      "    Message('note_off', channel=2, note=61, velocity=64, time=0),\n",
      "    Message('note_on', channel=2, note=61, velocity=96, time=0),\n",
      "    Message('note_on', channel=2, note=66, velocity=96, time=0),\n",
      "    Message('note_on', channel=2, note=71, velocity=96, time=0),\n",
      "    Message('note_off', channel=2, note=71, velocity=64, time=360),\n",
      "    Message('note_off', channel=2, note=66, velocity=64, time=0),\n",
      "    Message('note_off', channel=2, note=61, velocity=64, time=0),\n",
      "    Message('note_on', channel=2, note=44, velocity=96, time=0),\n",
      "    Message('note_off', channel=2, note=44, velocity=64, time=360),\n",
      "    Message('note_on', channel=2, note=59, velocity=96, time=0),\n",
      "    Message('note_on', channel=2, note=63, velocity=96, time=0),\n",
      "    Message('note_on', channel=2, note=68, velocity=96, time=0),\n",
      "    Message('note_off', channel=2, note=68, velocity=64, time=240),\n",
      "    Message('note_off', channel=2, note=63, velocity=64, time=0),\n",
      "    Message('note_off', channel=2, note=59, velocity=64, time=0),\n",
      "    Message('note_on', channel=2, note=59, velocity=96, time=0),\n",
      "    Message('note_on', channel=2, note=63, velocity=96, time=0),\n",
      "    Message('note_on', channel=2, note=68, velocity=96, time=0),\n",
      "    Message('note_off', channel=2, note=68, velocity=64, time=360),\n",
      "    Message('note_off', channel=2, note=63, velocity=64, time=0),\n",
      "    Message('note_off', channel=2, note=59, velocity=64, time=0),\n",
      "    Message('note_on', channel=2, note=40, velocity=96, time=0),\n",
      "    Message('note_off', channel=2, note=40, velocity=64, time=360),\n",
      "    Message('note_on', channel=2, note=59, velocity=96, time=0),\n",
      "    Message('note_on', channel=2, note=63, velocity=96, time=0),\n",
      "    Message('note_on', channel=2, note=68, velocity=96, time=0),\n",
      "    Message('note_off', channel=2, note=68, velocity=64, time=240),\n",
      "    Message('note_off', channel=2, note=63, velocity=64, time=0),\n",
      "    Message('note_off', channel=2, note=59, velocity=64, time=0),\n",
      "    Message('note_on', channel=2, note=59, velocity=96, time=0),\n",
      "    Message('note_on', channel=2, note=63, velocity=96, time=0),\n",
      "    Message('note_on', channel=2, note=68, velocity=96, time=0),\n",
      "    Message('note_off', channel=2, note=68, velocity=64, time=360),\n",
      "    Message('note_off', channel=2, note=63, velocity=64, time=0),\n",
      "    Message('note_off', channel=2, note=59, velocity=64, time=0),\n",
      "    Message('note_on', channel=2, note=42, velocity=96, time=0),\n",
      "    Message('note_off', channel=2, note=42, velocity=64, time=360),\n",
      "    Message('note_on', channel=2, note=61, velocity=96, time=0),\n",
      "    Message('note_on', channel=2, note=66, velocity=96, time=0),\n",
      "    Message('note_on', channel=2, note=70, velocity=96, time=0),\n",
      "    Message('note_off', channel=2, note=70, velocity=64, time=240),\n",
      "    Message('note_off', channel=2, note=66, velocity=64, time=0),\n",
      "    Message('note_off', channel=2, note=61, velocity=64, time=0),\n",
      "    Message('note_on', channel=2, note=61, velocity=96, time=0),\n",
      "    Message('note_on', channel=2, note=66, velocity=96, time=0),\n",
      "    Message('note_on', channel=2, note=70, velocity=96, time=0),\n",
      "    Message('note_off', channel=2, note=70, velocity=64, time=360),\n",
      "    Message('note_off', channel=2, note=66, velocity=64, time=0),\n",
      "    Message('note_off', channel=2, note=61, velocity=64, time=0),\n",
      "    Message('note_on', channel=2, note=47, velocity=96, time=0),\n",
      "    Message('note_off', channel=2, note=47, velocity=64, time=360),\n",
      "    Message('note_on', channel=2, note=61, velocity=96, time=0),\n",
      "    Message('note_on', channel=2, note=66, velocity=96, time=0),\n",
      "    Message('note_on', channel=2, note=70, velocity=96, time=0),\n",
      "    Message('note_off', channel=2, note=70, velocity=64, time=240),\n",
      "    Message('note_off', channel=2, note=66, velocity=64, time=0),\n",
      "    Message('note_off', channel=2, note=61, velocity=64, time=0),\n",
      "    Message('note_on', channel=2, note=61, velocity=96, time=0),\n",
      "    Message('note_on', channel=2, note=66, velocity=96, time=0),\n",
      "    Message('note_on', channel=2, note=71, velocity=96, time=0),\n",
      "    Message('note_off', channel=2, note=71, velocity=64, time=360),\n",
      "    Message('note_off', channel=2, note=66, velocity=64, time=0),\n",
      "    Message('note_off', channel=2, note=61, velocity=64, time=0),\n",
      "    Message('note_on', channel=2, note=44, velocity=96, time=0),\n",
      "    Message('note_off', channel=2, note=44, velocity=64, time=360),\n",
      "    Message('note_on', channel=2, note=59, velocity=96, time=0),\n",
      "    Message('note_on', channel=2, note=63, velocity=96, time=0),\n",
      "    Message('note_on', channel=2, note=68, velocity=96, time=0),\n",
      "    Message('note_off', channel=2, note=68, velocity=64, time=240),\n",
      "    Message('note_off', channel=2, note=63, velocity=64, time=0),\n",
      "    Message('note_off', channel=2, note=59, velocity=64, time=0),\n",
      "    Message('note_on', channel=2, note=59, velocity=96, time=0),\n",
      "    Message('note_on', channel=2, note=63, velocity=96, time=0),\n",
      "    Message('note_on', channel=2, note=68, velocity=96, time=0),\n",
      "    Message('note_off', channel=2, note=68, velocity=64, time=360),\n",
      "    Message('note_off', channel=2, note=63, velocity=64, time=0),\n",
      "    Message('note_off', channel=2, note=59, velocity=64, time=0),\n",
      "    Message('note_on', channel=2, note=40, velocity=96, time=0),\n",
      "    Message('note_off', channel=2, note=40, velocity=64, time=360),\n",
      "    Message('note_on', channel=2, note=59, velocity=96, time=0),\n",
      "    Message('note_on', channel=2, note=63, velocity=96, time=0),\n",
      "    Message('note_on', channel=2, note=68, velocity=96, time=0),\n",
      "    Message('note_off', channel=2, note=68, velocity=64, time=240),\n",
      "    Message('note_off', channel=2, note=63, velocity=64, time=0),\n",
      "    Message('note_off', channel=2, note=59, velocity=64, time=0),\n",
      "    Message('note_on', channel=2, note=59, velocity=96, time=0),\n",
      "    Message('note_on', channel=2, note=63, velocity=96, time=0),\n",
      "    Message('note_on', channel=2, note=68, velocity=96, time=0),\n",
      "    Message('note_off', channel=2, note=68, velocity=64, time=360),\n",
      "    Message('note_off', channel=2, note=63, velocity=64, time=0),\n",
      "    Message('note_off', channel=2, note=59, velocity=64, time=0),\n",
      "    Message('note_on', channel=2, note=42, velocity=96, time=0),\n",
      "    Message('note_off', channel=2, note=42, velocity=64, time=360),\n",
      "    Message('note_on', channel=2, note=61, velocity=96, time=0),\n",
      "    Message('note_on', channel=2, note=66, velocity=96, time=0),\n",
      "    Message('note_on', channel=2, note=70, velocity=96, time=0),\n",
      "    Message('note_off', channel=2, note=70, velocity=64, time=240),\n",
      "    Message('note_off', channel=2, note=66, velocity=64, time=0),\n",
      "    Message('note_off', channel=2, note=61, velocity=64, time=0),\n",
      "    Message('note_on', channel=2, note=61, velocity=96, time=0),\n",
      "    Message('note_on', channel=2, note=66, velocity=96, time=0),\n",
      "    Message('note_on', channel=2, note=70, velocity=96, time=0),\n",
      "    Message('note_off', channel=2, note=70, velocity=64, time=360),\n",
      "    Message('note_off', channel=2, note=66, velocity=64, time=0),\n",
      "    Message('note_off', channel=2, note=61, velocity=64, time=0),\n",
      "    Message('note_on', channel=2, note=47, velocity=96, time=0),\n",
      "    Message('note_off', channel=2, note=47, velocity=64, time=360),\n",
      "    Message('note_on', channel=2, note=61, velocity=96, time=0),\n",
      "    Message('note_on', channel=2, note=66, velocity=96, time=0),\n",
      "    Message('note_on', channel=2, note=70, velocity=96, time=0),\n",
      "    Message('note_off', channel=2, note=70, velocity=64, time=240),\n",
      "    Message('note_off', channel=2, note=66, velocity=64, time=0),\n",
      "    Message('note_off', channel=2, note=61, velocity=64, time=0),\n",
      "    Message('note_on', channel=2, note=61, velocity=96, time=0),\n",
      "    Message('note_on', channel=2, note=66, velocity=96, time=0),\n",
      "    Message('note_on', channel=2, note=71, velocity=96, time=0),\n",
      "    Message('note_off', channel=2, note=71, velocity=64, time=360),\n",
      "    Message('note_off', channel=2, note=66, velocity=64, time=0),\n",
      "    Message('note_off', channel=2, note=61, velocity=64, time=0),\n",
      "    Message('note_on', channel=2, note=44, velocity=96, time=0),\n",
      "    Message('note_off', channel=2, note=44, velocity=64, time=360),\n",
      "    Message('note_on', channel=2, note=59, velocity=96, time=0),\n",
      "    Message('note_on', channel=2, note=63, velocity=96, time=0),\n",
      "    Message('note_on', channel=2, note=68, velocity=96, time=0),\n",
      "    Message('note_off', channel=2, note=68, velocity=64, time=240),\n",
      "    Message('note_off', channel=2, note=63, velocity=64, time=0),\n",
      "    Message('note_off', channel=2, note=59, velocity=64, time=0),\n",
      "    Message('note_on', channel=2, note=59, velocity=96, time=0),\n",
      "    Message('note_on', channel=2, note=63, velocity=96, time=0),\n",
      "    Message('note_on', channel=2, note=68, velocity=96, time=0),\n",
      "    Message('note_off', channel=2, note=68, velocity=64, time=360),\n",
      "    Message('note_off', channel=2, note=63, velocity=64, time=0),\n",
      "    Message('note_off', channel=2, note=59, velocity=64, time=0),\n",
      "    Message('note_on', channel=2, note=40, velocity=96, time=0),\n",
      "    Message('note_off', channel=2, note=40, velocity=64, time=360),\n",
      "    Message('note_on', channel=2, note=59, velocity=96, time=0),\n",
      "    Message('note_on', channel=2, note=63, velocity=96, time=0),\n",
      "    Message('note_on', channel=2, note=68, velocity=96, time=0),\n",
      "    Message('note_off', channel=2, note=68, velocity=64, time=240),\n",
      "    Message('note_off', channel=2, note=63, velocity=64, time=0),\n",
      "    Message('note_off', channel=2, note=59, velocity=64, time=0),\n",
      "    Message('note_on', channel=2, note=59, velocity=96, time=0),\n",
      "    Message('note_on', channel=2, note=63, velocity=96, time=0),\n",
      "    Message('note_on', channel=2, note=68, velocity=96, time=0),\n",
      "    Message('note_off', channel=2, note=68, velocity=64, time=360),\n",
      "    Message('note_off', channel=2, note=63, velocity=64, time=0),\n",
      "    Message('note_off', channel=2, note=59, velocity=64, time=0),\n",
      "    Message('note_on', channel=2, note=41, velocity=96, time=0),\n",
      "    Message('note_off', channel=2, note=41, velocity=64, time=360),\n",
      "    Message('note_on', channel=2, note=59, velocity=96, time=0),\n",
      "    Message('note_on', channel=2, note=63, velocity=96, time=0),\n",
      "    Message('note_on', channel=2, note=68, velocity=96, time=0),\n",
      "    Message('note_off', channel=2, note=68, velocity=64, time=240),\n",
      "    Message('note_off', channel=2, note=63, velocity=64, time=0),\n",
      "    Message('note_off', channel=2, note=59, velocity=64, time=0),\n",
      "    Message('note_on', channel=2, note=59, velocity=96, time=0),\n",
      "    Message('note_on', channel=2, note=63, velocity=96, time=0),\n",
      "    Message('note_on', channel=2, note=68, velocity=96, time=0),\n",
      "    Message('note_off', channel=2, note=68, velocity=64, time=360),\n",
      "    Message('note_off', channel=2, note=63, velocity=64, time=0),\n",
      "    Message('note_off', channel=2, note=59, velocity=64, time=0),\n",
      "    Message('note_on', channel=2, note=40, velocity=96, time=0),\n",
      "    Message('note_off', channel=2, note=40, velocity=64, time=360),\n",
      "    Message('note_on', channel=2, note=59, velocity=96, time=0),\n",
      "    Message('note_on', channel=2, note=63, velocity=96, time=0),\n",
      "    Message('note_on', channel=2, note=68, velocity=96, time=0),\n",
      "    Message('note_off', channel=2, note=68, velocity=64, time=240),\n",
      "    Message('note_off', channel=2, note=63, velocity=64, time=0),\n",
      "    Message('note_off', channel=2, note=59, velocity=64, time=0),\n",
      "    Message('note_on', channel=2, note=59, velocity=96, time=0),\n",
      "    Message('note_on', channel=2, note=63, velocity=96, time=0),\n",
      "    Message('note_on', channel=2, note=68, velocity=96, time=0),\n",
      "    Message('note_off', channel=2, note=68, velocity=64, time=360),\n",
      "    Message('note_off', channel=2, note=63, velocity=64, time=0),\n",
      "    Message('note_off', channel=2, note=59, velocity=64, time=0),\n",
      "    Message('note_on', channel=2, note=44, velocity=96, time=0),\n",
      "    Message('note_off', channel=2, note=44, velocity=64, time=360),\n",
      "    Message('note_on', channel=2, note=59, velocity=96, time=0),\n",
      "    Message('note_on', channel=2, note=63, velocity=96, time=0),\n",
      "    Message('note_on', channel=2, note=68, velocity=96, time=0),\n",
      "    Message('note_off', channel=2, note=68, velocity=64, time=240),\n",
      "    Message('note_off', channel=2, note=63, velocity=64, time=0),\n",
      "    Message('note_off', channel=2, note=59, velocity=64, time=0),\n",
      "    Message('note_on', channel=2, note=59, velocity=96, time=0),\n",
      "    Message('note_on', channel=2, note=63, velocity=96, time=0),\n",
      "    Message('note_on', channel=2, note=68, velocity=96, time=0),\n",
      "    Message('note_off', channel=2, note=68, velocity=64, time=360),\n",
      "    Message('note_off', channel=2, note=63, velocity=64, time=0),\n",
      "    Message('note_off', channel=2, note=59, velocity=64, time=0),\n",
      "    Message('note_on', channel=2, note=40, velocity=96, time=0),\n",
      "    Message('note_off', channel=2, note=40, velocity=64, time=360),\n",
      "    Message('note_on', channel=2, note=59, velocity=96, time=0),\n",
      "    Message('note_on', channel=2, note=63, velocity=96, time=0),\n",
      "    Message('note_on', channel=2, note=68, velocity=96, time=0),\n",
      "    Message('note_off', channel=2, note=68, velocity=64, time=240),\n",
      "    Message('note_off', channel=2, note=63, velocity=64, time=0),\n",
      "    Message('note_off', channel=2, note=59, velocity=64, time=0),\n",
      "    Message('note_on', channel=2, note=59, velocity=96, time=0),\n",
      "    Message('note_on', channel=2, note=63, velocity=96, time=0),\n",
      "    Message('note_on', channel=2, note=68, velocity=96, time=0),\n",
      "    Message('note_off', channel=2, note=68, velocity=64, time=360),\n",
      "    Message('note_off', channel=2, note=63, velocity=64, time=0),\n",
      "    Message('note_off', channel=2, note=59, velocity=64, time=0),\n",
      "    Message('note_on', channel=2, note=42, velocity=96, time=0),\n",
      "    Message('note_off', channel=2, note=42, velocity=64, time=360),\n",
      "    Message('note_on', channel=2, note=61, velocity=96, time=0),\n",
      "    Message('note_on', channel=2, note=66, velocity=96, time=0),\n",
      "    Message('note_on', channel=2, note=70, velocity=96, time=0),\n",
      "    Message('note_off', channel=2, note=70, velocity=64, time=240),\n",
      "    Message('note_off', channel=2, note=66, velocity=64, time=0),\n",
      "    Message('note_off', channel=2, note=61, velocity=64, time=0),\n",
      "    Message('note_on', channel=2, note=61, velocity=96, time=0),\n",
      "    Message('note_on', channel=2, note=66, velocity=96, time=0),\n",
      "    Message('note_on', channel=2, note=70, velocity=96, time=0),\n",
      "    Message('note_off', channel=2, note=70, velocity=64, time=360),\n",
      "    Message('note_off', channel=2, note=66, velocity=64, time=0),\n",
      "    Message('note_off', channel=2, note=61, velocity=64, time=0),\n",
      "    Message('note_on', channel=2, note=47, velocity=96, time=0),\n",
      "    Message('note_off', channel=2, note=47, velocity=64, time=360),\n",
      "    Message('note_on', channel=2, note=61, velocity=96, time=0),\n",
      "    Message('note_on', channel=2, note=66, velocity=96, time=0),\n",
      "    Message('note_on', channel=2, note=70, velocity=96, time=0),\n",
      "    Message('note_off', channel=2, note=70, velocity=64, time=240),\n",
      "    Message('note_off', channel=2, note=66, velocity=64, time=0),\n",
      "    Message('note_off', channel=2, note=61, velocity=64, time=0),\n",
      "    Message('note_on', channel=2, note=61, velocity=96, time=0),\n",
      "    Message('note_on', channel=2, note=66, velocity=96, time=0),\n",
      "    Message('note_on', channel=2, note=71, velocity=96, time=0),\n",
      "    Message('note_off', channel=2, note=71, velocity=64, time=360),\n",
      "    Message('note_off', channel=2, note=66, velocity=64, time=0),\n",
      "    Message('note_off', channel=2, note=61, velocity=64, time=0),\n",
      "    Message('note_on', channel=2, note=44, velocity=96, time=0),\n",
      "    Message('note_off', channel=2, note=44, velocity=64, time=360),\n",
      "    Message('note_on', channel=2, note=59, velocity=96, time=0),\n",
      "    Message('note_on', channel=2, note=63, velocity=96, time=0),\n",
      "    Message('note_on', channel=2, note=68, velocity=96, time=0),\n",
      "    Message('note_off', channel=2, note=68, velocity=64, time=240),\n",
      "    Message('note_off', channel=2, note=63, velocity=64, time=0),\n",
      "    Message('note_off', channel=2, note=59, velocity=64, time=0),\n",
      "    Message('note_on', channel=2, note=59, velocity=96, time=0),\n",
      "    Message('note_on', channel=2, note=63, velocity=96, time=0),\n",
      "    Message('note_on', channel=2, note=68, velocity=96, time=0),\n",
      "    Message('note_off', channel=2, note=68, velocity=64, time=360),\n",
      "    Message('note_off', channel=2, note=63, velocity=64, time=0),\n",
      "    Message('note_off', channel=2, note=59, velocity=64, time=0),\n",
      "    Message('note_on', channel=2, note=40, velocity=96, time=0),\n",
      "    Message('note_off', channel=2, note=40, velocity=64, time=360),\n",
      "    Message('note_on', channel=2, note=59, velocity=96, time=0),\n",
      "    Message('note_on', channel=2, note=63, velocity=96, time=0),\n",
      "    Message('note_on', channel=2, note=68, velocity=96, time=0),\n",
      "    Message('note_off', channel=2, note=68, velocity=64, time=240),\n",
      "    Message('note_off', channel=2, note=63, velocity=64, time=0),\n",
      "    Message('note_off', channel=2, note=59, velocity=64, time=0),\n",
      "    Message('note_on', channel=2, note=59, velocity=96, time=0),\n",
      "    Message('note_on', channel=2, note=63, velocity=96, time=0),\n",
      "    Message('note_on', channel=2, note=68, velocity=96, time=0),\n",
      "    Message('note_off', channel=2, note=68, velocity=64, time=360),\n",
      "    Message('note_off', channel=2, note=63, velocity=64, time=0),\n",
      "    Message('note_off', channel=2, note=59, velocity=64, time=0),\n",
      "    Message('note_on', channel=2, note=42, velocity=96, time=0),\n",
      "    Message('note_off', channel=2, note=42, velocity=64, time=360),\n",
      "    Message('note_on', channel=2, note=61, velocity=96, time=0),\n",
      "    Message('note_on', channel=2, note=66, velocity=96, time=0),\n",
      "    Message('note_on', channel=2, note=70, velocity=96, time=0),\n",
      "    Message('note_off', channel=2, note=70, velocity=64, time=240),\n",
      "    Message('note_off', channel=2, note=66, velocity=64, time=0),\n",
      "    Message('note_off', channel=2, note=61, velocity=64, time=0),\n",
      "    Message('note_on', channel=2, note=61, velocity=96, time=0),\n",
      "    Message('note_on', channel=2, note=66, velocity=96, time=0),\n",
      "    Message('note_on', channel=2, note=70, velocity=96, time=0),\n",
      "    Message('note_off', channel=2, note=70, velocity=64, time=360),\n",
      "    Message('note_off', channel=2, note=66, velocity=64, time=0),\n",
      "    Message('note_off', channel=2, note=61, velocity=64, time=0),\n",
      "    Message('note_on', channel=2, note=47, velocity=96, time=0),\n",
      "    Message('note_off', channel=2, note=47, velocity=64, time=360),\n",
      "    Message('note_on', channel=2, note=61, velocity=96, time=0),\n",
      "    Message('note_on', channel=2, note=66, velocity=96, time=0),\n",
      "    Message('note_on', channel=2, note=70, velocity=96, time=0),\n",
      "    Message('note_off', channel=2, note=70, velocity=64, time=240),\n",
      "    Message('note_off', channel=2, note=66, velocity=64, time=0),\n",
      "    Message('note_off', channel=2, note=61, velocity=64, time=0),\n",
      "    Message('note_on', channel=2, note=61, velocity=96, time=0),\n",
      "    Message('note_on', channel=2, note=66, velocity=96, time=0),\n",
      "    Message('note_on', channel=2, note=71, velocity=96, time=0),\n",
      "    Message('note_off', channel=2, note=71, velocity=64, time=360),\n",
      "    Message('note_off', channel=2, note=66, velocity=64, time=0),\n",
      "    Message('note_off', channel=2, note=61, velocity=64, time=0),\n",
      "    Message('note_on', channel=2, note=44, velocity=96, time=0),\n",
      "    Message('note_off', channel=2, note=44, velocity=64, time=360),\n",
      "    Message('note_on', channel=2, note=59, velocity=96, time=0),\n",
      "    Message('note_on', channel=2, note=63, velocity=96, time=0),\n",
      "    Message('note_on', channel=2, note=68, velocity=96, time=0),\n",
      "    Message('note_off', channel=2, note=68, velocity=64, time=240),\n",
      "    Message('note_off', channel=2, note=63, velocity=64, time=0),\n",
      "    Message('note_off', channel=2, note=59, velocity=64, time=0),\n",
      "    Message('note_on', channel=2, note=59, velocity=96, time=0),\n",
      "    Message('note_on', channel=2, note=63, velocity=96, time=0),\n",
      "    Message('note_on', channel=2, note=68, velocity=96, time=0),\n",
      "    Message('note_off', channel=2, note=68, velocity=64, time=360),\n",
      "    Message('note_off', channel=2, note=63, velocity=64, time=0),\n",
      "    Message('note_off', channel=2, note=59, velocity=64, time=0),\n",
      "    Message('note_on', channel=2, note=40, velocity=96, time=0),\n",
      "    Message('note_off', channel=2, note=40, velocity=64, time=360),\n",
      "    Message('note_on', channel=2, note=59, velocity=96, time=0),\n",
      "    Message('note_on', channel=2, note=63, velocity=96, time=0),\n",
      "    Message('note_on', channel=2, note=68, velocity=96, time=0),\n",
      "    Message('note_off', channel=2, note=68, velocity=64, time=240),\n",
      "    Message('note_off', channel=2, note=63, velocity=64, time=0),\n",
      "    Message('note_off', channel=2, note=59, velocity=64, time=0),\n",
      "    Message('note_on', channel=2, note=59, velocity=96, time=0),\n",
      "    Message('note_on', channel=2, note=63, velocity=96, time=0),\n",
      "    Message('note_on', channel=2, note=68, velocity=96, time=0),\n",
      "    Message('note_off', channel=2, note=68, velocity=64, time=360),\n",
      "    Message('note_off', channel=2, note=63, velocity=64, time=0),\n",
      "    Message('note_off', channel=2, note=59, velocity=64, time=0),\n",
      "    Message('note_on', channel=2, note=42, velocity=96, time=0),\n",
      "    Message('note_off', channel=2, note=42, velocity=64, time=360),\n",
      "    Message('note_on', channel=2, note=61, velocity=96, time=0),\n",
      "    Message('note_on', channel=2, note=66, velocity=96, time=0),\n",
      "    Message('note_on', channel=2, note=70, velocity=96, time=0),\n",
      "    Message('note_off', channel=2, note=70, velocity=64, time=240),\n",
      "    Message('note_off', channel=2, note=66, velocity=64, time=0),\n",
      "    Message('note_off', channel=2, note=61, velocity=64, time=0),\n",
      "    Message('note_on', channel=2, note=61, velocity=96, time=0),\n",
      "    Message('note_on', channel=2, note=66, velocity=96, time=0),\n",
      "    Message('note_on', channel=2, note=70, velocity=96, time=0),\n",
      "    Message('note_off', channel=2, note=70, velocity=64, time=360),\n",
      "    Message('note_off', channel=2, note=66, velocity=64, time=0),\n",
      "    Message('note_off', channel=2, note=61, velocity=64, time=0),\n",
      "    Message('note_on', channel=2, note=47, velocity=96, time=0),\n",
      "    Message('note_off', channel=2, note=47, velocity=64, time=360),\n",
      "    Message('note_on', channel=2, note=61, velocity=96, time=0),\n",
      "    Message('note_on', channel=2, note=66, velocity=96, time=0),\n",
      "    Message('note_on', channel=2, note=70, velocity=96, time=0),\n",
      "    Message('note_off', channel=2, note=70, velocity=64, time=240),\n",
      "    Message('note_off', channel=2, note=66, velocity=64, time=0),\n",
      "    Message('note_off', channel=2, note=61, velocity=64, time=0),\n",
      "    Message('note_on', channel=2, note=61, velocity=96, time=0),\n",
      "    Message('note_on', channel=2, note=66, velocity=96, time=0),\n",
      "    Message('note_on', channel=2, note=71, velocity=96, time=0),\n",
      "    Message('note_off', channel=2, note=71, velocity=64, time=360),\n",
      "    Message('note_off', channel=2, note=66, velocity=64, time=0),\n",
      "    Message('note_off', channel=2, note=61, velocity=64, time=0),\n",
      "    Message('note_on', channel=2, note=44, velocity=96, time=0),\n",
      "    Message('note_off', channel=2, note=44, velocity=64, time=360),\n",
      "    Message('note_on', channel=2, note=59, velocity=96, time=0),\n",
      "    Message('note_on', channel=2, note=63, velocity=96, time=0),\n",
      "    Message('note_on', channel=2, note=68, velocity=96, time=0),\n",
      "    Message('note_off', channel=2, note=68, velocity=64, time=240),\n",
      "    Message('note_off', channel=2, note=63, velocity=64, time=0),\n",
      "    Message('note_off', channel=2, note=59, velocity=64, time=0),\n",
      "    Message('note_on', channel=2, note=59, velocity=96, time=0),\n",
      "    Message('note_on', channel=2, note=63, velocity=96, time=0),\n",
      "    Message('note_on', channel=2, note=68, velocity=96, time=0),\n",
      "    Message('note_off', channel=2, note=68, velocity=64, time=360),\n",
      "    Message('note_off', channel=2, note=63, velocity=64, time=0),\n",
      "    Message('note_off', channel=2, note=59, velocity=64, time=0),\n",
      "    Message('note_on', channel=2, note=40, velocity=96, time=0),\n",
      "    Message('note_off', channel=2, note=40, velocity=64, time=360),\n",
      "    Message('note_on', channel=2, note=59, velocity=96, time=0),\n",
      "    Message('note_on', channel=2, note=63, velocity=96, time=0),\n",
      "    Message('note_on', channel=2, note=68, velocity=96, time=0),\n",
      "    Message('note_off', channel=2, note=68, velocity=64, time=240),\n",
      "    Message('note_off', channel=2, note=63, velocity=64, time=0),\n",
      "    Message('note_off', channel=2, note=59, velocity=64, time=0),\n",
      "    Message('note_on', channel=2, note=59, velocity=96, time=0),\n",
      "    Message('note_on', channel=2, note=63, velocity=96, time=0),\n",
      "    Message('note_on', channel=2, note=68, velocity=96, time=0),\n",
      "    Message('note_off', channel=2, note=68, velocity=64, time=360),\n",
      "    Message('note_off', channel=2, note=63, velocity=64, time=0),\n",
      "    Message('note_off', channel=2, note=59, velocity=64, time=0),\n",
      "    MetaMessage('end_of_track', time=0)]),\n",
      "  MidiTrack([\n",
      "    MetaMessage('midi_port', port=0, time=0),\n",
      "    MetaMessage('channel_prefix', channel=9, time=0),\n",
      "    Message('control_change', channel=9, control=7, value=84, time=0),\n",
      "    Message('program_change', channel=9, program=0, time=0),\n",
      "    Message('control_change', channel=9, control=0, value=0, time=0),\n",
      "    Message('note_on', channel=9, note=42, velocity=100, time=1920),\n",
      "    Message('note_off', channel=9, note=42, velocity=64, time=60),\n",
      "    Message('note_on', channel=9, note=42, velocity=100, time=60),\n",
      "    Message('note_off', channel=9, note=42, velocity=64, time=60),\n",
      "    Message('note_on', channel=9, note=42, velocity=100, time=60),\n",
      "    Message('note_off', channel=9, note=42, velocity=64, time=60),\n",
      "    Message('note_on', channel=9, note=42, velocity=100, time=60),\n",
      "    Message('note_off', channel=9, note=42, velocity=64, time=60),\n",
      "    Message('note_on', channel=9, note=39, velocity=100, time=60),\n",
      "    Message('note_on', channel=9, note=42, velocity=100, time=0),\n",
      "    Message('note_off', channel=9, note=42, velocity=64, time=60),\n",
      "    Message('note_off', channel=9, note=39, velocity=64, time=0),\n",
      "    Message('note_on', channel=9, note=42, velocity=100, time=60),\n",
      "    Message('note_off', channel=9, note=42, velocity=64, time=60),\n",
      "    Message('note_on', channel=9, note=42, velocity=100, time=60),\n",
      "    Message('note_off', channel=9, note=42, velocity=64, time=60),\n",
      "    Message('note_on', channel=9, note=42, velocity=100, time=60),\n",
      "    Message('note_off', channel=9, note=42, velocity=64, time=60),\n",
      "    Message('note_on', channel=9, note=42, velocity=100, time=60),\n",
      "    Message('note_off', channel=9, note=42, velocity=64, time=60),\n",
      "    Message('note_on', channel=9, note=42, velocity=100, time=60),\n",
      "    Message('note_off', channel=9, note=42, velocity=64, time=60),\n",
      "    Message('note_on', channel=9, note=42, velocity=100, time=60),\n",
      "    Message('note_off', channel=9, note=42, velocity=64, time=60),\n",
      "    Message('note_on', channel=9, note=42, velocity=100, time=60),\n",
      "    Message('note_off', channel=9, note=42, velocity=64, time=60),\n",
      "    Message('note_on', channel=9, note=39, velocity=100, time=60),\n",
      "    Message('note_on', channel=9, note=42, velocity=100, time=0),\n",
      "    Message('note_off', channel=9, note=42, velocity=64, time=60),\n",
      "    Message('note_off', channel=9, note=39, velocity=64, time=0),\n",
      "    Message('note_on', channel=9, note=42, velocity=100, time=60),\n",
      "    Message('note_off', channel=9, note=42, velocity=64, time=60),\n",
      "    Message('note_on', channel=9, note=42, velocity=100, time=60),\n",
      "    Message('note_off', channel=9, note=42, velocity=64, time=60),\n",
      "    Message('note_on', channel=9, note=42, velocity=100, time=60),\n",
      "    Message('note_off', channel=9, note=42, velocity=64, time=60),\n",
      "    Message('note_on', channel=9, note=42, velocity=100, time=60),\n",
      "    Message('note_off', channel=9, note=42, velocity=64, time=60),\n",
      "    Message('note_on', channel=9, note=42, velocity=100, time=60),\n",
      "    Message('note_off', channel=9, note=42, velocity=64, time=60),\n",
      "    Message('note_on', channel=9, note=42, velocity=100, time=60),\n",
      "    Message('note_off', channel=9, note=42, velocity=64, time=60),\n",
      "    Message('note_on', channel=9, note=42, velocity=100, time=60),\n",
      "    Message('note_off', channel=9, note=42, velocity=64, time=60),\n",
      "    Message('note_on', channel=9, note=42, velocity=100, time=60),\n",
      "    Message('note_on', channel=9, note=39, velocity=100, time=0),\n",
      "    Message('note_off', channel=9, note=39, velocity=64, time=60),\n",
      "    Message('note_off', channel=9, note=42, velocity=64, time=0),\n",
      "    Message('note_on', channel=9, note=42, velocity=100, time=60),\n",
      "    Message('note_off', channel=9, note=42, velocity=64, time=60),\n",
      "    Message('note_on', channel=9, note=42, velocity=100, time=60),\n",
      "    Message('note_off', channel=9, note=42, velocity=64, time=60),\n",
      "    Message('note_on', channel=9, note=42, velocity=100, time=60),\n",
      "    Message('note_off', channel=9, note=42, velocity=64, time=60),\n",
      "    Message('note_on', channel=9, note=42, velocity=100, time=60),\n",
      "    Message('note_off', channel=9, note=42, velocity=64, time=60),\n",
      "    Message('note_on', channel=9, note=42, velocity=100, time=60),\n",
      "    Message('note_off', channel=9, note=42, velocity=64, time=60),\n",
      "    Message('note_on', channel=9, note=42, velocity=100, time=60),\n",
      "    Message('note_off', channel=9, note=42, velocity=64, time=60),\n",
      "    Message('note_on', channel=9, note=42, velocity=100, time=60),\n",
      "    Message('note_off', channel=9, note=42, velocity=64, time=60),\n",
      "    Message('note_on', channel=9, note=42, velocity=100, time=60),\n",
      "    Message('note_on', channel=9, note=39, velocity=100, time=0),\n",
      "    Message('note_off', channel=9, note=39, velocity=64, time=60),\n",
      "    Message('note_off', channel=9, note=42, velocity=64, time=0),\n",
      "    Message('note_on', channel=9, note=42, velocity=100, time=60),\n",
      "    Message('note_off', channel=9, note=42, velocity=64, time=60),\n",
      "    Message('note_on', channel=9, note=42, velocity=100, time=60),\n",
      "    Message('note_off', channel=9, note=42, velocity=64, time=60),\n",
      "    Message('note_on', channel=9, note=42, velocity=100, time=60),\n",
      "    Message('note_off', channel=9, note=42, velocity=64, time=60),\n",
      "    Message('note_on', channel=9, note=42, velocity=100, time=60),\n",
      "    Message('note_off', channel=9, note=42, velocity=64, time=60),\n",
      "    Message('note_on', channel=9, note=42, velocity=100, time=60),\n",
      "    Message('note_off', channel=9, note=42, velocity=64, time=60),\n",
      "    Message('note_on', channel=9, note=42, velocity=100, time=60),\n",
      "    Message('note_off', channel=9, note=42, velocity=64, time=60),\n",
      "    Message('note_on', channel=9, note=42, velocity=100, time=60),\n",
      "    Message('note_off', channel=9, note=42, velocity=64, time=60),\n",
      "    Message('note_on', channel=9, note=42, velocity=100, time=60),\n",
      "    Message('note_on', channel=9, note=39, velocity=100, time=0),\n",
      "    Message('note_off', channel=9, note=39, velocity=64, time=60),\n",
      "    Message('note_off', channel=9, note=42, velocity=64, time=0),\n",
      "    Message('note_on', channel=9, note=42, velocity=100, time=60),\n",
      "    Message('note_off', channel=9, note=42, velocity=64, time=60),\n",
      "    Message('note_on', channel=9, note=42, velocity=100, time=60),\n",
      "    Message('note_off', channel=9, note=42, velocity=64, time=60),\n",
      "    Message('note_on', channel=9, note=42, velocity=100, time=60),\n",
      "    Message('note_off', channel=9, note=42, velocity=64, time=60),\n",
      "    Message('note_on', channel=9, note=42, velocity=100, time=60),\n",
      "    Message('note_off', channel=9, note=42, velocity=64, time=60),\n",
      "    Message('note_on', channel=9, note=42, velocity=100, time=60),\n",
      "    Message('note_off', channel=9, note=42, velocity=64, time=60),\n",
      "    Message('note_on', channel=9, note=42, velocity=100, time=60),\n",
      "    Message('note_off', channel=9, note=42, velocity=64, time=60),\n",
      "    Message('note_on', channel=9, note=42, velocity=100, time=60),\n",
      "    Message('note_off', channel=9, note=42, velocity=64, time=60),\n",
      "    Message('note_on', channel=9, note=42, velocity=100, time=60),\n",
      "    Message('note_on', channel=9, note=39, velocity=100, time=0),\n",
      "    Message('note_off', channel=9, note=39, velocity=64, time=60),\n",
      "    Message('note_off', channel=9, note=42, velocity=64, time=0),\n",
      "    Message('note_on', channel=9, note=42, velocity=100, time=60),\n",
      "    Message('note_off', channel=9, note=42, velocity=64, time=60),\n",
      "    Message('note_on', channel=9, note=42, velocity=100, time=60),\n",
      "    Message('note_off', channel=9, note=42, velocity=64, time=60),\n",
      "    Message('note_on', channel=9, note=42, velocity=100, time=60),\n",
      "    Message('note_off', channel=9, note=42, velocity=64, time=60),\n",
      "    Message('note_on', channel=9, note=42, velocity=100, time=60),\n",
      "    Message('note_off', channel=9, note=42, velocity=64, time=60),\n",
      "    Message('note_on', channel=9, note=42, velocity=100, time=60),\n",
      "    Message('note_off', channel=9, note=42, velocity=64, time=60),\n",
      "    Message('note_on', channel=9, note=42, velocity=100, time=60),\n",
      "    Message('note_off', channel=9, note=42, velocity=64, time=60),\n",
      "    Message('note_on', channel=9, note=42, velocity=100, time=60),\n",
      "    Message('note_off', channel=9, note=42, velocity=64, time=60),\n",
      "    Message('note_on', channel=9, note=42, velocity=100, time=60),\n",
      "    Message('note_on', channel=9, note=39, velocity=100, time=0),\n",
      "    Message('note_off', channel=9, note=39, velocity=64, time=60),\n",
      "    Message('note_off', channel=9, note=42, velocity=64, time=0),\n",
      "    Message('note_on', channel=9, note=42, velocity=100, time=60),\n",
      "    Message('note_off', channel=9, note=42, velocity=64, time=60),\n",
      "    Message('note_on', channel=9, note=42, velocity=100, time=60),\n",
      "    Message('note_off', channel=9, note=42, velocity=64, time=60),\n",
      "    Message('note_on', channel=9, note=42, velocity=100, time=60),\n",
      "    Message('note_off', channel=9, note=42, velocity=64, time=60),\n",
      "    Message('note_on', channel=9, note=42, velocity=100, time=60),\n",
      "    Message('note_off', channel=9, note=42, velocity=64, time=60),\n",
      "    Message('note_on', channel=9, note=42, velocity=100, time=60),\n",
      "    Message('note_off', channel=9, note=42, velocity=64, time=60),\n",
      "    Message('note_on', channel=9, note=42, velocity=100, time=60),\n",
      "    Message('note_off', channel=9, note=42, velocity=64, time=60),\n",
      "    Message('note_on', channel=9, note=42, velocity=100, time=60),\n",
      "    Message('note_off', channel=9, note=42, velocity=64, time=60),\n",
      "    Message('note_on', channel=9, note=42, velocity=100, time=60),\n",
      "    Message('note_on', channel=9, note=39, velocity=100, time=0),\n",
      "    Message('note_off', channel=9, note=39, velocity=64, time=60),\n",
      "    Message('note_off', channel=9, note=42, velocity=64, time=0),\n",
      "    Message('note_on', channel=9, note=42, velocity=100, time=60),\n",
      "    Message('note_off', channel=9, note=42, velocity=64, time=60),\n",
      "    Message('note_on', channel=9, note=42, velocity=100, time=60),\n",
      "    Message('note_off', channel=9, note=42, velocity=64, time=60),\n",
      "    Message('note_on', channel=9, note=42, velocity=100, time=60),\n",
      "    Message('note_off', channel=9, note=42, velocity=64, time=60),\n",
      "    Message('note_on', channel=9, note=42, velocity=100, time=60),\n",
      "    Message('note_off', channel=9, note=42, velocity=64, time=60),\n",
      "    Message('note_on', channel=9, note=42, velocity=100, time=60),\n",
      "    Message('note_off', channel=9, note=42, velocity=64, time=60),\n",
      "    Message('note_on', channel=9, note=42, velocity=100, time=60),\n",
      "    Message('note_off', channel=9, note=42, velocity=64, time=60),\n",
      "    Message('note_on', channel=9, note=42, velocity=100, time=60),\n",
      "    Message('note_off', channel=9, note=42, velocity=64, time=60),\n",
      "    Message('note_on', channel=9, note=42, velocity=100, time=60),\n",
      "    Message('note_on', channel=9, note=39, velocity=100, time=0),\n",
      "    Message('note_off', channel=9, note=39, velocity=64, time=60),\n",
      "    Message('note_off', channel=9, note=42, velocity=64, time=0),\n",
      "    Message('note_on', channel=9, note=42, velocity=100, time=60),\n",
      "    Message('note_off', channel=9, note=42, velocity=64, time=60),\n",
      "    Message('note_on', channel=9, note=42, velocity=100, time=60),\n",
      "    Message('note_off', channel=9, note=42, velocity=64, time=60),\n",
      "    Message('note_on', channel=9, note=42, velocity=100, time=60),\n",
      "    Message('note_off', channel=9, note=42, velocity=64, time=60),\n",
      "    Message('note_on', channel=9, note=42, velocity=100, time=60),\n",
      "    Message('note_off', channel=9, note=42, velocity=64, time=60),\n",
      "    Message('note_on', channel=9, note=42, velocity=100, time=60),\n",
      "    Message('note_off', channel=9, note=42, velocity=64, time=60),\n",
      "    Message('note_on', channel=9, note=42, velocity=100, time=60),\n",
      "    Message('note_off', channel=9, note=42, velocity=64, time=60),\n",
      "    Message('note_on', channel=9, note=42, velocity=100, time=60),\n",
      "    Message('note_off', channel=9, note=42, velocity=64, time=60),\n",
      "    Message('note_on', channel=9, note=42, velocity=100, time=60),\n",
      "    Message('note_on', channel=9, note=39, velocity=100, time=0),\n",
      "    Message('note_off', channel=9, note=39, velocity=64, time=60),\n",
      "    Message('note_off', channel=9, note=42, velocity=64, time=0),\n",
      "    Message('note_on', channel=9, note=42, velocity=100, time=60),\n",
      "    Message('note_off', channel=9, note=42, velocity=64, time=60),\n",
      "    Message('note_on', channel=9, note=42, velocity=100, time=60),\n",
      "    Message('note_off', channel=9, note=42, velocity=64, time=60),\n",
      "    Message('note_on', channel=9, note=42, velocity=100, time=60),\n",
      "    Message('note_off', channel=9, note=42, velocity=64, time=60),\n",
      "    Message('note_on', channel=9, note=42, velocity=100, time=60),\n",
      "    Message('note_off', channel=9, note=42, velocity=64, time=60),\n",
      "    Message('note_on', channel=9, note=42, velocity=100, time=60),\n",
      "    Message('note_off', channel=9, note=42, velocity=64, time=60),\n",
      "    Message('note_on', channel=9, note=42, velocity=100, time=60),\n",
      "    Message('note_off', channel=9, note=42, velocity=64, time=60),\n",
      "    Message('note_on', channel=9, note=42, velocity=100, time=60),\n",
      "    Message('note_off', channel=9, note=42, velocity=64, time=60),\n",
      "    Message('note_on', channel=9, note=42, velocity=100, time=60),\n",
      "    Message('note_on', channel=9, note=39, velocity=100, time=0),\n",
      "    Message('note_off', channel=9, note=39, velocity=64, time=60),\n",
      "    Message('note_off', channel=9, note=42, velocity=64, time=0),\n",
      "    Message('note_on', channel=9, note=42, velocity=100, time=60),\n",
      "    Message('note_off', channel=9, note=42, velocity=64, time=60),\n",
      "    Message('note_on', channel=9, note=42, velocity=100, time=60),\n",
      "    Message('note_off', channel=9, note=42, velocity=64, time=60),\n",
      "    Message('note_on', channel=9, note=42, velocity=100, time=60),\n",
      "    Message('note_off', channel=9, note=42, velocity=64, time=60),\n",
      "    Message('note_on', channel=9, note=42, velocity=100, time=60),\n",
      "    Message('note_off', channel=9, note=42, velocity=64, time=60),\n",
      "    Message('note_on', channel=9, note=42, velocity=100, time=60),\n",
      "    Message('note_off', channel=9, note=42, velocity=64, time=60),\n",
      "    Message('note_on', channel=9, note=42, velocity=100, time=60),\n",
      "    Message('note_off', channel=9, note=42, velocity=64, time=60),\n",
      "    Message('note_on', channel=9, note=42, velocity=100, time=60),\n",
      "    Message('note_off', channel=9, note=42, velocity=64, time=60),\n",
      "    Message('note_on', channel=9, note=42, velocity=100, time=60),\n",
      "    Message('note_on', channel=9, note=39, velocity=100, time=0),\n",
      "    Message('note_off', channel=9, note=39, velocity=64, time=60),\n",
      "    Message('note_off', channel=9, note=42, velocity=64, time=0),\n",
      "    Message('note_on', channel=9, note=42, velocity=100, time=60),\n",
      "    Message('note_off', channel=9, note=42, velocity=64, time=60),\n",
      "    Message('note_on', channel=9, note=42, velocity=100, time=60),\n",
      "    Message('note_off', channel=9, note=42, velocity=64, time=60),\n",
      "    Message('note_on', channel=9, note=42, velocity=100, time=60),\n",
      "    Message('note_off', channel=9, note=42, velocity=64, time=60),\n",
      "    Message('note_on', channel=9, note=42, velocity=100, time=60),\n",
      "    Message('note_off', channel=9, note=42, velocity=64, time=60),\n",
      "    Message('note_on', channel=9, note=42, velocity=100, time=60),\n",
      "    Message('note_off', channel=9, note=42, velocity=64, time=60),\n",
      "    Message('note_on', channel=9, note=42, velocity=100, time=60),\n",
      "    Message('note_off', channel=9, note=42, velocity=64, time=60),\n",
      "    Message('note_on', channel=9, note=42, velocity=100, time=60),\n",
      "    Message('note_off', channel=9, note=42, velocity=64, time=60),\n",
      "    Message('note_on', channel=9, note=42, velocity=100, time=60),\n",
      "    Message('note_on', channel=9, note=39, velocity=100, time=0),\n",
      "    Message('note_off', channel=9, note=39, velocity=64, time=60),\n",
      "    Message('note_off', channel=9, note=42, velocity=64, time=0),\n",
      "    Message('note_on', channel=9, note=42, velocity=100, time=60),\n",
      "    Message('note_off', channel=9, note=42, velocity=64, time=60),\n",
      "    Message('note_on', channel=9, note=42, velocity=100, time=60),\n",
      "    Message('note_off', channel=9, note=42, velocity=64, time=60),\n",
      "    Message('note_on', channel=9, note=42, velocity=100, time=60),\n",
      "    Message('note_off', channel=9, note=42, velocity=64, time=60),\n",
      "    Message('note_on', channel=9, note=42, velocity=100, time=60),\n",
      "    Message('note_off', channel=9, note=42, velocity=64, time=60),\n",
      "    Message('note_on', channel=9, note=42, velocity=100, time=60),\n",
      "    Message('note_off', channel=9, note=42, velocity=64, time=60),\n",
      "    Message('note_on', channel=9, note=42, velocity=100, time=60),\n",
      "    Message('note_off', channel=9, note=42, velocity=64, time=60),\n",
      "    Message('note_on', channel=9, note=42, velocity=100, time=60),\n",
      "    Message('note_off', channel=9, note=42, velocity=64, time=60),\n",
      "    Message('note_on', channel=9, note=42, velocity=100, time=60),\n",
      "    Message('note_on', channel=9, note=39, velocity=100, time=0),\n",
      "    Message('note_off', channel=9, note=39, velocity=64, time=60),\n",
      "    Message('note_off', channel=9, note=42, velocity=64, time=0),\n",
      "    Message('note_on', channel=9, note=42, velocity=100, time=60),\n",
      "    Message('note_off', channel=9, note=42, velocity=64, time=60),\n",
      "    Message('note_on', channel=9, note=42, velocity=100, time=60),\n",
      "    Message('note_off', channel=9, note=42, velocity=64, time=60),\n",
      "    Message('note_on', channel=9, note=42, velocity=100, time=60),\n",
      "    Message('note_off', channel=9, note=42, velocity=64, time=60),\n",
      "    Message('note_on', channel=9, note=42, velocity=100, time=60),\n",
      "    Message('note_off', channel=9, note=42, velocity=64, time=60),\n",
      "    Message('note_on', channel=9, note=42, velocity=100, time=60),\n",
      "    Message('note_off', channel=9, note=42, velocity=64, time=60),\n",
      "    Message('note_on', channel=9, note=42, velocity=100, time=60),\n",
      "    Message('note_off', channel=9, note=42, velocity=64, time=60),\n",
      "    Message('note_on', channel=9, note=42, velocity=100, time=60),\n",
      "    Message('note_off', channel=9, note=42, velocity=64, time=60),\n",
      "    Message('note_on', channel=9, note=42, velocity=100, time=60),\n",
      "    Message('note_on', channel=9, note=39, velocity=100, time=0),\n",
      "    Message('note_off', channel=9, note=39, velocity=64, time=60),\n",
      "    Message('note_off', channel=9, note=42, velocity=64, time=0),\n",
      "    Message('note_on', channel=9, note=42, velocity=100, time=60),\n",
      "    Message('note_off', channel=9, note=42, velocity=64, time=60),\n",
      "    Message('note_on', channel=9, note=42, velocity=100, time=60),\n",
      "    Message('note_off', channel=9, note=42, velocity=64, time=60),\n",
      "    Message('note_on', channel=9, note=42, velocity=100, time=60),\n",
      "    Message('note_off', channel=9, note=42, velocity=64, time=60),\n",
      "    Message('note_on', channel=9, note=42, velocity=100, time=60),\n",
      "    Message('note_off', channel=9, note=42, velocity=64, time=60),\n",
      "    Message('note_on', channel=9, note=42, velocity=100, time=60),\n",
      "    Message('note_off', channel=9, note=42, velocity=64, time=60),\n",
      "    Message('note_on', channel=9, note=42, velocity=100, time=60),\n",
      "    Message('note_off', channel=9, note=42, velocity=64, time=60),\n",
      "    Message('note_on', channel=9, note=42, velocity=100, time=60),\n",
      "    Message('note_off', channel=9, note=42, velocity=64, time=60),\n",
      "    Message('note_on', channel=9, note=42, velocity=100, time=60),\n",
      "    Message('note_on', channel=9, note=39, velocity=100, time=0),\n",
      "    Message('note_off', channel=9, note=39, velocity=64, time=60),\n",
      "    Message('note_off', channel=9, note=42, velocity=64, time=0),\n",
      "    Message('note_on', channel=9, note=42, velocity=100, time=60),\n",
      "    Message('note_off', channel=9, note=42, velocity=64, time=60),\n",
      "    Message('note_on', channel=9, note=42, velocity=100, time=60),\n",
      "    Message('note_off', channel=9, note=42, velocity=64, time=60),\n",
      "    Message('note_on', channel=9, note=42, velocity=100, time=60),\n",
      "    Message('note_off', channel=9, note=42, velocity=64, time=60),\n",
      "    Message('note_on', channel=9, note=42, velocity=100, time=60),\n",
      "    Message('note_on', channel=9, note=35, velocity=100, time=0),\n",
      "    Message('note_on', channel=9, note=36, velocity=100, time=0),\n",
      "    Message('note_off', channel=9, note=36, velocity=64, time=60),\n",
      "    Message('note_off', channel=9, note=35, velocity=64, time=0),\n",
      "    Message('note_off', channel=9, note=42, velocity=64, time=0),\n",
      "    Message('note_on', channel=9, note=42, velocity=100, time=60),\n",
      "    Message('note_off', channel=9, note=42, velocity=64, time=60),\n",
      "    Message('note_on', channel=9, note=42, velocity=100, time=60),\n",
      "    Message('note_on', channel=9, note=36, velocity=100, time=0),\n",
      "    Message('note_on', channel=9, note=35, velocity=100, time=0),\n",
      "    Message('note_off', channel=9, note=35, velocity=64, time=60),\n",
      "    Message('note_off', channel=9, note=36, velocity=64, time=0),\n",
      "    Message('note_off', channel=9, note=42, velocity=64, time=0),\n",
      "    Message('note_on', channel=9, note=42, velocity=100, time=60),\n",
      "    Message('note_off', channel=9, note=42, velocity=64, time=60),\n",
      "    Message('note_on', channel=9, note=42, velocity=100, time=60),\n",
      "    Message('note_on', channel=9, note=38, velocity=100, time=0),\n",
      "    Message('note_on', channel=9, note=40, velocity=100, time=0),\n",
      "    Message('note_off', channel=9, note=40, velocity=64, time=60),\n",
      "    Message('note_off', channel=9, note=38, velocity=64, time=0),\n",
      "    Message('note_off', channel=9, note=42, velocity=64, time=0),\n",
      "    Message('note_on', channel=9, note=42, velocity=100, time=60),\n",
      "    Message('note_off', channel=9, note=42, velocity=64, time=60),\n",
      "    Message('note_on', channel=9, note=42, velocity=100, time=60),\n",
      "    Message('note_off', channel=9, note=42, velocity=64, time=60),\n",
      "    Message('note_on', channel=9, note=42, velocity=100, time=60),\n",
      "    Message('note_on', channel=9, note=36, velocity=100, time=0),\n",
      "    Message('note_on', channel=9, note=35, velocity=100, time=0),\n",
      "    Message('note_off', channel=9, note=35, velocity=64, time=60),\n",
      "    Message('note_off', channel=9, note=36, velocity=64, time=0),\n",
      "    Message('note_off', channel=9, note=42, velocity=64, time=0),\n",
      "    Message('note_on', channel=9, note=42, velocity=100, time=60),\n",
      "    Message('note_off', channel=9, note=42, velocity=64, time=60),\n",
      "    Message('note_on', channel=9, note=42, velocity=100, time=60),\n",
      "    Message('note_off', channel=9, note=42, velocity=64, time=60),\n",
      "    Message('note_on', channel=9, note=42, velocity=100, time=60),\n",
      "    Message('note_on', channel=9, note=36, velocity=100, time=0),\n",
      "    Message('note_on', channel=9, note=35, velocity=100, time=0),\n",
      "    Message('note_off', channel=9, note=35, velocity=64, time=60),\n",
      "    Message('note_off', channel=9, note=36, velocity=64, time=0),\n",
      "    Message('note_off', channel=9, note=42, velocity=64, time=0),\n",
      "    Message('note_on', channel=9, note=42, velocity=100, time=60),\n",
      "    Message('note_off', channel=9, note=42, velocity=64, time=60),\n",
      "    Message('note_on', channel=9, note=42, velocity=100, time=60),\n",
      "    Message('note_on', channel=9, note=40, velocity=100, time=0),\n",
      "    Message('note_on', channel=9, note=38, velocity=100, time=0),\n",
      "    Message('note_off', channel=9, note=38, velocity=64, time=60),\n",
      "    Message('note_off', channel=9, note=40, velocity=64, time=0),\n",
      "    Message('note_off', channel=9, note=42, velocity=64, time=0),\n",
      "    Message('note_on', channel=9, note=42, velocity=100, time=60),\n",
      "    Message('note_off', channel=9, note=42, velocity=64, time=60),\n",
      "    Message('note_on', channel=9, note=42, velocity=100, time=60),\n",
      "    Message('note_off', channel=9, note=42, velocity=64, time=60),\n",
      "    Message('note_on', channel=9, note=42, velocity=100, time=60),\n",
      "    Message('note_off', channel=9, note=42, velocity=64, time=60),\n",
      "    Message('note_on', channel=9, note=42, velocity=100, time=60),\n",
      "    Message('note_on', channel=9, note=35, velocity=100, time=0),\n",
      "    Message('note_on', channel=9, note=36, velocity=100, time=0),\n",
      "    Message('note_off', channel=9, note=36, velocity=64, time=60),\n",
      "    Message('note_off', channel=9, note=35, velocity=64, time=0),\n",
      "    Message('note_off', channel=9, note=42, velocity=64, time=0),\n",
      "    Message('note_on', channel=9, note=42, velocity=100, time=60),\n",
      "    Message('note_off', channel=9, note=42, velocity=64, time=60),\n",
      "    Message('note_on', channel=9, note=42, velocity=100, time=60),\n",
      "    Message('note_on', channel=9, note=36, velocity=100, time=0),\n",
      "    Message('note_on', channel=9, note=35, velocity=100, time=0),\n",
      "    Message('note_off', channel=9, note=35, velocity=64, time=60),\n",
      "    Message('note_off', channel=9, note=36, velocity=64, time=0),\n",
      "    Message('note_off', channel=9, note=42, velocity=64, time=0),\n",
      "    Message('note_on', channel=9, note=42, velocity=100, time=60),\n",
      "    Message('note_off', channel=9, note=42, velocity=64, time=60),\n",
      "    Message('note_on', channel=9, note=42, velocity=100, time=60),\n",
      "    Message('note_on', channel=9, note=38, velocity=100, time=0),\n",
      "    Message('note_on', channel=9, note=40, velocity=100, time=0),\n",
      "    Message('note_off', channel=9, note=40, velocity=64, time=60),\n",
      "    Message('note_off', channel=9, note=38, velocity=64, time=0),\n",
      "    Message('note_off', channel=9, note=42, velocity=64, time=0),\n",
      "    Message('note_on', channel=9, note=42, velocity=100, time=60),\n",
      "    Message('note_off', channel=9, note=42, velocity=64, time=60),\n",
      "    Message('note_on', channel=9, note=42, velocity=100, time=60),\n",
      "    Message('note_off', channel=9, note=42, velocity=64, time=60),\n",
      "    Message('note_on', channel=9, note=42, velocity=100, time=60),\n",
      "    Message('note_on', channel=9, note=36, velocity=100, time=0),\n",
      "    Message('note_on', channel=9, note=35, velocity=100, time=0),\n",
      "    Message('note_off', channel=9, note=35, velocity=64, time=60),\n",
      "    Message('note_off', channel=9, note=36, velocity=64, time=0),\n",
      "    Message('note_off', channel=9, note=42, velocity=64, time=0),\n",
      "    Message('note_on', channel=9, note=42, velocity=100, time=60),\n",
      "    Message('note_off', channel=9, note=42, velocity=64, time=60),\n",
      "    Message('note_on', channel=9, note=42, velocity=100, time=60),\n",
      "    Message('note_off', channel=9, note=42, velocity=64, time=60),\n",
      "    Message('note_on', channel=9, note=42, velocity=100, time=60),\n",
      "    Message('note_on', channel=9, note=36, velocity=100, time=0),\n",
      "    Message('note_on', channel=9, note=35, velocity=100, time=0),\n",
      "    Message('note_off', channel=9, note=35, velocity=64, time=60),\n",
      "    Message('note_off', channel=9, note=36, velocity=64, time=0),\n",
      "    Message('note_off', channel=9, note=42, velocity=64, time=0),\n",
      "    Message('note_on', channel=9, note=42, velocity=100, time=60),\n",
      "    Message('note_off', channel=9, note=42, velocity=64, time=60),\n",
      "    Message('note_on', channel=9, note=42, velocity=100, time=60),\n",
      "    Message('note_on', channel=9, note=40, velocity=100, time=0),\n",
      "    Message('note_on', channel=9, note=38, velocity=100, time=0),\n",
      "    Message('note_off', channel=9, note=38, velocity=64, time=60),\n",
      "    Message('note_off', channel=9, note=40, velocity=64, time=0),\n",
      "    Message('note_off', channel=9, note=42, velocity=64, time=0),\n",
      "    Message('note_on', channel=9, note=42, velocity=100, time=60),\n",
      "    Message('note_off', channel=9, note=42, velocity=64, time=60),\n",
      "    Message('note_on', channel=9, note=42, velocity=100, time=60),\n",
      "    Message('note_off', channel=9, note=42, velocity=64, time=60),\n",
      "    Message('note_on', channel=9, note=42, velocity=100, time=60),\n",
      "    Message('note_off', channel=9, note=42, velocity=64, time=60),\n",
      "    Message('note_on', channel=9, note=42, velocity=100, time=60),\n",
      "    Message('note_on', channel=9, note=35, velocity=100, time=0),\n",
      "    Message('note_on', channel=9, note=36, velocity=100, time=0),\n",
      "    Message('note_off', channel=9, note=36, velocity=64, time=60),\n",
      "    Message('note_off', channel=9, note=35, velocity=64, time=0),\n",
      "    Message('note_off', channel=9, note=42, velocity=64, time=0),\n",
      "    Message('note_on', channel=9, note=42, velocity=100, time=60),\n",
      "    Message('note_off', channel=9, note=42, velocity=64, time=60),\n",
      "    Message('note_on', channel=9, note=42, velocity=100, time=60),\n",
      "    Message('note_on', channel=9, note=36, velocity=100, time=0),\n",
      "    Message('note_on', channel=9, note=35, velocity=100, time=0),\n",
      "    Message('note_off', channel=9, note=35, velocity=64, time=60),\n",
      "    Message('note_off', channel=9, note=36, velocity=64, time=0),\n",
      "    Message('note_off', channel=9, note=42, velocity=64, time=0),\n",
      "    Message('note_on', channel=9, note=42, velocity=100, time=60),\n",
      "    Message('note_off', channel=9, note=42, velocity=64, time=60),\n",
      "    Message('note_on', channel=9, note=42, velocity=100, time=60),\n",
      "    Message('note_on', channel=9, note=38, velocity=100, time=0),\n",
      "    Message('note_on', channel=9, note=40, velocity=100, time=0),\n",
      "    Message('note_off', channel=9, note=40, velocity=64, time=60),\n",
      "    Message('note_off', channel=9, note=38, velocity=64, time=0),\n",
      "    Message('note_off', channel=9, note=42, velocity=64, time=0),\n",
      "    Message('note_on', channel=9, note=42, velocity=100, time=60),\n",
      "    Message('note_off', channel=9, note=42, velocity=64, time=60),\n",
      "    Message('note_on', channel=9, note=42, velocity=100, time=60),\n",
      "    Message('note_off', channel=9, note=42, velocity=64, time=60),\n",
      "    Message('note_on', channel=9, note=42, velocity=100, time=60),\n",
      "    Message('note_on', channel=9, note=36, velocity=100, time=0),\n",
      "    Message('note_on', channel=9, note=35, velocity=100, time=0),\n",
      "    Message('note_off', channel=9, note=35, velocity=64, time=60),\n",
      "    Message('note_off', channel=9, note=36, velocity=64, time=0),\n",
      "    Message('note_off', channel=9, note=42, velocity=64, time=0),\n",
      "    Message('note_on', channel=9, note=42, velocity=100, time=60),\n",
      "    Message('note_off', channel=9, note=42, velocity=64, time=60),\n",
      "    Message('note_on', channel=9, note=42, velocity=100, time=60),\n",
      "    Message('note_off', channel=9, note=42, velocity=64, time=60),\n",
      "    Message('note_on', channel=9, note=42, velocity=100, time=60),\n",
      "    Message('note_on', channel=9, note=36, velocity=100, time=0),\n",
      "    Message('note_on', channel=9, note=35, velocity=100, time=0),\n",
      "    Message('note_off', channel=9, note=35, velocity=64, time=60),\n",
      "    Message('note_off', channel=9, note=36, velocity=64, time=0),\n",
      "    Message('note_off', channel=9, note=42, velocity=64, time=0),\n",
      "    Message('note_on', channel=9, note=42, velocity=100, time=60),\n",
      "    Message('note_off', channel=9, note=42, velocity=64, time=60),\n",
      "    Message('note_on', channel=9, note=42, velocity=100, time=60),\n",
      "    Message('note_on', channel=9, note=40, velocity=100, time=0),\n",
      "    Message('note_on', channel=9, note=38, velocity=100, time=0),\n",
      "    Message('note_off', channel=9, note=38, velocity=64, time=60),\n",
      "    Message('note_off', channel=9, note=40, velocity=64, time=0),\n",
      "    Message('note_off', channel=9, note=42, velocity=64, time=0),\n",
      "    Message('note_on', channel=9, note=42, velocity=100, time=60),\n",
      "    Message('note_off', channel=9, note=42, velocity=64, time=60),\n",
      "    Message('note_on', channel=9, note=42, velocity=100, time=60),\n",
      "    Message('note_off', channel=9, note=42, velocity=64, time=60),\n",
      "    Message('note_on', channel=9, note=42, velocity=100, time=60),\n",
      "    Message('note_off', channel=9, note=42, velocity=64, time=60),\n",
      "    Message('note_on', channel=9, note=42, velocity=100, time=60),\n",
      "    Message('note_on', channel=9, note=35, velocity=100, time=0),\n",
      "    Message('note_on', channel=9, note=36, velocity=100, time=0),\n",
      "    Message('note_off', channel=9, note=36, velocity=64, time=60),\n",
      "    Message('note_off', channel=9, note=35, velocity=64, time=0),\n",
      "    Message('note_off', channel=9, note=42, velocity=64, time=0),\n",
      "    Message('note_on', channel=9, note=42, velocity=100, time=60),\n",
      "    Message('note_off', channel=9, note=42, velocity=64, time=60),\n",
      "    Message('note_on', channel=9, note=42, velocity=100, time=60),\n",
      "    Message('note_on', channel=9, note=36, velocity=100, time=0),\n",
      "    Message('note_on', channel=9, note=35, velocity=100, time=0),\n",
      "    Message('note_off', channel=9, note=35, velocity=64, time=60),\n",
      "    Message('note_off', channel=9, note=36, velocity=64, time=0),\n",
      "    Message('note_off', channel=9, note=42, velocity=64, time=0),\n",
      "    Message('note_on', channel=9, note=42, velocity=100, time=60),\n",
      "    Message('note_off', channel=9, note=42, velocity=64, time=60),\n",
      "    Message('note_on', channel=9, note=42, velocity=100, time=60),\n",
      "    Message('note_on', channel=9, note=38, velocity=100, time=0),\n",
      "    Message('note_on', channel=9, note=40, velocity=100, time=0),\n",
      "    Message('note_off', channel=9, note=40, velocity=64, time=60),\n",
      "    Message('note_off', channel=9, note=38, velocity=64, time=0),\n",
      "    Message('note_off', channel=9, note=42, velocity=64, time=0),\n",
      "    Message('note_on', channel=9, note=42, velocity=100, time=60),\n",
      "    Message('note_off', channel=9, note=42, velocity=64, time=60),\n",
      "    Message('note_on', channel=9, note=42, velocity=100, time=60),\n",
      "    Message('note_off', channel=9, note=42, velocity=64, time=60),\n",
      "    Message('note_on', channel=9, note=42, velocity=100, time=60),\n",
      "    Message('note_on', channel=9, note=36, velocity=100, time=0),\n",
      "    Message('note_on', channel=9, note=35, velocity=100, time=0),\n",
      "    Message('note_off', channel=9, note=35, velocity=64, time=60),\n",
      "    Message('note_off', channel=9, note=36, velocity=64, time=0),\n",
      "    Message('note_off', channel=9, note=42, velocity=64, time=0),\n",
      "    Message('note_on', channel=9, note=42, velocity=100, time=60),\n",
      "    Message('note_off', channel=9, note=42, velocity=64, time=60),\n",
      "    Message('note_on', channel=9, note=42, velocity=100, time=60),\n",
      "    Message('note_off', channel=9, note=42, velocity=64, time=60),\n",
      "    Message('note_on', channel=9, note=42, velocity=100, time=60),\n",
      "    Message('note_on', channel=9, note=36, velocity=100, time=0),\n",
      "    Message('note_on', channel=9, note=35, velocity=100, time=0),\n",
      "    Message('note_off', channel=9, note=35, velocity=64, time=60),\n",
      "    Message('note_off', channel=9, note=36, velocity=64, time=0),\n",
      "    Message('note_off', channel=9, note=42, velocity=64, time=0),\n",
      "    Message('note_on', channel=9, note=42, velocity=100, time=60),\n",
      "    Message('note_off', channel=9, note=42, velocity=64, time=60),\n",
      "    Message('note_on', channel=9, note=42, velocity=100, time=60),\n",
      "    Message('note_on', channel=9, note=40, velocity=100, time=0),\n",
      "    Message('note_on', channel=9, note=38, velocity=100, time=0),\n",
      "    Message('note_off', channel=9, note=38, velocity=64, time=60),\n",
      "    Message('note_off', channel=9, note=40, velocity=64, time=0),\n",
      "    Message('note_off', channel=9, note=42, velocity=64, time=0),\n",
      "    Message('note_on', channel=9, note=42, velocity=100, time=60),\n",
      "    Message('note_off', channel=9, note=42, velocity=64, time=60),\n",
      "    Message('note_on', channel=9, note=42, velocity=100, time=60),\n",
      "    Message('note_off', channel=9, note=42, velocity=64, time=60),\n",
      "    Message('note_on', channel=9, note=42, velocity=100, time=60),\n",
      "    Message('note_off', channel=9, note=42, velocity=64, time=60),\n",
      "    Message('note_on', channel=9, note=42, velocity=100, time=60),\n",
      "    Message('note_on', channel=9, note=35, velocity=100, time=0),\n",
      "    Message('note_on', channel=9, note=36, velocity=100, time=0),\n",
      "    Message('note_off', channel=9, note=36, velocity=64, time=60),\n",
      "    Message('note_off', channel=9, note=35, velocity=64, time=0),\n",
      "    Message('note_off', channel=9, note=42, velocity=64, time=0),\n",
      "    Message('note_on', channel=9, note=42, velocity=100, time=60),\n",
      "    Message('note_off', channel=9, note=42, velocity=64, time=60),\n",
      "    Message('note_on', channel=9, note=42, velocity=100, time=60),\n",
      "    Message('note_on', channel=9, note=36, velocity=100, time=0),\n",
      "    Message('note_on', channel=9, note=35, velocity=100, time=0),\n",
      "    Message('note_off', channel=9, note=35, velocity=64, time=60),\n",
      "    Message('note_off', channel=9, note=36, velocity=64, time=0),\n",
      "    Message('note_off', channel=9, note=42, velocity=64, time=0),\n",
      "    Message('note_on', channel=9, note=42, velocity=100, time=60),\n",
      "    Message('note_off', channel=9, note=42, velocity=64, time=60),\n",
      "    Message('note_on', channel=9, note=42, velocity=100, time=60),\n",
      "    Message('note_on', channel=9, note=38, velocity=100, time=0),\n",
      "    Message('note_on', channel=9, note=40, velocity=100, time=0),\n",
      "    Message('note_off', channel=9, note=40, velocity=64, time=60),\n",
      "    Message('note_off', channel=9, note=38, velocity=64, time=0),\n",
      "    Message('note_off', channel=9, note=42, velocity=64, time=0),\n",
      "    Message('note_on', channel=9, note=42, velocity=100, time=60),\n",
      "    Message('note_off', channel=9, note=42, velocity=64, time=60),\n",
      "    Message('note_on', channel=9, note=42, velocity=100, time=60),\n",
      "    Message('note_off', channel=9, note=42, velocity=64, time=60),\n",
      "    Message('note_on', channel=9, note=42, velocity=100, time=60),\n",
      "    Message('note_on', channel=9, note=36, velocity=100, time=0),\n",
      "    Message('note_on', channel=9, note=35, velocity=100, time=0),\n",
      "    Message('note_off', channel=9, note=35, velocity=64, time=60),\n",
      "    Message('note_off', channel=9, note=36, velocity=64, time=0),\n",
      "    Message('note_off', channel=9, note=42, velocity=64, time=0),\n",
      "    Message('note_on', channel=9, note=42, velocity=100, time=60),\n",
      "    Message('note_off', channel=9, note=42, velocity=64, time=60),\n",
      "    Message('note_on', channel=9, note=42, velocity=100, time=60),\n",
      "    Message('note_off', channel=9, note=42, velocity=64, time=60),\n",
      "    Message('note_on', channel=9, note=42, velocity=100, time=60),\n",
      "    Message('note_on', channel=9, note=36, velocity=100, time=0),\n",
      "    Message('note_on', channel=9, note=35, velocity=100, time=0),\n",
      "    Message('note_off', channel=9, note=35, velocity=64, time=60),\n",
      "    Message('note_off', channel=9, note=36, velocity=64, time=0),\n",
      "    Message('note_off', channel=9, note=42, velocity=64, time=0),\n",
      "    Message('note_on', channel=9, note=42, velocity=100, time=60),\n",
      "    Message('note_off', channel=9, note=42, velocity=64, time=60),\n",
      "    Message('note_on', channel=9, note=42, velocity=100, time=60),\n",
      "    Message('note_on', channel=9, note=40, velocity=100, time=0),\n",
      "    Message('note_on', channel=9, note=38, velocity=100, time=0),\n",
      "    Message('note_off', channel=9, note=38, velocity=64, time=60),\n",
      "    Message('note_off', channel=9, note=40, velocity=64, time=0),\n",
      "    Message('note_off', channel=9, note=42, velocity=64, time=0),\n",
      "    Message('note_on', channel=9, note=42, velocity=100, time=60),\n",
      "    Message('note_off', channel=9, note=42, velocity=64, time=60),\n",
      "    Message('note_on', channel=9, note=42, velocity=100, time=60),\n",
      "    Message('note_off', channel=9, note=42, velocity=64, time=60),\n",
      "    Message('note_on', channel=9, note=42, velocity=100, time=60),\n",
      "    Message('note_off', channel=9, note=42, velocity=64, time=60),\n",
      "    Message('note_on', channel=9, note=42, velocity=100, time=60),\n",
      "    Message('note_on', channel=9, note=35, velocity=100, time=0),\n",
      "    Message('note_on', channel=9, note=36, velocity=100, time=0),\n",
      "    Message('note_off', channel=9, note=36, velocity=64, time=60),\n",
      "    Message('note_off', channel=9, note=35, velocity=64, time=0),\n",
      "    Message('note_off', channel=9, note=42, velocity=64, time=0),\n",
      "    Message('note_on', channel=9, note=42, velocity=100, time=60),\n",
      "    Message('note_off', channel=9, note=42, velocity=64, time=60),\n",
      "    Message('note_on', channel=9, note=42, velocity=100, time=60),\n",
      "    Message('note_on', channel=9, note=36, velocity=100, time=0),\n",
      "    Message('note_on', channel=9, note=35, velocity=100, time=0),\n",
      "    Message('note_off', channel=9, note=35, velocity=64, time=60),\n",
      "    Message('note_off', channel=9, note=36, velocity=64, time=0),\n",
      "    Message('note_off', channel=9, note=42, velocity=64, time=0),\n",
      "    Message('note_on', channel=9, note=42, velocity=100, time=60),\n",
      "    Message('note_off', channel=9, note=42, velocity=64, time=60),\n",
      "    Message('note_on', channel=9, note=42, velocity=100, time=60),\n",
      "    Message('note_on', channel=9, note=38, velocity=100, time=0),\n",
      "    Message('note_on', channel=9, note=40, velocity=100, time=0),\n",
      "    Message('note_off', channel=9, note=40, velocity=64, time=60),\n",
      "    Message('note_off', channel=9, note=38, velocity=64, time=0),\n",
      "    Message('note_off', channel=9, note=42, velocity=64, time=0),\n",
      "    Message('note_on', channel=9, note=42, velocity=100, time=60),\n",
      "    Message('note_off', channel=9, note=42, velocity=64, time=60),\n",
      "    Message('note_on', channel=9, note=42, velocity=100, time=60),\n",
      "    Message('note_off', channel=9, note=42, velocity=64, time=60),\n",
      "    Message('note_on', channel=9, note=42, velocity=100, time=60),\n",
      "    Message('note_on', channel=9, note=36, velocity=100, time=0),\n",
      "    Message('note_on', channel=9, note=35, velocity=100, time=0),\n",
      "    Message('note_off', channel=9, note=35, velocity=64, time=60),\n",
      "    Message('note_off', channel=9, note=36, velocity=64, time=0),\n",
      "    Message('note_off', channel=9, note=42, velocity=64, time=0),\n",
      "    Message('note_on', channel=9, note=42, velocity=100, time=60),\n",
      "    Message('note_off', channel=9, note=42, velocity=64, time=60),\n",
      "    Message('note_on', channel=9, note=42, velocity=100, time=60),\n",
      "    Message('note_off', channel=9, note=42, velocity=64, time=60),\n",
      "    Message('note_on', channel=9, note=42, velocity=100, time=60),\n",
      "    Message('note_on', channel=9, note=36, velocity=100, time=0),\n",
      "    Message('note_on', channel=9, note=35, velocity=100, time=0),\n",
      "    Message('note_off', channel=9, note=35, velocity=64, time=60),\n",
      "    Message('note_off', channel=9, note=36, velocity=64, time=0),\n",
      "    Message('note_off', channel=9, note=42, velocity=64, time=0),\n",
      "    Message('note_on', channel=9, note=42, velocity=100, time=60),\n",
      "    Message('note_off', channel=9, note=42, velocity=64, time=60),\n",
      "    Message('note_on', channel=9, note=42, velocity=100, time=60),\n",
      "    Message('note_on', channel=9, note=40, velocity=100, time=0),\n",
      "    Message('note_on', channel=9, note=38, velocity=100, time=0),\n",
      "    Message('note_off', channel=9, note=38, velocity=64, time=60),\n",
      "    Message('note_off', channel=9, note=40, velocity=64, time=0),\n",
      "    Message('note_off', channel=9, note=42, velocity=64, time=0),\n",
      "    Message('note_on', channel=9, note=42, velocity=100, time=60),\n",
      "    Message('note_off', channel=9, note=42, velocity=64, time=60),\n",
      "    Message('note_on', channel=9, note=42, velocity=100, time=60),\n",
      "    Message('note_off', channel=9, note=42, velocity=64, time=60),\n",
      "    Message('note_on', channel=9, note=42, velocity=100, time=60),\n",
      "    Message('note_off', channel=9, note=42, velocity=64, time=60),\n",
      "    Message('note_on', channel=9, note=42, velocity=100, time=60),\n",
      "    Message('note_on', channel=9, note=35, velocity=100, time=0),\n",
      "    Message('note_on', channel=9, note=36, velocity=100, time=0),\n",
      "    Message('note_off', channel=9, note=36, velocity=64, time=60),\n",
      "    Message('note_off', channel=9, note=35, velocity=64, time=0),\n",
      "    Message('note_off', channel=9, note=42, velocity=64, time=0),\n",
      "    Message('note_on', channel=9, note=42, velocity=100, time=60),\n",
      "    Message('note_off', channel=9, note=42, velocity=64, time=60),\n",
      "    Message('note_on', channel=9, note=42, velocity=100, time=60),\n",
      "    Message('note_on', channel=9, note=36, velocity=100, time=0),\n",
      "    Message('note_on', channel=9, note=35, velocity=100, time=0),\n",
      "    Message('note_off', channel=9, note=35, velocity=64, time=60),\n",
      "    Message('note_off', channel=9, note=36, velocity=64, time=0),\n",
      "    Message('note_off', channel=9, note=42, velocity=64, time=0),\n",
      "    Message('note_on', channel=9, note=42, velocity=100, time=60),\n",
      "    Message('note_off', channel=9, note=42, velocity=64, time=60),\n",
      "    Message('note_on', channel=9, note=42, velocity=100, time=60),\n",
      "    Message('note_on', channel=9, note=38, velocity=100, time=0),\n",
      "    Message('note_on', channel=9, note=40, velocity=100, time=0),\n",
      "    Message('note_off', channel=9, note=40, velocity=64, time=60),\n",
      "    Message('note_off', channel=9, note=38, velocity=64, time=0),\n",
      "    Message('note_off', channel=9, note=42, velocity=64, time=0),\n",
      "    Message('note_on', channel=9, note=42, velocity=100, time=60),\n",
      "    Message('note_off', channel=9, note=42, velocity=64, time=60),\n",
      "    Message('note_on', channel=9, note=42, velocity=100, time=60),\n",
      "    Message('note_off', channel=9, note=42, velocity=64, time=60),\n",
      "    Message('note_on', channel=9, note=42, velocity=100, time=60),\n",
      "    Message('note_on', channel=9, note=36, velocity=100, time=0),\n",
      "    Message('note_on', channel=9, note=35, velocity=100, time=0),\n",
      "    Message('note_off', channel=9, note=35, velocity=64, time=60),\n",
      "    Message('note_off', channel=9, note=36, velocity=64, time=0),\n",
      "    Message('note_off', channel=9, note=42, velocity=64, time=0),\n",
      "    Message('note_on', channel=9, note=42, velocity=100, time=60),\n",
      "    Message('note_off', channel=9, note=42, velocity=64, time=60),\n",
      "    Message('note_on', channel=9, note=42, velocity=100, time=60),\n",
      "    Message('note_off', channel=9, note=42, velocity=64, time=60),\n",
      "    Message('note_on', channel=9, note=42, velocity=100, time=60),\n",
      "    Message('note_on', channel=9, note=36, velocity=100, time=0),\n",
      "    Message('note_on', channel=9, note=35, velocity=100, time=0),\n",
      "    Message('note_off', channel=9, note=35, velocity=64, time=60),\n",
      "    Message('note_off', channel=9, note=36, velocity=64, time=0),\n",
      "    Message('note_off', channel=9, note=42, velocity=64, time=0),\n",
      "    Message('note_on', channel=9, note=42, velocity=100, time=60),\n",
      "    Message('note_off', channel=9, note=42, velocity=64, time=60),\n",
      "    Message('note_on', channel=9, note=42, velocity=100, time=60),\n",
      "    Message('note_on', channel=9, note=40, velocity=100, time=0),\n",
      "    Message('note_on', channel=9, note=38, velocity=100, time=0),\n",
      "    Message('note_off', channel=9, note=38, velocity=64, time=60),\n",
      "    Message('note_off', channel=9, note=40, velocity=64, time=0),\n",
      "    Message('note_off', channel=9, note=42, velocity=64, time=0),\n",
      "    Message('note_on', channel=9, note=42, velocity=100, time=60),\n",
      "    Message('note_off', channel=9, note=42, velocity=64, time=60),\n",
      "    Message('note_on', channel=9, note=42, velocity=100, time=60),\n",
      "    Message('note_off', channel=9, note=42, velocity=64, time=60),\n",
      "    Message('note_on', channel=9, note=42, velocity=100, time=60),\n",
      "    Message('note_off', channel=9, note=42, velocity=64, time=60),\n",
      "    Message('note_on', channel=9, note=35, velocity=100, time=60),\n",
      "    Message('note_on', channel=9, note=36, velocity=100, time=0),\n",
      "    Message('note_off', channel=9, note=36, velocity=64, time=60),\n",
      "    Message('note_off', channel=9, note=35, velocity=64, time=0),\n",
      "    Message('note_on', channel=9, note=35, velocity=100, time=180),\n",
      "    Message('note_on', channel=9, note=36, velocity=100, time=0),\n",
      "    Message('note_off', channel=9, note=36, velocity=64, time=60),\n",
      "    Message('note_off', channel=9, note=35, velocity=64, time=0),\n",
      "    Message('note_on', channel=9, note=39, velocity=100, time=180),\n",
      "    Message('note_off', channel=9, note=39, velocity=64, time=60),\n",
      "    Message('note_on', channel=9, note=35, velocity=100, time=300),\n",
      "    Message('note_on', channel=9, note=36, velocity=100, time=0),\n",
      "    Message('note_off', channel=9, note=36, velocity=64, time=60),\n",
      "    Message('note_off', channel=9, note=35, velocity=64, time=0),\n",
      "    Message('note_on', channel=9, note=35, velocity=100, time=300),\n",
      "    Message('note_on', channel=9, note=36, velocity=100, time=0),\n",
      "    Message('note_off', channel=9, note=36, velocity=64, time=60),\n",
      "    Message('note_off', channel=9, note=35, velocity=64, time=0),\n",
      "    Message('note_on', channel=9, note=38, velocity=100, time=180),\n",
      "    Message('note_on', channel=9, note=40, velocity=100, time=0),\n",
      "    Message('note_off', channel=9, note=40, velocity=64, time=60),\n",
      "    Message('note_off', channel=9, note=38, velocity=64, time=0),\n",
      "    Message('note_on', channel=9, note=35, velocity=100, time=180),\n",
      "    Message('note_on', channel=9, note=36, velocity=100, time=0),\n",
      "    Message('note_off', channel=9, note=36, velocity=64, time=60),\n",
      "    Message('note_off', channel=9, note=35, velocity=64, time=0),\n",
      "    Message('note_on', channel=9, note=42, velocity=100, time=180),\n",
      "    Message('note_on', channel=9, note=35, velocity=100, time=0),\n",
      "    Message('note_on', channel=9, note=36, velocity=100, time=0),\n",
      "    Message('note_off', channel=9, note=36, velocity=64, time=60),\n",
      "    Message('note_off', channel=9, note=35, velocity=64, time=0),\n",
      "    Message('note_off', channel=9, note=42, velocity=64, time=0),\n",
      "    Message('note_on', channel=9, note=42, velocity=100, time=60),\n",
      "    Message('note_off', channel=9, note=42, velocity=64, time=60),\n",
      "    Message('note_on', channel=9, note=42, velocity=100, time=60),\n",
      "    Message('note_on', channel=9, note=36, velocity=100, time=0),\n",
      "    Message('note_on', channel=9, note=35, velocity=100, time=0),\n",
      "    Message('note_off', channel=9, note=35, velocity=64, time=60),\n",
      "    Message('note_off', channel=9, note=36, velocity=64, time=0),\n",
      "    Message('note_off', channel=9, note=42, velocity=64, time=0),\n",
      "    Message('note_on', channel=9, note=42, velocity=100, time=60),\n",
      "    Message('note_off', channel=9, note=42, velocity=64, time=60),\n",
      "    Message('note_on', channel=9, note=42, velocity=100, time=60),\n",
      "    Message('note_on', channel=9, note=38, velocity=100, time=0),\n",
      "    Message('note_on', channel=9, note=40, velocity=100, time=0),\n",
      "    Message('note_off', channel=9, note=40, velocity=64, time=60),\n",
      "    Message('note_off', channel=9, note=38, velocity=64, time=0),\n",
      "    Message('note_off', channel=9, note=42, velocity=64, time=0),\n",
      "    Message('note_on', channel=9, note=42, velocity=100, time=60),\n",
      "    Message('note_off', channel=9, note=42, velocity=64, time=60),\n",
      "    Message('note_on', channel=9, note=42, velocity=100, time=60),\n",
      "    Message('note_off', channel=9, note=42, velocity=64, time=60),\n",
      "    Message('note_on', channel=9, note=42, velocity=100, time=60),\n",
      "    Message('note_on', channel=9, note=36, velocity=100, time=0),\n",
      "    Message('note_on', channel=9, note=35, velocity=100, time=0),\n",
      "    Message('note_off', channel=9, note=35, velocity=64, time=60),\n",
      "    Message('note_off', channel=9, note=36, velocity=64, time=0),\n",
      "    Message('note_off', channel=9, note=42, velocity=64, time=0),\n",
      "    Message('note_on', channel=9, note=42, velocity=100, time=60),\n",
      "    Message('note_off', channel=9, note=42, velocity=64, time=60),\n",
      "    Message('note_on', channel=9, note=42, velocity=100, time=60),\n",
      "    Message('note_off', channel=9, note=42, velocity=64, time=60),\n",
      "    Message('note_on', channel=9, note=42, velocity=100, time=60),\n",
      "    Message('note_on', channel=9, note=36, velocity=100, time=0),\n",
      "    Message('note_on', channel=9, note=35, velocity=100, time=0),\n",
      "    Message('note_off', channel=9, note=35, velocity=64, time=60),\n",
      "    Message('note_off', channel=9, note=36, velocity=64, time=0),\n",
      "    Message('note_off', channel=9, note=42, velocity=64, time=0),\n",
      "    Message('note_on', channel=9, note=42, velocity=100, time=60),\n",
      "    Message('note_off', channel=9, note=42, velocity=64, time=60),\n",
      "    Message('note_on', channel=9, note=42, velocity=100, time=60),\n",
      "    Message('note_on', channel=9, note=40, velocity=100, time=0),\n",
      "    Message('note_on', channel=9, note=38, velocity=100, time=0),\n",
      "    Message('note_off', channel=9, note=38, velocity=64, time=60),\n",
      "    Message('note_off', channel=9, note=40, velocity=64, time=0),\n",
      "    Message('note_off', channel=9, note=42, velocity=64, time=0),\n",
      "    Message('note_on', channel=9, note=42, velocity=100, time=60),\n",
      "    Message('note_off', channel=9, note=42, velocity=64, time=60),\n",
      "    Message('note_on', channel=9, note=42, velocity=100, time=60),\n",
      "    Message('note_off', channel=9, note=42, velocity=64, time=60),\n",
      "    Message('note_on', channel=9, note=42, velocity=100, time=60),\n",
      "    Message('note_off', channel=9, note=42, velocity=64, time=60),\n",
      "    Message('note_on', channel=9, note=42, velocity=100, time=60),\n",
      "    Message('note_on', channel=9, note=35, velocity=100, time=0),\n",
      "    Message('note_on', channel=9, note=36, velocity=100, time=0),\n",
      "    Message('note_off', channel=9, note=36, velocity=64, time=60),\n",
      "    Message('note_off', channel=9, note=35, velocity=64, time=0),\n",
      "    Message('note_off', channel=9, note=42, velocity=64, time=0),\n",
      "    Message('note_on', channel=9, note=42, velocity=100, time=60),\n",
      "    Message('note_off', channel=9, note=42, velocity=64, time=60),\n",
      "    Message('note_on', channel=9, note=42, velocity=100, time=60),\n",
      "    Message('note_on', channel=9, note=36, velocity=100, time=0),\n",
      "    Message('note_on', channel=9, note=35, velocity=100, time=0),\n",
      "    Message('note_off', channel=9, note=35, velocity=64, time=60),\n",
      "    Message('note_off', channel=9, note=36, velocity=64, time=0),\n",
      "    Message('note_off', channel=9, note=42, velocity=64, time=0),\n",
      "    Message('note_on', channel=9, note=42, velocity=100, time=60),\n",
      "    Message('note_off', channel=9, note=42, velocity=64, time=60),\n",
      "    Message('note_on', channel=9, note=42, velocity=100, time=60),\n",
      "    Message('note_on', channel=9, note=38, velocity=100, time=0),\n",
      "    Message('note_on', channel=9, note=40, velocity=100, time=0),\n",
      "    Message('note_off', channel=9, note=40, velocity=64, time=60),\n",
      "    Message('note_off', channel=9, note=38, velocity=64, time=0),\n",
      "    Message('note_off', channel=9, note=42, velocity=64, time=0),\n",
      "    Message('note_on', channel=9, note=42, velocity=100, time=60),\n",
      "    Message('note_off', channel=9, note=42, velocity=64, time=60),\n",
      "    Message('note_on', channel=9, note=42, velocity=100, time=60),\n",
      "    Message('note_off', channel=9, note=42, velocity=64, time=60),\n",
      "    Message('note_on', channel=9, note=42, velocity=100, time=60),\n",
      "    Message('note_on', channel=9, note=36, velocity=100, time=0),\n",
      "    Message('note_on', channel=9, note=35, velocity=100, time=0),\n",
      "    Message('note_off', channel=9, note=35, velocity=64, time=60),\n",
      "    Message('note_off', channel=9, note=36, velocity=64, time=0),\n",
      "    Message('note_off', channel=9, note=42, velocity=64, time=0),\n",
      "    Message('note_on', channel=9, note=42, velocity=100, time=60),\n",
      "    Message('note_off', channel=9, note=42, velocity=64, time=60),\n",
      "    Message('note_on', channel=9, note=42, velocity=100, time=60),\n",
      "    Message('note_off', channel=9, note=42, velocity=64, time=60),\n",
      "    Message('note_on', channel=9, note=42, velocity=100, time=60),\n",
      "    Message('note_on', channel=9, note=36, velocity=100, time=0),\n",
      "    Message('note_on', channel=9, note=35, velocity=100, time=0),\n",
      "    Message('note_off', channel=9, note=35, velocity=64, time=60),\n",
      "    Message('note_off', channel=9, note=36, velocity=64, time=0),\n",
      "    Message('note_off', channel=9, note=42, velocity=64, time=0),\n",
      "    Message('note_on', channel=9, note=42, velocity=100, time=60),\n",
      "    Message('note_off', channel=9, note=42, velocity=64, time=60),\n",
      "    Message('note_on', channel=9, note=42, velocity=100, time=60),\n",
      "    Message('note_on', channel=9, note=40, velocity=100, time=0),\n",
      "    Message('note_on', channel=9, note=38, velocity=100, time=0),\n",
      "    Message('note_off', channel=9, note=38, velocity=64, time=60),\n",
      "    Message('note_off', channel=9, note=40, velocity=64, time=0),\n",
      "    Message('note_off', channel=9, note=42, velocity=64, time=0),\n",
      "    Message('note_on', channel=9, note=42, velocity=100, time=60),\n",
      "    Message('note_off', channel=9, note=42, velocity=64, time=60),\n",
      "    Message('note_on', channel=9, note=42, velocity=100, time=60),\n",
      "    Message('note_off', channel=9, note=42, velocity=64, time=60),\n",
      "    Message('note_on', channel=9, note=42, velocity=100, time=60),\n",
      "    Message('note_off', channel=9, note=42, velocity=64, time=60),\n",
      "    Message('note_on', channel=9, note=42, velocity=100, time=60),\n",
      "    Message('note_on', channel=9, note=35, velocity=100, time=0),\n",
      "    Message('note_on', channel=9, note=36, velocity=100, time=0),\n",
      "    Message('note_off', channel=9, note=36, velocity=64, time=60),\n",
      "    Message('note_off', channel=9, note=35, velocity=64, time=0),\n",
      "    Message('note_off', channel=9, note=42, velocity=64, time=0),\n",
      "    Message('note_on', channel=9, note=42, velocity=100, time=60),\n",
      "    Message('note_off', channel=9, note=42, velocity=64, time=60),\n",
      "    Message('note_on', channel=9, note=42, velocity=100, time=60),\n",
      "    Message('note_on', channel=9, note=36, velocity=100, time=0),\n",
      "    Message('note_on', channel=9, note=35, velocity=100, time=0),\n",
      "    Message('note_off', channel=9, note=35, velocity=64, time=60),\n",
      "    Message('note_off', channel=9, note=36, velocity=64, time=0),\n",
      "    Message('note_off', channel=9, note=42, velocity=64, time=0),\n",
      "    Message('note_on', channel=9, note=42, velocity=100, time=60),\n",
      "    Message('note_off', channel=9, note=42, velocity=64, time=60),\n",
      "    Message('note_on', channel=9, note=42, velocity=100, time=60),\n",
      "    Message('note_on', channel=9, note=38, velocity=100, time=0),\n",
      "    Message('note_on', channel=9, note=40, velocity=100, time=0),\n",
      "    Message('note_off', channel=9, note=40, velocity=64, time=60),\n",
      "    Message('note_off', channel=9, note=38, velocity=64, time=0),\n",
      "    Message('note_off', channel=9, note=42, velocity=64, time=0),\n",
      "    Message('note_on', channel=9, note=42, velocity=100, time=60),\n",
      "    Message('note_off', channel=9, note=42, velocity=64, time=60),\n",
      "    Message('note_on', channel=9, note=42, velocity=100, time=60),\n",
      "    Message('note_off', channel=9, note=42, velocity=64, time=60),\n",
      "    Message('note_on', channel=9, note=42, velocity=100, time=60),\n",
      "    Message('note_on', channel=9, note=36, velocity=100, time=0),\n",
      "    Message('note_on', channel=9, note=35, velocity=100, time=0),\n",
      "    Message('note_off', channel=9, note=35, velocity=64, time=60),\n",
      "    Message('note_off', channel=9, note=36, velocity=64, time=0),\n",
      "    Message('note_off', channel=9, note=42, velocity=64, time=0),\n",
      "    Message('note_on', channel=9, note=42, velocity=100, time=60),\n",
      "    Message('note_off', channel=9, note=42, velocity=64, time=60),\n",
      "    Message('note_on', channel=9, note=42, velocity=100, time=60),\n",
      "    Message('note_off', channel=9, note=42, velocity=64, time=60),\n",
      "    Message('note_on', channel=9, note=42, velocity=100, time=60),\n",
      "    Message('note_on', channel=9, note=36, velocity=100, time=0),\n",
      "    Message('note_on', channel=9, note=35, velocity=100, time=0),\n",
      "    Message('note_off', channel=9, note=35, velocity=64, time=60),\n",
      "    Message('note_off', channel=9, note=36, velocity=64, time=0),\n",
      "    Message('note_off', channel=9, note=42, velocity=64, time=0),\n",
      "    Message('note_on', channel=9, note=42, velocity=100, time=60),\n",
      "    Message('note_off', channel=9, note=42, velocity=64, time=60),\n",
      "    Message('note_on', channel=9, note=42, velocity=100, time=60),\n",
      "    Message('note_on', channel=9, note=40, velocity=100, time=0),\n",
      "    Message('note_on', channel=9, note=38, velocity=100, time=0),\n",
      "    Message('note_off', channel=9, note=38, velocity=64, time=60),\n",
      "    Message('note_off', channel=9, note=40, velocity=64, time=0),\n",
      "    Message('note_off', channel=9, note=42, velocity=64, time=0),\n",
      "    Message('note_on', channel=9, note=42, velocity=100, time=60),\n",
      "    Message('note_off', channel=9, note=42, velocity=64, time=60),\n",
      "    Message('note_on', channel=9, note=42, velocity=100, time=60),\n",
      "    Message('note_off', channel=9, note=42, velocity=64, time=60),\n",
      "    Message('note_on', channel=9, note=42, velocity=100, time=60),\n",
      "    Message('note_off', channel=9, note=42, velocity=64, time=60),\n",
      "    Message('note_on', channel=9, note=42, velocity=100, time=60),\n",
      "    Message('note_on', channel=9, note=35, velocity=100, time=0),\n",
      "    Message('note_on', channel=9, note=36, velocity=100, time=0),\n",
      "    Message('note_off', channel=9, note=36, velocity=64, time=60),\n",
      "    Message('note_off', channel=9, note=35, velocity=64, time=0),\n",
      "    Message('note_off', channel=9, note=42, velocity=64, time=0),\n",
      "    Message('note_on', channel=9, note=42, velocity=100, time=60),\n",
      "    Message('note_off', channel=9, note=42, velocity=64, time=60),\n",
      "    Message('note_on', channel=9, note=42, velocity=100, time=60),\n",
      "    Message('note_on', channel=9, note=36, velocity=100, time=0),\n",
      "    Message('note_on', channel=9, note=35, velocity=100, time=0),\n",
      "    Message('note_off', channel=9, note=35, velocity=64, time=60),\n",
      "    Message('note_off', channel=9, note=36, velocity=64, time=0),\n",
      "    Message('note_off', channel=9, note=42, velocity=64, time=0),\n",
      "    Message('note_on', channel=9, note=42, velocity=100, time=60),\n",
      "    Message('note_off', channel=9, note=42, velocity=64, time=60),\n",
      "    Message('note_on', channel=9, note=42, velocity=100, time=60),\n",
      "    Message('note_on', channel=9, note=38, velocity=100, time=0),\n",
      "    Message('note_on', channel=9, note=40, velocity=100, time=0),\n",
      "    Message('note_off', channel=9, note=40, velocity=64, time=60),\n",
      "    Message('note_off', channel=9, note=38, velocity=64, time=0),\n",
      "    Message('note_off', channel=9, note=42, velocity=64, time=0),\n",
      "    Message('note_on', channel=9, note=42, velocity=100, time=60),\n",
      "    Message('note_off', channel=9, note=42, velocity=64, time=60),\n",
      "    Message('note_on', channel=9, note=42, velocity=100, time=60),\n",
      "    Message('note_off', channel=9, note=42, velocity=64, time=60),\n",
      "    Message('note_on', channel=9, note=42, velocity=100, time=60),\n",
      "    Message('note_on', channel=9, note=36, velocity=100, time=0),\n",
      "    Message('note_on', channel=9, note=35, velocity=100, time=0),\n",
      "    Message('note_off', channel=9, note=35, velocity=64, time=60),\n",
      "    Message('note_off', channel=9, note=36, velocity=64, time=0),\n",
      "    Message('note_off', channel=9, note=42, velocity=64, time=0),\n",
      "    Message('note_on', channel=9, note=42, velocity=100, time=60),\n",
      "    Message('note_off', channel=9, note=42, velocity=64, time=60),\n",
      "    Message('note_on', channel=9, note=42, velocity=100, time=60),\n",
      "    Message('note_off', channel=9, note=42, velocity=64, time=60),\n",
      "    Message('note_on', channel=9, note=42, velocity=100, time=60),\n",
      "    Message('note_on', channel=9, note=36, velocity=100, time=0),\n",
      "    Message('note_on', channel=9, note=35, velocity=100, time=0),\n",
      "    Message('note_off', channel=9, note=35, velocity=64, time=60),\n",
      "    Message('note_off', channel=9, note=36, velocity=64, time=0),\n",
      "    Message('note_off', channel=9, note=42, velocity=64, time=0),\n",
      "    Message('note_on', channel=9, note=42, velocity=100, time=60),\n",
      "    Message('note_off', channel=9, note=42, velocity=64, time=60),\n",
      "    Message('note_on', channel=9, note=42, velocity=100, time=60),\n",
      "    Message('note_on', channel=9, note=40, velocity=100, time=0),\n",
      "    Message('note_on', channel=9, note=38, velocity=100, time=0),\n",
      "    Message('note_off', channel=9, note=38, velocity=64, time=60),\n",
      "    Message('note_off', channel=9, note=40, velocity=64, time=0),\n",
      "    Message('note_off', channel=9, note=42, velocity=64, time=0),\n",
      "    Message('note_on', channel=9, note=42, velocity=100, time=60),\n",
      "    Message('note_off', channel=9, note=42, velocity=64, time=60),\n",
      "    Message('note_on', channel=9, note=42, velocity=100, time=60),\n",
      "    Message('note_off', channel=9, note=42, velocity=64, time=60),\n",
      "    Message('note_on', channel=9, note=42, velocity=100, time=60),\n",
      "    Message('note_off', channel=9, note=42, velocity=64, time=60),\n",
      "    Message('note_on', channel=9, note=42, velocity=100, time=60),\n",
      "    Message('note_on', channel=9, note=35, velocity=100, time=0),\n",
      "    Message('note_on', channel=9, note=36, velocity=100, time=0),\n",
      "    Message('note_off', channel=9, note=36, velocity=64, time=60),\n",
      "    Message('note_off', channel=9, note=35, velocity=64, time=0),\n",
      "    Message('note_off', channel=9, note=42, velocity=64, time=0),\n",
      "    Message('note_on', channel=9, note=42, velocity=100, time=60),\n",
      "    Message('note_off', channel=9, note=42, velocity=64, time=60),\n",
      "    Message('note_on', channel=9, note=42, velocity=100, time=60),\n",
      "    Message('note_on', channel=9, note=36, velocity=100, time=0),\n",
      "    Message('note_on', channel=9, note=35, velocity=100, time=0),\n",
      "    Message('note_off', channel=9, note=35, velocity=64, time=60),\n",
      "    Message('note_off', channel=9, note=36, velocity=64, time=0),\n",
      "    Message('note_off', channel=9, note=42, velocity=64, time=0),\n",
      "    Message('note_on', channel=9, note=42, velocity=100, time=60),\n",
      "    Message('note_off', channel=9, note=42, velocity=64, time=60),\n",
      "    Message('note_on', channel=9, note=42, velocity=100, time=60),\n",
      "    Message('note_on', channel=9, note=38, velocity=100, time=0),\n",
      "    Message('note_on', channel=9, note=40, velocity=100, time=0),\n",
      "    Message('note_off', channel=9, note=40, velocity=64, time=60),\n",
      "    Message('note_off', channel=9, note=38, velocity=64, time=0),\n",
      "    Message('note_off', channel=9, note=42, velocity=64, time=0),\n",
      "    Message('note_on', channel=9, note=42, velocity=100, time=60),\n",
      "    Message('note_off', channel=9, note=42, velocity=64, time=60),\n",
      "    Message('note_on', channel=9, note=42, velocity=100, time=60),\n",
      "    Message('note_off', channel=9, note=42, velocity=64, time=60),\n",
      "    Message('note_on', channel=9, note=42, velocity=100, time=60),\n",
      "    Message('note_on', channel=9, note=36, velocity=100, time=0),\n",
      "    Message('note_on', channel=9, note=35, velocity=100, time=0),\n",
      "    Message('note_off', channel=9, note=35, velocity=64, time=60),\n",
      "    Message('note_off', channel=9, note=36, velocity=64, time=0),\n",
      "    Message('note_off', channel=9, note=42, velocity=64, time=0),\n",
      "    Message('note_on', channel=9, note=42, velocity=100, time=60),\n",
      "    Message('note_off', channel=9, note=42, velocity=64, time=60),\n",
      "    Message('note_on', channel=9, note=42, velocity=100, time=60),\n",
      "    Message('note_off', channel=9, note=42, velocity=64, time=60),\n",
      "    Message('note_on', channel=9, note=42, velocity=100, time=60),\n",
      "    Message('note_on', channel=9, note=36, velocity=100, time=0),\n",
      "    Message('note_on', channel=9, note=35, velocity=100, time=0),\n",
      "    Message('note_off', channel=9, note=35, velocity=64, time=60),\n",
      "    Message('note_off', channel=9, note=36, velocity=64, time=0),\n",
      "    Message('note_off', channel=9, note=42, velocity=64, time=0),\n",
      "    Message('note_on', channel=9, note=42, velocity=100, time=60),\n",
      "    Message('note_off', channel=9, note=42, velocity=64, time=60),\n",
      "    Message('note_on', channel=9, note=42, velocity=100, time=60),\n",
      "    Message('note_on', channel=9, note=40, velocity=100, time=0),\n",
      "    Message('note_on', channel=9, note=38, velocity=100, time=0),\n",
      "    Message('note_off', channel=9, note=38, velocity=64, time=60),\n",
      "    Message('note_off', channel=9, note=40, velocity=64, time=0),\n",
      "    Message('note_off', channel=9, note=42, velocity=64, time=0),\n",
      "    Message('note_on', channel=9, note=42, velocity=100, time=60),\n",
      "    Message('note_off', channel=9, note=42, velocity=64, time=60),\n",
      "    Message('note_on', channel=9, note=42, velocity=100, time=60),\n",
      "    Message('note_off', channel=9, note=42, velocity=64, time=60),\n",
      "    Message('note_on', channel=9, note=42, velocity=100, time=60),\n",
      "    Message('note_off', channel=9, note=42, velocity=64, time=60),\n",
      "    Message('note_on', channel=9, note=42, velocity=100, time=60),\n",
      "    Message('note_on', channel=9, note=35, velocity=100, time=0),\n",
      "    Message('note_on', channel=9, note=36, velocity=100, time=0),\n",
      "    Message('note_off', channel=9, note=36, velocity=64, time=60),\n",
      "    Message('note_off', channel=9, note=35, velocity=64, time=0),\n",
      "    Message('note_off', channel=9, note=42, velocity=64, time=0),\n",
      "    Message('note_on', channel=9, note=42, velocity=100, time=60),\n",
      "    Message('note_off', channel=9, note=42, velocity=64, time=60),\n",
      "    Message('note_on', channel=9, note=42, velocity=100, time=60),\n",
      "    Message('note_on', channel=9, note=36, velocity=100, time=0),\n",
      "    Message('note_on', channel=9, note=35, velocity=100, time=0),\n",
      "    Message('note_off', channel=9, note=35, velocity=64, time=60),\n",
      "    Message('note_off', channel=9, note=36, velocity=64, time=0),\n",
      "    Message('note_off', channel=9, note=42, velocity=64, time=0),\n",
      "    Message('note_on', channel=9, note=42, velocity=100, time=60),\n",
      "    Message('note_off', channel=9, note=42, velocity=64, time=60),\n",
      "    Message('note_on', channel=9, note=42, velocity=100, time=60),\n",
      "    Message('note_on', channel=9, note=38, velocity=100, time=0),\n",
      "    Message('note_on', channel=9, note=40, velocity=100, time=0),\n",
      "    Message('note_off', channel=9, note=40, velocity=64, time=60),\n",
      "    Message('note_off', channel=9, note=38, velocity=64, time=0),\n",
      "    Message('note_off', channel=9, note=42, velocity=64, time=0),\n",
      "    Message('note_on', channel=9, note=42, velocity=100, time=60),\n",
      "    Message('note_off', channel=9, note=42, velocity=64, time=60),\n",
      "    Message('note_on', channel=9, note=42, velocity=100, time=60),\n",
      "    Message('note_off', channel=9, note=42, velocity=64, time=60),\n",
      "    Message('note_on', channel=9, note=42, velocity=100, time=60),\n",
      "    Message('note_on', channel=9, note=36, velocity=100, time=0),\n",
      "    Message('note_on', channel=9, note=35, velocity=100, time=0),\n",
      "    Message('note_off', channel=9, note=35, velocity=64, time=60),\n",
      "    Message('note_off', channel=9, note=36, velocity=64, time=0),\n",
      "    Message('note_off', channel=9, note=42, velocity=64, time=0),\n",
      "    Message('note_on', channel=9, note=42, velocity=100, time=60),\n",
      "    Message('note_off', channel=9, note=42, velocity=64, time=60),\n",
      "    Message('note_on', channel=9, note=42, velocity=100, time=60),\n",
      "    Message('note_off', channel=9, note=42, velocity=64, time=60),\n",
      "    Message('note_on', channel=9, note=42, velocity=100, time=60),\n",
      "    Message('note_on', channel=9, note=36, velocity=100, time=0),\n",
      "    Message('note_on', channel=9, note=35, velocity=100, time=0),\n",
      "    Message('note_off', channel=9, note=35, velocity=64, time=60),\n",
      "    Message('note_off', channel=9, note=36, velocity=64, time=0),\n",
      "    Message('note_off', channel=9, note=42, velocity=64, time=0),\n",
      "    Message('note_on', channel=9, note=42, velocity=100, time=60),\n",
      "    Message('note_off', channel=9, note=42, velocity=64, time=60),\n",
      "    Message('note_on', channel=9, note=42, velocity=100, time=60),\n",
      "    Message('note_on', channel=9, note=40, velocity=100, time=0),\n",
      "    Message('note_on', channel=9, note=38, velocity=100, time=0),\n",
      "    Message('note_off', channel=9, note=38, velocity=64, time=60),\n",
      "    Message('note_off', channel=9, note=40, velocity=64, time=0),\n",
      "    Message('note_off', channel=9, note=42, velocity=64, time=0),\n",
      "    Message('note_on', channel=9, note=42, velocity=100, time=60),\n",
      "    Message('note_off', channel=9, note=42, velocity=64, time=60),\n",
      "    Message('note_on', channel=9, note=42, velocity=100, time=60),\n",
      "    Message('note_off', channel=9, note=42, velocity=64, time=60),\n",
      "    Message('note_on', channel=9, note=42, velocity=100, time=60),\n",
      "    Message('note_off', channel=9, note=42, velocity=64, time=60),\n",
      "    Message('note_on', channel=9, note=42, velocity=100, time=60),\n",
      "    Message('note_on', channel=9, note=35, velocity=100, time=0),\n",
      "    Message('note_on', channel=9, note=36, velocity=100, time=0),\n",
      "    Message('note_off', channel=9, note=36, velocity=64, time=60),\n",
      "    Message('note_off', channel=9, note=35, velocity=64, time=0),\n",
      "    Message('note_off', channel=9, note=42, velocity=64, time=0),\n",
      "    Message('note_on', channel=9, note=42, velocity=100, time=60),\n",
      "    Message('note_off', channel=9, note=42, velocity=64, time=60),\n",
      "    Message('note_on', channel=9, note=42, velocity=100, time=60),\n",
      "    Message('note_on', channel=9, note=36, velocity=100, time=0),\n",
      "    Message('note_on', channel=9, note=35, velocity=100, time=0),\n",
      "    Message('note_off', channel=9, note=35, velocity=64, time=60),\n",
      "    Message('note_off', channel=9, note=36, velocity=64, time=0),\n",
      "    Message('note_off', channel=9, note=42, velocity=64, time=0),\n",
      "    Message('note_on', channel=9, note=42, velocity=100, time=60),\n",
      "    Message('note_off', channel=9, note=42, velocity=64, time=60),\n",
      "    Message('note_on', channel=9, note=42, velocity=100, time=60),\n",
      "    Message('note_on', channel=9, note=38, velocity=100, time=0),\n",
      "    Message('note_on', channel=9, note=40, velocity=100, time=0),\n",
      "    Message('note_off', channel=9, note=40, velocity=64, time=60),\n",
      "    Message('note_off', channel=9, note=38, velocity=64, time=0),\n",
      "    Message('note_off', channel=9, note=42, velocity=64, time=0),\n",
      "    Message('note_on', channel=9, note=42, velocity=100, time=60),\n",
      "    Message('note_off', channel=9, note=42, velocity=64, time=60),\n",
      "    Message('note_on', channel=9, note=42, velocity=100, time=60),\n",
      "    Message('note_off', channel=9, note=42, velocity=64, time=60),\n",
      "    Message('note_on', channel=9, note=42, velocity=100, time=60),\n",
      "    Message('note_on', channel=9, note=36, velocity=100, time=0),\n",
      "    Message('note_on', channel=9, note=35, velocity=100, time=0),\n",
      "    Message('note_off', channel=9, note=35, velocity=64, time=60),\n",
      "    Message('note_off', channel=9, note=36, velocity=64, time=0),\n",
      "    Message('note_off', channel=9, note=42, velocity=64, time=0),\n",
      "    Message('note_on', channel=9, note=42, velocity=100, time=60),\n",
      "    Message('note_off', channel=9, note=42, velocity=64, time=60),\n",
      "    Message('note_on', channel=9, note=42, velocity=100, time=60),\n",
      "    Message('note_off', channel=9, note=42, velocity=64, time=60),\n",
      "    Message('note_on', channel=9, note=42, velocity=100, time=60),\n",
      "    Message('note_on', channel=9, note=36, velocity=100, time=0),\n",
      "    Message('note_on', channel=9, note=35, velocity=100, time=0),\n",
      "    Message('note_off', channel=9, note=35, velocity=64, time=60),\n",
      "    Message('note_off', channel=9, note=36, velocity=64, time=0),\n",
      "    Message('note_off', channel=9, note=42, velocity=64, time=0),\n",
      "    Message('note_on', channel=9, note=42, velocity=100, time=60),\n",
      "    Message('note_off', channel=9, note=42, velocity=64, time=60),\n",
      "    Message('note_on', channel=9, note=42, velocity=100, time=60),\n",
      "    Message('note_on', channel=9, note=40, velocity=100, time=0),\n",
      "    Message('note_on', channel=9, note=38, velocity=100, time=0),\n",
      "    Message('note_off', channel=9, note=38, velocity=64, time=60),\n",
      "    Message('note_off', channel=9, note=40, velocity=64, time=0),\n",
      "    Message('note_off', channel=9, note=42, velocity=64, time=0),\n",
      "    Message('note_on', channel=9, note=42, velocity=100, time=60),\n",
      "    Message('note_off', channel=9, note=42, velocity=64, time=60),\n",
      "    Message('note_on', channel=9, note=42, velocity=100, time=60),\n",
      "    Message('note_off', channel=9, note=42, velocity=64, time=60),\n",
      "    Message('note_on', channel=9, note=42, velocity=100, time=60),\n",
      "    Message('note_off', channel=9, note=42, velocity=64, time=60),\n",
      "    Message('note_on', channel=9, note=35, velocity=100, time=60),\n",
      "    Message('note_on', channel=9, note=36, velocity=100, time=0),\n",
      "    Message('note_off', channel=9, note=36, velocity=64, time=60),\n",
      "    Message('note_off', channel=9, note=35, velocity=64, time=0),\n",
      "    Message('note_on', channel=9, note=35, velocity=100, time=180),\n",
      "    Message('note_on', channel=9, note=36, velocity=100, time=0),\n",
      "    Message('note_off', channel=9, note=36, velocity=64, time=60),\n",
      "    Message('note_off', channel=9, note=35, velocity=64, time=0),\n",
      "    Message('note_on', channel=9, note=39, velocity=100, time=180),\n",
      "    Message('note_off', channel=9, note=39, velocity=64, time=60),\n",
      "    Message('note_on', channel=9, note=35, velocity=100, time=300),\n",
      "    Message('note_on', channel=9, note=36, velocity=100, time=0),\n",
      "    Message('note_off', channel=9, note=36, velocity=64, time=60),\n",
      "    Message('note_off', channel=9, note=35, velocity=64, time=0),\n",
      "    Message('note_on', channel=9, note=35, velocity=100, time=300),\n",
      "    Message('note_on', channel=9, note=36, velocity=100, time=0),\n",
      "    Message('note_off', channel=9, note=36, velocity=64, time=60),\n",
      "    Message('note_off', channel=9, note=35, velocity=64, time=0),\n",
      "    Message('note_on', channel=9, note=38, velocity=100, time=180),\n",
      "    Message('note_on', channel=9, note=40, velocity=100, time=0),\n",
      "    Message('note_off', channel=9, note=40, velocity=64, time=60),\n",
      "    Message('note_off', channel=9, note=38, velocity=64, time=0),\n",
      "    Message('note_on', channel=9, note=35, velocity=100, time=180),\n",
      "    Message('note_on', channel=9, note=36, velocity=100, time=0),\n",
      "    Message('note_off', channel=9, note=36, velocity=64, time=60),\n",
      "    Message('note_off', channel=9, note=35, velocity=64, time=0),\n",
      "    Message('note_on', channel=9, note=42, velocity=100, time=180),\n",
      "    Message('note_on', channel=9, note=35, velocity=100, time=0),\n",
      "    Message('note_on', channel=9, note=36, velocity=100, time=0),\n",
      "    Message('note_off', channel=9, note=36, velocity=64, time=60),\n",
      "    Message('note_off', channel=9, note=35, velocity=64, time=0),\n",
      "    Message('note_off', channel=9, note=42, velocity=64, time=0),\n",
      "    Message('note_on', channel=9, note=42, velocity=100, time=60),\n",
      "    Message('note_off', channel=9, note=42, velocity=64, time=60),\n",
      "    Message('note_on', channel=9, note=42, velocity=100, time=60),\n",
      "    Message('note_on', channel=9, note=36, velocity=100, time=0),\n",
      "    Message('note_on', channel=9, note=35, velocity=100, time=0),\n",
      "    Message('note_off', channel=9, note=35, velocity=64, time=60),\n",
      "    Message('note_off', channel=9, note=36, velocity=64, time=0),\n",
      "    Message('note_off', channel=9, note=42, velocity=64, time=0),\n",
      "    Message('note_on', channel=9, note=42, velocity=100, time=60),\n",
      "    Message('note_off', channel=9, note=42, velocity=64, time=60),\n",
      "    Message('note_on', channel=9, note=42, velocity=100, time=60),\n",
      "    Message('note_on', channel=9, note=38, velocity=100, time=0),\n",
      "    Message('note_on', channel=9, note=40, velocity=100, time=0),\n",
      "    Message('note_off', channel=9, note=40, velocity=64, time=60),\n",
      "    Message('note_off', channel=9, note=38, velocity=64, time=0),\n",
      "    Message('note_off', channel=9, note=42, velocity=64, time=0),\n",
      "    Message('note_on', channel=9, note=42, velocity=100, time=60),\n",
      "    Message('note_off', channel=9, note=42, velocity=64, time=60),\n",
      "    Message('note_on', channel=9, note=42, velocity=100, time=60),\n",
      "    Message('note_off', channel=9, note=42, velocity=64, time=60),\n",
      "    Message('note_on', channel=9, note=42, velocity=100, time=60),\n",
      "    Message('note_on', channel=9, note=36, velocity=100, time=0),\n",
      "    Message('note_on', channel=9, note=35, velocity=100, time=0),\n",
      "    Message('note_off', channel=9, note=35, velocity=64, time=60),\n",
      "    Message('note_off', channel=9, note=36, velocity=64, time=0),\n",
      "    Message('note_off', channel=9, note=42, velocity=64, time=0),\n",
      "    Message('note_on', channel=9, note=42, velocity=100, time=60),\n",
      "    Message('note_off', channel=9, note=42, velocity=64, time=60),\n",
      "    Message('note_on', channel=9, note=42, velocity=100, time=60),\n",
      "    Message('note_off', channel=9, note=42, velocity=64, time=60),\n",
      "    Message('note_on', channel=9, note=42, velocity=100, time=60),\n",
      "    Message('note_on', channel=9, note=36, velocity=100, time=0),\n",
      "    Message('note_on', channel=9, note=35, velocity=100, time=0),\n",
      "    Message('note_off', channel=9, note=35, velocity=64, time=60),\n",
      "    Message('note_off', channel=9, note=36, velocity=64, time=0),\n",
      "    Message('note_off', channel=9, note=42, velocity=64, time=0),\n",
      "    Message('note_on', channel=9, note=42, velocity=100, time=60),\n",
      "    Message('note_off', channel=9, note=42, velocity=64, time=60),\n",
      "    Message('note_on', channel=9, note=42, velocity=100, time=60),\n",
      "    Message('note_on', channel=9, note=40, velocity=100, time=0),\n",
      "    Message('note_on', channel=9, note=38, velocity=100, time=0),\n",
      "    Message('note_off', channel=9, note=38, velocity=64, time=60),\n",
      "    Message('note_off', channel=9, note=40, velocity=64, time=0),\n",
      "    Message('note_off', channel=9, note=42, velocity=64, time=0),\n",
      "    Message('note_on', channel=9, note=42, velocity=100, time=60),\n",
      "    Message('note_off', channel=9, note=42, velocity=64, time=60),\n",
      "    Message('note_on', channel=9, note=42, velocity=100, time=60),\n",
      "    Message('note_off', channel=9, note=42, velocity=64, time=60),\n",
      "    Message('note_on', channel=9, note=42, velocity=100, time=60),\n",
      "    Message('note_off', channel=9, note=42, velocity=64, time=60),\n",
      "    Message('note_on', channel=9, note=42, velocity=100, time=60),\n",
      "    Message('note_on', channel=9, note=35, velocity=100, time=0),\n",
      "    Message('note_on', channel=9, note=36, velocity=100, time=0),\n",
      "    Message('note_off', channel=9, note=36, velocity=64, time=60),\n",
      "    Message('note_off', channel=9, note=35, velocity=64, time=0),\n",
      "    Message('note_off', channel=9, note=42, velocity=64, time=0),\n",
      "    Message('note_on', channel=9, note=42, velocity=100, time=60),\n",
      "    Message('note_off', channel=9, note=42, velocity=64, time=60),\n",
      "    Message('note_on', channel=9, note=42, velocity=100, time=60),\n",
      "    Message('note_on', channel=9, note=36, velocity=100, time=0),\n",
      "    Message('note_on', channel=9, note=35, velocity=100, time=0),\n",
      "    Message('note_off', channel=9, note=35, velocity=64, time=60),\n",
      "    Message('note_off', channel=9, note=36, velocity=64, time=0),\n",
      "    Message('note_off', channel=9, note=42, velocity=64, time=0),\n",
      "    Message('note_on', channel=9, note=42, velocity=100, time=60),\n",
      "    Message('note_off', channel=9, note=42, velocity=64, time=60),\n",
      "    Message('note_on', channel=9, note=42, velocity=100, time=60),\n",
      "    Message('note_on', channel=9, note=38, velocity=100, time=0),\n",
      "    Message('note_on', channel=9, note=40, velocity=100, time=0),\n",
      "    Message('note_off', channel=9, note=40, velocity=64, time=60),\n",
      "    Message('note_off', channel=9, note=38, velocity=64, time=0),\n",
      "    Message('note_off', channel=9, note=42, velocity=64, time=0),\n",
      "    Message('note_on', channel=9, note=42, velocity=100, time=60),\n",
      "    Message('note_off', channel=9, note=42, velocity=64, time=60),\n",
      "    Message('note_on', channel=9, note=42, velocity=100, time=60),\n",
      "    Message('note_off', channel=9, note=42, velocity=64, time=60),\n",
      "    Message('note_on', channel=9, note=42, velocity=100, time=60),\n",
      "    Message('note_on', channel=9, note=36, velocity=100, time=0),\n",
      "    Message('note_on', channel=9, note=35, velocity=100, time=0),\n",
      "    Message('note_off', channel=9, note=35, velocity=64, time=60),\n",
      "    Message('note_off', channel=9, note=36, velocity=64, time=0),\n",
      "    Message('note_off', channel=9, note=42, velocity=64, time=0),\n",
      "    Message('note_on', channel=9, note=42, velocity=100, time=60),\n",
      "    Message('note_off', channel=9, note=42, velocity=64, time=60),\n",
      "    Message('note_on', channel=9, note=42, velocity=100, time=60),\n",
      "    Message('note_off', channel=9, note=42, velocity=64, time=60),\n",
      "    Message('note_on', channel=9, note=42, velocity=100, time=60),\n",
      "    Message('note_on', channel=9, note=36, velocity=100, time=0),\n",
      "    Message('note_on', channel=9, note=35, velocity=100, time=0),\n",
      "    Message('note_off', channel=9, note=35, velocity=64, time=60),\n",
      "    Message('note_off', channel=9, note=36, velocity=64, time=0),\n",
      "    Message('note_off', channel=9, note=42, velocity=64, time=0),\n",
      "    Message('note_on', channel=9, note=42, velocity=100, time=60),\n",
      "    Message('note_off', channel=9, note=42, velocity=64, time=60),\n",
      "    Message('note_on', channel=9, note=42, velocity=100, time=60),\n",
      "    Message('note_on', channel=9, note=40, velocity=100, time=0),\n",
      "    Message('note_on', channel=9, note=38, velocity=100, time=0),\n",
      "    Message('note_off', channel=9, note=38, velocity=64, time=60),\n",
      "    Message('note_off', channel=9, note=40, velocity=64, time=0),\n",
      "    Message('note_off', channel=9, note=42, velocity=64, time=0),\n",
      "    Message('note_on', channel=9, note=42, velocity=100, time=60),\n",
      "    Message('note_off', channel=9, note=42, velocity=64, time=60),\n",
      "    Message('note_on', channel=9, note=42, velocity=100, time=60),\n",
      "    Message('note_off', channel=9, note=42, velocity=64, time=60),\n",
      "    Message('note_on', channel=9, note=42, velocity=100, time=60),\n",
      "    Message('note_off', channel=9, note=42, velocity=64, time=60),\n",
      "    Message('note_on', channel=9, note=42, velocity=100, time=60),\n",
      "    Message('note_on', channel=9, note=35, velocity=100, time=0),\n",
      "    Message('note_on', channel=9, note=36, velocity=100, time=0),\n",
      "    Message('note_off', channel=9, note=36, velocity=64, time=60),\n",
      "    Message('note_off', channel=9, note=35, velocity=64, time=0),\n",
      "    Message('note_off', channel=9, note=42, velocity=64, time=0),\n",
      "    Message('note_on', channel=9, note=42, velocity=100, time=60),\n",
      "    Message('note_off', channel=9, note=42, velocity=64, time=60),\n",
      "    Message('note_on', channel=9, note=42, velocity=100, time=60),\n",
      "    Message('note_on', channel=9, note=36, velocity=100, time=0),\n",
      "    Message('note_on', channel=9, note=35, velocity=100, time=0),\n",
      "    Message('note_off', channel=9, note=35, velocity=64, time=60),\n",
      "    Message('note_off', channel=9, note=36, velocity=64, time=0),\n",
      "    Message('note_off', channel=9, note=42, velocity=64, time=0),\n",
      "    Message('note_on', channel=9, note=42, velocity=100, time=60),\n",
      "    Message('note_off', channel=9, note=42, velocity=64, time=60),\n",
      "    Message('note_on', channel=9, note=42, velocity=100, time=60),\n",
      "    Message('note_on', channel=9, note=38, velocity=100, time=0),\n",
      "    Message('note_on', channel=9, note=40, velocity=100, time=0),\n",
      "    Message('note_off', channel=9, note=40, velocity=64, time=60),\n",
      "    Message('note_off', channel=9, note=38, velocity=64, time=0),\n",
      "    Message('note_off', channel=9, note=42, velocity=64, time=0),\n",
      "    Message('note_on', channel=9, note=42, velocity=100, time=60),\n",
      "    Message('note_off', channel=9, note=42, velocity=64, time=60),\n",
      "    Message('note_on', channel=9, note=42, velocity=100, time=60),\n",
      "    Message('note_off', channel=9, note=42, velocity=64, time=60),\n",
      "    Message('note_on', channel=9, note=42, velocity=100, time=60),\n",
      "    Message('note_on', channel=9, note=36, velocity=100, time=0),\n",
      "    Message('note_on', channel=9, note=35, velocity=100, time=0),\n",
      "    Message('note_off', channel=9, note=35, velocity=64, time=60),\n",
      "    Message('note_off', channel=9, note=36, velocity=64, time=0),\n",
      "    Message('note_off', channel=9, note=42, velocity=64, time=0),\n",
      "    Message('note_on', channel=9, note=42, velocity=100, time=60),\n",
      "    Message('note_off', channel=9, note=42, velocity=64, time=60),\n",
      "    Message('note_on', channel=9, note=42, velocity=100, time=60),\n",
      "    Message('note_off', channel=9, note=42, velocity=64, time=60),\n",
      "    Message('note_on', channel=9, note=42, velocity=100, time=60),\n",
      "    Message('note_on', channel=9, note=36, velocity=100, time=0),\n",
      "    Message('note_on', channel=9, note=35, velocity=100, time=0),\n",
      "    Message('note_off', channel=9, note=35, velocity=64, time=60),\n",
      "    Message('note_off', channel=9, note=36, velocity=64, time=0),\n",
      "    Message('note_off', channel=9, note=42, velocity=64, time=0),\n",
      "    Message('note_on', channel=9, note=42, velocity=100, time=60),\n",
      "    Message('note_off', channel=9, note=42, velocity=64, time=60),\n",
      "    Message('note_on', channel=9, note=42, velocity=100, time=60),\n",
      "    Message('note_on', channel=9, note=40, velocity=100, time=0),\n",
      "    Message('note_on', channel=9, note=38, velocity=100, time=0),\n",
      "    Message('note_off', channel=9, note=38, velocity=64, time=60),\n",
      "    Message('note_off', channel=9, note=40, velocity=64, time=0),\n",
      "    Message('note_off', channel=9, note=42, velocity=64, time=0),\n",
      "    Message('note_on', channel=9, note=42, velocity=100, time=60),\n",
      "    Message('note_off', channel=9, note=42, velocity=64, time=60),\n",
      "    Message('note_on', channel=9, note=42, velocity=100, time=60),\n",
      "    Message('note_off', channel=9, note=42, velocity=64, time=60),\n",
      "    Message('note_on', channel=9, note=42, velocity=100, time=60),\n",
      "    Message('note_off', channel=9, note=42, velocity=64, time=60),\n",
      "    Message('note_on', channel=9, note=42, velocity=100, time=60),\n",
      "    Message('note_on', channel=9, note=35, velocity=100, time=0),\n",
      "    Message('note_on', channel=9, note=36, velocity=100, time=0),\n",
      "    Message('note_off', channel=9, note=36, velocity=64, time=60),\n",
      "    Message('note_off', channel=9, note=35, velocity=64, time=0),\n",
      "    Message('note_off', channel=9, note=42, velocity=64, time=0),\n",
      "    Message('note_on', channel=9, note=42, velocity=100, time=60),\n",
      "    Message('note_off', channel=9, note=42, velocity=64, time=60),\n",
      "    Message('note_on', channel=9, note=42, velocity=100, time=60),\n",
      "    Message('note_on', channel=9, note=36, velocity=100, time=0),\n",
      "    Message('note_on', channel=9, note=35, velocity=100, time=0),\n",
      "    Message('note_off', channel=9, note=35, velocity=64, time=60),\n",
      "    Message('note_off', channel=9, note=36, velocity=64, time=0),\n",
      "    Message('note_off', channel=9, note=42, velocity=64, time=0),\n",
      "    Message('note_on', channel=9, note=42, velocity=100, time=60),\n",
      "    Message('note_off', channel=9, note=42, velocity=64, time=60),\n",
      "    Message('note_on', channel=9, note=42, velocity=100, time=60),\n",
      "    Message('note_on', channel=9, note=38, velocity=100, time=0),\n",
      "    Message('note_on', channel=9, note=40, velocity=100, time=0),\n",
      "    Message('note_off', channel=9, note=40, velocity=64, time=60),\n",
      "    Message('note_off', channel=9, note=38, velocity=64, time=0),\n",
      "    Message('note_off', channel=9, note=42, velocity=64, time=0),\n",
      "    Message('note_on', channel=9, note=42, velocity=100, time=60),\n",
      "    Message('note_off', channel=9, note=42, velocity=64, time=60),\n",
      "    Message('note_on', channel=9, note=42, velocity=100, time=60),\n",
      "    Message('note_off', channel=9, note=42, velocity=64, time=60),\n",
      "    Message('note_on', channel=9, note=42, velocity=100, time=60),\n",
      "    Message('note_on', channel=9, note=36, velocity=100, time=0),\n",
      "    Message('note_on', channel=9, note=35, velocity=100, time=0),\n",
      "    Message('note_off', channel=9, note=35, velocity=64, time=60),\n",
      "    Message('note_off', channel=9, note=36, velocity=64, time=0),\n",
      "    Message('note_off', channel=9, note=42, velocity=64, time=0),\n",
      "    Message('note_on', channel=9, note=42, velocity=100, time=60),\n",
      "    Message('note_off', channel=9, note=42, velocity=64, time=60),\n",
      "    Message('note_on', channel=9, note=42, velocity=100, time=60),\n",
      "    Message('note_off', channel=9, note=42, velocity=64, time=60),\n",
      "    Message('note_on', channel=9, note=42, velocity=100, time=60),\n",
      "    Message('note_on', channel=9, note=36, velocity=100, time=0),\n",
      "    Message('note_on', channel=9, note=35, velocity=100, time=0),\n",
      "    Message('note_off', channel=9, note=35, velocity=64, time=60),\n",
      "    Message('note_off', channel=9, note=36, velocity=64, time=0),\n",
      "    Message('note_off', channel=9, note=42, velocity=64, time=0),\n",
      "    Message('note_on', channel=9, note=42, velocity=100, time=60),\n",
      "    Message('note_off', channel=9, note=42, velocity=64, time=60),\n",
      "    Message('note_on', channel=9, note=42, velocity=100, time=60),\n",
      "    Message('note_on', channel=9, note=40, velocity=100, time=0),\n",
      "    Message('note_on', channel=9, note=38, velocity=100, time=0),\n",
      "    Message('note_off', channel=9, note=38, velocity=64, time=60),\n",
      "    Message('note_off', channel=9, note=40, velocity=64, time=0),\n",
      "    Message('note_off', channel=9, note=42, velocity=64, time=0),\n",
      "    Message('note_on', channel=9, note=42, velocity=100, time=60),\n",
      "    Message('note_off', channel=9, note=42, velocity=64, time=60),\n",
      "    Message('note_on', channel=9, note=42, velocity=100, time=60),\n",
      "    Message('note_off', channel=9, note=42, velocity=64, time=60),\n",
      "    Message('note_on', channel=9, note=42, velocity=100, time=60),\n",
      "    Message('note_off', channel=9, note=42, velocity=64, time=60),\n",
      "    Message('note_on', channel=9, note=42, velocity=100, time=60),\n",
      "    Message('note_on', channel=9, note=35, velocity=100, time=0),\n",
      "    Message('note_on', channel=9, note=36, velocity=100, time=0),\n",
      "    Message('note_off', channel=9, note=36, velocity=64, time=60),\n",
      "    Message('note_off', channel=9, note=35, velocity=64, time=0),\n",
      "    Message('note_off', channel=9, note=42, velocity=64, time=0),\n",
      "    Message('note_on', channel=9, note=42, velocity=100, time=60),\n",
      "    Message('note_off', channel=9, note=42, velocity=64, time=60),\n",
      "    Message('note_on', channel=9, note=42, velocity=100, time=60),\n",
      "    Message('note_on', channel=9, note=36, velocity=100, time=0),\n",
      "    Message('note_on', channel=9, note=35, velocity=100, time=0),\n",
      "    Message('note_off', channel=9, note=35, velocity=64, time=60),\n",
      "    Message('note_off', channel=9, note=36, velocity=64, time=0),\n",
      "    Message('note_off', channel=9, note=42, velocity=64, time=0),\n",
      "    Message('note_on', channel=9, note=42, velocity=100, time=60),\n",
      "    Message('note_off', channel=9, note=42, velocity=64, time=60),\n",
      "    Message('note_on', channel=9, note=42, velocity=100, time=60),\n",
      "    Message('note_on', channel=9, note=38, velocity=100, time=0),\n",
      "    Message('note_on', channel=9, note=40, velocity=100, time=0),\n",
      "    Message('note_off', channel=9, note=40, velocity=64, time=60),\n",
      "    Message('note_off', channel=9, note=38, velocity=64, time=0),\n",
      "    Message('note_off', channel=9, note=42, velocity=64, time=0),\n",
      "    Message('note_on', channel=9, note=42, velocity=100, time=60),\n",
      "    Message('note_off', channel=9, note=42, velocity=64, time=60),\n",
      "    Message('note_on', channel=9, note=42, velocity=100, time=60),\n",
      "    Message('note_off', channel=9, note=42, velocity=64, time=60),\n",
      "    Message('note_on', channel=9, note=42, velocity=100, time=60),\n",
      "    Message('note_on', channel=9, note=36, velocity=100, time=0),\n",
      "    Message('note_on', channel=9, note=35, velocity=100, time=0),\n",
      "    Message('note_off', channel=9, note=35, velocity=64, time=60),\n",
      "    Message('note_off', channel=9, note=36, velocity=64, time=0),\n",
      "    Message('note_off', channel=9, note=42, velocity=64, time=0),\n",
      "    Message('note_on', channel=9, note=42, velocity=100, time=60),\n",
      "    Message('note_off', channel=9, note=42, velocity=64, time=60),\n",
      "    Message('note_on', channel=9, note=42, velocity=100, time=60),\n",
      "    Message('note_off', channel=9, note=42, velocity=64, time=60),\n",
      "    Message('note_on', channel=9, note=42, velocity=100, time=60),\n",
      "    Message('note_on', channel=9, note=36, velocity=100, time=0),\n",
      "    Message('note_on', channel=9, note=35, velocity=100, time=0),\n",
      "    Message('note_off', channel=9, note=35, velocity=64, time=60),\n",
      "    Message('note_off', channel=9, note=36, velocity=64, time=0),\n",
      "    Message('note_off', channel=9, note=42, velocity=64, time=0),\n",
      "    Message('note_on', channel=9, note=42, velocity=100, time=60),\n",
      "    Message('note_off', channel=9, note=42, velocity=64, time=60),\n",
      "    Message('note_on', channel=9, note=42, velocity=100, time=60),\n",
      "    Message('note_on', channel=9, note=40, velocity=100, time=0),\n",
      "    Message('note_on', channel=9, note=38, velocity=100, time=0),\n",
      "    Message('note_off', channel=9, note=38, velocity=64, time=60),\n",
      "    Message('note_off', channel=9, note=40, velocity=64, time=0),\n",
      "    Message('note_off', channel=9, note=42, velocity=64, time=0),\n",
      "    Message('note_on', channel=9, note=42, velocity=100, time=60),\n",
      "    Message('note_off', channel=9, note=42, velocity=64, time=60),\n",
      "    Message('note_on', channel=9, note=42, velocity=100, time=60),\n",
      "    Message('note_off', channel=9, note=42, velocity=64, time=60),\n",
      "    Message('note_on', channel=9, note=42, velocity=100, time=60),\n",
      "    Message('note_off', channel=9, note=42, velocity=64, time=60),\n",
      "    Message('note_on', channel=9, note=42, velocity=100, time=60),\n",
      "    Message('note_on', channel=9, note=35, velocity=100, time=0),\n",
      "    Message('note_on', channel=9, note=36, velocity=100, time=0),\n",
      "    Message('note_off', channel=9, note=36, velocity=64, time=60),\n",
      "    Message('note_off', channel=9, note=35, velocity=64, time=0),\n",
      "    Message('note_off', channel=9, note=42, velocity=64, time=0),\n",
      "    Message('note_on', channel=9, note=42, velocity=100, time=60),\n",
      "    Message('note_off', channel=9, note=42, velocity=64, time=60),\n",
      "    Message('note_on', channel=9, note=42, velocity=100, time=60),\n",
      "    Message('note_on', channel=9, note=36, velocity=100, time=0),\n",
      "    Message('note_on', channel=9, note=35, velocity=100, time=0),\n",
      "    Message('note_off', channel=9, note=35, velocity=64, time=60),\n",
      "    Message('note_off', channel=9, note=36, velocity=64, time=0),\n",
      "    Message('note_off', channel=9, note=42, velocity=64, time=0),\n",
      "    Message('note_on', channel=9, note=42, velocity=100, time=60),\n",
      "    Message('note_off', channel=9, note=42, velocity=64, time=60),\n",
      "    Message('note_on', channel=9, note=42, velocity=100, time=60),\n",
      "    Message('note_on', channel=9, note=38, velocity=100, time=0),\n",
      "    Message('note_on', channel=9, note=40, velocity=100, time=0),\n",
      "    Message('note_off', channel=9, note=40, velocity=64, time=60),\n",
      "    Message('note_off', channel=9, note=38, velocity=64, time=0),\n",
      "    Message('note_off', channel=9, note=42, velocity=64, time=0),\n",
      "    Message('note_on', channel=9, note=42, velocity=100, time=60),\n",
      "    Message('note_off', channel=9, note=42, velocity=64, time=60),\n",
      "    Message('note_on', channel=9, note=42, velocity=100, time=60),\n",
      "    Message('note_off', channel=9, note=42, velocity=64, time=60),\n",
      "    Message('note_on', channel=9, note=42, velocity=100, time=60),\n",
      "    Message('note_on', channel=9, note=36, velocity=100, time=0),\n",
      "    Message('note_on', channel=9, note=35, velocity=100, time=0),\n",
      "    Message('note_off', channel=9, note=35, velocity=64, time=60),\n",
      "    Message('note_off', channel=9, note=36, velocity=64, time=0),\n",
      "    Message('note_off', channel=9, note=42, velocity=64, time=0),\n",
      "    Message('note_on', channel=9, note=42, velocity=100, time=60),\n",
      "    Message('note_off', channel=9, note=42, velocity=64, time=60),\n",
      "    Message('note_on', channel=9, note=42, velocity=100, time=60),\n",
      "    Message('note_off', channel=9, note=42, velocity=64, time=60),\n",
      "    Message('note_on', channel=9, note=42, velocity=100, time=60),\n",
      "    Message('note_on', channel=9, note=36, velocity=100, time=0),\n",
      "    Message('note_on', channel=9, note=35, velocity=100, time=0),\n",
      "    Message('note_off', channel=9, note=35, velocity=64, time=60),\n",
      "    Message('note_off', channel=9, note=36, velocity=64, time=0),\n",
      "    Message('note_off', channel=9, note=42, velocity=64, time=0),\n",
      "    Message('note_on', channel=9, note=42, velocity=100, time=60),\n",
      "    Message('note_off', channel=9, note=42, velocity=64, time=60),\n",
      "    Message('note_on', channel=9, note=42, velocity=100, time=60),\n",
      "    Message('note_on', channel=9, note=40, velocity=100, time=0),\n",
      "    Message('note_on', channel=9, note=38, velocity=100, time=0),\n",
      "    Message('note_off', channel=9, note=38, velocity=64, time=60),\n",
      "    Message('note_off', channel=9, note=40, velocity=64, time=0),\n",
      "    Message('note_off', channel=9, note=42, velocity=64, time=0),\n",
      "    Message('note_on', channel=9, note=42, velocity=100, time=60),\n",
      "    Message('note_off', channel=9, note=42, velocity=64, time=60),\n",
      "    Message('note_on', channel=9, note=42, velocity=100, time=60),\n",
      "    Message('note_off', channel=9, note=42, velocity=64, time=60),\n",
      "    Message('note_on', channel=9, note=42, velocity=100, time=60),\n",
      "    Message('note_off', channel=9, note=42, velocity=64, time=60),\n",
      "    Message('note_on', channel=9, note=42, velocity=100, time=60),\n",
      "    Message('note_on', channel=9, note=35, velocity=100, time=0),\n",
      "    Message('note_on', channel=9, note=36, velocity=100, time=0),\n",
      "    Message('note_off', channel=9, note=36, velocity=64, time=60),\n",
      "    Message('note_off', channel=9, note=35, velocity=64, time=0),\n",
      "    Message('note_off', channel=9, note=42, velocity=64, time=0),\n",
      "    Message('note_on', channel=9, note=42, velocity=100, time=60),\n",
      "    Message('note_off', channel=9, note=42, velocity=64, time=60),\n",
      "    Message('note_on', channel=9, note=42, velocity=100, time=60),\n",
      "    Message('note_on', channel=9, note=36, velocity=100, time=0),\n",
      "    Message('note_on', channel=9, note=35, velocity=100, time=0),\n",
      "    Message('note_off', channel=9, note=35, velocity=64, time=60),\n",
      "    Message('note_off', channel=9, note=36, velocity=64, time=0),\n",
      "    Message('note_off', channel=9, note=42, velocity=64, time=0),\n",
      "    Message('note_on', channel=9, note=42, velocity=100, time=60),\n",
      "    Message('note_off', channel=9, note=42, velocity=64, time=60),\n",
      "    Message('note_on', channel=9, note=42, velocity=100, time=60),\n",
      "    Message('note_on', channel=9, note=38, velocity=100, time=0),\n",
      "    Message('note_on', channel=9, note=40, velocity=100, time=0),\n",
      "    Message('note_off', channel=9, note=40, velocity=64, time=60),\n",
      "    Message('note_off', channel=9, note=38, velocity=64, time=0),\n",
      "    Message('note_off', channel=9, note=42, velocity=64, time=0),\n",
      "    Message('note_on', channel=9, note=42, velocity=100, time=60),\n",
      "    Message('note_off', channel=9, note=42, velocity=64, time=60),\n",
      "    Message('note_on', channel=9, note=42, velocity=100, time=60),\n",
      "    Message('note_off', channel=9, note=42, velocity=64, time=60),\n",
      "    Message('note_on', channel=9, note=42, velocity=100, time=60),\n",
      "    Message('note_on', channel=9, note=36, velocity=100, time=0),\n",
      "    Message('note_on', channel=9, note=35, velocity=100, time=0),\n",
      "    Message('note_off', channel=9, note=35, velocity=64, time=60),\n",
      "    Message('note_off', channel=9, note=36, velocity=64, time=0),\n",
      "    Message('note_off', channel=9, note=42, velocity=64, time=0),\n",
      "    Message('note_on', channel=9, note=42, velocity=100, time=60),\n",
      "    Message('note_off', channel=9, note=42, velocity=64, time=60),\n",
      "    Message('note_on', channel=9, note=42, velocity=100, time=60),\n",
      "    Message('note_off', channel=9, note=42, velocity=64, time=60),\n",
      "    Message('note_on', channel=9, note=42, velocity=100, time=60),\n",
      "    Message('note_on', channel=9, note=36, velocity=100, time=0),\n",
      "    Message('note_on', channel=9, note=35, velocity=100, time=0),\n",
      "    Message('note_off', channel=9, note=35, velocity=64, time=60),\n",
      "    Message('note_off', channel=9, note=36, velocity=64, time=0),\n",
      "    Message('note_off', channel=9, note=42, velocity=64, time=0),\n",
      "    Message('note_on', channel=9, note=42, velocity=100, time=60),\n",
      "    Message('note_off', channel=9, note=42, velocity=64, time=60),\n",
      "    Message('note_on', channel=9, note=42, velocity=100, time=60),\n",
      "    Message('note_on', channel=9, note=40, velocity=100, time=0),\n",
      "    Message('note_on', channel=9, note=38, velocity=100, time=0),\n",
      "    Message('note_off', channel=9, note=38, velocity=64, time=60),\n",
      "    Message('note_off', channel=9, note=40, velocity=64, time=0),\n",
      "    Message('note_off', channel=9, note=42, velocity=64, time=0),\n",
      "    Message('note_on', channel=9, note=42, velocity=100, time=60),\n",
      "    Message('note_off', channel=9, note=42, velocity=64, time=60),\n",
      "    Message('note_on', channel=9, note=42, velocity=100, time=60),\n",
      "    Message('note_off', channel=9, note=42, velocity=64, time=60),\n",
      "    Message('note_on', channel=9, note=42, velocity=100, time=60),\n",
      "    Message('note_off', channel=9, note=42, velocity=64, time=60),\n",
      "    Message('note_on', channel=9, note=35, velocity=100, time=60),\n",
      "    Message('note_on', channel=9, note=36, velocity=100, time=0),\n",
      "    Message('note_off', channel=9, note=36, velocity=64, time=60),\n",
      "    Message('note_off', channel=9, note=35, velocity=64, time=0),\n",
      "    Message('note_on', channel=9, note=35, velocity=100, time=180),\n",
      "    Message('note_on', channel=9, note=36, velocity=100, time=0),\n",
      "    Message('note_off', channel=9, note=36, velocity=64, time=60),\n",
      "    Message('note_off', channel=9, note=35, velocity=64, time=0),\n",
      "    Message('note_on', channel=9, note=39, velocity=100, time=180),\n",
      "    Message('note_off', channel=9, note=39, velocity=64, time=60),\n",
      "    Message('note_on', channel=9, note=35, velocity=100, time=300),\n",
      "    Message('note_on', channel=9, note=36, velocity=100, time=0),\n",
      "    Message('note_off', channel=9, note=36, velocity=64, time=60),\n",
      "    Message('note_off', channel=9, note=35, velocity=64, time=0),\n",
      "    Message('note_on', channel=9, note=35, velocity=100, time=300),\n",
      "    Message('note_on', channel=9, note=36, velocity=100, time=0),\n",
      "    Message('note_off', channel=9, note=36, velocity=64, time=60),\n",
      "    Message('note_off', channel=9, note=35, velocity=64, time=0),\n",
      "    Message('note_on', channel=9, note=38, velocity=100, time=180),\n",
      "    Message('note_on', channel=9, note=40, velocity=100, time=0),\n",
      "    Message('note_off', channel=9, note=40, velocity=64, time=60),\n",
      "    Message('note_off', channel=9, note=38, velocity=64, time=0),\n",
      "    Message('note_on', channel=9, note=35, velocity=100, time=180),\n",
      "    Message('note_on', channel=9, note=36, velocity=100, time=0),\n",
      "    Message('note_off', channel=9, note=36, velocity=64, time=60),\n",
      "    Message('note_off', channel=9, note=35, velocity=64, time=0),\n",
      "    Message('note_on', channel=9, note=42, velocity=100, time=180),\n",
      "    Message('note_on', channel=9, note=35, velocity=100, time=0),\n",
      "    Message('note_on', channel=9, note=36, velocity=100, time=0),\n",
      "    Message('note_off', channel=9, note=36, velocity=64, time=60),\n",
      "    Message('note_off', channel=9, note=35, velocity=64, time=0),\n",
      "    Message('note_off', channel=9, note=42, velocity=64, time=0),\n",
      "    Message('note_on', channel=9, note=42, velocity=100, time=60),\n",
      "    Message('note_off', channel=9, note=42, velocity=64, time=60),\n",
      "    Message('note_on', channel=9, note=42, velocity=100, time=60),\n",
      "    Message('note_on', channel=9, note=36, velocity=100, time=0),\n",
      "    Message('note_on', channel=9, note=35, velocity=100, time=0),\n",
      "    Message('note_off', channel=9, note=35, velocity=64, time=60),\n",
      "    Message('note_off', channel=9, note=36, velocity=64, time=0),\n",
      "    Message('note_off', channel=9, note=42, velocity=64, time=0),\n",
      "    Message('note_on', channel=9, note=42, velocity=100, time=60),\n",
      "    Message('note_off', channel=9, note=42, velocity=64, time=60),\n",
      "    Message('note_on', channel=9, note=42, velocity=100, time=60),\n",
      "    Message('note_on', channel=9, note=38, velocity=100, time=0),\n",
      "    Message('note_on', channel=9, note=40, velocity=100, time=0),\n",
      "    Message('note_off', channel=9, note=40, velocity=64, time=60),\n",
      "    Message('note_off', channel=9, note=38, velocity=64, time=0),\n",
      "    Message('note_off', channel=9, note=42, velocity=64, time=0),\n",
      "    Message('note_on', channel=9, note=42, velocity=100, time=60),\n",
      "    Message('note_off', channel=9, note=42, velocity=64, time=60),\n",
      "    Message('note_on', channel=9, note=42, velocity=100, time=60),\n",
      "    Message('note_off', channel=9, note=42, velocity=64, time=60),\n",
      "    Message('note_on', channel=9, note=42, velocity=100, time=60),\n",
      "    Message('note_on', channel=9, note=36, velocity=100, time=0),\n",
      "    Message('note_on', channel=9, note=35, velocity=100, time=0),\n",
      "    Message('note_off', channel=9, note=35, velocity=64, time=60),\n",
      "    Message('note_off', channel=9, note=36, velocity=64, time=0),\n",
      "    Message('note_off', channel=9, note=42, velocity=64, time=0),\n",
      "    Message('note_on', channel=9, note=42, velocity=100, time=60),\n",
      "    Message('note_off', channel=9, note=42, velocity=64, time=60),\n",
      "    Message('note_on', channel=9, note=42, velocity=100, time=60),\n",
      "    Message('note_off', channel=9, note=42, velocity=64, time=60),\n",
      "    Message('note_on', channel=9, note=42, velocity=100, time=60),\n",
      "    Message('note_on', channel=9, note=36, velocity=100, time=0),\n",
      "    Message('note_on', channel=9, note=35, velocity=100, time=0),\n",
      "    Message('note_off', channel=9, note=35, velocity=64, time=60),\n",
      "    Message('note_off', channel=9, note=36, velocity=64, time=0),\n",
      "    Message('note_off', channel=9, note=42, velocity=64, time=0),\n",
      "    Message('note_on', channel=9, note=42, velocity=100, time=60),\n",
      "    Message('note_off', channel=9, note=42, velocity=64, time=60),\n",
      "    Message('note_on', channel=9, note=42, velocity=100, time=60),\n",
      "    Message('note_on', channel=9, note=40, velocity=100, time=0),\n",
      "    Message('note_on', channel=9, note=38, velocity=100, time=0),\n",
      "    Message('note_off', channel=9, note=38, velocity=64, time=60),\n",
      "    Message('note_off', channel=9, note=40, velocity=64, time=0),\n",
      "    Message('note_off', channel=9, note=42, velocity=64, time=0),\n",
      "    Message('note_on', channel=9, note=42, velocity=100, time=60),\n",
      "    Message('note_off', channel=9, note=42, velocity=64, time=60),\n",
      "    Message('note_on', channel=9, note=42, velocity=100, time=60),\n",
      "    Message('note_off', channel=9, note=42, velocity=64, time=60),\n",
      "    Message('note_on', channel=9, note=42, velocity=100, time=60),\n",
      "    Message('note_off', channel=9, note=42, velocity=64, time=60),\n",
      "    Message('note_on', channel=9, note=42, velocity=100, time=60),\n",
      "    Message('note_on', channel=9, note=35, velocity=100, time=0),\n",
      "    Message('note_on', channel=9, note=36, velocity=100, time=0),\n",
      "    Message('note_off', channel=9, note=36, velocity=64, time=60),\n",
      "    Message('note_off', channel=9, note=35, velocity=64, time=0),\n",
      "    Message('note_off', channel=9, note=42, velocity=64, time=0),\n",
      "    Message('note_on', channel=9, note=42, velocity=100, time=60),\n",
      "    Message('note_off', channel=9, note=42, velocity=64, time=60),\n",
      "    Message('note_on', channel=9, note=42, velocity=100, time=60),\n",
      "    Message('note_on', channel=9, note=36, velocity=100, time=0),\n",
      "    Message('note_on', channel=9, note=35, velocity=100, time=0),\n",
      "    Message('note_off', channel=9, note=35, velocity=64, time=60),\n",
      "    Message('note_off', channel=9, note=36, velocity=64, time=0),\n",
      "    Message('note_off', channel=9, note=42, velocity=64, time=0),\n",
      "    Message('note_on', channel=9, note=42, velocity=100, time=60),\n",
      "    Message('note_off', channel=9, note=42, velocity=64, time=60),\n",
      "    Message('note_on', channel=9, note=42, velocity=100, time=60),\n",
      "    Message('note_on', channel=9, note=38, velocity=100, time=0),\n",
      "    Message('note_on', channel=9, note=40, velocity=100, time=0),\n",
      "    Message('note_off', channel=9, note=40, velocity=64, time=60),\n",
      "    Message('note_off', channel=9, note=38, velocity=64, time=0),\n",
      "    Message('note_off', channel=9, note=42, velocity=64, time=0),\n",
      "    Message('note_on', channel=9, note=42, velocity=100, time=60),\n",
      "    Message('note_off', channel=9, note=42, velocity=64, time=60),\n",
      "    Message('note_on', channel=9, note=42, velocity=100, time=60),\n",
      "    Message('note_off', channel=9, note=42, velocity=64, time=60),\n",
      "    Message('note_on', channel=9, note=42, velocity=100, time=60),\n",
      "    Message('note_on', channel=9, note=36, velocity=100, time=0),\n",
      "    Message('note_on', channel=9, note=35, velocity=100, time=0),\n",
      "    Message('note_off', channel=9, note=35, velocity=64, time=60),\n",
      "    Message('note_off', channel=9, note=36, velocity=64, time=0),\n",
      "    Message('note_off', channel=9, note=42, velocity=64, time=0),\n",
      "    Message('note_on', channel=9, note=42, velocity=100, time=60),\n",
      "    Message('note_off', channel=9, note=42, velocity=64, time=60),\n",
      "    Message('note_on', channel=9, note=42, velocity=100, time=60),\n",
      "    Message('note_off', channel=9, note=42, velocity=64, time=60),\n",
      "    Message('note_on', channel=9, note=42, velocity=100, time=60),\n",
      "    Message('note_on', channel=9, note=36, velocity=100, time=0),\n",
      "    Message('note_on', channel=9, note=35, velocity=100, time=0),\n",
      "    Message('note_off', channel=9, note=35, velocity=64, time=60),\n",
      "    Message('note_off', channel=9, note=36, velocity=64, time=0),\n",
      "    Message('note_off', channel=9, note=42, velocity=64, time=0),\n",
      "    Message('note_on', channel=9, note=42, velocity=100, time=60),\n",
      "    Message('note_off', channel=9, note=42, velocity=64, time=60),\n",
      "    Message('note_on', channel=9, note=42, velocity=100, time=60),\n",
      "    Message('note_on', channel=9, note=40, velocity=100, time=0),\n",
      "    Message('note_on', channel=9, note=38, velocity=100, time=0),\n",
      "    Message('note_off', channel=9, note=38, velocity=64, time=60),\n",
      "    Message('note_off', channel=9, note=40, velocity=64, time=0),\n",
      "    Message('note_off', channel=9, note=42, velocity=64, time=0),\n",
      "    Message('note_on', channel=9, note=42, velocity=100, time=60),\n",
      "    Message('note_off', channel=9, note=42, velocity=64, time=60),\n",
      "    Message('note_on', channel=9, note=42, velocity=100, time=60),\n",
      "    Message('note_off', channel=9, note=42, velocity=64, time=60),\n",
      "    Message('note_on', channel=9, note=42, velocity=100, time=60),\n",
      "    Message('note_off', channel=9, note=42, velocity=64, time=60),\n",
      "    Message('note_on', channel=9, note=42, velocity=100, time=60),\n",
      "    Message('note_on', channel=9, note=35, velocity=100, time=0),\n",
      "    Message('note_on', channel=9, note=36, velocity=100, time=0),\n",
      "    Message('note_off', channel=9, note=36, velocity=64, time=60),\n",
      "    Message('note_off', channel=9, note=35, velocity=64, time=0),\n",
      "    Message('note_off', channel=9, note=42, velocity=64, time=0),\n",
      "    Message('note_on', channel=9, note=42, velocity=100, time=60),\n",
      "    Message('note_off', channel=9, note=42, velocity=64, time=60),\n",
      "    Message('note_on', channel=9, note=42, velocity=100, time=60),\n",
      "    Message('note_on', channel=9, note=36, velocity=100, time=0),\n",
      "    Message('note_on', channel=9, note=35, velocity=100, time=0),\n",
      "    Message('note_off', channel=9, note=35, velocity=64, time=60),\n",
      "    Message('note_off', channel=9, note=36, velocity=64, time=0),\n",
      "    Message('note_off', channel=9, note=42, velocity=64, time=0),\n",
      "    Message('note_on', channel=9, note=42, velocity=100, time=60),\n",
      "    Message('note_off', channel=9, note=42, velocity=64, time=60),\n",
      "    Message('note_on', channel=9, note=42, velocity=100, time=60),\n",
      "    Message('note_on', channel=9, note=38, velocity=100, time=0),\n",
      "    Message('note_on', channel=9, note=40, velocity=100, time=0),\n",
      "    Message('note_off', channel=9, note=40, velocity=64, time=60),\n",
      "    Message('note_off', channel=9, note=38, velocity=64, time=0),\n",
      "    Message('note_off', channel=9, note=42, velocity=64, time=0),\n",
      "    Message('note_on', channel=9, note=42, velocity=100, time=60),\n",
      "    Message('note_off', channel=9, note=42, velocity=64, time=60),\n",
      "    Message('note_on', channel=9, note=42, velocity=100, time=60),\n",
      "    Message('note_off', channel=9, note=42, velocity=64, time=60),\n",
      "    Message('note_on', channel=9, note=42, velocity=100, time=60),\n",
      "    Message('note_on', channel=9, note=36, velocity=100, time=0),\n",
      "    Message('note_on', channel=9, note=35, velocity=100, time=0),\n",
      "    Message('note_off', channel=9, note=35, velocity=64, time=60),\n",
      "    Message('note_off', channel=9, note=36, velocity=64, time=0),\n",
      "    Message('note_off', channel=9, note=42, velocity=64, time=0),\n",
      "    Message('note_on', channel=9, note=42, velocity=100, time=60),\n",
      "    Message('note_off', channel=9, note=42, velocity=64, time=60),\n",
      "    Message('note_on', channel=9, note=42, velocity=100, time=60),\n",
      "    Message('note_off', channel=9, note=42, velocity=64, time=60),\n",
      "    Message('note_on', channel=9, note=42, velocity=100, time=60),\n",
      "    Message('note_on', channel=9, note=36, velocity=100, time=0),\n",
      "    Message('note_on', channel=9, note=35, velocity=100, time=0),\n",
      "    Message('note_off', channel=9, note=35, velocity=64, time=60),\n",
      "    Message('note_off', channel=9, note=36, velocity=64, time=0),\n",
      "    Message('note_off', channel=9, note=42, velocity=64, time=0),\n",
      "    Message('note_on', channel=9, note=42, velocity=100, time=60),\n",
      "    Message('note_off', channel=9, note=42, velocity=64, time=60),\n",
      "    Message('note_on', channel=9, note=42, velocity=100, time=60),\n",
      "    Message('note_on', channel=9, note=40, velocity=100, time=0),\n",
      "    Message('note_on', channel=9, note=38, velocity=100, time=0),\n",
      "    Message('note_off', channel=9, note=38, velocity=64, time=60),\n",
      "    Message('note_off', channel=9, note=40, velocity=64, time=0),\n",
      "    Message('note_off', channel=9, note=42, velocity=64, time=0),\n",
      "    Message('note_on', channel=9, note=42, velocity=100, time=60),\n",
      "    Message('note_off', channel=9, note=42, velocity=64, time=60),\n",
      "    Message('note_on', channel=9, note=42, velocity=100, time=60),\n",
      "    Message('note_off', channel=9, note=42, velocity=64, time=60),\n",
      "    Message('note_on', channel=9, note=42, velocity=100, time=60),\n",
      "    Message('note_off', channel=9, note=42, velocity=64, time=60),\n",
      "    Message('note_on', channel=9, note=42, velocity=100, time=60),\n",
      "    Message('note_on', channel=9, note=35, velocity=100, time=0),\n",
      "    Message('note_on', channel=9, note=36, velocity=100, time=0),\n",
      "    Message('note_off', channel=9, note=36, velocity=64, time=60),\n",
      "    Message('note_off', channel=9, note=35, velocity=64, time=0),\n",
      "    Message('note_off', channel=9, note=42, velocity=64, time=0),\n",
      "    Message('note_on', channel=9, note=42, velocity=100, time=60),\n",
      "    Message('note_off', channel=9, note=42, velocity=64, time=60),\n",
      "    Message('note_on', channel=9, note=42, velocity=100, time=60),\n",
      "    Message('note_on', channel=9, note=36, velocity=100, time=0),\n",
      "    Message('note_on', channel=9, note=35, velocity=100, time=0),\n",
      "    Message('note_off', channel=9, note=35, velocity=64, time=60),\n",
      "    Message('note_off', channel=9, note=36, velocity=64, time=0),\n",
      "    Message('note_off', channel=9, note=42, velocity=64, time=0),\n",
      "    Message('note_on', channel=9, note=42, velocity=100, time=60),\n",
      "    Message('note_off', channel=9, note=42, velocity=64, time=60),\n",
      "    Message('note_on', channel=9, note=42, velocity=100, time=60),\n",
      "    Message('note_on', channel=9, note=38, velocity=100, time=0),\n",
      "    Message('note_on', channel=9, note=40, velocity=100, time=0),\n",
      "    Message('note_off', channel=9, note=40, velocity=64, time=60),\n",
      "    Message('note_off', channel=9, note=38, velocity=64, time=0),\n",
      "    Message('note_off', channel=9, note=42, velocity=64, time=0),\n",
      "    Message('note_on', channel=9, note=42, velocity=100, time=60),\n",
      "    Message('note_off', channel=9, note=42, velocity=64, time=60),\n",
      "    Message('note_on', channel=9, note=42, velocity=100, time=60),\n",
      "    Message('note_off', channel=9, note=42, velocity=64, time=60),\n",
      "    Message('note_on', channel=9, note=42, velocity=100, time=60),\n",
      "    Message('note_on', channel=9, note=36, velocity=100, time=0),\n",
      "    Message('note_on', channel=9, note=35, velocity=100, time=0),\n",
      "    Message('note_off', channel=9, note=35, velocity=64, time=60),\n",
      "    Message('note_off', channel=9, note=36, velocity=64, time=0),\n",
      "    Message('note_off', channel=9, note=42, velocity=64, time=0),\n",
      "    Message('note_on', channel=9, note=42, velocity=100, time=60),\n",
      "    Message('note_off', channel=9, note=42, velocity=64, time=60),\n",
      "    Message('note_on', channel=9, note=42, velocity=100, time=60),\n",
      "    Message('note_off', channel=9, note=42, velocity=64, time=60),\n",
      "    Message('note_on', channel=9, note=42, velocity=100, time=60),\n",
      "    Message('note_on', channel=9, note=36, velocity=100, time=0),\n",
      "    Message('note_on', channel=9, note=35, velocity=100, time=0),\n",
      "    Message('note_off', channel=9, note=35, velocity=64, time=60),\n",
      "    Message('note_off', channel=9, note=36, velocity=64, time=0),\n",
      "    Message('note_off', channel=9, note=42, velocity=64, time=0),\n",
      "    Message('note_on', channel=9, note=42, velocity=100, time=60),\n",
      "    Message('note_off', channel=9, note=42, velocity=64, time=60),\n",
      "    Message('note_on', channel=9, note=42, velocity=100, time=60),\n",
      "    Message('note_on', channel=9, note=40, velocity=100, time=0),\n",
      "    Message('note_on', channel=9, note=38, velocity=100, time=0),\n",
      "    Message('note_off', channel=9, note=38, velocity=64, time=60),\n",
      "    Message('note_off', channel=9, note=40, velocity=64, time=0),\n",
      "    Message('note_off', channel=9, note=42, velocity=64, time=0),\n",
      "    Message('note_on', channel=9, note=42, velocity=100, time=60),\n",
      "    Message('note_off', channel=9, note=42, velocity=64, time=60),\n",
      "    Message('note_on', channel=9, note=42, velocity=100, time=60),\n",
      "    Message('note_off', channel=9, note=42, velocity=64, time=60),\n",
      "    Message('note_on', channel=9, note=42, velocity=100, time=60),\n",
      "    Message('note_off', channel=9, note=42, velocity=64, time=60),\n",
      "    Message('note_on', channel=9, note=42, velocity=100, time=60),\n",
      "    Message('note_on', channel=9, note=35, velocity=100, time=0),\n",
      "    Message('note_on', channel=9, note=36, velocity=100, time=0),\n",
      "    Message('note_off', channel=9, note=36, velocity=64, time=60),\n",
      "    Message('note_off', channel=9, note=35, velocity=64, time=0),\n",
      "    Message('note_off', channel=9, note=42, velocity=64, time=0),\n",
      "    Message('note_on', channel=9, note=42, velocity=100, time=60),\n",
      "    Message('note_off', channel=9, note=42, velocity=64, time=60),\n",
      "    Message('note_on', channel=9, note=42, velocity=100, time=60),\n",
      "    Message('note_on', channel=9, note=36, velocity=100, time=0),\n",
      "    Message('note_on', channel=9, note=35, velocity=100, time=0),\n",
      "    Message('note_off', channel=9, note=35, velocity=64, time=60),\n",
      "    Message('note_off', channel=9, note=36, velocity=64, time=0),\n",
      "    Message('note_off', channel=9, note=42, velocity=64, time=0),\n",
      "    Message('note_on', channel=9, note=42, velocity=100, time=60),\n",
      "    Message('note_off', channel=9, note=42, velocity=64, time=60),\n",
      "    Message('note_on', channel=9, note=42, velocity=100, time=60),\n",
      "    Message('note_on', channel=9, note=38, velocity=100, time=0),\n",
      "    Message('note_on', channel=9, note=40, velocity=100, time=0),\n",
      "    Message('note_off', channel=9, note=40, velocity=64, time=60),\n",
      "    Message('note_off', channel=9, note=38, velocity=64, time=0),\n",
      "    Message('note_off', channel=9, note=42, velocity=64, time=0),\n",
      "    Message('note_on', channel=9, note=42, velocity=100, time=60),\n",
      "    Message('note_off', channel=9, note=42, velocity=64, time=60),\n",
      "    Message('note_on', channel=9, note=42, velocity=100, time=60),\n",
      "    Message('note_off', channel=9, note=42, velocity=64, time=60),\n",
      "    Message('note_on', channel=9, note=42, velocity=100, time=60),\n",
      "    Message('note_on', channel=9, note=36, velocity=100, time=0),\n",
      "    Message('note_on', channel=9, note=35, velocity=100, time=0),\n",
      "    Message('note_off', channel=9, note=35, velocity=64, time=60),\n",
      "    Message('note_off', channel=9, note=36, velocity=64, time=0),\n",
      "    Message('note_off', channel=9, note=42, velocity=64, time=0),\n",
      "    Message('note_on', channel=9, note=42, velocity=100, time=60),\n",
      "    Message('note_off', channel=9, note=42, velocity=64, time=60),\n",
      "    Message('note_on', channel=9, note=42, velocity=100, time=60),\n",
      "    Message('note_off', channel=9, note=42, velocity=64, time=60),\n",
      "    Message('note_on', channel=9, note=42, velocity=100, time=60),\n",
      "    Message('note_on', channel=9, note=36, velocity=100, time=0),\n",
      "    Message('note_on', channel=9, note=35, velocity=100, time=0),\n",
      "    Message('note_off', channel=9, note=35, velocity=64, time=60),\n",
      "    Message('note_off', channel=9, note=36, velocity=64, time=0),\n",
      "    Message('note_off', channel=9, note=42, velocity=64, time=0),\n",
      "    Message('note_on', channel=9, note=42, velocity=100, time=60),\n",
      "    Message('note_off', channel=9, note=42, velocity=64, time=60),\n",
      "    Message('note_on', channel=9, note=42, velocity=100, time=60),\n",
      "    Message('note_on', channel=9, note=40, velocity=100, time=0),\n",
      "    Message('note_on', channel=9, note=38, velocity=100, time=0),\n",
      "    Message('note_off', channel=9, note=38, velocity=64, time=60),\n",
      "    Message('note_off', channel=9, note=40, velocity=64, time=0),\n",
      "    Message('note_off', channel=9, note=42, velocity=64, time=0),\n",
      "    Message('note_on', channel=9, note=42, velocity=100, time=60),\n",
      "    Message('note_off', channel=9, note=42, velocity=64, time=60),\n",
      "    Message('note_on', channel=9, note=42, velocity=100, time=60),\n",
      "    Message('note_off', channel=9, note=42, velocity=64, time=60),\n",
      "    Message('note_on', channel=9, note=42, velocity=100, time=60),\n",
      "    Message('note_off', channel=9, note=42, velocity=64, time=60),\n",
      "    Message('note_on', channel=9, note=42, velocity=100, time=60),\n",
      "    Message('note_on', channel=9, note=35, velocity=100, time=0),\n",
      "    Message('note_on', channel=9, note=36, velocity=100, time=0),\n",
      "    Message('note_off', channel=9, note=36, velocity=64, time=60),\n",
      "    Message('note_off', channel=9, note=35, velocity=64, time=0),\n",
      "    Message('note_off', channel=9, note=42, velocity=64, time=0),\n",
      "    Message('note_on', channel=9, note=42, velocity=100, time=60),\n",
      "    Message('note_off', channel=9, note=42, velocity=64, time=60),\n",
      "    Message('note_on', channel=9, note=42, velocity=100, time=60),\n",
      "    Message('note_on', channel=9, note=36, velocity=100, time=0),\n",
      "    Message('note_on', channel=9, note=35, velocity=100, time=0),\n",
      "    Message('note_off', channel=9, note=35, velocity=64, time=60),\n",
      "    Message('note_off', channel=9, note=36, velocity=64, time=0),\n",
      "    Message('note_off', channel=9, note=42, velocity=64, time=0),\n",
      "    Message('note_on', channel=9, note=42, velocity=100, time=60),\n",
      "    Message('note_off', channel=9, note=42, velocity=64, time=60),\n",
      "    Message('note_on', channel=9, note=42, velocity=100, time=60),\n",
      "    Message('note_on', channel=9, note=38, velocity=100, time=0),\n",
      "    Message('note_on', channel=9, note=40, velocity=100, time=0),\n",
      "    Message('note_off', channel=9, note=40, velocity=64, time=60),\n",
      "    Message('note_off', channel=9, note=38, velocity=64, time=0),\n",
      "    Message('note_off', channel=9, note=42, velocity=64, time=0),\n",
      "    Message('note_on', channel=9, note=42, velocity=100, time=60),\n",
      "    Message('note_off', channel=9, note=42, velocity=64, time=60),\n",
      "    Message('note_on', channel=9, note=42, velocity=100, time=60),\n",
      "    Message('note_off', channel=9, note=42, velocity=64, time=60),\n",
      "    Message('note_on', channel=9, note=42, velocity=100, time=60),\n",
      "    Message('note_on', channel=9, note=36, velocity=100, time=0),\n",
      "    Message('note_on', channel=9, note=35, velocity=100, time=0),\n",
      "    Message('note_off', channel=9, note=35, velocity=64, time=60),\n",
      "    Message('note_off', channel=9, note=36, velocity=64, time=0),\n",
      "    Message('note_off', channel=9, note=42, velocity=64, time=0),\n",
      "    Message('note_on', channel=9, note=42, velocity=100, time=60),\n",
      "    Message('note_off', channel=9, note=42, velocity=64, time=60),\n",
      "    Message('note_on', channel=9, note=42, velocity=100, time=60),\n",
      "    Message('note_off', channel=9, note=42, velocity=64, time=60),\n",
      "    Message('note_on', channel=9, note=42, velocity=100, time=60),\n",
      "    Message('note_on', channel=9, note=36, velocity=100, time=0),\n",
      "    Message('note_on', channel=9, note=35, velocity=100, time=0),\n",
      "    Message('note_off', channel=9, note=35, velocity=64, time=60),\n",
      "    Message('note_off', channel=9, note=36, velocity=64, time=0),\n",
      "    Message('note_off', channel=9, note=42, velocity=64, time=0),\n",
      "    Message('note_on', channel=9, note=42, velocity=100, time=60),\n",
      "    Message('note_off', channel=9, note=42, velocity=64, time=60),\n",
      "    Message('note_on', channel=9, note=42, velocity=100, time=60),\n",
      "    Message('note_on', channel=9, note=40, velocity=100, time=0),\n",
      "    Message('note_on', channel=9, note=38, velocity=100, time=0),\n",
      "    Message('note_off', channel=9, note=38, velocity=64, time=60),\n",
      "    Message('note_off', channel=9, note=40, velocity=64, time=0),\n",
      "    Message('note_off', channel=9, note=42, velocity=64, time=0),\n",
      "    Message('note_on', channel=9, note=42, velocity=100, time=60),\n",
      "    Message('note_off', channel=9, note=42, velocity=64, time=60),\n",
      "    Message('note_on', channel=9, note=42, velocity=100, time=60),\n",
      "    Message('note_off', channel=9, note=42, velocity=64, time=60),\n",
      "    Message('note_on', channel=9, note=42, velocity=100, time=60),\n",
      "    Message('note_off', channel=9, note=42, velocity=64, time=60),\n",
      "    Message('note_on', channel=9, note=42, velocity=100, time=60),\n",
      "    Message('note_on', channel=9, note=35, velocity=100, time=0),\n",
      "    Message('note_on', channel=9, note=36, velocity=100, time=0),\n",
      "    Message('note_off', channel=9, note=36, velocity=64, time=60),\n",
      "    Message('note_off', channel=9, note=35, velocity=64, time=0),\n",
      "    Message('note_off', channel=9, note=42, velocity=64, time=0),\n",
      "    Message('note_on', channel=9, note=42, velocity=100, time=60),\n",
      "    Message('note_off', channel=9, note=42, velocity=64, time=60),\n",
      "    Message('note_on', channel=9, note=42, velocity=100, time=60),\n",
      "    Message('note_on', channel=9, note=36, velocity=100, time=0),\n",
      "    Message('note_on', channel=9, note=35, velocity=100, time=0),\n",
      "    Message('note_off', channel=9, note=35, velocity=64, time=60),\n",
      "    Message('note_off', channel=9, note=36, velocity=64, time=0),\n",
      "    Message('note_off', channel=9, note=42, velocity=64, time=0),\n",
      "    Message('note_on', channel=9, note=42, velocity=100, time=60),\n",
      "    Message('note_off', channel=9, note=42, velocity=64, time=60),\n",
      "    Message('note_on', channel=9, note=42, velocity=100, time=60),\n",
      "    Message('note_on', channel=9, note=38, velocity=100, time=0),\n",
      "    Message('note_on', channel=9, note=40, velocity=100, time=0),\n",
      "    Message('note_off', channel=9, note=40, velocity=64, time=60),\n",
      "    Message('note_off', channel=9, note=38, velocity=64, time=0),\n",
      "    Message('note_off', channel=9, note=42, velocity=64, time=0),\n",
      "    Message('note_on', channel=9, note=42, velocity=100, time=60),\n",
      "    Message('note_off', channel=9, note=42, velocity=64, time=60),\n",
      "    Message('note_on', channel=9, note=42, velocity=100, time=60),\n",
      "    Message('note_off', channel=9, note=42, velocity=64, time=60),\n",
      "    Message('note_on', channel=9, note=42, velocity=100, time=60),\n",
      "    Message('note_on', channel=9, note=36, velocity=100, time=0),\n",
      "    Message('note_on', channel=9, note=35, velocity=100, time=0),\n",
      "    Message('note_off', channel=9, note=35, velocity=64, time=60),\n",
      "    Message('note_off', channel=9, note=36, velocity=64, time=0),\n",
      "    Message('note_off', channel=9, note=42, velocity=64, time=0),\n",
      "    Message('note_on', channel=9, note=42, velocity=100, time=60),\n",
      "    Message('note_off', channel=9, note=42, velocity=64, time=60),\n",
      "    Message('note_on', channel=9, note=42, velocity=100, time=60),\n",
      "    Message('note_off', channel=9, note=42, velocity=64, time=60),\n",
      "    Message('note_on', channel=9, note=42, velocity=100, time=60),\n",
      "    Message('note_on', channel=9, note=36, velocity=100, time=0),\n",
      "    Message('note_on', channel=9, note=35, velocity=100, time=0),\n",
      "    Message('note_off', channel=9, note=35, velocity=64, time=60),\n",
      "    Message('note_off', channel=9, note=36, velocity=64, time=0),\n",
      "    Message('note_off', channel=9, note=42, velocity=64, time=0),\n",
      "    Message('note_on', channel=9, note=42, velocity=100, time=60),\n",
      "    Message('note_off', channel=9, note=42, velocity=64, time=60),\n",
      "    Message('note_on', channel=9, note=42, velocity=100, time=60),\n",
      "    Message('note_on', channel=9, note=40, velocity=100, time=0),\n",
      "    Message('note_on', channel=9, note=38, velocity=100, time=0),\n",
      "    Message('note_off', channel=9, note=38, velocity=64, time=60),\n",
      "    Message('note_off', channel=9, note=40, velocity=64, time=0),\n",
      "    Message('note_off', channel=9, note=42, velocity=64, time=0),\n",
      "    Message('note_on', channel=9, note=42, velocity=100, time=60),\n",
      "    Message('note_off', channel=9, note=42, velocity=64, time=60),\n",
      "    Message('note_on', channel=9, note=42, velocity=100, time=60),\n",
      "    Message('note_off', channel=9, note=42, velocity=64, time=60),\n",
      "    Message('note_on', channel=9, note=42, velocity=100, time=60),\n",
      "    Message('note_off', channel=9, note=42, velocity=64, time=60),\n",
      "    Message('note_on', channel=9, note=35, velocity=100, time=60),\n",
      "    Message('note_on', channel=9, note=36, velocity=100, time=0),\n",
      "    Message('note_off', channel=9, note=36, velocity=64, time=60),\n",
      "    Message('note_off', channel=9, note=35, velocity=64, time=0),\n",
      "    Message('note_on', channel=9, note=35, velocity=100, time=180),\n",
      "    Message('note_on', channel=9, note=36, velocity=100, time=0),\n",
      "    Message('note_off', channel=9, note=36, velocity=64, time=60),\n",
      "    Message('note_off', channel=9, note=35, velocity=64, time=0),\n",
      "    Message('note_on', channel=9, note=39, velocity=100, time=180),\n",
      "    Message('note_off', channel=9, note=39, velocity=64, time=60),\n",
      "    Message('note_on', channel=9, note=35, velocity=100, time=300),\n",
      "    Message('note_on', channel=9, note=36, velocity=100, time=0),\n",
      "    Message('note_off', channel=9, note=36, velocity=64, time=60),\n",
      "    Message('note_off', channel=9, note=35, velocity=64, time=0),\n",
      "    Message('note_on', channel=9, note=35, velocity=100, time=300),\n",
      "    Message('note_on', channel=9, note=36, velocity=100, time=0),\n",
      "    Message('note_off', channel=9, note=36, velocity=64, time=60),\n",
      "    Message('note_off', channel=9, note=35, velocity=64, time=0),\n",
      "    Message('note_on', channel=9, note=38, velocity=100, time=180),\n",
      "    Message('note_on', channel=9, note=40, velocity=100, time=0),\n",
      "    Message('note_off', channel=9, note=40, velocity=64, time=60),\n",
      "    Message('note_off', channel=9, note=38, velocity=64, time=0),\n",
      "    Message('note_on', channel=9, note=35, velocity=100, time=180),\n",
      "    Message('note_on', channel=9, note=36, velocity=100, time=0),\n",
      "    Message('note_off', channel=9, note=36, velocity=64, time=60),\n",
      "    Message('note_off', channel=9, note=35, velocity=64, time=0),\n",
      "    Message('note_on', channel=9, note=42, velocity=100, time=180),\n",
      "    Message('note_on', channel=9, note=35, velocity=100, time=0),\n",
      "    Message('note_on', channel=9, note=36, velocity=100, time=0),\n",
      "    Message('note_off', channel=9, note=36, velocity=64, time=60),\n",
      "    Message('note_off', channel=9, note=35, velocity=64, time=0),\n",
      "    Message('note_off', channel=9, note=42, velocity=64, time=0),\n",
      "    Message('note_on', channel=9, note=42, velocity=100, time=60),\n",
      "    Message('note_off', channel=9, note=42, velocity=64, time=60),\n",
      "    Message('note_on', channel=9, note=42, velocity=100, time=60),\n",
      "    Message('note_on', channel=9, note=36, velocity=100, time=0),\n",
      "    Message('note_on', channel=9, note=35, velocity=100, time=0),\n",
      "    Message('note_off', channel=9, note=35, velocity=64, time=60),\n",
      "    Message('note_off', channel=9, note=36, velocity=64, time=0),\n",
      "    Message('note_off', channel=9, note=42, velocity=64, time=0),\n",
      "    Message('note_on', channel=9, note=42, velocity=100, time=60),\n",
      "    Message('note_off', channel=9, note=42, velocity=64, time=60),\n",
      "    Message('note_on', channel=9, note=42, velocity=100, time=60),\n",
      "    Message('note_on', channel=9, note=38, velocity=100, time=0),\n",
      "    Message('note_on', channel=9, note=40, velocity=100, time=0),\n",
      "    Message('note_off', channel=9, note=40, velocity=64, time=60),\n",
      "    Message('note_off', channel=9, note=38, velocity=64, time=0),\n",
      "    Message('note_off', channel=9, note=42, velocity=64, time=0),\n",
      "    Message('note_on', channel=9, note=42, velocity=100, time=60),\n",
      "    Message('note_off', channel=9, note=42, velocity=64, time=60),\n",
      "    Message('note_on', channel=9, note=42, velocity=100, time=60),\n",
      "    Message('note_off', channel=9, note=42, velocity=64, time=60),\n",
      "    Message('note_on', channel=9, note=42, velocity=100, time=60),\n",
      "    Message('note_on', channel=9, note=36, velocity=100, time=0),\n",
      "    Message('note_on', channel=9, note=35, velocity=100, time=0),\n",
      "    Message('note_off', channel=9, note=35, velocity=64, time=60),\n",
      "    Message('note_off', channel=9, note=36, velocity=64, time=0),\n",
      "    Message('note_off', channel=9, note=42, velocity=64, time=0),\n",
      "    Message('note_on', channel=9, note=42, velocity=100, time=60),\n",
      "    Message('note_off', channel=9, note=42, velocity=64, time=60),\n",
      "    Message('note_on', channel=9, note=42, velocity=100, time=60),\n",
      "    Message('note_off', channel=9, note=42, velocity=64, time=60),\n",
      "    Message('note_on', channel=9, note=42, velocity=100, time=60),\n",
      "    Message('note_on', channel=9, note=36, velocity=100, time=0),\n",
      "    Message('note_on', channel=9, note=35, velocity=100, time=0),\n",
      "    Message('note_off', channel=9, note=35, velocity=64, time=60),\n",
      "    Message('note_off', channel=9, note=36, velocity=64, time=0),\n",
      "    Message('note_off', channel=9, note=42, velocity=64, time=0),\n",
      "    Message('note_on', channel=9, note=42, velocity=100, time=60),\n",
      "    Message('note_off', channel=9, note=42, velocity=64, time=60),\n",
      "    Message('note_on', channel=9, note=42, velocity=100, time=60),\n",
      "    Message('note_on', channel=9, note=40, velocity=100, time=0),\n",
      "    Message('note_on', channel=9, note=38, velocity=100, time=0),\n",
      "    Message('note_off', channel=9, note=38, velocity=64, time=60),\n",
      "    Message('note_off', channel=9, note=40, velocity=64, time=0),\n",
      "    Message('note_off', channel=9, note=42, velocity=64, time=0),\n",
      "    Message('note_on', channel=9, note=42, velocity=100, time=60),\n",
      "    Message('note_off', channel=9, note=42, velocity=64, time=60),\n",
      "    Message('note_on', channel=9, note=42, velocity=100, time=60),\n",
      "    Message('note_off', channel=9, note=42, velocity=64, time=60),\n",
      "    Message('note_on', channel=9, note=42, velocity=100, time=60),\n",
      "    Message('note_off', channel=9, note=42, velocity=64, time=60),\n",
      "    Message('note_on', channel=9, note=42, velocity=100, time=60),\n",
      "    Message('note_on', channel=9, note=35, velocity=100, time=0),\n",
      "    Message('note_on', channel=9, note=36, velocity=100, time=0),\n",
      "    Message('note_off', channel=9, note=36, velocity=64, time=60),\n",
      "    Message('note_off', channel=9, note=35, velocity=64, time=0),\n",
      "    Message('note_off', channel=9, note=42, velocity=64, time=0),\n",
      "    Message('note_on', channel=9, note=42, velocity=100, time=60),\n",
      "    Message('note_off', channel=9, note=42, velocity=64, time=60),\n",
      "    Message('note_on', channel=9, note=42, velocity=100, time=60),\n",
      "    Message('note_on', channel=9, note=36, velocity=100, time=0),\n",
      "    Message('note_on', channel=9, note=35, velocity=100, time=0),\n",
      "    Message('note_off', channel=9, note=35, velocity=64, time=60),\n",
      "    Message('note_off', channel=9, note=36, velocity=64, time=0),\n",
      "    Message('note_off', channel=9, note=42, velocity=64, time=0),\n",
      "    Message('note_on', channel=9, note=42, velocity=100, time=60),\n",
      "    Message('note_off', channel=9, note=42, velocity=64, time=60),\n",
      "    Message('note_on', channel=9, note=42, velocity=100, time=60),\n",
      "    Message('note_on', channel=9, note=38, velocity=100, time=0),\n",
      "    Message('note_on', channel=9, note=40, velocity=100, time=0),\n",
      "    Message('note_off', channel=9, note=40, velocity=64, time=60),\n",
      "    Message('note_off', channel=9, note=38, velocity=64, time=0),\n",
      "    Message('note_off', channel=9, note=42, velocity=64, time=0),\n",
      "    Message('note_on', channel=9, note=42, velocity=100, time=60),\n",
      "    Message('note_off', channel=9, note=42, velocity=64, time=60),\n",
      "    Message('note_on', channel=9, note=42, velocity=100, time=60),\n",
      "    Message('note_off', channel=9, note=42, velocity=64, time=60),\n",
      "    Message('note_on', channel=9, note=42, velocity=100, time=60),\n",
      "    Message('note_on', channel=9, note=36, velocity=100, time=0),\n",
      "    Message('note_on', channel=9, note=35, velocity=100, time=0),\n",
      "    Message('note_off', channel=9, note=35, velocity=64, time=60),\n",
      "    Message('note_off', channel=9, note=36, velocity=64, time=0),\n",
      "    Message('note_off', channel=9, note=42, velocity=64, time=0),\n",
      "    Message('note_on', channel=9, note=42, velocity=100, time=60),\n",
      "    Message('note_off', channel=9, note=42, velocity=64, time=60),\n",
      "    Message('note_on', channel=9, note=42, velocity=100, time=60),\n",
      "    Message('note_off', channel=9, note=42, velocity=64, time=60),\n",
      "    Message('note_on', channel=9, note=42, velocity=100, time=60),\n",
      "    Message('note_on', channel=9, note=36, velocity=100, time=0),\n",
      "    Message('note_on', channel=9, note=35, velocity=100, time=0),\n",
      "    Message('note_off', channel=9, note=35, velocity=64, time=60),\n",
      "    Message('note_off', channel=9, note=36, velocity=64, time=0),\n",
      "    Message('note_off', channel=9, note=42, velocity=64, time=0),\n",
      "    Message('note_on', channel=9, note=42, velocity=100, time=60),\n",
      "    Message('note_off', channel=9, note=42, velocity=64, time=60),\n",
      "    Message('note_on', channel=9, note=42, velocity=100, time=60),\n",
      "    Message('note_on', channel=9, note=40, velocity=100, time=0),\n",
      "    Message('note_on', channel=9, note=38, velocity=100, time=0),\n",
      "    Message('note_off', channel=9, note=38, velocity=64, time=60),\n",
      "    Message('note_off', channel=9, note=40, velocity=64, time=0),\n",
      "    Message('note_off', channel=9, note=42, velocity=64, time=0),\n",
      "    Message('note_on', channel=9, note=42, velocity=100, time=60),\n",
      "    Message('note_off', channel=9, note=42, velocity=64, time=60),\n",
      "    Message('note_on', channel=9, note=42, velocity=100, time=60),\n",
      "    Message('note_off', channel=9, note=42, velocity=64, time=60),\n",
      "    Message('note_on', channel=9, note=42, velocity=100, time=60),\n",
      "    Message('note_off', channel=9, note=42, velocity=64, time=60),\n",
      "    Message('note_on', channel=9, note=42, velocity=100, time=60),\n",
      "    Message('note_on', channel=9, note=35, velocity=100, time=0),\n",
      "    Message('note_on', channel=9, note=36, velocity=100, time=0),\n",
      "    Message('note_off', channel=9, note=36, velocity=64, time=60),\n",
      "    Message('note_off', channel=9, note=35, velocity=64, time=0),\n",
      "    Message('note_off', channel=9, note=42, velocity=64, time=0),\n",
      "    Message('note_on', channel=9, note=42, velocity=100, time=60),\n",
      "    Message('note_off', channel=9, note=42, velocity=64, time=60),\n",
      "    Message('note_on', channel=9, note=42, velocity=100, time=60),\n",
      "    Message('note_on', channel=9, note=36, velocity=100, time=0),\n",
      "    Message('note_on', channel=9, note=35, velocity=100, time=0),\n",
      "    Message('note_off', channel=9, note=35, velocity=64, time=60),\n",
      "    Message('note_off', channel=9, note=36, velocity=64, time=0),\n",
      "    Message('note_off', channel=9, note=42, velocity=64, time=0),\n",
      "    Message('note_on', channel=9, note=42, velocity=100, time=60),\n",
      "    Message('note_off', channel=9, note=42, velocity=64, time=60),\n",
      "    Message('note_on', channel=9, note=42, velocity=100, time=60),\n",
      "    Message('note_on', channel=9, note=38, velocity=100, time=0),\n",
      "    Message('note_on', channel=9, note=40, velocity=100, time=0),\n",
      "    Message('note_off', channel=9, note=40, velocity=64, time=60),\n",
      "    Message('note_off', channel=9, note=38, velocity=64, time=0),\n",
      "    Message('note_off', channel=9, note=42, velocity=64, time=0),\n",
      "    Message('note_on', channel=9, note=42, velocity=100, time=60),\n",
      "    Message('note_off', channel=9, note=42, velocity=64, time=60),\n",
      "    Message('note_on', channel=9, note=42, velocity=100, time=60),\n",
      "    Message('note_off', channel=9, note=42, velocity=64, time=60),\n",
      "    Message('note_on', channel=9, note=42, velocity=100, time=60),\n",
      "    Message('note_on', channel=9, note=36, velocity=100, time=0),\n",
      "    Message('note_on', channel=9, note=35, velocity=100, time=0),\n",
      "    Message('note_off', channel=9, note=35, velocity=64, time=60),\n",
      "    Message('note_off', channel=9, note=36, velocity=64, time=0),\n",
      "    Message('note_off', channel=9, note=42, velocity=64, time=0),\n",
      "    Message('note_on', channel=9, note=42, velocity=100, time=60),\n",
      "    Message('note_off', channel=9, note=42, velocity=64, time=60),\n",
      "    Message('note_on', channel=9, note=42, velocity=100, time=60),\n",
      "    Message('note_off', channel=9, note=42, velocity=64, time=60),\n",
      "    Message('note_on', channel=9, note=42, velocity=100, time=60),\n",
      "    Message('note_on', channel=9, note=36, velocity=100, time=0),\n",
      "    Message('note_on', channel=9, note=35, velocity=100, time=0),\n",
      "    Message('note_off', channel=9, note=35, velocity=64, time=60),\n",
      "    Message('note_off', channel=9, note=36, velocity=64, time=0),\n",
      "    Message('note_off', channel=9, note=42, velocity=64, time=0),\n",
      "    Message('note_on', channel=9, note=42, velocity=100, time=60),\n",
      "    Message('note_off', channel=9, note=42, velocity=64, time=60),\n",
      "    Message('note_on', channel=9, note=42, velocity=100, time=60),\n",
      "    Message('note_on', channel=9, note=40, velocity=100, time=0),\n",
      "    Message('note_on', channel=9, note=38, velocity=100, time=0),\n",
      "    Message('note_off', channel=9, note=38, velocity=64, time=60),\n",
      "    Message('note_off', channel=9, note=40, velocity=64, time=0),\n",
      "    Message('note_off', channel=9, note=42, velocity=64, time=0),\n",
      "    Message('note_on', channel=9, note=42, velocity=100, time=60),\n",
      "    Message('note_off', channel=9, note=42, velocity=64, time=60),\n",
      "    Message('note_on', channel=9, note=42, velocity=100, time=60),\n",
      "    Message('note_off', channel=9, note=42, velocity=64, time=60),\n",
      "    Message('note_on', channel=9, note=42, velocity=100, time=60),\n",
      "    Message('note_off', channel=9, note=42, velocity=64, time=60),\n",
      "    Message('note_on', channel=9, note=42, velocity=100, time=60),\n",
      "    Message('note_on', channel=9, note=35, velocity=100, time=0),\n",
      "    Message('note_on', channel=9, note=36, velocity=100, time=0),\n",
      "    Message('note_off', channel=9, note=36, velocity=64, time=60),\n",
      "    Message('note_off', channel=9, note=35, velocity=64, time=0),\n",
      "    Message('note_off', channel=9, note=42, velocity=64, time=0),\n",
      "    Message('note_on', channel=9, note=42, velocity=100, time=60),\n",
      "    Message('note_off', channel=9, note=42, velocity=64, time=60),\n",
      "    Message('note_on', channel=9, note=42, velocity=100, time=60),\n",
      "    Message('note_on', channel=9, note=36, velocity=100, time=0),\n",
      "    Message('note_on', channel=9, note=35, velocity=100, time=0),\n",
      "    Message('note_off', channel=9, note=35, velocity=64, time=60),\n",
      "    Message('note_off', channel=9, note=36, velocity=64, time=0),\n",
      "    Message('note_off', channel=9, note=42, velocity=64, time=0),\n",
      "    Message('note_on', channel=9, note=42, velocity=100, time=60),\n",
      "    Message('note_off', channel=9, note=42, velocity=64, time=60),\n",
      "    Message('note_on', channel=9, note=42, velocity=100, time=60),\n",
      "    Message('note_on', channel=9, note=38, velocity=100, time=0),\n",
      "    Message('note_on', channel=9, note=40, velocity=100, time=0),\n",
      "    Message('note_off', channel=9, note=40, velocity=64, time=60),\n",
      "    Message('note_off', channel=9, note=38, velocity=64, time=0),\n",
      "    Message('note_off', channel=9, note=42, velocity=64, time=0),\n",
      "    Message('note_on', channel=9, note=42, velocity=100, time=60),\n",
      "    Message('note_off', channel=9, note=42, velocity=64, time=60),\n",
      "    Message('note_on', channel=9, note=42, velocity=100, time=60),\n",
      "    Message('note_off', channel=9, note=42, velocity=64, time=60),\n",
      "    Message('note_on', channel=9, note=42, velocity=100, time=60),\n",
      "    Message('note_on', channel=9, note=36, velocity=100, time=0),\n",
      "    Message('note_on', channel=9, note=35, velocity=100, time=0),\n",
      "    Message('note_off', channel=9, note=35, velocity=64, time=60),\n",
      "    Message('note_off', channel=9, note=36, velocity=64, time=0),\n",
      "    Message('note_off', channel=9, note=42, velocity=64, time=0),\n",
      "    Message('note_on', channel=9, note=42, velocity=100, time=60),\n",
      "    Message('note_off', channel=9, note=42, velocity=64, time=60),\n",
      "    Message('note_on', channel=9, note=42, velocity=100, time=60),\n",
      "    Message('note_off', channel=9, note=42, velocity=64, time=60),\n",
      "    Message('note_on', channel=9, note=42, velocity=100, time=60),\n",
      "    Message('note_on', channel=9, note=36, velocity=100, time=0),\n",
      "    Message('note_on', channel=9, note=35, velocity=100, time=0),\n",
      "    Message('note_off', channel=9, note=35, velocity=64, time=60),\n",
      "    Message('note_off', channel=9, note=36, velocity=64, time=0),\n",
      "    Message('note_off', channel=9, note=42, velocity=64, time=0),\n",
      "    Message('note_on', channel=9, note=42, velocity=100, time=60),\n",
      "    Message('note_off', channel=9, note=42, velocity=64, time=60),\n",
      "    Message('note_on', channel=9, note=42, velocity=100, time=60),\n",
      "    Message('note_on', channel=9, note=40, velocity=100, time=0),\n",
      "    Message('note_on', channel=9, note=38, velocity=100, time=0),\n",
      "    Message('note_off', channel=9, note=38, velocity=64, time=60),\n",
      "    Message('note_off', channel=9, note=40, velocity=64, time=0),\n",
      "    Message('note_off', channel=9, note=42, velocity=64, time=0),\n",
      "    Message('note_on', channel=9, note=42, velocity=100, time=60),\n",
      "    Message('note_off', channel=9, note=42, velocity=64, time=60),\n",
      "    Message('note_on', channel=9, note=42, velocity=100, time=60),\n",
      "    Message('note_off', channel=9, note=42, velocity=64, time=60),\n",
      "    Message('note_on', channel=9, note=42, velocity=100, time=60),\n",
      "    Message('note_off', channel=9, note=42, velocity=64, time=60),\n",
      "    Message('note_on', channel=9, note=42, velocity=100, time=60),\n",
      "    Message('note_on', channel=9, note=35, velocity=100, time=0),\n",
      "    Message('note_on', channel=9, note=36, velocity=100, time=0),\n",
      "    Message('note_off', channel=9, note=36, velocity=64, time=60),\n",
      "    Message('note_off', channel=9, note=35, velocity=64, time=0),\n",
      "    Message('note_off', channel=9, note=42, velocity=64, time=0),\n",
      "    Message('note_on', channel=9, note=42, velocity=100, time=60),\n",
      "    Message('note_off', channel=9, note=42, velocity=64, time=60),\n",
      "    Message('note_on', channel=9, note=42, velocity=100, time=60),\n",
      "    Message('note_on', channel=9, note=36, velocity=100, time=0),\n",
      "    Message('note_on', channel=9, note=35, velocity=100, time=0),\n",
      "    Message('note_off', channel=9, note=35, velocity=64, time=60),\n",
      "    Message('note_off', channel=9, note=36, velocity=64, time=0),\n",
      "    Message('note_off', channel=9, note=42, velocity=64, time=0),\n",
      "    Message('note_on', channel=9, note=42, velocity=100, time=60),\n",
      "    Message('note_off', channel=9, note=42, velocity=64, time=60),\n",
      "    Message('note_on', channel=9, note=42, velocity=100, time=60),\n",
      "    Message('note_on', channel=9, note=38, velocity=100, time=0),\n",
      "    Message('note_on', channel=9, note=40, velocity=100, time=0),\n",
      "    Message('note_off', channel=9, note=40, velocity=64, time=60),\n",
      "    Message('note_off', channel=9, note=38, velocity=64, time=0),\n",
      "    Message('note_off', channel=9, note=42, velocity=64, time=0),\n",
      "    Message('note_on', channel=9, note=42, velocity=100, time=60),\n",
      "    Message('note_off', channel=9, note=42, velocity=64, time=60),\n",
      "    Message('note_on', channel=9, note=42, velocity=100, time=60),\n",
      "    Message('note_off', channel=9, note=42, velocity=64, time=60),\n",
      "    Message('note_on', channel=9, note=42, velocity=100, time=60),\n",
      "    Message('note_on', channel=9, note=36, velocity=100, time=0),\n",
      "    Message('note_on', channel=9, note=35, velocity=100, time=0),\n",
      "    Message('note_off', channel=9, note=35, velocity=64, time=60),\n",
      "    Message('note_off', channel=9, note=36, velocity=64, time=0),\n",
      "    Message('note_off', channel=9, note=42, velocity=64, time=0),\n",
      "    Message('note_on', channel=9, note=42, velocity=100, time=60),\n",
      "    Message('note_off', channel=9, note=42, velocity=64, time=60),\n",
      "    Message('note_on', channel=9, note=42, velocity=100, time=60),\n",
      "    Message('note_off', channel=9, note=42, velocity=64, time=60),\n",
      "    Message('note_on', channel=9, note=42, velocity=100, time=60),\n",
      "    Message('note_on', channel=9, note=36, velocity=100, time=0),\n",
      "    Message('note_on', channel=9, note=35, velocity=100, time=0),\n",
      "    Message('note_off', channel=9, note=35, velocity=64, time=60),\n",
      "    Message('note_off', channel=9, note=36, velocity=64, time=0),\n",
      "    Message('note_off', channel=9, note=42, velocity=64, time=0),\n",
      "    Message('note_on', channel=9, note=42, velocity=100, time=60),\n",
      "    Message('note_off', channel=9, note=42, velocity=64, time=60),\n",
      "    Message('note_on', channel=9, note=42, velocity=100, time=60),\n",
      "    Message('note_on', channel=9, note=40, velocity=100, time=0),\n",
      "    Message('note_on', channel=9, note=38, velocity=100, time=0),\n",
      "    Message('note_off', channel=9, note=38, velocity=64, time=60),\n",
      "    Message('note_off', channel=9, note=40, velocity=64, time=0),\n",
      "    Message('note_off', channel=9, note=42, velocity=64, time=0),\n",
      "    Message('note_on', channel=9, note=42, velocity=100, time=60),\n",
      "    Message('note_off', channel=9, note=42, velocity=64, time=60),\n",
      "    Message('note_on', channel=9, note=42, velocity=100, time=60),\n",
      "    Message('note_off', channel=9, note=42, velocity=64, time=60),\n",
      "    Message('note_on', channel=9, note=42, velocity=100, time=60),\n",
      "    Message('note_off', channel=9, note=42, velocity=64, time=60),\n",
      "    Message('note_on', channel=9, note=42, velocity=100, time=60),\n",
      "    Message('note_on', channel=9, note=35, velocity=100, time=0),\n",
      "    Message('note_on', channel=9, note=36, velocity=100, time=0),\n",
      "    Message('note_off', channel=9, note=36, velocity=64, time=60),\n",
      "    Message('note_off', channel=9, note=35, velocity=64, time=0),\n",
      "    Message('note_off', channel=9, note=42, velocity=64, time=0),\n",
      "    Message('note_on', channel=9, note=42, velocity=100, time=60),\n",
      "    Message('note_off', channel=9, note=42, velocity=64, time=60),\n",
      "    Message('note_on', channel=9, note=42, velocity=100, time=60),\n",
      "    Message('note_on', channel=9, note=36, velocity=100, time=0),\n",
      "    Message('note_on', channel=9, note=35, velocity=100, time=0),\n",
      "    Message('note_off', channel=9, note=35, velocity=64, time=60),\n",
      "    Message('note_off', channel=9, note=36, velocity=64, time=0),\n",
      "    Message('note_off', channel=9, note=42, velocity=64, time=0),\n",
      "    Message('note_on', channel=9, note=42, velocity=100, time=60),\n",
      "    Message('note_off', channel=9, note=42, velocity=64, time=60),\n",
      "    Message('note_on', channel=9, note=42, velocity=100, time=60),\n",
      "    Message('note_on', channel=9, note=38, velocity=100, time=0),\n",
      "    Message('note_on', channel=9, note=40, velocity=100, time=0),\n",
      "    Message('note_off', channel=9, note=40, velocity=64, time=60),\n",
      "    Message('note_off', channel=9, note=38, velocity=64, time=0),\n",
      "    Message('note_off', channel=9, note=42, velocity=64, time=0),\n",
      "    Message('note_on', channel=9, note=42, velocity=100, time=60),\n",
      "    Message('note_off', channel=9, note=42, velocity=64, time=60),\n",
      "    Message('note_on', channel=9, note=42, velocity=100, time=60),\n",
      "    Message('note_off', channel=9, note=42, velocity=64, time=60),\n",
      "    Message('note_on', channel=9, note=42, velocity=100, time=60),\n",
      "    Message('note_on', channel=9, note=36, velocity=100, time=0),\n",
      "    Message('note_on', channel=9, note=35, velocity=100, time=0),\n",
      "    Message('note_off', channel=9, note=35, velocity=64, time=60),\n",
      "    Message('note_off', channel=9, note=36, velocity=64, time=0),\n",
      "    Message('note_off', channel=9, note=42, velocity=64, time=0),\n",
      "    Message('note_on', channel=9, note=42, velocity=100, time=60),\n",
      "    Message('note_off', channel=9, note=42, velocity=64, time=60),\n",
      "    Message('note_on', channel=9, note=42, velocity=100, time=60),\n",
      "    Message('note_off', channel=9, note=42, velocity=64, time=60),\n",
      "    Message('note_on', channel=9, note=42, velocity=100, time=60),\n",
      "    Message('note_on', channel=9, note=36, velocity=100, time=0),\n",
      "    Message('note_on', channel=9, note=35, velocity=100, time=0),\n",
      "    Message('note_off', channel=9, note=35, velocity=64, time=60),\n",
      "    Message('note_off', channel=9, note=36, velocity=64, time=0),\n",
      "    Message('note_off', channel=9, note=42, velocity=64, time=0),\n",
      "    Message('note_on', channel=9, note=42, velocity=100, time=60),\n",
      "    Message('note_off', channel=9, note=42, velocity=64, time=60),\n",
      "    Message('note_on', channel=9, note=42, velocity=100, time=60),\n",
      "    Message('note_on', channel=9, note=40, velocity=100, time=0),\n",
      "    Message('note_on', channel=9, note=38, velocity=100, time=0),\n",
      "    Message('note_off', channel=9, note=38, velocity=64, time=60),\n",
      "    Message('note_off', channel=9, note=40, velocity=64, time=0),\n",
      "    Message('note_off', channel=9, note=42, velocity=64, time=0),\n",
      "    Message('note_on', channel=9, note=42, velocity=100, time=60),\n",
      "    Message('note_off', channel=9, note=42, velocity=64, time=60),\n",
      "    Message('note_on', channel=9, note=42, velocity=100, time=60),\n",
      "    Message('note_off', channel=9, note=42, velocity=64, time=60),\n",
      "    Message('note_on', channel=9, note=42, velocity=100, time=60),\n",
      "    Message('note_off', channel=9, note=42, velocity=64, time=60),\n",
      "    Message('note_on', channel=9, note=42, velocity=100, time=60),\n",
      "    Message('note_on', channel=9, note=35, velocity=100, time=0),\n",
      "    Message('note_on', channel=9, note=36, velocity=100, time=0),\n",
      "    Message('note_off', channel=9, note=36, velocity=64, time=60),\n",
      "    Message('note_off', channel=9, note=35, velocity=64, time=0),\n",
      "    Message('note_off', channel=9, note=42, velocity=64, time=0),\n",
      "    Message('note_on', channel=9, note=42, velocity=100, time=60),\n",
      "    Message('note_off', channel=9, note=42, velocity=64, time=60),\n",
      "    Message('note_on', channel=9, note=42, velocity=100, time=60),\n",
      "    Message('note_on', channel=9, note=36, velocity=100, time=0),\n",
      "    Message('note_on', channel=9, note=35, velocity=100, time=0),\n",
      "    Message('note_off', channel=9, note=35, velocity=64, time=60),\n",
      "    Message('note_off', channel=9, note=36, velocity=64, time=0),\n",
      "    Message('note_off', channel=9, note=42, velocity=64, time=0),\n",
      "    Message('note_on', channel=9, note=42, velocity=100, time=60),\n",
      "    Message('note_off', channel=9, note=42, velocity=64, time=60),\n",
      "    Message('note_on', channel=9, note=42, velocity=100, time=60),\n",
      "    Message('note_on', channel=9, note=38, velocity=100, time=0),\n",
      "    Message('note_on', channel=9, note=40, velocity=100, time=0),\n",
      "    Message('note_off', channel=9, note=40, velocity=64, time=60),\n",
      "    Message('note_off', channel=9, note=38, velocity=64, time=0),\n",
      "    Message('note_off', channel=9, note=42, velocity=64, time=0),\n",
      "    Message('note_on', channel=9, note=42, velocity=100, time=60),\n",
      "    Message('note_off', channel=9, note=42, velocity=64, time=60),\n",
      "    Message('note_on', channel=9, note=42, velocity=100, time=60),\n",
      "    Message('note_off', channel=9, note=42, velocity=64, time=60),\n",
      "    Message('note_on', channel=9, note=42, velocity=100, time=60),\n",
      "    Message('note_on', channel=9, note=36, velocity=100, time=0),\n",
      "    Message('note_on', channel=9, note=35, velocity=100, time=0),\n",
      "    Message('note_off', channel=9, note=35, velocity=64, time=60),\n",
      "    Message('note_off', channel=9, note=36, velocity=64, time=0),\n",
      "    Message('note_off', channel=9, note=42, velocity=64, time=0),\n",
      "    Message('note_on', channel=9, note=42, velocity=100, time=60),\n",
      "    Message('note_off', channel=9, note=42, velocity=64, time=60),\n",
      "    Message('note_on', channel=9, note=42, velocity=100, time=60),\n",
      "    Message('note_off', channel=9, note=42, velocity=64, time=60),\n",
      "    Message('note_on', channel=9, note=42, velocity=100, time=60),\n",
      "    Message('note_on', channel=9, note=36, velocity=100, time=0),\n",
      "    Message('note_on', channel=9, note=35, velocity=100, time=0),\n",
      "    Message('note_off', channel=9, note=35, velocity=64, time=60),\n",
      "    Message('note_off', channel=9, note=36, velocity=64, time=0),\n",
      "    Message('note_off', channel=9, note=42, velocity=64, time=0),\n",
      "    Message('note_on', channel=9, note=42, velocity=100, time=60),\n",
      "    Message('note_off', channel=9, note=42, velocity=64, time=60),\n",
      "    Message('note_on', channel=9, note=42, velocity=100, time=60),\n",
      "    Message('note_on', channel=9, note=40, velocity=100, time=0),\n",
      "    Message('note_on', channel=9, note=38, velocity=100, time=0),\n",
      "    Message('note_off', channel=9, note=38, velocity=64, time=60),\n",
      "    Message('note_off', channel=9, note=40, velocity=64, time=0),\n",
      "    Message('note_off', channel=9, note=42, velocity=64, time=0),\n",
      "    Message('note_on', channel=9, note=42, velocity=100, time=60),\n",
      "    Message('note_off', channel=9, note=42, velocity=64, time=60),\n",
      "    Message('note_on', channel=9, note=42, velocity=100, time=60),\n",
      "    Message('note_off', channel=9, note=42, velocity=64, time=60),\n",
      "    Message('note_on', channel=9, note=42, velocity=100, time=60),\n",
      "    Message('note_off', channel=9, note=42, velocity=64, time=60),\n",
      "    Message('note_on', channel=9, note=35, velocity=100, time=60),\n",
      "    Message('note_on', channel=9, note=36, velocity=100, time=0),\n",
      "    Message('note_off', channel=9, note=36, velocity=64, time=60),\n",
      "    Message('note_off', channel=9, note=35, velocity=64, time=0),\n",
      "    Message('note_on', channel=9, note=35, velocity=100, time=180),\n",
      "    Message('note_on', channel=9, note=36, velocity=100, time=0),\n",
      "    Message('note_off', channel=9, note=36, velocity=64, time=60),\n",
      "    Message('note_off', channel=9, note=35, velocity=64, time=0),\n",
      "    Message('note_on', channel=9, note=39, velocity=100, time=180),\n",
      "    Message('note_off', channel=9, note=39, velocity=64, time=60),\n",
      "    Message('note_on', channel=9, note=35, velocity=100, time=300),\n",
      "    Message('note_on', channel=9, note=36, velocity=100, time=0),\n",
      "    Message('note_off', channel=9, note=36, velocity=64, time=60),\n",
      "    Message('note_off', channel=9, note=35, velocity=64, time=0),\n",
      "    Message('note_on', channel=9, note=35, velocity=100, time=300),\n",
      "    Message('note_on', channel=9, note=36, velocity=100, time=0),\n",
      "    Message('note_off', channel=9, note=36, velocity=64, time=60),\n",
      "    Message('note_off', channel=9, note=35, velocity=64, time=0),\n",
      "    Message('note_on', channel=9, note=38, velocity=100, time=180),\n",
      "    Message('note_on', channel=9, note=40, velocity=100, time=0),\n",
      "    Message('note_off', channel=9, note=40, velocity=64, time=60),\n",
      "    Message('note_off', channel=9, note=38, velocity=64, time=0),\n",
      "    Message('note_on', channel=9, note=35, velocity=100, time=180),\n",
      "    Message('note_on', channel=9, note=36, velocity=100, time=0),\n",
      "    Message('note_off', channel=9, note=36, velocity=64, time=60),\n",
      "    Message('note_off', channel=9, note=35, velocity=64, time=0),\n",
      "    Message('note_on', channel=9, note=42, velocity=100, time=180),\n",
      "    Message('note_on', channel=9, note=35, velocity=100, time=0),\n",
      "    Message('note_on', channel=9, note=36, velocity=100, time=0),\n",
      "    Message('note_off', channel=9, note=36, velocity=64, time=60),\n",
      "    Message('note_off', channel=9, note=35, velocity=64, time=0),\n",
      "    Message('note_off', channel=9, note=42, velocity=64, time=0),\n",
      "    Message('note_on', channel=9, note=42, velocity=100, time=60),\n",
      "    Message('note_off', channel=9, note=42, velocity=64, time=60),\n",
      "    Message('note_on', channel=9, note=42, velocity=100, time=60),\n",
      "    Message('note_on', channel=9, note=36, velocity=100, time=0),\n",
      "    Message('note_on', channel=9, note=35, velocity=100, time=0),\n",
      "    Message('note_off', channel=9, note=35, velocity=64, time=60),\n",
      "    Message('note_off', channel=9, note=36, velocity=64, time=0),\n",
      "    Message('note_off', channel=9, note=42, velocity=64, time=0),\n",
      "    Message('note_on', channel=9, note=42, velocity=100, time=60),\n",
      "    Message('note_off', channel=9, note=42, velocity=64, time=60),\n",
      "    Message('note_on', channel=9, note=42, velocity=100, time=60),\n",
      "    Message('note_on', channel=9, note=38, velocity=100, time=0),\n",
      "    Message('note_on', channel=9, note=40, velocity=100, time=0),\n",
      "    Message('note_off', channel=9, note=40, velocity=64, time=60),\n",
      "    Message('note_off', channel=9, note=38, velocity=64, time=0),\n",
      "    Message('note_off', channel=9, note=42, velocity=64, time=0),\n",
      "    Message('note_on', channel=9, note=42, velocity=100, time=60),\n",
      "    Message('note_off', channel=9, note=42, velocity=64, time=60),\n",
      "    Message('note_on', channel=9, note=42, velocity=100, time=60),\n",
      "    Message('note_off', channel=9, note=42, velocity=64, time=60),\n",
      "    Message('note_on', channel=9, note=42, velocity=100, time=60),\n",
      "    Message('note_on', channel=9, note=36, velocity=100, time=0),\n",
      "    Message('note_on', channel=9, note=35, velocity=100, time=0),\n",
      "    Message('note_off', channel=9, note=35, velocity=64, time=60),\n",
      "    Message('note_off', channel=9, note=36, velocity=64, time=0),\n",
      "    Message('note_off', channel=9, note=42, velocity=64, time=0),\n",
      "    Message('note_on', channel=9, note=42, velocity=100, time=60),\n",
      "    Message('note_off', channel=9, note=42, velocity=64, time=60),\n",
      "    Message('note_on', channel=9, note=42, velocity=100, time=60),\n",
      "    Message('note_off', channel=9, note=42, velocity=64, time=60),\n",
      "    Message('note_on', channel=9, note=42, velocity=100, time=60),\n",
      "    Message('note_on', channel=9, note=36, velocity=100, time=0),\n",
      "    Message('note_on', channel=9, note=35, velocity=100, time=0),\n",
      "    Message('note_off', channel=9, note=35, velocity=64, time=60),\n",
      "    Message('note_off', channel=9, note=36, velocity=64, time=0),\n",
      "    Message('note_off', channel=9, note=42, velocity=64, time=0),\n",
      "    Message('note_on', channel=9, note=42, velocity=100, time=60),\n",
      "    Message('note_off', channel=9, note=42, velocity=64, time=60),\n",
      "    Message('note_on', channel=9, note=42, velocity=100, time=60),\n",
      "    Message('note_on', channel=9, note=40, velocity=100, time=0),\n",
      "    Message('note_on', channel=9, note=38, velocity=100, time=0),\n",
      "    Message('note_off', channel=9, note=38, velocity=64, time=60),\n",
      "    Message('note_off', channel=9, note=40, velocity=64, time=0),\n",
      "    Message('note_off', channel=9, note=42, velocity=64, time=0),\n",
      "    Message('note_on', channel=9, note=42, velocity=100, time=60),\n",
      "    Message('note_off', channel=9, note=42, velocity=64, time=60),\n",
      "    Message('note_on', channel=9, note=42, velocity=100, time=60),\n",
      "    Message('note_off', channel=9, note=42, velocity=64, time=60),\n",
      "    Message('note_on', channel=9, note=42, velocity=100, time=60),\n",
      "    Message('note_off', channel=9, note=42, velocity=64, time=60),\n",
      "    Message('note_on', channel=9, note=42, velocity=100, time=60),\n",
      "    Message('note_on', channel=9, note=35, velocity=100, time=0),\n",
      "    Message('note_on', channel=9, note=36, velocity=100, time=0),\n",
      "    Message('note_off', channel=9, note=36, velocity=64, time=60),\n",
      "    Message('note_off', channel=9, note=35, velocity=64, time=0),\n",
      "    Message('note_off', channel=9, note=42, velocity=64, time=0),\n",
      "    Message('note_on', channel=9, note=42, velocity=100, time=60),\n",
      "    Message('note_off', channel=9, note=42, velocity=64, time=60),\n",
      "    Message('note_on', channel=9, note=42, velocity=100, time=60),\n",
      "    Message('note_on', channel=9, note=36, velocity=100, time=0),\n",
      "    Message('note_on', channel=9, note=35, velocity=100, time=0),\n",
      "    Message('note_off', channel=9, note=35, velocity=64, time=60),\n",
      "    Message('note_off', channel=9, note=36, velocity=64, time=0),\n",
      "    Message('note_off', channel=9, note=42, velocity=64, time=0),\n",
      "    Message('note_on', channel=9, note=42, velocity=100, time=60),\n",
      "    Message('note_off', channel=9, note=42, velocity=64, time=60),\n",
      "    Message('note_on', channel=9, note=42, velocity=100, time=60),\n",
      "    Message('note_on', channel=9, note=38, velocity=100, time=0),\n",
      "    Message('note_on', channel=9, note=40, velocity=100, time=0),\n",
      "    Message('note_off', channel=9, note=40, velocity=64, time=60),\n",
      "    Message('note_off', channel=9, note=38, velocity=64, time=0),\n",
      "    Message('note_off', channel=9, note=42, velocity=64, time=0),\n",
      "    Message('note_on', channel=9, note=42, velocity=100, time=60),\n",
      "    Message('note_off', channel=9, note=42, velocity=64, time=60),\n",
      "    Message('note_on', channel=9, note=42, velocity=100, time=60),\n",
      "    Message('note_off', channel=9, note=42, velocity=64, time=60),\n",
      "    Message('note_on', channel=9, note=42, velocity=100, time=60),\n",
      "    Message('note_on', channel=9, note=36, velocity=100, time=0),\n",
      "    Message('note_on', channel=9, note=35, velocity=100, time=0),\n",
      "    Message('note_off', channel=9, note=35, velocity=64, time=60),\n",
      "    Message('note_off', channel=9, note=36, velocity=64, time=0),\n",
      "    Message('note_off', channel=9, note=42, velocity=64, time=0),\n",
      "    Message('note_on', channel=9, note=42, velocity=100, time=60),\n",
      "    Message('note_off', channel=9, note=42, velocity=64, time=60),\n",
      "    Message('note_on', channel=9, note=42, velocity=100, time=60),\n",
      "    Message('note_off', channel=9, note=42, velocity=64, time=60),\n",
      "    Message('note_on', channel=9, note=42, velocity=100, time=60),\n",
      "    Message('note_on', channel=9, note=36, velocity=100, time=0),\n",
      "    Message('note_on', channel=9, note=35, velocity=100, time=0),\n",
      "    Message('note_off', channel=9, note=35, velocity=64, time=60),\n",
      "    Message('note_off', channel=9, note=36, velocity=64, time=0),\n",
      "    Message('note_off', channel=9, note=42, velocity=64, time=0),\n",
      "    Message('note_on', channel=9, note=42, velocity=100, time=60),\n",
      "    Message('note_off', channel=9, note=42, velocity=64, time=60),\n",
      "    Message('note_on', channel=9, note=42, velocity=100, time=60),\n",
      "    Message('note_on', channel=9, note=40, velocity=100, time=0),\n",
      "    Message('note_on', channel=9, note=38, velocity=100, time=0),\n",
      "    Message('note_off', channel=9, note=38, velocity=64, time=60),\n",
      "    Message('note_off', channel=9, note=40, velocity=64, time=0),\n",
      "    Message('note_off', channel=9, note=42, velocity=64, time=0),\n",
      "    Message('note_on', channel=9, note=42, velocity=100, time=60),\n",
      "    Message('note_off', channel=9, note=42, velocity=64, time=60),\n",
      "    Message('note_on', channel=9, note=42, velocity=100, time=60),\n",
      "    Message('note_off', channel=9, note=42, velocity=64, time=60),\n",
      "    Message('note_on', channel=9, note=42, velocity=100, time=60),\n",
      "    Message('note_off', channel=9, note=42, velocity=64, time=60),\n",
      "    Message('note_on', channel=9, note=42, velocity=100, time=60),\n",
      "    Message('note_on', channel=9, note=35, velocity=100, time=0),\n",
      "    Message('note_on', channel=9, note=36, velocity=100, time=0),\n",
      "    Message('note_off', channel=9, note=36, velocity=64, time=60),\n",
      "    Message('note_off', channel=9, note=35, velocity=64, time=0),\n",
      "    Message('note_off', channel=9, note=42, velocity=64, time=0),\n",
      "    Message('note_on', channel=9, note=42, velocity=100, time=60),\n",
      "    Message('note_off', channel=9, note=42, velocity=64, time=60),\n",
      "    Message('note_on', channel=9, note=42, velocity=100, time=60),\n",
      "    Message('note_on', channel=9, note=36, velocity=100, time=0),\n",
      "    Message('note_on', channel=9, note=35, velocity=100, time=0),\n",
      "    Message('note_off', channel=9, note=35, velocity=64, time=60),\n",
      "    Message('note_off', channel=9, note=36, velocity=64, time=0),\n",
      "    Message('note_off', channel=9, note=42, velocity=64, time=0),\n",
      "    Message('note_on', channel=9, note=42, velocity=100, time=60),\n",
      "    Message('note_off', channel=9, note=42, velocity=64, time=60),\n",
      "    Message('note_on', channel=9, note=42, velocity=100, time=60),\n",
      "    Message('note_on', channel=9, note=38, velocity=100, time=0),\n",
      "    Message('note_on', channel=9, note=40, velocity=100, time=0),\n",
      "    Message('note_off', channel=9, note=40, velocity=64, time=60),\n",
      "    Message('note_off', channel=9, note=38, velocity=64, time=0),\n",
      "    Message('note_off', channel=9, note=42, velocity=64, time=0),\n",
      "    Message('note_on', channel=9, note=42, velocity=100, time=60),\n",
      "    Message('note_off', channel=9, note=42, velocity=64, time=60),\n",
      "    Message('note_on', channel=9, note=42, velocity=100, time=60),\n",
      "    Message('note_off', channel=9, note=42, velocity=64, time=60),\n",
      "    Message('note_on', channel=9, note=42, velocity=100, time=60),\n",
      "    Message('note_on', channel=9, note=36, velocity=100, time=0),\n",
      "    Message('note_on', channel=9, note=35, velocity=100, time=0),\n",
      "    Message('note_off', channel=9, note=35, velocity=64, time=60),\n",
      "    Message('note_off', channel=9, note=36, velocity=64, time=0),\n",
      "    Message('note_off', channel=9, note=42, velocity=64, time=0),\n",
      "    Message('note_on', channel=9, note=42, velocity=100, time=60),\n",
      "    Message('note_off', channel=9, note=42, velocity=64, time=60),\n",
      "    Message('note_on', channel=9, note=42, velocity=100, time=60),\n",
      "    Message('note_off', channel=9, note=42, velocity=64, time=60),\n",
      "    Message('note_on', channel=9, note=42, velocity=100, time=60),\n",
      "    Message('note_on', channel=9, note=36, velocity=100, time=0),\n",
      "    Message('note_on', channel=9, note=35, velocity=100, time=0),\n",
      "    Message('note_off', channel=9, note=35, velocity=64, time=60),\n",
      "    Message('note_off', channel=9, note=36, velocity=64, time=0),\n",
      "    Message('note_off', channel=9, note=42, velocity=64, time=0),\n",
      "    Message('note_on', channel=9, note=42, velocity=100, time=60),\n",
      "    Message('note_off', channel=9, note=42, velocity=64, time=60),\n",
      "    Message('note_on', channel=9, note=42, velocity=100, time=60),\n",
      "    Message('note_on', channel=9, note=40, velocity=100, time=0),\n",
      "    Message('note_on', channel=9, note=38, velocity=100, time=0),\n",
      "    Message('note_off', channel=9, note=38, velocity=64, time=60),\n",
      "    Message('note_off', channel=9, note=40, velocity=64, time=0),\n",
      "    Message('note_off', channel=9, note=42, velocity=64, time=0),\n",
      "    Message('note_on', channel=9, note=42, velocity=100, time=60),\n",
      "    Message('note_off', channel=9, note=42, velocity=64, time=60),\n",
      "    Message('note_on', channel=9, note=42, velocity=100, time=60),\n",
      "    Message('note_off', channel=9, note=42, velocity=64, time=60),\n",
      "    Message('note_on', channel=9, note=42, velocity=100, time=60),\n",
      "    Message('note_off', channel=9, note=42, velocity=64, time=60),\n",
      "    Message('note_on', channel=9, note=42, velocity=100, time=60),\n",
      "    Message('note_on', channel=9, note=35, velocity=100, time=0),\n",
      "    Message('note_on', channel=9, note=36, velocity=100, time=0),\n",
      "    Message('note_off', channel=9, note=36, velocity=64, time=60),\n",
      "    Message('note_off', channel=9, note=35, velocity=64, time=0),\n",
      "    Message('note_off', channel=9, note=42, velocity=64, time=0),\n",
      "    Message('note_on', channel=9, note=42, velocity=100, time=60),\n",
      "    Message('note_off', channel=9, note=42, velocity=64, time=60),\n",
      "    Message('note_on', channel=9, note=42, velocity=100, time=60),\n",
      "    Message('note_on', channel=9, note=36, velocity=100, time=0),\n",
      "    Message('note_on', channel=9, note=35, velocity=100, time=0),\n",
      "    Message('note_off', channel=9, note=35, velocity=64, time=60),\n",
      "    Message('note_off', channel=9, note=36, velocity=64, time=0),\n",
      "    Message('note_off', channel=9, note=42, velocity=64, time=0),\n",
      "    Message('note_on', channel=9, note=42, velocity=100, time=60),\n",
      "    Message('note_off', channel=9, note=42, velocity=64, time=60),\n",
      "    Message('note_on', channel=9, note=42, velocity=100, time=60),\n",
      "    Message('note_on', channel=9, note=38, velocity=100, time=0),\n",
      "    Message('note_on', channel=9, note=40, velocity=100, time=0),\n",
      "    Message('note_off', channel=9, note=40, velocity=64, time=60),\n",
      "    Message('note_off', channel=9, note=38, velocity=64, time=0),\n",
      "    Message('note_off', channel=9, note=42, velocity=64, time=0),\n",
      "    Message('note_on', channel=9, note=42, velocity=100, time=60),\n",
      "    Message('note_off', channel=9, note=42, velocity=64, time=60),\n",
      "    Message('note_on', channel=9, note=42, velocity=100, time=60),\n",
      "    Message('note_off', channel=9, note=42, velocity=64, time=60),\n",
      "    Message('note_on', channel=9, note=42, velocity=100, time=60),\n",
      "    Message('note_on', channel=9, note=36, velocity=100, time=0),\n",
      "    Message('note_on', channel=9, note=35, velocity=100, time=0),\n",
      "    Message('note_off', channel=9, note=35, velocity=64, time=60),\n",
      "    Message('note_off', channel=9, note=36, velocity=64, time=0),\n",
      "    Message('note_off', channel=9, note=42, velocity=64, time=0),\n",
      "    Message('note_on', channel=9, note=42, velocity=100, time=60),\n",
      "    Message('note_off', channel=9, note=42, velocity=64, time=60),\n",
      "    Message('note_on', channel=9, note=42, velocity=100, time=60),\n",
      "    Message('note_off', channel=9, note=42, velocity=64, time=60),\n",
      "    Message('note_on', channel=9, note=42, velocity=100, time=60),\n",
      "    Message('note_on', channel=9, note=36, velocity=100, time=0),\n",
      "    Message('note_on', channel=9, note=35, velocity=100, time=0),\n",
      "    Message('note_off', channel=9, note=35, velocity=64, time=60),\n",
      "    Message('note_off', channel=9, note=36, velocity=64, time=0),\n",
      "    Message('note_off', channel=9, note=42, velocity=64, time=0),\n",
      "    Message('note_on', channel=9, note=42, velocity=100, time=60),\n",
      "    Message('note_off', channel=9, note=42, velocity=64, time=60),\n",
      "    Message('note_on', channel=9, note=42, velocity=100, time=60),\n",
      "    Message('note_on', channel=9, note=40, velocity=100, time=0),\n",
      "    Message('note_on', channel=9, note=38, velocity=100, time=0),\n",
      "    Message('note_off', channel=9, note=38, velocity=64, time=60),\n",
      "    Message('note_off', channel=9, note=40, velocity=64, time=0),\n",
      "    Message('note_off', channel=9, note=42, velocity=64, time=0),\n",
      "    Message('note_on', channel=9, note=42, velocity=100, time=60),\n",
      "    Message('note_off', channel=9, note=42, velocity=64, time=60),\n",
      "    Message('note_on', channel=9, note=42, velocity=100, time=60),\n",
      "    Message('note_off', channel=9, note=42, velocity=64, time=60),\n",
      "    Message('note_on', channel=9, note=42, velocity=100, time=60),\n",
      "    Message('note_off', channel=9, note=42, velocity=64, time=60),\n",
      "    Message('note_on', channel=9, note=42, velocity=100, time=60),\n",
      "    Message('note_on', channel=9, note=35, velocity=100, time=0),\n",
      "    Message('note_on', channel=9, note=36, velocity=100, time=0),\n",
      "    Message('note_off', channel=9, note=36, velocity=64, time=60),\n",
      "    Message('note_off', channel=9, note=35, velocity=64, time=0),\n",
      "    Message('note_off', channel=9, note=42, velocity=64, time=0),\n",
      "    Message('note_on', channel=9, note=42, velocity=100, time=60),\n",
      "    Message('note_off', channel=9, note=42, velocity=64, time=60),\n",
      "    Message('note_on', channel=9, note=42, velocity=100, time=60),\n",
      "    Message('note_on', channel=9, note=36, velocity=100, time=0),\n",
      "    Message('note_on', channel=9, note=35, velocity=100, time=0),\n",
      "    Message('note_off', channel=9, note=35, velocity=64, time=60),\n",
      "    Message('note_off', channel=9, note=36, velocity=64, time=0),\n",
      "    Message('note_off', channel=9, note=42, velocity=64, time=0),\n",
      "    Message('note_on', channel=9, note=42, velocity=100, time=60),\n",
      "    Message('note_off', channel=9, note=42, velocity=64, time=60),\n",
      "    Message('note_on', channel=9, note=42, velocity=100, time=60),\n",
      "    Message('note_on', channel=9, note=38, velocity=100, time=0),\n",
      "    Message('note_on', channel=9, note=40, velocity=100, time=0),\n",
      "    Message('note_off', channel=9, note=40, velocity=64, time=60),\n",
      "    Message('note_off', channel=9, note=38, velocity=64, time=0),\n",
      "    Message('note_off', channel=9, note=42, velocity=64, time=0),\n",
      "    Message('note_on', channel=9, note=42, velocity=100, time=60),\n",
      "    Message('note_off', channel=9, note=42, velocity=64, time=60),\n",
      "    Message('note_on', channel=9, note=42, velocity=100, time=60),\n",
      "    Message('note_off', channel=9, note=42, velocity=64, time=60),\n",
      "    Message('note_on', channel=9, note=42, velocity=100, time=60),\n",
      "    Message('note_on', channel=9, note=36, velocity=100, time=0),\n",
      "    Message('note_on', channel=9, note=35, velocity=100, time=0),\n",
      "    Message('note_off', channel=9, note=35, velocity=64, time=60),\n",
      "    Message('note_off', channel=9, note=36, velocity=64, time=0),\n",
      "    Message('note_off', channel=9, note=42, velocity=64, time=0),\n",
      "    Message('note_on', channel=9, note=42, velocity=100, time=60),\n",
      "    Message('note_off', channel=9, note=42, velocity=64, time=60),\n",
      "    Message('note_on', channel=9, note=42, velocity=100, time=60),\n",
      "    Message('note_off', channel=9, note=42, velocity=64, time=60),\n",
      "    Message('note_on', channel=9, note=42, velocity=100, time=60),\n",
      "    Message('note_on', channel=9, note=36, velocity=100, time=0),\n",
      "    Message('note_on', channel=9, note=35, velocity=100, time=0),\n",
      "    Message('note_off', channel=9, note=35, velocity=64, time=60),\n",
      "    Message('note_off', channel=9, note=36, velocity=64, time=0),\n",
      "    Message('note_off', channel=9, note=42, velocity=64, time=0),\n",
      "    Message('note_on', channel=9, note=42, velocity=100, time=60),\n",
      "    Message('note_off', channel=9, note=42, velocity=64, time=60),\n",
      "    Message('note_on', channel=9, note=42, velocity=100, time=60),\n",
      "    Message('note_on', channel=9, note=40, velocity=100, time=0),\n",
      "    Message('note_on', channel=9, note=38, velocity=100, time=0),\n",
      "    Message('note_off', channel=9, note=38, velocity=64, time=60),\n",
      "    Message('note_off', channel=9, note=40, velocity=64, time=0),\n",
      "    Message('note_off', channel=9, note=42, velocity=64, time=0),\n",
      "    Message('note_on', channel=9, note=42, velocity=100, time=60),\n",
      "    Message('note_off', channel=9, note=42, velocity=64, time=60),\n",
      "    Message('note_on', channel=9, note=42, velocity=100, time=60),\n",
      "    Message('note_off', channel=9, note=42, velocity=64, time=60),\n",
      "    Message('note_on', channel=9, note=42, velocity=100, time=60),\n",
      "    Message('note_off', channel=9, note=42, velocity=64, time=60),\n",
      "    Message('note_on', channel=9, note=42, velocity=100, time=60),\n",
      "    Message('note_on', channel=9, note=35, velocity=100, time=0),\n",
      "    Message('note_on', channel=9, note=36, velocity=100, time=0),\n",
      "    Message('note_off', channel=9, note=36, velocity=64, time=60),\n",
      "    Message('note_off', channel=9, note=35, velocity=64, time=0),\n",
      "    Message('note_off', channel=9, note=42, velocity=64, time=0),\n",
      "    Message('note_on', channel=9, note=42, velocity=100, time=60),\n",
      "    Message('note_off', channel=9, note=42, velocity=64, time=60),\n",
      "    Message('note_on', channel=9, note=42, velocity=100, time=60),\n",
      "    Message('note_on', channel=9, note=36, velocity=100, time=0),\n",
      "    Message('note_on', channel=9, note=35, velocity=100, time=0),\n",
      "    Message('note_off', channel=9, note=35, velocity=64, time=60),\n",
      "    Message('note_off', channel=9, note=36, velocity=64, time=0),\n",
      "    Message('note_off', channel=9, note=42, velocity=64, time=0),\n",
      "    Message('note_on', channel=9, note=42, velocity=100, time=60),\n",
      "    Message('note_off', channel=9, note=42, velocity=64, time=60),\n",
      "    Message('note_on', channel=9, note=42, velocity=100, time=60),\n",
      "    Message('note_on', channel=9, note=38, velocity=100, time=0),\n",
      "    Message('note_on', channel=9, note=40, velocity=100, time=0),\n",
      "    Message('note_off', channel=9, note=40, velocity=64, time=60),\n",
      "    Message('note_off', channel=9, note=38, velocity=64, time=0),\n",
      "    Message('note_off', channel=9, note=42, velocity=64, time=0),\n",
      "    Message('note_on', channel=9, note=42, velocity=100, time=60),\n",
      "    Message('note_off', channel=9, note=42, velocity=64, time=60),\n",
      "    Message('note_on', channel=9, note=42, velocity=100, time=60),\n",
      "    Message('note_off', channel=9, note=42, velocity=64, time=60),\n",
      "    Message('note_on', channel=9, note=42, velocity=100, time=60),\n",
      "    Message('note_on', channel=9, note=36, velocity=100, time=0),\n",
      "    Message('note_on', channel=9, note=35, velocity=100, time=0),\n",
      "    Message('note_off', channel=9, note=35, velocity=64, time=60),\n",
      "    Message('note_off', channel=9, note=36, velocity=64, time=0),\n",
      "    Message('note_off', channel=9, note=42, velocity=64, time=0),\n",
      "    Message('note_on', channel=9, note=42, velocity=100, time=60),\n",
      "    Message('note_off', channel=9, note=42, velocity=64, time=60),\n",
      "    Message('note_on', channel=9, note=42, velocity=100, time=60),\n",
      "    Message('note_off', channel=9, note=42, velocity=64, time=60),\n",
      "    Message('note_on', channel=9, note=42, velocity=100, time=60),\n",
      "    Message('note_on', channel=9, note=36, velocity=100, time=0),\n",
      "    Message('note_on', channel=9, note=35, velocity=100, time=0),\n",
      "    Message('note_off', channel=9, note=35, velocity=64, time=60),\n",
      "    Message('note_off', channel=9, note=36, velocity=64, time=0),\n",
      "    Message('note_off', channel=9, note=42, velocity=64, time=0),\n",
      "    Message('note_on', channel=9, note=42, velocity=100, time=60),\n",
      "    Message('note_off', channel=9, note=42, velocity=64, time=60),\n",
      "    Message('note_on', channel=9, note=42, velocity=100, time=60),\n",
      "    Message('note_on', channel=9, note=40, velocity=100, time=0),\n",
      "    Message('note_on', channel=9, note=38, velocity=100, time=0),\n",
      "    Message('note_off', channel=9, note=38, velocity=64, time=60),\n",
      "    Message('note_off', channel=9, note=40, velocity=64, time=0),\n",
      "    Message('note_off', channel=9, note=42, velocity=64, time=0),\n",
      "    Message('note_on', channel=9, note=42, velocity=100, time=60),\n",
      "    Message('note_off', channel=9, note=42, velocity=64, time=60),\n",
      "    Message('note_on', channel=9, note=42, velocity=100, time=60),\n",
      "    Message('note_off', channel=9, note=42, velocity=64, time=60),\n",
      "    Message('note_on', channel=9, note=42, velocity=100, time=60),\n",
      "    Message('note_off', channel=9, note=42, velocity=64, time=60),\n",
      "    Message('note_on', channel=9, note=42, velocity=100, time=60),\n",
      "    Message('note_on', channel=9, note=35, velocity=100, time=0),\n",
      "    Message('note_on', channel=9, note=36, velocity=100, time=0),\n",
      "    Message('note_off', channel=9, note=36, velocity=64, time=60),\n",
      "    Message('note_off', channel=9, note=35, velocity=64, time=0),\n",
      "    Message('note_off', channel=9, note=42, velocity=64, time=0),\n",
      "    Message('note_on', channel=9, note=42, velocity=100, time=60),\n",
      "    Message('note_off', channel=9, note=42, velocity=64, time=60),\n",
      "    Message('note_on', channel=9, note=42, velocity=100, time=60),\n",
      "    Message('note_on', channel=9, note=36, velocity=100, time=0),\n",
      "    Message('note_on', channel=9, note=35, velocity=100, time=0),\n",
      "    Message('note_off', channel=9, note=35, velocity=64, time=60),\n",
      "    Message('note_off', channel=9, note=36, velocity=64, time=0),\n",
      "    Message('note_off', channel=9, note=42, velocity=64, time=0),\n",
      "    Message('note_on', channel=9, note=42, velocity=100, time=60),\n",
      "    Message('note_off', channel=9, note=42, velocity=64, time=60),\n",
      "    Message('note_on', channel=9, note=42, velocity=100, time=60),\n",
      "    Message('note_on', channel=9, note=38, velocity=100, time=0),\n",
      "    Message('note_on', channel=9, note=40, velocity=100, time=0),\n",
      "    Message('note_off', channel=9, note=40, velocity=64, time=60),\n",
      "    Message('note_off', channel=9, note=38, velocity=64, time=0),\n",
      "    Message('note_off', channel=9, note=42, velocity=64, time=0),\n",
      "    Message('note_on', channel=9, note=42, velocity=100, time=60),\n",
      "    Message('note_off', channel=9, note=42, velocity=64, time=60),\n",
      "    Message('note_on', channel=9, note=42, velocity=100, time=60),\n",
      "    Message('note_off', channel=9, note=42, velocity=64, time=60),\n",
      "    Message('note_on', channel=9, note=42, velocity=100, time=60),\n",
      "    Message('note_on', channel=9, note=36, velocity=100, time=0),\n",
      "    Message('note_on', channel=9, note=35, velocity=100, time=0),\n",
      "    Message('note_off', channel=9, note=35, velocity=64, time=60),\n",
      "    Message('note_off', channel=9, note=36, velocity=64, time=0),\n",
      "    Message('note_off', channel=9, note=42, velocity=64, time=0),\n",
      "    Message('note_on', channel=9, note=42, velocity=100, time=60),\n",
      "    Message('note_off', channel=9, note=42, velocity=64, time=60),\n",
      "    Message('note_on', channel=9, note=42, velocity=100, time=60),\n",
      "    Message('note_off', channel=9, note=42, velocity=64, time=60),\n",
      "    Message('note_on', channel=9, note=42, velocity=100, time=60),\n",
      "    Message('note_on', channel=9, note=36, velocity=100, time=0),\n",
      "    Message('note_on', channel=9, note=35, velocity=100, time=0),\n",
      "    Message('note_off', channel=9, note=35, velocity=64, time=60),\n",
      "    Message('note_off', channel=9, note=36, velocity=64, time=0),\n",
      "    Message('note_off', channel=9, note=42, velocity=64, time=0),\n",
      "    Message('note_on', channel=9, note=42, velocity=100, time=60),\n",
      "    Message('note_off', channel=9, note=42, velocity=64, time=60),\n",
      "    Message('note_on', channel=9, note=42, velocity=100, time=60),\n",
      "    Message('note_on', channel=9, note=40, velocity=100, time=0),\n",
      "    Message('note_on', channel=9, note=38, velocity=100, time=0),\n",
      "    Message('note_off', channel=9, note=38, velocity=64, time=60),\n",
      "    Message('note_off', channel=9, note=40, velocity=64, time=0),\n",
      "    Message('note_off', channel=9, note=42, velocity=64, time=0),\n",
      "    Message('note_on', channel=9, note=42, velocity=100, time=60),\n",
      "    Message('note_off', channel=9, note=42, velocity=64, time=60),\n",
      "    Message('note_on', channel=9, note=42, velocity=100, time=60),\n",
      "    Message('note_off', channel=9, note=42, velocity=64, time=60),\n",
      "    Message('note_on', channel=9, note=42, velocity=100, time=60),\n",
      "    Message('note_off', channel=9, note=42, velocity=64, time=60),\n",
      "    Message('note_on', channel=9, note=35, velocity=100, time=60),\n",
      "    Message('note_on', channel=9, note=36, velocity=100, time=0),\n",
      "    Message('note_off', channel=9, note=36, velocity=64, time=60),\n",
      "    Message('note_off', channel=9, note=35, velocity=64, time=0),\n",
      "    Message('note_on', channel=9, note=35, velocity=100, time=180),\n",
      "    Message('note_on', channel=9, note=36, velocity=100, time=0),\n",
      "    Message('note_off', channel=9, note=36, velocity=64, time=60),\n",
      "    Message('note_off', channel=9, note=35, velocity=64, time=0),\n",
      "    Message('note_on', channel=9, note=39, velocity=100, time=180),\n",
      "    Message('note_off', channel=9, note=39, velocity=64, time=60),\n",
      "    Message('note_on', channel=9, note=35, velocity=100, time=300),\n",
      "    Message('note_on', channel=9, note=36, velocity=100, time=0),\n",
      "    Message('note_off', channel=9, note=36, velocity=64, time=60),\n",
      "    Message('note_off', channel=9, note=35, velocity=64, time=0),\n",
      "    Message('note_on', channel=9, note=35, velocity=100, time=300),\n",
      "    Message('note_on', channel=9, note=36, velocity=100, time=0),\n",
      "    Message('note_off', channel=9, note=36, velocity=64, time=60),\n",
      "    Message('note_off', channel=9, note=35, velocity=64, time=0),\n",
      "    Message('note_on', channel=9, note=38, velocity=100, time=180),\n",
      "    Message('note_on', channel=9, note=40, velocity=100, time=0),\n",
      "    Message('note_off', channel=9, note=40, velocity=64, time=60),\n",
      "    Message('note_off', channel=9, note=38, velocity=64, time=0),\n",
      "    Message('note_on', channel=9, note=35, velocity=100, time=180),\n",
      "    Message('note_on', channel=9, note=36, velocity=100, time=0),\n",
      "    Message('note_off', channel=9, note=36, velocity=64, time=60),\n",
      "    Message('note_off', channel=9, note=35, velocity=64, time=0),\n",
      "    Message('note_on', channel=9, note=42, velocity=100, time=180),\n",
      "    Message('note_on', channel=9, note=35, velocity=100, time=0),\n",
      "    Message('note_on', channel=9, note=36, velocity=100, time=0),\n",
      "    Message('note_off', channel=9, note=36, velocity=64, time=60),\n",
      "    Message('note_off', channel=9, note=35, velocity=64, time=0),\n",
      "    Message('note_off', channel=9, note=42, velocity=64, time=0),\n",
      "    Message('note_on', channel=9, note=42, velocity=100, time=60),\n",
      "    Message('note_off', channel=9, note=42, velocity=64, time=60),\n",
      "    Message('note_on', channel=9, note=42, velocity=100, time=60),\n",
      "    Message('note_on', channel=9, note=36, velocity=100, time=0),\n",
      "    Message('note_on', channel=9, note=35, velocity=100, time=0),\n",
      "    Message('note_off', channel=9, note=35, velocity=64, time=60),\n",
      "    Message('note_off', channel=9, note=36, velocity=64, time=0),\n",
      "    Message('note_off', channel=9, note=42, velocity=64, time=0),\n",
      "    Message('note_on', channel=9, note=42, velocity=100, time=60),\n",
      "    Message('note_off', channel=9, note=42, velocity=64, time=60),\n",
      "    Message('note_on', channel=9, note=42, velocity=100, time=60),\n",
      "    Message('note_on', channel=9, note=38, velocity=100, time=0),\n",
      "    Message('note_on', channel=9, note=40, velocity=100, time=0),\n",
      "    Message('note_off', channel=9, note=40, velocity=64, time=60),\n",
      "    Message('note_off', channel=9, note=38, velocity=64, time=0),\n",
      "    Message('note_off', channel=9, note=42, velocity=64, time=0),\n",
      "    Message('note_on', channel=9, note=42, velocity=100, time=60),\n",
      "    Message('note_off', channel=9, note=42, velocity=64, time=60),\n",
      "    Message('note_on', channel=9, note=42, velocity=100, time=60),\n",
      "    Message('note_off', channel=9, note=42, velocity=64, time=60),\n",
      "    Message('note_on', channel=9, note=42, velocity=100, time=60),\n",
      "    Message('note_on', channel=9, note=36, velocity=100, time=0),\n",
      "    Message('note_on', channel=9, note=35, velocity=100, time=0),\n",
      "    Message('note_off', channel=9, note=35, velocity=64, time=60),\n",
      "    Message('note_off', channel=9, note=36, velocity=64, time=0),\n",
      "    Message('note_off', channel=9, note=42, velocity=64, time=0),\n",
      "    Message('note_on', channel=9, note=42, velocity=100, time=60),\n",
      "    Message('note_off', channel=9, note=42, velocity=64, time=60),\n",
      "    Message('note_on', channel=9, note=42, velocity=100, time=60),\n",
      "    Message('note_off', channel=9, note=42, velocity=64, time=60),\n",
      "    Message('note_on', channel=9, note=42, velocity=100, time=60),\n",
      "    Message('note_on', channel=9, note=36, velocity=100, time=0),\n",
      "    Message('note_on', channel=9, note=35, velocity=100, time=0),\n",
      "    Message('note_off', channel=9, note=35, velocity=64, time=60),\n",
      "    Message('note_off', channel=9, note=36, velocity=64, time=0),\n",
      "    Message('note_off', channel=9, note=42, velocity=64, time=0),\n",
      "    Message('note_on', channel=9, note=42, velocity=100, time=60),\n",
      "    Message('note_off', channel=9, note=42, velocity=64, time=60),\n",
      "    Message('note_on', channel=9, note=42, velocity=100, time=60),\n",
      "    Message('note_on', channel=9, note=40, velocity=100, time=0),\n",
      "    Message('note_on', channel=9, note=38, velocity=100, time=0),\n",
      "    Message('note_off', channel=9, note=38, velocity=64, time=60),\n",
      "    Message('note_off', channel=9, note=40, velocity=64, time=0),\n",
      "    Message('note_off', channel=9, note=42, velocity=64, time=0),\n",
      "    Message('note_on', channel=9, note=42, velocity=100, time=60),\n",
      "    Message('note_off', channel=9, note=42, velocity=64, time=60),\n",
      "    Message('note_on', channel=9, note=42, velocity=100, time=60),\n",
      "    Message('note_off', channel=9, note=42, velocity=64, time=60),\n",
      "    Message('note_on', channel=9, note=42, velocity=100, time=60),\n",
      "    Message('note_off', channel=9, note=42, velocity=64, time=60),\n",
      "    Message('note_on', channel=9, note=42, velocity=100, time=60),\n",
      "    Message('note_on', channel=9, note=35, velocity=100, time=0),\n",
      "    Message('note_on', channel=9, note=36, velocity=100, time=0),\n",
      "    Message('note_off', channel=9, note=36, velocity=64, time=60),\n",
      "    Message('note_off', channel=9, note=35, velocity=64, time=0),\n",
      "    Message('note_off', channel=9, note=42, velocity=64, time=0),\n",
      "    Message('note_on', channel=9, note=42, velocity=100, time=60),\n",
      "    Message('note_off', channel=9, note=42, velocity=64, time=60),\n",
      "    Message('note_on', channel=9, note=42, velocity=100, time=60),\n",
      "    Message('note_on', channel=9, note=36, velocity=100, time=0),\n",
      "    Message('note_on', channel=9, note=35, velocity=100, time=0),\n",
      "    Message('note_off', channel=9, note=35, velocity=64, time=60),\n",
      "    Message('note_off', channel=9, note=36, velocity=64, time=0),\n",
      "    Message('note_off', channel=9, note=42, velocity=64, time=0),\n",
      "    Message('note_on', channel=9, note=42, velocity=100, time=60),\n",
      "    Message('note_off', channel=9, note=42, velocity=64, time=60),\n",
      "    Message('note_on', channel=9, note=42, velocity=100, time=60),\n",
      "    Message('note_on', channel=9, note=38, velocity=100, time=0),\n",
      "    Message('note_on', channel=9, note=40, velocity=100, time=0),\n",
      "    Message('note_off', channel=9, note=40, velocity=64, time=60),\n",
      "    Message('note_off', channel=9, note=38, velocity=64, time=0),\n",
      "    Message('note_off', channel=9, note=42, velocity=64, time=0),\n",
      "    Message('note_on', channel=9, note=42, velocity=100, time=60),\n",
      "    Message('note_off', channel=9, note=42, velocity=64, time=60),\n",
      "    Message('note_on', channel=9, note=42, velocity=100, time=60),\n",
      "    Message('note_off', channel=9, note=42, velocity=64, time=60),\n",
      "    Message('note_on', channel=9, note=42, velocity=100, time=60),\n",
      "    Message('note_on', channel=9, note=36, velocity=100, time=0),\n",
      "    Message('note_on', channel=9, note=35, velocity=100, time=0),\n",
      "    Message('note_off', channel=9, note=35, velocity=64, time=60),\n",
      "    Message('note_off', channel=9, note=36, velocity=64, time=0),\n",
      "    Message('note_off', channel=9, note=42, velocity=64, time=0),\n",
      "    Message('note_on', channel=9, note=42, velocity=100, time=60),\n",
      "    Message('note_off', channel=9, note=42, velocity=64, time=60),\n",
      "    Message('note_on', channel=9, note=42, velocity=100, time=60),\n",
      "    Message('note_off', channel=9, note=42, velocity=64, time=60),\n",
      "    Message('note_on', channel=9, note=42, velocity=100, time=60),\n",
      "    Message('note_on', channel=9, note=36, velocity=100, time=0),\n",
      "    Message('note_on', channel=9, note=35, velocity=100, time=0),\n",
      "    Message('note_off', channel=9, note=35, velocity=64, time=60),\n",
      "    Message('note_off', channel=9, note=36, velocity=64, time=0),\n",
      "    Message('note_off', channel=9, note=42, velocity=64, time=0),\n",
      "    Message('note_on', channel=9, note=42, velocity=100, time=60),\n",
      "    Message('note_off', channel=9, note=42, velocity=64, time=60),\n",
      "    Message('note_on', channel=9, note=42, velocity=100, time=60),\n",
      "    Message('note_on', channel=9, note=40, velocity=100, time=0),\n",
      "    Message('note_on', channel=9, note=38, velocity=100, time=0),\n",
      "    Message('note_off', channel=9, note=38, velocity=64, time=60),\n",
      "    Message('note_off', channel=9, note=40, velocity=64, time=0),\n",
      "    Message('note_off', channel=9, note=42, velocity=64, time=0),\n",
      "    Message('note_on', channel=9, note=42, velocity=100, time=60),\n",
      "    Message('note_off', channel=9, note=42, velocity=64, time=60),\n",
      "    Message('note_on', channel=9, note=42, velocity=100, time=60),\n",
      "    Message('note_off', channel=9, note=42, velocity=64, time=60),\n",
      "    Message('note_on', channel=9, note=42, velocity=100, time=60),\n",
      "    Message('note_off', channel=9, note=42, velocity=64, time=60),\n",
      "    Message('note_on', channel=9, note=42, velocity=100, time=60),\n",
      "    Message('note_on', channel=9, note=35, velocity=100, time=0),\n",
      "    Message('note_on', channel=9, note=36, velocity=100, time=0),\n",
      "    Message('note_off', channel=9, note=36, velocity=64, time=60),\n",
      "    Message('note_off', channel=9, note=35, velocity=64, time=0),\n",
      "    Message('note_off', channel=9, note=42, velocity=64, time=0),\n",
      "    Message('note_on', channel=9, note=42, velocity=100, time=60),\n",
      "    Message('note_off', channel=9, note=42, velocity=64, time=60),\n",
      "    Message('note_on', channel=9, note=42, velocity=100, time=60),\n",
      "    Message('note_on', channel=9, note=36, velocity=100, time=0),\n",
      "    Message('note_on', channel=9, note=35, velocity=100, time=0),\n",
      "    Message('note_off', channel=9, note=35, velocity=64, time=60),\n",
      "    Message('note_off', channel=9, note=36, velocity=64, time=0),\n",
      "    Message('note_off', channel=9, note=42, velocity=64, time=0),\n",
      "    Message('note_on', channel=9, note=42, velocity=100, time=60),\n",
      "    Message('note_off', channel=9, note=42, velocity=64, time=60),\n",
      "    Message('note_on', channel=9, note=42, velocity=100, time=60),\n",
      "    Message('note_on', channel=9, note=38, velocity=100, time=0),\n",
      "    Message('note_on', channel=9, note=40, velocity=100, time=0),\n",
      "    Message('note_off', channel=9, note=40, velocity=64, time=60),\n",
      "    Message('note_off', channel=9, note=38, velocity=64, time=0),\n",
      "    Message('note_off', channel=9, note=42, velocity=64, time=0),\n",
      "    Message('note_on', channel=9, note=42, velocity=100, time=60),\n",
      "    Message('note_off', channel=9, note=42, velocity=64, time=60),\n",
      "    Message('note_on', channel=9, note=42, velocity=100, time=60),\n",
      "    Message('note_off', channel=9, note=42, velocity=64, time=60),\n",
      "    Message('note_on', channel=9, note=42, velocity=100, time=60),\n",
      "    Message('note_on', channel=9, note=36, velocity=100, time=0),\n",
      "    Message('note_on', channel=9, note=35, velocity=100, time=0),\n",
      "    Message('note_off', channel=9, note=35, velocity=64, time=60),\n",
      "    Message('note_off', channel=9, note=36, velocity=64, time=0),\n",
      "    Message('note_off', channel=9, note=42, velocity=64, time=0),\n",
      "    Message('note_on', channel=9, note=42, velocity=100, time=60),\n",
      "    Message('note_off', channel=9, note=42, velocity=64, time=60),\n",
      "    Message('note_on', channel=9, note=42, velocity=100, time=60),\n",
      "    Message('note_off', channel=9, note=42, velocity=64, time=60),\n",
      "    Message('note_on', channel=9, note=42, velocity=100, time=60),\n",
      "    Message('note_on', channel=9, note=36, velocity=100, time=0),\n",
      "    Message('note_on', channel=9, note=35, velocity=100, time=0),\n",
      "    Message('note_off', channel=9, note=35, velocity=64, time=60),\n",
      "    Message('note_off', channel=9, note=36, velocity=64, time=0),\n",
      "    Message('note_off', channel=9, note=42, velocity=64, time=0),\n",
      "    Message('note_on', channel=9, note=42, velocity=100, time=60),\n",
      "    Message('note_off', channel=9, note=42, velocity=64, time=60),\n",
      "    Message('note_on', channel=9, note=42, velocity=100, time=60),\n",
      "    Message('note_on', channel=9, note=40, velocity=100, time=0),\n",
      "    Message('note_on', channel=9, note=38, velocity=100, time=0),\n",
      "    Message('note_off', channel=9, note=38, velocity=64, time=60),\n",
      "    Message('note_off', channel=9, note=40, velocity=64, time=0),\n",
      "    Message('note_off', channel=9, note=42, velocity=64, time=0),\n",
      "    Message('note_on', channel=9, note=42, velocity=100, time=60),\n",
      "    Message('note_off', channel=9, note=42, velocity=64, time=60),\n",
      "    Message('note_on', channel=9, note=42, velocity=100, time=60),\n",
      "    Message('note_off', channel=9, note=42, velocity=64, time=60),\n",
      "    Message('note_on', channel=9, note=42, velocity=100, time=60),\n",
      "    Message('note_off', channel=9, note=42, velocity=64, time=60),\n",
      "    Message('note_on', channel=9, note=42, velocity=100, time=60),\n",
      "    Message('note_on', channel=9, note=35, velocity=100, time=0),\n",
      "    Message('note_on', channel=9, note=36, velocity=100, time=0),\n",
      "    Message('note_off', channel=9, note=36, velocity=64, time=60),\n",
      "    Message('note_off', channel=9, note=35, velocity=64, time=0),\n",
      "    Message('note_off', channel=9, note=42, velocity=64, time=0),\n",
      "    Message('note_on', channel=9, note=42, velocity=100, time=60),\n",
      "    Message('note_off', channel=9, note=42, velocity=64, time=60),\n",
      "    Message('note_on', channel=9, note=42, velocity=100, time=60),\n",
      "    Message('note_on', channel=9, note=36, velocity=100, time=0),\n",
      "    Message('note_on', channel=9, note=35, velocity=100, time=0),\n",
      "    Message('note_off', channel=9, note=35, velocity=64, time=60),\n",
      "    Message('note_off', channel=9, note=36, velocity=64, time=0),\n",
      "    Message('note_off', channel=9, note=42, velocity=64, time=0),\n",
      "    Message('note_on', channel=9, note=42, velocity=100, time=60),\n",
      "    Message('note_off', channel=9, note=42, velocity=64, time=60),\n",
      "    Message('note_on', channel=9, note=42, velocity=100, time=60),\n",
      "    Message('note_on', channel=9, note=38, velocity=100, time=0),\n",
      "    Message('note_on', channel=9, note=40, velocity=100, time=0),\n",
      "    Message('note_off', channel=9, note=40, velocity=64, time=60),\n",
      "    Message('note_off', channel=9, note=38, velocity=64, time=0),\n",
      "    Message('note_off', channel=9, note=42, velocity=64, time=0),\n",
      "    Message('note_on', channel=9, note=42, velocity=100, time=60),\n",
      "    Message('note_off', channel=9, note=42, velocity=64, time=60),\n",
      "    Message('note_on', channel=9, note=42, velocity=100, time=60),\n",
      "    Message('note_off', channel=9, note=42, velocity=64, time=60),\n",
      "    Message('note_on', channel=9, note=42, velocity=100, time=60),\n",
      "    Message('note_on', channel=9, note=36, velocity=100, time=0),\n",
      "    Message('note_on', channel=9, note=35, velocity=100, time=0),\n",
      "    Message('note_off', channel=9, note=35, velocity=64, time=60),\n",
      "    Message('note_off', channel=9, note=36, velocity=64, time=0),\n",
      "    Message('note_off', channel=9, note=42, velocity=64, time=0),\n",
      "    Message('note_on', channel=9, note=42, velocity=100, time=60),\n",
      "    Message('note_off', channel=9, note=42, velocity=64, time=60),\n",
      "    Message('note_on', channel=9, note=42, velocity=100, time=60),\n",
      "    Message('note_off', channel=9, note=42, velocity=64, time=60),\n",
      "    Message('note_on', channel=9, note=42, velocity=100, time=60),\n",
      "    Message('note_on', channel=9, note=36, velocity=100, time=0),\n",
      "    Message('note_on', channel=9, note=35, velocity=100, time=0),\n",
      "    Message('note_off', channel=9, note=35, velocity=64, time=60),\n",
      "    Message('note_off', channel=9, note=36, velocity=64, time=0),\n",
      "    Message('note_off', channel=9, note=42, velocity=64, time=0),\n",
      "    Message('note_on', channel=9, note=42, velocity=100, time=60),\n",
      "    Message('note_off', channel=9, note=42, velocity=64, time=60),\n",
      "    Message('note_on', channel=9, note=42, velocity=100, time=60),\n",
      "    Message('note_on', channel=9, note=40, velocity=100, time=0),\n",
      "    Message('note_on', channel=9, note=38, velocity=100, time=0),\n",
      "    Message('note_off', channel=9, note=38, velocity=64, time=60),\n",
      "    Message('note_off', channel=9, note=40, velocity=64, time=0),\n",
      "    Message('note_off', channel=9, note=42, velocity=64, time=0),\n",
      "    Message('note_on', channel=9, note=42, velocity=100, time=60),\n",
      "    Message('note_off', channel=9, note=42, velocity=64, time=60),\n",
      "    Message('note_on', channel=9, note=42, velocity=100, time=60),\n",
      "    Message('note_off', channel=9, note=42, velocity=64, time=60),\n",
      "    Message('note_on', channel=9, note=42, velocity=100, time=60),\n",
      "    Message('note_off', channel=9, note=42, velocity=64, time=60),\n",
      "    Message('note_on', channel=9, note=42, velocity=100, time=60),\n",
      "    Message('note_on', channel=9, note=35, velocity=100, time=0),\n",
      "    Message('note_on', channel=9, note=36, velocity=100, time=0),\n",
      "    Message('note_off', channel=9, note=36, velocity=64, time=60),\n",
      "    Message('note_off', channel=9, note=35, velocity=64, time=0),\n",
      "    Message('note_off', channel=9, note=42, velocity=64, time=0),\n",
      "    Message('note_on', channel=9, note=42, velocity=100, time=60),\n",
      "    Message('note_off', channel=9, note=42, velocity=64, time=60),\n",
      "    Message('note_on', channel=9, note=42, velocity=100, time=60),\n",
      "    Message('note_on', channel=9, note=36, velocity=100, time=0),\n",
      "    Message('note_on', channel=9, note=35, velocity=100, time=0),\n",
      "    Message('note_off', channel=9, note=35, velocity=64, time=60),\n",
      "    Message('note_off', channel=9, note=36, velocity=64, time=0),\n",
      "    Message('note_off', channel=9, note=42, velocity=64, time=0),\n",
      "    Message('note_on', channel=9, note=42, velocity=100, time=60),\n",
      "    Message('note_off', channel=9, note=42, velocity=64, time=60),\n",
      "    Message('note_on', channel=9, note=42, velocity=100, time=60),\n",
      "    Message('note_on', channel=9, note=38, velocity=100, time=0),\n",
      "    Message('note_on', channel=9, note=40, velocity=100, time=0),\n",
      "    Message('note_off', channel=9, note=40, velocity=64, time=60),\n",
      "    Message('note_off', channel=9, note=38, velocity=64, time=0),\n",
      "    Message('note_off', channel=9, note=42, velocity=64, time=0),\n",
      "    Message('note_on', channel=9, note=42, velocity=100, time=60),\n",
      "    Message('note_off', channel=9, note=42, velocity=64, time=60),\n",
      "    Message('note_on', channel=9, note=42, velocity=100, time=60),\n",
      "    Message('note_off', channel=9, note=42, velocity=64, time=60),\n",
      "    Message('note_on', channel=9, note=42, velocity=100, time=60),\n",
      "    Message('note_on', channel=9, note=36, velocity=100, time=0),\n",
      "    Message('note_on', channel=9, note=35, velocity=100, time=0),\n",
      "    Message('note_off', channel=9, note=35, velocity=64, time=60),\n",
      "    Message('note_off', channel=9, note=36, velocity=64, time=0),\n",
      "    Message('note_off', channel=9, note=42, velocity=64, time=0),\n",
      "    Message('note_on', channel=9, note=42, velocity=100, time=60),\n",
      "    Message('note_off', channel=9, note=42, velocity=64, time=60),\n",
      "    Message('note_on', channel=9, note=42, velocity=100, time=60),\n",
      "    Message('note_off', channel=9, note=42, velocity=64, time=60),\n",
      "    Message('note_on', channel=9, note=42, velocity=100, time=60),\n",
      "    Message('note_on', channel=9, note=36, velocity=100, time=0),\n",
      "    Message('note_on', channel=9, note=35, velocity=100, time=0),\n",
      "    Message('note_off', channel=9, note=35, velocity=64, time=60),\n",
      "    Message('note_off', channel=9, note=36, velocity=64, time=0),\n",
      "    Message('note_off', channel=9, note=42, velocity=64, time=0),\n",
      "    Message('note_on', channel=9, note=42, velocity=100, time=60),\n",
      "    Message('note_off', channel=9, note=42, velocity=64, time=60),\n",
      "    Message('note_on', channel=9, note=42, velocity=100, time=60),\n",
      "    Message('note_on', channel=9, note=40, velocity=100, time=0),\n",
      "    Message('note_on', channel=9, note=38, velocity=100, time=0),\n",
      "    Message('note_off', channel=9, note=38, velocity=64, time=60),\n",
      "    Message('note_off', channel=9, note=40, velocity=64, time=0),\n",
      "    Message('note_off', channel=9, note=42, velocity=64, time=0),\n",
      "    Message('note_on', channel=9, note=42, velocity=100, time=60),\n",
      "    Message('note_off', channel=9, note=42, velocity=64, time=60),\n",
      "    Message('note_on', channel=9, note=42, velocity=100, time=60),\n",
      "    Message('note_off', channel=9, note=42, velocity=64, time=60),\n",
      "    Message('note_on', channel=9, note=42, velocity=100, time=60),\n",
      "    Message('note_off', channel=9, note=42, velocity=64, time=60),\n",
      "    Message('note_on', channel=9, note=42, velocity=100, time=60),\n",
      "    Message('note_on', channel=9, note=35, velocity=100, time=0),\n",
      "    Message('note_on', channel=9, note=36, velocity=100, time=0),\n",
      "    Message('note_off', channel=9, note=36, velocity=64, time=60),\n",
      "    Message('note_off', channel=9, note=35, velocity=64, time=0),\n",
      "    Message('note_off', channel=9, note=42, velocity=64, time=0),\n",
      "    Message('note_on', channel=9, note=42, velocity=100, time=60),\n",
      "    Message('note_off', channel=9, note=42, velocity=64, time=60),\n",
      "    Message('note_on', channel=9, note=42, velocity=100, time=60),\n",
      "    Message('note_on', channel=9, note=36, velocity=100, time=0),\n",
      "    Message('note_on', channel=9, note=35, velocity=100, time=0),\n",
      "    Message('note_off', channel=9, note=35, velocity=64, time=60),\n",
      "    Message('note_off', channel=9, note=36, velocity=64, time=0),\n",
      "    Message('note_off', channel=9, note=42, velocity=64, time=0),\n",
      "    Message('note_on', channel=9, note=42, velocity=100, time=60),\n",
      "    Message('note_off', channel=9, note=42, velocity=64, time=60),\n",
      "    Message('note_on', channel=9, note=42, velocity=100, time=60),\n",
      "    Message('note_on', channel=9, note=38, velocity=100, time=0),\n",
      "    Message('note_on', channel=9, note=40, velocity=100, time=0),\n",
      "    Message('note_off', channel=9, note=40, velocity=64, time=60),\n",
      "    Message('note_off', channel=9, note=38, velocity=64, time=0),\n",
      "    Message('note_off', channel=9, note=42, velocity=64, time=0),\n",
      "    Message('note_on', channel=9, note=42, velocity=100, time=60),\n",
      "    Message('note_off', channel=9, note=42, velocity=64, time=60),\n",
      "    Message('note_on', channel=9, note=42, velocity=100, time=60),\n",
      "    Message('note_off', channel=9, note=42, velocity=64, time=60),\n",
      "    Message('note_on', channel=9, note=42, velocity=100, time=60),\n",
      "    Message('note_on', channel=9, note=36, velocity=100, time=0),\n",
      "    Message('note_on', channel=9, note=35, velocity=100, time=0),\n",
      "    Message('note_off', channel=9, note=35, velocity=64, time=60),\n",
      "    Message('note_off', channel=9, note=36, velocity=64, time=0),\n",
      "    Message('note_off', channel=9, note=42, velocity=64, time=0),\n",
      "    Message('note_on', channel=9, note=42, velocity=100, time=60),\n",
      "    Message('note_off', channel=9, note=42, velocity=64, time=60),\n",
      "    Message('note_on', channel=9, note=42, velocity=100, time=60),\n",
      "    Message('note_off', channel=9, note=42, velocity=64, time=60),\n",
      "    Message('note_on', channel=9, note=42, velocity=100, time=60),\n",
      "    Message('note_on', channel=9, note=36, velocity=100, time=0),\n",
      "    Message('note_on', channel=9, note=35, velocity=100, time=0),\n",
      "    Message('note_off', channel=9, note=35, velocity=64, time=60),\n",
      "    Message('note_off', channel=9, note=36, velocity=64, time=0),\n",
      "    Message('note_off', channel=9, note=42, velocity=64, time=0),\n",
      "    Message('note_on', channel=9, note=42, velocity=100, time=60),\n",
      "    Message('note_off', channel=9, note=42, velocity=64, time=60),\n",
      "    Message('note_on', channel=9, note=42, velocity=100, time=60),\n",
      "    Message('note_on', channel=9, note=40, velocity=100, time=0),\n",
      "    Message('note_on', channel=9, note=38, velocity=100, time=0),\n",
      "    Message('note_off', channel=9, note=38, velocity=64, time=60),\n",
      "    Message('note_off', channel=9, note=40, velocity=64, time=0),\n",
      "    Message('note_off', channel=9, note=42, velocity=64, time=0),\n",
      "    Message('note_on', channel=9, note=42, velocity=100, time=60),\n",
      "    Message('note_off', channel=9, note=42, velocity=64, time=60),\n",
      "    Message('note_on', channel=9, note=42, velocity=100, time=60),\n",
      "    Message('note_off', channel=9, note=42, velocity=64, time=60),\n",
      "    Message('note_on', channel=9, note=42, velocity=100, time=60),\n",
      "    Message('note_off', channel=9, note=42, velocity=64, time=60),\n",
      "    Message('note_on', channel=9, note=42, velocity=100, time=60),\n",
      "    Message('note_on', channel=9, note=35, velocity=100, time=0),\n",
      "    Message('note_on', channel=9, note=36, velocity=100, time=0),\n",
      "    Message('note_off', channel=9, note=36, velocity=64, time=60),\n",
      "    Message('note_off', channel=9, note=35, velocity=64, time=0),\n",
      "    Message('note_off', channel=9, note=42, velocity=64, time=0),\n",
      "    Message('note_on', channel=9, note=42, velocity=100, time=60),\n",
      "    Message('note_off', channel=9, note=42, velocity=64, time=60),\n",
      "    Message('note_on', channel=9, note=42, velocity=100, time=60),\n",
      "    Message('note_on', channel=9, note=36, velocity=100, time=0),\n",
      "    Message('note_on', channel=9, note=35, velocity=100, time=0),\n",
      "    Message('note_off', channel=9, note=35, velocity=64, time=60),\n",
      "    Message('note_off', channel=9, note=36, velocity=64, time=0),\n",
      "    Message('note_off', channel=9, note=42, velocity=64, time=0),\n",
      "    Message('note_on', channel=9, note=42, velocity=100, time=60),\n",
      "    Message('note_off', channel=9, note=42, velocity=64, time=60),\n",
      "    Message('note_on', channel=9, note=42, velocity=100, time=60),\n",
      "    Message('note_on', channel=9, note=38, velocity=100, time=0),\n",
      "    Message('note_on', channel=9, note=40, velocity=100, time=0),\n",
      "    Message('note_off', channel=9, note=40, velocity=64, time=60),\n",
      "    Message('note_off', channel=9, note=38, velocity=64, time=0),\n",
      "    Message('note_off', channel=9, note=42, velocity=64, time=0),\n",
      "    Message('note_on', channel=9, note=42, velocity=100, time=60),\n",
      "    Message('note_off', channel=9, note=42, velocity=64, time=60),\n",
      "    Message('note_on', channel=9, note=42, velocity=100, time=60),\n",
      "    Message('note_off', channel=9, note=42, velocity=64, time=60),\n",
      "    Message('note_on', channel=9, note=42, velocity=100, time=60),\n",
      "    Message('note_on', channel=9, note=36, velocity=100, time=0),\n",
      "    Message('note_on', channel=9, note=35, velocity=100, time=0),\n",
      "    Message('note_off', channel=9, note=35, velocity=64, time=60),\n",
      "    Message('note_off', channel=9, note=36, velocity=64, time=0),\n",
      "    Message('note_off', channel=9, note=42, velocity=64, time=0),\n",
      "    Message('note_on', channel=9, note=42, velocity=100, time=60),\n",
      "    Message('note_off', channel=9, note=42, velocity=64, time=60),\n",
      "    Message('note_on', channel=9, note=42, velocity=100, time=60),\n",
      "    Message('note_off', channel=9, note=42, velocity=64, time=60),\n",
      "    Message('note_on', channel=9, note=42, velocity=100, time=60),\n",
      "    Message('note_on', channel=9, note=36, velocity=100, time=0),\n",
      "    Message('note_on', channel=9, note=35, velocity=100, time=0),\n",
      "    Message('note_off', channel=9, note=35, velocity=64, time=60),\n",
      "    Message('note_off', channel=9, note=36, velocity=64, time=0),\n",
      "    Message('note_off', channel=9, note=42, velocity=64, time=0),\n",
      "    Message('note_on', channel=9, note=42, velocity=100, time=60),\n",
      "    Message('note_off', channel=9, note=42, velocity=64, time=60),\n",
      "    Message('note_on', channel=9, note=42, velocity=100, time=60),\n",
      "    Message('note_on', channel=9, note=40, velocity=100, time=0),\n",
      "    Message('note_on', channel=9, note=38, velocity=100, time=0),\n",
      "    Message('note_off', channel=9, note=38, velocity=64, time=60),\n",
      "    Message('note_off', channel=9, note=40, velocity=64, time=0),\n",
      "    Message('note_off', channel=9, note=42, velocity=64, time=0),\n",
      "    Message('note_on', channel=9, note=42, velocity=100, time=60),\n",
      "    Message('note_off', channel=9, note=42, velocity=64, time=60),\n",
      "    Message('note_on', channel=9, note=42, velocity=100, time=60),\n",
      "    Message('note_off', channel=9, note=42, velocity=64, time=60),\n",
      "    Message('note_on', channel=9, note=42, velocity=100, time=60),\n",
      "    Message('note_off', channel=9, note=42, velocity=64, time=60),\n",
      "    Message('note_on', channel=9, note=35, velocity=100, time=60),\n",
      "    Message('note_on', channel=9, note=36, velocity=100, time=0),\n",
      "    Message('note_off', channel=9, note=36, velocity=64, time=60),\n",
      "    Message('note_off', channel=9, note=35, velocity=64, time=0),\n",
      "    Message('note_on', channel=9, note=35, velocity=100, time=180),\n",
      "    Message('note_on', channel=9, note=36, velocity=100, time=0),\n",
      "    Message('note_off', channel=9, note=36, velocity=64, time=60),\n",
      "    Message('note_off', channel=9, note=35, velocity=64, time=0),\n",
      "    Message('note_on', channel=9, note=39, velocity=100, time=180),\n",
      "    Message('note_off', channel=9, note=39, velocity=64, time=60),\n",
      "    Message('note_on', channel=9, note=35, velocity=100, time=300),\n",
      "    Message('note_on', channel=9, note=36, velocity=100, time=0),\n",
      "    Message('note_off', channel=9, note=36, velocity=64, time=60),\n",
      "    Message('note_off', channel=9, note=35, velocity=64, time=0),\n",
      "    Message('note_on', channel=9, note=35, velocity=100, time=300),\n",
      "    Message('note_on', channel=9, note=36, velocity=100, time=0),\n",
      "    Message('note_off', channel=9, note=36, velocity=64, time=60),\n",
      "    Message('note_off', channel=9, note=35, velocity=64, time=0),\n",
      "    Message('note_on', channel=9, note=38, velocity=100, time=180),\n",
      "    Message('note_on', channel=9, note=40, velocity=100, time=0),\n",
      "    Message('note_off', channel=9, note=40, velocity=64, time=60),\n",
      "    Message('note_off', channel=9, note=38, velocity=64, time=0),\n",
      "    Message('note_on', channel=9, note=35, velocity=100, time=180),\n",
      "    Message('note_on', channel=9, note=36, velocity=100, time=0),\n",
      "    Message('note_off', channel=9, note=36, velocity=64, time=60),\n",
      "    Message('note_off', channel=9, note=35, velocity=64, time=0),\n",
      "    Message('note_on', channel=9, note=42, velocity=100, time=180),\n",
      "    Message('note_on', channel=9, note=35, velocity=100, time=0),\n",
      "    Message('note_on', channel=9, note=36, velocity=100, time=0),\n",
      "    Message('note_off', channel=9, note=36, velocity=64, time=60),\n",
      "    Message('note_off', channel=9, note=35, velocity=64, time=0),\n",
      "    Message('note_off', channel=9, note=42, velocity=64, time=0),\n",
      "    Message('note_on', channel=9, note=42, velocity=100, time=60),\n",
      "    Message('note_off', channel=9, note=42, velocity=64, time=60),\n",
      "    Message('note_on', channel=9, note=42, velocity=100, time=60),\n",
      "    Message('note_on', channel=9, note=36, velocity=100, time=0),\n",
      "    Message('note_on', channel=9, note=35, velocity=100, time=0),\n",
      "    Message('note_off', channel=9, note=35, velocity=64, time=60),\n",
      "    Message('note_off', channel=9, note=36, velocity=64, time=0),\n",
      "    Message('note_off', channel=9, note=42, velocity=64, time=0),\n",
      "    Message('note_on', channel=9, note=42, velocity=100, time=60),\n",
      "    Message('note_off', channel=9, note=42, velocity=64, time=60),\n",
      "    Message('note_on', channel=9, note=42, velocity=100, time=60),\n",
      "    Message('note_on', channel=9, note=38, velocity=100, time=0),\n",
      "    Message('note_on', channel=9, note=40, velocity=100, time=0),\n",
      "    Message('note_off', channel=9, note=40, velocity=64, time=60),\n",
      "    Message('note_off', channel=9, note=38, velocity=64, time=0),\n",
      "    Message('note_off', channel=9, note=42, velocity=64, time=0),\n",
      "    Message('note_on', channel=9, note=42, velocity=100, time=60),\n",
      "    Message('note_off', channel=9, note=42, velocity=64, time=60),\n",
      "    Message('note_on', channel=9, note=42, velocity=100, time=60),\n",
      "    Message('note_off', channel=9, note=42, velocity=64, time=60),\n",
      "    Message('note_on', channel=9, note=42, velocity=100, time=60),\n",
      "    Message('note_on', channel=9, note=36, velocity=100, time=0),\n",
      "    Message('note_on', channel=9, note=35, velocity=100, time=0),\n",
      "    Message('note_off', channel=9, note=35, velocity=64, time=60),\n",
      "    Message('note_off', channel=9, note=36, velocity=64, time=0),\n",
      "    Message('note_off', channel=9, note=42, velocity=64, time=0),\n",
      "    Message('note_on', channel=9, note=42, velocity=100, time=60),\n",
      "    Message('note_off', channel=9, note=42, velocity=64, time=60),\n",
      "    Message('note_on', channel=9, note=42, velocity=100, time=60),\n",
      "    Message('note_off', channel=9, note=42, velocity=64, time=60),\n",
      "    Message('note_on', channel=9, note=42, velocity=100, time=60),\n",
      "    Message('note_on', channel=9, note=36, velocity=100, time=0),\n",
      "    Message('note_on', channel=9, note=35, velocity=100, time=0),\n",
      "    Message('note_off', channel=9, note=35, velocity=64, time=60),\n",
      "    Message('note_off', channel=9, note=36, velocity=64, time=0),\n",
      "    Message('note_off', channel=9, note=42, velocity=64, time=0),\n",
      "    Message('note_on', channel=9, note=42, velocity=100, time=60),\n",
      "    Message('note_off', channel=9, note=42, velocity=64, time=60),\n",
      "    Message('note_on', channel=9, note=42, velocity=100, time=60),\n",
      "    Message('note_on', channel=9, note=40, velocity=100, time=0),\n",
      "    Message('note_on', channel=9, note=38, velocity=100, time=0),\n",
      "    Message('note_off', channel=9, note=38, velocity=64, time=60),\n",
      "    Message('note_off', channel=9, note=40, velocity=64, time=0),\n",
      "    Message('note_off', channel=9, note=42, velocity=64, time=0),\n",
      "    Message('note_on', channel=9, note=42, velocity=100, time=60),\n",
      "    Message('note_off', channel=9, note=42, velocity=64, time=60),\n",
      "    Message('note_on', channel=9, note=42, velocity=100, time=60),\n",
      "    Message('note_off', channel=9, note=42, velocity=64, time=60),\n",
      "    Message('note_on', channel=9, note=42, velocity=100, time=60),\n",
      "    Message('note_off', channel=9, note=42, velocity=64, time=60),\n",
      "    Message('note_on', channel=9, note=42, velocity=100, time=60),\n",
      "    Message('note_on', channel=9, note=35, velocity=100, time=0),\n",
      "    Message('note_on', channel=9, note=36, velocity=100, time=0),\n",
      "    Message('note_off', channel=9, note=36, velocity=64, time=60),\n",
      "    Message('note_off', channel=9, note=35, velocity=64, time=0),\n",
      "    Message('note_off', channel=9, note=42, velocity=64, time=0),\n",
      "    Message('note_on', channel=9, note=42, velocity=100, time=60),\n",
      "    Message('note_off', channel=9, note=42, velocity=64, time=60),\n",
      "    Message('note_on', channel=9, note=42, velocity=100, time=60),\n",
      "    Message('note_on', channel=9, note=36, velocity=100, time=0),\n",
      "    Message('note_on', channel=9, note=35, velocity=100, time=0),\n",
      "    Message('note_off', channel=9, note=35, velocity=64, time=60),\n",
      "    Message('note_off', channel=9, note=36, velocity=64, time=0),\n",
      "    Message('note_off', channel=9, note=42, velocity=64, time=0),\n",
      "    Message('note_on', channel=9, note=42, velocity=100, time=60),\n",
      "    Message('note_off', channel=9, note=42, velocity=64, time=60),\n",
      "    Message('note_on', channel=9, note=42, velocity=100, time=60),\n",
      "    Message('note_on', channel=9, note=38, velocity=100, time=0),\n",
      "    Message('note_on', channel=9, note=40, velocity=100, time=0),\n",
      "    Message('note_off', channel=9, note=40, velocity=64, time=60),\n",
      "    Message('note_off', channel=9, note=38, velocity=64, time=0),\n",
      "    Message('note_off', channel=9, note=42, velocity=64, time=0),\n",
      "    Message('note_on', channel=9, note=42, velocity=100, time=60),\n",
      "    Message('note_off', channel=9, note=42, velocity=64, time=60),\n",
      "    Message('note_on', channel=9, note=42, velocity=100, time=60),\n",
      "    Message('note_off', channel=9, note=42, velocity=64, time=60),\n",
      "    Message('note_on', channel=9, note=42, velocity=100, time=60),\n",
      "    Message('note_on', channel=9, note=36, velocity=100, time=0),\n",
      "    Message('note_on', channel=9, note=35, velocity=100, time=0),\n",
      "    Message('note_off', channel=9, note=35, velocity=64, time=60),\n",
      "    Message('note_off', channel=9, note=36, velocity=64, time=0),\n",
      "    Message('note_off', channel=9, note=42, velocity=64, time=0),\n",
      "    Message('note_on', channel=9, note=42, velocity=100, time=60),\n",
      "    Message('note_off', channel=9, note=42, velocity=64, time=60),\n",
      "    Message('note_on', channel=9, note=42, velocity=100, time=60),\n",
      "    Message('note_off', channel=9, note=42, velocity=64, time=60),\n",
      "    Message('note_on', channel=9, note=42, velocity=100, time=60),\n",
      "    Message('note_on', channel=9, note=36, velocity=100, time=0),\n",
      "    Message('note_on', channel=9, note=35, velocity=100, time=0),\n",
      "    Message('note_off', channel=9, note=35, velocity=64, time=60),\n",
      "    Message('note_off', channel=9, note=36, velocity=64, time=0),\n",
      "    Message('note_off', channel=9, note=42, velocity=64, time=0),\n",
      "    Message('note_on', channel=9, note=42, velocity=100, time=60),\n",
      "    Message('note_off', channel=9, note=42, velocity=64, time=60),\n",
      "    Message('note_on', channel=9, note=42, velocity=100, time=60),\n",
      "    Message('note_on', channel=9, note=40, velocity=100, time=0),\n",
      "    Message('note_on', channel=9, note=38, velocity=100, time=0),\n",
      "    Message('note_off', channel=9, note=38, velocity=64, time=60),\n",
      "    Message('note_off', channel=9, note=40, velocity=64, time=0),\n",
      "    Message('note_off', channel=9, note=42, velocity=64, time=0),\n",
      "    Message('note_on', channel=9, note=42, velocity=100, time=60),\n",
      "    Message('note_off', channel=9, note=42, velocity=64, time=60),\n",
      "    Message('note_on', channel=9, note=42, velocity=100, time=60),\n",
      "    Message('note_off', channel=9, note=42, velocity=64, time=60),\n",
      "    Message('note_on', channel=9, note=42, velocity=100, time=60),\n",
      "    Message('note_off', channel=9, note=42, velocity=64, time=60),\n",
      "    Message('note_on', channel=9, note=42, velocity=100, time=60),\n",
      "    Message('note_on', channel=9, note=35, velocity=100, time=0),\n",
      "    Message('note_on', channel=9, note=36, velocity=100, time=0),\n",
      "    Message('note_off', channel=9, note=36, velocity=64, time=60),\n",
      "    Message('note_off', channel=9, note=35, velocity=64, time=0),\n",
      "    Message('note_off', channel=9, note=42, velocity=64, time=0),\n",
      "    Message('note_on', channel=9, note=42, velocity=100, time=60),\n",
      "    Message('note_off', channel=9, note=42, velocity=64, time=60),\n",
      "    Message('note_on', channel=9, note=42, velocity=100, time=60),\n",
      "    Message('note_on', channel=9, note=36, velocity=100, time=0),\n",
      "    Message('note_on', channel=9, note=35, velocity=100, time=0),\n",
      "    Message('note_off', channel=9, note=35, velocity=64, time=60),\n",
      "    Message('note_off', channel=9, note=36, velocity=64, time=0),\n",
      "    Message('note_off', channel=9, note=42, velocity=64, time=0),\n",
      "    Message('note_on', channel=9, note=42, velocity=100, time=60),\n",
      "    Message('note_off', channel=9, note=42, velocity=64, time=60),\n",
      "    Message('note_on', channel=9, note=42, velocity=100, time=60),\n",
      "    Message('note_on', channel=9, note=38, velocity=100, time=0),\n",
      "    Message('note_on', channel=9, note=40, velocity=100, time=0),\n",
      "    Message('note_off', channel=9, note=40, velocity=64, time=60),\n",
      "    Message('note_off', channel=9, note=38, velocity=64, time=0),\n",
      "    Message('note_off', channel=9, note=42, velocity=64, time=0),\n",
      "    Message('note_on', channel=9, note=42, velocity=100, time=60),\n",
      "    Message('note_off', channel=9, note=42, velocity=64, time=60),\n",
      "    Message('note_on', channel=9, note=42, velocity=100, time=60),\n",
      "    Message('note_off', channel=9, note=42, velocity=64, time=60),\n",
      "    Message('note_on', channel=9, note=42, velocity=100, time=60),\n",
      "    Message('note_on', channel=9, note=36, velocity=100, time=0),\n",
      "    Message('note_on', channel=9, note=35, velocity=100, time=0),\n",
      "    Message('note_off', channel=9, note=35, velocity=64, time=60),\n",
      "    Message('note_off', channel=9, note=36, velocity=64, time=0),\n",
      "    Message('note_off', channel=9, note=42, velocity=64, time=0),\n",
      "    Message('note_on', channel=9, note=42, velocity=100, time=60),\n",
      "    Message('note_off', channel=9, note=42, velocity=64, time=60),\n",
      "    Message('note_on', channel=9, note=42, velocity=100, time=60),\n",
      "    Message('note_off', channel=9, note=42, velocity=64, time=60),\n",
      "    Message('note_on', channel=9, note=42, velocity=100, time=60),\n",
      "    Message('note_on', channel=9, note=36, velocity=100, time=0),\n",
      "    Message('note_on', channel=9, note=35, velocity=100, time=0),\n",
      "    Message('note_off', channel=9, note=35, velocity=64, time=60),\n",
      "    Message('note_off', channel=9, note=36, velocity=64, time=0),\n",
      "    Message('note_off', channel=9, note=42, velocity=64, time=0),\n",
      "    Message('note_on', channel=9, note=42, velocity=100, time=60),\n",
      "    Message('note_off', channel=9, note=42, velocity=64, time=60),\n",
      "    Message('note_on', channel=9, note=42, velocity=100, time=60),\n",
      "    Message('note_on', channel=9, note=40, velocity=100, time=0),\n",
      "    Message('note_on', channel=9, note=38, velocity=100, time=0),\n",
      "    Message('note_off', channel=9, note=38, velocity=64, time=60),\n",
      "    Message('note_off', channel=9, note=40, velocity=64, time=0),\n",
      "    Message('note_off', channel=9, note=42, velocity=64, time=0),\n",
      "    Message('note_on', channel=9, note=42, velocity=100, time=60),\n",
      "    Message('note_off', channel=9, note=42, velocity=64, time=60),\n",
      "    Message('note_on', channel=9, note=42, velocity=100, time=60),\n",
      "    Message('note_off', channel=9, note=42, velocity=64, time=60),\n",
      "    Message('note_on', channel=9, note=42, velocity=100, time=60),\n",
      "    Message('note_off', channel=9, note=42, velocity=64, time=60),\n",
      "    Message('note_on', channel=9, note=42, velocity=100, time=60),\n",
      "    Message('note_on', channel=9, note=35, velocity=100, time=0),\n",
      "    Message('note_on', channel=9, note=36, velocity=100, time=0),\n",
      "    Message('note_off', channel=9, note=36, velocity=64, time=60),\n",
      "    Message('note_off', channel=9, note=35, velocity=64, time=0),\n",
      "    Message('note_off', channel=9, note=42, velocity=64, time=0),\n",
      "    Message('note_on', channel=9, note=42, velocity=100, time=60),\n",
      "    Message('note_off', channel=9, note=42, velocity=64, time=60),\n",
      "    Message('note_on', channel=9, note=42, velocity=100, time=60),\n",
      "    Message('note_on', channel=9, note=36, velocity=100, time=0),\n",
      "    Message('note_on', channel=9, note=35, velocity=100, time=0),\n",
      "    Message('note_off', channel=9, note=35, velocity=64, time=60),\n",
      "    Message('note_off', channel=9, note=36, velocity=64, time=0),\n",
      "    Message('note_off', channel=9, note=42, velocity=64, time=0),\n",
      "    Message('note_on', channel=9, note=42, velocity=100, time=60),\n",
      "    Message('note_off', channel=9, note=42, velocity=64, time=60),\n",
      "    Message('note_on', channel=9, note=42, velocity=100, time=60),\n",
      "    Message('note_on', channel=9, note=38, velocity=100, time=0),\n",
      "    Message('note_on', channel=9, note=40, velocity=100, time=0),\n",
      "    Message('note_off', channel=9, note=40, velocity=64, time=60),\n",
      "    Message('note_off', channel=9, note=38, velocity=64, time=0),\n",
      "    Message('note_off', channel=9, note=42, velocity=64, time=0),\n",
      "    Message('note_on', channel=9, note=42, velocity=100, time=60),\n",
      "    Message('note_off', channel=9, note=42, velocity=64, time=60),\n",
      "    Message('note_on', channel=9, note=42, velocity=100, time=60),\n",
      "    Message('note_off', channel=9, note=42, velocity=64, time=60),\n",
      "    Message('note_on', channel=9, note=42, velocity=100, time=60),\n",
      "    Message('note_on', channel=9, note=36, velocity=100, time=0),\n",
      "    Message('note_on', channel=9, note=35, velocity=100, time=0),\n",
      "    Message('note_off', channel=9, note=35, velocity=64, time=60),\n",
      "    Message('note_off', channel=9, note=36, velocity=64, time=0),\n",
      "    Message('note_off', channel=9, note=42, velocity=64, time=0),\n",
      "    Message('note_on', channel=9, note=42, velocity=100, time=60),\n",
      "    Message('note_off', channel=9, note=42, velocity=64, time=60),\n",
      "    Message('note_on', channel=9, note=42, velocity=100, time=60),\n",
      "    Message('note_off', channel=9, note=42, velocity=64, time=60),\n",
      "    Message('note_on', channel=9, note=42, velocity=100, time=60),\n",
      "    Message('note_on', channel=9, note=36, velocity=100, time=0),\n",
      "    Message('note_on', channel=9, note=35, velocity=100, time=0),\n",
      "    Message('note_off', channel=9, note=35, velocity=64, time=60),\n",
      "    Message('note_off', channel=9, note=36, velocity=64, time=0),\n",
      "    Message('note_off', channel=9, note=42, velocity=64, time=0),\n",
      "    Message('note_on', channel=9, note=42, velocity=100, time=60),\n",
      "    Message('note_off', channel=9, note=42, velocity=64, time=60),\n",
      "    Message('note_on', channel=9, note=42, velocity=100, time=60),\n",
      "    Message('note_on', channel=9, note=40, velocity=100, time=0),\n",
      "    Message('note_on', channel=9, note=38, velocity=100, time=0),\n",
      "    Message('note_off', channel=9, note=38, velocity=64, time=60),\n",
      "    Message('note_off', channel=9, note=40, velocity=64, time=0),\n",
      "    Message('note_off', channel=9, note=42, velocity=64, time=0),\n",
      "    Message('note_on', channel=9, note=42, velocity=100, time=60),\n",
      "    Message('note_off', channel=9, note=42, velocity=64, time=60),\n",
      "    Message('note_on', channel=9, note=42, velocity=100, time=60),\n",
      "    Message('note_off', channel=9, note=42, velocity=64, time=60),\n",
      "    Message('note_on', channel=9, note=42, velocity=100, time=60),\n",
      "    Message('note_off', channel=9, note=42, velocity=64, time=60),\n",
      "    Message('note_on', channel=9, note=42, velocity=100, time=60),\n",
      "    Message('note_on', channel=9, note=35, velocity=100, time=0),\n",
      "    Message('note_on', channel=9, note=36, velocity=100, time=0),\n",
      "    Message('note_off', channel=9, note=36, velocity=64, time=60),\n",
      "    Message('note_off', channel=9, note=35, velocity=64, time=0),\n",
      "    Message('note_off', channel=9, note=42, velocity=64, time=0),\n",
      "    Message('note_on', channel=9, note=42, velocity=100, time=60),\n",
      "    Message('note_off', channel=9, note=42, velocity=64, time=60),\n",
      "    Message('note_on', channel=9, note=42, velocity=100, time=60),\n",
      "    Message('note_on', channel=9, note=36, velocity=100, time=0),\n",
      "    Message('note_on', channel=9, note=35, velocity=100, time=0),\n",
      "    Message('note_off', channel=9, note=35, velocity=64, time=60),\n",
      "    Message('note_off', channel=9, note=36, velocity=64, time=0),\n",
      "    Message('note_off', channel=9, note=42, velocity=64, time=0),\n",
      "    Message('note_on', channel=9, note=42, velocity=100, time=60),\n",
      "    Message('note_off', channel=9, note=42, velocity=64, time=60),\n",
      "    Message('note_on', channel=9, note=42, velocity=100, time=60),\n",
      "    Message('note_on', channel=9, note=38, velocity=100, time=0),\n",
      "    Message('note_on', channel=9, note=40, velocity=100, time=0),\n",
      "    Message('note_off', channel=9, note=40, velocity=64, time=60),\n",
      "    Message('note_off', channel=9, note=38, velocity=64, time=0),\n",
      "    Message('note_off', channel=9, note=42, velocity=64, time=0),\n",
      "    Message('note_on', channel=9, note=42, velocity=100, time=60),\n",
      "    Message('note_off', channel=9, note=42, velocity=64, time=60),\n",
      "    Message('note_on', channel=9, note=42, velocity=100, time=60),\n",
      "    Message('note_off', channel=9, note=42, velocity=64, time=60),\n",
      "    Message('note_on', channel=9, note=42, velocity=100, time=60),\n",
      "    Message('note_on', channel=9, note=36, velocity=100, time=0),\n",
      "    Message('note_on', channel=9, note=35, velocity=100, time=0),\n",
      "    Message('note_off', channel=9, note=35, velocity=64, time=60),\n",
      "    Message('note_off', channel=9, note=36, velocity=64, time=0),\n",
      "    Message('note_off', channel=9, note=42, velocity=64, time=0),\n",
      "    Message('note_on', channel=9, note=42, velocity=100, time=60),\n",
      "    Message('note_off', channel=9, note=42, velocity=64, time=60),\n",
      "    Message('note_on', channel=9, note=42, velocity=100, time=60),\n",
      "    Message('note_off', channel=9, note=42, velocity=64, time=60),\n",
      "    Message('note_on', channel=9, note=42, velocity=100, time=60),\n",
      "    Message('note_on', channel=9, note=36, velocity=100, time=0),\n",
      "    Message('note_on', channel=9, note=35, velocity=100, time=0),\n",
      "    Message('note_off', channel=9, note=35, velocity=64, time=60),\n",
      "    Message('note_off', channel=9, note=36, velocity=64, time=0),\n",
      "    Message('note_off', channel=9, note=42, velocity=64, time=0),\n",
      "    Message('note_on', channel=9, note=42, velocity=100, time=60),\n",
      "    Message('note_off', channel=9, note=42, velocity=64, time=60),\n",
      "    Message('note_on', channel=9, note=42, velocity=100, time=60),\n",
      "    Message('note_on', channel=9, note=40, velocity=100, time=0),\n",
      "    Message('note_on', channel=9, note=38, velocity=100, time=0),\n",
      "    Message('note_off', channel=9, note=38, velocity=64, time=60),\n",
      "    Message('note_off', channel=9, note=40, velocity=64, time=0),\n",
      "    Message('note_off', channel=9, note=42, velocity=64, time=0),\n",
      "    Message('note_on', channel=9, note=42, velocity=100, time=60),\n",
      "    Message('note_off', channel=9, note=42, velocity=64, time=60),\n",
      "    Message('note_on', channel=9, note=42, velocity=100, time=60),\n",
      "    Message('note_off', channel=9, note=42, velocity=64, time=60),\n",
      "    Message('note_on', channel=9, note=42, velocity=100, time=60),\n",
      "    Message('note_off', channel=9, note=42, velocity=64, time=60),\n",
      "    Message('note_on', channel=9, note=42, velocity=100, time=60),\n",
      "    Message('note_on', channel=9, note=35, velocity=100, time=0),\n",
      "    Message('note_on', channel=9, note=36, velocity=100, time=0),\n",
      "    Message('note_off', channel=9, note=36, velocity=64, time=60),\n",
      "    Message('note_off', channel=9, note=35, velocity=64, time=0),\n",
      "    Message('note_off', channel=9, note=42, velocity=64, time=0),\n",
      "    Message('note_on', channel=9, note=42, velocity=100, time=60),\n",
      "    Message('note_off', channel=9, note=42, velocity=64, time=60),\n",
      "    Message('note_on', channel=9, note=42, velocity=100, time=60),\n",
      "    Message('note_on', channel=9, note=36, velocity=100, time=0),\n",
      "    Message('note_on', channel=9, note=35, velocity=100, time=0),\n",
      "    Message('note_off', channel=9, note=35, velocity=64, time=60),\n",
      "    Message('note_off', channel=9, note=36, velocity=64, time=0),\n",
      "    Message('note_off', channel=9, note=42, velocity=64, time=0),\n",
      "    Message('note_on', channel=9, note=42, velocity=100, time=60),\n",
      "    Message('note_off', channel=9, note=42, velocity=64, time=60),\n",
      "    Message('note_on', channel=9, note=42, velocity=100, time=60),\n",
      "    Message('note_on', channel=9, note=38, velocity=100, time=0),\n",
      "    Message('note_on', channel=9, note=40, velocity=100, time=0),\n",
      "    Message('note_off', channel=9, note=40, velocity=64, time=60),\n",
      "    Message('note_off', channel=9, note=38, velocity=64, time=0),\n",
      "    Message('note_off', channel=9, note=42, velocity=64, time=0),\n",
      "    Message('note_on', channel=9, note=42, velocity=100, time=60),\n",
      "    Message('note_off', channel=9, note=42, velocity=64, time=60),\n",
      "    Message('note_on', channel=9, note=42, velocity=100, time=60),\n",
      "    Message('note_off', channel=9, note=42, velocity=64, time=60),\n",
      "    Message('note_on', channel=9, note=42, velocity=100, time=60),\n",
      "    Message('note_on', channel=9, note=36, velocity=100, time=0),\n",
      "    Message('note_on', channel=9, note=35, velocity=100, time=0),\n",
      "    Message('note_off', channel=9, note=35, velocity=64, time=60),\n",
      "    Message('note_off', channel=9, note=36, velocity=64, time=0),\n",
      "    Message('note_off', channel=9, note=42, velocity=64, time=0),\n",
      "    Message('note_on', channel=9, note=42, velocity=100, time=60),\n",
      "    Message('note_off', channel=9, note=42, velocity=64, time=60),\n",
      "    Message('note_on', channel=9, note=42, velocity=100, time=60),\n",
      "    Message('note_off', channel=9, note=42, velocity=64, time=60),\n",
      "    Message('note_on', channel=9, note=42, velocity=100, time=60),\n",
      "    Message('note_on', channel=9, note=36, velocity=100, time=0),\n",
      "    Message('note_on', channel=9, note=35, velocity=100, time=0),\n",
      "    Message('note_off', channel=9, note=35, velocity=64, time=60),\n",
      "    Message('note_off', channel=9, note=36, velocity=64, time=0),\n",
      "    Message('note_off', channel=9, note=42, velocity=64, time=0),\n",
      "    Message('note_on', channel=9, note=42, velocity=100, time=60),\n",
      "    Message('note_off', channel=9, note=42, velocity=64, time=60),\n",
      "    Message('note_on', channel=9, note=42, velocity=100, time=60),\n",
      "    Message('note_on', channel=9, note=40, velocity=100, time=0),\n",
      "    Message('note_on', channel=9, note=38, velocity=100, time=0),\n",
      "    Message('note_off', channel=9, note=38, velocity=64, time=60),\n",
      "    Message('note_off', channel=9, note=40, velocity=64, time=0),\n",
      "    Message('note_off', channel=9, note=42, velocity=64, time=0),\n",
      "    Message('note_on', channel=9, note=42, velocity=100, time=60),\n",
      "    Message('note_off', channel=9, note=42, velocity=64, time=60),\n",
      "    Message('note_on', channel=9, note=42, velocity=100, time=60),\n",
      "    Message('note_off', channel=9, note=42, velocity=64, time=60),\n",
      "    Message('note_on', channel=9, note=42, velocity=100, time=60),\n",
      "    Message('note_off', channel=9, note=42, velocity=64, time=60),\n",
      "    Message('note_on', channel=9, note=42, velocity=100, time=60),\n",
      "    Message('note_on', channel=9, note=35, velocity=100, time=0),\n",
      "    Message('note_on', channel=9, note=36, velocity=100, time=0),\n",
      "    Message('note_off', channel=9, note=36, velocity=64, time=60),\n",
      "    Message('note_off', channel=9, note=35, velocity=64, time=0),\n",
      "    Message('note_off', channel=9, note=42, velocity=64, time=0),\n",
      "    Message('note_on', channel=9, note=42, velocity=100, time=60),\n",
      "    Message('note_off', channel=9, note=42, velocity=64, time=60),\n",
      "    Message('note_on', channel=9, note=42, velocity=100, time=60),\n",
      "    Message('note_on', channel=9, note=36, velocity=100, time=0),\n",
      "    Message('note_on', channel=9, note=35, velocity=100, time=0),\n",
      "    Message('note_off', channel=9, note=35, velocity=64, time=60),\n",
      "    Message('note_off', channel=9, note=36, velocity=64, time=0),\n",
      "    Message('note_off', channel=9, note=42, velocity=64, time=0),\n",
      "    Message('note_on', channel=9, note=42, velocity=100, time=60),\n",
      "    Message('note_off', channel=9, note=42, velocity=64, time=60),\n",
      "    Message('note_on', channel=9, note=42, velocity=100, time=60),\n",
      "    Message('note_on', channel=9, note=38, velocity=100, time=0),\n",
      "    Message('note_on', channel=9, note=40, velocity=100, time=0),\n",
      "    Message('note_off', channel=9, note=40, velocity=64, time=60),\n",
      "    Message('note_off', channel=9, note=38, velocity=64, time=0),\n",
      "    Message('note_off', channel=9, note=42, velocity=64, time=0),\n",
      "    Message('note_on', channel=9, note=42, velocity=100, time=60),\n",
      "    Message('note_off', channel=9, note=42, velocity=64, time=60),\n",
      "    Message('note_on', channel=9, note=42, velocity=100, time=60),\n",
      "    Message('note_off', channel=9, note=42, velocity=64, time=60),\n",
      "    Message('note_on', channel=9, note=42, velocity=100, time=60),\n",
      "    Message('note_on', channel=9, note=36, velocity=100, time=0),\n",
      "    Message('note_on', channel=9, note=35, velocity=100, time=0),\n",
      "    Message('note_off', channel=9, note=35, velocity=64, time=60),\n",
      "    Message('note_off', channel=9, note=36, velocity=64, time=0),\n",
      "    Message('note_off', channel=9, note=42, velocity=64, time=0),\n",
      "    Message('note_on', channel=9, note=42, velocity=100, time=60),\n",
      "    Message('note_off', channel=9, note=42, velocity=64, time=60),\n",
      "    Message('note_on', channel=9, note=42, velocity=100, time=60),\n",
      "    Message('note_off', channel=9, note=42, velocity=64, time=60),\n",
      "    Message('note_on', channel=9, note=42, velocity=100, time=60),\n",
      "    Message('note_on', channel=9, note=36, velocity=100, time=0),\n",
      "    Message('note_on', channel=9, note=35, velocity=100, time=0),\n",
      "    Message('note_off', channel=9, note=35, velocity=64, time=60),\n",
      "    Message('note_off', channel=9, note=36, velocity=64, time=0),\n",
      "    Message('note_off', channel=9, note=42, velocity=64, time=0),\n",
      "    Message('note_on', channel=9, note=42, velocity=100, time=60),\n",
      "    Message('note_off', channel=9, note=42, velocity=64, time=60),\n",
      "    Message('note_on', channel=9, note=42, velocity=100, time=60),\n",
      "    Message('note_on', channel=9, note=40, velocity=100, time=0),\n",
      "    Message('note_on', channel=9, note=38, velocity=100, time=0),\n",
      "    Message('note_off', channel=9, note=38, velocity=64, time=60),\n",
      "    Message('note_off', channel=9, note=40, velocity=64, time=0),\n",
      "    Message('note_off', channel=9, note=42, velocity=64, time=0),\n",
      "    Message('note_on', channel=9, note=42, velocity=100, time=60),\n",
      "    Message('note_off', channel=9, note=42, velocity=64, time=60),\n",
      "    Message('note_on', channel=9, note=42, velocity=100, time=60),\n",
      "    Message('note_off', channel=9, note=42, velocity=64, time=60),\n",
      "    Message('note_on', channel=9, note=42, velocity=100, time=60),\n",
      "    Message('note_off', channel=9, note=42, velocity=64, time=60),\n",
      "    Message('note_on', channel=9, note=35, velocity=100, time=60),\n",
      "    Message('note_on', channel=9, note=36, velocity=100, time=0),\n",
      "    Message('note_off', channel=9, note=36, velocity=64, time=60),\n",
      "    Message('note_off', channel=9, note=35, velocity=64, time=0),\n",
      "    Message('note_on', channel=9, note=35, velocity=100, time=180),\n",
      "    Message('note_on', channel=9, note=36, velocity=100, time=0),\n",
      "    Message('note_off', channel=9, note=36, velocity=64, time=60),\n",
      "    Message('note_off', channel=9, note=35, velocity=64, time=0),\n",
      "    Message('note_on', channel=9, note=39, velocity=100, time=180),\n",
      "    Message('note_off', channel=9, note=39, velocity=64, time=60),\n",
      "    Message('note_on', channel=9, note=35, velocity=100, time=300),\n",
      "    Message('note_on', channel=9, note=36, velocity=100, time=0),\n",
      "    Message('note_off', channel=9, note=36, velocity=64, time=60),\n",
      "    Message('note_off', channel=9, note=35, velocity=64, time=0),\n",
      "    Message('note_on', channel=9, note=35, velocity=100, time=300),\n",
      "    Message('note_on', channel=9, note=36, velocity=100, time=0),\n",
      "    Message('note_off', channel=9, note=36, velocity=64, time=60),\n",
      "    Message('note_off', channel=9, note=35, velocity=64, time=0),\n",
      "    Message('note_on', channel=9, note=38, velocity=100, time=180),\n",
      "    Message('note_on', channel=9, note=40, velocity=100, time=0),\n",
      "    Message('note_off', channel=9, note=40, velocity=64, time=60),\n",
      "    Message('note_off', channel=9, note=38, velocity=64, time=0),\n",
      "    Message('note_on', channel=9, note=35, velocity=100, time=180),\n",
      "    Message('note_on', channel=9, note=36, velocity=100, time=0),\n",
      "    Message('note_off', channel=9, note=36, velocity=64, time=60),\n",
      "    Message('note_off', channel=9, note=35, velocity=64, time=0),\n",
      "    Message('note_on', channel=9, note=42, velocity=100, time=180),\n",
      "    Message('note_on', channel=9, note=35, velocity=100, time=0),\n",
      "    Message('note_on', channel=9, note=36, velocity=100, time=0),\n",
      "    Message('note_off', channel=9, note=36, velocity=64, time=60),\n",
      "    Message('note_off', channel=9, note=35, velocity=64, time=0),\n",
      "    Message('note_off', channel=9, note=42, velocity=64, time=0),\n",
      "    Message('note_on', channel=9, note=42, velocity=100, time=60),\n",
      "    Message('note_off', channel=9, note=42, velocity=64, time=60),\n",
      "    Message('note_on', channel=9, note=42, velocity=100, time=60),\n",
      "    Message('note_on', channel=9, note=36, velocity=100, time=0),\n",
      "    Message('note_on', channel=9, note=35, velocity=100, time=0),\n",
      "    Message('note_off', channel=9, note=35, velocity=64, time=60),\n",
      "    Message('note_off', channel=9, note=36, velocity=64, time=0),\n",
      "    Message('note_off', channel=9, note=42, velocity=64, time=0),\n",
      "    Message('note_on', channel=9, note=42, velocity=100, time=60),\n",
      "    Message('note_off', channel=9, note=42, velocity=64, time=60),\n",
      "    Message('note_on', channel=9, note=42, velocity=100, time=60),\n",
      "    Message('note_on', channel=9, note=38, velocity=100, time=0),\n",
      "    Message('note_on', channel=9, note=40, velocity=100, time=0),\n",
      "    Message('note_off', channel=9, note=40, velocity=64, time=60),\n",
      "    Message('note_off', channel=9, note=38, velocity=64, time=0),\n",
      "    Message('note_off', channel=9, note=42, velocity=64, time=0),\n",
      "    Message('note_on', channel=9, note=42, velocity=100, time=60),\n",
      "    Message('note_off', channel=9, note=42, velocity=64, time=60),\n",
      "    Message('note_on', channel=9, note=42, velocity=100, time=60),\n",
      "    Message('note_off', channel=9, note=42, velocity=64, time=60),\n",
      "    Message('note_on', channel=9, note=42, velocity=100, time=60),\n",
      "    Message('note_on', channel=9, note=36, velocity=100, time=0),\n",
      "    Message('note_on', channel=9, note=35, velocity=100, time=0),\n",
      "    Message('note_off', channel=9, note=35, velocity=64, time=60),\n",
      "    Message('note_off', channel=9, note=36, velocity=64, time=0),\n",
      "    Message('note_off', channel=9, note=42, velocity=64, time=0),\n",
      "    Message('note_on', channel=9, note=42, velocity=100, time=60),\n",
      "    Message('note_off', channel=9, note=42, velocity=64, time=60),\n",
      "    Message('note_on', channel=9, note=42, velocity=100, time=60),\n",
      "    Message('note_off', channel=9, note=42, velocity=64, time=60),\n",
      "    Message('note_on', channel=9, note=42, velocity=100, time=60),\n",
      "    Message('note_on', channel=9, note=36, velocity=100, time=0),\n",
      "    Message('note_on', channel=9, note=35, velocity=100, time=0),\n",
      "    Message('note_off', channel=9, note=35, velocity=64, time=60),\n",
      "    Message('note_off', channel=9, note=36, velocity=64, time=0),\n",
      "    Message('note_off', channel=9, note=42, velocity=64, time=0),\n",
      "    Message('note_on', channel=9, note=42, velocity=100, time=60),\n",
      "    Message('note_off', channel=9, note=42, velocity=64, time=60),\n",
      "    Message('note_on', channel=9, note=42, velocity=100, time=60),\n",
      "    Message('note_on', channel=9, note=40, velocity=100, time=0),\n",
      "    Message('note_on', channel=9, note=38, velocity=100, time=0),\n",
      "    Message('note_off', channel=9, note=38, velocity=64, time=60),\n",
      "    Message('note_off', channel=9, note=40, velocity=64, time=0),\n",
      "    Message('note_off', channel=9, note=42, velocity=64, time=0),\n",
      "    Message('note_on', channel=9, note=42, velocity=100, time=60),\n",
      "    Message('note_off', channel=9, note=42, velocity=64, time=60),\n",
      "    Message('note_on', channel=9, note=42, velocity=100, time=60),\n",
      "    Message('note_off', channel=9, note=42, velocity=64, time=60),\n",
      "    Message('note_on', channel=9, note=42, velocity=100, time=60),\n",
      "    Message('note_off', channel=9, note=42, velocity=64, time=60),\n",
      "    Message('note_on', channel=9, note=42, velocity=100, time=60),\n",
      "    Message('note_on', channel=9, note=35, velocity=100, time=0),\n",
      "    Message('note_on', channel=9, note=36, velocity=100, time=0),\n",
      "    Message('note_off', channel=9, note=36, velocity=64, time=60),\n",
      "    Message('note_off', channel=9, note=35, velocity=64, time=0),\n",
      "    Message('note_off', channel=9, note=42, velocity=64, time=0),\n",
      "    Message('note_on', channel=9, note=42, velocity=100, time=60),\n",
      "    Message('note_off', channel=9, note=42, velocity=64, time=60),\n",
      "    Message('note_on', channel=9, note=42, velocity=100, time=60),\n",
      "    Message('note_on', channel=9, note=36, velocity=100, time=0),\n",
      "    Message('note_on', channel=9, note=35, velocity=100, time=0),\n",
      "    Message('note_off', channel=9, note=35, velocity=64, time=60),\n",
      "    Message('note_off', channel=9, note=36, velocity=64, time=0),\n",
      "    Message('note_off', channel=9, note=42, velocity=64, time=0),\n",
      "    Message('note_on', channel=9, note=42, velocity=100, time=60),\n",
      "    Message('note_off', channel=9, note=42, velocity=64, time=60),\n",
      "    Message('note_on', channel=9, note=42, velocity=100, time=60),\n",
      "    Message('note_on', channel=9, note=38, velocity=100, time=0),\n",
      "    Message('note_on', channel=9, note=40, velocity=100, time=0),\n",
      "    Message('note_off', channel=9, note=40, velocity=64, time=60),\n",
      "    Message('note_off', channel=9, note=38, velocity=64, time=0),\n",
      "    Message('note_off', channel=9, note=42, velocity=64, time=0),\n",
      "    Message('note_on', channel=9, note=42, velocity=100, time=60),\n",
      "    Message('note_off', channel=9, note=42, velocity=64, time=60),\n",
      "    Message('note_on', channel=9, note=42, velocity=100, time=60),\n",
      "    Message('note_off', channel=9, note=42, velocity=64, time=60),\n",
      "    Message('note_on', channel=9, note=42, velocity=100, time=60),\n",
      "    Message('note_on', channel=9, note=36, velocity=100, time=0),\n",
      "    Message('note_on', channel=9, note=35, velocity=100, time=0),\n",
      "    Message('note_off', channel=9, note=35, velocity=64, time=60),\n",
      "    Message('note_off', channel=9, note=36, velocity=64, time=0),\n",
      "    Message('note_off', channel=9, note=42, velocity=64, time=0),\n",
      "    Message('note_on', channel=9, note=42, velocity=100, time=60),\n",
      "    Message('note_off', channel=9, note=42, velocity=64, time=60),\n",
      "    Message('note_on', channel=9, note=42, velocity=100, time=60),\n",
      "    Message('note_off', channel=9, note=42, velocity=64, time=60),\n",
      "    Message('note_on', channel=9, note=42, velocity=100, time=60),\n",
      "    Message('note_on', channel=9, note=36, velocity=100, time=0),\n",
      "    Message('note_on', channel=9, note=35, velocity=100, time=0),\n",
      "    Message('note_off', channel=9, note=35, velocity=64, time=60),\n",
      "    Message('note_off', channel=9, note=36, velocity=64, time=0),\n",
      "    Message('note_off', channel=9, note=42, velocity=64, time=0),\n",
      "    Message('note_on', channel=9, note=42, velocity=100, time=60),\n",
      "    Message('note_off', channel=9, note=42, velocity=64, time=60),\n",
      "    Message('note_on', channel=9, note=42, velocity=100, time=60),\n",
      "    Message('note_on', channel=9, note=40, velocity=100, time=0),\n",
      "    Message('note_on', channel=9, note=38, velocity=100, time=0),\n",
      "    Message('note_off', channel=9, note=38, velocity=64, time=60),\n",
      "    Message('note_off', channel=9, note=40, velocity=64, time=0),\n",
      "    Message('note_off', channel=9, note=42, velocity=64, time=0),\n",
      "    Message('note_on', channel=9, note=42, velocity=100, time=60),\n",
      "    Message('note_off', channel=9, note=42, velocity=64, time=60),\n",
      "    Message('note_on', channel=9, note=42, velocity=100, time=60),\n",
      "    Message('note_off', channel=9, note=42, velocity=64, time=60),\n",
      "    Message('note_on', channel=9, note=42, velocity=100, time=60),\n",
      "    Message('note_off', channel=9, note=42, velocity=64, time=60),\n",
      "    Message('note_on', channel=9, note=42, velocity=100, time=60),\n",
      "    Message('note_on', channel=9, note=35, velocity=100, time=0),\n",
      "    Message('note_on', channel=9, note=36, velocity=100, time=0),\n",
      "    Message('note_off', channel=9, note=36, velocity=64, time=60),\n",
      "    Message('note_off', channel=9, note=35, velocity=64, time=0),\n",
      "    Message('note_off', channel=9, note=42, velocity=64, time=0),\n",
      "    Message('note_on', channel=9, note=42, velocity=100, time=60),\n",
      "    Message('note_off', channel=9, note=42, velocity=64, time=60),\n",
      "    Message('note_on', channel=9, note=42, velocity=100, time=60),\n",
      "    Message('note_on', channel=9, note=36, velocity=100, time=0),\n",
      "    Message('note_on', channel=9, note=35, velocity=100, time=0),\n",
      "    Message('note_off', channel=9, note=35, velocity=64, time=60),\n",
      "    Message('note_off', channel=9, note=36, velocity=64, time=0),\n",
      "    Message('note_off', channel=9, note=42, velocity=64, time=0),\n",
      "    Message('note_on', channel=9, note=42, velocity=100, time=60),\n",
      "    Message('note_off', channel=9, note=42, velocity=64, time=60),\n",
      "    Message('note_on', channel=9, note=42, velocity=100, time=60),\n",
      "    Message('note_on', channel=9, note=38, velocity=100, time=0),\n",
      "    Message('note_on', channel=9, note=40, velocity=100, time=0),\n",
      "    Message('note_off', channel=9, note=40, velocity=64, time=60),\n",
      "    Message('note_off', channel=9, note=38, velocity=64, time=0),\n",
      "    Message('note_off', channel=9, note=42, velocity=64, time=0),\n",
      "    Message('note_on', channel=9, note=42, velocity=100, time=60),\n",
      "    Message('note_off', channel=9, note=42, velocity=64, time=60),\n",
      "    Message('note_on', channel=9, note=42, velocity=100, time=60),\n",
      "    Message('note_off', channel=9, note=42, velocity=64, time=60),\n",
      "    Message('note_on', channel=9, note=42, velocity=100, time=60),\n",
      "    Message('note_on', channel=9, note=36, velocity=100, time=0),\n",
      "    Message('note_on', channel=9, note=35, velocity=100, time=0),\n",
      "    Message('note_off', channel=9, note=35, velocity=64, time=60),\n",
      "    Message('note_off', channel=9, note=36, velocity=64, time=0),\n",
      "    Message('note_off', channel=9, note=42, velocity=64, time=0),\n",
      "    Message('note_on', channel=9, note=42, velocity=100, time=60),\n",
      "    Message('note_off', channel=9, note=42, velocity=64, time=60),\n",
      "    Message('note_on', channel=9, note=42, velocity=100, time=60),\n",
      "    Message('note_off', channel=9, note=42, velocity=64, time=60),\n",
      "    Message('note_on', channel=9, note=42, velocity=100, time=60),\n",
      "    Message('note_on', channel=9, note=36, velocity=100, time=0),\n",
      "    Message('note_on', channel=9, note=35, velocity=100, time=0),\n",
      "    Message('note_off', channel=9, note=35, velocity=64, time=60),\n",
      "    Message('note_off', channel=9, note=36, velocity=64, time=0),\n",
      "    Message('note_off', channel=9, note=42, velocity=64, time=0),\n",
      "    Message('note_on', channel=9, note=42, velocity=100, time=60),\n",
      "    Message('note_off', channel=9, note=42, velocity=64, time=60),\n",
      "    Message('note_on', channel=9, note=42, velocity=100, time=60),\n",
      "    Message('note_on', channel=9, note=40, velocity=100, time=0),\n",
      "    Message('note_on', channel=9, note=38, velocity=100, time=0),\n",
      "    Message('note_off', channel=9, note=38, velocity=64, time=60),\n",
      "    Message('note_off', channel=9, note=40, velocity=64, time=0),\n",
      "    Message('note_off', channel=9, note=42, velocity=64, time=0),\n",
      "    Message('note_on', channel=9, note=42, velocity=100, time=60),\n",
      "    Message('note_off', channel=9, note=42, velocity=64, time=60),\n",
      "    Message('note_on', channel=9, note=42, velocity=100, time=60),\n",
      "    Message('note_off', channel=9, note=42, velocity=64, time=60),\n",
      "    Message('note_on', channel=9, note=42, velocity=100, time=60),\n",
      "    Message('note_off', channel=9, note=42, velocity=64, time=60),\n",
      "    Message('note_on', channel=9, note=42, velocity=100, time=60),\n",
      "    Message('note_on', channel=9, note=35, velocity=100, time=0),\n",
      "    Message('note_on', channel=9, note=36, velocity=100, time=0),\n",
      "    Message('note_off', channel=9, note=36, velocity=64, time=60),\n",
      "    Message('note_off', channel=9, note=35, velocity=64, time=0),\n",
      "    Message('note_off', channel=9, note=42, velocity=64, time=0),\n",
      "    Message('note_on', channel=9, note=42, velocity=100, time=60),\n",
      "    Message('note_off', channel=9, note=42, velocity=64, time=60),\n",
      "    Message('note_on', channel=9, note=42, velocity=100, time=60),\n",
      "    Message('note_on', channel=9, note=36, velocity=100, time=0),\n",
      "    Message('note_on', channel=9, note=35, velocity=100, time=0),\n",
      "    Message('note_off', channel=9, note=35, velocity=64, time=60),\n",
      "    Message('note_off', channel=9, note=36, velocity=64, time=0),\n",
      "    Message('note_off', channel=9, note=42, velocity=64, time=0),\n",
      "    Message('note_on', channel=9, note=42, velocity=100, time=60),\n",
      "    Message('note_off', channel=9, note=42, velocity=64, time=60),\n",
      "    Message('note_on', channel=9, note=42, velocity=100, time=60),\n",
      "    Message('note_on', channel=9, note=38, velocity=100, time=0),\n",
      "    Message('note_on', channel=9, note=40, velocity=100, time=0),\n",
      "    Message('note_off', channel=9, note=40, velocity=64, time=60),\n",
      "    Message('note_off', channel=9, note=38, velocity=64, time=0),\n",
      "    Message('note_off', channel=9, note=42, velocity=64, time=0),\n",
      "    Message('note_on', channel=9, note=42, velocity=100, time=60),\n",
      "    Message('note_off', channel=9, note=42, velocity=64, time=60),\n",
      "    Message('note_on', channel=9, note=42, velocity=100, time=60),\n",
      "    Message('note_off', channel=9, note=42, velocity=64, time=60),\n",
      "    Message('note_on', channel=9, note=42, velocity=100, time=60),\n",
      "    Message('note_on', channel=9, note=36, velocity=100, time=0),\n",
      "    Message('note_on', channel=9, note=35, velocity=100, time=0),\n",
      "    Message('note_off', channel=9, note=35, velocity=64, time=60),\n",
      "    Message('note_off', channel=9, note=36, velocity=64, time=0),\n",
      "    Message('note_off', channel=9, note=42, velocity=64, time=0),\n",
      "    Message('note_on', channel=9, note=42, velocity=100, time=60),\n",
      "    Message('note_off', channel=9, note=42, velocity=64, time=60),\n",
      "    Message('note_on', channel=9, note=42, velocity=100, time=60),\n",
      "    Message('note_off', channel=9, note=42, velocity=64, time=60),\n",
      "    Message('note_on', channel=9, note=42, velocity=100, time=60),\n",
      "    Message('note_on', channel=9, note=36, velocity=100, time=0),\n",
      "    Message('note_on', channel=9, note=35, velocity=100, time=0),\n",
      "    Message('note_off', channel=9, note=35, velocity=64, time=60),\n",
      "    Message('note_off', channel=9, note=36, velocity=64, time=0),\n",
      "    Message('note_off', channel=9, note=42, velocity=64, time=0),\n",
      "    Message('note_on', channel=9, note=42, velocity=100, time=60),\n",
      "    Message('note_off', channel=9, note=42, velocity=64, time=60),\n",
      "    Message('note_on', channel=9, note=42, velocity=100, time=60),\n",
      "    Message('note_on', channel=9, note=40, velocity=100, time=0),\n",
      "    Message('note_on', channel=9, note=38, velocity=100, time=0),\n",
      "    Message('note_off', channel=9, note=38, velocity=64, time=60),\n",
      "    Message('note_off', channel=9, note=40, velocity=64, time=0),\n",
      "    Message('note_off', channel=9, note=42, velocity=64, time=0),\n",
      "    Message('note_on', channel=9, note=42, velocity=100, time=60),\n",
      "    Message('note_off', channel=9, note=42, velocity=64, time=60),\n",
      "    Message('note_on', channel=9, note=42, velocity=100, time=60),\n",
      "    Message('note_off', channel=9, note=42, velocity=64, time=60),\n",
      "    Message('note_on', channel=9, note=42, velocity=100, time=60),\n",
      "    Message('note_off', channel=9, note=42, velocity=64, time=60),\n",
      "    Message('note_on', channel=9, note=42, velocity=100, time=60),\n",
      "    Message('note_on', channel=9, note=35, velocity=100, time=0),\n",
      "    Message('note_on', channel=9, note=36, velocity=100, time=0),\n",
      "    Message('note_off', channel=9, note=36, velocity=64, time=60),\n",
      "    Message('note_off', channel=9, note=35, velocity=64, time=0),\n",
      "    Message('note_off', channel=9, note=42, velocity=64, time=0),\n",
      "    Message('note_on', channel=9, note=42, velocity=100, time=60),\n",
      "    Message('note_off', channel=9, note=42, velocity=64, time=60),\n",
      "    Message('note_on', channel=9, note=42, velocity=100, time=60),\n",
      "    Message('note_on', channel=9, note=36, velocity=100, time=0),\n",
      "    Message('note_on', channel=9, note=35, velocity=100, time=0),\n",
      "    Message('note_off', channel=9, note=35, velocity=64, time=60),\n",
      "    Message('note_off', channel=9, note=36, velocity=64, time=0),\n",
      "    Message('note_off', channel=9, note=42, velocity=64, time=0),\n",
      "    Message('note_on', channel=9, note=42, velocity=100, time=60),\n",
      "    Message('note_off', channel=9, note=42, velocity=64, time=60),\n",
      "    Message('note_on', channel=9, note=42, velocity=100, time=60),\n",
      "    Message('note_on', channel=9, note=38, velocity=100, time=0),\n",
      "    Message('note_on', channel=9, note=40, velocity=100, time=0),\n",
      "    Message('note_off', channel=9, note=40, velocity=64, time=60),\n",
      "    Message('note_off', channel=9, note=38, velocity=64, time=0),\n",
      "    Message('note_off', channel=9, note=42, velocity=64, time=0),\n",
      "    Message('note_on', channel=9, note=42, velocity=100, time=60),\n",
      "    Message('note_off', channel=9, note=42, velocity=64, time=60),\n",
      "    Message('note_on', channel=9, note=42, velocity=100, time=60),\n",
      "    Message('note_off', channel=9, note=42, velocity=64, time=60),\n",
      "    Message('note_on', channel=9, note=42, velocity=100, time=60),\n",
      "    Message('note_on', channel=9, note=36, velocity=100, time=0),\n",
      "    Message('note_on', channel=9, note=35, velocity=100, time=0),\n",
      "    Message('note_off', channel=9, note=35, velocity=64, time=60),\n",
      "    Message('note_off', channel=9, note=36, velocity=64, time=0),\n",
      "    Message('note_off', channel=9, note=42, velocity=64, time=0),\n",
      "    Message('note_on', channel=9, note=42, velocity=100, time=60),\n",
      "    Message('note_off', channel=9, note=42, velocity=64, time=60),\n",
      "    Message('note_on', channel=9, note=42, velocity=100, time=60),\n",
      "    Message('note_off', channel=9, note=42, velocity=64, time=60),\n",
      "    Message('note_on', channel=9, note=42, velocity=100, time=60),\n",
      "    Message('note_on', channel=9, note=36, velocity=100, time=0),\n",
      "    Message('note_on', channel=9, note=35, velocity=100, time=0),\n",
      "    Message('note_off', channel=9, note=35, velocity=64, time=60),\n",
      "    Message('note_off', channel=9, note=36, velocity=64, time=0),\n",
      "    Message('note_off', channel=9, note=42, velocity=64, time=0),\n",
      "    Message('note_on', channel=9, note=42, velocity=100, time=60),\n",
      "    Message('note_off', channel=9, note=42, velocity=64, time=60),\n",
      "    Message('note_on', channel=9, note=42, velocity=100, time=60),\n",
      "    Message('note_on', channel=9, note=40, velocity=100, time=0),\n",
      "    Message('note_on', channel=9, note=38, velocity=100, time=0),\n",
      "    Message('note_off', channel=9, note=38, velocity=64, time=60),\n",
      "    Message('note_off', channel=9, note=40, velocity=64, time=0),\n",
      "    Message('note_off', channel=9, note=42, velocity=64, time=0),\n",
      "    Message('note_on', channel=9, note=42, velocity=100, time=60),\n",
      "    Message('note_off', channel=9, note=42, velocity=64, time=60),\n",
      "    Message('note_on', channel=9, note=42, velocity=100, time=60),\n",
      "    Message('note_off', channel=9, note=42, velocity=64, time=60),\n",
      "    Message('note_on', channel=9, note=42, velocity=100, time=60),\n",
      "    Message('note_off', channel=9, note=42, velocity=64, time=60),\n",
      "    Message('note_on', channel=9, note=42, velocity=100, time=60),\n",
      "    Message('note_on', channel=9, note=35, velocity=100, time=0),\n",
      "    Message('note_on', channel=9, note=36, velocity=100, time=0),\n",
      "    Message('note_off', channel=9, note=36, velocity=64, time=60),\n",
      "    Message('note_off', channel=9, note=35, velocity=64, time=0),\n",
      "    Message('note_off', channel=9, note=42, velocity=64, time=0),\n",
      "    Message('note_on', channel=9, note=42, velocity=100, time=60),\n",
      "    Message('note_off', channel=9, note=42, velocity=64, time=60),\n",
      "    Message('note_on', channel=9, note=42, velocity=100, time=60),\n",
      "    Message('note_on', channel=9, note=36, velocity=100, time=0),\n",
      "    Message('note_on', channel=9, note=35, velocity=100, time=0),\n",
      "    Message('note_off', channel=9, note=35, velocity=64, time=60),\n",
      "    Message('note_off', channel=9, note=36, velocity=64, time=0),\n",
      "    Message('note_off', channel=9, note=42, velocity=64, time=0),\n",
      "    Message('note_on', channel=9, note=42, velocity=100, time=60),\n",
      "    Message('note_off', channel=9, note=42, velocity=64, time=60),\n",
      "    Message('note_on', channel=9, note=42, velocity=100, time=60),\n",
      "    Message('note_on', channel=9, note=38, velocity=100, time=0),\n",
      "    Message('note_on', channel=9, note=40, velocity=100, time=0),\n",
      "    Message('note_off', channel=9, note=40, velocity=64, time=60),\n",
      "    Message('note_off', channel=9, note=38, velocity=64, time=0),\n",
      "    Message('note_off', channel=9, note=42, velocity=64, time=0),\n",
      "    Message('note_on', channel=9, note=42, velocity=100, time=60),\n",
      "    Message('note_off', channel=9, note=42, velocity=64, time=60),\n",
      "    Message('note_on', channel=9, note=42, velocity=100, time=60),\n",
      "    Message('note_off', channel=9, note=42, velocity=64, time=60),\n",
      "    Message('note_on', channel=9, note=42, velocity=100, time=60),\n",
      "    Message('note_on', channel=9, note=36, velocity=100, time=0),\n",
      "    Message('note_on', channel=9, note=35, velocity=100, time=0),\n",
      "    Message('note_off', channel=9, note=35, velocity=64, time=60),\n",
      "    Message('note_off', channel=9, note=36, velocity=64, time=0),\n",
      "    Message('note_off', channel=9, note=42, velocity=64, time=0),\n",
      "    Message('note_on', channel=9, note=42, velocity=100, time=60),\n",
      "    Message('note_off', channel=9, note=42, velocity=64, time=60),\n",
      "    Message('note_on', channel=9, note=42, velocity=100, time=60),\n",
      "    Message('note_off', channel=9, note=42, velocity=64, time=60),\n",
      "    Message('note_on', channel=9, note=42, velocity=100, time=60),\n",
      "    Message('note_on', channel=9, note=36, velocity=100, time=0),\n",
      "    Message('note_on', channel=9, note=35, velocity=100, time=0),\n",
      "    Message('note_off', channel=9, note=35, velocity=64, time=60),\n",
      "    Message('note_off', channel=9, note=36, velocity=64, time=0),\n",
      "    Message('note_off', channel=9, note=42, velocity=64, time=0),\n",
      "    Message('note_on', channel=9, note=42, velocity=100, time=60),\n",
      "    Message('note_off', channel=9, note=42, velocity=64, time=60),\n",
      "    Message('note_on', channel=9, note=42, velocity=100, time=60),\n",
      "    Message('note_on', channel=9, note=40, velocity=100, time=0),\n",
      "    Message('note_on', channel=9, note=38, velocity=100, time=0),\n",
      "    Message('note_off', channel=9, note=38, velocity=64, time=60),\n",
      "    Message('note_off', channel=9, note=40, velocity=64, time=0),\n",
      "    Message('note_off', channel=9, note=42, velocity=64, time=0),\n",
      "    Message('note_on', channel=9, note=42, velocity=100, time=60),\n",
      "    Message('note_off', channel=9, note=42, velocity=64, time=60),\n",
      "    Message('note_on', channel=9, note=42, velocity=100, time=60),\n",
      "    Message('note_off', channel=9, note=42, velocity=64, time=60),\n",
      "    Message('note_on', channel=9, note=42, velocity=100, time=60),\n",
      "    Message('note_off', channel=9, note=42, velocity=64, time=60),\n",
      "    Message('note_on', channel=9, note=42, velocity=100, time=60),\n",
      "    Message('note_on', channel=9, note=35, velocity=100, time=0),\n",
      "    Message('note_on', channel=9, note=36, velocity=100, time=0),\n",
      "    Message('note_off', channel=9, note=36, velocity=64, time=60),\n",
      "    Message('note_off', channel=9, note=35, velocity=64, time=0),\n",
      "    Message('note_off', channel=9, note=42, velocity=64, time=0),\n",
      "    Message('note_on', channel=9, note=42, velocity=100, time=60),\n",
      "    Message('note_off', channel=9, note=42, velocity=64, time=60),\n",
      "    Message('note_on', channel=9, note=42, velocity=100, time=60),\n",
      "    Message('note_on', channel=9, note=36, velocity=100, time=0),\n",
      "    Message('note_on', channel=9, note=35, velocity=100, time=0),\n",
      "    Message('note_off', channel=9, note=35, velocity=64, time=60),\n",
      "    Message('note_off', channel=9, note=36, velocity=64, time=0),\n",
      "    Message('note_off', channel=9, note=42, velocity=64, time=0),\n",
      "    Message('note_on', channel=9, note=42, velocity=100, time=60),\n",
      "    Message('note_off', channel=9, note=42, velocity=64, time=60),\n",
      "    Message('note_on', channel=9, note=42, velocity=100, time=60),\n",
      "    Message('note_on', channel=9, note=38, velocity=100, time=0),\n",
      "    Message('note_on', channel=9, note=40, velocity=100, time=0),\n",
      "    Message('note_off', channel=9, note=40, velocity=64, time=60),\n",
      "    Message('note_off', channel=9, note=38, velocity=64, time=0),\n",
      "    Message('note_off', channel=9, note=42, velocity=64, time=0),\n",
      "    Message('note_on', channel=9, note=42, velocity=100, time=60),\n",
      "    Message('note_off', channel=9, note=42, velocity=64, time=60),\n",
      "    Message('note_on', channel=9, note=42, velocity=100, time=60),\n",
      "    Message('note_off', channel=9, note=42, velocity=64, time=60),\n",
      "    Message('note_on', channel=9, note=42, velocity=100, time=60),\n",
      "    Message('note_on', channel=9, note=36, velocity=100, time=0),\n",
      "    Message('note_on', channel=9, note=35, velocity=100, time=0),\n",
      "    Message('note_off', channel=9, note=35, velocity=64, time=60),\n",
      "    Message('note_off', channel=9, note=36, velocity=64, time=0),\n",
      "    Message('note_off', channel=9, note=42, velocity=64, time=0),\n",
      "    Message('note_on', channel=9, note=42, velocity=100, time=60),\n",
      "    Message('note_off', channel=9, note=42, velocity=64, time=60),\n",
      "    Message('note_on', channel=9, note=42, velocity=100, time=60),\n",
      "    Message('note_off', channel=9, note=42, velocity=64, time=60),\n",
      "    Message('note_on', channel=9, note=42, velocity=100, time=60),\n",
      "    Message('note_on', channel=9, note=36, velocity=100, time=0),\n",
      "    Message('note_on', channel=9, note=35, velocity=100, time=0),\n",
      "    Message('note_off', channel=9, note=35, velocity=64, time=60),\n",
      "    Message('note_off', channel=9, note=36, velocity=64, time=0),\n",
      "    Message('note_off', channel=9, note=42, velocity=64, time=0),\n",
      "    Message('note_on', channel=9, note=42, velocity=100, time=60),\n",
      "    Message('note_off', channel=9, note=42, velocity=64, time=60),\n",
      "    Message('note_on', channel=9, note=42, velocity=100, time=60),\n",
      "    Message('note_on', channel=9, note=40, velocity=100, time=0),\n",
      "    Message('note_on', channel=9, note=38, velocity=100, time=0),\n",
      "    Message('note_off', channel=9, note=38, velocity=64, time=60),\n",
      "    Message('note_off', channel=9, note=40, velocity=64, time=0),\n",
      "    Message('note_off', channel=9, note=42, velocity=64, time=0),\n",
      "    Message('note_on', channel=9, note=42, velocity=100, time=60),\n",
      "    Message('note_off', channel=9, note=42, velocity=64, time=60),\n",
      "    Message('note_on', channel=9, note=42, velocity=100, time=60),\n",
      "    Message('note_off', channel=9, note=42, velocity=64, time=60),\n",
      "    Message('note_on', channel=9, note=42, velocity=100, time=60),\n",
      "    Message('note_off', channel=9, note=42, velocity=64, time=60),\n",
      "    Message('note_on', channel=9, note=35, velocity=100, time=60),\n",
      "    Message('note_on', channel=9, note=36, velocity=100, time=0),\n",
      "    Message('note_off', channel=9, note=36, velocity=64, time=60),\n",
      "    Message('note_off', channel=9, note=35, velocity=64, time=0),\n",
      "    Message('note_on', channel=9, note=35, velocity=100, time=180),\n",
      "    Message('note_on', channel=9, note=36, velocity=100, time=0),\n",
      "    Message('note_off', channel=9, note=36, velocity=64, time=60),\n",
      "    Message('note_off', channel=9, note=35, velocity=64, time=0),\n",
      "    Message('note_on', channel=9, note=39, velocity=100, time=180),\n",
      "    Message('note_off', channel=9, note=39, velocity=64, time=60),\n",
      "    Message('note_on', channel=9, note=35, velocity=100, time=300),\n",
      "    Message('note_on', channel=9, note=36, velocity=100, time=0),\n",
      "    Message('note_off', channel=9, note=36, velocity=64, time=60),\n",
      "    Message('note_off', channel=9, note=35, velocity=64, time=0),\n",
      "    Message('note_on', channel=9, note=35, velocity=100, time=300),\n",
      "    Message('note_on', channel=9, note=36, velocity=100, time=0),\n",
      "    Message('note_off', channel=9, note=36, velocity=64, time=60),\n",
      "    Message('note_off', channel=9, note=35, velocity=64, time=0),\n",
      "    Message('note_on', channel=9, note=38, velocity=100, time=180),\n",
      "    Message('note_on', channel=9, note=40, velocity=100, time=0),\n",
      "    Message('note_off', channel=9, note=40, velocity=64, time=60),\n",
      "    Message('note_off', channel=9, note=38, velocity=64, time=0),\n",
      "    Message('note_on', channel=9, note=35, velocity=100, time=180),\n",
      "    Message('note_on', channel=9, note=36, velocity=100, time=0),\n",
      "    Message('note_off', channel=9, note=36, velocity=64, time=60),\n",
      "    Message('note_off', channel=9, note=35, velocity=64, time=0),\n",
      "    Message('note_on', channel=9, note=42, velocity=100, time=180),\n",
      "    Message('note_on', channel=9, note=35, velocity=100, time=0),\n",
      "    Message('note_on', channel=9, note=36, velocity=100, time=0),\n",
      "    Message('note_off', channel=9, note=36, velocity=64, time=60),\n",
      "    Message('note_off', channel=9, note=35, velocity=64, time=0),\n",
      "    Message('note_off', channel=9, note=42, velocity=64, time=0),\n",
      "    Message('note_on', channel=9, note=42, velocity=100, time=60),\n",
      "    Message('note_off', channel=9, note=42, velocity=64, time=60),\n",
      "    Message('note_on', channel=9, note=42, velocity=100, time=60),\n",
      "    Message('note_on', channel=9, note=36, velocity=100, time=0),\n",
      "    Message('note_on', channel=9, note=35, velocity=100, time=0),\n",
      "    Message('note_off', channel=9, note=35, velocity=64, time=60),\n",
      "    Message('note_off', channel=9, note=36, velocity=64, time=0),\n",
      "    Message('note_off', channel=9, note=42, velocity=64, time=0),\n",
      "    Message('note_on', channel=9, note=42, velocity=100, time=60),\n",
      "    Message('note_off', channel=9, note=42, velocity=64, time=60),\n",
      "    Message('note_on', channel=9, note=42, velocity=100, time=60),\n",
      "    Message('note_on', channel=9, note=38, velocity=100, time=0),\n",
      "    Message('note_on', channel=9, note=40, velocity=100, time=0),\n",
      "    Message('note_off', channel=9, note=40, velocity=64, time=60),\n",
      "    Message('note_off', channel=9, note=38, velocity=64, time=0),\n",
      "    Message('note_off', channel=9, note=42, velocity=64, time=0),\n",
      "    Message('note_on', channel=9, note=42, velocity=100, time=60),\n",
      "    Message('note_off', channel=9, note=42, velocity=64, time=60),\n",
      "    Message('note_on', channel=9, note=42, velocity=100, time=60),\n",
      "    Message('note_off', channel=9, note=42, velocity=64, time=60),\n",
      "    Message('note_on', channel=9, note=42, velocity=100, time=60),\n",
      "    Message('note_on', channel=9, note=36, velocity=100, time=0),\n",
      "    Message('note_on', channel=9, note=35, velocity=100, time=0),\n",
      "    Message('note_off', channel=9, note=35, velocity=64, time=60),\n",
      "    Message('note_off', channel=9, note=36, velocity=64, time=0),\n",
      "    Message('note_off', channel=9, note=42, velocity=64, time=0),\n",
      "    Message('note_on', channel=9, note=42, velocity=100, time=60),\n",
      "    Message('note_off', channel=9, note=42, velocity=64, time=60),\n",
      "    Message('note_on', channel=9, note=42, velocity=100, time=60),\n",
      "    Message('note_off', channel=9, note=42, velocity=64, time=60),\n",
      "    Message('note_on', channel=9, note=42, velocity=100, time=60),\n",
      "    Message('note_on', channel=9, note=36, velocity=100, time=0),\n",
      "    Message('note_on', channel=9, note=35, velocity=100, time=0),\n",
      "    Message('note_off', channel=9, note=35, velocity=64, time=60),\n",
      "    Message('note_off', channel=9, note=36, velocity=64, time=0),\n",
      "    Message('note_off', channel=9, note=42, velocity=64, time=0),\n",
      "    Message('note_on', channel=9, note=42, velocity=100, time=60),\n",
      "    Message('note_off', channel=9, note=42, velocity=64, time=60),\n",
      "    Message('note_on', channel=9, note=42, velocity=100, time=60),\n",
      "    Message('note_on', channel=9, note=40, velocity=100, time=0),\n",
      "    Message('note_on', channel=9, note=38, velocity=100, time=0),\n",
      "    Message('note_off', channel=9, note=38, velocity=64, time=60),\n",
      "    Message('note_off', channel=9, note=40, velocity=64, time=0),\n",
      "    Message('note_off', channel=9, note=42, velocity=64, time=0),\n",
      "    Message('note_on', channel=9, note=42, velocity=100, time=60),\n",
      "    Message('note_off', channel=9, note=42, velocity=64, time=60),\n",
      "    Message('note_on', channel=9, note=42, velocity=100, time=60),\n",
      "    Message('note_off', channel=9, note=42, velocity=64, time=60),\n",
      "    Message('note_on', channel=9, note=42, velocity=100, time=60),\n",
      "    Message('note_off', channel=9, note=42, velocity=64, time=60),\n",
      "    Message('note_on', channel=9, note=42, velocity=100, time=60),\n",
      "    Message('note_on', channel=9, note=35, velocity=100, time=0),\n",
      "    Message('note_on', channel=9, note=36, velocity=100, time=0),\n",
      "    Message('note_off', channel=9, note=36, velocity=64, time=60),\n",
      "    Message('note_off', channel=9, note=35, velocity=64, time=0),\n",
      "    Message('note_off', channel=9, note=42, velocity=64, time=0),\n",
      "    Message('note_on', channel=9, note=42, velocity=100, time=60),\n",
      "    Message('note_off', channel=9, note=42, velocity=64, time=60),\n",
      "    Message('note_on', channel=9, note=42, velocity=100, time=60),\n",
      "    Message('note_on', channel=9, note=36, velocity=100, time=0),\n",
      "    Message('note_on', channel=9, note=35, velocity=100, time=0),\n",
      "    Message('note_off', channel=9, note=35, velocity=64, time=60),\n",
      "    Message('note_off', channel=9, note=36, velocity=64, time=0),\n",
      "    Message('note_off', channel=9, note=42, velocity=64, time=0),\n",
      "    Message('note_on', channel=9, note=42, velocity=100, time=60),\n",
      "    Message('note_off', channel=9, note=42, velocity=64, time=60),\n",
      "    Message('note_on', channel=9, note=42, velocity=100, time=60),\n",
      "    Message('note_on', channel=9, note=38, velocity=100, time=0),\n",
      "    Message('note_on', channel=9, note=40, velocity=100, time=0),\n",
      "    Message('note_off', channel=9, note=40, velocity=64, time=60),\n",
      "    Message('note_off', channel=9, note=38, velocity=64, time=0),\n",
      "    Message('note_off', channel=9, note=42, velocity=64, time=0),\n",
      "    Message('note_on', channel=9, note=42, velocity=100, time=60),\n",
      "    Message('note_off', channel=9, note=42, velocity=64, time=60),\n",
      "    Message('note_on', channel=9, note=42, velocity=100, time=60),\n",
      "    Message('note_off', channel=9, note=42, velocity=64, time=60),\n",
      "    Message('note_on', channel=9, note=42, velocity=100, time=60),\n",
      "    Message('note_on', channel=9, note=36, velocity=100, time=0),\n",
      "    Message('note_on', channel=9, note=35, velocity=100, time=0),\n",
      "    Message('note_off', channel=9, note=35, velocity=64, time=60),\n",
      "    Message('note_off', channel=9, note=36, velocity=64, time=0),\n",
      "    Message('note_off', channel=9, note=42, velocity=64, time=0),\n",
      "    Message('note_on', channel=9, note=42, velocity=100, time=60),\n",
      "    Message('note_off', channel=9, note=42, velocity=64, time=60),\n",
      "    Message('note_on', channel=9, note=42, velocity=100, time=60),\n",
      "    Message('note_off', channel=9, note=42, velocity=64, time=60),\n",
      "    Message('note_on', channel=9, note=42, velocity=100, time=60),\n",
      "    Message('note_on', channel=9, note=36, velocity=100, time=0),\n",
      "    Message('note_on', channel=9, note=35, velocity=100, time=0),\n",
      "    Message('note_off', channel=9, note=35, velocity=64, time=60),\n",
      "    Message('note_off', channel=9, note=36, velocity=64, time=0),\n",
      "    Message('note_off', channel=9, note=42, velocity=64, time=0),\n",
      "    Message('note_on', channel=9, note=42, velocity=100, time=60),\n",
      "    Message('note_off', channel=9, note=42, velocity=64, time=60),\n",
      "    Message('note_on', channel=9, note=42, velocity=100, time=60),\n",
      "    Message('note_on', channel=9, note=40, velocity=100, time=0),\n",
      "    Message('note_on', channel=9, note=38, velocity=100, time=0),\n",
      "    Message('note_off', channel=9, note=38, velocity=64, time=60),\n",
      "    Message('note_off', channel=9, note=40, velocity=64, time=0),\n",
      "    Message('note_off', channel=9, note=42, velocity=64, time=0),\n",
      "    Message('note_on', channel=9, note=42, velocity=100, time=60),\n",
      "    Message('note_off', channel=9, note=42, velocity=64, time=60),\n",
      "    Message('note_on', channel=9, note=42, velocity=100, time=60),\n",
      "    Message('note_off', channel=9, note=42, velocity=64, time=60),\n",
      "    Message('note_on', channel=9, note=42, velocity=100, time=60),\n",
      "    Message('note_off', channel=9, note=42, velocity=64, time=60),\n",
      "    Message('note_on', channel=9, note=42, velocity=100, time=60),\n",
      "    Message('note_on', channel=9, note=35, velocity=100, time=0),\n",
      "    Message('note_on', channel=9, note=36, velocity=100, time=0),\n",
      "    Message('note_off', channel=9, note=36, velocity=64, time=60),\n",
      "    Message('note_off', channel=9, note=35, velocity=64, time=0),\n",
      "    Message('note_off', channel=9, note=42, velocity=64, time=0),\n",
      "    Message('note_on', channel=9, note=42, velocity=100, time=60),\n",
      "    Message('note_off', channel=9, note=42, velocity=64, time=60),\n",
      "    Message('note_on', channel=9, note=42, velocity=100, time=60),\n",
      "    Message('note_on', channel=9, note=36, velocity=100, time=0),\n",
      "    Message('note_on', channel=9, note=35, velocity=100, time=0),\n",
      "    Message('note_off', channel=9, note=35, velocity=64, time=60),\n",
      "    Message('note_off', channel=9, note=36, velocity=64, time=0),\n",
      "    Message('note_off', channel=9, note=42, velocity=64, time=0),\n",
      "    Message('note_on', channel=9, note=42, velocity=100, time=60),\n",
      "    Message('note_off', channel=9, note=42, velocity=64, time=60),\n",
      "    Message('note_on', channel=9, note=42, velocity=100, time=60),\n",
      "    Message('note_on', channel=9, note=38, velocity=100, time=0),\n",
      "    Message('note_on', channel=9, note=40, velocity=100, time=0),\n",
      "    Message('note_off', channel=9, note=40, velocity=64, time=60),\n",
      "    Message('note_off', channel=9, note=38, velocity=64, time=0),\n",
      "    Message('note_off', channel=9, note=42, velocity=64, time=0),\n",
      "    Message('note_on', channel=9, note=42, velocity=100, time=60),\n",
      "    Message('note_off', channel=9, note=42, velocity=64, time=60),\n",
      "    Message('note_on', channel=9, note=42, velocity=100, time=60),\n",
      "    Message('note_off', channel=9, note=42, velocity=64, time=60),\n",
      "    Message('note_on', channel=9, note=42, velocity=100, time=60),\n",
      "    Message('note_on', channel=9, note=36, velocity=100, time=0),\n",
      "    Message('note_on', channel=9, note=35, velocity=100, time=0),\n",
      "    Message('note_off', channel=9, note=35, velocity=64, time=60),\n",
      "    Message('note_off', channel=9, note=36, velocity=64, time=0),\n",
      "    Message('note_off', channel=9, note=42, velocity=64, time=0),\n",
      "    Message('note_on', channel=9, note=42, velocity=100, time=60),\n",
      "    Message('note_off', channel=9, note=42, velocity=64, time=60),\n",
      "    Message('note_on', channel=9, note=42, velocity=100, time=60),\n",
      "    Message('note_off', channel=9, note=42, velocity=64, time=60),\n",
      "    Message('note_on', channel=9, note=42, velocity=100, time=60),\n",
      "    Message('note_on', channel=9, note=36, velocity=100, time=0),\n",
      "    Message('note_on', channel=9, note=35, velocity=100, time=0),\n",
      "    Message('note_off', channel=9, note=35, velocity=64, time=60),\n",
      "    Message('note_off', channel=9, note=36, velocity=64, time=0),\n",
      "    Message('note_off', channel=9, note=42, velocity=64, time=0),\n",
      "    Message('note_on', channel=9, note=42, velocity=100, time=60),\n",
      "    Message('note_off', channel=9, note=42, velocity=64, time=60),\n",
      "    Message('note_on', channel=9, note=42, velocity=100, time=60),\n",
      "    Message('note_on', channel=9, note=40, velocity=100, time=0),\n",
      "    Message('note_on', channel=9, note=38, velocity=100, time=0),\n",
      "    Message('note_off', channel=9, note=38, velocity=64, time=60),\n",
      "    Message('note_off', channel=9, note=40, velocity=64, time=0),\n",
      "    Message('note_off', channel=9, note=42, velocity=64, time=0),\n",
      "    Message('note_on', channel=9, note=42, velocity=100, time=60),\n",
      "    Message('note_off', channel=9, note=42, velocity=64, time=60),\n",
      "    Message('note_on', channel=9, note=42, velocity=100, time=60),\n",
      "    Message('note_off', channel=9, note=42, velocity=64, time=60),\n",
      "    Message('note_on', channel=9, note=42, velocity=100, time=60),\n",
      "    Message('note_off', channel=9, note=42, velocity=64, time=60),\n",
      "    Message('note_on', channel=9, note=42, velocity=100, time=60),\n",
      "    Message('note_on', channel=9, note=35, velocity=100, time=0),\n",
      "    Message('note_on', channel=9, note=36, velocity=100, time=0),\n",
      "    Message('note_off', channel=9, note=36, velocity=64, time=60),\n",
      "    Message('note_off', channel=9, note=35, velocity=64, time=0),\n",
      "    Message('note_off', channel=9, note=42, velocity=64, time=0),\n",
      "    Message('note_on', channel=9, note=42, velocity=100, time=60),\n",
      "    Message('note_off', channel=9, note=42, velocity=64, time=60),\n",
      "    Message('note_on', channel=9, note=42, velocity=100, time=60),\n",
      "    Message('note_on', channel=9, note=36, velocity=100, time=0),\n",
      "    Message('note_on', channel=9, note=35, velocity=100, time=0),\n",
      "    Message('note_off', channel=9, note=35, velocity=64, time=60),\n",
      "    Message('note_off', channel=9, note=36, velocity=64, time=0),\n",
      "    Message('note_off', channel=9, note=42, velocity=64, time=0),\n",
      "    Message('note_on', channel=9, note=42, velocity=100, time=60),\n",
      "    Message('note_off', channel=9, note=42, velocity=64, time=60),\n",
      "    Message('note_on', channel=9, note=42, velocity=100, time=60),\n",
      "    Message('note_on', channel=9, note=38, velocity=100, time=0),\n",
      "    Message('note_on', channel=9, note=40, velocity=100, time=0),\n",
      "    Message('note_off', channel=9, note=40, velocity=64, time=60),\n",
      "    Message('note_off', channel=9, note=38, velocity=64, time=0),\n",
      "    Message('note_off', channel=9, note=42, velocity=64, time=0),\n",
      "    Message('note_on', channel=9, note=42, velocity=100, time=60),\n",
      "    Message('note_off', channel=9, note=42, velocity=64, time=60),\n",
      "    Message('note_on', channel=9, note=42, velocity=100, time=60),\n",
      "    Message('note_off', channel=9, note=42, velocity=64, time=60),\n",
      "    Message('note_on', channel=9, note=42, velocity=100, time=60),\n",
      "    Message('note_on', channel=9, note=36, velocity=100, time=0),\n",
      "    Message('note_on', channel=9, note=35, velocity=100, time=0),\n",
      "    Message('note_off', channel=9, note=35, velocity=64, time=60),\n",
      "    Message('note_off', channel=9, note=36, velocity=64, time=0),\n",
      "    Message('note_off', channel=9, note=42, velocity=64, time=0),\n",
      "    Message('note_on', channel=9, note=42, velocity=100, time=60),\n",
      "    Message('note_off', channel=9, note=42, velocity=64, time=60),\n",
      "    Message('note_on', channel=9, note=42, velocity=100, time=60),\n",
      "    Message('note_off', channel=9, note=42, velocity=64, time=60),\n",
      "    Message('note_on', channel=9, note=42, velocity=100, time=60),\n",
      "    Message('note_on', channel=9, note=36, velocity=100, time=0),\n",
      "    Message('note_on', channel=9, note=35, velocity=100, time=0),\n",
      "    Message('note_off', channel=9, note=35, velocity=64, time=60),\n",
      "    Message('note_off', channel=9, note=36, velocity=64, time=0),\n",
      "    Message('note_off', channel=9, note=42, velocity=64, time=0),\n",
      "    Message('note_on', channel=9, note=42, velocity=100, time=60),\n",
      "    Message('note_off', channel=9, note=42, velocity=64, time=60),\n",
      "    Message('note_on', channel=9, note=42, velocity=100, time=60),\n",
      "    Message('note_on', channel=9, note=40, velocity=100, time=0),\n",
      "    Message('note_on', channel=9, note=38, velocity=100, time=0),\n",
      "    Message('note_off', channel=9, note=38, velocity=64, time=60),\n",
      "    Message('note_off', channel=9, note=40, velocity=64, time=0),\n",
      "    Message('note_off', channel=9, note=42, velocity=64, time=0),\n",
      "    Message('note_on', channel=9, note=42, velocity=100, time=60),\n",
      "    Message('note_off', channel=9, note=42, velocity=64, time=60),\n",
      "    Message('note_on', channel=9, note=42, velocity=100, time=60),\n",
      "    Message('note_off', channel=9, note=42, velocity=64, time=60),\n",
      "    Message('note_on', channel=9, note=42, velocity=100, time=60),\n",
      "    Message('note_off', channel=9, note=42, velocity=64, time=60),\n",
      "    Message('note_on', channel=9, note=42, velocity=100, time=60),\n",
      "    Message('note_on', channel=9, note=35, velocity=100, time=0),\n",
      "    Message('note_on', channel=9, note=36, velocity=100, time=0),\n",
      "    Message('note_off', channel=9, note=36, velocity=64, time=60),\n",
      "    Message('note_off', channel=9, note=35, velocity=64, time=0),\n",
      "    Message('note_off', channel=9, note=42, velocity=64, time=0),\n",
      "    Message('note_on', channel=9, note=42, velocity=100, time=60),\n",
      "    Message('note_off', channel=9, note=42, velocity=64, time=60),\n",
      "    Message('note_on', channel=9, note=42, velocity=100, time=60),\n",
      "    Message('note_on', channel=9, note=36, velocity=100, time=0),\n",
      "    Message('note_on', channel=9, note=35, velocity=100, time=0),\n",
      "    Message('note_off', channel=9, note=35, velocity=64, time=60),\n",
      "    Message('note_off', channel=9, note=36, velocity=64, time=0),\n",
      "    Message('note_off', channel=9, note=42, velocity=64, time=0),\n",
      "    Message('note_on', channel=9, note=42, velocity=100, time=60),\n",
      "    Message('note_off', channel=9, note=42, velocity=64, time=60),\n",
      "    Message('note_on', channel=9, note=42, velocity=100, time=60),\n",
      "    Message('note_on', channel=9, note=38, velocity=100, time=0),\n",
      "    Message('note_on', channel=9, note=40, velocity=100, time=0),\n",
      "    Message('note_off', channel=9, note=40, velocity=64, time=60),\n",
      "    Message('note_off', channel=9, note=38, velocity=64, time=0),\n",
      "    Message('note_off', channel=9, note=42, velocity=64, time=0),\n",
      "    Message('note_on', channel=9, note=42, velocity=100, time=60),\n",
      "    Message('note_off', channel=9, note=42, velocity=64, time=60),\n",
      "    Message('note_on', channel=9, note=42, velocity=100, time=60),\n",
      "    Message('note_off', channel=9, note=42, velocity=64, time=60),\n",
      "    Message('note_on', channel=9, note=42, velocity=100, time=60),\n",
      "    Message('note_on', channel=9, note=36, velocity=100, time=0),\n",
      "    Message('note_on', channel=9, note=35, velocity=100, time=0),\n",
      "    Message('note_off', channel=9, note=35, velocity=64, time=60),\n",
      "    Message('note_off', channel=9, note=36, velocity=64, time=0),\n",
      "    Message('note_off', channel=9, note=42, velocity=64, time=0),\n",
      "    Message('note_on', channel=9, note=42, velocity=100, time=60),\n",
      "    Message('note_off', channel=9, note=42, velocity=64, time=60),\n",
      "    Message('note_on', channel=9, note=42, velocity=100, time=60),\n",
      "    Message('note_off', channel=9, note=42, velocity=64, time=60),\n",
      "    Message('note_on', channel=9, note=42, velocity=100, time=60),\n",
      "    Message('note_on', channel=9, note=36, velocity=100, time=0),\n",
      "    Message('note_on', channel=9, note=35, velocity=100, time=0),\n",
      "    Message('note_off', channel=9, note=35, velocity=64, time=60),\n",
      "    Message('note_off', channel=9, note=36, velocity=64, time=0),\n",
      "    Message('note_off', channel=9, note=42, velocity=64, time=0),\n",
      "    Message('note_on', channel=9, note=42, velocity=100, time=60),\n",
      "    Message('note_off', channel=9, note=42, velocity=64, time=60),\n",
      "    Message('note_on', channel=9, note=42, velocity=100, time=60),\n",
      "    Message('note_on', channel=9, note=40, velocity=100, time=0),\n",
      "    Message('note_on', channel=9, note=38, velocity=100, time=0),\n",
      "    Message('note_off', channel=9, note=38, velocity=64, time=60),\n",
      "    Message('note_off', channel=9, note=40, velocity=64, time=0),\n",
      "    Message('note_off', channel=9, note=42, velocity=64, time=0),\n",
      "    Message('note_on', channel=9, note=42, velocity=100, time=60),\n",
      "    Message('note_off', channel=9, note=42, velocity=64, time=60),\n",
      "    Message('note_on', channel=9, note=42, velocity=100, time=60),\n",
      "    Message('note_off', channel=9, note=42, velocity=64, time=60),\n",
      "    Message('note_on', channel=9, note=42, velocity=100, time=60),\n",
      "    Message('note_off', channel=9, note=42, velocity=64, time=60),\n",
      "    Message('note_on', channel=9, note=42, velocity=100, time=60),\n",
      "    Message('note_on', channel=9, note=35, velocity=100, time=0),\n",
      "    Message('note_on', channel=9, note=36, velocity=100, time=0),\n",
      "    Message('note_off', channel=9, note=36, velocity=64, time=60),\n",
      "    Message('note_off', channel=9, note=35, velocity=64, time=0),\n",
      "    Message('note_off', channel=9, note=42, velocity=64, time=0),\n",
      "    Message('note_on', channel=9, note=42, velocity=100, time=60),\n",
      "    Message('note_off', channel=9, note=42, velocity=64, time=60),\n",
      "    Message('note_on', channel=9, note=42, velocity=100, time=60),\n",
      "    Message('note_on', channel=9, note=36, velocity=100, time=0),\n",
      "    Message('note_on', channel=9, note=35, velocity=100, time=0),\n",
      "    Message('note_off', channel=9, note=35, velocity=64, time=60),\n",
      "    Message('note_off', channel=9, note=36, velocity=64, time=0),\n",
      "    Message('note_off', channel=9, note=42, velocity=64, time=0),\n",
      "    Message('note_on', channel=9, note=42, velocity=100, time=60),\n",
      "    Message('note_off', channel=9, note=42, velocity=64, time=60),\n",
      "    Message('note_on', channel=9, note=42, velocity=100, time=60),\n",
      "    Message('note_on', channel=9, note=38, velocity=100, time=0),\n",
      "    Message('note_on', channel=9, note=40, velocity=100, time=0),\n",
      "    Message('note_off', channel=9, note=40, velocity=64, time=60),\n",
      "    Message('note_off', channel=9, note=38, velocity=64, time=0),\n",
      "    Message('note_off', channel=9, note=42, velocity=64, time=0),\n",
      "    Message('note_on', channel=9, note=42, velocity=100, time=60),\n",
      "    Message('note_off', channel=9, note=42, velocity=64, time=60),\n",
      "    Message('note_on', channel=9, note=42, velocity=100, time=60),\n",
      "    Message('note_off', channel=9, note=42, velocity=64, time=60),\n",
      "    Message('note_on', channel=9, note=42, velocity=100, time=60),\n",
      "    Message('note_on', channel=9, note=36, velocity=100, time=0),\n",
      "    Message('note_on', channel=9, note=35, velocity=100, time=0),\n",
      "    Message('note_off', channel=9, note=35, velocity=64, time=60),\n",
      "    Message('note_off', channel=9, note=36, velocity=64, time=0),\n",
      "    Message('note_off', channel=9, note=42, velocity=64, time=0),\n",
      "    Message('note_on', channel=9, note=42, velocity=100, time=60),\n",
      "    Message('note_off', channel=9, note=42, velocity=64, time=60),\n",
      "    Message('note_on', channel=9, note=42, velocity=100, time=60),\n",
      "    Message('note_off', channel=9, note=42, velocity=64, time=60),\n",
      "    Message('note_on', channel=9, note=42, velocity=100, time=60),\n",
      "    Message('note_on', channel=9, note=36, velocity=100, time=0),\n",
      "    Message('note_on', channel=9, note=35, velocity=100, time=0),\n",
      "    Message('note_off', channel=9, note=35, velocity=64, time=60),\n",
      "    Message('note_off', channel=9, note=36, velocity=64, time=0),\n",
      "    Message('note_off', channel=9, note=42, velocity=64, time=0),\n",
      "    Message('note_on', channel=9, note=42, velocity=100, time=60),\n",
      "    Message('note_off', channel=9, note=42, velocity=64, time=60),\n",
      "    Message('note_on', channel=9, note=42, velocity=100, time=60),\n",
      "    Message('note_on', channel=9, note=40, velocity=100, time=0),\n",
      "    Message('note_on', channel=9, note=38, velocity=100, time=0),\n",
      "    Message('note_off', channel=9, note=38, velocity=64, time=60),\n",
      "    Message('note_off', channel=9, note=40, velocity=64, time=0),\n",
      "    Message('note_off', channel=9, note=42, velocity=64, time=0),\n",
      "    Message('note_on', channel=9, note=42, velocity=100, time=60),\n",
      "    Message('note_off', channel=9, note=42, velocity=64, time=60),\n",
      "    Message('note_on', channel=9, note=42, velocity=100, time=60),\n",
      "    Message('note_off', channel=9, note=42, velocity=64, time=60),\n",
      "    Message('note_on', channel=9, note=42, velocity=100, time=60),\n",
      "    Message('note_off', channel=9, note=42, velocity=64, time=60),\n",
      "    Message('note_on', channel=9, note=42, velocity=100, time=60),\n",
      "    Message('note_on', channel=9, note=35, velocity=100, time=0),\n",
      "    Message('note_on', channel=9, note=36, velocity=100, time=0),\n",
      "    Message('note_off', channel=9, note=36, velocity=64, time=60),\n",
      "    Message('note_off', channel=9, note=35, velocity=64, time=0),\n",
      "    Message('note_off', channel=9, note=42, velocity=64, time=0),\n",
      "    Message('note_on', channel=9, note=42, velocity=100, time=60),\n",
      "    Message('note_off', channel=9, note=42, velocity=64, time=60),\n",
      "    Message('note_on', channel=9, note=42, velocity=100, time=60),\n",
      "    Message('note_on', channel=9, note=36, velocity=100, time=0),\n",
      "    Message('note_on', channel=9, note=35, velocity=100, time=0),\n",
      "    Message('note_off', channel=9, note=35, velocity=64, time=60),\n",
      "    Message('note_off', channel=9, note=36, velocity=64, time=0),\n",
      "    Message('note_off', channel=9, note=42, velocity=64, time=0),\n",
      "    Message('note_on', channel=9, note=42, velocity=100, time=60),\n",
      "    Message('note_off', channel=9, note=42, velocity=64, time=60),\n",
      "    Message('note_on', channel=9, note=42, velocity=100, time=60),\n",
      "    Message('note_on', channel=9, note=38, velocity=100, time=0),\n",
      "    Message('note_on', channel=9, note=40, velocity=100, time=0),\n",
      "    Message('note_off', channel=9, note=40, velocity=64, time=60),\n",
      "    Message('note_off', channel=9, note=38, velocity=64, time=0),\n",
      "    Message('note_off', channel=9, note=42, velocity=64, time=0),\n",
      "    Message('note_on', channel=9, note=42, velocity=100, time=60),\n",
      "    Message('note_off', channel=9, note=42, velocity=64, time=60),\n",
      "    Message('note_on', channel=9, note=42, velocity=100, time=60),\n",
      "    Message('note_off', channel=9, note=42, velocity=64, time=60),\n",
      "    Message('note_on', channel=9, note=42, velocity=100, time=60),\n",
      "    Message('note_on', channel=9, note=36, velocity=100, time=0),\n",
      "    Message('note_on', channel=9, note=35, velocity=100, time=0),\n",
      "    Message('note_off', channel=9, note=35, velocity=64, time=60),\n",
      "    Message('note_off', channel=9, note=36, velocity=64, time=0),\n",
      "    Message('note_off', channel=9, note=42, velocity=64, time=0),\n",
      "    Message('note_on', channel=9, note=42, velocity=100, time=60),\n",
      "    Message('note_off', channel=9, note=42, velocity=64, time=60),\n",
      "    Message('note_on', channel=9, note=42, velocity=100, time=60),\n",
      "    Message('note_off', channel=9, note=42, velocity=64, time=60),\n",
      "    Message('note_on', channel=9, note=42, velocity=100, time=60),\n",
      "    Message('note_on', channel=9, note=36, velocity=100, time=0),\n",
      "    Message('note_on', channel=9, note=35, velocity=100, time=0),\n",
      "    Message('note_off', channel=9, note=35, velocity=64, time=60),\n",
      "    Message('note_off', channel=9, note=36, velocity=64, time=0),\n",
      "    Message('note_off', channel=9, note=42, velocity=64, time=0),\n",
      "    Message('note_on', channel=9, note=42, velocity=100, time=60),\n",
      "    Message('note_off', channel=9, note=42, velocity=64, time=60),\n",
      "    Message('note_on', channel=9, note=42, velocity=100, time=60),\n",
      "    Message('note_on', channel=9, note=40, velocity=100, time=0),\n",
      "    Message('note_on', channel=9, note=38, velocity=100, time=0),\n",
      "    Message('note_off', channel=9, note=38, velocity=64, time=60),\n",
      "    Message('note_off', channel=9, note=40, velocity=64, time=0),\n",
      "    Message('note_off', channel=9, note=42, velocity=64, time=0),\n",
      "    Message('note_on', channel=9, note=42, velocity=100, time=60),\n",
      "    Message('note_off', channel=9, note=42, velocity=64, time=60),\n",
      "    Message('note_on', channel=9, note=42, velocity=100, time=60),\n",
      "    Message('note_off', channel=9, note=42, velocity=64, time=60),\n",
      "    Message('note_on', channel=9, note=42, velocity=100, time=60),\n",
      "    Message('note_off', channel=9, note=42, velocity=64, time=60),\n",
      "    Message('note_on', channel=9, note=35, velocity=100, time=60),\n",
      "    Message('note_on', channel=9, note=36, velocity=100, time=0),\n",
      "    Message('note_off', channel=9, note=36, velocity=64, time=60),\n",
      "    Message('note_off', channel=9, note=35, velocity=64, time=0),\n",
      "    Message('note_on', channel=9, note=35, velocity=100, time=180),\n",
      "    Message('note_on', channel=9, note=36, velocity=100, time=0),\n",
      "    Message('note_off', channel=9, note=36, velocity=64, time=60),\n",
      "    Message('note_off', channel=9, note=35, velocity=64, time=0),\n",
      "    Message('note_on', channel=9, note=39, velocity=100, time=180),\n",
      "    Message('note_off', channel=9, note=39, velocity=64, time=60),\n",
      "    Message('note_on', channel=9, note=35, velocity=100, time=300),\n",
      "    Message('note_on', channel=9, note=36, velocity=100, time=0),\n",
      "    Message('note_off', channel=9, note=36, velocity=64, time=60),\n",
      "    Message('note_off', channel=9, note=35, velocity=64, time=0),\n",
      "    Message('note_on', channel=9, note=35, velocity=100, time=300),\n",
      "    Message('note_on', channel=9, note=36, velocity=100, time=0),\n",
      "    Message('note_off', channel=9, note=36, velocity=64, time=60),\n",
      "    Message('note_off', channel=9, note=35, velocity=64, time=0),\n",
      "    Message('note_on', channel=9, note=38, velocity=100, time=180),\n",
      "    Message('note_on', channel=9, note=40, velocity=100, time=0),\n",
      "    Message('note_off', channel=9, note=40, velocity=64, time=60),\n",
      "    Message('note_off', channel=9, note=38, velocity=64, time=0),\n",
      "    Message('note_on', channel=9, note=35, velocity=100, time=180),\n",
      "    Message('note_on', channel=9, note=36, velocity=100, time=0),\n",
      "    Message('note_off', channel=9, note=36, velocity=64, time=60),\n",
      "    Message('note_off', channel=9, note=35, velocity=64, time=0),\n",
      "    Message('note_on', channel=9, note=42, velocity=100, time=180),\n",
      "    Message('note_on', channel=9, note=35, velocity=100, time=0),\n",
      "    Message('note_on', channel=9, note=36, velocity=100, time=0),\n",
      "    Message('note_off', channel=9, note=36, velocity=64, time=60),\n",
      "    Message('note_off', channel=9, note=35, velocity=64, time=0),\n",
      "    Message('note_off', channel=9, note=42, velocity=64, time=0),\n",
      "    Message('note_on', channel=9, note=42, velocity=100, time=60),\n",
      "    Message('note_off', channel=9, note=42, velocity=64, time=60),\n",
      "    Message('note_on', channel=9, note=42, velocity=100, time=60),\n",
      "    Message('note_on', channel=9, note=36, velocity=100, time=0),\n",
      "    Message('note_on', channel=9, note=35, velocity=100, time=0),\n",
      "    Message('note_off', channel=9, note=35, velocity=64, time=60),\n",
      "    Message('note_off', channel=9, note=36, velocity=64, time=0),\n",
      "    Message('note_off', channel=9, note=42, velocity=64, time=0),\n",
      "    Message('note_on', channel=9, note=42, velocity=100, time=60),\n",
      "    Message('note_off', channel=9, note=42, velocity=64, time=60),\n",
      "    Message('note_on', channel=9, note=42, velocity=100, time=60),\n",
      "    Message('note_on', channel=9, note=38, velocity=100, time=0),\n",
      "    Message('note_on', channel=9, note=40, velocity=100, time=0),\n",
      "    Message('note_off', channel=9, note=40, velocity=64, time=60),\n",
      "    Message('note_off', channel=9, note=38, velocity=64, time=0),\n",
      "    Message('note_off', channel=9, note=42, velocity=64, time=0),\n",
      "    Message('note_on', channel=9, note=42, velocity=100, time=60),\n",
      "    Message('note_off', channel=9, note=42, velocity=64, time=60),\n",
      "    Message('note_on', channel=9, note=42, velocity=100, time=60),\n",
      "    Message('note_off', channel=9, note=42, velocity=64, time=60),\n",
      "    Message('note_on', channel=9, note=42, velocity=100, time=60),\n",
      "    Message('note_on', channel=9, note=36, velocity=100, time=0),\n",
      "    Message('note_on', channel=9, note=35, velocity=100, time=0),\n",
      "    Message('note_off', channel=9, note=35, velocity=64, time=60),\n",
      "    Message('note_off', channel=9, note=36, velocity=64, time=0),\n",
      "    Message('note_off', channel=9, note=42, velocity=64, time=0),\n",
      "    Message('note_on', channel=9, note=42, velocity=100, time=60),\n",
      "    Message('note_off', channel=9, note=42, velocity=64, time=60),\n",
      "    Message('note_on', channel=9, note=42, velocity=100, time=60),\n",
      "    Message('note_off', channel=9, note=42, velocity=64, time=60),\n",
      "    Message('note_on', channel=9, note=42, velocity=100, time=60),\n",
      "    Message('note_on', channel=9, note=36, velocity=100, time=0),\n",
      "    Message('note_on', channel=9, note=35, velocity=100, time=0),\n",
      "    Message('note_off', channel=9, note=35, velocity=64, time=60),\n",
      "    Message('note_off', channel=9, note=36, velocity=64, time=0),\n",
      "    Message('note_off', channel=9, note=42, velocity=64, time=0),\n",
      "    Message('note_on', channel=9, note=42, velocity=100, time=60),\n",
      "    Message('note_off', channel=9, note=42, velocity=64, time=60),\n",
      "    Message('note_on', channel=9, note=42, velocity=100, time=60),\n",
      "    Message('note_on', channel=9, note=40, velocity=100, time=0),\n",
      "    Message('note_on', channel=9, note=38, velocity=100, time=0),\n",
      "    Message('note_off', channel=9, note=38, velocity=64, time=60),\n",
      "    Message('note_off', channel=9, note=40, velocity=64, time=0),\n",
      "    Message('note_off', channel=9, note=42, velocity=64, time=0),\n",
      "    Message('note_on', channel=9, note=42, velocity=100, time=60),\n",
      "    Message('note_off', channel=9, note=42, velocity=64, time=60),\n",
      "    Message('note_on', channel=9, note=42, velocity=100, time=60),\n",
      "    Message('note_off', channel=9, note=42, velocity=64, time=60),\n",
      "    Message('note_on', channel=9, note=42, velocity=100, time=60),\n",
      "    Message('note_off', channel=9, note=42, velocity=64, time=60),\n",
      "    Message('note_on', channel=9, note=42, velocity=100, time=60),\n",
      "    Message('note_on', channel=9, note=35, velocity=100, time=0),\n",
      "    Message('note_on', channel=9, note=36, velocity=100, time=0),\n",
      "    Message('note_off', channel=9, note=36, velocity=64, time=60),\n",
      "    Message('note_off', channel=9, note=35, velocity=64, time=0),\n",
      "    Message('note_off', channel=9, note=42, velocity=64, time=0),\n",
      "    Message('note_on', channel=9, note=42, velocity=100, time=60),\n",
      "    Message('note_off', channel=9, note=42, velocity=64, time=60),\n",
      "    Message('note_on', channel=9, note=42, velocity=100, time=60),\n",
      "    Message('note_on', channel=9, note=36, velocity=100, time=0),\n",
      "    Message('note_on', channel=9, note=35, velocity=100, time=0),\n",
      "    Message('note_off', channel=9, note=35, velocity=64, time=60),\n",
      "    Message('note_off', channel=9, note=36, velocity=64, time=0),\n",
      "    Message('note_off', channel=9, note=42, velocity=64, time=0),\n",
      "    Message('note_on', channel=9, note=42, velocity=100, time=60),\n",
      "    Message('note_off', channel=9, note=42, velocity=64, time=60),\n",
      "    Message('note_on', channel=9, note=42, velocity=100, time=60),\n",
      "    Message('note_on', channel=9, note=38, velocity=100, time=0),\n",
      "    Message('note_on', channel=9, note=40, velocity=100, time=0),\n",
      "    Message('note_off', channel=9, note=40, velocity=64, time=60),\n",
      "    Message('note_off', channel=9, note=38, velocity=64, time=0),\n",
      "    Message('note_off', channel=9, note=42, velocity=64, time=0),\n",
      "    Message('note_on', channel=9, note=42, velocity=100, time=60),\n",
      "    Message('note_off', channel=9, note=42, velocity=64, time=60),\n",
      "    Message('note_on', channel=9, note=42, velocity=100, time=60),\n",
      "    Message('note_off', channel=9, note=42, velocity=64, time=60),\n",
      "    Message('note_on', channel=9, note=42, velocity=100, time=60),\n",
      "    Message('note_on', channel=9, note=36, velocity=100, time=0),\n",
      "    Message('note_on', channel=9, note=35, velocity=100, time=0),\n",
      "    Message('note_off', channel=9, note=35, velocity=64, time=60),\n",
      "    Message('note_off', channel=9, note=36, velocity=64, time=0),\n",
      "    Message('note_off', channel=9, note=42, velocity=64, time=0),\n",
      "    Message('note_on', channel=9, note=42, velocity=100, time=60),\n",
      "    Message('note_off', channel=9, note=42, velocity=64, time=60),\n",
      "    Message('note_on', channel=9, note=42, velocity=100, time=60),\n",
      "    Message('note_off', channel=9, note=42, velocity=64, time=60),\n",
      "    Message('note_on', channel=9, note=42, velocity=100, time=60),\n",
      "    Message('note_on', channel=9, note=36, velocity=100, time=0),\n",
      "    Message('note_on', channel=9, note=35, velocity=100, time=0),\n",
      "    Message('note_off', channel=9, note=35, velocity=64, time=60),\n",
      "    Message('note_off', channel=9, note=36, velocity=64, time=0),\n",
      "    Message('note_off', channel=9, note=42, velocity=64, time=0),\n",
      "    Message('note_on', channel=9, note=42, velocity=100, time=60),\n",
      "    Message('note_off', channel=9, note=42, velocity=64, time=60),\n",
      "    Message('note_on', channel=9, note=42, velocity=100, time=60),\n",
      "    Message('note_on', channel=9, note=40, velocity=100, time=0),\n",
      "    Message('note_on', channel=9, note=38, velocity=100, time=0),\n",
      "    Message('note_off', channel=9, note=38, velocity=64, time=60),\n",
      "    Message('note_off', channel=9, note=40, velocity=64, time=0),\n",
      "    Message('note_off', channel=9, note=42, velocity=64, time=0),\n",
      "    Message('note_on', channel=9, note=42, velocity=100, time=60),\n",
      "    Message('note_off', channel=9, note=42, velocity=64, time=60),\n",
      "    Message('note_on', channel=9, note=42, velocity=100, time=60),\n",
      "    Message('note_off', channel=9, note=42, velocity=64, time=60),\n",
      "    Message('note_on', channel=9, note=42, velocity=100, time=60),\n",
      "    Message('note_off', channel=9, note=42, velocity=64, time=60),\n",
      "    Message('note_on', channel=9, note=42, velocity=100, time=60),\n",
      "    Message('note_on', channel=9, note=35, velocity=100, time=0),\n",
      "    Message('note_on', channel=9, note=36, velocity=100, time=0),\n",
      "    Message('note_off', channel=9, note=36, velocity=64, time=60),\n",
      "    Message('note_off', channel=9, note=35, velocity=64, time=0),\n",
      "    Message('note_off', channel=9, note=42, velocity=64, time=0),\n",
      "    Message('note_on', channel=9, note=42, velocity=100, time=60),\n",
      "    Message('note_off', channel=9, note=42, velocity=64, time=60),\n",
      "    Message('note_on', channel=9, note=42, velocity=100, time=60),\n",
      "    Message('note_on', channel=9, note=36, velocity=100, time=0),\n",
      "    Message('note_on', channel=9, note=35, velocity=100, time=0),\n",
      "    Message('note_off', channel=9, note=35, velocity=64, time=60),\n",
      "    Message('note_off', channel=9, note=36, velocity=64, time=0),\n",
      "    Message('note_off', channel=9, note=42, velocity=64, time=0),\n",
      "    Message('note_on', channel=9, note=42, velocity=100, time=60),\n",
      "    Message('note_off', channel=9, note=42, velocity=64, time=60),\n",
      "    Message('note_on', channel=9, note=42, velocity=100, time=60),\n",
      "    Message('note_on', channel=9, note=38, velocity=100, time=0),\n",
      "    Message('note_on', channel=9, note=40, velocity=100, time=0),\n",
      "    Message('note_off', channel=9, note=40, velocity=64, time=60),\n",
      "    Message('note_off', channel=9, note=38, velocity=64, time=0),\n",
      "    Message('note_off', channel=9, note=42, velocity=64, time=0),\n",
      "    Message('note_on', channel=9, note=42, velocity=100, time=60),\n",
      "    Message('note_off', channel=9, note=42, velocity=64, time=60),\n",
      "    Message('note_on', channel=9, note=42, velocity=100, time=60),\n",
      "    Message('note_off', channel=9, note=42, velocity=64, time=60),\n",
      "    Message('note_on', channel=9, note=42, velocity=100, time=60),\n",
      "    Message('note_on', channel=9, note=36, velocity=100, time=0),\n",
      "    Message('note_on', channel=9, note=35, velocity=100, time=0),\n",
      "    Message('note_off', channel=9, note=35, velocity=64, time=60),\n",
      "    Message('note_off', channel=9, note=36, velocity=64, time=0),\n",
      "    Message('note_off', channel=9, note=42, velocity=64, time=0),\n",
      "    Message('note_on', channel=9, note=42, velocity=100, time=60),\n",
      "    Message('note_off', channel=9, note=42, velocity=64, time=60),\n",
      "    Message('note_on', channel=9, note=42, velocity=100, time=60),\n",
      "    Message('note_off', channel=9, note=42, velocity=64, time=60),\n",
      "    Message('note_on', channel=9, note=42, velocity=100, time=60),\n",
      "    Message('note_on', channel=9, note=36, velocity=100, time=0),\n",
      "    Message('note_on', channel=9, note=35, velocity=100, time=0),\n",
      "    Message('note_off', channel=9, note=35, velocity=64, time=60),\n",
      "    Message('note_off', channel=9, note=36, velocity=64, time=0),\n",
      "    Message('note_off', channel=9, note=42, velocity=64, time=0),\n",
      "    Message('note_on', channel=9, note=42, velocity=100, time=60),\n",
      "    Message('note_off', channel=9, note=42, velocity=64, time=60),\n",
      "    Message('note_on', channel=9, note=42, velocity=100, time=60),\n",
      "    Message('note_on', channel=9, note=40, velocity=100, time=0),\n",
      "    Message('note_on', channel=9, note=38, velocity=100, time=0),\n",
      "    Message('note_off', channel=9, note=38, velocity=64, time=60),\n",
      "    Message('note_off', channel=9, note=40, velocity=64, time=0),\n",
      "    Message('note_off', channel=9, note=42, velocity=64, time=0),\n",
      "    Message('note_on', channel=9, note=42, velocity=100, time=60),\n",
      "    Message('note_off', channel=9, note=42, velocity=64, time=60),\n",
      "    Message('note_on', channel=9, note=42, velocity=100, time=60),\n",
      "    Message('note_off', channel=9, note=42, velocity=64, time=60),\n",
      "    Message('note_on', channel=9, note=42, velocity=100, time=60),\n",
      "    Message('note_off', channel=9, note=42, velocity=64, time=60),\n",
      "    Message('note_on', channel=9, note=42, velocity=100, time=60),\n",
      "    Message('note_on', channel=9, note=35, velocity=100, time=0),\n",
      "    Message('note_on', channel=9, note=36, velocity=100, time=0),\n",
      "    Message('note_off', channel=9, note=36, velocity=64, time=60),\n",
      "    Message('note_off', channel=9, note=35, velocity=64, time=0),\n",
      "    Message('note_off', channel=9, note=42, velocity=64, time=0),\n",
      "    Message('note_on', channel=9, note=42, velocity=100, time=60),\n",
      "    Message('note_off', channel=9, note=42, velocity=64, time=60),\n",
      "    Message('note_on', channel=9, note=42, velocity=100, time=60),\n",
      "    Message('note_on', channel=9, note=36, velocity=100, time=0),\n",
      "    Message('note_on', channel=9, note=35, velocity=100, time=0),\n",
      "    Message('note_off', channel=9, note=35, velocity=64, time=60),\n",
      "    Message('note_off', channel=9, note=36, velocity=64, time=0),\n",
      "    Message('note_off', channel=9, note=42, velocity=64, time=0),\n",
      "    Message('note_on', channel=9, note=42, velocity=100, time=60),\n",
      "    Message('note_off', channel=9, note=42, velocity=64, time=60),\n",
      "    Message('note_on', channel=9, note=42, velocity=100, time=60),\n",
      "    Message('note_on', channel=9, note=38, velocity=100, time=0),\n",
      "    Message('note_on', channel=9, note=40, velocity=100, time=0),\n",
      "    Message('note_off', channel=9, note=40, velocity=64, time=60),\n",
      "    Message('note_off', channel=9, note=38, velocity=64, time=0),\n",
      "    Message('note_off', channel=9, note=42, velocity=64, time=0),\n",
      "    Message('note_on', channel=9, note=42, velocity=100, time=60),\n",
      "    Message('note_off', channel=9, note=42, velocity=64, time=60),\n",
      "    Message('note_on', channel=9, note=42, velocity=100, time=60),\n",
      "    Message('note_off', channel=9, note=42, velocity=64, time=60),\n",
      "    Message('note_on', channel=9, note=42, velocity=100, time=60),\n",
      "    Message('note_on', channel=9, note=36, velocity=100, time=0),\n",
      "    Message('note_on', channel=9, note=35, velocity=100, time=0),\n",
      "    Message('note_off', channel=9, note=35, velocity=64, time=60),\n",
      "    Message('note_off', channel=9, note=36, velocity=64, time=0),\n",
      "    Message('note_off', channel=9, note=42, velocity=64, time=0),\n",
      "    Message('note_on', channel=9, note=42, velocity=100, time=60),\n",
      "    Message('note_off', channel=9, note=42, velocity=64, time=60),\n",
      "    Message('note_on', channel=9, note=42, velocity=100, time=60),\n",
      "    Message('note_off', channel=9, note=42, velocity=64, time=60),\n",
      "    Message('note_on', channel=9, note=42, velocity=100, time=60),\n",
      "    Message('note_on', channel=9, note=36, velocity=100, time=0),\n",
      "    Message('note_on', channel=9, note=35, velocity=100, time=0),\n",
      "    Message('note_off', channel=9, note=35, velocity=64, time=60),\n",
      "    Message('note_off', channel=9, note=36, velocity=64, time=0),\n",
      "    Message('note_off', channel=9, note=42, velocity=64, time=0),\n",
      "    Message('note_on', channel=9, note=42, velocity=100, time=60),\n",
      "    Message('note_off', channel=9, note=42, velocity=64, time=60),\n",
      "    Message('note_on', channel=9, note=42, velocity=100, time=60),\n",
      "    Message('note_on', channel=9, note=40, velocity=100, time=0),\n",
      "    Message('note_on', channel=9, note=38, velocity=100, time=0),\n",
      "    Message('note_off', channel=9, note=38, velocity=64, time=60),\n",
      "    Message('note_off', channel=9, note=40, velocity=64, time=0),\n",
      "    Message('note_off', channel=9, note=42, velocity=64, time=0),\n",
      "    Message('note_on', channel=9, note=42, velocity=100, time=60),\n",
      "    Message('note_off', channel=9, note=42, velocity=64, time=60),\n",
      "    Message('note_on', channel=9, note=42, velocity=100, time=60),\n",
      "    Message('note_off', channel=9, note=42, velocity=64, time=60),\n",
      "    Message('note_on', channel=9, note=42, velocity=100, time=60),\n",
      "    Message('note_off', channel=9, note=42, velocity=64, time=60),\n",
      "    Message('note_on', channel=9, note=42, velocity=100, time=60),\n",
      "    Message('note_on', channel=9, note=35, velocity=100, time=0),\n",
      "    Message('note_on', channel=9, note=36, velocity=100, time=0),\n",
      "    Message('note_off', channel=9, note=36, velocity=64, time=60),\n",
      "    Message('note_off', channel=9, note=35, velocity=64, time=0),\n",
      "    Message('note_off', channel=9, note=42, velocity=64, time=0),\n",
      "    Message('note_on', channel=9, note=42, velocity=100, time=60),\n",
      "    Message('note_off', channel=9, note=42, velocity=64, time=60),\n",
      "    Message('note_on', channel=9, note=42, velocity=100, time=60),\n",
      "    Message('note_on', channel=9, note=36, velocity=100, time=0),\n",
      "    Message('note_on', channel=9, note=35, velocity=100, time=0),\n",
      "    Message('note_off', channel=9, note=35, velocity=64, time=60),\n",
      "    Message('note_off', channel=9, note=36, velocity=64, time=0),\n",
      "    Message('note_off', channel=9, note=42, velocity=64, time=0),\n",
      "    Message('note_on', channel=9, note=42, velocity=100, time=60),\n",
      "    Message('note_off', channel=9, note=42, velocity=64, time=60),\n",
      "    Message('note_on', channel=9, note=42, velocity=100, time=60),\n",
      "    Message('note_on', channel=9, note=38, velocity=100, time=0),\n",
      "    Message('note_on', channel=9, note=40, velocity=100, time=0),\n",
      "    Message('note_off', channel=9, note=40, velocity=64, time=60),\n",
      "    Message('note_off', channel=9, note=38, velocity=64, time=0),\n",
      "    Message('note_off', channel=9, note=42, velocity=64, time=0),\n",
      "    Message('note_on', channel=9, note=42, velocity=100, time=60),\n",
      "    Message('note_off', channel=9, note=42, velocity=64, time=60),\n",
      "    Message('note_on', channel=9, note=42, velocity=100, time=60),\n",
      "    Message('note_off', channel=9, note=42, velocity=64, time=60),\n",
      "    Message('note_on', channel=9, note=42, velocity=100, time=60),\n",
      "    Message('note_on', channel=9, note=36, velocity=100, time=0),\n",
      "    Message('note_on', channel=9, note=35, velocity=100, time=0),\n",
      "    Message('note_off', channel=9, note=35, velocity=64, time=60),\n",
      "    Message('note_off', channel=9, note=36, velocity=64, time=0),\n",
      "    Message('note_off', channel=9, note=42, velocity=64, time=0),\n",
      "    Message('note_on', channel=9, note=42, velocity=100, time=60),\n",
      "    Message('note_off', channel=9, note=42, velocity=64, time=60),\n",
      "    Message('note_on', channel=9, note=42, velocity=100, time=60),\n",
      "    Message('note_off', channel=9, note=42, velocity=64, time=60),\n",
      "    Message('note_on', channel=9, note=42, velocity=100, time=60),\n",
      "    Message('note_on', channel=9, note=36, velocity=100, time=0),\n",
      "    Message('note_on', channel=9, note=35, velocity=100, time=0),\n",
      "    Message('note_off', channel=9, note=35, velocity=64, time=60),\n",
      "    Message('note_off', channel=9, note=36, velocity=64, time=0),\n",
      "    Message('note_off', channel=9, note=42, velocity=64, time=0),\n",
      "    Message('note_on', channel=9, note=42, velocity=100, time=60),\n",
      "    Message('note_off', channel=9, note=42, velocity=64, time=60),\n",
      "    Message('note_on', channel=9, note=42, velocity=100, time=60),\n",
      "    Message('note_on', channel=9, note=40, velocity=100, time=0),\n",
      "    Message('note_on', channel=9, note=38, velocity=100, time=0),\n",
      "    Message('note_off', channel=9, note=38, velocity=64, time=60),\n",
      "    Message('note_off', channel=9, note=40, velocity=64, time=0),\n",
      "    Message('note_off', channel=9, note=42, velocity=64, time=0),\n",
      "    Message('note_on', channel=9, note=42, velocity=100, time=60),\n",
      "    Message('note_off', channel=9, note=42, velocity=64, time=60),\n",
      "    Message('note_on', channel=9, note=42, velocity=100, time=60),\n",
      "    Message('note_off', channel=9, note=42, velocity=64, time=60),\n",
      "    Message('note_on', channel=9, note=42, velocity=100, time=60),\n",
      "    Message('note_off', channel=9, note=42, velocity=64, time=60),\n",
      "    Message('note_on', channel=9, note=42, velocity=100, time=60),\n",
      "    Message('note_on', channel=9, note=35, velocity=100, time=0),\n",
      "    Message('note_on', channel=9, note=36, velocity=100, time=0),\n",
      "    Message('note_off', channel=9, note=36, velocity=64, time=60),\n",
      "    Message('note_off', channel=9, note=35, velocity=64, time=0),\n",
      "    Message('note_off', channel=9, note=42, velocity=64, time=0),\n",
      "    Message('note_on', channel=9, note=42, velocity=100, time=60),\n",
      "    Message('note_off', channel=9, note=42, velocity=64, time=60),\n",
      "    Message('note_on', channel=9, note=42, velocity=100, time=60),\n",
      "    Message('note_on', channel=9, note=36, velocity=100, time=0),\n",
      "    Message('note_on', channel=9, note=35, velocity=100, time=0),\n",
      "    Message('note_off', channel=9, note=35, velocity=64, time=60),\n",
      "    Message('note_off', channel=9, note=36, velocity=64, time=0),\n",
      "    Message('note_off', channel=9, note=42, velocity=64, time=0),\n",
      "    Message('note_on', channel=9, note=42, velocity=100, time=60),\n",
      "    Message('note_off', channel=9, note=42, velocity=64, time=60),\n",
      "    Message('note_on', channel=9, note=42, velocity=100, time=60),\n",
      "    Message('note_on', channel=9, note=38, velocity=100, time=0),\n",
      "    Message('note_on', channel=9, note=40, velocity=100, time=0),\n",
      "    Message('note_off', channel=9, note=40, velocity=64, time=60),\n",
      "    Message('note_off', channel=9, note=38, velocity=64, time=0),\n",
      "    Message('note_off', channel=9, note=42, velocity=64, time=0),\n",
      "    Message('note_on', channel=9, note=42, velocity=100, time=60),\n",
      "    Message('note_off', channel=9, note=42, velocity=64, time=60),\n",
      "    Message('note_on', channel=9, note=42, velocity=100, time=60),\n",
      "    Message('note_off', channel=9, note=42, velocity=64, time=60),\n",
      "    Message('note_on', channel=9, note=42, velocity=100, time=60),\n",
      "    Message('note_on', channel=9, note=36, velocity=100, time=0),\n",
      "    Message('note_on', channel=9, note=35, velocity=100, time=0),\n",
      "    Message('note_off', channel=9, note=35, velocity=64, time=60),\n",
      "    Message('note_off', channel=9, note=36, velocity=64, time=0),\n",
      "    Message('note_off', channel=9, note=42, velocity=64, time=0),\n",
      "    Message('note_on', channel=9, note=42, velocity=100, time=60),\n",
      "    Message('note_off', channel=9, note=42, velocity=64, time=60),\n",
      "    Message('note_on', channel=9, note=42, velocity=100, time=60),\n",
      "    Message('note_off', channel=9, note=42, velocity=64, time=60),\n",
      "    Message('note_on', channel=9, note=42, velocity=100, time=60),\n",
      "    Message('note_on', channel=9, note=36, velocity=100, time=0),\n",
      "    Message('note_on', channel=9, note=35, velocity=100, time=0),\n",
      "    Message('note_off', channel=9, note=35, velocity=64, time=60),\n",
      "    Message('note_off', channel=9, note=36, velocity=64, time=0),\n",
      "    Message('note_off', channel=9, note=42, velocity=64, time=0),\n",
      "    Message('note_on', channel=9, note=42, velocity=100, time=60),\n",
      "    Message('note_off', channel=9, note=42, velocity=64, time=60),\n",
      "    Message('note_on', channel=9, note=42, velocity=100, time=60),\n",
      "    Message('note_on', channel=9, note=40, velocity=100, time=0),\n",
      "    Message('note_on', channel=9, note=38, velocity=100, time=0),\n",
      "    Message('note_off', channel=9, note=38, velocity=64, time=60),\n",
      "    Message('note_off', channel=9, note=40, velocity=64, time=0),\n",
      "    Message('note_off', channel=9, note=42, velocity=64, time=0),\n",
      "    Message('note_on', channel=9, note=42, velocity=100, time=60),\n",
      "    Message('note_off', channel=9, note=42, velocity=64, time=60),\n",
      "    Message('note_on', channel=9, note=42, velocity=100, time=60),\n",
      "    Message('note_off', channel=9, note=42, velocity=64, time=60),\n",
      "    Message('note_on', channel=9, note=42, velocity=100, time=60),\n",
      "    Message('note_off', channel=9, note=42, velocity=64, time=60),\n",
      "    Message('note_on', channel=9, note=42, velocity=100, time=60),\n",
      "    Message('note_on', channel=9, note=35, velocity=100, time=0),\n",
      "    Message('note_on', channel=9, note=36, velocity=100, time=0),\n",
      "    Message('note_off', channel=9, note=36, velocity=64, time=60),\n",
      "    Message('note_off', channel=9, note=35, velocity=64, time=0),\n",
      "    Message('note_off', channel=9, note=42, velocity=64, time=0),\n",
      "    Message('note_on', channel=9, note=42, velocity=100, time=60),\n",
      "    Message('note_off', channel=9, note=42, velocity=64, time=60),\n",
      "    Message('note_on', channel=9, note=42, velocity=100, time=60),\n",
      "    Message('note_on', channel=9, note=36, velocity=100, time=0),\n",
      "    Message('note_on', channel=9, note=35, velocity=100, time=0),\n",
      "    Message('note_off', channel=9, note=35, velocity=64, time=60),\n",
      "    Message('note_off', channel=9, note=36, velocity=64, time=0),\n",
      "    Message('note_off', channel=9, note=42, velocity=64, time=0),\n",
      "    Message('note_on', channel=9, note=42, velocity=100, time=60),\n",
      "    Message('note_off', channel=9, note=42, velocity=64, time=60),\n",
      "    Message('note_on', channel=9, note=42, velocity=100, time=60),\n",
      "    Message('note_on', channel=9, note=38, velocity=100, time=0),\n",
      "    Message('note_on', channel=9, note=40, velocity=100, time=0),\n",
      "    Message('note_off', channel=9, note=40, velocity=64, time=60),\n",
      "    Message('note_off', channel=9, note=38, velocity=64, time=0),\n",
      "    Message('note_off', channel=9, note=42, velocity=64, time=0),\n",
      "    Message('note_on', channel=9, note=42, velocity=100, time=60),\n",
      "    Message('note_off', channel=9, note=42, velocity=64, time=60),\n",
      "    Message('note_on', channel=9, note=42, velocity=100, time=60),\n",
      "    Message('note_off', channel=9, note=42, velocity=64, time=60),\n",
      "    Message('note_on', channel=9, note=42, velocity=100, time=60),\n",
      "    Message('note_on', channel=9, note=36, velocity=100, time=0),\n",
      "    Message('note_on', channel=9, note=35, velocity=100, time=0),\n",
      "    Message('note_off', channel=9, note=35, velocity=64, time=60),\n",
      "    Message('note_off', channel=9, note=36, velocity=64, time=0),\n",
      "    Message('note_off', channel=9, note=42, velocity=64, time=0),\n",
      "    Message('note_on', channel=9, note=42, velocity=100, time=60),\n",
      "    Message('note_off', channel=9, note=42, velocity=64, time=60),\n",
      "    Message('note_on', channel=9, note=42, velocity=100, time=60),\n",
      "    Message('note_off', channel=9, note=42, velocity=64, time=60),\n",
      "    Message('note_on', channel=9, note=42, velocity=100, time=60),\n",
      "    Message('note_on', channel=9, note=36, velocity=100, time=0),\n",
      "    Message('note_on', channel=9, note=35, velocity=100, time=0),\n",
      "    Message('note_off', channel=9, note=35, velocity=64, time=60),\n",
      "    Message('note_off', channel=9, note=36, velocity=64, time=0),\n",
      "    Message('note_off', channel=9, note=42, velocity=64, time=0),\n",
      "    Message('note_on', channel=9, note=42, velocity=100, time=60),\n",
      "    Message('note_off', channel=9, note=42, velocity=64, time=60),\n",
      "    Message('note_on', channel=9, note=42, velocity=100, time=60),\n",
      "    Message('note_on', channel=9, note=40, velocity=100, time=0),\n",
      "    Message('note_on', channel=9, note=38, velocity=100, time=0),\n",
      "    Message('note_off', channel=9, note=38, velocity=64, time=60),\n",
      "    Message('note_off', channel=9, note=40, velocity=64, time=0),\n",
      "    Message('note_off', channel=9, note=42, velocity=64, time=0),\n",
      "    Message('note_on', channel=9, note=42, velocity=100, time=60),\n",
      "    Message('note_off', channel=9, note=42, velocity=64, time=60),\n",
      "    Message('note_on', channel=9, note=42, velocity=100, time=60),\n",
      "    Message('note_off', channel=9, note=42, velocity=64, time=60),\n",
      "    Message('note_on', channel=9, note=42, velocity=100, time=60),\n",
      "    Message('note_off', channel=9, note=42, velocity=64, time=60),\n",
      "    Message('note_on', channel=9, note=35, velocity=100, time=60),\n",
      "    Message('note_on', channel=9, note=36, velocity=100, time=0),\n",
      "    Message('note_off', channel=9, note=36, velocity=64, time=60),\n",
      "    Message('note_off', channel=9, note=35, velocity=64, time=0),\n",
      "    Message('note_on', channel=9, note=35, velocity=100, time=180),\n",
      "    Message('note_on', channel=9, note=36, velocity=100, time=0),\n",
      "    Message('note_off', channel=9, note=36, velocity=64, time=60),\n",
      "    Message('note_off', channel=9, note=35, velocity=64, time=0),\n",
      "    Message('note_on', channel=9, note=39, velocity=100, time=180),\n",
      "    Message('note_off', channel=9, note=39, velocity=64, time=60),\n",
      "    Message('note_on', channel=9, note=35, velocity=100, time=300),\n",
      "    Message('note_on', channel=9, note=36, velocity=100, time=0),\n",
      "    Message('note_off', channel=9, note=36, velocity=64, time=60),\n",
      "    Message('note_off', channel=9, note=35, velocity=64, time=0),\n",
      "    Message('note_on', channel=9, note=35, velocity=100, time=300),\n",
      "    Message('note_on', channel=9, note=36, velocity=100, time=0),\n",
      "    Message('note_off', channel=9, note=36, velocity=64, time=60),\n",
      "    Message('note_off', channel=9, note=35, velocity=64, time=0),\n",
      "    Message('note_on', channel=9, note=38, velocity=100, time=180),\n",
      "    Message('note_on', channel=9, note=40, velocity=100, time=0),\n",
      "    Message('note_off', channel=9, note=40, velocity=64, time=60),\n",
      "    Message('note_off', channel=9, note=38, velocity=64, time=0),\n",
      "    Message('note_on', channel=9, note=35, velocity=100, time=180),\n",
      "    Message('note_on', channel=9, note=36, velocity=100, time=0),\n",
      "    Message('note_off', channel=9, note=36, velocity=64, time=60),\n",
      "    Message('note_off', channel=9, note=35, velocity=64, time=0),\n",
      "    Message('note_on', channel=9, note=38, velocity=100, time=11220),\n",
      "    Message('note_on', channel=9, note=40, velocity=100, time=0),\n",
      "    Message('note_off', channel=9, note=40, velocity=64, time=60),\n",
      "    Message('note_off', channel=9, note=38, velocity=64, time=0),\n",
      "    Message('note_on', channel=9, note=35, velocity=100, time=300),\n",
      "    Message('note_on', channel=9, note=36, velocity=100, time=0),\n",
      "    Message('note_off', channel=9, note=36, velocity=64, time=60),\n",
      "    Message('note_off', channel=9, note=35, velocity=64, time=0),\n",
      "    Message('note_on', channel=9, note=42, velocity=100, time=60),\n",
      "    Message('note_on', channel=9, note=35, velocity=100, time=0),\n",
      "    Message('note_on', channel=9, note=36, velocity=100, time=0),\n",
      "    Message('note_off', channel=9, note=36, velocity=64, time=60),\n",
      "    Message('note_off', channel=9, note=35, velocity=64, time=0),\n",
      "    Message('note_off', channel=9, note=42, velocity=64, time=0),\n",
      "    Message('note_on', channel=9, note=42, velocity=100, time=60),\n",
      "    Message('note_off', channel=9, note=42, velocity=64, time=60),\n",
      "    Message('note_on', channel=9, note=42, velocity=100, time=60),\n",
      "    Message('note_on', channel=9, note=36, velocity=100, time=0),\n",
      "    Message('note_on', channel=9, note=35, velocity=100, time=0),\n",
      "    Message('note_off', channel=9, note=35, velocity=64, time=60),\n",
      "    Message('note_off', channel=9, note=36, velocity=64, time=0),\n",
      "    Message('note_off', channel=9, note=42, velocity=64, time=0),\n",
      "    Message('note_on', channel=9, note=42, velocity=100, time=60),\n",
      "    Message('note_off', channel=9, note=42, velocity=64, time=60),\n",
      "    Message('note_on', channel=9, note=42, velocity=100, time=60),\n",
      "    Message('note_on', channel=9, note=38, velocity=100, time=0),\n",
      "    Message('note_on', channel=9, note=40, velocity=100, time=0),\n",
      "    Message('note_off', channel=9, note=40, velocity=64, time=60),\n",
      "    Message('note_off', channel=9, note=38, velocity=64, time=0),\n",
      "    Message('note_off', channel=9, note=42, velocity=64, time=0),\n",
      "    Message('note_on', channel=9, note=42, velocity=100, time=60),\n",
      "    Message('note_off', channel=9, note=42, velocity=64, time=60),\n",
      "    Message('note_on', channel=9, note=42, velocity=100, time=60),\n",
      "    Message('note_off', channel=9, note=42, velocity=64, time=60),\n",
      "    Message('note_on', channel=9, note=42, velocity=100, time=60),\n",
      "    Message('note_on', channel=9, note=36, velocity=100, time=0),\n",
      "    Message('note_on', channel=9, note=35, velocity=100, time=0),\n",
      "    Message('note_off', channel=9, note=35, velocity=64, time=60),\n",
      "    Message('note_off', channel=9, note=36, velocity=64, time=0),\n",
      "    Message('note_off', channel=9, note=42, velocity=64, time=0),\n",
      "    Message('note_on', channel=9, note=42, velocity=100, time=60),\n",
      "    Message('note_off', channel=9, note=42, velocity=64, time=60),\n",
      "    Message('note_on', channel=9, note=42, velocity=100, time=60),\n",
      "    Message('note_off', channel=9, note=42, velocity=64, time=60),\n",
      "    Message('note_on', channel=9, note=42, velocity=100, time=60),\n",
      "    Message('note_on', channel=9, note=36, velocity=100, time=0),\n",
      "    Message('note_on', channel=9, note=35, velocity=100, time=0),\n",
      "    Message('note_off', channel=9, note=35, velocity=64, time=60),\n",
      "    Message('note_off', channel=9, note=36, velocity=64, time=0),\n",
      "    Message('note_off', channel=9, note=42, velocity=64, time=0),\n",
      "    Message('note_on', channel=9, note=42, velocity=100, time=60),\n",
      "    Message('note_off', channel=9, note=42, velocity=64, time=60),\n",
      "    Message('note_on', channel=9, note=42, velocity=100, time=60),\n",
      "    Message('note_on', channel=9, note=40, velocity=100, time=0),\n",
      "    Message('note_on', channel=9, note=38, velocity=100, time=0),\n",
      "    Message('note_off', channel=9, note=38, velocity=64, time=60),\n",
      "    Message('note_off', channel=9, note=40, velocity=64, time=0),\n",
      "    Message('note_off', channel=9, note=42, velocity=64, time=0),\n",
      "    Message('note_on', channel=9, note=42, velocity=100, time=60),\n",
      "    Message('note_off', channel=9, note=42, velocity=64, time=60),\n",
      "    Message('note_on', channel=9, note=42, velocity=100, time=60),\n",
      "    Message('note_off', channel=9, note=42, velocity=64, time=60),\n",
      "    Message('note_on', channel=9, note=42, velocity=100, time=60),\n",
      "    Message('note_off', channel=9, note=42, velocity=64, time=60),\n",
      "    Message('note_on', channel=9, note=42, velocity=100, time=60),\n",
      "    Message('note_on', channel=9, note=35, velocity=100, time=0),\n",
      "    Message('note_on', channel=9, note=36, velocity=100, time=0),\n",
      "    Message('note_off', channel=9, note=36, velocity=64, time=60),\n",
      "    Message('note_off', channel=9, note=35, velocity=64, time=0),\n",
      "    Message('note_off', channel=9, note=42, velocity=64, time=0),\n",
      "    Message('note_on', channel=9, note=42, velocity=100, time=60),\n",
      "    Message('note_off', channel=9, note=42, velocity=64, time=60),\n",
      "    Message('note_on', channel=9, note=42, velocity=100, time=60),\n",
      "    Message('note_on', channel=9, note=36, velocity=100, time=0),\n",
      "    Message('note_on', channel=9, note=35, velocity=100, time=0),\n",
      "    Message('note_off', channel=9, note=35, velocity=64, time=60),\n",
      "    Message('note_off', channel=9, note=36, velocity=64, time=0),\n",
      "    Message('note_off', channel=9, note=42, velocity=64, time=0),\n",
      "    Message('note_on', channel=9, note=42, velocity=100, time=60),\n",
      "    Message('note_off', channel=9, note=42, velocity=64, time=60),\n",
      "    Message('note_on', channel=9, note=42, velocity=100, time=60),\n",
      "    Message('note_on', channel=9, note=38, velocity=100, time=0),\n",
      "    Message('note_on', channel=9, note=40, velocity=100, time=0),\n",
      "    Message('note_off', channel=9, note=40, velocity=64, time=60),\n",
      "    Message('note_off', channel=9, note=38, velocity=64, time=0),\n",
      "    Message('note_off', channel=9, note=42, velocity=64, time=0),\n",
      "    Message('note_on', channel=9, note=42, velocity=100, time=60),\n",
      "    Message('note_off', channel=9, note=42, velocity=64, time=60),\n",
      "    Message('note_on', channel=9, note=42, velocity=100, time=60),\n",
      "    Message('note_off', channel=9, note=42, velocity=64, time=60),\n",
      "    Message('note_on', channel=9, note=42, velocity=100, time=60),\n",
      "    Message('note_on', channel=9, note=36, velocity=100, time=0),\n",
      "    Message('note_on', channel=9, note=35, velocity=100, time=0),\n",
      "    Message('note_off', channel=9, note=35, velocity=64, time=60),\n",
      "    Message('note_off', channel=9, note=36, velocity=64, time=0),\n",
      "    Message('note_off', channel=9, note=42, velocity=64, time=0),\n",
      "    Message('note_on', channel=9, note=42, velocity=100, time=60),\n",
      "    Message('note_off', channel=9, note=42, velocity=64, time=60),\n",
      "    Message('note_on', channel=9, note=42, velocity=100, time=60),\n",
      "    Message('note_off', channel=9, note=42, velocity=64, time=60),\n",
      "    Message('note_on', channel=9, note=42, velocity=100, time=60),\n",
      "    Message('note_on', channel=9, note=36, velocity=100, time=0),\n",
      "    Message('note_on', channel=9, note=35, velocity=100, time=0),\n",
      "    Message('note_off', channel=9, note=35, velocity=64, time=60),\n",
      "    Message('note_off', channel=9, note=36, velocity=64, time=0),\n",
      "    Message('note_off', channel=9, note=42, velocity=64, time=0),\n",
      "    Message('note_on', channel=9, note=42, velocity=100, time=60),\n",
      "    Message('note_off', channel=9, note=42, velocity=64, time=60),\n",
      "    Message('note_on', channel=9, note=42, velocity=100, time=60),\n",
      "    Message('note_on', channel=9, note=40, velocity=100, time=0),\n",
      "    Message('note_on', channel=9, note=38, velocity=100, time=0),\n",
      "    Message('note_off', channel=9, note=38, velocity=64, time=60),\n",
      "    Message('note_off', channel=9, note=40, velocity=64, time=0),\n",
      "    Message('note_off', channel=9, note=42, velocity=64, time=0),\n",
      "    Message('note_on', channel=9, note=42, velocity=100, time=60),\n",
      "    Message('note_off', channel=9, note=42, velocity=64, time=60),\n",
      "    Message('note_on', channel=9, note=42, velocity=100, time=60),\n",
      "    Message('note_off', channel=9, note=42, velocity=64, time=60),\n",
      "    Message('note_on', channel=9, note=42, velocity=100, time=60),\n",
      "    Message('note_off', channel=9, note=42, velocity=64, time=60),\n",
      "    Message('note_on', channel=9, note=42, velocity=100, time=60),\n",
      "    Message('note_on', channel=9, note=35, velocity=100, time=0),\n",
      "    Message('note_on', channel=9, note=36, velocity=100, time=0),\n",
      "    Message('note_off', channel=9, note=36, velocity=64, time=60),\n",
      "    Message('note_off', channel=9, note=35, velocity=64, time=0),\n",
      "    Message('note_off', channel=9, note=42, velocity=64, time=0),\n",
      "    Message('note_on', channel=9, note=42, velocity=100, time=60),\n",
      "    Message('note_off', channel=9, note=42, velocity=64, time=60),\n",
      "    Message('note_on', channel=9, note=42, velocity=100, time=60),\n",
      "    Message('note_on', channel=9, note=36, velocity=100, time=0),\n",
      "    Message('note_on', channel=9, note=35, velocity=100, time=0),\n",
      "    Message('note_off', channel=9, note=35, velocity=64, time=60),\n",
      "    Message('note_off', channel=9, note=36, velocity=64, time=0),\n",
      "    Message('note_off', channel=9, note=42, velocity=64, time=0),\n",
      "    Message('note_on', channel=9, note=42, velocity=100, time=60),\n",
      "    Message('note_off', channel=9, note=42, velocity=64, time=60),\n",
      "    Message('note_on', channel=9, note=42, velocity=100, time=60),\n",
      "    Message('note_on', channel=9, note=38, velocity=100, time=0),\n",
      "    Message('note_on', channel=9, note=40, velocity=100, time=0),\n",
      "    Message('note_off', channel=9, note=40, velocity=64, time=60),\n",
      "    Message('note_off', channel=9, note=38, velocity=64, time=0),\n",
      "    Message('note_off', channel=9, note=42, velocity=64, time=0),\n",
      "    Message('note_on', channel=9, note=42, velocity=100, time=60),\n",
      "    Message('note_off', channel=9, note=42, velocity=64, time=60),\n",
      "    Message('note_on', channel=9, note=42, velocity=100, time=60),\n",
      "    Message('note_off', channel=9, note=42, velocity=64, time=60),\n",
      "    Message('note_on', channel=9, note=42, velocity=100, time=60),\n",
      "    Message('note_on', channel=9, note=36, velocity=100, time=0),\n",
      "    Message('note_on', channel=9, note=35, velocity=100, time=0),\n",
      "    Message('note_off', channel=9, note=35, velocity=64, time=60),\n",
      "    Message('note_off', channel=9, note=36, velocity=64, time=0),\n",
      "    Message('note_off', channel=9, note=42, velocity=64, time=0),\n",
      "    Message('note_on', channel=9, note=42, velocity=100, time=60),\n",
      "    Message('note_off', channel=9, note=42, velocity=64, time=60),\n",
      "    Message('note_on', channel=9, note=42, velocity=100, time=60),\n",
      "    Message('note_off', channel=9, note=42, velocity=64, time=60),\n",
      "    Message('note_on', channel=9, note=42, velocity=100, time=60),\n",
      "    Message('note_on', channel=9, note=36, velocity=100, time=0),\n",
      "    Message('note_on', channel=9, note=35, velocity=100, time=0),\n",
      "    Message('note_off', channel=9, note=35, velocity=64, time=60),\n",
      "    Message('note_off', channel=9, note=36, velocity=64, time=0),\n",
      "    Message('note_off', channel=9, note=42, velocity=64, time=0),\n",
      "    Message('note_on', channel=9, note=42, velocity=100, time=60),\n",
      "    Message('note_off', channel=9, note=42, velocity=64, time=60),\n",
      "    Message('note_on', channel=9, note=42, velocity=100, time=60),\n",
      "    Message('note_on', channel=9, note=40, velocity=100, time=0),\n",
      "    Message('note_on', channel=9, note=38, velocity=100, time=0),\n",
      "    Message('note_off', channel=9, note=38, velocity=64, time=60),\n",
      "    Message('note_off', channel=9, note=40, velocity=64, time=0),\n",
      "    Message('note_off', channel=9, note=42, velocity=64, time=0),\n",
      "    Message('note_on', channel=9, note=42, velocity=100, time=60),\n",
      "    Message('note_off', channel=9, note=42, velocity=64, time=60),\n",
      "    Message('note_on', channel=9, note=42, velocity=100, time=60),\n",
      "    Message('note_off', channel=9, note=42, velocity=64, time=60),\n",
      "    Message('note_on', channel=9, note=42, velocity=100, time=60),\n",
      "    Message('note_off', channel=9, note=42, velocity=64, time=60),\n",
      "    Message('note_on', channel=9, note=42, velocity=100, time=60),\n",
      "    Message('note_on', channel=9, note=35, velocity=100, time=0),\n",
      "    Message('note_on', channel=9, note=36, velocity=100, time=0),\n",
      "    Message('note_off', channel=9, note=36, velocity=64, time=60),\n",
      "    Message('note_off', channel=9, note=35, velocity=64, time=0),\n",
      "    Message('note_off', channel=9, note=42, velocity=64, time=0),\n",
      "    Message('note_on', channel=9, note=42, velocity=100, time=60),\n",
      "    Message('note_off', channel=9, note=42, velocity=64, time=60),\n",
      "    Message('note_on', channel=9, note=42, velocity=100, time=60),\n",
      "    Message('note_on', channel=9, note=36, velocity=100, time=0),\n",
      "    Message('note_on', channel=9, note=35, velocity=100, time=0),\n",
      "    Message('note_off', channel=9, note=35, velocity=64, time=60),\n",
      "    Message('note_off', channel=9, note=36, velocity=64, time=0),\n",
      "    Message('note_off', channel=9, note=42, velocity=64, time=0),\n",
      "    Message('note_on', channel=9, note=42, velocity=100, time=60),\n",
      "    Message('note_off', channel=9, note=42, velocity=64, time=60),\n",
      "    Message('note_on', channel=9, note=42, velocity=100, time=60),\n",
      "    Message('note_on', channel=9, note=38, velocity=100, time=0),\n",
      "    Message('note_on', channel=9, note=40, velocity=100, time=0),\n",
      "    Message('note_off', channel=9, note=40, velocity=64, time=60),\n",
      "    Message('note_off', channel=9, note=38, velocity=64, time=0),\n",
      "    Message('note_off', channel=9, note=42, velocity=64, time=0),\n",
      "    Message('note_on', channel=9, note=42, velocity=100, time=60),\n",
      "    Message('note_off', channel=9, note=42, velocity=64, time=60),\n",
      "    Message('note_on', channel=9, note=42, velocity=100, time=60),\n",
      "    Message('note_off', channel=9, note=42, velocity=64, time=60),\n",
      "    Message('note_on', channel=9, note=42, velocity=100, time=60),\n",
      "    Message('note_on', channel=9, note=36, velocity=100, time=0),\n",
      "    Message('note_on', channel=9, note=35, velocity=100, time=0),\n",
      "    Message('note_off', channel=9, note=35, velocity=64, time=60),\n",
      "    Message('note_off', channel=9, note=36, velocity=64, time=0),\n",
      "    Message('note_off', channel=9, note=42, velocity=64, time=0),\n",
      "    Message('note_on', channel=9, note=42, velocity=100, time=60),\n",
      "    Message('note_off', channel=9, note=42, velocity=64, time=60),\n",
      "    Message('note_on', channel=9, note=42, velocity=100, time=60),\n",
      "    Message('note_off', channel=9, note=42, velocity=64, time=60),\n",
      "    Message('note_on', channel=9, note=42, velocity=100, time=60),\n",
      "    Message('note_on', channel=9, note=36, velocity=100, time=0),\n",
      "    Message('note_on', channel=9, note=35, velocity=100, time=0),\n",
      "    Message('note_off', channel=9, note=35, velocity=64, time=60),\n",
      "    Message('note_off', channel=9, note=36, velocity=64, time=0),\n",
      "    Message('note_off', channel=9, note=42, velocity=64, time=0),\n",
      "    Message('note_on', channel=9, note=42, velocity=100, time=60),\n",
      "    Message('note_off', channel=9, note=42, velocity=64, time=60),\n",
      "    Message('note_on', channel=9, note=42, velocity=100, time=60),\n",
      "    Message('note_on', channel=9, note=40, velocity=100, time=0),\n",
      "    Message('note_on', channel=9, note=38, velocity=100, time=0),\n",
      "    Message('note_off', channel=9, note=38, velocity=64, time=60),\n",
      "    Message('note_off', channel=9, note=40, velocity=64, time=0),\n",
      "    Message('note_off', channel=9, note=42, velocity=64, time=0),\n",
      "    Message('note_on', channel=9, note=42, velocity=100, time=60),\n",
      "    Message('note_off', channel=9, note=42, velocity=64, time=60),\n",
      "    Message('note_on', channel=9, note=42, velocity=100, time=60),\n",
      "    Message('note_off', channel=9, note=42, velocity=64, time=60),\n",
      "    Message('note_on', channel=9, note=42, velocity=100, time=60),\n",
      "    Message('note_off', channel=9, note=42, velocity=64, time=60),\n",
      "    Message('note_on', channel=9, note=42, velocity=100, time=60),\n",
      "    Message('note_on', channel=9, note=35, velocity=100, time=0),\n",
      "    Message('note_on', channel=9, note=36, velocity=100, time=0),\n",
      "    Message('note_off', channel=9, note=36, velocity=64, time=60),\n",
      "    Message('note_off', channel=9, note=35, velocity=64, time=0),\n",
      "    Message('note_off', channel=9, note=42, velocity=64, time=0),\n",
      "    Message('note_on', channel=9, note=42, velocity=100, time=60),\n",
      "    Message('note_off', channel=9, note=42, velocity=64, time=60),\n",
      "    Message('note_on', channel=9, note=42, velocity=100, time=60),\n",
      "    Message('note_on', channel=9, note=36, velocity=100, time=0),\n",
      "    Message('note_on', channel=9, note=35, velocity=100, time=0),\n",
      "    Message('note_off', channel=9, note=35, velocity=64, time=60),\n",
      "    Message('note_off', channel=9, note=36, velocity=64, time=0),\n",
      "    Message('note_off', channel=9, note=42, velocity=64, time=0),\n",
      "    Message('note_on', channel=9, note=42, velocity=100, time=60),\n",
      "    Message('note_off', channel=9, note=42, velocity=64, time=60),\n",
      "    Message('note_on', channel=9, note=42, velocity=100, time=60),\n",
      "    Message('note_on', channel=9, note=38, velocity=100, time=0),\n",
      "    Message('note_on', channel=9, note=40, velocity=100, time=0),\n",
      "    Message('note_off', channel=9, note=40, velocity=64, time=60),\n",
      "    Message('note_off', channel=9, note=38, velocity=64, time=0),\n",
      "    Message('note_off', channel=9, note=42, velocity=64, time=0),\n",
      "    Message('note_on', channel=9, note=42, velocity=100, time=60),\n",
      "    Message('note_off', channel=9, note=42, velocity=64, time=60),\n",
      "    Message('note_on', channel=9, note=42, velocity=100, time=60),\n",
      "    Message('note_off', channel=9, note=42, velocity=64, time=60),\n",
      "    Message('note_on', channel=9, note=42, velocity=100, time=60),\n",
      "    Message('note_on', channel=9, note=36, velocity=100, time=0),\n",
      "    Message('note_on', channel=9, note=35, velocity=100, time=0),\n",
      "    Message('note_off', channel=9, note=35, velocity=64, time=60),\n",
      "    Message('note_off', channel=9, note=36, velocity=64, time=0),\n",
      "    Message('note_off', channel=9, note=42, velocity=64, time=0),\n",
      "    Message('note_on', channel=9, note=42, velocity=100, time=60),\n",
      "    Message('note_off', channel=9, note=42, velocity=64, time=60),\n",
      "    Message('note_on', channel=9, note=42, velocity=100, time=60),\n",
      "    Message('note_off', channel=9, note=42, velocity=64, time=60),\n",
      "    Message('note_on', channel=9, note=42, velocity=100, time=60),\n",
      "    Message('note_on', channel=9, note=36, velocity=100, time=0),\n",
      "    Message('note_on', channel=9, note=35, velocity=100, time=0),\n",
      "    Message('note_off', channel=9, note=35, velocity=64, time=60),\n",
      "    Message('note_off', channel=9, note=36, velocity=64, time=0),\n",
      "    Message('note_off', channel=9, note=42, velocity=64, time=0),\n",
      "    Message('note_on', channel=9, note=42, velocity=100, time=60),\n",
      "    Message('note_off', channel=9, note=42, velocity=64, time=60),\n",
      "    Message('note_on', channel=9, note=42, velocity=100, time=60),\n",
      "    Message('note_on', channel=9, note=40, velocity=100, time=0),\n",
      "    Message('note_on', channel=9, note=38, velocity=100, time=0),\n",
      "    Message('note_off', channel=9, note=38, velocity=64, time=60),\n",
      "    Message('note_off', channel=9, note=40, velocity=64, time=0),\n",
      "    Message('note_off', channel=9, note=42, velocity=64, time=0),\n",
      "    Message('note_on', channel=9, note=42, velocity=100, time=60),\n",
      "    Message('note_off', channel=9, note=42, velocity=64, time=60),\n",
      "    Message('note_on', channel=9, note=42, velocity=100, time=60),\n",
      "    Message('note_off', channel=9, note=42, velocity=64, time=60),\n",
      "    Message('note_on', channel=9, note=42, velocity=100, time=60),\n",
      "    Message('note_off', channel=9, note=42, velocity=64, time=60),\n",
      "    Message('note_on', channel=9, note=42, velocity=100, time=60),\n",
      "    Message('note_on', channel=9, note=35, velocity=100, time=0),\n",
      "    Message('note_on', channel=9, note=36, velocity=100, time=0),\n",
      "    Message('note_off', channel=9, note=36, velocity=64, time=60),\n",
      "    Message('note_off', channel=9, note=35, velocity=64, time=0),\n",
      "    Message('note_off', channel=9, note=42, velocity=64, time=0),\n",
      "    Message('note_on', channel=9, note=42, velocity=100, time=60),\n",
      "    Message('note_off', channel=9, note=42, velocity=64, time=60),\n",
      "    Message('note_on', channel=9, note=42, velocity=100, time=60),\n",
      "    Message('note_on', channel=9, note=36, velocity=100, time=0),\n",
      "    Message('note_on', channel=9, note=35, velocity=100, time=0),\n",
      "    Message('note_off', channel=9, note=35, velocity=64, time=60),\n",
      "    Message('note_off', channel=9, note=36, velocity=64, time=0),\n",
      "    Message('note_off', channel=9, note=42, velocity=64, time=0),\n",
      "    Message('note_on', channel=9, note=42, velocity=100, time=60),\n",
      "    Message('note_off', channel=9, note=42, velocity=64, time=60),\n",
      "    Message('note_on', channel=9, note=42, velocity=100, time=60),\n",
      "    Message('note_on', channel=9, note=38, velocity=100, time=0),\n",
      "    Message('note_on', channel=9, note=40, velocity=100, time=0),\n",
      "    Message('note_off', channel=9, note=40, velocity=64, time=60),\n",
      "    Message('note_off', channel=9, note=38, velocity=64, time=0),\n",
      "    Message('note_off', channel=9, note=42, velocity=64, time=0),\n",
      "    Message('note_on', channel=9, note=42, velocity=100, time=60),\n",
      "    Message('note_off', channel=9, note=42, velocity=64, time=60),\n",
      "    Message('note_on', channel=9, note=42, velocity=100, time=60),\n",
      "    Message('note_off', channel=9, note=42, velocity=64, time=60),\n",
      "    Message('note_on', channel=9, note=42, velocity=100, time=60),\n",
      "    Message('note_on', channel=9, note=36, velocity=100, time=0),\n",
      "    Message('note_on', channel=9, note=35, velocity=100, time=0),\n",
      "    Message('note_off', channel=9, note=35, velocity=64, time=60),\n",
      "    Message('note_off', channel=9, note=36, velocity=64, time=0),\n",
      "    Message('note_off', channel=9, note=42, velocity=64, time=0),\n",
      "    Message('note_on', channel=9, note=42, velocity=100, time=60),\n",
      "    Message('note_off', channel=9, note=42, velocity=64, time=60),\n",
      "    Message('note_on', channel=9, note=42, velocity=100, time=60),\n",
      "    Message('note_off', channel=9, note=42, velocity=64, time=60),\n",
      "    Message('note_on', channel=9, note=42, velocity=100, time=60),\n",
      "    Message('note_on', channel=9, note=36, velocity=100, time=0),\n",
      "    Message('note_on', channel=9, note=35, velocity=100, time=0),\n",
      "    Message('note_off', channel=9, note=35, velocity=64, time=60),\n",
      "    Message('note_off', channel=9, note=36, velocity=64, time=0),\n",
      "    Message('note_off', channel=9, note=42, velocity=64, time=0),\n",
      "    Message('note_on', channel=9, note=42, velocity=100, time=60),\n",
      "    Message('note_off', channel=9, note=42, velocity=64, time=60),\n",
      "    Message('note_on', channel=9, note=42, velocity=100, time=60),\n",
      "    Message('note_on', channel=9, note=40, velocity=100, time=0),\n",
      "    Message('note_on', channel=9, note=38, velocity=100, time=0),\n",
      "    Message('note_off', channel=9, note=38, velocity=64, time=60),\n",
      "    Message('note_off', channel=9, note=40, velocity=64, time=0),\n",
      "    Message('note_off', channel=9, note=42, velocity=64, time=0),\n",
      "    Message('note_on', channel=9, note=42, velocity=100, time=60),\n",
      "    Message('note_off', channel=9, note=42, velocity=64, time=60),\n",
      "    Message('note_on', channel=9, note=42, velocity=100, time=60),\n",
      "    Message('note_off', channel=9, note=42, velocity=64, time=60),\n",
      "    Message('note_on', channel=9, note=42, velocity=100, time=60),\n",
      "    Message('note_off', channel=9, note=42, velocity=64, time=60),\n",
      "    Message('note_on', channel=9, note=42, velocity=100, time=60),\n",
      "    Message('note_on', channel=9, note=35, velocity=100, time=0),\n",
      "    Message('note_on', channel=9, note=36, velocity=100, time=0),\n",
      "    Message('note_off', channel=9, note=36, velocity=64, time=60),\n",
      "    Message('note_off', channel=9, note=35, velocity=64, time=0),\n",
      "    Message('note_off', channel=9, note=42, velocity=64, time=0),\n",
      "    Message('note_on', channel=9, note=42, velocity=100, time=60),\n",
      "    Message('note_off', channel=9, note=42, velocity=64, time=60),\n",
      "    Message('note_on', channel=9, note=42, velocity=100, time=60),\n",
      "    Message('note_on', channel=9, note=36, velocity=100, time=0),\n",
      "    Message('note_on', channel=9, note=35, velocity=100, time=0),\n",
      "    Message('note_off', channel=9, note=35, velocity=64, time=60),\n",
      "    Message('note_off', channel=9, note=36, velocity=64, time=0),\n",
      "    Message('note_off', channel=9, note=42, velocity=64, time=0),\n",
      "    Message('note_on', channel=9, note=42, velocity=100, time=60),\n",
      "    Message('note_off', channel=9, note=42, velocity=64, time=60),\n",
      "    Message('note_on', channel=9, note=42, velocity=100, time=60),\n",
      "    Message('note_on', channel=9, note=38, velocity=100, time=0),\n",
      "    Message('note_on', channel=9, note=40, velocity=100, time=0),\n",
      "    Message('note_off', channel=9, note=40, velocity=64, time=60),\n",
      "    Message('note_off', channel=9, note=38, velocity=64, time=0),\n",
      "    Message('note_off', channel=9, note=42, velocity=64, time=0),\n",
      "    Message('note_on', channel=9, note=42, velocity=100, time=60),\n",
      "    Message('note_off', channel=9, note=42, velocity=64, time=60),\n",
      "    Message('note_on', channel=9, note=42, velocity=100, time=60),\n",
      "    Message('note_off', channel=9, note=42, velocity=64, time=60),\n",
      "    Message('note_on', channel=9, note=42, velocity=100, time=60),\n",
      "    Message('note_on', channel=9, note=36, velocity=100, time=0),\n",
      "    Message('note_on', channel=9, note=35, velocity=100, time=0),\n",
      "    Message('note_off', channel=9, note=35, velocity=64, time=60),\n",
      "    Message('note_off', channel=9, note=36, velocity=64, time=0),\n",
      "    Message('note_off', channel=9, note=42, velocity=64, time=0),\n",
      "    Message('note_on', channel=9, note=42, velocity=100, time=60),\n",
      "    Message('note_off', channel=9, note=42, velocity=64, time=60),\n",
      "    Message('note_on', channel=9, note=42, velocity=100, time=60),\n",
      "    Message('note_off', channel=9, note=42, velocity=64, time=60),\n",
      "    Message('note_on', channel=9, note=42, velocity=100, time=60),\n",
      "    Message('note_on', channel=9, note=36, velocity=100, time=0),\n",
      "    Message('note_on', channel=9, note=35, velocity=100, time=0),\n",
      "    Message('note_off', channel=9, note=35, velocity=64, time=60),\n",
      "    Message('note_off', channel=9, note=36, velocity=64, time=0),\n",
      "    Message('note_off', channel=9, note=42, velocity=64, time=0),\n",
      "    Message('note_on', channel=9, note=42, velocity=100, time=60),\n",
      "    Message('note_off', channel=9, note=42, velocity=64, time=60),\n",
      "    Message('note_on', channel=9, note=42, velocity=100, time=60),\n",
      "    Message('note_on', channel=9, note=40, velocity=100, time=0),\n",
      "    Message('note_on', channel=9, note=38, velocity=100, time=0),\n",
      "    Message('note_off', channel=9, note=38, velocity=64, time=60),\n",
      "    Message('note_off', channel=9, note=40, velocity=64, time=0),\n",
      "    Message('note_off', channel=9, note=42, velocity=64, time=0),\n",
      "    Message('note_on', channel=9, note=42, velocity=100, time=60),\n",
      "    Message('note_off', channel=9, note=42, velocity=64, time=60),\n",
      "    Message('note_on', channel=9, note=42, velocity=100, time=60),\n",
      "    Message('note_off', channel=9, note=42, velocity=64, time=60),\n",
      "    Message('note_on', channel=9, note=42, velocity=100, time=60),\n",
      "    Message('note_off', channel=9, note=42, velocity=64, time=60),\n",
      "    Message('note_on', channel=9, note=35, velocity=100, time=60),\n",
      "    Message('note_on', channel=9, note=36, velocity=100, time=0),\n",
      "    Message('note_off', channel=9, note=36, velocity=64, time=60),\n",
      "    Message('note_off', channel=9, note=35, velocity=64, time=0),\n",
      "    Message('note_on', channel=9, note=35, velocity=100, time=180),\n",
      "    Message('note_on', channel=9, note=36, velocity=100, time=0),\n",
      "    Message('note_off', channel=9, note=36, velocity=64, time=60),\n",
      "    Message('note_off', channel=9, note=35, velocity=64, time=0),\n",
      "    Message('note_on', channel=9, note=39, velocity=100, time=180),\n",
      "    Message('note_off', channel=9, note=39, velocity=64, time=60),\n",
      "    Message('note_on', channel=9, note=35, velocity=100, time=300),\n",
      "    Message('note_on', channel=9, note=36, velocity=100, time=0),\n",
      "    Message('note_off', channel=9, note=36, velocity=64, time=60),\n",
      "    Message('note_off', channel=9, note=35, velocity=64, time=0),\n",
      "    Message('note_on', channel=9, note=35, velocity=100, time=300),\n",
      "    Message('note_on', channel=9, note=36, velocity=100, time=0),\n",
      "    Message('note_off', channel=9, note=36, velocity=64, time=60),\n",
      "    Message('note_off', channel=9, note=35, velocity=64, time=0),\n",
      "    Message('note_on', channel=9, note=38, velocity=100, time=180),\n",
      "    Message('note_on', channel=9, note=40, velocity=100, time=0),\n",
      "    Message('note_off', channel=9, note=40, velocity=64, time=60),\n",
      "    Message('note_off', channel=9, note=38, velocity=64, time=0),\n",
      "    Message('note_on', channel=9, note=35, velocity=100, time=180),\n",
      "    Message('note_on', channel=9, note=36, velocity=100, time=0),\n",
      "    Message('note_off', channel=9, note=36, velocity=64, time=60),\n",
      "    Message('note_off', channel=9, note=35, velocity=64, time=0),\n",
      "    Message('note_on', channel=9, note=42, velocity=100, time=180),\n",
      "    Message('note_on', channel=9, note=35, velocity=100, time=0),\n",
      "    Message('note_on', channel=9, note=36, velocity=100, time=0),\n",
      "    Message('note_off', channel=9, note=36, velocity=64, time=60),\n",
      "    Message('note_off', channel=9, note=35, velocity=64, time=0),\n",
      "    Message('note_off', channel=9, note=42, velocity=64, time=0),\n",
      "    Message('note_on', channel=9, note=42, velocity=100, time=60),\n",
      "    Message('note_off', channel=9, note=42, velocity=64, time=60),\n",
      "    Message('note_on', channel=9, note=42, velocity=100, time=60),\n",
      "    Message('note_on', channel=9, note=36, velocity=100, time=0),\n",
      "    Message('note_on', channel=9, note=35, velocity=100, time=0),\n",
      "    Message('note_off', channel=9, note=35, velocity=64, time=60),\n",
      "    Message('note_off', channel=9, note=36, velocity=64, time=0),\n",
      "    Message('note_off', channel=9, note=42, velocity=64, time=0),\n",
      "    Message('note_on', channel=9, note=42, velocity=100, time=60),\n",
      "    Message('note_off', channel=9, note=42, velocity=64, time=60),\n",
      "    Message('note_on', channel=9, note=42, velocity=100, time=60),\n",
      "    Message('note_on', channel=9, note=38, velocity=100, time=0),\n",
      "    Message('note_on', channel=9, note=40, velocity=100, time=0),\n",
      "    Message('note_off', channel=9, note=40, velocity=64, time=60),\n",
      "    Message('note_off', channel=9, note=38, velocity=64, time=0),\n",
      "    Message('note_off', channel=9, note=42, velocity=64, time=0),\n",
      "    Message('note_on', channel=9, note=42, velocity=100, time=60),\n",
      "    Message('note_off', channel=9, note=42, velocity=64, time=60),\n",
      "    Message('note_on', channel=9, note=42, velocity=100, time=60),\n",
      "    Message('note_off', channel=9, note=42, velocity=64, time=60),\n",
      "    Message('note_on', channel=9, note=42, velocity=100, time=60),\n",
      "    Message('note_on', channel=9, note=36, velocity=100, time=0),\n",
      "    Message('note_on', channel=9, note=35, velocity=100, time=0),\n",
      "    Message('note_off', channel=9, note=35, velocity=64, time=60),\n",
      "    Message('note_off', channel=9, note=36, velocity=64, time=0),\n",
      "    Message('note_off', channel=9, note=42, velocity=64, time=0),\n",
      "    Message('note_on', channel=9, note=42, velocity=100, time=60),\n",
      "    Message('note_off', channel=9, note=42, velocity=64, time=60),\n",
      "    Message('note_on', channel=9, note=42, velocity=100, time=60),\n",
      "    Message('note_off', channel=9, note=42, velocity=64, time=60),\n",
      "    Message('note_on', channel=9, note=42, velocity=100, time=60),\n",
      "    Message('note_on', channel=9, note=36, velocity=100, time=0),\n",
      "    Message('note_on', channel=9, note=35, velocity=100, time=0),\n",
      "    Message('note_off', channel=9, note=35, velocity=64, time=60),\n",
      "    Message('note_off', channel=9, note=36, velocity=64, time=0),\n",
      "    Message('note_off', channel=9, note=42, velocity=64, time=0),\n",
      "    Message('note_on', channel=9, note=42, velocity=100, time=60),\n",
      "    Message('note_off', channel=9, note=42, velocity=64, time=60),\n",
      "    Message('note_on', channel=9, note=42, velocity=100, time=60),\n",
      "    Message('note_on', channel=9, note=40, velocity=100, time=0),\n",
      "    Message('note_on', channel=9, note=38, velocity=100, time=0),\n",
      "    Message('note_off', channel=9, note=38, velocity=64, time=60),\n",
      "    Message('note_off', channel=9, note=40, velocity=64, time=0),\n",
      "    Message('note_off', channel=9, note=42, velocity=64, time=0),\n",
      "    Message('note_on', channel=9, note=42, velocity=100, time=60),\n",
      "    Message('note_off', channel=9, note=42, velocity=64, time=60),\n",
      "    Message('note_on', channel=9, note=42, velocity=100, time=60),\n",
      "    Message('note_off', channel=9, note=42, velocity=64, time=60),\n",
      "    Message('note_on', channel=9, note=42, velocity=100, time=60),\n",
      "    Message('note_off', channel=9, note=42, velocity=64, time=60),\n",
      "    Message('note_on', channel=9, note=42, velocity=100, time=60),\n",
      "    Message('note_on', channel=9, note=35, velocity=100, time=0),\n",
      "    Message('note_on', channel=9, note=36, velocity=100, time=0),\n",
      "    Message('note_off', channel=9, note=36, velocity=64, time=60),\n",
      "    Message('note_off', channel=9, note=35, velocity=64, time=0),\n",
      "    Message('note_off', channel=9, note=42, velocity=64, time=0),\n",
      "    Message('note_on', channel=9, note=42, velocity=100, time=60),\n",
      "    Message('note_off', channel=9, note=42, velocity=64, time=60),\n",
      "    Message('note_on', channel=9, note=42, velocity=100, time=60),\n",
      "    Message('note_on', channel=9, note=36, velocity=100, time=0),\n",
      "    Message('note_on', channel=9, note=35, velocity=100, time=0),\n",
      "    Message('note_off', channel=9, note=35, velocity=64, time=60),\n",
      "    Message('note_off', channel=9, note=36, velocity=64, time=0),\n",
      "    Message('note_off', channel=9, note=42, velocity=64, time=0),\n",
      "    Message('note_on', channel=9, note=42, velocity=100, time=60),\n",
      "    Message('note_off', channel=9, note=42, velocity=64, time=60),\n",
      "    Message('note_on', channel=9, note=42, velocity=100, time=60),\n",
      "    Message('note_on', channel=9, note=38, velocity=100, time=0),\n",
      "    Message('note_on', channel=9, note=40, velocity=100, time=0),\n",
      "    Message('note_off', channel=9, note=40, velocity=64, time=60),\n",
      "    Message('note_off', channel=9, note=38, velocity=64, time=0),\n",
      "    Message('note_off', channel=9, note=42, velocity=64, time=0),\n",
      "    Message('note_on', channel=9, note=42, velocity=100, time=60),\n",
      "    Message('note_off', channel=9, note=42, velocity=64, time=60),\n",
      "    Message('note_on', channel=9, note=42, velocity=100, time=60),\n",
      "    Message('note_off', channel=9, note=42, velocity=64, time=60),\n",
      "    Message('note_on', channel=9, note=42, velocity=100, time=60),\n",
      "    Message('note_on', channel=9, note=36, velocity=100, time=0),\n",
      "    Message('note_on', channel=9, note=35, velocity=100, time=0),\n",
      "    Message('note_off', channel=9, note=35, velocity=64, time=60),\n",
      "    Message('note_off', channel=9, note=36, velocity=64, time=0),\n",
      "    Message('note_off', channel=9, note=42, velocity=64, time=0),\n",
      "    Message('note_on', channel=9, note=42, velocity=100, time=60),\n",
      "    Message('note_off', channel=9, note=42, velocity=64, time=60),\n",
      "    Message('note_on', channel=9, note=42, velocity=100, time=60),\n",
      "    Message('note_off', channel=9, note=42, velocity=64, time=60),\n",
      "    Message('note_on', channel=9, note=42, velocity=100, time=60),\n",
      "    Message('note_on', channel=9, note=36, velocity=100, time=0),\n",
      "    Message('note_on', channel=9, note=35, velocity=100, time=0),\n",
      "    Message('note_off', channel=9, note=35, velocity=64, time=60),\n",
      "    Message('note_off', channel=9, note=36, velocity=64, time=0),\n",
      "    Message('note_off', channel=9, note=42, velocity=64, time=0),\n",
      "    Message('note_on', channel=9, note=42, velocity=100, time=60),\n",
      "    Message('note_off', channel=9, note=42, velocity=64, time=60),\n",
      "    Message('note_on', channel=9, note=42, velocity=100, time=60),\n",
      "    Message('note_on', channel=9, note=40, velocity=100, time=0),\n",
      "    Message('note_on', channel=9, note=38, velocity=100, time=0),\n",
      "    Message('note_off', channel=9, note=38, velocity=64, time=60),\n",
      "    Message('note_off', channel=9, note=40, velocity=64, time=0),\n",
      "    Message('note_off', channel=9, note=42, velocity=64, time=0),\n",
      "    Message('note_on', channel=9, note=42, velocity=100, time=60),\n",
      "    Message('note_off', channel=9, note=42, velocity=64, time=60),\n",
      "    Message('note_on', channel=9, note=42, velocity=100, time=60),\n",
      "    Message('note_off', channel=9, note=42, velocity=64, time=60),\n",
      "    Message('note_on', channel=9, note=42, velocity=100, time=60),\n",
      "    Message('note_off', channel=9, note=42, velocity=64, time=60),\n",
      "    Message('note_on', channel=9, note=42, velocity=100, time=60),\n",
      "    Message('note_on', channel=9, note=35, velocity=100, time=0),\n",
      "    Message('note_on', channel=9, note=36, velocity=100, time=0),\n",
      "    Message('note_off', channel=9, note=36, velocity=64, time=60),\n",
      "    Message('note_off', channel=9, note=35, velocity=64, time=0),\n",
      "    Message('note_off', channel=9, note=42, velocity=64, time=0),\n",
      "    Message('note_on', channel=9, note=42, velocity=100, time=60),\n",
      "    Message('note_off', channel=9, note=42, velocity=64, time=60),\n",
      "    Message('note_on', channel=9, note=42, velocity=100, time=60),\n",
      "    Message('note_on', channel=9, note=36, velocity=100, time=0),\n",
      "    Message('note_on', channel=9, note=35, velocity=100, time=0),\n",
      "    Message('note_off', channel=9, note=35, velocity=64, time=60),\n",
      "    Message('note_off', channel=9, note=36, velocity=64, time=0),\n",
      "    Message('note_off', channel=9, note=42, velocity=64, time=0),\n",
      "    Message('note_on', channel=9, note=42, velocity=100, time=60),\n",
      "    Message('note_off', channel=9, note=42, velocity=64, time=60),\n",
      "    Message('note_on', channel=9, note=42, velocity=100, time=60),\n",
      "    Message('note_on', channel=9, note=38, velocity=100, time=0),\n",
      "    Message('note_on', channel=9, note=40, velocity=100, time=0),\n",
      "    Message('note_off', channel=9, note=40, velocity=64, time=60),\n",
      "    Message('note_off', channel=9, note=38, velocity=64, time=0),\n",
      "    Message('note_off', channel=9, note=42, velocity=64, time=0),\n",
      "    Message('note_on', channel=9, note=42, velocity=100, time=60),\n",
      "    Message('note_off', channel=9, note=42, velocity=64, time=60),\n",
      "    Message('note_on', channel=9, note=42, velocity=100, time=60),\n",
      "    Message('note_off', channel=9, note=42, velocity=64, time=60),\n",
      "    Message('note_on', channel=9, note=42, velocity=100, time=60),\n",
      "    Message('note_on', channel=9, note=36, velocity=100, time=0),\n",
      "    Message('note_on', channel=9, note=35, velocity=100, time=0),\n",
      "    Message('note_off', channel=9, note=35, velocity=64, time=60),\n",
      "    Message('note_off', channel=9, note=36, velocity=64, time=0),\n",
      "    Message('note_off', channel=9, note=42, velocity=64, time=0),\n",
      "    Message('note_on', channel=9, note=42, velocity=100, time=60),\n",
      "    Message('note_off', channel=9, note=42, velocity=64, time=60),\n",
      "    Message('note_on', channel=9, note=42, velocity=100, time=60),\n",
      "    Message('note_off', channel=9, note=42, velocity=64, time=60),\n",
      "    Message('note_on', channel=9, note=42, velocity=100, time=60),\n",
      "    Message('note_on', channel=9, note=36, velocity=100, time=0),\n",
      "    Message('note_on', channel=9, note=35, velocity=100, time=0),\n",
      "    Message('note_off', channel=9, note=35, velocity=64, time=60),\n",
      "    Message('note_off', channel=9, note=36, velocity=64, time=0),\n",
      "    Message('note_off', channel=9, note=42, velocity=64, time=0),\n",
      "    Message('note_on', channel=9, note=42, velocity=100, time=60),\n",
      "    Message('note_off', channel=9, note=42, velocity=64, time=60),\n",
      "    Message('note_on', channel=9, note=42, velocity=100, time=60),\n",
      "    Message('note_on', channel=9, note=40, velocity=100, time=0),\n",
      "    Message('note_on', channel=9, note=38, velocity=100, time=0),\n",
      "    Message('note_off', channel=9, note=38, velocity=64, time=60),\n",
      "    Message('note_off', channel=9, note=40, velocity=64, time=0),\n",
      "    Message('note_off', channel=9, note=42, velocity=64, time=0),\n",
      "    Message('note_on', channel=9, note=42, velocity=100, time=60),\n",
      "    Message('note_off', channel=9, note=42, velocity=64, time=60),\n",
      "    Message('note_on', channel=9, note=42, velocity=100, time=60),\n",
      "    Message('note_off', channel=9, note=42, velocity=64, time=60),\n",
      "    Message('note_on', channel=9, note=42, velocity=100, time=60),\n",
      "    Message('note_off', channel=9, note=42, velocity=64, time=60),\n",
      "    Message('note_on', channel=9, note=42, velocity=100, time=60),\n",
      "    Message('note_on', channel=9, note=35, velocity=100, time=0),\n",
      "    Message('note_on', channel=9, note=36, velocity=100, time=0),\n",
      "    Message('note_off', channel=9, note=36, velocity=64, time=60),\n",
      "    Message('note_off', channel=9, note=35, velocity=64, time=0),\n",
      "    Message('note_off', channel=9, note=42, velocity=64, time=0),\n",
      "    Message('note_on', channel=9, note=42, velocity=100, time=60),\n",
      "    Message('note_off', channel=9, note=42, velocity=64, time=60),\n",
      "    Message('note_on', channel=9, note=42, velocity=100, time=60),\n",
      "    Message('note_on', channel=9, note=36, velocity=100, time=0),\n",
      "    Message('note_on', channel=9, note=35, velocity=100, time=0),\n",
      "    Message('note_off', channel=9, note=35, velocity=64, time=60),\n",
      "    Message('note_off', channel=9, note=36, velocity=64, time=0),\n",
      "    Message('note_off', channel=9, note=42, velocity=64, time=0),\n",
      "    Message('note_on', channel=9, note=42, velocity=100, time=60),\n",
      "    Message('note_off', channel=9, note=42, velocity=64, time=60),\n",
      "    Message('note_on', channel=9, note=42, velocity=100, time=60),\n",
      "    Message('note_on', channel=9, note=38, velocity=100, time=0),\n",
      "    Message('note_on', channel=9, note=40, velocity=100, time=0),\n",
      "    Message('note_off', channel=9, note=40, velocity=64, time=60),\n",
      "    Message('note_off', channel=9, note=38, velocity=64, time=0),\n",
      "    Message('note_off', channel=9, note=42, velocity=64, time=0),\n",
      "    Message('note_on', channel=9, note=42, velocity=100, time=60),\n",
      "    Message('note_off', channel=9, note=42, velocity=64, time=60),\n",
      "    Message('note_on', channel=9, note=42, velocity=100, time=60),\n",
      "    Message('note_off', channel=9, note=42, velocity=64, time=60),\n",
      "    Message('note_on', channel=9, note=42, velocity=100, time=60),\n",
      "    Message('note_on', channel=9, note=36, velocity=100, time=0),\n",
      "    Message('note_on', channel=9, note=35, velocity=100, time=0),\n",
      "    Message('note_off', channel=9, note=35, velocity=64, time=60),\n",
      "    Message('note_off', channel=9, note=36, velocity=64, time=0),\n",
      "    Message('note_off', channel=9, note=42, velocity=64, time=0),\n",
      "    Message('note_on', channel=9, note=42, velocity=100, time=60),\n",
      "    Message('note_off', channel=9, note=42, velocity=64, time=60),\n",
      "    Message('note_on', channel=9, note=42, velocity=100, time=60),\n",
      "    Message('note_off', channel=9, note=42, velocity=64, time=60),\n",
      "    Message('note_on', channel=9, note=42, velocity=100, time=60),\n",
      "    Message('note_on', channel=9, note=36, velocity=100, time=0),\n",
      "    Message('note_on', channel=9, note=35, velocity=100, time=0),\n",
      "    Message('note_off', channel=9, note=35, velocity=64, time=60),\n",
      "    Message('note_off', channel=9, note=36, velocity=64, time=0),\n",
      "    Message('note_off', channel=9, note=42, velocity=64, time=0),\n",
      "    Message('note_on', channel=9, note=42, velocity=100, time=60),\n",
      "    Message('note_off', channel=9, note=42, velocity=64, time=60),\n",
      "    Message('note_on', channel=9, note=42, velocity=100, time=60),\n",
      "    Message('note_on', channel=9, note=40, velocity=100, time=0),\n",
      "    Message('note_on', channel=9, note=38, velocity=100, time=0),\n",
      "    Message('note_off', channel=9, note=38, velocity=64, time=60),\n",
      "    Message('note_off', channel=9, note=40, velocity=64, time=0),\n",
      "    Message('note_off', channel=9, note=42, velocity=64, time=0),\n",
      "    Message('note_on', channel=9, note=42, velocity=100, time=60),\n",
      "    Message('note_off', channel=9, note=42, velocity=64, time=60),\n",
      "    Message('note_on', channel=9, note=42, velocity=100, time=60),\n",
      "    Message('note_off', channel=9, note=42, velocity=64, time=60),\n",
      "    Message('note_on', channel=9, note=42, velocity=100, time=60),\n",
      "    Message('note_off', channel=9, note=42, velocity=64, time=60),\n",
      "    Message('note_on', channel=9, note=42, velocity=100, time=60),\n",
      "    Message('note_on', channel=9, note=35, velocity=100, time=0),\n",
      "    Message('note_on', channel=9, note=36, velocity=100, time=0),\n",
      "    Message('note_off', channel=9, note=36, velocity=64, time=60),\n",
      "    Message('note_off', channel=9, note=35, velocity=64, time=0),\n",
      "    Message('note_off', channel=9, note=42, velocity=64, time=0),\n",
      "    Message('note_on', channel=9, note=42, velocity=100, time=60),\n",
      "    Message('note_off', channel=9, note=42, velocity=64, time=60),\n",
      "    Message('note_on', channel=9, note=42, velocity=100, time=60),\n",
      "    Message('note_on', channel=9, note=36, velocity=100, time=0),\n",
      "    Message('note_on', channel=9, note=35, velocity=100, time=0),\n",
      "    Message('note_off', channel=9, note=35, velocity=64, time=60),\n",
      "    Message('note_off', channel=9, note=36, velocity=64, time=0),\n",
      "    Message('note_off', channel=9, note=42, velocity=64, time=0),\n",
      "    Message('note_on', channel=9, note=42, velocity=100, time=60),\n",
      "    Message('note_off', channel=9, note=42, velocity=64, time=60),\n",
      "    Message('note_on', channel=9, note=42, velocity=100, time=60),\n",
      "    Message('note_on', channel=9, note=38, velocity=100, time=0),\n",
      "    Message('note_on', channel=9, note=40, velocity=100, time=0),\n",
      "    Message('note_off', channel=9, note=40, velocity=64, time=60),\n",
      "    Message('note_off', channel=9, note=38, velocity=64, time=0),\n",
      "    Message('note_off', channel=9, note=42, velocity=64, time=0),\n",
      "    Message('note_on', channel=9, note=42, velocity=100, time=60),\n",
      "    Message('note_off', channel=9, note=42, velocity=64, time=60),\n",
      "    Message('note_on', channel=9, note=42, velocity=100, time=60),\n",
      "    Message('note_off', channel=9, note=42, velocity=64, time=60),\n",
      "    Message('note_on', channel=9, note=42, velocity=100, time=60),\n",
      "    Message('note_on', channel=9, note=36, velocity=100, time=0),\n",
      "    Message('note_on', channel=9, note=35, velocity=100, time=0),\n",
      "    Message('note_off', channel=9, note=35, velocity=64, time=60),\n",
      "    Message('note_off', channel=9, note=36, velocity=64, time=0),\n",
      "    Message('note_off', channel=9, note=42, velocity=64, time=0),\n",
      "    Message('note_on', channel=9, note=42, velocity=100, time=60),\n",
      "    Message('note_off', channel=9, note=42, velocity=64, time=60),\n",
      "    Message('note_on', channel=9, note=42, velocity=100, time=60),\n",
      "    Message('note_off', channel=9, note=42, velocity=64, time=60),\n",
      "    Message('note_on', channel=9, note=42, velocity=100, time=60),\n",
      "    Message('note_on', channel=9, note=36, velocity=100, time=0),\n",
      "    Message('note_on', channel=9, note=35, velocity=100, time=0),\n",
      "    Message('note_off', channel=9, note=35, velocity=64, time=60),\n",
      "    Message('note_off', channel=9, note=36, velocity=64, time=0),\n",
      "    Message('note_off', channel=9, note=42, velocity=64, time=0),\n",
      "    Message('note_on', channel=9, note=42, velocity=100, time=60),\n",
      "    Message('note_off', channel=9, note=42, velocity=64, time=60),\n",
      "    Message('note_on', channel=9, note=42, velocity=100, time=60),\n",
      "    Message('note_on', channel=9, note=40, velocity=100, time=0),\n",
      "    Message('note_on', channel=9, note=38, velocity=100, time=0),\n",
      "    Message('note_off', channel=9, note=38, velocity=64, time=60),\n",
      "    Message('note_off', channel=9, note=40, velocity=64, time=0),\n",
      "    Message('note_off', channel=9, note=42, velocity=64, time=0),\n",
      "    Message('note_on', channel=9, note=42, velocity=100, time=60),\n",
      "    Message('note_off', channel=9, note=42, velocity=64, time=60),\n",
      "    Message('note_on', channel=9, note=42, velocity=100, time=60),\n",
      "    Message('note_off', channel=9, note=42, velocity=64, time=60),\n",
      "    Message('note_on', channel=9, note=42, velocity=100, time=60),\n",
      "    Message('note_off', channel=9, note=42, velocity=64, time=60),\n",
      "    Message('note_on', channel=9, note=42, velocity=100, time=60),\n",
      "    Message('note_on', channel=9, note=35, velocity=100, time=0),\n",
      "    Message('note_on', channel=9, note=36, velocity=100, time=0),\n",
      "    Message('note_off', channel=9, note=36, velocity=64, time=60),\n",
      "    Message('note_off', channel=9, note=35, velocity=64, time=0),\n",
      "    Message('note_off', channel=9, note=42, velocity=64, time=0),\n",
      "    Message('note_on', channel=9, note=42, velocity=100, time=60),\n",
      "    Message('note_off', channel=9, note=42, velocity=64, time=60),\n",
      "    Message('note_on', channel=9, note=42, velocity=100, time=60),\n",
      "    Message('note_on', channel=9, note=36, velocity=100, time=0),\n",
      "    Message('note_on', channel=9, note=35, velocity=100, time=0),\n",
      "    Message('note_off', channel=9, note=35, velocity=64, time=60),\n",
      "    Message('note_off', channel=9, note=36, velocity=64, time=0),\n",
      "    Message('note_off', channel=9, note=42, velocity=64, time=0),\n",
      "    Message('note_on', channel=9, note=42, velocity=100, time=60),\n",
      "    Message('note_off', channel=9, note=42, velocity=64, time=60),\n",
      "    Message('note_on', channel=9, note=42, velocity=100, time=60),\n",
      "    Message('note_on', channel=9, note=38, velocity=100, time=0),\n",
      "    Message('note_on', channel=9, note=40, velocity=100, time=0),\n",
      "    Message('note_off', channel=9, note=40, velocity=64, time=60),\n",
      "    Message('note_off', channel=9, note=38, velocity=64, time=0),\n",
      "    Message('note_off', channel=9, note=42, velocity=64, time=0),\n",
      "    Message('note_on', channel=9, note=42, velocity=100, time=60),\n",
      "    Message('note_off', channel=9, note=42, velocity=64, time=60),\n",
      "    Message('note_on', channel=9, note=42, velocity=100, time=60),\n",
      "    Message('note_off', channel=9, note=42, velocity=64, time=60),\n",
      "    Message('note_on', channel=9, note=42, velocity=100, time=60),\n",
      "    Message('note_on', channel=9, note=36, velocity=100, time=0),\n",
      "    Message('note_on', channel=9, note=35, velocity=100, time=0),\n",
      "    Message('note_off', channel=9, note=35, velocity=64, time=60),\n",
      "    Message('note_off', channel=9, note=36, velocity=64, time=0),\n",
      "    Message('note_off', channel=9, note=42, velocity=64, time=0),\n",
      "    Message('note_on', channel=9, note=42, velocity=100, time=60),\n",
      "    Message('note_off', channel=9, note=42, velocity=64, time=60),\n",
      "    Message('note_on', channel=9, note=42, velocity=100, time=60),\n",
      "    Message('note_off', channel=9, note=42, velocity=64, time=60),\n",
      "    Message('note_on', channel=9, note=42, velocity=100, time=60),\n",
      "    Message('note_on', channel=9, note=36, velocity=100, time=0),\n",
      "    Message('note_on', channel=9, note=35, velocity=100, time=0),\n",
      "    Message('note_off', channel=9, note=35, velocity=64, time=60),\n",
      "    Message('note_off', channel=9, note=36, velocity=64, time=0),\n",
      "    Message('note_off', channel=9, note=42, velocity=64, time=0),\n",
      "    Message('note_on', channel=9, note=42, velocity=100, time=60),\n",
      "    Message('note_off', channel=9, note=42, velocity=64, time=60),\n",
      "    Message('note_on', channel=9, note=42, velocity=100, time=60),\n",
      "    Message('note_on', channel=9, note=40, velocity=100, time=0),\n",
      "    Message('note_on', channel=9, note=38, velocity=100, time=0),\n",
      "    Message('note_off', channel=9, note=38, velocity=64, time=60),\n",
      "    Message('note_off', channel=9, note=40, velocity=64, time=0),\n",
      "    Message('note_off', channel=9, note=42, velocity=64, time=0),\n",
      "    Message('note_on', channel=9, note=42, velocity=100, time=60),\n",
      "    Message('note_off', channel=9, note=42, velocity=64, time=60),\n",
      "    Message('note_on', channel=9, note=42, velocity=100, time=60),\n",
      "    Message('note_off', channel=9, note=42, velocity=64, time=60),\n",
      "    Message('note_on', channel=9, note=42, velocity=100, time=60),\n",
      "    Message('note_off', channel=9, note=42, velocity=64, time=60),\n",
      "    Message('note_on', channel=9, note=42, velocity=100, time=60),\n",
      "    Message('note_on', channel=9, note=35, velocity=100, time=0),\n",
      "    Message('note_on', channel=9, note=36, velocity=100, time=0),\n",
      "    Message('note_off', channel=9, note=36, velocity=64, time=60),\n",
      "    Message('note_off', channel=9, note=35, velocity=64, time=0),\n",
      "    Message('note_off', channel=9, note=42, velocity=64, time=0),\n",
      "    Message('note_on', channel=9, note=42, velocity=100, time=60),\n",
      "    Message('note_off', channel=9, note=42, velocity=64, time=60),\n",
      "    Message('note_on', channel=9, note=42, velocity=100, time=60),\n",
      "    Message('note_on', channel=9, note=36, velocity=100, time=0),\n",
      "    Message('note_on', channel=9, note=35, velocity=100, time=0),\n",
      "    Message('note_off', channel=9, note=35, velocity=64, time=60),\n",
      "    Message('note_off', channel=9, note=36, velocity=64, time=0),\n",
      "    Message('note_off', channel=9, note=42, velocity=64, time=0),\n",
      "    Message('note_on', channel=9, note=42, velocity=100, time=60),\n",
      "    Message('note_off', channel=9, note=42, velocity=64, time=60),\n",
      "    Message('note_on', channel=9, note=42, velocity=100, time=60),\n",
      "    Message('note_on', channel=9, note=38, velocity=100, time=0),\n",
      "    Message('note_on', channel=9, note=40, velocity=100, time=0),\n",
      "    Message('note_off', channel=9, note=40, velocity=64, time=60),\n",
      "    Message('note_off', channel=9, note=38, velocity=64, time=0),\n",
      "    Message('note_off', channel=9, note=42, velocity=64, time=0),\n",
      "    Message('note_on', channel=9, note=42, velocity=100, time=60),\n",
      "    Message('note_off', channel=9, note=42, velocity=64, time=60),\n",
      "    Message('note_on', channel=9, note=42, velocity=100, time=60),\n",
      "    Message('note_off', channel=9, note=42, velocity=64, time=60),\n",
      "    Message('note_on', channel=9, note=42, velocity=100, time=60),\n",
      "    Message('note_on', channel=9, note=36, velocity=100, time=0),\n",
      "    Message('note_on', channel=9, note=35, velocity=100, time=0),\n",
      "    Message('note_off', channel=9, note=35, velocity=64, time=60),\n",
      "    Message('note_off', channel=9, note=36, velocity=64, time=0),\n",
      "    Message('note_off', channel=9, note=42, velocity=64, time=0),\n",
      "    Message('note_on', channel=9, note=42, velocity=100, time=60),\n",
      "    Message('note_off', channel=9, note=42, velocity=64, time=60),\n",
      "    Message('note_on', channel=9, note=42, velocity=100, time=60),\n",
      "    Message('note_off', channel=9, note=42, velocity=64, time=60),\n",
      "    Message('note_on', channel=9, note=42, velocity=100, time=60),\n",
      "    Message('note_on', channel=9, note=36, velocity=100, time=0),\n",
      "    Message('note_on', channel=9, note=35, velocity=100, time=0),\n",
      "    Message('note_off', channel=9, note=35, velocity=64, time=60),\n",
      "    Message('note_off', channel=9, note=36, velocity=64, time=0),\n",
      "    Message('note_off', channel=9, note=42, velocity=64, time=0),\n",
      "    Message('note_on', channel=9, note=42, velocity=100, time=60),\n",
      "    Message('note_off', channel=9, note=42, velocity=64, time=60),\n",
      "    Message('note_on', channel=9, note=42, velocity=100, time=60),\n",
      "    Message('note_on', channel=9, note=40, velocity=100, time=0),\n",
      "    Message('note_on', channel=9, note=38, velocity=100, time=0),\n",
      "    Message('note_off', channel=9, note=38, velocity=64, time=60),\n",
      "    Message('note_off', channel=9, note=40, velocity=64, time=0),\n",
      "    Message('note_off', channel=9, note=42, velocity=64, time=0),\n",
      "    Message('note_on', channel=9, note=42, velocity=100, time=60),\n",
      "    Message('note_off', channel=9, note=42, velocity=64, time=60),\n",
      "    Message('note_on', channel=9, note=42, velocity=100, time=60),\n",
      "    Message('note_off', channel=9, note=42, velocity=64, time=60),\n",
      "    Message('note_on', channel=9, note=42, velocity=100, time=60),\n",
      "    Message('note_off', channel=9, note=42, velocity=64, time=60),\n",
      "    Message('note_on', channel=9, note=35, velocity=100, time=60),\n",
      "    Message('note_on', channel=9, note=36, velocity=100, time=0),\n",
      "    Message('note_off', channel=9, note=36, velocity=64, time=60),\n",
      "    Message('note_off', channel=9, note=35, velocity=64, time=0),\n",
      "    Message('note_on', channel=9, note=35, velocity=100, time=180),\n",
      "    Message('note_on', channel=9, note=36, velocity=100, time=0),\n",
      "    Message('note_off', channel=9, note=36, velocity=64, time=60),\n",
      "    Message('note_off', channel=9, note=35, velocity=64, time=0),\n",
      "    Message('note_on', channel=9, note=39, velocity=100, time=180),\n",
      "    Message('note_off', channel=9, note=39, velocity=64, time=60),\n",
      "    Message('note_on', channel=9, note=35, velocity=100, time=300),\n",
      "    Message('note_on', channel=9, note=36, velocity=100, time=0),\n",
      "    Message('note_off', channel=9, note=36, velocity=64, time=60),\n",
      "    Message('note_off', channel=9, note=35, velocity=64, time=0),\n",
      "    Message('note_on', channel=9, note=35, velocity=100, time=300),\n",
      "    Message('note_on', channel=9, note=36, velocity=100, time=0),\n",
      "    Message('note_off', channel=9, note=36, velocity=64, time=60),\n",
      "    Message('note_off', channel=9, note=35, velocity=64, time=0),\n",
      "    Message('note_on', channel=9, note=38, velocity=100, time=180),\n",
      "    Message('note_on', channel=9, note=40, velocity=100, time=0),\n",
      "    Message('note_off', channel=9, note=40, velocity=64, time=60),\n",
      "    Message('note_off', channel=9, note=38, velocity=64, time=0),\n",
      "    Message('note_on', channel=9, note=35, velocity=100, time=180),\n",
      "    Message('note_on', channel=9, note=36, velocity=100, time=0),\n",
      "    Message('note_off', channel=9, note=36, velocity=64, time=60),\n",
      "    Message('note_off', channel=9, note=35, velocity=64, time=0),\n",
      "    Message('note_on', channel=9, note=42, velocity=100, time=180),\n",
      "    Message('note_on', channel=9, note=35, velocity=100, time=0),\n",
      "    Message('note_on', channel=9, note=36, velocity=100, time=0),\n",
      "    Message('note_off', channel=9, note=36, velocity=64, time=60),\n",
      "    Message('note_off', channel=9, note=35, velocity=64, time=0),\n",
      "    Message('note_off', channel=9, note=42, velocity=64, time=0),\n",
      "    Message('note_on', channel=9, note=42, velocity=100, time=60),\n",
      "    Message('note_off', channel=9, note=42, velocity=64, time=60),\n",
      "    Message('note_on', channel=9, note=42, velocity=100, time=60),\n",
      "    Message('note_on', channel=9, note=36, velocity=100, time=0),\n",
      "    Message('note_on', channel=9, note=35, velocity=100, time=0),\n",
      "    Message('note_off', channel=9, note=35, velocity=64, time=60),\n",
      "    Message('note_off', channel=9, note=36, velocity=64, time=0),\n",
      "    Message('note_off', channel=9, note=42, velocity=64, time=0),\n",
      "    Message('note_on', channel=9, note=42, velocity=100, time=60),\n",
      "    Message('note_off', channel=9, note=42, velocity=64, time=60),\n",
      "    Message('note_on', channel=9, note=42, velocity=100, time=60),\n",
      "    Message('note_on', channel=9, note=38, velocity=100, time=0),\n",
      "    Message('note_on', channel=9, note=40, velocity=100, time=0),\n",
      "    Message('note_off', channel=9, note=40, velocity=64, time=60),\n",
      "    Message('note_off', channel=9, note=38, velocity=64, time=0),\n",
      "    Message('note_off', channel=9, note=42, velocity=64, time=0),\n",
      "    Message('note_on', channel=9, note=42, velocity=100, time=60),\n",
      "    Message('note_off', channel=9, note=42, velocity=64, time=60),\n",
      "    Message('note_on', channel=9, note=42, velocity=100, time=60),\n",
      "    Message('note_off', channel=9, note=42, velocity=64, time=60),\n",
      "    Message('note_on', channel=9, note=42, velocity=100, time=60),\n",
      "    Message('note_on', channel=9, note=36, velocity=100, time=0),\n",
      "    Message('note_on', channel=9, note=35, velocity=100, time=0),\n",
      "    Message('note_off', channel=9, note=35, velocity=64, time=60),\n",
      "    Message('note_off', channel=9, note=36, velocity=64, time=0),\n",
      "    Message('note_off', channel=9, note=42, velocity=64, time=0),\n",
      "    Message('note_on', channel=9, note=42, velocity=100, time=60),\n",
      "    Message('note_off', channel=9, note=42, velocity=64, time=60),\n",
      "    Message('note_on', channel=9, note=42, velocity=100, time=60),\n",
      "    Message('note_off', channel=9, note=42, velocity=64, time=60),\n",
      "    Message('note_on', channel=9, note=42, velocity=100, time=60),\n",
      "    Message('note_on', channel=9, note=36, velocity=100, time=0),\n",
      "    Message('note_on', channel=9, note=35, velocity=100, time=0),\n",
      "    Message('note_off', channel=9, note=35, velocity=64, time=60),\n",
      "    Message('note_off', channel=9, note=36, velocity=64, time=0),\n",
      "    Message('note_off', channel=9, note=42, velocity=64, time=0),\n",
      "    Message('note_on', channel=9, note=42, velocity=100, time=60),\n",
      "    Message('note_off', channel=9, note=42, velocity=64, time=60),\n",
      "    Message('note_on', channel=9, note=42, velocity=100, time=60),\n",
      "    Message('note_on', channel=9, note=40, velocity=100, time=0),\n",
      "    Message('note_on', channel=9, note=38, velocity=100, time=0),\n",
      "    Message('note_off', channel=9, note=38, velocity=64, time=60),\n",
      "    Message('note_off', channel=9, note=40, velocity=64, time=0),\n",
      "    Message('note_off', channel=9, note=42, velocity=64, time=0),\n",
      "    Message('note_on', channel=9, note=42, velocity=100, time=60),\n",
      "    Message('note_off', channel=9, note=42, velocity=64, time=60),\n",
      "    Message('note_on', channel=9, note=42, velocity=100, time=60),\n",
      "    Message('note_off', channel=9, note=42, velocity=64, time=60),\n",
      "    Message('note_on', channel=9, note=42, velocity=100, time=60),\n",
      "    Message('note_off', channel=9, note=42, velocity=64, time=60),\n",
      "    Message('note_on', channel=9, note=42, velocity=100, time=60),\n",
      "    Message('note_on', channel=9, note=35, velocity=100, time=0),\n",
      "    Message('note_on', channel=9, note=36, velocity=100, time=0),\n",
      "    Message('note_off', channel=9, note=36, velocity=64, time=60),\n",
      "    Message('note_off', channel=9, note=35, velocity=64, time=0),\n",
      "    Message('note_off', channel=9, note=42, velocity=64, time=0),\n",
      "    Message('note_on', channel=9, note=42, velocity=100, time=60),\n",
      "    Message('note_off', channel=9, note=42, velocity=64, time=60),\n",
      "    Message('note_on', channel=9, note=42, velocity=100, time=60),\n",
      "    Message('note_on', channel=9, note=36, velocity=100, time=0),\n",
      "    Message('note_on', channel=9, note=35, velocity=100, time=0),\n",
      "    Message('note_off', channel=9, note=35, velocity=64, time=60),\n",
      "    Message('note_off', channel=9, note=36, velocity=64, time=0),\n",
      "    Message('note_off', channel=9, note=42, velocity=64, time=0),\n",
      "    Message('note_on', channel=9, note=42, velocity=100, time=60),\n",
      "    Message('note_off', channel=9, note=42, velocity=64, time=60),\n",
      "    Message('note_on', channel=9, note=42, velocity=100, time=60),\n",
      "    Message('note_on', channel=9, note=38, velocity=100, time=0),\n",
      "    Message('note_on', channel=9, note=40, velocity=100, time=0),\n",
      "    Message('note_off', channel=9, note=40, velocity=64, time=60),\n",
      "    Message('note_off', channel=9, note=38, velocity=64, time=0),\n",
      "    Message('note_off', channel=9, note=42, velocity=64, time=0),\n",
      "    Message('note_on', channel=9, note=42, velocity=100, time=60),\n",
      "    Message('note_off', channel=9, note=42, velocity=64, time=60),\n",
      "    Message('note_on', channel=9, note=42, velocity=100, time=60),\n",
      "    Message('note_off', channel=9, note=42, velocity=64, time=60),\n",
      "    Message('note_on', channel=9, note=42, velocity=100, time=60),\n",
      "    Message('note_on', channel=9, note=36, velocity=100, time=0),\n",
      "    Message('note_on', channel=9, note=35, velocity=100, time=0),\n",
      "    Message('note_off', channel=9, note=35, velocity=64, time=60),\n",
      "    Message('note_off', channel=9, note=36, velocity=64, time=0),\n",
      "    Message('note_off', channel=9, note=42, velocity=64, time=0),\n",
      "    Message('note_on', channel=9, note=42, velocity=100, time=60),\n",
      "    Message('note_off', channel=9, note=42, velocity=64, time=60),\n",
      "    Message('note_on', channel=9, note=42, velocity=100, time=60),\n",
      "    Message('note_off', channel=9, note=42, velocity=64, time=60),\n",
      "    Message('note_on', channel=9, note=42, velocity=100, time=60),\n",
      "    Message('note_on', channel=9, note=36, velocity=100, time=0),\n",
      "    Message('note_on', channel=9, note=35, velocity=100, time=0),\n",
      "    Message('note_off', channel=9, note=35, velocity=64, time=60),\n",
      "    Message('note_off', channel=9, note=36, velocity=64, time=0),\n",
      "    Message('note_off', channel=9, note=42, velocity=64, time=0),\n",
      "    Message('note_on', channel=9, note=42, velocity=100, time=60),\n",
      "    Message('note_off', channel=9, note=42, velocity=64, time=60),\n",
      "    Message('note_on', channel=9, note=42, velocity=100, time=60),\n",
      "    Message('note_on', channel=9, note=40, velocity=100, time=0),\n",
      "    Message('note_on', channel=9, note=38, velocity=100, time=0),\n",
      "    Message('note_off', channel=9, note=38, velocity=64, time=60),\n",
      "    Message('note_off', channel=9, note=40, velocity=64, time=0),\n",
      "    Message('note_off', channel=9, note=42, velocity=64, time=0),\n",
      "    Message('note_on', channel=9, note=42, velocity=100, time=60),\n",
      "    Message('note_off', channel=9, note=42, velocity=64, time=60),\n",
      "    Message('note_on', channel=9, note=42, velocity=100, time=60),\n",
      "    Message('note_off', channel=9, note=42, velocity=64, time=60),\n",
      "    Message('note_on', channel=9, note=42, velocity=100, time=60),\n",
      "    Message('note_off', channel=9, note=42, velocity=64, time=60),\n",
      "    Message('note_on', channel=9, note=42, velocity=100, time=60),\n",
      "    Message('note_on', channel=9, note=35, velocity=100, time=0),\n",
      "    Message('note_on', channel=9, note=36, velocity=100, time=0),\n",
      "    Message('note_off', channel=9, note=36, velocity=64, time=60),\n",
      "    Message('note_off', channel=9, note=35, velocity=64, time=0),\n",
      "    Message('note_off', channel=9, note=42, velocity=64, time=0),\n",
      "    Message('note_on', channel=9, note=42, velocity=100, time=60),\n",
      "    Message('note_off', channel=9, note=42, velocity=64, time=60),\n",
      "    Message('note_on', channel=9, note=42, velocity=100, time=60),\n",
      "    Message('note_on', channel=9, note=36, velocity=100, time=0),\n",
      "    Message('note_on', channel=9, note=35, velocity=100, time=0),\n",
      "    Message('note_off', channel=9, note=35, velocity=64, time=60),\n",
      "    Message('note_off', channel=9, note=36, velocity=64, time=0),\n",
      "    Message('note_off', channel=9, note=42, velocity=64, time=0),\n",
      "    Message('note_on', channel=9, note=42, velocity=100, time=60),\n",
      "    Message('note_off', channel=9, note=42, velocity=64, time=60),\n",
      "    Message('note_on', channel=9, note=42, velocity=100, time=60),\n",
      "    Message('note_on', channel=9, note=38, velocity=100, time=0),\n",
      "    Message('note_on', channel=9, note=40, velocity=100, time=0),\n",
      "    Message('note_off', channel=9, note=40, velocity=64, time=60),\n",
      "    Message('note_off', channel=9, note=38, velocity=64, time=0),\n",
      "    Message('note_off', channel=9, note=42, velocity=64, time=0),\n",
      "    Message('note_on', channel=9, note=42, velocity=100, time=60),\n",
      "    Message('note_off', channel=9, note=42, velocity=64, time=60),\n",
      "    Message('note_on', channel=9, note=42, velocity=100, time=60),\n",
      "    Message('note_off', channel=9, note=42, velocity=64, time=60),\n",
      "    Message('note_on', channel=9, note=42, velocity=100, time=60),\n",
      "    Message('note_on', channel=9, note=36, velocity=100, time=0),\n",
      "    Message('note_on', channel=9, note=35, velocity=100, time=0),\n",
      "    Message('note_off', channel=9, note=35, velocity=64, time=60),\n",
      "    Message('note_off', channel=9, note=36, velocity=64, time=0),\n",
      "    Message('note_off', channel=9, note=42, velocity=64, time=0),\n",
      "    Message('note_on', channel=9, note=42, velocity=100, time=60),\n",
      "    Message('note_off', channel=9, note=42, velocity=64, time=60),\n",
      "    Message('note_on', channel=9, note=42, velocity=100, time=60),\n",
      "    Message('note_off', channel=9, note=42, velocity=64, time=60),\n",
      "    Message('note_on', channel=9, note=42, velocity=100, time=60),\n",
      "    Message('note_on', channel=9, note=36, velocity=100, time=0),\n",
      "    Message('note_on', channel=9, note=35, velocity=100, time=0),\n",
      "    Message('note_off', channel=9, note=35, velocity=64, time=60),\n",
      "    Message('note_off', channel=9, note=36, velocity=64, time=0),\n",
      "    Message('note_off', channel=9, note=42, velocity=64, time=0),\n",
      "    Message('note_on', channel=9, note=42, velocity=100, time=60),\n",
      "    Message('note_off', channel=9, note=42, velocity=64, time=60),\n",
      "    Message('note_on', channel=9, note=42, velocity=100, time=60),\n",
      "    Message('note_on', channel=9, note=40, velocity=100, time=0),\n",
      "    Message('note_on', channel=9, note=38, velocity=100, time=0),\n",
      "    Message('note_off', channel=9, note=38, velocity=64, time=60),\n",
      "    Message('note_off', channel=9, note=40, velocity=64, time=0),\n",
      "    Message('note_off', channel=9, note=42, velocity=64, time=0),\n",
      "    Message('note_on', channel=9, note=42, velocity=100, time=60),\n",
      "    Message('note_off', channel=9, note=42, velocity=64, time=60),\n",
      "    Message('note_on', channel=9, note=42, velocity=100, time=60),\n",
      "    Message('note_off', channel=9, note=42, velocity=64, time=60),\n",
      "    Message('note_on', channel=9, note=42, velocity=100, time=60),\n",
      "    Message('note_off', channel=9, note=42, velocity=64, time=60),\n",
      "    Message('note_on', channel=9, note=42, velocity=100, time=60),\n",
      "    Message('note_on', channel=9, note=35, velocity=100, time=0),\n",
      "    Message('note_on', channel=9, note=36, velocity=100, time=0),\n",
      "    Message('note_off', channel=9, note=36, velocity=64, time=60),\n",
      "    Message('note_off', channel=9, note=35, velocity=64, time=0),\n",
      "    Message('note_off', channel=9, note=42, velocity=64, time=0),\n",
      "    Message('note_on', channel=9, note=42, velocity=100, time=60),\n",
      "    Message('note_off', channel=9, note=42, velocity=64, time=60),\n",
      "    Message('note_on', channel=9, note=42, velocity=100, time=60),\n",
      "    Message('note_on', channel=9, note=36, velocity=100, time=0),\n",
      "    Message('note_on', channel=9, note=35, velocity=100, time=0),\n",
      "    Message('note_off', channel=9, note=35, velocity=64, time=60),\n",
      "    Message('note_off', channel=9, note=36, velocity=64, time=0),\n",
      "    Message('note_off', channel=9, note=42, velocity=64, time=0),\n",
      "    Message('note_on', channel=9, note=42, velocity=100, time=60),\n",
      "    Message('note_off', channel=9, note=42, velocity=64, time=60),\n",
      "    Message('note_on', channel=9, note=42, velocity=100, time=60),\n",
      "    Message('note_on', channel=9, note=38, velocity=100, time=0),\n",
      "    Message('note_on', channel=9, note=40, velocity=100, time=0),\n",
      "    Message('note_off', channel=9, note=40, velocity=64, time=60),\n",
      "    Message('note_off', channel=9, note=38, velocity=64, time=0),\n",
      "    Message('note_off', channel=9, note=42, velocity=64, time=0),\n",
      "    Message('note_on', channel=9, note=42, velocity=100, time=60),\n",
      "    Message('note_off', channel=9, note=42, velocity=64, time=60),\n",
      "    Message('note_on', channel=9, note=42, velocity=100, time=60),\n",
      "    Message('note_off', channel=9, note=42, velocity=64, time=60),\n",
      "    Message('note_on', channel=9, note=42, velocity=100, time=60),\n",
      "    Message('note_on', channel=9, note=36, velocity=100, time=0),\n",
      "    Message('note_on', channel=9, note=35, velocity=100, time=0),\n",
      "    Message('note_off', channel=9, note=35, velocity=64, time=60),\n",
      "    Message('note_off', channel=9, note=36, velocity=64, time=0),\n",
      "    Message('note_off', channel=9, note=42, velocity=64, time=0),\n",
      "    Message('note_on', channel=9, note=42, velocity=100, time=60),\n",
      "    Message('note_off', channel=9, note=42, velocity=64, time=60),\n",
      "    Message('note_on', channel=9, note=42, velocity=100, time=60),\n",
      "    Message('note_off', channel=9, note=42, velocity=64, time=60),\n",
      "    Message('note_on', channel=9, note=42, velocity=100, time=60),\n",
      "    Message('note_on', channel=9, note=36, velocity=100, time=0),\n",
      "    Message('note_on', channel=9, note=35, velocity=100, time=0),\n",
      "    Message('note_off', channel=9, note=35, velocity=64, time=60),\n",
      "    Message('note_off', channel=9, note=36, velocity=64, time=0),\n",
      "    Message('note_off', channel=9, note=42, velocity=64, time=0),\n",
      "    Message('note_on', channel=9, note=42, velocity=100, time=60),\n",
      "    Message('note_off', channel=9, note=42, velocity=64, time=60),\n",
      "    Message('note_on', channel=9, note=42, velocity=100, time=60),\n",
      "    Message('note_on', channel=9, note=40, velocity=100, time=0),\n",
      "    Message('note_on', channel=9, note=38, velocity=100, time=0),\n",
      "    Message('note_off', channel=9, note=38, velocity=64, time=60),\n",
      "    Message('note_off', channel=9, note=40, velocity=64, time=0),\n",
      "    Message('note_off', channel=9, note=42, velocity=64, time=0),\n",
      "    Message('note_on', channel=9, note=42, velocity=100, time=60),\n",
      "    Message('note_off', channel=9, note=42, velocity=64, time=60),\n",
      "    Message('note_on', channel=9, note=42, velocity=100, time=60),\n",
      "    Message('note_off', channel=9, note=42, velocity=64, time=60),\n",
      "    Message('note_on', channel=9, note=42, velocity=100, time=60),\n",
      "    Message('note_off', channel=9, note=42, velocity=64, time=60),\n",
      "    Message('note_on', channel=9, note=42, velocity=100, time=60),\n",
      "    Message('note_on', channel=9, note=35, velocity=100, time=0),\n",
      "    Message('note_on', channel=9, note=36, velocity=100, time=0),\n",
      "    Message('note_off', channel=9, note=36, velocity=64, time=60),\n",
      "    Message('note_off', channel=9, note=35, velocity=64, time=0),\n",
      "    Message('note_off', channel=9, note=42, velocity=64, time=0),\n",
      "    Message('note_on', channel=9, note=42, velocity=100, time=60),\n",
      "    Message('note_off', channel=9, note=42, velocity=64, time=60),\n",
      "    Message('note_on', channel=9, note=42, velocity=100, time=60),\n",
      "    Message('note_on', channel=9, note=36, velocity=100, time=0),\n",
      "    Message('note_on', channel=9, note=35, velocity=100, time=0),\n",
      "    Message('note_off', channel=9, note=35, velocity=64, time=60),\n",
      "    Message('note_off', channel=9, note=36, velocity=64, time=0),\n",
      "    Message('note_off', channel=9, note=42, velocity=64, time=0),\n",
      "    Message('note_on', channel=9, note=42, velocity=100, time=60),\n",
      "    Message('note_off', channel=9, note=42, velocity=64, time=60),\n",
      "    Message('note_on', channel=9, note=42, velocity=100, time=60),\n",
      "    Message('note_on', channel=9, note=38, velocity=100, time=0),\n",
      "    Message('note_on', channel=9, note=40, velocity=100, time=0),\n",
      "    Message('note_off', channel=9, note=40, velocity=64, time=60),\n",
      "    Message('note_off', channel=9, note=38, velocity=64, time=0),\n",
      "    Message('note_off', channel=9, note=42, velocity=64, time=0),\n",
      "    Message('note_on', channel=9, note=42, velocity=100, time=60),\n",
      "    Message('note_off', channel=9, note=42, velocity=64, time=60),\n",
      "    Message('note_on', channel=9, note=42, velocity=100, time=60),\n",
      "    Message('note_off', channel=9, note=42, velocity=64, time=60),\n",
      "    Message('note_on', channel=9, note=42, velocity=100, time=60),\n",
      "    Message('note_on', channel=9, note=36, velocity=100, time=0),\n",
      "    Message('note_on', channel=9, note=35, velocity=100, time=0),\n",
      "    Message('note_off', channel=9, note=35, velocity=64, time=60),\n",
      "    Message('note_off', channel=9, note=36, velocity=64, time=0),\n",
      "    Message('note_off', channel=9, note=42, velocity=64, time=0),\n",
      "    Message('note_on', channel=9, note=42, velocity=100, time=60),\n",
      "    Message('note_off', channel=9, note=42, velocity=64, time=60),\n",
      "    Message('note_on', channel=9, note=42, velocity=100, time=60),\n",
      "    Message('note_off', channel=9, note=42, velocity=64, time=60),\n",
      "    Message('note_on', channel=9, note=42, velocity=100, time=60),\n",
      "    Message('note_on', channel=9, note=36, velocity=100, time=0),\n",
      "    Message('note_on', channel=9, note=35, velocity=100, time=0),\n",
      "    Message('note_off', channel=9, note=35, velocity=64, time=60),\n",
      "    Message('note_off', channel=9, note=36, velocity=64, time=0),\n",
      "    Message('note_off', channel=9, note=42, velocity=64, time=0),\n",
      "    Message('note_on', channel=9, note=42, velocity=100, time=60),\n",
      "    Message('note_off', channel=9, note=42, velocity=64, time=60),\n",
      "    Message('note_on', channel=9, note=42, velocity=100, time=60),\n",
      "    Message('note_on', channel=9, note=40, velocity=100, time=0),\n",
      "    Message('note_on', channel=9, note=38, velocity=100, time=0),\n",
      "    Message('note_off', channel=9, note=38, velocity=64, time=60),\n",
      "    Message('note_off', channel=9, note=40, velocity=64, time=0),\n",
      "    Message('note_off', channel=9, note=42, velocity=64, time=0),\n",
      "    Message('note_on', channel=9, note=42, velocity=100, time=60),\n",
      "    Message('note_off', channel=9, note=42, velocity=64, time=60),\n",
      "    Message('note_on', channel=9, note=42, velocity=100, time=60),\n",
      "    Message('note_off', channel=9, note=42, velocity=64, time=60),\n",
      "    Message('note_on', channel=9, note=42, velocity=100, time=60),\n",
      "    Message('note_off', channel=9, note=42, velocity=64, time=60),\n",
      "    Message('note_on', channel=9, note=42, velocity=100, time=60),\n",
      "    Message('note_on', channel=9, note=35, velocity=100, time=0),\n",
      "    Message('note_on', channel=9, note=36, velocity=100, time=0),\n",
      "    Message('note_off', channel=9, note=36, velocity=64, time=60),\n",
      "    Message('note_off', channel=9, note=35, velocity=64, time=0),\n",
      "    Message('note_off', channel=9, note=42, velocity=64, time=0),\n",
      "    Message('note_on', channel=9, note=42, velocity=100, time=60),\n",
      "    Message('note_off', channel=9, note=42, velocity=64, time=60),\n",
      "    Message('note_on', channel=9, note=42, velocity=100, time=60),\n",
      "    Message('note_on', channel=9, note=36, velocity=100, time=0),\n",
      "    Message('note_on', channel=9, note=35, velocity=100, time=0),\n",
      "    Message('note_off', channel=9, note=35, velocity=64, time=60),\n",
      "    Message('note_off', channel=9, note=36, velocity=64, time=0),\n",
      "    Message('note_off', channel=9, note=42, velocity=64, time=0),\n",
      "    Message('note_on', channel=9, note=42, velocity=100, time=60),\n",
      "    Message('note_off', channel=9, note=42, velocity=64, time=60),\n",
      "    Message('note_on', channel=9, note=42, velocity=100, time=60),\n",
      "    Message('note_on', channel=9, note=38, velocity=100, time=0),\n",
      "    Message('note_on', channel=9, note=40, velocity=100, time=0),\n",
      "    Message('note_off', channel=9, note=40, velocity=64, time=60),\n",
      "    Message('note_off', channel=9, note=38, velocity=64, time=0),\n",
      "    Message('note_off', channel=9, note=42, velocity=64, time=0),\n",
      "    Message('note_on', channel=9, note=42, velocity=100, time=60),\n",
      "    Message('note_off', channel=9, note=42, velocity=64, time=60),\n",
      "    Message('note_on', channel=9, note=42, velocity=100, time=60),\n",
      "    Message('note_off', channel=9, note=42, velocity=64, time=60),\n",
      "    Message('note_on', channel=9, note=42, velocity=100, time=60),\n",
      "    Message('note_on', channel=9, note=36, velocity=100, time=0),\n",
      "    Message('note_on', channel=9, note=35, velocity=100, time=0),\n",
      "    Message('note_off', channel=9, note=35, velocity=64, time=60),\n",
      "    Message('note_off', channel=9, note=36, velocity=64, time=0),\n",
      "    Message('note_off', channel=9, note=42, velocity=64, time=0),\n",
      "    Message('note_on', channel=9, note=42, velocity=100, time=60),\n",
      "    Message('note_off', channel=9, note=42, velocity=64, time=60),\n",
      "    Message('note_on', channel=9, note=42, velocity=100, time=60),\n",
      "    Message('note_off', channel=9, note=42, velocity=64, time=60),\n",
      "    Message('note_on', channel=9, note=42, velocity=100, time=60),\n",
      "    Message('note_on', channel=9, note=36, velocity=100, time=0),\n",
      "    Message('note_on', channel=9, note=35, velocity=100, time=0),\n",
      "    Message('note_off', channel=9, note=35, velocity=64, time=60),\n",
      "    Message('note_off', channel=9, note=36, velocity=64, time=0),\n",
      "    Message('note_off', channel=9, note=42, velocity=64, time=0),\n",
      "    Message('note_on', channel=9, note=42, velocity=100, time=60),\n",
      "    Message('note_off', channel=9, note=42, velocity=64, time=60),\n",
      "    Message('note_on', channel=9, note=42, velocity=100, time=60),\n",
      "    Message('note_on', channel=9, note=40, velocity=100, time=0),\n",
      "    Message('note_on', channel=9, note=38, velocity=100, time=0),\n",
      "    Message('note_off', channel=9, note=38, velocity=64, time=60),\n",
      "    Message('note_off', channel=9, note=40, velocity=64, time=0),\n",
      "    Message('note_off', channel=9, note=42, velocity=64, time=0),\n",
      "    Message('note_on', channel=9, note=42, velocity=100, time=60),\n",
      "    Message('note_off', channel=9, note=42, velocity=64, time=60),\n",
      "    Message('note_on', channel=9, note=42, velocity=100, time=60),\n",
      "    Message('note_off', channel=9, note=42, velocity=64, time=60),\n",
      "    Message('note_on', channel=9, note=42, velocity=100, time=60),\n",
      "    Message('note_off', channel=9, note=42, velocity=64, time=60),\n",
      "    Message('note_on', channel=9, note=42, velocity=100, time=60),\n",
      "    Message('note_on', channel=9, note=35, velocity=100, time=0),\n",
      "    Message('note_on', channel=9, note=36, velocity=100, time=0),\n",
      "    Message('note_off', channel=9, note=36, velocity=64, time=60),\n",
      "    Message('note_off', channel=9, note=35, velocity=64, time=0),\n",
      "    Message('note_off', channel=9, note=42, velocity=64, time=0),\n",
      "    Message('note_on', channel=9, note=42, velocity=100, time=60),\n",
      "    Message('note_off', channel=9, note=42, velocity=64, time=60),\n",
      "    Message('note_on', channel=9, note=42, velocity=100, time=60),\n",
      "    Message('note_on', channel=9, note=36, velocity=100, time=0),\n",
      "    Message('note_on', channel=9, note=35, velocity=100, time=0),\n",
      "    Message('note_off', channel=9, note=35, velocity=64, time=60),\n",
      "    Message('note_off', channel=9, note=36, velocity=64, time=0),\n",
      "    Message('note_off', channel=9, note=42, velocity=64, time=0),\n",
      "    Message('note_on', channel=9, note=42, velocity=100, time=60),\n",
      "    Message('note_off', channel=9, note=42, velocity=64, time=60),\n",
      "    Message('note_on', channel=9, note=42, velocity=100, time=60),\n",
      "    Message('note_on', channel=9, note=38, velocity=100, time=0),\n",
      "    Message('note_on', channel=9, note=40, velocity=100, time=0),\n",
      "    Message('note_off', channel=9, note=40, velocity=64, time=60),\n",
      "    Message('note_off', channel=9, note=38, velocity=64, time=0),\n",
      "    Message('note_off', channel=9, note=42, velocity=64, time=0),\n",
      "    Message('note_on', channel=9, note=42, velocity=100, time=60),\n",
      "    Message('note_off', channel=9, note=42, velocity=64, time=60),\n",
      "    Message('note_on', channel=9, note=42, velocity=100, time=60),\n",
      "    Message('note_off', channel=9, note=42, velocity=64, time=60),\n",
      "    Message('note_on', channel=9, note=42, velocity=100, time=60),\n",
      "    Message('note_on', channel=9, note=36, velocity=100, time=0),\n",
      "    Message('note_on', channel=9, note=35, velocity=100, time=0),\n",
      "    Message('note_off', channel=9, note=35, velocity=64, time=60),\n",
      "    Message('note_off', channel=9, note=36, velocity=64, time=0),\n",
      "    Message('note_off', channel=9, note=42, velocity=64, time=0),\n",
      "    Message('note_on', channel=9, note=42, velocity=100, time=60),\n",
      "    Message('note_off', channel=9, note=42, velocity=64, time=60),\n",
      "    Message('note_on', channel=9, note=42, velocity=100, time=60),\n",
      "    Message('note_off', channel=9, note=42, velocity=64, time=60),\n",
      "    Message('note_on', channel=9, note=42, velocity=100, time=60),\n",
      "    Message('note_on', channel=9, note=36, velocity=100, time=0),\n",
      "    Message('note_on', channel=9, note=35, velocity=100, time=0),\n",
      "    Message('note_off', channel=9, note=35, velocity=64, time=60),\n",
      "    Message('note_off', channel=9, note=36, velocity=64, time=0),\n",
      "    Message('note_off', channel=9, note=42, velocity=64, time=0),\n",
      "    Message('note_on', channel=9, note=42, velocity=100, time=60),\n",
      "    Message('note_off', channel=9, note=42, velocity=64, time=60),\n",
      "    Message('note_on', channel=9, note=42, velocity=100, time=60),\n",
      "    Message('note_on', channel=9, note=40, velocity=100, time=0),\n",
      "    Message('note_on', channel=9, note=38, velocity=100, time=0),\n",
      "    Message('note_off', channel=9, note=38, velocity=64, time=60),\n",
      "    Message('note_off', channel=9, note=40, velocity=64, time=0),\n",
      "    Message('note_off', channel=9, note=42, velocity=64, time=0),\n",
      "    Message('note_on', channel=9, note=42, velocity=100, time=60),\n",
      "    Message('note_off', channel=9, note=42, velocity=64, time=60),\n",
      "    Message('note_on', channel=9, note=42, velocity=100, time=60),\n",
      "    Message('note_off', channel=9, note=42, velocity=64, time=60),\n",
      "    Message('note_on', channel=9, note=42, velocity=100, time=60),\n",
      "    Message('note_off', channel=9, note=42, velocity=64, time=60),\n",
      "    Message('note_on', channel=9, note=35, velocity=100, time=60),\n",
      "    Message('note_on', channel=9, note=36, velocity=100, time=0),\n",
      "    Message('note_off', channel=9, note=36, velocity=64, time=60),\n",
      "    Message('note_off', channel=9, note=35, velocity=64, time=0),\n",
      "    Message('note_on', channel=9, note=35, velocity=100, time=180),\n",
      "    Message('note_on', channel=9, note=36, velocity=100, time=0),\n",
      "    Message('note_off', channel=9, note=36, velocity=64, time=60),\n",
      "    Message('note_off', channel=9, note=35, velocity=64, time=0),\n",
      "    Message('note_on', channel=9, note=39, velocity=100, time=180),\n",
      "    Message('note_off', channel=9, note=39, velocity=64, time=60),\n",
      "    Message('note_on', channel=9, note=35, velocity=100, time=300),\n",
      "    Message('note_on', channel=9, note=36, velocity=100, time=0),\n",
      "    Message('note_off', channel=9, note=36, velocity=64, time=60),\n",
      "    Message('note_off', channel=9, note=35, velocity=64, time=0),\n",
      "    Message('note_on', channel=9, note=35, velocity=100, time=300),\n",
      "    Message('note_on', channel=9, note=36, velocity=100, time=0),\n",
      "    Message('note_off', channel=9, note=36, velocity=64, time=60),\n",
      "    Message('note_off', channel=9, note=35, velocity=64, time=0),\n",
      "    Message('note_on', channel=9, note=38, velocity=100, time=180),\n",
      "    Message('note_on', channel=9, note=40, velocity=100, time=0),\n",
      "    Message('note_off', channel=9, note=40, velocity=64, time=60),\n",
      "    Message('note_off', channel=9, note=38, velocity=64, time=0),\n",
      "    Message('note_on', channel=9, note=35, velocity=100, time=180),\n",
      "    Message('note_on', channel=9, note=36, velocity=100, time=0),\n",
      "    Message('note_off', channel=9, note=36, velocity=64, time=60),\n",
      "    Message('note_off', channel=9, note=35, velocity=64, time=0),\n",
      "    Message('note_on', channel=9, note=35, velocity=100, time=180),\n",
      "    Message('note_on', channel=9, note=36, velocity=100, time=0),\n",
      "    Message('note_off', channel=9, note=36, velocity=64, time=60),\n",
      "    Message('note_off', channel=9, note=35, velocity=64, time=0),\n",
      "    MetaMessage('end_of_track', time=0)])\n",
      "])\n"
     ]
    }
   ],
   "source": [
    "Input = os.path.realpath('clean_midi/Eminem/Stan.mid')\n",
    "\n",
    "mid = mido.MidiFile(Input)\n",
    "\n",
    "print(mid)"
   ]
  }
 ],
 "metadata": {
  "kernelspec": {
   "display_name": "base",
   "language": "python",
   "name": "python3"
  },
  "language_info": {
   "codemirror_mode": {
    "name": "ipython",
    "version": 3
   },
   "file_extension": ".py",
   "mimetype": "text/x-python",
   "name": "python",
   "nbconvert_exporter": "python",
   "pygments_lexer": "ipython3",
   "version": "3.12.9"
  }
 },
 "nbformat": 4,
 "nbformat_minor": 5
}
